<svg width="174" height="102" viewBox="0 0 174 102" fill="none" xmlns="http://www.w3.org/2000/svg">
<path d="M31.9844 12.9668V70.0176H78" stroke="url(#paint0_linear_520_5276)" strokeWidth="3.45763" stroke-dasharray="3.92 3.92"/>
<path d="M31.9844 12.9668V70.0176H78" stroke="#04C4C4" stroke-opacity="0.6" strokeWidth="3.45763" stroke-dasharray="3.92 3.92"/>
<path d="M31.9844 12.9668V70.0176H78" stroke="url(#paint1_angular_520_5276)" stroke-opacity="0.2" strokeWidth="3.45763" stroke-dasharray="3.92 3.92"/>
<path d="M162.877 5.10268C162.877 2.28603 165.16 0.00268555 167.977 0.00268555V0.00268555C170.794 0.00268555 173.077 2.28603 173.077 5.10268V17.0027H162.877V5.10268Z" fill="#E1E1E1"/>
<path d="M94.8762 5.10265C94.8762 2.286 97.1596 0.00265625 99.9762 0.00265625C102.793 0.00265625 105.076 2.286 105.076 5.10265V17.0026C105.076 18.1293 104.163 19.0426 103.036 19.0426H96.9162C95.7896 19.0426 94.8762 18.1293 94.8762 17.0026V5.10265Z" fill="url(#paint2_linear_520_5276)"/>
<path d="M94.8762 5.10265C94.8762 2.286 97.1596 0.00265625 99.9762 0.00265625C102.793 0.00265625 105.076 2.286 105.076 5.10265V17.0026C105.076 18.1293 104.163 19.0426 103.036 19.0426H96.9162C95.7896 19.0426 94.8762 18.1293 94.8762 17.0026V5.10265Z" fill="#04C4C4" fill-opacity="0.6"/>
<path d="M94.8762 5.10265C94.8762 2.286 97.1596 0.00265625 99.9762 0.00265625C102.793 0.00265625 105.076 2.286 105.076 5.10265V17.0026C105.076 18.1293 104.163 19.0426 103.036 19.0426H96.9162C95.7896 19.0426 94.8762 18.1293 94.8762 17.0026V5.10265Z" fill="url(#paint3_angular_520_5276)" fill-opacity="0.2"/>
<path d="M167.636 0H99.9762C99.9762 0 97.2624 2.91979 95.8957 5.44013C94.4297 8.14368 94.8766 13.0901 94.8766 13.0901V102H162.877V17.0421C162.876 17.029 162.876 17.0158 162.876 17.0026V5.10265C162.876 2.40025 164.978 0.188769 167.636 0.0138098V0Z" fill="url(#paint4_linear_520_5276)"/>
<path d="M167.636 0H99.9762C99.9762 0 97.2624 2.91979 95.8957 5.44013C94.4297 8.14368 94.8766 13.0901 94.8766 13.0901V102H162.877V17.0421C162.876 17.029 162.876 17.0158 162.876 17.0026V5.10265C162.876 2.40025 164.978 0.188769 167.636 0.0138098V0Z" fill="#04C4C4" fill-opacity="0.6"/>
<path d="M167.636 0H99.9762C99.9762 0 97.2624 2.91979 95.8957 5.44013C94.4297 8.14368 94.8766 13.0901 94.8766 13.0901V102H162.877V17.0421C162.876 17.029 162.876 17.0158 162.876 17.0026V5.10265C162.876 2.40025 164.978 0.188769 167.636 0.0138098V0Z" fill="url(#paint5_angular_520_5276)" fill-opacity="0.2"/>
<rect x="106" y="6" width="50.6924" height="2.0277" fill="#FAFAFA"/>
<rect x="119" y="11" width="25.3462" height="2.0277" fill="#FAFAFA"/>
<rect x="106" y="36.9238" width="15.7147" height="1.01385" fill="#FAFAFA"/>
<rect x="106" y="17.6602" width="7.60387" height="1.01385" fill="#FAFAFA"/>
<rect x="106" y="19.6875" width="24.8393" height="1.01385" fill="#FAFAFA"/>
<rect x="106" y="39.459" width="50.6924" height="1.01385" fill="#FAFAFA"/>
<rect x="106" y="41.4863" width="50.6924" height="1.01385" fill="#FAFAFA"/>
<rect x="106" y="43.5156" width="50.6924" height="1.01385" fill="#FAFAFA"/>
<rect x="106" y="45.543" width="50.6924" height="1.01385" fill="#FAFAFA"/>
<rect x="106" y="47.5664" width="50.6924" height="1.01385" fill="#FAFAFA"/>
<rect x="106" y="49.5977" width="13.18" height="1.01385" fill="#FAFAFA"/>
<rect x="131.859" y="19.6875" width="24.8393" height="1.01385" fill="#FAFAFA"/>
<rect x="106" y="21.7148" width="24.8393" height="1.01385" fill="#FAFAFA"/>
<rect x="131.859" y="21.7148" width="24.8393" height="1.01385" fill="#FAFAFA"/>
<rect x="106" y="23.7422" width="24.8393" height="1.01385" fill="#FAFAFA"/>
<rect x="131.859" y="23.7422" width="24.8393" height="1.01385" fill="#FAFAFA"/>
<rect x="106" y="25.7715" width="24.8393" height="1.01385" fill="#FAFAFA"/>
<rect x="131.859" y="25.7715" width="24.8393" height="1.01385" fill="#FAFAFA"/>
<rect x="106" y="27.7988" width="24.8393" height="1.01385" fill="#FAFAFA"/>
<rect x="131.859" y="27.7988" width="24.8393" height="1.01385" fill="#FAFAFA"/>
<rect x="106" y="29.8262" width="24.8393" height="1.01385" fill="#FAFAFA"/>
<rect x="131.859" y="29.8262" width="24.8393" height="1.01385" fill="#FAFAFA"/>
<rect x="0.864407" y="0.864407" width="13.8305" height="13.8305" stroke="url(#paint6_linear_520_5276)" strokeWidth="1.72881"/>
<rect x="0.864407" y="0.864407" width="13.8305" height="13.8305" stroke="#04C4C4" stroke-opacity="0.6" strokeWidth="1.72881"/>
<rect x="0.864407" y="0.864407" width="13.8305" height="13.8305" stroke="url(#paint7_angular_520_5276)" stroke-opacity="0.2" strokeWidth="1.72881"/>
<rect x="76.0653" y="38.8976" width="13.8305" height="24.2034" transform="rotate(90 76.0653 38.8976)" stroke="url(#paint8_linear_520_5276)" strokeWidth="1.72881"/>
<rect x="76.0653" y="38.8976" width="13.8305" height="24.2034" transform="rotate(90 76.0653 38.8976)" stroke="#04C4C4" stroke-opacity="0.6" strokeWidth="1.72881"/>
<rect x="76.0653" y="38.8976" width="13.8305" height="24.2034" transform="rotate(90 76.0653 38.8976)" stroke="url(#paint9_angular_520_5276)" stroke-opacity="0.2" strokeWidth="1.72881"/>
<rect x="24.2031" width="15.5593" height="15.5593" fill="url(#paint10_linear_520_5276)"/>
<rect x="24.2031" width="15.5593" height="15.5593" fill="#04C4C4" fill-opacity="0.6"/>
<rect x="24.2031" width="15.5593" height="15.5593" fill="url(#paint11_angular_520_5276)" fill-opacity="0.2"/>
<rect x="92.0312" y="62.2363" width="15.5593" height="25.9322" transform="rotate(90 92.0312 62.2363)" fill="url(#paint12_linear_520_5276)"/>
<rect x="92.0312" y="62.2363" width="15.5593" height="25.9322" transform="rotate(90 92.0312 62.2363)" fill="#04C4C4" fill-opacity="0.6"/>
<rect x="92.0312" y="62.2363" width="15.5593" height="25.9322" transform="rotate(90 92.0312 62.2363)" fill="url(#paint13_angular_520_5276)" fill-opacity="0.2"/>
<rect x="49.2707" y="0.864407" width="13.8305" height="13.8305" stroke="url(#paint14_linear_520_5276)" strokeWidth="1.72881"/>
<rect x="49.2707" y="0.864407" width="13.8305" height="13.8305" stroke="#04C4C4" stroke-opacity="0.6" strokeWidth="1.72881"/>
<rect x="49.2707" y="0.864407" width="13.8305" height="13.8305" stroke="url(#paint15_angular_520_5276)" stroke-opacity="0.2" strokeWidth="1.72881"/>
<rect x="76.0653" y="87.3058" width="13.8305" height="24.2034" transform="rotate(90 76.0653 87.3058)" stroke="url(#paint16_linear_520_5276)" strokeWidth="1.72881"/>
<rect x="76.0653" y="87.3058" width="13.8305" height="24.2034" transform="rotate(90 76.0653 87.3058)" stroke="#04C4C4" stroke-opacity="0.6" strokeWidth="1.72881"/>
<rect x="76.0653" y="87.3058" width="13.8305" height="24.2034" transform="rotate(90 76.0653 87.3058)" stroke="url(#paint17_angular_520_5276)" stroke-opacity="0.2" strokeWidth="1.72881"/>
<defs>
<linearGradient id="paint0_linear_520_5276" x1="41.5323" y1="29.9834" x2="71.0913" y2="61.818" gradientUnits="userSpaceOnUse">
<stop stopColor="#182F59"/>
<stop offset="1" stopColor="#020F26"/>
</linearGradient>
<radialGradient id="paint1_angular_520_5276" cx="0" cy="0" r="1" gradientUnits="userSpaceOnUse" gradientTransform="translate(64.4738 52.2612) rotate(-131.099) scale(40.1443 39.8949)">
<stop stopColor="#4C576B" stopOpacity="0.5"/>
<stop offset="1" stopOpacity="0.7"/>
</radialGradient>
<linearGradient id="paint2_linear_520_5276" x1="109.923" y1="30.4236" x2="162.856" y2="80.8855" gradientUnits="userSpaceOnUse">
<stop stopColor="#182F59"/>
<stop offset="1" stopColor="#020F26"/>
</linearGradient>
<radialGradient id="paint3_angular_520_5276" cx="0" cy="0" r="1" gradientUnits="userSpaceOnUse" gradientTransform="translate(146.23 70.2536) rotate(-127.674) scale(68.3339 66.3148)">
<stop stopColor="#4C576B" stopOpacity="0.5"/>
<stop offset="1" stopOpacity="0.7"/>
</radialGradient>
<linearGradient id="paint4_linear_520_5276" x1="109.923" y1="30.4236" x2="162.856" y2="80.8855" gradientUnits="userSpaceOnUse">
<stop stopColor="#182F59"/>
<stop offset="1" stopColor="#020F26"/>
</linearGradient>
<radialGradient id="paint5_angular_520_5276" cx="0" cy="0" r="1" gradientUnits="userSpaceOnUse" gradientTransform="translate(146.23 70.2536) rotate(-127.674) scale(68.3339 66.3148)">
<stop stopColor="#4C576B" stopOpacity="0.5"/>
<stop offset="1" stopOpacity="0.7"/>
</radialGradient>
<linearGradient id="paint6_linear_520_5276" x1="3.22845" y1="4.64089" x2="10.9857" y2="14.9988" gradientUnits="userSpaceOnUse">
<stop stopColor="#182F59"/>
<stop offset="1" stopColor="#020F26"/>
</linearGradient>
<radialGradient id="paint7_angular_520_5276" cx="0" cy="0" r="1" gradientUnits="userSpaceOnUse" gradientTransform="translate(10.9857 10.7167) rotate(-137.243) scale(12.1528)">
<stop stopColor="#4C576B" stopOpacity="0.5"/>
<stop offset="1" stopOpacity="0.7"/>
</radialGradient>
<linearGradient id="paint8_linear_520_5276" x1="80.1581" y1="45.768" x2="93.3066" y2="56.302" gradientUnits="userSpaceOnUse">
<stop stopColor="#182F59"/>
<stop offset="1" stopColor="#020F26"/>
</linearGradient>
<radialGradient id="paint9_angular_520_5276" cx="0" cy="0" r="1" gradientUnits="userSpaceOnUse" gradientTransform="translate(87.9154 55.8943) rotate(-122.98) scale(16.3922 15.0164)">
<stop stopColor="#4C576B" stopOpacity="0.5"/>
<stop offset="1" stopOpacity="0.7"/>
</radialGradient>
<linearGradient id="paint10_linear_520_5276" x1="27.4316" y1="4.64089" x2="35.1888" y2="14.9988" gradientUnits="userSpaceOnUse">
<stop stopColor="#182F59"/>
<stop offset="1" stopColor="#020F26"/>
</linearGradient>
<radialGradient id="paint11_angular_520_5276" cx="0" cy="0" r="1" gradientUnits="userSpaceOnUse" gradientTransform="translate(35.1888 10.7167) rotate(-137.243) scale(12.1528)">
<stop stopColor="#4C576B" stopOpacity="0.5"/>
<stop offset="1" stopOpacity="0.7"/>
</radialGradient>
<linearGradient id="paint12_linear_520_5276" x1="95.2597" y1="69.9711" x2="108.408" y2="80.5051" gradientUnits="userSpaceOnUse">
<stop stopColor="#182F59"/>
<stop offset="1" stopColor="#020F26"/>
</linearGradient>
<radialGradient id="paint13_angular_520_5276" cx="0" cy="0" r="1" gradientUnits="userSpaceOnUse" gradientTransform="translate(103.017 80.0974) rotate(-122.98) scale(16.3922 15.0164)">
<stop stopColor="#4C576B" stopOpacity="0.5"/>
<stop offset="1" stopOpacity="0.7"/>
</radialGradient>
<linearGradient id="paint14_linear_520_5276" x1="51.6347" y1="4.64089" x2="59.3919" y2="14.9988" gradientUnits="userSpaceOnUse">
<stop stopColor="#182F59"/>
<stop offset="1" stopColor="#020F26"/>
</linearGradient>
<radialGradient id="paint15_angular_520_5276" cx="0" cy="0" r="1" gradientUnits="userSpaceOnUse" gradientTransform="translate(59.3919 10.7167) rotate(-137.243) scale(12.1528)">
<stop stopColor="#4C576B" stopOpacity="0.5"/>
<stop offset="1" stopOpacity="0.7"/>
</radialGradient>
<linearGradient id="paint16_linear_520_5276" x1="80.1581" y1="94.1762" x2="93.3066" y2="104.71" gradientUnits="userSpaceOnUse">
<stop stopColor="#182F59"/>
<stop offset="1" stopColor="#020F26"/>
</linearGradient>
<radialGradient id="paint17_angular_520_5276" cx="0" cy="0" r="1" gradientUnits="userSpaceOnUse" gradientTransform="translate(87.9154 104.302) rotate(-122.98) scale(16.3922 15.0164)">
<stop stopColor="#4C576B" stopOpacity="0.5"/>
<stop offset="1" stopOpacity="0.7"/>
</radialGradient>
</defs>
</svg>
