<svg xmlns="http://www.w3.org/2000/svg" width="53" height="53" viewBox="0 0 53 53" fill="none">
  <path d="M26.5013 18.246C31.0608 18.246 34.754 21.9421 34.754 26.5014C34.754 31.0582 31.0579 34.7541 26.5013 34.7541C21.9419 34.7541 18.2459 31.058 18.2459 26.5014C18.2459 21.942 21.942 18.246 26.5013 18.246ZM26.5013 14.9788H26.4986C20.1343 14.9788 14.9784 20.1372 14.9784 26.5018C14.9784 32.8634 20.1368 38.0247 26.5014 38.0247C32.863 38.0247 38.0244 32.8636 38.0244 26.5018C38.0244 20.1375 32.8632 14.9788 26.5013 14.9788ZM23.5903 3.26182L29.3719 3.26452H29.4124C29.9924 3.2888 30.4565 3.76632 30.4565 4.35445C30.4565 4.35714 30.4618 7.88868 30.4618 7.88868C32.7794 8.377 34.9404 9.29155 36.8639 10.5434C39.3622 8.04249 39.3622 8.04249 39.3622 8.04249C39.5753 7.82936 39.8559 7.72414 40.1365 7.72414C40.4009 7.72414 40.6653 7.81857 40.8757 8.01011L44.99 12.1271C45.3838 12.556 45.3731 13.2224 44.9576 13.6379C44.9549 13.6406 42.4566 16.1415 42.4566 16.1415C43.7084 18.0624 44.623 20.2261 45.1141 22.5436H48.6456C49.2338 22.5436 49.714 23.0076 49.7383 23.5903V29.4097C49.714 29.9924 49.2337 30.4564 48.6456 30.4564L45.1141 30.4591C44.6231 32.7766 43.7084 34.943 42.4566 36.8666L44.9576 39.3621C45.3731 39.7776 45.3838 40.444 44.99 40.8756L40.8757 44.9899C40.6653 45.1814 40.4009 45.2786 40.1365 45.2786C39.8559 45.2786 39.5753 45.1706 39.3622 44.9575L36.8612 42.462C34.9376 43.7111 32.7739 44.6257 30.4538 45.114C30.4565 48.6455 30.4565 48.6455 30.4565 48.6455C30.4565 49.2336 29.9924 49.7139 29.4124 49.7381H23.5903C23.0076 49.7138 22.5436 49.2336 22.5436 48.6455V45.1166C21.4186 44.8765 20.3286 44.5393 19.2873 44.1104H19.2846C18.1811 43.6571 17.1289 43.1041 16.1388 42.4593L13.6379 44.9575C13.4247 45.1706 13.1441 45.2786 12.8663 45.2786C12.5992 45.2786 12.3348 45.1814 12.127 44.9899L8.01008 40.8756C7.61619 40.444 7.62698 39.7776 8.04246 39.3621C8.04516 39.3621 10.538 36.8693 10.538 36.8693C9.92291 35.9115 9.38869 34.9052 8.94626 33.8503V33.8476C8.49031 32.7631 8.13418 31.6327 7.88596 30.4564H4.3544C3.76627 30.4564 3.28872 29.9923 3.26178 29.4123V23.5903C3.28876 23.0075 3.76629 22.5435 4.3544 22.5435L7.88596 22.5462C8.37697 20.226 9.28882 18.0623 10.538 16.1414C8.04508 13.6405 8.04239 13.6378 8.04239 13.6378C7.62692 13.2223 7.61612 12.556 8.01001 12.127L12.127 8.01005C12.3347 7.8185 12.6018 7.72407 12.8662 7.72407C13.1441 7.72407 13.4246 7.82929 13.6378 8.04243L16.1387 10.5434C18.0596 9.29155 20.2234 8.37698 22.5408 7.88862C22.5435 4.35707 22.5435 4.35438 22.5435 4.35438C22.5435 3.76624 23.0076 3.28876 23.5903 3.26182ZM29.4232 4.80824e-05L23.5769 0.00274597V0.00544385C21.2 0.032423 19.2818 1.96954 19.2818 4.35445L19.2791 5.40391C18.3888 5.70607 17.5227 6.06759 16.6864 6.47767L15.9445 5.73577C15.0947 4.88591 13.9804 4.46233 12.8662 4.46233C11.7709 4.46233 10.6728 4.87241 9.82844 5.69529L5.69795 9.83116C4.03609 11.5335 4.04955 14.2584 5.73572 15.9446L6.47763 16.6892C6.06485 17.5255 5.70603 18.3915 5.40117 19.2819L4.34632 19.2872C1.96679 19.2872 0.032392 21.2027 0 23.5769V29.4231C0.0323747 31.8 1.96949 33.7182 4.35171 33.7182H5.40117C5.70603 34.6112 6.06754 35.4799 6.48032 36.3189L5.73572 37.0582C4.04955 38.7416 4.03608 41.4692 5.69526 43.1716L9.82844 47.3048C10.6729 48.1276 11.7709 48.5377 12.8662 48.5377C13.9805 48.5377 15.0947 48.1142 15.9445 47.2643L16.6837 46.5251H16.6864C17.5254 46.9352 18.3942 47.2967 19.2872 47.6015L19.2818 48.6483C19.2818 51.0305 21.1999 52.9676 23.5769 53H29.4231C31.8 52.9676 33.7182 51.0305 33.7182 48.6483L33.7155 47.6069C34.6085 47.2967 35.4746 46.9351 36.3136 46.5251L37.0582 47.2643C37.908 48.1141 39.0195 48.5377 40.1338 48.5377C41.2291 48.5377 42.3272 48.1277 43.1716 47.3048L47.3047 43.1716C48.9639 41.4693 48.9504 38.7416 47.2643 37.0582L46.5224 36.3216C46.9351 35.4772 47.294 34.6112 47.5988 33.7182H48.6483C51.0305 33.7182 52.9676 31.8 53 29.4231L52.9973 23.5769C52.9676 21.2 51.0305 19.2818 48.6483 19.2818L47.5988 19.2845C47.294 18.3915 46.9351 17.5255 46.5251 16.6891L47.2643 15.9445C48.9504 14.2584 48.9639 11.5335 47.3047 9.82841L43.1716 5.69793C42.3271 4.87239 41.2291 4.46227 40.1338 4.46227C39.0195 4.46227 37.9053 4.88584 37.0582 5.73571L36.3136 6.48031C35.48 6.06753 34.6139 5.7087 33.7209 5.40115L33.7182 4.35439C33.7182 1.96948 31.8001 0.03244 29.4232 4.80824e-05Z" fill="url(#paint0_linear_519_15494)"/>
  <path d="M26.5013 18.246C31.0608 18.246 34.754 21.9421 34.754 26.5014C34.754 31.0582 31.0579 34.7541 26.5013 34.7541C21.9419 34.7541 18.2459 31.058 18.2459 26.5014C18.2459 21.942 21.942 18.246 26.5013 18.246ZM26.5013 14.9788H26.4986C20.1343 14.9788 14.9784 20.1372 14.9784 26.5018C14.9784 32.8634 20.1368 38.0247 26.5014 38.0247C32.863 38.0247 38.0244 32.8636 38.0244 26.5018C38.0244 20.1375 32.8632 14.9788 26.5013 14.9788ZM23.5903 3.26182L29.3719 3.26452H29.4124C29.9924 3.2888 30.4565 3.76632 30.4565 4.35445C30.4565 4.35714 30.4618 7.88868 30.4618 7.88868C32.7794 8.377 34.9404 9.29155 36.8639 10.5434C39.3622 8.04249 39.3622 8.04249 39.3622 8.04249C39.5753 7.82936 39.8559 7.72414 40.1365 7.72414C40.4009 7.72414 40.6653 7.81857 40.8757 8.01011L44.99 12.1271C45.3838 12.556 45.3731 13.2224 44.9576 13.6379C44.9549 13.6406 42.4566 16.1415 42.4566 16.1415C43.7084 18.0624 44.623 20.2261 45.1141 22.5436H48.6456C49.2338 22.5436 49.714 23.0076 49.7383 23.5903V29.4097C49.714 29.9924 49.2337 30.4564 48.6456 30.4564L45.1141 30.4591C44.6231 32.7766 43.7084 34.943 42.4566 36.8666L44.9576 39.3621C45.3731 39.7776 45.3838 40.444 44.99 40.8756L40.8757 44.9899C40.6653 45.1814 40.4009 45.2786 40.1365 45.2786C39.8559 45.2786 39.5753 45.1706 39.3622 44.9575L36.8612 42.462C34.9376 43.7111 32.7739 44.6257 30.4538 45.114C30.4565 48.6455 30.4565 48.6455 30.4565 48.6455C30.4565 49.2336 29.9924 49.7139 29.4124 49.7381H23.5903C23.0076 49.7138 22.5436 49.2336 22.5436 48.6455V45.1166C21.4186 44.8765 20.3286 44.5393 19.2873 44.1104H19.2846C18.1811 43.6571 17.1289 43.1041 16.1388 42.4593L13.6379 44.9575C13.4247 45.1706 13.1441 45.2786 12.8663 45.2786C12.5992 45.2786 12.3348 45.1814 12.127 44.9899L8.01008 40.8756C7.61619 40.444 7.62698 39.7776 8.04246 39.3621C8.04516 39.3621 10.538 36.8693 10.538 36.8693C9.92291 35.9115 9.38869 34.9052 8.94626 33.8503V33.8476C8.49031 32.7631 8.13418 31.6327 7.88596 30.4564H4.3544C3.76627 30.4564 3.28872 29.9923 3.26178 29.4123V23.5903C3.28876 23.0075 3.76629 22.5435 4.3544 22.5435L7.88596 22.5462C8.37697 20.226 9.28882 18.0623 10.538 16.1414C8.04508 13.6405 8.04239 13.6378 8.04239 13.6378C7.62692 13.2223 7.61612 12.556 8.01001 12.127L12.127 8.01005C12.3347 7.8185 12.6018 7.72407 12.8662 7.72407C13.1441 7.72407 13.4246 7.82929 13.6378 8.04243L16.1387 10.5434C18.0596 9.29155 20.2234 8.37698 22.5408 7.88862C22.5435 4.35707 22.5435 4.35438 22.5435 4.35438C22.5435 3.76624 23.0076 3.28876 23.5903 3.26182ZM29.4232 4.80824e-05L23.5769 0.00274597V0.00544385C21.2 0.032423 19.2818 1.96954 19.2818 4.35445L19.2791 5.40391C18.3888 5.70607 17.5227 6.06759 16.6864 6.47767L15.9445 5.73577C15.0947 4.88591 13.9804 4.46233 12.8662 4.46233C11.7709 4.46233 10.6728 4.87241 9.82844 5.69529L5.69795 9.83116C4.03609 11.5335 4.04955 14.2584 5.73572 15.9446L6.47763 16.6892C6.06485 17.5255 5.70603 18.3915 5.40117 19.2819L4.34632 19.2872C1.96679 19.2872 0.032392 21.2027 0 23.5769V29.4231C0.0323747 31.8 1.96949 33.7182 4.35171 33.7182H5.40117C5.70603 34.6112 6.06754 35.4799 6.48032 36.3189L5.73572 37.0582C4.04955 38.7416 4.03608 41.4692 5.69526 43.1716L9.82844 47.3048C10.6729 48.1276 11.7709 48.5377 12.8662 48.5377C13.9805 48.5377 15.0947 48.1142 15.9445 47.2643L16.6837 46.5251H16.6864C17.5254 46.9352 18.3942 47.2967 19.2872 47.6015L19.2818 48.6483C19.2818 51.0305 21.1999 52.9676 23.5769 53H29.4231C31.8 52.9676 33.7182 51.0305 33.7182 48.6483L33.7155 47.6069C34.6085 47.2967 35.4746 46.9351 36.3136 46.5251L37.0582 47.2643C37.908 48.1141 39.0195 48.5377 40.1338 48.5377C41.2291 48.5377 42.3272 48.1277 43.1716 47.3048L47.3047 43.1716C48.9639 41.4693 48.9504 38.7416 47.2643 37.0582L46.5224 36.3216C46.9351 35.4772 47.294 34.6112 47.5988 33.7182H48.6483C51.0305 33.7182 52.9676 31.8 53 29.4231L52.9973 23.5769C52.9676 21.2 51.0305 19.2818 48.6483 19.2818L47.5988 19.2845C47.294 18.3915 46.9351 17.5255 46.5251 16.6891L47.2643 15.9445C48.9504 14.2584 48.9639 11.5335 47.3047 9.82841L43.1716 5.69793C42.3271 4.87239 41.2291 4.46227 40.1338 4.46227C39.0195 4.46227 37.9053 4.88584 37.0582 5.73571L36.3136 6.48031C35.48 6.06753 34.6139 5.7087 33.7209 5.40115L33.7182 4.35439C33.7182 1.96948 31.8001 0.03244 29.4232 4.80824e-05Z" fill="#04C4C4" fill-opacity="0.6"/>
  <path d="M26.5013 18.246C31.0608 18.246 34.754 21.9421 34.754 26.5014C34.754 31.0582 31.0579 34.7541 26.5013 34.7541C21.9419 34.7541 18.2459 31.058 18.2459 26.5014C18.2459 21.942 21.942 18.246 26.5013 18.246ZM26.5013 14.9788H26.4986C20.1343 14.9788 14.9784 20.1372 14.9784 26.5018C14.9784 32.8634 20.1368 38.0247 26.5014 38.0247C32.863 38.0247 38.0244 32.8636 38.0244 26.5018C38.0244 20.1375 32.8632 14.9788 26.5013 14.9788ZM23.5903 3.26182L29.3719 3.26452H29.4124C29.9924 3.2888 30.4565 3.76632 30.4565 4.35445C30.4565 4.35714 30.4618 7.88868 30.4618 7.88868C32.7794 8.377 34.9404 9.29155 36.8639 10.5434C39.3622 8.04249 39.3622 8.04249 39.3622 8.04249C39.5753 7.82936 39.8559 7.72414 40.1365 7.72414C40.4009 7.72414 40.6653 7.81857 40.8757 8.01011L44.99 12.1271C45.3838 12.556 45.3731 13.2224 44.9576 13.6379C44.9549 13.6406 42.4566 16.1415 42.4566 16.1415C43.7084 18.0624 44.623 20.2261 45.1141 22.5436H48.6456C49.2338 22.5436 49.714 23.0076 49.7383 23.5903V29.4097C49.714 29.9924 49.2337 30.4564 48.6456 30.4564L45.1141 30.4591C44.6231 32.7766 43.7084 34.943 42.4566 36.8666L44.9576 39.3621C45.3731 39.7776 45.3838 40.444 44.99 40.8756L40.8757 44.9899C40.6653 45.1814 40.4009 45.2786 40.1365 45.2786C39.8559 45.2786 39.5753 45.1706 39.3622 44.9575L36.8612 42.462C34.9376 43.7111 32.7739 44.6257 30.4538 45.114C30.4565 48.6455 30.4565 48.6455 30.4565 48.6455C30.4565 49.2336 29.9924 49.7139 29.4124 49.7381H23.5903C23.0076 49.7138 22.5436 49.2336 22.5436 48.6455V45.1166C21.4186 44.8765 20.3286 44.5393 19.2873 44.1104H19.2846C18.1811 43.6571 17.1289 43.1041 16.1388 42.4593L13.6379 44.9575C13.4247 45.1706 13.1441 45.2786 12.8663 45.2786C12.5992 45.2786 12.3348 45.1814 12.127 44.9899L8.01008 40.8756C7.61619 40.444 7.62698 39.7776 8.04246 39.3621C8.04516 39.3621 10.538 36.8693 10.538 36.8693C9.92291 35.9115 9.38869 34.9052 8.94626 33.8503V33.8476C8.49031 32.7631 8.13418 31.6327 7.88596 30.4564H4.3544C3.76627 30.4564 3.28872 29.9923 3.26178 29.4123V23.5903C3.28876 23.0075 3.76629 22.5435 4.3544 22.5435L7.88596 22.5462C8.37697 20.226 9.28882 18.0623 10.538 16.1414C8.04508 13.6405 8.04239 13.6378 8.04239 13.6378C7.62692 13.2223 7.61612 12.556 8.01001 12.127L12.127 8.01005C12.3347 7.8185 12.6018 7.72407 12.8662 7.72407C13.1441 7.72407 13.4246 7.82929 13.6378 8.04243L16.1387 10.5434C18.0596 9.29155 20.2234 8.37698 22.5408 7.88862C22.5435 4.35707 22.5435 4.35438 22.5435 4.35438C22.5435 3.76624 23.0076 3.28876 23.5903 3.26182ZM29.4232 4.80824e-05L23.5769 0.00274597V0.00544385C21.2 0.032423 19.2818 1.96954 19.2818 4.35445L19.2791 5.40391C18.3888 5.70607 17.5227 6.06759 16.6864 6.47767L15.9445 5.73577C15.0947 4.88591 13.9804 4.46233 12.8662 4.46233C11.7709 4.46233 10.6728 4.87241 9.82844 5.69529L5.69795 9.83116C4.03609 11.5335 4.04955 14.2584 5.73572 15.9446L6.47763 16.6892C6.06485 17.5255 5.70603 18.3915 5.40117 19.2819L4.34632 19.2872C1.96679 19.2872 0.032392 21.2027 0 23.5769V29.4231C0.0323747 31.8 1.96949 33.7182 4.35171 33.7182H5.40117C5.70603 34.6112 6.06754 35.4799 6.48032 36.3189L5.73572 37.0582C4.04955 38.7416 4.03608 41.4692 5.69526 43.1716L9.82844 47.3048C10.6729 48.1276 11.7709 48.5377 12.8662 48.5377C13.9805 48.5377 15.0947 48.1142 15.9445 47.2643L16.6837 46.5251H16.6864C17.5254 46.9352 18.3942 47.2967 19.2872 47.6015L19.2818 48.6483C19.2818 51.0305 21.1999 52.9676 23.5769 53H29.4231C31.8 52.9676 33.7182 51.0305 33.7182 48.6483L33.7155 47.6069C34.6085 47.2967 35.4746 46.9351 36.3136 46.5251L37.0582 47.2643C37.908 48.1141 39.0195 48.5377 40.1338 48.5377C41.2291 48.5377 42.3272 48.1277 43.1716 47.3048L47.3047 43.1716C48.9639 41.4693 48.9504 38.7416 47.2643 37.0582L46.5224 36.3216C46.9351 35.4772 47.294 34.6112 47.5988 33.7182H48.6483C51.0305 33.7182 52.9676 31.8 53 29.4231L52.9973 23.5769C52.9676 21.2 51.0305 19.2818 48.6483 19.2818L47.5988 19.2845C47.294 18.3915 46.9351 17.5255 46.5251 16.6891L47.2643 15.9445C48.9504 14.2584 48.9639 11.5335 47.3047 9.82841L43.1716 5.69793C42.3271 4.87239 41.2291 4.46227 40.1338 4.46227C39.0195 4.46227 37.9053 4.88584 37.0582 5.73571L36.3136 6.48031C35.48 6.06753 34.6139 5.7087 33.7209 5.40115L33.7182 4.35439C33.7182 1.96948 31.8001 0.03244 29.4232 4.80824e-05Z" fill="url(#paint1_angular_519_15494)" fill-opacity="0.2"/>
  <defs>
    <linearGradient id="paint0_linear_519_15494" x1="10.9971" y1="15.8084" x2="37.4207" y2="51.0908" gradientUnits="userSpaceOnUse">
      <stop stopColor="#182F59"/>
      <stop offset="1" stopColor="#020F26"/>
    </linearGradient>
    <radialGradient id="paint1_angular_519_15494" cx="0" cy="0" r="1" gradientUnits="userSpaceOnUse" gradientTransform="translate(37.4207 36.5043) rotate(-137.243) scale(41.3964)">
      <stop stopColor="#4C576B" stopOpacity="0.5"/>
      <stop offset="1" stopOpacity="0.7"/>
    </radialGradient>
  </defs>
</svg>