<svg xmlns="http://www.w3.org/2000/svg" width="19" height="26" viewBox="0 0 19 26" fill="none">
  <path d="M9.65119 16.8405L16.399 17.3901L12.8877 13.2682H12.8266C9.16266 13.2682 6.17044 10.2759 6.17044 6.612C6.17044 6.2456 6.20097 5.87921 6.26203 5.51281L3.11715 1.81833L0.277588 22.0616L6.01777 17.6649C6.1399 17.5733 6.29257 17.5733 6.44523 17.6038C6.5979 17.6344 6.72003 17.7565 6.75056 17.9092L9.13213 26.0004L11.4526 25.2981L9.13213 17.3901C9.10159 17.2374 9.13213 17.0848 9.22373 16.9626C9.34586 16.8405 9.49852 16.7794 9.65119 16.8405Z" fill="url(#paint0_linear_144_4819)"/>
  <path d="M9.65119 16.8405L16.399 17.3901L12.8877 13.2682H12.8266C9.16266 13.2682 6.17044 10.2759 6.17044 6.612C6.17044 6.2456 6.20097 5.87921 6.26203 5.51281L3.11715 1.81833L0.277588 22.0616L6.01777 17.6649C6.1399 17.5733 6.29257 17.5733 6.44523 17.6038C6.5979 17.6344 6.72003 17.7565 6.75056 17.9092L9.13213 26.0004L11.4526 25.2981L9.13213 17.3901C9.10159 17.2374 9.13213 17.0848 9.22373 16.9626C9.34586 16.8405 9.49852 16.7794 9.65119 16.8405Z" fill="#04C4C4" fill-opacity="0.6"/>
  <path d="M9.65119 16.8405L16.399 17.3901L12.8877 13.2682H12.8266C9.16266 13.2682 6.17044 10.2759 6.17044 6.612C6.17044 6.2456 6.20097 5.87921 6.26203 5.51281L3.11715 1.81833L0.277588 22.0616L6.01777 17.6649C6.1399 17.5733 6.29257 17.5733 6.44523 17.6038C6.5979 17.6344 6.72003 17.7565 6.75056 17.9092L9.13213 26.0004L11.4526 25.2981L9.13213 17.3901C9.10159 17.2374 9.13213 17.0848 9.22373 16.9626C9.34586 16.8405 9.49852 16.7794 9.65119 16.8405Z" fill="url(#paint1_angular_144_4819)" fill-opacity="0.2"/>
  <path d="M12.8571 0.902344C9.68172 0.902344 7.11696 3.46711 7.11696 6.64253C7.11696 9.81795 9.68172 12.3827 12.8571 12.3827C16.0326 12.3827 18.5973 9.81795 18.5973 6.64253C18.5973 3.46711 16.002 0.902344 12.8571 0.902344ZM15.7883 7.37532H13.0403V9.81795C13.0403 10.0622 12.8266 10.2759 12.5823 10.2759C12.3381 10.2759 12.1244 10.0622 12.1244 9.81795V7.37532H9.68172C9.43746 7.37532 9.22373 7.16159 9.22373 6.91732C9.22373 6.67306 9.43746 6.45933 9.68172 6.45933H12.1244V3.71137C12.1244 3.46711 12.3381 3.25338 12.5823 3.25338C12.8266 3.25338 13.0403 3.46711 13.0403 3.71137V6.45933H15.7883C16.0326 6.45933 16.2463 6.67306 16.2463 6.91732C16.2463 7.16159 16.002 7.37532 15.7883 7.37532Z" fill="url(#paint2_linear_144_4819)"/>
  <path d="M12.8571 0.902344C9.68172 0.902344 7.11696 3.46711 7.11696 6.64253C7.11696 9.81795 9.68172 12.3827 12.8571 12.3827C16.0326 12.3827 18.5973 9.81795 18.5973 6.64253C18.5973 3.46711 16.002 0.902344 12.8571 0.902344ZM15.7883 7.37532H13.0403V9.81795C13.0403 10.0622 12.8266 10.2759 12.5823 10.2759C12.3381 10.2759 12.1244 10.0622 12.1244 9.81795V7.37532H9.68172C9.43746 7.37532 9.22373 7.16159 9.22373 6.91732C9.22373 6.67306 9.43746 6.45933 9.68172 6.45933H12.1244V3.71137C12.1244 3.46711 12.3381 3.25338 12.5823 3.25338C12.8266 3.25338 13.0403 3.46711 13.0403 3.71137V6.45933H15.7883C16.0326 6.45933 16.2463 6.67306 16.2463 6.91732C16.2463 7.16159 16.002 7.37532 15.7883 7.37532Z" fill="#04C4C4" fill-opacity="0.6"/>
  <path d="M12.8571 0.902344C9.68172 0.902344 7.11696 3.46711 7.11696 6.64253C7.11696 9.81795 9.68172 12.3827 12.8571 12.3827C16.0326 12.3827 18.5973 9.81795 18.5973 6.64253C18.5973 3.46711 16.002 0.902344 12.8571 0.902344ZM15.7883 7.37532H13.0403V9.81795C13.0403 10.0622 12.8266 10.2759 12.5823 10.2759C12.3381 10.2759 12.1244 10.0622 12.1244 9.81795V7.37532H9.68172C9.43746 7.37532 9.22373 7.16159 9.22373 6.91732C9.22373 6.67306 9.43746 6.45933 9.68172 6.45933H12.1244V3.71137C12.1244 3.46711 12.3381 3.25338 12.5823 3.25338C12.8266 3.25338 13.0403 3.46711 13.0403 3.71137V6.45933H15.7883C16.0326 6.45933 16.2463 6.67306 16.2463 6.91732C16.2463 7.16159 16.002 7.37532 15.7883 7.37532Z" fill="url(#paint3_angular_144_4819)" fill-opacity="0.2"/>
  <defs>
    <linearGradient id="paint0_linear_144_4819" x1="4.0788" y1="8.38836" x2="17.114" y2="21.093" gradientUnits="userSpaceOnUse">
      <stop stopColor="#182F59"/>
      <stop offset="1" stopColor="#020F26"/>
    </linearGradient>
    <radialGradient id="paint1_angular_144_4819" cx="0" cy="0" r="1" gradientUnits="userSpaceOnUse" gradientTransform="translate(13.2123 18.1889) rotate(-128.289) scale(16.9557 16.5432)">
      <stop stopColor="#4C576B" stopOpacity="0.5"/>
      <stop offset="1" stopOpacity="0.7"/>
    </radialGradient>
    <linearGradient id="paint2_linear_144_4819" x1="4.0788" y1="8.38836" x2="17.114" y2="21.093" gradientUnits="userSpaceOnUse">
      <stop stopColor="#182F59"/>
      <stop offset="1" stopColor="#020F26"/>
    </linearGradient>
    <radialGradient id="paint3_angular_144_4819" cx="0" cy="0" r="1" gradientUnits="userSpaceOnUse" gradientTransform="translate(13.2123 18.1889) rotate(-128.289) scale(16.9557 16.5432)">
      <stop stopColor="#4C576B" stopOpacity="0.5"/>
      <stop offset="1" stopOpacity="0.7"/>
    </radialGradient>
  </defs>
</svg>