<svg width="372" height="474" viewBox="0 0 372 474" fill="none" xmlns="http://www.w3.org/2000/svg">
<g filter="url(#filter0_d_6765_31325)">
<rect width="249.903" height="342.747" transform="translate(95.21 105.254)" fill="#FAFAFA"/>
<rect x="95.7902" y="105.834" width="248.743" height="341.586" stroke="url(#paint0_linear_6765_31325)" strokeWidth="1.16054"/>
<rect x="95.7902" y="105.834" width="248.743" height="341.586" stroke="#003D3D" strokeOpacity="0.7" strokeWidth="1.16054"/>
<rect x="95.7902" y="105.834" width="248.743" height="341.586" stroke="url(#paint1_angular_6765_31325)" strokeOpacity="0.2" strokeWidth="1.16054"/>
<rect x="119.969" y="136.977" width="100.58" height="13.9265" fill="#5BBC2E"/>
<rect x="119.969" y="367.536" width="100.58" height="13.9265" fill="#5BBC2E"/>
<rect x="119.969" y="154.77" width="77.3694" height="13.9265" fill="#5BBC2E"/>
<rect x="119.969" y="385.331" width="77.3694" height="13.9265" fill="#5BBC2E"/>
<rect x="119.969" y="172.564" width="91.2959" height="13.9265" fill="#5BBC2E"/>
<rect x="119.969" y="403.126" width="91.2959" height="13.9265" fill="#5BBC2E"/>
<rect x="119.969" y="208.154" width="149.323" height="1.54739" fill="#5BBC2E"/>
<rect x="119.969" y="249.934" width="149.323" height="1.54739" fill="#5BBC2E"/>
<rect x="119.969" y="291.714" width="149.323" height="1.54739" fill="#5BBC2E"/>
<rect x="119.969" y="236.01" width="149.323" height="1.54739" fill="#5BBC2E"/>
<rect x="119.969" y="277.789" width="149.323" height="1.54739" fill="#5BBC2E"/>
<rect x="119.969" y="319.566" width="149.323" height="1.54739" fill="#5BBC2E"/>
<rect x="119.969" y="222.082" width="107.543" height="1.54739" fill="#5BBC2E"/>
<rect x="119.969" y="263.861" width="107.543" height="1.54739" fill="#5BBC2E"/>
<rect x="119.969" y="305.641" width="107.543" height="1.54739" fill="#5BBC2E"/>
<g opacity="0.2">
<path d="M321.88 233.811V212.71H323.231V233.811H321.88ZM325.778 219.461C325.701 218.741 325.377 218.181 324.806 217.78C324.24 217.378 323.503 217.178 322.597 217.178C321.959 217.178 321.413 217.274 320.956 217.466C320.5 217.659 320.151 217.92 319.91 218.249C319.668 218.579 319.544 218.956 319.539 219.379C319.539 219.73 319.618 220.035 319.778 220.294C319.943 220.552 320.165 220.772 320.445 220.953C320.726 221.129 321.036 221.277 321.377 221.398C321.718 221.519 322.061 221.621 322.407 221.703L323.99 222.099C324.627 222.247 325.24 222.448 325.828 222.7C326.421 222.953 326.951 223.272 327.419 223.657C327.891 224.041 328.265 224.505 328.54 225.049C328.814 225.593 328.952 226.231 328.952 226.962C328.952 227.951 328.699 228.822 328.193 229.575C327.688 230.322 326.957 230.907 326.001 231.33C325.05 231.748 323.899 231.957 322.547 231.957C321.234 231.957 320.094 231.753 319.127 231.347C318.165 230.94 317.412 230.347 316.868 229.566C316.33 228.786 316.038 227.835 315.994 226.714H319.003C319.047 227.302 319.228 227.791 319.547 228.182C319.866 228.572 320.281 228.863 320.792 229.055C321.308 229.248 321.885 229.344 322.523 229.344C323.187 229.344 323.77 229.245 324.27 229.047C324.775 228.844 325.171 228.564 325.457 228.206C325.743 227.844 325.888 227.421 325.894 226.937C325.888 226.497 325.759 226.135 325.506 225.849C325.254 225.558 324.899 225.316 324.443 225.124C323.992 224.926 323.465 224.75 322.86 224.596L320.94 224.102C319.55 223.744 318.451 223.203 317.643 222.478C316.841 221.747 316.44 220.777 316.44 219.568C316.44 218.574 316.709 217.703 317.247 216.955C317.791 216.208 318.53 215.628 319.465 215.216C320.399 214.799 321.457 214.59 322.638 214.59C323.836 214.59 324.885 214.799 325.787 215.216C326.693 215.628 327.405 216.203 327.921 216.939C328.438 217.67 328.704 218.51 328.721 219.461H325.778Z" fill="url(#paint2_linear_6765_31325)"/>
<path d="M321.88 233.811V212.71H323.231V233.811H321.88ZM325.778 219.461C325.701 218.741 325.377 218.181 324.806 217.78C324.24 217.378 323.503 217.178 322.597 217.178C321.959 217.178 321.413 217.274 320.956 217.466C320.5 217.659 320.151 217.92 319.91 218.249C319.668 218.579 319.544 218.956 319.539 219.379C319.539 219.73 319.618 220.035 319.778 220.294C319.943 220.552 320.165 220.772 320.445 220.953C320.726 221.129 321.036 221.277 321.377 221.398C321.718 221.519 322.061 221.621 322.407 221.703L323.99 222.099C324.627 222.247 325.24 222.448 325.828 222.7C326.421 222.953 326.951 223.272 327.419 223.657C327.891 224.041 328.265 224.505 328.54 225.049C328.814 225.593 328.952 226.231 328.952 226.962C328.952 227.951 328.699 228.822 328.193 229.575C327.688 230.322 326.957 230.907 326.001 231.33C325.05 231.748 323.899 231.957 322.547 231.957C321.234 231.957 320.094 231.753 319.127 231.347C318.165 230.94 317.412 230.347 316.868 229.566C316.33 228.786 316.038 227.835 315.994 226.714H319.003C319.047 227.302 319.228 227.791 319.547 228.182C319.866 228.572 320.281 228.863 320.792 229.055C321.308 229.248 321.885 229.344 322.523 229.344C323.187 229.344 323.77 229.245 324.27 229.047C324.775 228.844 325.171 228.564 325.457 228.206C325.743 227.844 325.888 227.421 325.894 226.937C325.888 226.497 325.759 226.135 325.506 225.849C325.254 225.558 324.899 225.316 324.443 225.124C323.992 224.926 323.465 224.75 322.86 224.596L320.94 224.102C319.55 223.744 318.451 223.203 317.643 222.478C316.841 221.747 316.44 220.777 316.44 219.568C316.44 218.574 316.709 217.703 317.247 216.955C317.791 216.208 318.53 215.628 319.465 215.216C320.399 214.799 321.457 214.59 322.638 214.59C323.836 214.59 324.885 214.799 325.787 215.216C326.693 215.628 327.405 216.203 327.921 216.939C328.438 217.67 328.704 218.51 328.721 219.461H325.778Z" fill="#003D3D" fillOpacity="0.7"/>
<path d="M321.88 233.811V212.71H323.231V233.811H321.88ZM325.778 219.461C325.701 218.741 325.377 218.181 324.806 217.78C324.24 217.378 323.503 217.178 322.597 217.178C321.959 217.178 321.413 217.274 320.956 217.466C320.5 217.659 320.151 217.92 319.91 218.249C319.668 218.579 319.544 218.956 319.539 219.379C319.539 219.73 319.618 220.035 319.778 220.294C319.943 220.552 320.165 220.772 320.445 220.953C320.726 221.129 321.036 221.277 321.377 221.398C321.718 221.519 322.061 221.621 322.407 221.703L323.99 222.099C324.627 222.247 325.24 222.448 325.828 222.7C326.421 222.953 326.951 223.272 327.419 223.657C327.891 224.041 328.265 224.505 328.54 225.049C328.814 225.593 328.952 226.231 328.952 226.962C328.952 227.951 328.699 228.822 328.193 229.575C327.688 230.322 326.957 230.907 326.001 231.33C325.05 231.748 323.899 231.957 322.547 231.957C321.234 231.957 320.094 231.753 319.127 231.347C318.165 230.94 317.412 230.347 316.868 229.566C316.33 228.786 316.038 227.835 315.994 226.714H319.003C319.047 227.302 319.228 227.791 319.547 228.182C319.866 228.572 320.281 228.863 320.792 229.055C321.308 229.248 321.885 229.344 322.523 229.344C323.187 229.344 323.77 229.245 324.27 229.047C324.775 228.844 325.171 228.564 325.457 228.206C325.743 227.844 325.888 227.421 325.894 226.937C325.888 226.497 325.759 226.135 325.506 225.849C325.254 225.558 324.899 225.316 324.443 225.124C323.992 224.926 323.465 224.75 322.86 224.596L320.94 224.102C319.55 223.744 318.451 223.203 317.643 222.478C316.841 221.747 316.44 220.777 316.44 219.568C316.44 218.574 316.709 217.703 317.247 216.955C317.791 216.208 318.53 215.628 319.465 215.216C320.399 214.799 321.457 214.59 322.638 214.59C323.836 214.59 324.885 214.799 325.787 215.216C326.693 215.628 327.405 216.203 327.921 216.939C328.438 217.67 328.704 218.51 328.721 219.461H325.778Z" fill="url(#paint3_angular_6765_31325)" fillOpacity="0.2"/>
</g>
<g opacity="0.2">
<path d="M321.88 274.819V253.718H323.231V274.819H321.88ZM325.778 260.469C325.701 259.749 325.377 259.189 324.806 258.787C324.24 258.386 323.503 258.186 322.597 258.186C321.959 258.186 321.413 258.282 320.956 258.474C320.5 258.667 320.151 258.928 319.91 259.257C319.668 259.587 319.544 259.963 319.539 260.386C319.539 260.738 319.618 261.043 319.778 261.301C319.943 261.56 320.165 261.779 320.445 261.961C320.726 262.137 321.036 262.285 321.377 262.406C321.718 262.527 322.061 262.628 322.407 262.711L323.99 263.106C324.627 263.255 325.24 263.455 325.828 263.708C326.421 263.961 326.951 264.28 327.419 264.664C327.891 265.049 328.265 265.513 328.54 266.057C328.814 266.601 328.952 267.239 328.952 267.97C328.952 268.959 328.699 269.83 328.193 270.582C327.688 271.33 326.957 271.915 326.001 272.338C325.05 272.756 323.899 272.965 322.547 272.965C321.234 272.965 320.094 272.761 319.127 272.355C318.165 271.948 317.412 271.354 316.868 270.574C316.33 269.794 316.038 268.843 315.994 267.722H319.003C319.047 268.31 319.228 268.799 319.547 269.189C319.866 269.58 320.281 269.871 320.792 270.063C321.308 270.255 321.885 270.352 322.523 270.352C323.187 270.352 323.77 270.253 324.27 270.055C324.775 269.852 325.171 269.571 325.457 269.214C325.743 268.852 325.888 268.428 325.894 267.945C325.888 267.505 325.759 267.143 325.506 266.857C325.254 266.566 324.899 266.324 324.443 266.131C323.992 265.934 323.465 265.758 322.86 265.604L320.94 265.109C319.55 264.752 318.451 264.211 317.643 263.486C316.841 262.755 316.44 261.785 316.44 260.576C316.44 259.581 316.709 258.711 317.247 257.963C317.791 257.216 318.53 256.636 319.465 256.224C320.399 255.806 321.457 255.598 322.638 255.598C323.836 255.598 324.885 255.806 325.787 256.224C326.693 256.636 327.405 257.21 327.921 257.947C328.438 258.678 328.704 259.518 328.721 260.469H325.778Z" fill="url(#paint4_linear_6765_31325)"/>
<path d="M321.88 274.819V253.718H323.231V274.819H321.88ZM325.778 260.469C325.701 259.749 325.377 259.189 324.806 258.787C324.24 258.386 323.503 258.186 322.597 258.186C321.959 258.186 321.413 258.282 320.956 258.474C320.5 258.667 320.151 258.928 319.91 259.257C319.668 259.587 319.544 259.963 319.539 260.386C319.539 260.738 319.618 261.043 319.778 261.301C319.943 261.56 320.165 261.779 320.445 261.961C320.726 262.137 321.036 262.285 321.377 262.406C321.718 262.527 322.061 262.628 322.407 262.711L323.99 263.106C324.627 263.255 325.24 263.455 325.828 263.708C326.421 263.961 326.951 264.28 327.419 264.664C327.891 265.049 328.265 265.513 328.54 266.057C328.814 266.601 328.952 267.239 328.952 267.97C328.952 268.959 328.699 269.83 328.193 270.582C327.688 271.33 326.957 271.915 326.001 272.338C325.05 272.756 323.899 272.965 322.547 272.965C321.234 272.965 320.094 272.761 319.127 272.355C318.165 271.948 317.412 271.354 316.868 270.574C316.33 269.794 316.038 268.843 315.994 267.722H319.003C319.047 268.31 319.228 268.799 319.547 269.189C319.866 269.58 320.281 269.871 320.792 270.063C321.308 270.255 321.885 270.352 322.523 270.352C323.187 270.352 323.77 270.253 324.27 270.055C324.775 269.852 325.171 269.571 325.457 269.214C325.743 268.852 325.888 268.428 325.894 267.945C325.888 267.505 325.759 267.143 325.506 266.857C325.254 266.566 324.899 266.324 324.443 266.131C323.992 265.934 323.465 265.758 322.86 265.604L320.94 265.109C319.55 264.752 318.451 264.211 317.643 263.486C316.841 262.755 316.44 261.785 316.44 260.576C316.44 259.581 316.709 258.711 317.247 257.963C317.791 257.216 318.53 256.636 319.465 256.224C320.399 255.806 321.457 255.598 322.638 255.598C323.836 255.598 324.885 255.806 325.787 256.224C326.693 256.636 327.405 257.21 327.921 257.947C328.438 258.678 328.704 259.518 328.721 260.469H325.778Z" fill="#003D3D" fillOpacity="0.7"/>
<path d="M321.88 274.819V253.718H323.231V274.819H321.88ZM325.778 260.469C325.701 259.749 325.377 259.189 324.806 258.787C324.24 258.386 323.503 258.186 322.597 258.186C321.959 258.186 321.413 258.282 320.956 258.474C320.5 258.667 320.151 258.928 319.91 259.257C319.668 259.587 319.544 259.963 319.539 260.386C319.539 260.738 319.618 261.043 319.778 261.301C319.943 261.56 320.165 261.779 320.445 261.961C320.726 262.137 321.036 262.285 321.377 262.406C321.718 262.527 322.061 262.628 322.407 262.711L323.99 263.106C324.627 263.255 325.24 263.455 325.828 263.708C326.421 263.961 326.951 264.28 327.419 264.664C327.891 265.049 328.265 265.513 328.54 266.057C328.814 266.601 328.952 267.239 328.952 267.97C328.952 268.959 328.699 269.83 328.193 270.582C327.688 271.33 326.957 271.915 326.001 272.338C325.05 272.756 323.899 272.965 322.547 272.965C321.234 272.965 320.094 272.761 319.127 272.355C318.165 271.948 317.412 271.354 316.868 270.574C316.33 269.794 316.038 268.843 315.994 267.722H319.003C319.047 268.31 319.228 268.799 319.547 269.189C319.866 269.58 320.281 269.871 320.792 270.063C321.308 270.255 321.885 270.352 322.523 270.352C323.187 270.352 323.77 270.253 324.27 270.055C324.775 269.852 325.171 269.571 325.457 269.214C325.743 268.852 325.888 268.428 325.894 267.945C325.888 267.505 325.759 267.143 325.506 266.857C325.254 266.566 324.899 266.324 324.443 266.131C323.992 265.934 323.465 265.758 322.86 265.604L320.94 265.109C319.55 264.752 318.451 264.211 317.643 263.486C316.841 262.755 316.44 261.785 316.44 260.576C316.44 259.581 316.709 258.711 317.247 257.963C317.791 257.216 318.53 256.636 319.465 256.224C320.399 255.806 321.457 255.598 322.638 255.598C323.836 255.598 324.885 255.806 325.787 256.224C326.693 256.636 327.405 257.21 327.921 257.947C328.438 258.678 328.704 259.518 328.721 260.469H325.778Z" fill="url(#paint5_angular_6765_31325)" fillOpacity="0.2"/>
</g>
<g opacity="0.2">
<path d="M321.88 317.371V296.27H323.231V317.371H321.88ZM325.778 303.021C325.701 302.301 325.377 301.74 324.806 301.339C324.24 300.938 323.503 300.737 322.597 300.737C321.959 300.737 321.413 300.834 320.956 301.026C320.5 301.218 320.151 301.479 319.91 301.809C319.668 302.139 319.544 302.515 319.539 302.938C319.539 303.29 319.618 303.595 319.778 303.853C319.943 304.111 320.165 304.331 320.445 304.513C320.726 304.688 321.036 304.837 321.377 304.958C321.718 305.079 322.061 305.18 322.407 305.263L323.99 305.658C324.627 305.807 325.24 306.007 325.828 306.26C326.421 306.513 326.951 306.831 327.419 307.216C327.891 307.601 328.265 308.065 328.54 308.609C328.814 309.153 328.952 309.79 328.952 310.521C328.952 311.51 328.699 312.381 328.193 313.134C327.688 313.882 326.957 314.467 326.001 314.89C325.05 315.307 323.899 315.516 322.547 315.516C321.234 315.516 320.094 315.313 319.127 314.906C318.165 314.5 317.412 313.906 316.868 313.126C316.33 312.346 316.038 311.395 315.994 310.274H319.003C319.047 310.862 319.228 311.351 319.547 311.741C319.866 312.131 320.281 312.423 320.792 312.615C321.308 312.807 321.885 312.903 322.523 312.903C323.187 312.903 323.77 312.804 324.27 312.607C324.775 312.403 325.171 312.123 325.457 311.766C325.743 311.403 325.888 310.98 325.894 310.497C325.888 310.057 325.759 309.694 325.506 309.409C325.254 309.117 324.899 308.876 324.443 308.683C323.992 308.485 323.465 308.31 322.86 308.156L320.94 307.661C319.55 307.304 318.451 306.763 317.643 306.037C316.841 305.307 316.44 304.337 316.44 303.128C316.44 302.133 316.709 301.262 317.247 300.515C317.791 299.768 318.53 299.188 319.465 298.776C320.399 298.358 321.457 298.149 322.638 298.149C323.836 298.149 324.885 298.358 325.787 298.776C326.693 299.188 327.405 299.762 327.921 300.498C328.438 301.229 328.704 302.07 328.721 303.021H325.778Z" fill="url(#paint6_linear_6765_31325)"/>
<path d="M321.88 317.371V296.27H323.231V317.371H321.88ZM325.778 303.021C325.701 302.301 325.377 301.74 324.806 301.339C324.24 300.938 323.503 300.737 322.597 300.737C321.959 300.737 321.413 300.834 320.956 301.026C320.5 301.218 320.151 301.479 319.91 301.809C319.668 302.139 319.544 302.515 319.539 302.938C319.539 303.29 319.618 303.595 319.778 303.853C319.943 304.111 320.165 304.331 320.445 304.513C320.726 304.688 321.036 304.837 321.377 304.958C321.718 305.079 322.061 305.18 322.407 305.263L323.99 305.658C324.627 305.807 325.24 306.007 325.828 306.26C326.421 306.513 326.951 306.831 327.419 307.216C327.891 307.601 328.265 308.065 328.54 308.609C328.814 309.153 328.952 309.79 328.952 310.521C328.952 311.51 328.699 312.381 328.193 313.134C327.688 313.882 326.957 314.467 326.001 314.89C325.05 315.307 323.899 315.516 322.547 315.516C321.234 315.516 320.094 315.313 319.127 314.906C318.165 314.5 317.412 313.906 316.868 313.126C316.33 312.346 316.038 311.395 315.994 310.274H319.003C319.047 310.862 319.228 311.351 319.547 311.741C319.866 312.131 320.281 312.423 320.792 312.615C321.308 312.807 321.885 312.903 322.523 312.903C323.187 312.903 323.77 312.804 324.27 312.607C324.775 312.403 325.171 312.123 325.457 311.766C325.743 311.403 325.888 310.98 325.894 310.497C325.888 310.057 325.759 309.694 325.506 309.409C325.254 309.117 324.899 308.876 324.443 308.683C323.992 308.485 323.465 308.31 322.86 308.156L320.94 307.661C319.55 307.304 318.451 306.763 317.643 306.037C316.841 305.307 316.44 304.337 316.44 303.128C316.44 302.133 316.709 301.262 317.247 300.515C317.791 299.768 318.53 299.188 319.465 298.776C320.399 298.358 321.457 298.149 322.638 298.149C323.836 298.149 324.885 298.358 325.787 298.776C326.693 299.188 327.405 299.762 327.921 300.498C328.438 301.229 328.704 302.07 328.721 303.021H325.778Z" fill="#003D3D" fillOpacity="0.7"/>
<path d="M321.88 317.371V296.27H323.231V317.371H321.88ZM325.778 303.021C325.701 302.301 325.377 301.74 324.806 301.339C324.24 300.938 323.503 300.737 322.597 300.737C321.959 300.737 321.413 300.834 320.956 301.026C320.5 301.218 320.151 301.479 319.91 301.809C319.668 302.139 319.544 302.515 319.539 302.938C319.539 303.29 319.618 303.595 319.778 303.853C319.943 304.111 320.165 304.331 320.445 304.513C320.726 304.688 321.036 304.837 321.377 304.958C321.718 305.079 322.061 305.18 322.407 305.263L323.99 305.658C324.627 305.807 325.24 306.007 325.828 306.26C326.421 306.513 326.951 306.831 327.419 307.216C327.891 307.601 328.265 308.065 328.54 308.609C328.814 309.153 328.952 309.79 328.952 310.521C328.952 311.51 328.699 312.381 328.193 313.134C327.688 313.882 326.957 314.467 326.001 314.89C325.05 315.307 323.899 315.516 322.547 315.516C321.234 315.516 320.094 315.313 319.127 314.906C318.165 314.5 317.412 313.906 316.868 313.126C316.33 312.346 316.038 311.395 315.994 310.274H319.003C319.047 310.862 319.228 311.351 319.547 311.741C319.866 312.131 320.281 312.423 320.792 312.615C321.308 312.807 321.885 312.903 322.523 312.903C323.187 312.903 323.77 312.804 324.27 312.607C324.775 312.403 325.171 312.123 325.457 311.766C325.743 311.403 325.888 310.98 325.894 310.497C325.888 310.057 325.759 309.694 325.506 309.409C325.254 309.117 324.899 308.876 324.443 308.683C323.992 308.485 323.465 308.31 322.86 308.156L320.94 307.661C319.55 307.304 318.451 306.763 317.643 306.037C316.841 305.307 316.44 304.337 316.44 303.128C316.44 302.133 316.709 301.262 317.247 300.515C317.791 299.768 318.53 299.188 319.465 298.776C320.399 298.358 321.457 298.149 322.638 298.149C323.836 298.149 324.885 298.358 325.787 298.776C326.693 299.188 327.405 299.762 327.921 300.498C328.438 301.229 328.704 302.07 328.721 303.021H325.778Z" fill="url(#paint7_angular_6765_31325)" fillOpacity="0.2"/>
</g>
<path d="M315.236 362.945V371.861H310.521V362.945H315.236ZM314.662 412.299V420.428H309.947V412.299H314.662ZM317.986 402.386C317.986 401.237 317.774 400.26 317.351 399.454C316.948 398.648 316.283 397.933 315.357 397.308C314.45 396.684 313.221 396.079 311.669 395.495C309.05 394.488 306.743 393.42 304.749 392.291C302.774 391.143 301.233 389.722 300.125 388.03C299.016 386.317 298.462 384.151 298.462 381.532C298.462 379.034 299.057 376.868 300.245 375.034C301.434 373.201 303.076 371.791 305.172 370.803C307.287 369.796 309.745 369.292 312.546 369.292C314.682 369.292 316.616 369.615 318.349 370.259C320.081 370.884 321.572 371.811 322.822 373.04C324.071 374.249 325.028 375.73 325.693 377.482C326.358 379.235 326.69 381.24 326.69 383.497H318.016C318.016 382.288 317.885 381.22 317.623 380.293C317.361 379.366 316.979 378.591 316.475 377.966C315.991 377.341 315.407 376.878 314.722 376.576C314.037 376.253 313.281 376.092 312.455 376.092C311.226 376.092 310.219 376.334 309.433 376.818C308.647 377.301 308.073 377.956 307.71 378.782C307.368 379.588 307.197 380.515 307.197 381.562C307.197 382.59 307.378 383.487 307.741 384.252C308.123 385.018 308.778 385.723 309.705 386.368C310.632 386.992 311.901 387.637 313.513 388.302C316.132 389.309 318.429 390.397 320.404 391.566C322.378 392.735 323.92 394.165 325.028 395.858C326.136 397.55 326.69 399.706 326.69 402.325C326.69 404.924 326.086 407.141 324.877 408.974C323.668 410.788 321.975 412.178 319.799 413.145C317.623 414.092 315.105 414.565 312.244 414.565C310.39 414.565 308.546 414.324 306.713 413.84C304.88 413.336 303.217 412.53 301.726 411.422C300.235 410.314 299.047 408.843 298.16 407.01C297.274 405.156 296.83 402.879 296.83 400.179H305.534C305.534 401.65 305.726 402.879 306.109 403.867C306.491 404.834 306.995 405.609 307.62 406.194C308.264 406.758 308.99 407.161 309.796 407.403C310.602 407.644 311.418 407.765 312.244 407.765C313.533 407.765 314.591 407.534 315.417 407.07C316.263 406.607 316.898 405.972 317.321 405.166C317.764 404.34 317.986 403.413 317.986 402.386Z" fill="url(#paint8_linear_6765_31325)"/>
<path d="M315.236 362.945V371.861H310.521V362.945H315.236ZM314.662 412.299V420.428H309.947V412.299H314.662ZM317.986 402.386C317.986 401.237 317.774 400.26 317.351 399.454C316.948 398.648 316.283 397.933 315.357 397.308C314.45 396.684 313.221 396.079 311.669 395.495C309.05 394.488 306.743 393.42 304.749 392.291C302.774 391.143 301.233 389.722 300.125 388.03C299.016 386.317 298.462 384.151 298.462 381.532C298.462 379.034 299.057 376.868 300.245 375.034C301.434 373.201 303.076 371.791 305.172 370.803C307.287 369.796 309.745 369.292 312.546 369.292C314.682 369.292 316.616 369.615 318.349 370.259C320.081 370.884 321.572 371.811 322.822 373.04C324.071 374.249 325.028 375.73 325.693 377.482C326.358 379.235 326.69 381.24 326.69 383.497H318.016C318.016 382.288 317.885 381.22 317.623 380.293C317.361 379.366 316.979 378.591 316.475 377.966C315.991 377.341 315.407 376.878 314.722 376.576C314.037 376.253 313.281 376.092 312.455 376.092C311.226 376.092 310.219 376.334 309.433 376.818C308.647 377.301 308.073 377.956 307.71 378.782C307.368 379.588 307.197 380.515 307.197 381.562C307.197 382.59 307.378 383.487 307.741 384.252C308.123 385.018 308.778 385.723 309.705 386.368C310.632 386.992 311.901 387.637 313.513 388.302C316.132 389.309 318.429 390.397 320.404 391.566C322.378 392.735 323.92 394.165 325.028 395.858C326.136 397.55 326.69 399.706 326.69 402.325C326.69 404.924 326.086 407.141 324.877 408.974C323.668 410.788 321.975 412.178 319.799 413.145C317.623 414.092 315.105 414.565 312.244 414.565C310.39 414.565 308.546 414.324 306.713 413.84C304.88 413.336 303.217 412.53 301.726 411.422C300.235 410.314 299.047 408.843 298.16 407.01C297.274 405.156 296.83 402.879 296.83 400.179H305.534C305.534 401.65 305.726 402.879 306.109 403.867C306.491 404.834 306.995 405.609 307.62 406.194C308.264 406.758 308.99 407.161 309.796 407.403C310.602 407.644 311.418 407.765 312.244 407.765C313.533 407.765 314.591 407.534 315.417 407.07C316.263 406.607 316.898 405.972 317.321 405.166C317.764 404.34 317.986 403.413 317.986 402.386Z" fill="#003D3D" fillOpacity="0.7"/>
<path d="M315.236 362.945V371.861H310.521V362.945H315.236ZM314.662 412.299V420.428H309.947V412.299H314.662ZM317.986 402.386C317.986 401.237 317.774 400.26 317.351 399.454C316.948 398.648 316.283 397.933 315.357 397.308C314.45 396.684 313.221 396.079 311.669 395.495C309.05 394.488 306.743 393.42 304.749 392.291C302.774 391.143 301.233 389.722 300.125 388.03C299.016 386.317 298.462 384.151 298.462 381.532C298.462 379.034 299.057 376.868 300.245 375.034C301.434 373.201 303.076 371.791 305.172 370.803C307.287 369.796 309.745 369.292 312.546 369.292C314.682 369.292 316.616 369.615 318.349 370.259C320.081 370.884 321.572 371.811 322.822 373.04C324.071 374.249 325.028 375.73 325.693 377.482C326.358 379.235 326.69 381.24 326.69 383.497H318.016C318.016 382.288 317.885 381.22 317.623 380.293C317.361 379.366 316.979 378.591 316.475 377.966C315.991 377.341 315.407 376.878 314.722 376.576C314.037 376.253 313.281 376.092 312.455 376.092C311.226 376.092 310.219 376.334 309.433 376.818C308.647 377.301 308.073 377.956 307.71 378.782C307.368 379.588 307.197 380.515 307.197 381.562C307.197 382.59 307.378 383.487 307.741 384.252C308.123 385.018 308.778 385.723 309.705 386.368C310.632 386.992 311.901 387.637 313.513 388.302C316.132 389.309 318.429 390.397 320.404 391.566C322.378 392.735 323.92 394.165 325.028 395.858C326.136 397.55 326.69 399.706 326.69 402.325C326.69 404.924 326.086 407.141 324.877 408.974C323.668 410.788 321.975 412.178 319.799 413.145C317.623 414.092 315.105 414.565 312.244 414.565C310.39 414.565 308.546 414.324 306.713 413.84C304.88 413.336 303.217 412.53 301.726 411.422C300.235 410.314 299.047 408.843 298.16 407.01C297.274 405.156 296.83 402.879 296.83 400.179H305.534C305.534 401.65 305.726 402.879 306.109 403.867C306.491 404.834 306.995 405.609 307.62 406.194C308.264 406.758 308.99 407.161 309.796 407.403C310.602 407.644 311.418 407.765 312.244 407.765C313.533 407.765 314.591 407.534 315.417 407.07C316.263 406.607 316.898 405.972 317.321 405.166C317.764 404.34 317.986 403.413 317.986 402.386Z" fill="url(#paint9_angular_6765_31325)" fillOpacity="0.2"/>
</g>
<g filter="url(#filter1_d_6765_31325)">
<rect width="249.903" height="342.747" transform="translate(55 59.7539)" fill="#FAFAFA"/>
<rect x="55.5803" y="60.3342" width="248.743" height="341.586" stroke="url(#paint10_linear_6765_31325)" strokeWidth="1.16054"/>
<rect x="55.5803" y="60.3342" width="248.743" height="341.586" stroke="#003D3D" strokeOpacity="0.7" strokeWidth="1.16054"/>
<rect x="55.5803" y="60.3342" width="248.743" height="341.586" stroke="url(#paint11_angular_6765_31325)" strokeOpacity="0.2" strokeWidth="1.16054"/>
<rect x="79.7588" y="91.4766" width="100.58" height="13.9265" fill="#5BBC2E"/>
<rect x="79.7588" y="322.036" width="100.58" height="13.9265" fill="#5BBC2E"/>
<rect x="79.7588" y="109.27" width="77.3694" height="13.9265" fill="#5BBC2E"/>
<rect x="79.7588" y="339.831" width="77.3694" height="13.9265" fill="#5BBC2E"/>
<rect x="79.7588" y="127.064" width="91.2959" height="13.9265" fill="#5BBC2E"/>
<rect x="79.7588" y="357.626" width="91.2959" height="13.9265" fill="#5BBC2E"/>
<rect x="79.7588" y="162.654" width="149.323" height="1.54739" fill="#5BBC2E"/>
<rect x="79.7588" y="204.434" width="149.323" height="1.54739" fill="#5BBC2E"/>
<rect x="79.7588" y="246.215" width="149.323" height="1.54739" fill="#5BBC2E"/>
<rect x="79.7588" y="190.51" width="149.323" height="1.54739" fill="#5BBC2E"/>
<rect x="79.7588" y="232.289" width="149.323" height="1.54739" fill="#5BBC2E"/>
<rect x="79.7588" y="274.066" width="149.323" height="1.54739" fill="#5BBC2E"/>
<rect x="79.7588" y="176.582" width="107.543" height="1.54739" fill="#5BBC2E"/>
<rect x="79.7588" y="218.361" width="107.543" height="1.54739" fill="#5BBC2E"/>
<rect x="79.7588" y="260.141" width="107.543" height="1.54739" fill="#5BBC2E"/>
<g opacity="0.2">
<path d="M281.67 188.311V167.21H283.021V188.311H281.67ZM285.568 173.961C285.491 173.241 285.167 172.681 284.596 172.28C284.03 171.878 283.293 171.678 282.387 171.678C281.749 171.678 281.203 171.774 280.747 171.966C280.29 172.159 279.941 172.42 279.7 172.749C279.458 173.079 279.334 173.456 279.329 173.879C279.329 174.23 279.408 174.535 279.568 174.794C279.733 175.052 279.955 175.272 280.235 175.453C280.516 175.629 280.826 175.777 281.167 175.898C281.508 176.019 281.851 176.121 282.197 176.203L283.78 176.599C284.417 176.747 285.03 176.948 285.618 177.2C286.211 177.453 286.742 177.772 287.209 178.157C287.681 178.541 288.055 179.005 288.33 179.549C288.604 180.093 288.742 180.731 288.742 181.462C288.742 182.451 288.489 183.322 287.983 184.075C287.478 184.822 286.747 185.407 285.791 185.83C284.84 186.248 283.689 186.457 282.337 186.457C281.024 186.457 279.884 186.253 278.917 185.847C277.955 185.44 277.202 184.847 276.658 184.066C276.12 183.286 275.828 182.335 275.785 181.214H278.793C278.837 181.802 279.018 182.291 279.337 182.682C279.656 183.072 280.071 183.363 280.582 183.555C281.098 183.748 281.675 183.844 282.313 183.844C282.977 183.844 283.56 183.745 284.06 183.547C284.566 183.344 284.961 183.064 285.247 182.706C285.533 182.344 285.678 181.921 285.684 181.437C285.678 180.997 285.549 180.635 285.296 180.349C285.044 180.058 284.689 179.816 284.233 179.624C283.782 179.426 283.255 179.25 282.651 179.096L280.73 178.602C279.34 178.244 278.241 177.703 277.433 176.978C276.631 176.247 276.23 175.277 276.23 174.068C276.23 173.074 276.499 172.203 277.037 171.455C277.581 170.708 278.32 170.128 279.255 169.716C280.189 169.299 281.247 169.09 282.428 169.09C283.626 169.09 284.675 169.299 285.577 169.716C286.483 170.128 287.195 170.703 287.711 171.439C288.228 172.17 288.494 173.01 288.511 173.961H285.568Z" fill="url(#paint12_linear_6765_31325)"/>
<path d="M281.67 188.311V167.21H283.021V188.311H281.67ZM285.568 173.961C285.491 173.241 285.167 172.681 284.596 172.28C284.03 171.878 283.293 171.678 282.387 171.678C281.749 171.678 281.203 171.774 280.747 171.966C280.29 172.159 279.941 172.42 279.7 172.749C279.458 173.079 279.334 173.456 279.329 173.879C279.329 174.23 279.408 174.535 279.568 174.794C279.733 175.052 279.955 175.272 280.235 175.453C280.516 175.629 280.826 175.777 281.167 175.898C281.508 176.019 281.851 176.121 282.197 176.203L283.78 176.599C284.417 176.747 285.03 176.948 285.618 177.2C286.211 177.453 286.742 177.772 287.209 178.157C287.681 178.541 288.055 179.005 288.33 179.549C288.604 180.093 288.742 180.731 288.742 181.462C288.742 182.451 288.489 183.322 287.983 184.075C287.478 184.822 286.747 185.407 285.791 185.83C284.84 186.248 283.689 186.457 282.337 186.457C281.024 186.457 279.884 186.253 278.917 185.847C277.955 185.44 277.202 184.847 276.658 184.066C276.12 183.286 275.828 182.335 275.785 181.214H278.793C278.837 181.802 279.018 182.291 279.337 182.682C279.656 183.072 280.071 183.363 280.582 183.555C281.098 183.748 281.675 183.844 282.313 183.844C282.977 183.844 283.56 183.745 284.06 183.547C284.566 183.344 284.961 183.064 285.247 182.706C285.533 182.344 285.678 181.921 285.684 181.437C285.678 180.997 285.549 180.635 285.296 180.349C285.044 180.058 284.689 179.816 284.233 179.624C283.782 179.426 283.255 179.25 282.651 179.096L280.73 178.602C279.34 178.244 278.241 177.703 277.433 176.978C276.631 176.247 276.23 175.277 276.23 174.068C276.23 173.074 276.499 172.203 277.037 171.455C277.581 170.708 278.32 170.128 279.255 169.716C280.189 169.299 281.247 169.09 282.428 169.09C283.626 169.09 284.675 169.299 285.577 169.716C286.483 170.128 287.195 170.703 287.711 171.439C288.228 172.17 288.494 173.01 288.511 173.961H285.568Z" fill="#003D3D" fillOpacity="0.7"/>
<path d="M281.67 188.311V167.21H283.021V188.311H281.67ZM285.568 173.961C285.491 173.241 285.167 172.681 284.596 172.28C284.03 171.878 283.293 171.678 282.387 171.678C281.749 171.678 281.203 171.774 280.747 171.966C280.29 172.159 279.941 172.42 279.7 172.749C279.458 173.079 279.334 173.456 279.329 173.879C279.329 174.23 279.408 174.535 279.568 174.794C279.733 175.052 279.955 175.272 280.235 175.453C280.516 175.629 280.826 175.777 281.167 175.898C281.508 176.019 281.851 176.121 282.197 176.203L283.78 176.599C284.417 176.747 285.03 176.948 285.618 177.2C286.211 177.453 286.742 177.772 287.209 178.157C287.681 178.541 288.055 179.005 288.33 179.549C288.604 180.093 288.742 180.731 288.742 181.462C288.742 182.451 288.489 183.322 287.983 184.075C287.478 184.822 286.747 185.407 285.791 185.83C284.84 186.248 283.689 186.457 282.337 186.457C281.024 186.457 279.884 186.253 278.917 185.847C277.955 185.44 277.202 184.847 276.658 184.066C276.12 183.286 275.828 182.335 275.785 181.214H278.793C278.837 181.802 279.018 182.291 279.337 182.682C279.656 183.072 280.071 183.363 280.582 183.555C281.098 183.748 281.675 183.844 282.313 183.844C282.977 183.844 283.56 183.745 284.06 183.547C284.566 183.344 284.961 183.064 285.247 182.706C285.533 182.344 285.678 181.921 285.684 181.437C285.678 180.997 285.549 180.635 285.296 180.349C285.044 180.058 284.689 179.816 284.233 179.624C283.782 179.426 283.255 179.25 282.651 179.096L280.73 178.602C279.34 178.244 278.241 177.703 277.433 176.978C276.631 176.247 276.23 175.277 276.23 174.068C276.23 173.074 276.499 172.203 277.037 171.455C277.581 170.708 278.32 170.128 279.255 169.716C280.189 169.299 281.247 169.09 282.428 169.09C283.626 169.09 284.675 169.299 285.577 169.716C286.483 170.128 287.195 170.703 287.711 171.439C288.228 172.17 288.494 173.01 288.511 173.961H285.568Z" fill="url(#paint13_angular_6765_31325)" fillOpacity="0.2"/>
</g>
<g opacity="0.2">
<path d="M281.67 229.319V208.218H283.021V229.319H281.67ZM285.568 214.969C285.491 214.249 285.167 213.689 284.596 213.287C284.03 212.886 283.293 212.686 282.387 212.686C281.749 212.686 281.203 212.782 280.747 212.974C280.29 213.167 279.941 213.428 279.7 213.757C279.458 214.087 279.334 214.463 279.329 214.886C279.329 215.238 279.408 215.543 279.568 215.801C279.733 216.06 279.955 216.279 280.235 216.461C280.516 216.637 280.826 216.785 281.167 216.906C281.508 217.027 281.851 217.128 282.197 217.211L283.78 217.606C284.417 217.755 285.03 217.955 285.618 218.208C286.211 218.461 286.742 218.78 287.209 219.164C287.681 219.549 288.055 220.013 288.33 220.557C288.604 221.101 288.742 221.739 288.742 222.47C288.742 223.459 288.489 224.33 287.983 225.082C287.478 225.83 286.747 226.415 285.791 226.838C284.84 227.256 283.689 227.465 282.337 227.465C281.024 227.465 279.884 227.261 278.917 226.855C277.955 226.448 277.202 225.854 276.658 225.074C276.12 224.294 275.828 223.343 275.785 222.222H278.793C278.837 222.81 279.018 223.299 279.337 223.689C279.656 224.08 280.071 224.371 280.582 224.563C281.098 224.755 281.675 224.852 282.313 224.852C282.977 224.852 283.56 224.753 284.06 224.555C284.566 224.352 284.961 224.071 285.247 223.714C285.533 223.352 285.678 222.928 285.684 222.445C285.678 222.005 285.549 221.643 285.296 221.357C285.044 221.066 284.689 220.824 284.233 220.631C283.782 220.434 283.255 220.258 282.651 220.104L280.73 219.609C279.34 219.252 278.241 218.711 277.433 217.986C276.631 217.255 276.23 216.285 276.23 215.076C276.23 214.081 276.499 213.211 277.037 212.463C277.581 211.716 278.32 211.136 279.255 210.724C280.189 210.306 281.247 210.098 282.428 210.098C283.626 210.098 284.675 210.306 285.577 210.724C286.483 211.136 287.195 211.71 287.711 212.447C288.228 213.178 288.494 214.018 288.511 214.969H285.568Z" fill="url(#paint14_linear_6765_31325)"/>
<path d="M281.67 229.319V208.218H283.021V229.319H281.67ZM285.568 214.969C285.491 214.249 285.167 213.689 284.596 213.287C284.03 212.886 283.293 212.686 282.387 212.686C281.749 212.686 281.203 212.782 280.747 212.974C280.29 213.167 279.941 213.428 279.7 213.757C279.458 214.087 279.334 214.463 279.329 214.886C279.329 215.238 279.408 215.543 279.568 215.801C279.733 216.06 279.955 216.279 280.235 216.461C280.516 216.637 280.826 216.785 281.167 216.906C281.508 217.027 281.851 217.128 282.197 217.211L283.78 217.606C284.417 217.755 285.03 217.955 285.618 218.208C286.211 218.461 286.742 218.78 287.209 219.164C287.681 219.549 288.055 220.013 288.33 220.557C288.604 221.101 288.742 221.739 288.742 222.47C288.742 223.459 288.489 224.33 287.983 225.082C287.478 225.83 286.747 226.415 285.791 226.838C284.84 227.256 283.689 227.465 282.337 227.465C281.024 227.465 279.884 227.261 278.917 226.855C277.955 226.448 277.202 225.854 276.658 225.074C276.12 224.294 275.828 223.343 275.785 222.222H278.793C278.837 222.81 279.018 223.299 279.337 223.689C279.656 224.08 280.071 224.371 280.582 224.563C281.098 224.755 281.675 224.852 282.313 224.852C282.977 224.852 283.56 224.753 284.06 224.555C284.566 224.352 284.961 224.071 285.247 223.714C285.533 223.352 285.678 222.928 285.684 222.445C285.678 222.005 285.549 221.643 285.296 221.357C285.044 221.066 284.689 220.824 284.233 220.631C283.782 220.434 283.255 220.258 282.651 220.104L280.73 219.609C279.34 219.252 278.241 218.711 277.433 217.986C276.631 217.255 276.23 216.285 276.23 215.076C276.23 214.081 276.499 213.211 277.037 212.463C277.581 211.716 278.32 211.136 279.255 210.724C280.189 210.306 281.247 210.098 282.428 210.098C283.626 210.098 284.675 210.306 285.577 210.724C286.483 211.136 287.195 211.71 287.711 212.447C288.228 213.178 288.494 214.018 288.511 214.969H285.568Z" fill="#003D3D" fillOpacity="0.7"/>
<path d="M281.67 229.319V208.218H283.021V229.319H281.67ZM285.568 214.969C285.491 214.249 285.167 213.689 284.596 213.287C284.03 212.886 283.293 212.686 282.387 212.686C281.749 212.686 281.203 212.782 280.747 212.974C280.29 213.167 279.941 213.428 279.7 213.757C279.458 214.087 279.334 214.463 279.329 214.886C279.329 215.238 279.408 215.543 279.568 215.801C279.733 216.06 279.955 216.279 280.235 216.461C280.516 216.637 280.826 216.785 281.167 216.906C281.508 217.027 281.851 217.128 282.197 217.211L283.78 217.606C284.417 217.755 285.03 217.955 285.618 218.208C286.211 218.461 286.742 218.78 287.209 219.164C287.681 219.549 288.055 220.013 288.33 220.557C288.604 221.101 288.742 221.739 288.742 222.47C288.742 223.459 288.489 224.33 287.983 225.082C287.478 225.83 286.747 226.415 285.791 226.838C284.84 227.256 283.689 227.465 282.337 227.465C281.024 227.465 279.884 227.261 278.917 226.855C277.955 226.448 277.202 225.854 276.658 225.074C276.12 224.294 275.828 223.343 275.785 222.222H278.793C278.837 222.81 279.018 223.299 279.337 223.689C279.656 224.08 280.071 224.371 280.582 224.563C281.098 224.755 281.675 224.852 282.313 224.852C282.977 224.852 283.56 224.753 284.06 224.555C284.566 224.352 284.961 224.071 285.247 223.714C285.533 223.352 285.678 222.928 285.684 222.445C285.678 222.005 285.549 221.643 285.296 221.357C285.044 221.066 284.689 220.824 284.233 220.631C283.782 220.434 283.255 220.258 282.651 220.104L280.73 219.609C279.34 219.252 278.241 218.711 277.433 217.986C276.631 217.255 276.23 216.285 276.23 215.076C276.23 214.081 276.499 213.211 277.037 212.463C277.581 211.716 278.32 211.136 279.255 210.724C280.189 210.306 281.247 210.098 282.428 210.098C283.626 210.098 284.675 210.306 285.577 210.724C286.483 211.136 287.195 211.71 287.711 212.447C288.228 213.178 288.494 214.018 288.511 214.969H285.568Z" fill="url(#paint15_angular_6765_31325)" fillOpacity="0.2"/>
</g>
<g opacity="0.2">
<path d="M281.67 271.872V250.771H283.021V271.872H281.67ZM285.568 257.522C285.491 256.802 285.167 256.241 284.596 255.84C284.03 255.439 283.293 255.238 282.387 255.238C281.749 255.238 281.203 255.335 280.747 255.527C280.29 255.719 279.941 255.98 279.7 256.31C279.458 256.64 279.334 257.016 279.329 257.439C279.329 257.791 279.408 258.096 279.568 258.354C279.733 258.612 279.955 258.832 280.235 259.014C280.516 259.189 280.826 259.338 281.167 259.459C281.508 259.58 281.851 259.681 282.197 259.764L283.78 260.159C284.417 260.308 285.03 260.508 285.618 260.761C286.211 261.014 286.742 261.332 287.209 261.717C287.681 262.102 288.055 262.566 288.33 263.11C288.604 263.654 288.742 264.291 288.742 265.022C288.742 266.011 288.489 266.882 287.983 267.635C287.478 268.382 286.747 268.968 285.791 269.391C284.84 269.808 283.689 270.017 282.337 270.017C281.024 270.017 279.884 269.814 278.917 269.407C277.955 269.001 277.202 268.407 276.658 267.627C276.12 266.847 275.828 265.896 275.785 264.775H278.793C278.837 265.363 279.018 265.852 279.337 266.242C279.656 266.632 280.071 266.924 280.582 267.116C281.098 267.308 281.675 267.404 282.313 267.404C282.977 267.404 283.56 267.305 284.06 267.108C284.566 266.904 284.961 266.624 285.247 266.267C285.533 265.904 285.678 265.481 285.684 264.998C285.678 264.558 285.549 264.195 285.296 263.91C285.044 263.618 284.689 263.377 284.233 263.184C283.782 262.986 283.255 262.811 282.651 262.657L280.73 262.162C279.34 261.805 278.241 261.264 277.433 260.538C276.631 259.808 276.23 258.838 276.23 257.629C276.23 256.634 276.499 255.763 277.037 255.016C277.581 254.269 278.32 253.689 279.255 253.277C280.189 252.859 281.247 252.65 282.428 252.65C283.626 252.65 284.675 252.859 285.577 253.277C286.483 253.689 287.195 254.263 287.711 254.999C288.228 255.73 288.494 256.571 288.511 257.522H285.568Z" fill="url(#paint16_linear_6765_31325)"/>
<path d="M281.67 271.872V250.771H283.021V271.872H281.67ZM285.568 257.522C285.491 256.802 285.167 256.241 284.596 255.84C284.03 255.439 283.293 255.238 282.387 255.238C281.749 255.238 281.203 255.335 280.747 255.527C280.29 255.719 279.941 255.98 279.7 256.31C279.458 256.64 279.334 257.016 279.329 257.439C279.329 257.791 279.408 258.096 279.568 258.354C279.733 258.612 279.955 258.832 280.235 259.014C280.516 259.189 280.826 259.338 281.167 259.459C281.508 259.58 281.851 259.681 282.197 259.764L283.78 260.159C284.417 260.308 285.03 260.508 285.618 260.761C286.211 261.014 286.742 261.332 287.209 261.717C287.681 262.102 288.055 262.566 288.33 263.11C288.604 263.654 288.742 264.291 288.742 265.022C288.742 266.011 288.489 266.882 287.983 267.635C287.478 268.382 286.747 268.968 285.791 269.391C284.84 269.808 283.689 270.017 282.337 270.017C281.024 270.017 279.884 269.814 278.917 269.407C277.955 269.001 277.202 268.407 276.658 267.627C276.12 266.847 275.828 265.896 275.785 264.775H278.793C278.837 265.363 279.018 265.852 279.337 266.242C279.656 266.632 280.071 266.924 280.582 267.116C281.098 267.308 281.675 267.404 282.313 267.404C282.977 267.404 283.56 267.305 284.06 267.108C284.566 266.904 284.961 266.624 285.247 266.267C285.533 265.904 285.678 265.481 285.684 264.998C285.678 264.558 285.549 264.195 285.296 263.91C285.044 263.618 284.689 263.377 284.233 263.184C283.782 262.986 283.255 262.811 282.651 262.657L280.73 262.162C279.34 261.805 278.241 261.264 277.433 260.538C276.631 259.808 276.23 258.838 276.23 257.629C276.23 256.634 276.499 255.763 277.037 255.016C277.581 254.269 278.32 253.689 279.255 253.277C280.189 252.859 281.247 252.65 282.428 252.65C283.626 252.65 284.675 252.859 285.577 253.277C286.483 253.689 287.195 254.263 287.711 254.999C288.228 255.73 288.494 256.571 288.511 257.522H285.568Z" fill="#003D3D" fillOpacity="0.7"/>
<path d="M281.67 271.872V250.771H283.021V271.872H281.67ZM285.568 257.522C285.491 256.802 285.167 256.241 284.596 255.84C284.03 255.439 283.293 255.238 282.387 255.238C281.749 255.238 281.203 255.335 280.747 255.527C280.29 255.719 279.941 255.98 279.7 256.31C279.458 256.64 279.334 257.016 279.329 257.439C279.329 257.791 279.408 258.096 279.568 258.354C279.733 258.612 279.955 258.832 280.235 259.014C280.516 259.189 280.826 259.338 281.167 259.459C281.508 259.58 281.851 259.681 282.197 259.764L283.78 260.159C284.417 260.308 285.03 260.508 285.618 260.761C286.211 261.014 286.742 261.332 287.209 261.717C287.681 262.102 288.055 262.566 288.33 263.11C288.604 263.654 288.742 264.291 288.742 265.022C288.742 266.011 288.489 266.882 287.983 267.635C287.478 268.382 286.747 268.968 285.791 269.391C284.84 269.808 283.689 270.017 282.337 270.017C281.024 270.017 279.884 269.814 278.917 269.407C277.955 269.001 277.202 268.407 276.658 267.627C276.12 266.847 275.828 265.896 275.785 264.775H278.793C278.837 265.363 279.018 265.852 279.337 266.242C279.656 266.632 280.071 266.924 280.582 267.116C281.098 267.308 281.675 267.404 282.313 267.404C282.977 267.404 283.56 267.305 284.06 267.108C284.566 266.904 284.961 266.624 285.247 266.267C285.533 265.904 285.678 265.481 285.684 264.998C285.678 264.558 285.549 264.195 285.296 263.91C285.044 263.618 284.689 263.377 284.233 263.184C283.782 262.986 283.255 262.811 282.651 262.657L280.73 262.162C279.34 261.805 278.241 261.264 277.433 260.538C276.631 259.808 276.23 258.838 276.23 257.629C276.23 256.634 276.499 255.763 277.037 255.016C277.581 254.269 278.32 253.689 279.255 253.277C280.189 252.859 281.247 252.65 282.428 252.65C283.626 252.65 284.675 252.859 285.577 253.277C286.483 253.689 287.195 254.263 287.711 254.999C288.228 255.73 288.494 256.571 288.511 257.522H285.568Z" fill="url(#paint17_angular_6765_31325)" fillOpacity="0.2"/>
</g>
<path d="M275.026 317.445V326.361H270.311V317.445H275.026ZM274.452 366.799V374.928H269.737V366.799H274.452ZM277.776 356.886C277.776 355.737 277.564 354.76 277.141 353.954C276.738 353.148 276.073 352.433 275.147 351.808C274.24 351.184 273.011 350.579 271.46 349.995C268.84 348.988 266.533 347.92 264.539 346.791C262.564 345.643 261.023 344.222 259.915 342.53C258.806 340.817 258.252 338.651 258.252 336.032C258.252 333.534 258.847 331.368 260.035 329.534C261.224 327.701 262.866 326.291 264.962 325.303C267.077 324.296 269.535 323.792 272.336 323.792C274.472 323.792 276.406 324.115 278.139 324.759C279.871 325.384 281.362 326.311 282.612 327.54C283.861 328.749 284.818 330.23 285.483 331.982C286.148 333.735 286.48 335.74 286.48 337.997H277.806C277.806 336.788 277.675 335.72 277.413 334.793C277.151 333.866 276.769 333.091 276.265 332.466C275.781 331.841 275.197 331.378 274.512 331.076C273.827 330.753 273.071 330.592 272.245 330.592C271.016 330.592 270.009 330.834 269.223 331.318C268.437 331.801 267.863 332.456 267.5 333.282C267.158 334.088 266.987 335.015 266.987 336.062C266.987 337.09 267.168 337.987 267.531 338.752C267.913 339.518 268.568 340.223 269.495 340.868C270.422 341.492 271.691 342.137 273.303 342.802C275.922 343.809 278.219 344.897 280.194 346.066C282.168 347.235 283.71 348.665 284.818 350.358C285.926 352.05 286.48 354.206 286.48 356.825C286.48 359.424 285.876 361.641 284.667 363.474C283.458 365.288 281.765 366.678 279.589 367.645C277.413 368.592 274.895 369.065 272.034 369.065C270.18 369.065 268.337 368.824 266.503 368.34C264.67 367.836 263.007 367.03 261.516 365.922C260.025 364.814 258.837 363.343 257.95 361.51C257.064 359.656 256.62 357.379 256.62 354.679H265.324C265.324 356.15 265.516 357.379 265.899 358.367C266.281 359.334 266.785 360.109 267.41 360.694C268.054 361.258 268.78 361.661 269.586 361.903C270.392 362.144 271.208 362.265 272.034 362.265C273.323 362.265 274.381 362.034 275.207 361.57C276.053 361.107 276.688 360.472 277.111 359.666C277.554 358.84 277.776 357.913 277.776 356.886Z" fill="url(#paint18_linear_6765_31325)"/>
<path d="M275.026 317.445V326.361H270.311V317.445H275.026ZM274.452 366.799V374.928H269.737V366.799H274.452ZM277.776 356.886C277.776 355.737 277.564 354.76 277.141 353.954C276.738 353.148 276.073 352.433 275.147 351.808C274.24 351.184 273.011 350.579 271.46 349.995C268.84 348.988 266.533 347.92 264.539 346.791C262.564 345.643 261.023 344.222 259.915 342.53C258.806 340.817 258.252 338.651 258.252 336.032C258.252 333.534 258.847 331.368 260.035 329.534C261.224 327.701 262.866 326.291 264.962 325.303C267.077 324.296 269.535 323.792 272.336 323.792C274.472 323.792 276.406 324.115 278.139 324.759C279.871 325.384 281.362 326.311 282.612 327.54C283.861 328.749 284.818 330.23 285.483 331.982C286.148 333.735 286.48 335.74 286.48 337.997H277.806C277.806 336.788 277.675 335.72 277.413 334.793C277.151 333.866 276.769 333.091 276.265 332.466C275.781 331.841 275.197 331.378 274.512 331.076C273.827 330.753 273.071 330.592 272.245 330.592C271.016 330.592 270.009 330.834 269.223 331.318C268.437 331.801 267.863 332.456 267.5 333.282C267.158 334.088 266.987 335.015 266.987 336.062C266.987 337.09 267.168 337.987 267.531 338.752C267.913 339.518 268.568 340.223 269.495 340.868C270.422 341.492 271.691 342.137 273.303 342.802C275.922 343.809 278.219 344.897 280.194 346.066C282.168 347.235 283.71 348.665 284.818 350.358C285.926 352.05 286.48 354.206 286.48 356.825C286.48 359.424 285.876 361.641 284.667 363.474C283.458 365.288 281.765 366.678 279.589 367.645C277.413 368.592 274.895 369.065 272.034 369.065C270.18 369.065 268.337 368.824 266.503 368.34C264.67 367.836 263.007 367.03 261.516 365.922C260.025 364.814 258.837 363.343 257.95 361.51C257.064 359.656 256.62 357.379 256.62 354.679H265.324C265.324 356.15 265.516 357.379 265.899 358.367C266.281 359.334 266.785 360.109 267.41 360.694C268.054 361.258 268.78 361.661 269.586 361.903C270.392 362.144 271.208 362.265 272.034 362.265C273.323 362.265 274.381 362.034 275.207 361.57C276.053 361.107 276.688 360.472 277.111 359.666C277.554 358.84 277.776 357.913 277.776 356.886Z" fill="#003D3D" fillOpacity="0.7"/>
<path d="M275.026 317.445V326.361H270.311V317.445H275.026ZM274.452 366.799V374.928H269.737V366.799H274.452ZM277.776 356.886C277.776 355.737 277.564 354.76 277.141 353.954C276.738 353.148 276.073 352.433 275.147 351.808C274.24 351.184 273.011 350.579 271.46 349.995C268.84 348.988 266.533 347.92 264.539 346.791C262.564 345.643 261.023 344.222 259.915 342.53C258.806 340.817 258.252 338.651 258.252 336.032C258.252 333.534 258.847 331.368 260.035 329.534C261.224 327.701 262.866 326.291 264.962 325.303C267.077 324.296 269.535 323.792 272.336 323.792C274.472 323.792 276.406 324.115 278.139 324.759C279.871 325.384 281.362 326.311 282.612 327.54C283.861 328.749 284.818 330.23 285.483 331.982C286.148 333.735 286.48 335.74 286.48 337.997H277.806C277.806 336.788 277.675 335.72 277.413 334.793C277.151 333.866 276.769 333.091 276.265 332.466C275.781 331.841 275.197 331.378 274.512 331.076C273.827 330.753 273.071 330.592 272.245 330.592C271.016 330.592 270.009 330.834 269.223 331.318C268.437 331.801 267.863 332.456 267.5 333.282C267.158 334.088 266.987 335.015 266.987 336.062C266.987 337.09 267.168 337.987 267.531 338.752C267.913 339.518 268.568 340.223 269.495 340.868C270.422 341.492 271.691 342.137 273.303 342.802C275.922 343.809 278.219 344.897 280.194 346.066C282.168 347.235 283.71 348.665 284.818 350.358C285.926 352.05 286.48 354.206 286.48 356.825C286.48 359.424 285.876 361.641 284.667 363.474C283.458 365.288 281.765 366.678 279.589 367.645C277.413 368.592 274.895 369.065 272.034 369.065C270.18 369.065 268.337 368.824 266.503 368.34C264.67 367.836 263.007 367.03 261.516 365.922C260.025 364.814 258.837 363.343 257.95 361.51C257.064 359.656 256.62 357.379 256.62 354.679H265.324C265.324 356.15 265.516 357.379 265.899 358.367C266.281 359.334 266.785 360.109 267.41 360.694C268.054 361.258 268.78 361.661 269.586 361.903C270.392 362.144 271.208 362.265 272.034 362.265C273.323 362.265 274.381 362.034 275.207 361.57C276.053 361.107 276.688 360.472 277.111 359.666C277.554 358.84 277.776 357.913 277.776 356.886Z" fill="url(#paint19_angular_6765_31325)" fillOpacity="0.2"/>
</g>
<g filter="url(#filter2_d_6765_31325)">
<rect width="249.903" height="342.747" transform="translate(14.79 14.2539)" fill="#FAFAFA"/>
<rect x="15.3703" y="14.8342" width="248.743" height="341.586" stroke="url(#paint20_linear_6765_31325)" strokeWidth="1.16054"/>
<rect x="15.3703" y="14.8342" width="248.743" height="341.586" stroke="#003D3D" strokeOpacity="0.7" strokeWidth="1.16054"/>
<rect x="15.3703" y="14.8342" width="248.743" height="341.586" stroke="url(#paint21_angular_6765_31325)" strokeOpacity="0.2" strokeWidth="1.16054"/>
<rect x="39.5488" y="45.9766" width="100.58" height="13.9265" fill="#5BBC2E"/>
<rect x="39.5488" y="276.535" width="100.58" height="13.9265" fill="#5BBC2E"/>
<rect x="39.5488" y="63.7695" width="77.3694" height="13.9265" fill="#5BBC2E"/>
<rect x="39.5488" y="294.331" width="77.3694" height="13.9265" fill="#5BBC2E"/>
<rect x="39.5488" y="81.5645" width="91.2959" height="13.9265" fill="#5BBC2E"/>
<rect x="39.5488" y="312.126" width="91.2959" height="13.9265" fill="#5BBC2E"/>
<rect x="39.5488" y="117.154" width="149.323" height="1.54739" fill="#5BBC2E"/>
<rect x="39.5488" y="158.934" width="149.323" height="1.54739" fill="#5BBC2E"/>
<rect x="39.5488" y="200.715" width="149.323" height="1.54739" fill="#5BBC2E"/>
<rect x="39.5488" y="145.01" width="149.323" height="1.54739" fill="#5BBC2E"/>
<rect x="39.5488" y="186.789" width="149.323" height="1.54739" fill="#5BBC2E"/>
<rect x="39.5488" y="228.566" width="149.323" height="1.54739" fill="#5BBC2E"/>
<rect x="39.5488" y="131.082" width="107.543" height="1.54739" fill="#5BBC2E"/>
<rect x="39.5488" y="172.861" width="107.543" height="1.54739" fill="#5BBC2E"/>
<rect x="39.5488" y="214.641" width="107.543" height="1.54739" fill="#5BBC2E"/>
<g opacity="0.2">
<path d="M241.46 142.811V121.71H242.811V142.811H241.46ZM245.358 128.461C245.281 127.741 244.957 127.181 244.386 126.78C243.82 126.378 243.083 126.178 242.177 126.178C241.539 126.178 240.993 126.274 240.537 126.466C240.08 126.659 239.732 126.92 239.49 127.249C239.248 127.579 239.124 127.956 239.119 128.379C239.119 128.73 239.199 129.035 239.358 129.294C239.523 129.552 239.745 129.772 240.026 129.953C240.306 130.129 240.616 130.277 240.957 130.398C241.298 130.519 241.641 130.621 241.987 130.703L243.57 131.099C244.207 131.247 244.82 131.448 245.408 131.7C246.001 131.953 246.532 132.272 246.999 132.657C247.471 133.041 247.845 133.505 248.12 134.049C248.394 134.593 248.532 135.231 248.532 135.962C248.532 136.951 248.279 137.822 247.773 138.575C247.268 139.322 246.537 139.907 245.581 140.33C244.63 140.748 243.479 140.957 242.127 140.957C240.814 140.957 239.674 140.753 238.707 140.347C237.745 139.94 236.992 139.347 236.448 138.566C235.91 137.786 235.619 136.835 235.575 135.714H238.583C238.627 136.302 238.808 136.791 239.127 137.182C239.446 137.572 239.861 137.863 240.372 138.055C240.888 138.248 241.465 138.344 242.103 138.344C242.768 138.344 243.35 138.245 243.85 138.047C244.356 137.844 244.751 137.564 245.037 137.206C245.323 136.844 245.468 136.421 245.474 135.937C245.468 135.497 245.339 135.135 245.086 134.849C244.834 134.558 244.479 134.316 244.023 134.124C243.573 133.926 243.045 133.75 242.441 133.596L240.52 133.102C239.13 132.744 238.031 132.203 237.223 131.478C236.421 130.747 236.02 129.777 236.02 128.568C236.02 127.574 236.289 126.703 236.827 125.955C237.371 125.208 238.111 124.628 239.045 124.216C239.979 123.799 241.037 123.59 242.218 123.59C243.416 123.59 244.465 123.799 245.367 124.216C246.273 124.628 246.985 125.203 247.501 125.939C248.018 126.67 248.284 127.51 248.301 128.461H245.358Z" fill="url(#paint22_linear_6765_31325)"/>
<path d="M241.46 142.811V121.71H242.811V142.811H241.46ZM245.358 128.461C245.281 127.741 244.957 127.181 244.386 126.78C243.82 126.378 243.083 126.178 242.177 126.178C241.539 126.178 240.993 126.274 240.537 126.466C240.08 126.659 239.732 126.92 239.49 127.249C239.248 127.579 239.124 127.956 239.119 128.379C239.119 128.73 239.199 129.035 239.358 129.294C239.523 129.552 239.745 129.772 240.026 129.953C240.306 130.129 240.616 130.277 240.957 130.398C241.298 130.519 241.641 130.621 241.987 130.703L243.57 131.099C244.207 131.247 244.82 131.448 245.408 131.7C246.001 131.953 246.532 132.272 246.999 132.657C247.471 133.041 247.845 133.505 248.12 134.049C248.394 134.593 248.532 135.231 248.532 135.962C248.532 136.951 248.279 137.822 247.773 138.575C247.268 139.322 246.537 139.907 245.581 140.33C244.63 140.748 243.479 140.957 242.127 140.957C240.814 140.957 239.674 140.753 238.707 140.347C237.745 139.94 236.992 139.347 236.448 138.566C235.91 137.786 235.619 136.835 235.575 135.714H238.583C238.627 136.302 238.808 136.791 239.127 137.182C239.446 137.572 239.861 137.863 240.372 138.055C240.888 138.248 241.465 138.344 242.103 138.344C242.768 138.344 243.35 138.245 243.85 138.047C244.356 137.844 244.751 137.564 245.037 137.206C245.323 136.844 245.468 136.421 245.474 135.937C245.468 135.497 245.339 135.135 245.086 134.849C244.834 134.558 244.479 134.316 244.023 134.124C243.573 133.926 243.045 133.75 242.441 133.596L240.52 133.102C239.13 132.744 238.031 132.203 237.223 131.478C236.421 130.747 236.02 129.777 236.02 128.568C236.02 127.574 236.289 126.703 236.827 125.955C237.371 125.208 238.111 124.628 239.045 124.216C239.979 123.799 241.037 123.59 242.218 123.59C243.416 123.59 244.465 123.799 245.367 124.216C246.273 124.628 246.985 125.203 247.501 125.939C248.018 126.67 248.284 127.51 248.301 128.461H245.358Z" fill="#003D3D" fillOpacity="0.7"/>
<path d="M241.46 142.811V121.71H242.811V142.811H241.46ZM245.358 128.461C245.281 127.741 244.957 127.181 244.386 126.78C243.82 126.378 243.083 126.178 242.177 126.178C241.539 126.178 240.993 126.274 240.537 126.466C240.08 126.659 239.732 126.92 239.49 127.249C239.248 127.579 239.124 127.956 239.119 128.379C239.119 128.73 239.199 129.035 239.358 129.294C239.523 129.552 239.745 129.772 240.026 129.953C240.306 130.129 240.616 130.277 240.957 130.398C241.298 130.519 241.641 130.621 241.987 130.703L243.57 131.099C244.207 131.247 244.82 131.448 245.408 131.7C246.001 131.953 246.532 132.272 246.999 132.657C247.471 133.041 247.845 133.505 248.12 134.049C248.394 134.593 248.532 135.231 248.532 135.962C248.532 136.951 248.279 137.822 247.773 138.575C247.268 139.322 246.537 139.907 245.581 140.33C244.63 140.748 243.479 140.957 242.127 140.957C240.814 140.957 239.674 140.753 238.707 140.347C237.745 139.94 236.992 139.347 236.448 138.566C235.91 137.786 235.619 136.835 235.575 135.714H238.583C238.627 136.302 238.808 136.791 239.127 137.182C239.446 137.572 239.861 137.863 240.372 138.055C240.888 138.248 241.465 138.344 242.103 138.344C242.768 138.344 243.35 138.245 243.85 138.047C244.356 137.844 244.751 137.564 245.037 137.206C245.323 136.844 245.468 136.421 245.474 135.937C245.468 135.497 245.339 135.135 245.086 134.849C244.834 134.558 244.479 134.316 244.023 134.124C243.573 133.926 243.045 133.75 242.441 133.596L240.52 133.102C239.13 132.744 238.031 132.203 237.223 131.478C236.421 130.747 236.02 129.777 236.02 128.568C236.02 127.574 236.289 126.703 236.827 125.955C237.371 125.208 238.111 124.628 239.045 124.216C239.979 123.799 241.037 123.59 242.218 123.59C243.416 123.59 244.465 123.799 245.367 124.216C246.273 124.628 246.985 125.203 247.501 125.939C248.018 126.67 248.284 127.51 248.301 128.461H245.358Z" fill="url(#paint23_angular_6765_31325)" fillOpacity="0.2"/>
</g>
<g opacity="0.2">
<path d="M241.46 183.819V162.718H242.811V183.819H241.46ZM245.358 169.469C245.281 168.749 244.957 168.189 244.386 167.787C243.82 167.386 243.083 167.186 242.177 167.186C241.539 167.186 240.993 167.282 240.537 167.474C240.08 167.667 239.732 167.928 239.49 168.257C239.248 168.587 239.124 168.963 239.119 169.386C239.119 169.738 239.199 170.043 239.358 170.301C239.523 170.56 239.745 170.779 240.026 170.961C240.306 171.137 240.616 171.285 240.957 171.406C241.298 171.527 241.641 171.628 241.987 171.711L243.57 172.106C244.207 172.255 244.82 172.455 245.408 172.708C246.001 172.961 246.532 173.28 246.999 173.664C247.471 174.049 247.845 174.513 248.12 175.057C248.394 175.601 248.532 176.239 248.532 176.97C248.532 177.959 248.279 178.83 247.773 179.582C247.268 180.33 246.537 180.915 245.581 181.338C244.63 181.756 243.479 181.965 242.127 181.965C240.814 181.965 239.674 181.761 238.707 181.355C237.745 180.948 236.992 180.354 236.448 179.574C235.91 178.794 235.619 177.843 235.575 176.722H238.583C238.627 177.31 238.808 177.799 239.127 178.189C239.446 178.58 239.861 178.871 240.372 179.063C240.888 179.255 241.465 179.352 242.103 179.352C242.768 179.352 243.35 179.253 243.85 179.055C244.356 178.852 244.751 178.571 245.037 178.214C245.323 177.852 245.468 177.428 245.474 176.945C245.468 176.505 245.339 176.143 245.086 175.857C244.834 175.566 244.479 175.324 244.023 175.131C243.573 174.934 243.045 174.758 242.441 174.604L240.52 174.109C239.13 173.752 238.031 173.211 237.223 172.486C236.421 171.755 236.02 170.785 236.02 169.576C236.02 168.581 236.289 167.711 236.827 166.963C237.371 166.216 238.111 165.636 239.045 165.224C239.979 164.806 241.037 164.598 242.218 164.598C243.416 164.598 244.465 164.806 245.367 165.224C246.273 165.636 246.985 166.21 247.501 166.947C248.018 167.678 248.284 168.518 248.301 169.469H245.358Z" fill="url(#paint24_linear_6765_31325)"/>
<path d="M241.46 183.819V162.718H242.811V183.819H241.46ZM245.358 169.469C245.281 168.749 244.957 168.189 244.386 167.787C243.82 167.386 243.083 167.186 242.177 167.186C241.539 167.186 240.993 167.282 240.537 167.474C240.08 167.667 239.732 167.928 239.49 168.257C239.248 168.587 239.124 168.963 239.119 169.386C239.119 169.738 239.199 170.043 239.358 170.301C239.523 170.56 239.745 170.779 240.026 170.961C240.306 171.137 240.616 171.285 240.957 171.406C241.298 171.527 241.641 171.628 241.987 171.711L243.57 172.106C244.207 172.255 244.82 172.455 245.408 172.708C246.001 172.961 246.532 173.28 246.999 173.664C247.471 174.049 247.845 174.513 248.12 175.057C248.394 175.601 248.532 176.239 248.532 176.97C248.532 177.959 248.279 178.83 247.773 179.582C247.268 180.33 246.537 180.915 245.581 181.338C244.63 181.756 243.479 181.965 242.127 181.965C240.814 181.965 239.674 181.761 238.707 181.355C237.745 180.948 236.992 180.354 236.448 179.574C235.91 178.794 235.619 177.843 235.575 176.722H238.583C238.627 177.31 238.808 177.799 239.127 178.189C239.446 178.58 239.861 178.871 240.372 179.063C240.888 179.255 241.465 179.352 242.103 179.352C242.768 179.352 243.35 179.253 243.85 179.055C244.356 178.852 244.751 178.571 245.037 178.214C245.323 177.852 245.468 177.428 245.474 176.945C245.468 176.505 245.339 176.143 245.086 175.857C244.834 175.566 244.479 175.324 244.023 175.131C243.573 174.934 243.045 174.758 242.441 174.604L240.52 174.109C239.13 173.752 238.031 173.211 237.223 172.486C236.421 171.755 236.02 170.785 236.02 169.576C236.02 168.581 236.289 167.711 236.827 166.963C237.371 166.216 238.111 165.636 239.045 165.224C239.979 164.806 241.037 164.598 242.218 164.598C243.416 164.598 244.465 164.806 245.367 165.224C246.273 165.636 246.985 166.21 247.501 166.947C248.018 167.678 248.284 168.518 248.301 169.469H245.358Z" fill="#003D3D" fillOpacity="0.7"/>
<path d="M241.46 183.819V162.718H242.811V183.819H241.46ZM245.358 169.469C245.281 168.749 244.957 168.189 244.386 167.787C243.82 167.386 243.083 167.186 242.177 167.186C241.539 167.186 240.993 167.282 240.537 167.474C240.08 167.667 239.732 167.928 239.49 168.257C239.248 168.587 239.124 168.963 239.119 169.386C239.119 169.738 239.199 170.043 239.358 170.301C239.523 170.56 239.745 170.779 240.026 170.961C240.306 171.137 240.616 171.285 240.957 171.406C241.298 171.527 241.641 171.628 241.987 171.711L243.57 172.106C244.207 172.255 244.82 172.455 245.408 172.708C246.001 172.961 246.532 173.28 246.999 173.664C247.471 174.049 247.845 174.513 248.12 175.057C248.394 175.601 248.532 176.239 248.532 176.97C248.532 177.959 248.279 178.83 247.773 179.582C247.268 180.33 246.537 180.915 245.581 181.338C244.63 181.756 243.479 181.965 242.127 181.965C240.814 181.965 239.674 181.761 238.707 181.355C237.745 180.948 236.992 180.354 236.448 179.574C235.91 178.794 235.619 177.843 235.575 176.722H238.583C238.627 177.31 238.808 177.799 239.127 178.189C239.446 178.58 239.861 178.871 240.372 179.063C240.888 179.255 241.465 179.352 242.103 179.352C242.768 179.352 243.35 179.253 243.85 179.055C244.356 178.852 244.751 178.571 245.037 178.214C245.323 177.852 245.468 177.428 245.474 176.945C245.468 176.505 245.339 176.143 245.086 175.857C244.834 175.566 244.479 175.324 244.023 175.131C243.573 174.934 243.045 174.758 242.441 174.604L240.52 174.109C239.13 173.752 238.031 173.211 237.223 172.486C236.421 171.755 236.02 170.785 236.02 169.576C236.02 168.581 236.289 167.711 236.827 166.963C237.371 166.216 238.111 165.636 239.045 165.224C239.979 164.806 241.037 164.598 242.218 164.598C243.416 164.598 244.465 164.806 245.367 165.224C246.273 165.636 246.985 166.21 247.501 166.947C248.018 167.678 248.284 168.518 248.301 169.469H245.358Z" fill="url(#paint25_angular_6765_31325)" fillOpacity="0.2"/>
</g>
<g opacity="0.2">
<path d="M241.46 226.372V205.271H242.811V226.372H241.46ZM245.358 212.022C245.281 211.302 244.957 210.741 244.386 210.34C243.82 209.939 243.083 209.738 242.177 209.738C241.539 209.738 240.993 209.835 240.537 210.027C240.08 210.219 239.732 210.48 239.49 210.81C239.248 211.14 239.124 211.516 239.119 211.939C239.119 212.291 239.199 212.596 239.358 212.854C239.523 213.112 239.745 213.332 240.026 213.514C240.306 213.689 240.616 213.838 240.957 213.959C241.298 214.08 241.641 214.181 241.987 214.264L243.57 214.659C244.207 214.808 244.82 215.008 245.408 215.261C246.001 215.514 246.532 215.832 246.999 216.217C247.471 216.602 247.845 217.066 248.12 217.61C248.394 218.154 248.532 218.791 248.532 219.522C248.532 220.511 248.279 221.382 247.773 222.135C247.268 222.882 246.537 223.468 245.581 223.891C244.63 224.308 243.479 224.517 242.127 224.517C240.814 224.517 239.674 224.314 238.707 223.907C237.745 223.501 236.992 222.907 236.448 222.127C235.91 221.347 235.619 220.396 235.575 219.275H238.583C238.627 219.863 238.808 220.352 239.127 220.742C239.446 221.132 239.861 221.424 240.372 221.616C240.888 221.808 241.465 221.904 242.103 221.904C242.768 221.904 243.35 221.805 243.85 221.608C244.356 221.404 244.751 221.124 245.037 220.767C245.323 220.404 245.468 219.981 245.474 219.498C245.468 219.058 245.339 218.695 245.086 218.41C244.834 218.118 244.479 217.877 244.023 217.684C243.573 217.486 243.045 217.311 242.441 217.157L240.52 216.662C239.13 216.305 238.031 215.764 237.223 215.038C236.421 214.308 236.02 213.338 236.02 212.129C236.02 211.134 236.289 210.263 236.827 209.516C237.371 208.769 238.111 208.189 239.045 207.777C239.979 207.359 241.037 207.15 242.218 207.15C243.416 207.15 244.465 207.359 245.367 207.777C246.273 208.189 246.985 208.763 247.501 209.499C248.018 210.23 248.284 211.071 248.301 212.022H245.358Z" fill="url(#paint26_linear_6765_31325)"/>
<path d="M241.46 226.372V205.271H242.811V226.372H241.46ZM245.358 212.022C245.281 211.302 244.957 210.741 244.386 210.34C243.82 209.939 243.083 209.738 242.177 209.738C241.539 209.738 240.993 209.835 240.537 210.027C240.08 210.219 239.732 210.48 239.49 210.81C239.248 211.14 239.124 211.516 239.119 211.939C239.119 212.291 239.199 212.596 239.358 212.854C239.523 213.112 239.745 213.332 240.026 213.514C240.306 213.689 240.616 213.838 240.957 213.959C241.298 214.08 241.641 214.181 241.987 214.264L243.57 214.659C244.207 214.808 244.82 215.008 245.408 215.261C246.001 215.514 246.532 215.832 246.999 216.217C247.471 216.602 247.845 217.066 248.12 217.61C248.394 218.154 248.532 218.791 248.532 219.522C248.532 220.511 248.279 221.382 247.773 222.135C247.268 222.882 246.537 223.468 245.581 223.891C244.63 224.308 243.479 224.517 242.127 224.517C240.814 224.517 239.674 224.314 238.707 223.907C237.745 223.501 236.992 222.907 236.448 222.127C235.91 221.347 235.619 220.396 235.575 219.275H238.583C238.627 219.863 238.808 220.352 239.127 220.742C239.446 221.132 239.861 221.424 240.372 221.616C240.888 221.808 241.465 221.904 242.103 221.904C242.768 221.904 243.35 221.805 243.85 221.608C244.356 221.404 244.751 221.124 245.037 220.767C245.323 220.404 245.468 219.981 245.474 219.498C245.468 219.058 245.339 218.695 245.086 218.41C244.834 218.118 244.479 217.877 244.023 217.684C243.573 217.486 243.045 217.311 242.441 217.157L240.52 216.662C239.13 216.305 238.031 215.764 237.223 215.038C236.421 214.308 236.02 213.338 236.02 212.129C236.02 211.134 236.289 210.263 236.827 209.516C237.371 208.769 238.111 208.189 239.045 207.777C239.979 207.359 241.037 207.15 242.218 207.15C243.416 207.15 244.465 207.359 245.367 207.777C246.273 208.189 246.985 208.763 247.501 209.499C248.018 210.23 248.284 211.071 248.301 212.022H245.358Z" fill="#003D3D" fillOpacity="0.7"/>
<path d="M241.46 226.372V205.271H242.811V226.372H241.46ZM245.358 212.022C245.281 211.302 244.957 210.741 244.386 210.34C243.82 209.939 243.083 209.738 242.177 209.738C241.539 209.738 240.993 209.835 240.537 210.027C240.08 210.219 239.732 210.48 239.49 210.81C239.248 211.14 239.124 211.516 239.119 211.939C239.119 212.291 239.199 212.596 239.358 212.854C239.523 213.112 239.745 213.332 240.026 213.514C240.306 213.689 240.616 213.838 240.957 213.959C241.298 214.08 241.641 214.181 241.987 214.264L243.57 214.659C244.207 214.808 244.82 215.008 245.408 215.261C246.001 215.514 246.532 215.832 246.999 216.217C247.471 216.602 247.845 217.066 248.12 217.61C248.394 218.154 248.532 218.791 248.532 219.522C248.532 220.511 248.279 221.382 247.773 222.135C247.268 222.882 246.537 223.468 245.581 223.891C244.63 224.308 243.479 224.517 242.127 224.517C240.814 224.517 239.674 224.314 238.707 223.907C237.745 223.501 236.992 222.907 236.448 222.127C235.91 221.347 235.619 220.396 235.575 219.275H238.583C238.627 219.863 238.808 220.352 239.127 220.742C239.446 221.132 239.861 221.424 240.372 221.616C240.888 221.808 241.465 221.904 242.103 221.904C242.768 221.904 243.35 221.805 243.85 221.608C244.356 221.404 244.751 221.124 245.037 220.767C245.323 220.404 245.468 219.981 245.474 219.498C245.468 219.058 245.339 218.695 245.086 218.41C244.834 218.118 244.479 217.877 244.023 217.684C243.573 217.486 243.045 217.311 242.441 217.157L240.52 216.662C239.13 216.305 238.031 215.764 237.223 215.038C236.421 214.308 236.02 213.338 236.02 212.129C236.02 211.134 236.289 210.263 236.827 209.516C237.371 208.769 238.111 208.189 239.045 207.777C239.979 207.359 241.037 207.15 242.218 207.15C243.416 207.15 244.465 207.359 245.367 207.777C246.273 208.189 246.985 208.763 247.501 209.499C248.018 210.23 248.284 211.071 248.301 212.022H245.358Z" fill="url(#paint27_angular_6765_31325)" fillOpacity="0.2"/>
</g>
<path d="M234.816 271.946V280.862H230.101V271.946H234.816ZM234.242 321.3V329.429H229.527V321.3H234.242ZM237.566 311.387C237.566 310.238 237.354 309.261 236.931 308.455C236.528 307.649 235.864 306.934 234.937 306.309C234.03 305.685 232.801 305.08 231.25 304.496C228.63 303.489 226.323 302.421 224.329 301.292C222.354 300.144 220.813 298.723 219.705 297.031C218.596 295.318 218.042 293.152 218.042 290.533C218.042 288.035 218.637 285.869 219.825 284.035C221.014 282.202 222.656 280.791 224.752 279.804C226.867 278.797 229.325 278.293 232.126 278.293C234.262 278.293 236.196 278.615 237.929 279.26C239.661 279.885 241.152 280.812 242.402 282.041C243.651 283.25 244.608 284.73 245.273 286.483C245.938 288.236 246.27 290.241 246.27 292.498H237.596C237.596 291.289 237.465 290.221 237.203 289.294C236.941 288.367 236.559 287.592 236.055 286.967C235.571 286.342 234.987 285.879 234.302 285.577C233.617 285.254 232.861 285.093 232.035 285.093C230.806 285.093 229.799 285.335 229.013 285.818C228.227 286.302 227.653 286.957 227.29 287.783C226.948 288.589 226.777 289.516 226.777 290.563C226.777 291.591 226.958 292.488 227.321 293.253C227.703 294.019 228.358 294.724 229.285 295.369C230.212 295.993 231.481 296.638 233.093 297.303C235.712 298.31 238.009 299.398 239.984 300.567C241.958 301.736 243.5 303.166 244.608 304.859C245.716 306.551 246.27 308.707 246.27 311.326C246.27 313.925 245.666 316.142 244.457 317.975C243.248 319.789 241.555 321.179 239.379 322.146C237.203 323.093 234.685 323.566 231.824 323.566C229.97 323.566 228.127 323.325 226.293 322.841C224.46 322.337 222.797 321.531 221.306 320.423C219.815 319.315 218.627 317.844 217.74 316.011C216.854 314.157 216.41 311.88 216.41 309.18H225.114C225.114 310.651 225.306 311.88 225.689 312.868C226.071 313.835 226.575 314.61 227.2 315.195C227.845 315.759 228.57 316.162 229.376 316.404C230.182 316.645 230.998 316.766 231.824 316.766C233.113 316.766 234.171 316.535 234.997 316.071C235.843 315.608 236.478 314.973 236.901 314.167C237.344 313.341 237.566 312.414 237.566 311.387Z" fill="url(#paint28_linear_6765_31325)"/>
<path d="M234.816 271.946V280.862H230.101V271.946H234.816ZM234.242 321.3V329.429H229.527V321.3H234.242ZM237.566 311.387C237.566 310.238 237.354 309.261 236.931 308.455C236.528 307.649 235.864 306.934 234.937 306.309C234.03 305.685 232.801 305.08 231.25 304.496C228.63 303.489 226.323 302.421 224.329 301.292C222.354 300.144 220.813 298.723 219.705 297.031C218.596 295.318 218.042 293.152 218.042 290.533C218.042 288.035 218.637 285.869 219.825 284.035C221.014 282.202 222.656 280.791 224.752 279.804C226.867 278.797 229.325 278.293 232.126 278.293C234.262 278.293 236.196 278.615 237.929 279.26C239.661 279.885 241.152 280.812 242.402 282.041C243.651 283.25 244.608 284.73 245.273 286.483C245.938 288.236 246.27 290.241 246.27 292.498H237.596C237.596 291.289 237.465 290.221 237.203 289.294C236.941 288.367 236.559 287.592 236.055 286.967C235.571 286.342 234.987 285.879 234.302 285.577C233.617 285.254 232.861 285.093 232.035 285.093C230.806 285.093 229.799 285.335 229.013 285.818C228.227 286.302 227.653 286.957 227.29 287.783C226.948 288.589 226.777 289.516 226.777 290.563C226.777 291.591 226.958 292.488 227.321 293.253C227.703 294.019 228.358 294.724 229.285 295.369C230.212 295.993 231.481 296.638 233.093 297.303C235.712 298.31 238.009 299.398 239.984 300.567C241.958 301.736 243.5 303.166 244.608 304.859C245.716 306.551 246.27 308.707 246.27 311.326C246.27 313.925 245.666 316.142 244.457 317.975C243.248 319.789 241.555 321.179 239.379 322.146C237.203 323.093 234.685 323.566 231.824 323.566C229.97 323.566 228.127 323.325 226.293 322.841C224.46 322.337 222.797 321.531 221.306 320.423C219.815 319.315 218.627 317.844 217.74 316.011C216.854 314.157 216.41 311.88 216.41 309.18H225.114C225.114 310.651 225.306 311.88 225.689 312.868C226.071 313.835 226.575 314.61 227.2 315.195C227.845 315.759 228.57 316.162 229.376 316.404C230.182 316.645 230.998 316.766 231.824 316.766C233.113 316.766 234.171 316.535 234.997 316.071C235.843 315.608 236.478 314.973 236.901 314.167C237.344 313.341 237.566 312.414 237.566 311.387Z" fill="#003D3D" fillOpacity="0.7"/>
<path d="M234.816 271.946V280.862H230.101V271.946H234.816ZM234.242 321.3V329.429H229.527V321.3H234.242ZM237.566 311.387C237.566 310.238 237.354 309.261 236.931 308.455C236.528 307.649 235.864 306.934 234.937 306.309C234.03 305.685 232.801 305.08 231.25 304.496C228.63 303.489 226.323 302.421 224.329 301.292C222.354 300.144 220.813 298.723 219.705 297.031C218.596 295.318 218.042 293.152 218.042 290.533C218.042 288.035 218.637 285.869 219.825 284.035C221.014 282.202 222.656 280.791 224.752 279.804C226.867 278.797 229.325 278.293 232.126 278.293C234.262 278.293 236.196 278.615 237.929 279.26C239.661 279.885 241.152 280.812 242.402 282.041C243.651 283.25 244.608 284.73 245.273 286.483C245.938 288.236 246.27 290.241 246.27 292.498H237.596C237.596 291.289 237.465 290.221 237.203 289.294C236.941 288.367 236.559 287.592 236.055 286.967C235.571 286.342 234.987 285.879 234.302 285.577C233.617 285.254 232.861 285.093 232.035 285.093C230.806 285.093 229.799 285.335 229.013 285.818C228.227 286.302 227.653 286.957 227.29 287.783C226.948 288.589 226.777 289.516 226.777 290.563C226.777 291.591 226.958 292.488 227.321 293.253C227.703 294.019 228.358 294.724 229.285 295.369C230.212 295.993 231.481 296.638 233.093 297.303C235.712 298.31 238.009 299.398 239.984 300.567C241.958 301.736 243.5 303.166 244.608 304.859C245.716 306.551 246.27 308.707 246.27 311.326C246.27 313.925 245.666 316.142 244.457 317.975C243.248 319.789 241.555 321.179 239.379 322.146C237.203 323.093 234.685 323.566 231.824 323.566C229.97 323.566 228.127 323.325 226.293 322.841C224.46 322.337 222.797 321.531 221.306 320.423C219.815 319.315 218.627 317.844 217.74 316.011C216.854 314.157 216.41 311.88 216.41 309.18H225.114C225.114 310.651 225.306 311.88 225.689 312.868C226.071 313.835 226.575 314.61 227.2 315.195C227.845 315.759 228.57 316.162 229.376 316.404C230.182 316.645 230.998 316.766 231.824 316.766C233.113 316.766 234.171 316.535 234.997 316.071C235.843 315.608 236.478 314.973 236.901 314.167C237.344 313.341 237.566 312.414 237.566 311.387Z" fill="url(#paint29_angular_6765_31325)" fillOpacity="0.2"/>
</g>
<defs>
<filter id="filter0_d_6765_31325" x="81.21" y="91.2539" width="289.903" height="382.746" filterUnits="userSpaceOnUse" color-interpolation-filters="sRGB">
<feFlood flood-opacity="0" result="BackgroundImageFix"/>
<feColorMatrix in="SourceAlpha" type="matrix" values="0 0 0 0 0 0 0 0 0 0 0 0 0 0 0 0 0 0 127 0" result="hardAlpha"/>
<feOffset dx="6" dy="6"/>
<feGaussianBlur stdDeviation="10"/>
<feComposite in2="hardAlpha" operator="out"/>
<feColorMatrix type="matrix" values="0 0 0 0 0 0 0 0 0 0 0 0 0 0 0 0 0 0 0.18 0"/>
<feBlend mode="normal" in2="BackgroundImageFix" result="effect1_dropShadow_6765_31325"/>
<feBlend mode="normal" in="SourceGraphic" in2="effect1_dropShadow_6765_31325" result="shape"/>
</filter>
<filter id="filter1_d_6765_31325" x="41" y="45.7539" width="289.903" height="382.746" filterUnits="userSpaceOnUse" color-interpolation-filters="sRGB">
<feFlood flood-opacity="0" result="BackgroundImageFix"/>
<feColorMatrix in="SourceAlpha" type="matrix" values="0 0 0 0 0 0 0 0 0 0 0 0 0 0 0 0 0 0 127 0" result="hardAlpha"/>
<feOffset dx="6" dy="6"/>
<feGaussianBlur stdDeviation="10"/>
<feComposite in2="hardAlpha" operator="out"/>
<feColorMatrix type="matrix" values="0 0 0 0 0 0 0 0 0 0 0 0 0 0 0 0 0 0 0.18 0"/>
<feBlend mode="normal" in2="BackgroundImageFix" result="effect1_dropShadow_6765_31325"/>
<feBlend mode="normal" in="SourceGraphic" in2="effect1_dropShadow_6765_31325" result="shape"/>
</filter>
<filter id="filter2_d_6765_31325" x="0.790039" y="0.253906" width="289.903" height="382.746" filterUnits="userSpaceOnUse" color-interpolation-filters="sRGB">
<feFlood flood-opacity="0" result="BackgroundImageFix"/>
<feColorMatrix in="SourceAlpha" type="matrix" values="0 0 0 0 0 0 0 0 0 0 0 0 0 0 0 0 0 0 127 0" result="hardAlpha"/>
<feOffset dx="6" dy="6"/>
<feGaussianBlur stdDeviation="10"/>
<feComposite in2="hardAlpha" operator="out"/>
<feColorMatrix type="matrix" values="0 0 0 0 0 0 0 0 0 0 0 0 0 0 0 0 0 0 0.18 0"/>
<feBlend mode="normal" in2="BackgroundImageFix" result="effect1_dropShadow_6765_31325"/>
<feBlend mode="normal" in="SourceGraphic" in2="effect1_dropShadow_6765_31325" result="shape"/>
</filter>
<linearGradient id="paint0_linear_6765_31325" x1="147.063" y1="207.485" x2="325.071" y2="380.787" gradientUnits="userSpaceOnUse">
<stop stopColor="#182F59"/>
<stop offset="1" stopColor="#020F26"/>
</linearGradient>
<radialGradient id="paint1_angular_6765_31325" cx="0" cy="0" r="1" gradientUnits="userSpaceOnUse" gradientTransform="translate(271.655 341.324) rotate(-128.258) scale(231.453 225.765)">
<stop stopColor="#4C576B" stopOpacity="0.5"/>
<stop offset="1" stopOpacity="0.7"/>
</radialGradient>
<linearGradient id="paint2_linear_6765_31325" x1="318.259" y1="218.053" x2="332.29" y2="228.758" gradientUnits="userSpaceOnUse">
<stop stopColor="#182F59"/>
<stop offset="1" stopColor="#020F26"/>
</linearGradient>
<radialGradient id="paint3_angular_6765_31325" cx="0" cy="0" r="1" gradientUnits="userSpaceOnUse" gradientTransform="translate(326.236 228.986) rotate(-121.717) scale(17.4538 15.6589)">
<stop stopColor="#4C576B" stopOpacity="0.5"/>
<stop offset="1" stopOpacity="0.7"/>
</radialGradient>
<linearGradient id="paint4_linear_6765_31325" x1="318.259" y1="259.061" x2="332.29" y2="269.766" gradientUnits="userSpaceOnUse">
<stop stopColor="#182F59"/>
<stop offset="1" stopColor="#020F26"/>
</linearGradient>
<radialGradient id="paint5_angular_6765_31325" cx="0" cy="0" r="1" gradientUnits="userSpaceOnUse" gradientTransform="translate(326.236 269.994) rotate(-121.717) scale(17.4538 15.6589)">
<stop stopColor="#4C576B" stopOpacity="0.5"/>
<stop offset="1" stopOpacity="0.7"/>
</radialGradient>
<linearGradient id="paint6_linear_6765_31325" x1="318.259" y1="301.612" x2="332.29" y2="312.318" gradientUnits="userSpaceOnUse">
<stop stopColor="#182F59"/>
<stop offset="1" stopColor="#020F26"/>
</linearGradient>
<radialGradient id="paint7_angular_6765_31325" cx="0" cy="0" r="1" gradientUnits="userSpaceOnUse" gradientTransform="translate(326.236 312.546) rotate(-121.717) scale(17.4538 15.6589)">
<stop stopColor="#4C576B" stopOpacity="0.5"/>
<stop offset="1" stopOpacity="0.7"/>
</radialGradient>
<linearGradient id="paint8_linear_6765_31325" x1="301.52" y1="377.704" x2="336.361" y2="400.647" gradientUnits="userSpaceOnUse">
<stop stopColor="#182F59"/>
<stop offset="1" stopColor="#020F26"/>
</linearGradient>
<radialGradient id="paint9_angular_6765_31325" cx="0" cy="0" r="1" gradientUnits="userSpaceOnUse" gradientTransform="translate(319.468 406.21) rotate(-118.073) scale(43.8705 36.5449)">
<stop stopColor="#4C576B" stopOpacity="0.5"/>
<stop offset="1" stopOpacity="0.7"/>
</radialGradient>
<linearGradient id="paint10_linear_6765_31325" x1="106.853" y1="161.985" x2="284.861" y2="335.287" gradientUnits="userSpaceOnUse">
<stop stopColor="#182F59"/>
<stop offset="1" stopColor="#020F26"/>
</linearGradient>
<radialGradient id="paint11_angular_6765_31325" cx="0" cy="0" r="1" gradientUnits="userSpaceOnUse" gradientTransform="translate(231.445 295.824) rotate(-128.258) scale(231.453 225.765)">
<stop stopColor="#4C576B" stopOpacity="0.5"/>
<stop offset="1" stopOpacity="0.7"/>
</radialGradient>
<linearGradient id="paint12_linear_6765_31325" x1="278.049" y1="172.553" x2="292.08" y2="183.258" gradientUnits="userSpaceOnUse">
<stop stopColor="#182F59"/>
<stop offset="1" stopColor="#020F26"/>
</linearGradient>
<radialGradient id="paint13_angular_6765_31325" cx="0" cy="0" r="1" gradientUnits="userSpaceOnUse" gradientTransform="translate(286.026 183.486) rotate(-121.717) scale(17.4538 15.6589)">
<stop stopColor="#4C576B" stopOpacity="0.5"/>
<stop offset="1" stopOpacity="0.7"/>
</radialGradient>
<linearGradient id="paint14_linear_6765_31325" x1="278.049" y1="213.561" x2="292.08" y2="224.266" gradientUnits="userSpaceOnUse">
<stop stopColor="#182F59"/>
<stop offset="1" stopColor="#020F26"/>
</linearGradient>
<radialGradient id="paint15_angular_6765_31325" cx="0" cy="0" r="1" gradientUnits="userSpaceOnUse" gradientTransform="translate(286.026 224.494) rotate(-121.717) scale(17.4538 15.6589)">
<stop stopColor="#4C576B" stopOpacity="0.5"/>
<stop offset="1" stopOpacity="0.7"/>
</radialGradient>
<linearGradient id="paint16_linear_6765_31325" x1="278.049" y1="256.113" x2="292.08" y2="266.819" gradientUnits="userSpaceOnUse">
<stop stopColor="#182F59"/>
<stop offset="1" stopColor="#020F26"/>
</linearGradient>
<radialGradient id="paint17_angular_6765_31325" cx="0" cy="0" r="1" gradientUnits="userSpaceOnUse" gradientTransform="translate(286.026 267.047) rotate(-121.717) scale(17.4538 15.6589)">
<stop stopColor="#4C576B" stopOpacity="0.5"/>
<stop offset="1" stopOpacity="0.7"/>
</radialGradient>
<linearGradient id="paint18_linear_6765_31325" x1="261.31" y1="332.204" x2="296.151" y2="355.147" gradientUnits="userSpaceOnUse">
<stop stopColor="#182F59"/>
<stop offset="1" stopColor="#020F26"/>
</linearGradient>
<radialGradient id="paint19_angular_6765_31325" cx="0" cy="0" r="1" gradientUnits="userSpaceOnUse" gradientTransform="translate(279.258 360.71) rotate(-118.073) scale(43.8705 36.5449)">
<stop stopColor="#4C576B" stopOpacity="0.5"/>
<stop offset="1" stopOpacity="0.7"/>
</radialGradient>
<linearGradient id="paint20_linear_6765_31325" x1="66.6432" y1="116.485" x2="244.651" y2="289.787" gradientUnits="userSpaceOnUse">
<stop stopColor="#182F59"/>
<stop offset="1" stopColor="#020F26"/>
</linearGradient>
<radialGradient id="paint21_angular_6765_31325" cx="0" cy="0" r="1" gradientUnits="userSpaceOnUse" gradientTransform="translate(191.235 250.324) rotate(-128.258) scale(231.453 225.765)">
<stop stopColor="#4C576B" stopOpacity="0.5"/>
<stop offset="1" stopOpacity="0.7"/>
</radialGradient>
<linearGradient id="paint22_linear_6765_31325" x1="237.839" y1="127.053" x2="251.87" y2="137.758" gradientUnits="userSpaceOnUse">
<stop stopColor="#182F59"/>
<stop offset="1" stopColor="#020F26"/>
</linearGradient>
<radialGradient id="paint23_angular_6765_31325" cx="0" cy="0" r="1" gradientUnits="userSpaceOnUse" gradientTransform="translate(245.816 137.986) rotate(-121.717) scale(17.4538 15.6589)">
<stop stopColor="#4C576B" stopOpacity="0.5"/>
<stop offset="1" stopOpacity="0.7"/>
</radialGradient>
<linearGradient id="paint24_linear_6765_31325" x1="237.839" y1="168.061" x2="251.87" y2="178.766" gradientUnits="userSpaceOnUse">
<stop stopColor="#182F59"/>
<stop offset="1" stopColor="#020F26"/>
</linearGradient>
<radialGradient id="paint25_angular_6765_31325" cx="0" cy="0" r="1" gradientUnits="userSpaceOnUse" gradientTransform="translate(245.816 178.994) rotate(-121.717) scale(17.4538 15.6589)">
<stop stopColor="#4C576B" stopOpacity="0.5"/>
<stop offset="1" stopOpacity="0.7"/>
</radialGradient>
<linearGradient id="paint26_linear_6765_31325" x1="237.839" y1="210.613" x2="251.87" y2="221.319" gradientUnits="userSpaceOnUse">
<stop stopColor="#182F59"/>
<stop offset="1" stopColor="#020F26"/>
</linearGradient>
<radialGradient id="paint27_angular_6765_31325" cx="0" cy="0" r="1" gradientUnits="userSpaceOnUse" gradientTransform="translate(245.816 221.547) rotate(-121.717) scale(17.4538 15.6589)">
<stop stopColor="#4C576B" stopOpacity="0.5"/>
<stop offset="1" stopOpacity="0.7"/>
</radialGradient>
<linearGradient id="paint28_linear_6765_31325" x1="221.1" y1="286.705" x2="255.941" y2="309.648" gradientUnits="userSpaceOnUse">
<stop stopColor="#182F59"/>
<stop offset="1" stopColor="#020F26"/>
</linearGradient>
<radialGradient id="paint29_angular_6765_31325" cx="0" cy="0" r="1" gradientUnits="userSpaceOnUse" gradientTransform="translate(239.048 315.211) rotate(-118.073) scale(43.8705 36.5449)">
<stop stopColor="#4C576B" stopOpacity="0.5"/>
<stop offset="1" stopOpacity="0.7"/>
</radialGradient>
</defs>
</svg>
