<svg width="232" height="96" viewBox="0 0 232 96" fill="none" xmlns="http://www.w3.org/2000/svg">
<rect x="1.09449" y="0.345951" width="239.006" height="94.6117" rx="3.14482" fill="white"/>
<rect x="1.09449" y="0.345951" width="239.006" height="94.6117" rx="3.14482" stroke="url(#paint0_linear_538_6296)" strokeWidth="0.571785"/>
<rect x="1.09449" y="0.345951" width="239.006" height="94.6117" rx="3.14482" stroke="#04C4C4" stroke-opacity="0.6" strokeWidth="0.571785"/>
<rect x="1.09449" y="0.345951" width="239.006" height="94.6117" rx="3.14482" stroke="url(#paint1_angular_538_6296)" stroke-opacity="0.2" strokeWidth="0.571785"/>
<path d="M23.2709 18.0126L21.0849 24.3547H19.7632L22.5171 17.0377H23.3614L23.2709 18.0126ZM25.1002 24.3547L22.9091 18.0126L22.8136 17.0377H23.6629L26.4269 24.3547H25.1002ZM24.9947 21.641V22.6411H21.0145V21.641H24.9947ZM28.3416 19.9524V24.3547H27.1305V18.9172H28.2863L28.3416 19.9524ZM30.005 18.882L29.995 20.0077C29.9213 19.9943 29.8409 19.9843 29.7538 19.9776C29.67 19.9709 29.5863 19.9675 29.5025 19.9675C29.2948 19.9675 29.1122 19.9977 28.9547 20.058C28.7973 20.1149 28.6649 20.1987 28.5577 20.3092C28.4539 20.4165 28.3734 20.5471 28.3165 20.7012C28.2595 20.8553 28.226 21.0279 28.216 21.2189L27.9396 21.239C27.9396 20.8972 27.9731 20.5806 28.0401 20.2891C28.1071 19.9977 28.2076 19.7414 28.3416 19.5202C28.479 19.2991 28.6498 19.1266 28.8542 19.0026C29.0619 18.8787 29.3015 18.8167 29.5729 18.8167C29.6466 18.8167 29.7253 18.8234 29.8091 18.8368C29.8962 18.8502 29.9615 18.8653 30.005 18.882ZM33.5078 18.9172V19.8017H30.4423V18.9172H33.5078ZM31.3267 17.5854H32.5379V22.8521C32.5379 23.0196 32.5613 23.1486 32.6082 23.2391C32.6585 23.3262 32.7272 23.3848 32.8143 23.415C32.9014 23.4451 33.0036 23.4602 33.1208 23.4602C33.2046 23.4602 33.285 23.4552 33.3621 23.4451C33.4391 23.4351 33.5011 23.425 33.548 23.415L33.553 24.3397C33.4525 24.3698 33.3353 24.3966 33.2012 24.4201C33.0706 24.4435 32.9198 24.4552 32.7489 24.4552C32.4709 24.4552 32.2246 24.4067 32.0102 24.3095C31.7958 24.209 31.6283 24.0465 31.5077 23.822C31.387 23.5976 31.3267 23.2994 31.3267 22.9275V17.5854ZM35.7391 18.9172V24.3547H34.5229V18.9172H35.7391ZM34.4425 17.49C34.4425 17.3057 34.5028 17.1533 34.6234 17.0326C34.7474 16.9087 34.9183 16.8467 35.136 16.8467C35.3505 16.8467 35.5196 16.9087 35.6436 17.0326C35.7676 17.1533 35.8296 17.3057 35.8296 17.49C35.8296 17.6709 35.7676 17.8216 35.6436 17.9423C35.5196 18.0629 35.3505 18.1232 35.136 18.1232C34.9183 18.1232 34.7474 18.0629 34.6234 17.9423C34.5028 17.8216 34.4425 17.6709 34.4425 17.49ZM39.2871 23.4904C39.4847 23.4904 39.6623 23.4518 39.8198 23.3748C39.9806 23.2944 40.1096 23.1838 40.2067 23.0431C40.3072 22.9024 40.3625 22.7399 40.3726 22.5556H41.5133C41.5066 22.9074 41.4028 23.2274 41.2018 23.5155C41.0007 23.8036 40.7344 24.0331 40.4027 24.204C40.071 24.3715 39.7042 24.4552 39.3021 24.4552C38.8867 24.4552 38.5249 24.3849 38.2166 24.2442C37.9084 24.1001 37.6521 23.9024 37.4477 23.6512C37.2434 23.3999 37.0893 23.1101 36.9854 22.7818C36.8849 22.4534 36.8346 22.1017 36.8346 21.7264V21.5505C36.8346 21.1753 36.8849 20.8235 36.9854 20.4952C37.0893 20.1635 37.2434 19.872 37.4477 19.6208C37.6521 19.3695 37.9084 19.1735 38.2166 19.0328C38.5249 18.8887 38.885 18.8167 39.2971 18.8167C39.7327 18.8167 40.1146 18.9038 40.4429 19.078C40.7713 19.2489 41.0292 19.4884 41.2168 19.7966C41.4078 20.1015 41.5066 20.4567 41.5133 20.862H40.3726C40.3625 20.661 40.3123 20.4801 40.2218 20.3193C40.1347 20.1551 40.0107 20.0245 39.8499 19.9273C39.6925 19.8302 39.5032 19.7816 39.282 19.7816C39.0375 19.7816 38.8348 19.8318 38.674 19.9323C38.5131 20.0295 38.3875 20.1635 38.2971 20.3344C38.2066 20.5019 38.1413 20.6912 38.1011 20.9022C38.0642 21.11 38.0458 21.3261 38.0458 21.5505V21.7264C38.0458 21.9509 38.0642 22.1687 38.1011 22.3797C38.1379 22.5908 38.2016 22.7801 38.292 22.9476C38.3858 23.1118 38.5131 23.2441 38.674 23.3446C38.8348 23.4418 39.0391 23.4904 39.2871 23.4904ZM43.7396 16.6356V24.3547H42.5235V16.6356H43.7396ZM47.4635 24.4552C47.0614 24.4552 46.6979 24.3899 46.373 24.2593C46.0513 24.1252 45.7766 23.9393 45.5488 23.7014C45.3243 23.4636 45.1518 23.1838 45.0312 22.8622C44.9106 22.5405 44.8502 22.1938 44.8502 21.8219V21.6209C44.8502 21.1954 44.9122 20.8101 45.0362 20.465C45.1602 20.12 45.3327 19.8251 45.5538 19.5806C45.7749 19.3326 46.0363 19.1433 46.3378 19.0127C46.6393 18.882 46.966 18.8167 47.3177 18.8167C47.7064 18.8167 48.0464 18.882 48.3379 19.0127C48.6294 19.1433 48.8706 19.3276 49.0616 19.5655C49.2559 19.8 49.4 20.0797 49.4938 20.4047C49.5909 20.7297 49.6395 21.0882 49.6395 21.4802V21.9978H45.4382V21.1284H48.4434V21.0329C48.4367 20.8151 48.3932 20.6108 48.3128 20.4198C48.2357 20.2288 48.1168 20.0747 47.956 19.9575C47.7952 19.8402 47.5807 19.7816 47.3127 19.7816C47.1117 19.7816 46.9325 19.8251 46.775 19.9122C46.6209 19.996 46.4919 20.1183 46.388 20.2791C46.2842 20.4399 46.2038 20.6342 46.1468 20.862C46.0932 21.0865 46.0664 21.3395 46.0664 21.6209V21.8219C46.0664 22.0598 46.0982 22.2809 46.1619 22.4853C46.2289 22.6863 46.3261 22.8622 46.4534 23.0129C46.5807 23.1637 46.7348 23.2826 46.9157 23.3697C47.0966 23.4535 47.3027 23.4954 47.5338 23.4954C47.8253 23.4954 48.085 23.4368 48.3128 23.3195C48.5406 23.2022 48.7383 23.0364 48.9058 22.822L49.544 23.4401C49.4268 23.611 49.2743 23.7751 49.0867 23.9326C48.8991 24.0867 48.6696 24.2123 48.3982 24.3095C48.1302 24.4067 47.8186 24.4552 47.4635 24.4552Z" fill="black"/>
<g clip-path="url(#clip0_538_6296)">
<path d="M58.8262 22.6962V23.9999C58.8262 24.12 58.9205 24.2143 59.0406 24.2143H60.3443C60.4 24.2143 60.4558 24.1929 60.4944 24.15L65.1773 19.4714L63.5691 17.8632L58.8905 22.5418C58.8476 22.5847 58.8262 22.6362 58.8262 22.6962ZM66.4209 18.2277C66.5882 18.0605 66.5882 17.7903 66.4209 17.6231L65.4174 16.6196C65.2502 16.4523 64.98 16.4523 64.8128 16.6196L64.028 17.4044L65.6361 19.0125L66.4209 18.2277V18.2277Z" fill="#5BBC2E"/>
</g>
<rect x="15.1035" y="38.2136" width="163.127" height="18.2971" rx="3.43071" fill="#E2E8F0"/>
<path d="M23.0582 48.1628C23.0582 48.0288 23.0359 47.9093 22.9912 47.8043C22.9465 47.6993 22.8728 47.6055 22.7701 47.5229C22.6696 47.438 22.5333 47.3598 22.3613 47.2883C22.1916 47.2146 21.9794 47.142 21.7248 47.0706C21.4813 47.0013 21.2613 46.9254 21.0648 46.8428C20.8682 46.7601 20.6996 46.6652 20.5589 46.558C20.4204 46.4508 20.3143 46.3257 20.2406 46.1827C20.1669 46.0376 20.13 45.8689 20.13 45.6768C20.13 45.4892 20.1702 45.3184 20.2506 45.1643C20.331 45.0101 20.4438 44.8772 20.589 44.7656C20.7364 44.6539 20.9095 44.5679 21.1083 44.5076C21.3093 44.4473 21.5293 44.4171 21.7683 44.4171C22.1101 44.4171 22.4049 44.4819 22.6528 44.6115C22.903 44.741 23.0962 44.9163 23.2324 45.1374C23.3709 45.3563 23.4401 45.602 23.4401 45.8745H23.028C23.028 45.6623 22.9778 45.4736 22.8773 45.3083C22.779 45.1408 22.6361 45.0101 22.4484 44.9163C22.2631 44.8203 22.0363 44.7723 21.7683 44.7723C21.5003 44.7723 21.2747 44.8136 21.0916 44.8962C20.9106 44.9766 20.7733 45.085 20.6795 45.2212C20.5879 45.3552 20.5421 45.5049 20.5421 45.6701C20.5421 45.7863 20.5644 45.8935 20.6091 45.9918C20.6538 46.0878 20.7264 46.1783 20.8269 46.2632C20.9296 46.3458 21.0648 46.424 21.2323 46.4977C21.3998 46.5691 21.6064 46.6373 21.8521 46.702C22.1112 46.7735 22.3412 46.8528 22.5422 46.9399C22.7433 47.027 22.913 47.1275 23.0515 47.2414C23.19 47.3531 23.2949 47.4838 23.3664 47.6334C23.4379 47.7831 23.4736 47.9573 23.4736 48.1561C23.4736 48.3549 23.4312 48.5335 23.3463 48.6921C23.2637 48.8485 23.1464 48.9814 22.9945 49.0908C22.8449 49.2003 22.6673 49.284 22.4618 49.3421C22.2586 49.4002 22.0363 49.4292 21.7951 49.4292C21.5785 49.4292 21.3629 49.4013 21.1485 49.3454C20.9341 49.2896 20.7375 49.2036 20.5589 49.0875C20.3824 48.9691 20.2406 48.8172 20.1334 48.6318C20.0284 48.4464 19.9759 48.2253 19.9759 47.9685H20.3846C20.3846 48.1739 20.426 48.347 20.5086 48.4878C20.5913 48.6285 20.7007 48.7424 20.8369 48.8295C20.9754 48.9166 21.1273 48.9802 21.2926 49.0205C21.4601 49.0584 21.6276 49.0774 21.7951 49.0774C22.052 49.0774 22.2742 49.0394 22.4618 48.9635C22.6517 48.8876 22.798 48.7815 22.9007 48.6452C23.0057 48.5067 23.0582 48.3459 23.0582 48.1628ZM26.5928 48.5246V45.7372H26.9948V49.3622H26.6095L26.5928 48.5246ZM26.6665 47.8545L26.8742 47.8478C26.8742 48.0757 26.8474 48.2856 26.7938 48.4777C26.7402 48.6698 26.6564 48.8373 26.5425 48.9802C26.4286 49.1232 26.2812 49.2338 26.1003 49.3119C25.9194 49.3901 25.7016 49.4292 25.447 49.4292C25.2705 49.4292 25.1086 49.4046 24.9612 49.3555C24.816 49.3041 24.6909 49.2237 24.5859 49.1143C24.481 49.0048 24.3994 48.863 24.3414 48.6888C24.2855 48.5146 24.2576 48.3035 24.2576 48.0556V45.7372H24.6563V48.0623C24.6563 48.2566 24.6775 48.4185 24.7199 48.5481C24.7646 48.6776 24.8249 48.7815 24.9009 48.8596C24.979 48.9378 25.0684 48.9936 25.1689 49.0272C25.2694 49.0607 25.3777 49.0774 25.4939 49.0774C25.7887 49.0774 26.021 49.0205 26.1907 48.9065C26.3627 48.7926 26.4844 48.643 26.5559 48.4576C26.6296 48.27 26.6665 48.069 26.6665 47.8545ZM28.0367 44.2161H28.4388V48.6586L28.412 49.3622H28.0367V44.2161ZM30.9616 47.5162V47.5865C30.9616 47.8568 30.9303 48.1047 30.8678 48.3303C30.8052 48.5559 30.7148 48.7513 30.5964 48.9166C30.478 49.0796 30.3328 49.2058 30.1608 49.2952C29.9911 49.3845 29.7957 49.4292 29.5745 49.4292C29.3579 49.4292 29.1658 49.3957 28.9983 49.3287C28.8308 49.2594 28.6878 49.1623 28.5694 49.0372C28.4511 48.9099 28.3561 48.7614 28.2847 48.5916C28.2132 48.4196 28.1629 48.2309 28.1339 48.0254V47.1309C28.1674 46.912 28.221 46.7132 28.2947 46.5345C28.3684 46.3558 28.4633 46.2017 28.5795 46.0722C28.6979 45.9426 28.8386 45.8432 29.0016 45.774C29.1669 45.7048 29.3556 45.6701 29.5678 45.6701C29.789 45.6701 29.9855 45.7137 30.1575 45.8008C30.3317 45.8857 30.478 46.0096 30.5964 46.1727C30.7148 46.3335 30.8052 46.5278 30.8678 46.7556C30.9303 46.9812 30.9616 47.2347 30.9616 47.5162ZM30.5562 47.5865V47.5162C30.5562 47.304 30.5361 47.1074 30.4959 46.9265C30.4557 46.7456 30.392 46.5881 30.3049 46.4541C30.22 46.3179 30.1106 46.2118 29.9766 46.1358C29.8426 46.0599 29.6817 46.0219 29.4941 46.0219C29.302 46.0219 29.1379 46.0543 29.0016 46.1191C28.8676 46.1816 28.7559 46.2654 28.6666 46.3704C28.5795 46.4731 28.5103 46.5859 28.4589 46.7087C28.4075 46.8316 28.3695 46.9522 28.345 47.0706V48.1125C28.3829 48.28 28.4488 48.4375 28.5426 48.5849C28.6364 48.7323 28.7626 48.8518 28.9212 48.9434C29.0798 49.0327 29.273 49.0774 29.5008 49.0774C29.684 49.0774 29.8414 49.0394 29.9732 48.9635C30.1072 48.8876 30.2167 48.7826 30.3015 48.6486C30.3887 48.5146 30.4523 48.3571 30.4925 48.1762C30.535 47.9953 30.5562 47.7987 30.5562 47.5865ZM33.0957 47.0371V47.3822H31.4909V47.0371H33.0957ZM36.9519 47.8411H37.364C37.3305 48.1695 37.24 48.4531 37.0926 48.6921C36.9452 48.9289 36.7442 49.1109 36.4896 49.2382C36.2349 49.3655 35.9278 49.4292 35.5682 49.4292C35.2913 49.4292 35.04 49.3767 34.8144 49.2717C34.5911 49.1667 34.399 49.0182 34.2382 48.8261C34.0773 48.6318 33.9534 48.3995 33.8663 48.1293C33.7792 47.859 33.7356 47.5586 33.7356 47.228V46.6183C33.7356 46.2877 33.7792 45.9884 33.8663 45.7204C33.9534 45.4501 34.0785 45.2179 34.2415 45.0235C34.4046 44.8292 34.6 44.6796 34.8278 44.5746C35.0556 44.4696 35.3125 44.4171 35.5984 44.4171C35.9446 44.4171 36.2439 44.4808 36.4963 44.6081C36.7487 44.7332 36.9474 44.9141 37.0926 45.1508C37.24 45.3876 37.3305 45.6735 37.364 46.0085H36.9519C36.9206 45.745 36.8514 45.5216 36.7442 45.3385C36.637 45.1553 36.4884 45.0157 36.2986 44.9197C36.111 44.8214 35.8776 44.7723 35.5984 44.7723C35.3706 44.7723 35.1673 44.8158 34.9886 44.9029C34.8099 44.99 34.6581 45.1151 34.533 45.2782C34.4079 45.439 34.3119 45.6322 34.2449 45.8578C34.1801 46.0834 34.1477 46.3346 34.1477 46.6116V47.228C34.1477 47.4961 34.179 47.7429 34.2415 47.9685C34.304 48.194 34.3956 48.3895 34.5162 48.5548C34.6391 48.72 34.7887 48.8485 34.9652 48.94C35.1416 49.0316 35.3426 49.0774 35.5682 49.0774C35.8564 49.0774 36.0965 49.0316 36.2885 48.94C36.4829 48.8462 36.6336 48.7078 36.7408 48.5246C36.848 48.3415 36.9184 48.1136 36.9519 47.8411ZM40.4798 48.7122V46.8428C40.4798 46.6708 40.444 46.5222 40.3726 46.3972C40.3011 46.2721 40.1961 46.176 40.0576 46.109C39.9192 46.042 39.7483 46.0085 39.545 46.0085C39.3574 46.0085 39.1899 46.042 39.0425 46.109C38.8973 46.1738 38.7823 46.262 38.6974 46.3737C38.6148 46.4832 38.5735 46.6049 38.5735 46.7389L38.1714 46.7355C38.1714 46.5993 38.2049 46.4675 38.2719 46.3402C38.3389 46.2129 38.4339 46.099 38.5567 45.9985C38.6795 45.898 38.8258 45.8187 38.9956 45.7606C39.1676 45.7003 39.3563 45.6701 39.5618 45.6701C39.8209 45.6701 40.0487 45.7137 40.2453 45.8008C40.444 45.8879 40.5993 46.0186 40.7109 46.1928C40.8226 46.367 40.8785 46.5859 40.8785 46.8495V48.6017C40.8785 48.7267 40.8874 48.8563 40.9053 48.9903C40.9254 49.1243 40.9533 49.2349 40.989 49.322V49.3622H40.5635C40.5367 49.2818 40.5155 49.1813 40.4999 49.0607C40.4865 48.9378 40.4798 48.8217 40.4798 48.7122ZM40.5736 47.2515L40.5803 47.5597H39.793C39.5875 47.5597 39.4032 47.5787 39.2402 47.6167C39.0793 47.6524 38.9431 47.706 38.8314 47.7775C38.7197 47.8467 38.6338 47.9305 38.5735 48.0288C38.5154 48.127 38.4863 48.2387 38.4863 48.3638C38.4863 48.4933 38.5187 48.6117 38.5835 48.7189C38.6505 48.8261 38.7443 48.9121 38.8649 48.9769C38.9878 49.0394 39.133 49.0707 39.3005 49.0707C39.5238 49.0707 39.7204 49.0294 39.8901 48.9467C40.0621 48.8641 40.2039 48.7558 40.3156 48.6218C40.4273 48.4878 40.5021 48.3415 40.5401 48.1829L40.7143 48.414C40.6853 48.5257 40.6317 48.6408 40.5535 48.7591C40.4775 48.8753 40.3781 48.9847 40.2553 49.0875C40.1325 49.188 39.9873 49.2706 39.8198 49.3354C39.6545 49.3979 39.4669 49.4292 39.2569 49.4292C39.0202 49.4292 38.8136 49.3845 38.6371 49.2952C38.4629 49.2058 38.3266 49.0841 38.2284 48.93C38.1323 48.7736 38.0843 48.5972 38.0843 48.4006C38.0843 48.222 38.1223 48.0623 38.1982 47.9216C38.2742 47.7786 38.3836 47.658 38.5265 47.5597C38.6717 47.4592 38.8459 47.3833 39.0492 47.3319C39.2547 47.2783 39.4847 47.2515 39.7394 47.2515H40.5736ZM43.3242 45.7372V46.0655H41.5083V45.7372H43.3242ZM42.175 44.8058H42.5737V48.4811C42.5737 48.6486 42.5961 48.7748 42.6407 48.8596C42.6854 48.9445 42.7435 49.0015 42.8149 49.0305C42.8864 49.0595 42.9635 49.0741 43.0461 49.0741C43.1064 49.0741 43.1645 49.0707 43.2203 49.064C43.2762 49.0551 43.3264 49.0461 43.3711 49.0372L43.3878 49.3756C43.3387 49.3912 43.275 49.4035 43.1969 49.4124C43.1187 49.4236 43.0405 49.4292 42.9624 49.4292C42.8082 49.4292 42.672 49.4013 42.5536 49.3454C42.4352 49.2874 42.3425 49.1891 42.2755 49.0506C42.2085 48.9099 42.175 48.7189 42.175 48.4777V44.8058ZM45.5655 49.4292C45.3288 49.4292 45.111 49.3856 44.9122 49.2985C44.7157 49.2114 44.5437 49.0886 44.3963 48.93C44.2511 48.7714 44.1383 48.5838 44.0579 48.3671C43.9797 48.1483 43.9406 47.9093 43.9406 47.6502V47.5061C43.9406 47.2269 43.982 46.9745 44.0646 46.7489C44.1472 46.5234 44.2612 46.3302 44.4063 46.1693C44.5515 46.0085 44.7168 45.8857 44.9022 45.8008C45.0898 45.7137 45.2863 45.6701 45.4918 45.6701C45.7219 45.6701 45.9263 45.7115 46.1049 45.7941C46.2836 45.8745 46.4333 45.9895 46.5539 46.1392C46.6767 46.2866 46.7694 46.4619 46.832 46.6652C46.8945 46.8662 46.9258 47.0884 46.9258 47.3319V47.5765H44.1819V47.2347H46.5271V47.1878C46.5226 46.9846 46.4813 46.7947 46.4031 46.6183C46.3272 46.4396 46.2133 46.2944 46.0614 46.1827C45.9095 46.0711 45.7197 46.0152 45.4918 46.0152C45.3221 46.0152 45.1657 46.051 45.0228 46.1224C44.8821 46.1939 44.7603 46.2967 44.6576 46.4307C44.5571 46.5624 44.4789 46.7199 44.4231 46.9031C44.3695 47.084 44.3427 47.285 44.3427 47.5061V47.6502C44.3427 47.8512 44.3717 48.0388 44.4298 48.213C44.4901 48.385 44.575 48.5369 44.6844 48.6687C44.7961 48.8004 44.9279 48.9032 45.0797 48.9769C45.2316 49.0506 45.3991 49.0875 45.5823 49.0875C45.7967 49.0875 45.9866 49.0484 46.1518 48.9702C46.3171 48.8898 46.4657 48.7636 46.5974 48.5916L46.8487 48.7859C46.7705 48.9021 46.6723 49.0093 46.5539 49.1076C46.4377 49.2058 46.2981 49.284 46.1351 49.3421C45.972 49.4002 45.7822 49.4292 45.5655 49.4292ZM50.1018 45.7372H50.4737V49.2985C50.4737 49.6135 50.4134 49.8837 50.2928 50.1093C50.1744 50.3349 50.0058 50.508 49.7869 50.6286C49.5703 50.7492 49.3145 50.8095 49.0197 50.8095C48.8701 50.8095 48.7159 50.7861 48.5574 50.7392C48.401 50.6945 48.2525 50.6252 48.1118 50.5314C47.9733 50.4399 47.8549 50.326 47.7566 50.1897L47.9811 49.9451C48.1285 50.1238 48.286 50.2545 48.4535 50.3371C48.621 50.422 48.8019 50.4644 48.9962 50.4644C49.2263 50.4644 49.4206 50.4186 49.5792 50.3271C49.74 50.2355 49.8617 50.1037 49.9444 49.9317C50.0293 49.7598 50.0717 49.5531 50.0717 49.3119V46.5345L50.1018 45.7372ZM47.5556 47.5865V47.5162C47.5556 47.2347 47.5869 46.9812 47.6494 46.7556C47.7142 46.5278 47.8069 46.3335 47.9275 46.1727C48.0481 46.0096 48.1944 45.8857 48.3664 45.8008C48.5406 45.7137 48.7372 45.6701 48.956 45.6701C49.166 45.6701 49.3525 45.7048 49.5155 45.774C49.6786 45.8432 49.8193 45.9426 49.9377 46.0722C50.0561 46.2017 50.151 46.3558 50.2225 46.5345C50.2962 46.7132 50.3498 46.912 50.3833 47.1309V48.0254C50.3565 48.2309 50.3073 48.4196 50.2359 48.5916C50.1644 48.7614 50.0695 48.9099 49.9511 49.0372C49.8327 49.1623 49.6898 49.2594 49.5222 49.3287C49.357 49.3957 49.166 49.4292 48.9493 49.4292C48.7327 49.4292 48.5384 49.3845 48.3664 49.2952C48.1944 49.2058 48.0481 49.0796 47.9275 48.9166C47.8069 48.7513 47.7142 48.5559 47.6494 48.3303C47.5869 48.1047 47.5556 47.8568 47.5556 47.5865ZM47.9577 47.5162V47.5865C47.9577 47.7987 47.9789 47.9953 48.0213 48.1762C48.0637 48.3571 48.1285 48.5146 48.2156 48.6486C48.3027 48.7826 48.4133 48.8876 48.5473 48.9635C48.6813 49.0394 48.8388 49.0774 49.0197 49.0774C49.2498 49.0774 49.443 49.0339 49.5993 48.9467C49.7557 48.8574 49.8796 48.7401 49.9712 48.595C50.0628 48.4475 50.1298 48.2867 50.1722 48.1125V47.0706C50.1476 46.9522 50.1097 46.8316 50.0583 46.7087C50.0092 46.5859 49.9399 46.4731 49.8506 46.3704C49.7635 46.2654 49.6518 46.1816 49.5155 46.1191C49.3815 46.0543 49.2185 46.0219 49.0264 46.0219C48.8433 46.0219 48.6836 46.0599 48.5473 46.1358C48.4133 46.2118 48.3027 46.3179 48.2156 46.4541C48.1285 46.5881 48.0637 46.7456 48.0213 46.9265C47.9789 47.1074 47.9577 47.304 47.9577 47.5162ZM51.3013 47.6066V47.4961C51.3013 47.2325 51.3392 46.9891 51.4152 46.7657C51.4911 46.5423 51.5994 46.3491 51.7401 46.1861C51.8831 46.023 52.054 45.8969 52.2527 45.8075C52.4515 45.7159 52.6726 45.6701 52.9161 45.6701C53.1618 45.6701 53.384 45.7159 53.5828 45.8075C53.7816 45.8969 53.9525 46.023 54.0954 46.1861C54.2384 46.3491 54.3478 46.5423 54.4237 46.7657C54.4997 46.9891 54.5377 47.2325 54.5377 47.4961V47.6066C54.5377 47.8702 54.4997 48.1136 54.4237 48.337C54.3478 48.5581 54.2384 48.7502 54.0954 48.9132C53.9547 49.0763 53.7849 49.2036 53.5862 49.2952C53.3874 49.3845 53.1663 49.4292 52.9228 49.4292C52.6771 49.4292 52.4549 49.3845 52.2561 49.2952C52.0573 49.2036 51.8864 49.0763 51.7435 48.9132C51.6006 48.7502 51.4911 48.5581 51.4152 48.337C51.3392 48.1136 51.3013 47.8702 51.3013 47.6066ZM51.6999 47.4961V47.6066C51.6999 47.8054 51.7267 47.9941 51.7804 48.1728C51.834 48.3493 51.9121 48.5067 52.0149 48.6452C52.1176 48.7815 52.2449 48.8887 52.3968 48.9668C52.5487 49.045 52.724 49.0841 52.9228 49.0841C53.1194 49.0841 53.2925 49.045 53.4421 48.9668C53.594 48.8887 53.7213 48.7815 53.824 48.6452C53.9268 48.5067 54.0038 48.3493 54.0552 48.1728C54.1088 47.9941 54.1356 47.8054 54.1356 47.6066V47.4961C54.1356 47.2995 54.1088 47.113 54.0552 46.9366C54.0038 46.7601 53.9257 46.6026 53.8207 46.4642C53.7179 46.3257 53.5906 46.2162 53.4388 46.1358C53.2869 46.0554 53.1127 46.0152 52.9161 46.0152C52.7196 46.0152 52.5453 46.0554 52.3935 46.1358C52.2438 46.2162 52.1165 46.3257 52.0115 46.4642C51.9088 46.6026 51.8306 46.7601 51.777 46.9366C51.7256 47.113 51.6999 47.2995 51.6999 47.4961ZM55.7672 46.3369V49.3622H55.3685V45.7372H55.7572L55.7672 46.3369ZM57.0504 45.7104L57.0403 46.0789C56.9957 46.0722 56.9521 46.0666 56.9097 46.0621C56.8672 46.0577 56.8214 46.0554 56.7723 46.0554C56.5981 46.0554 56.4451 46.0878 56.3133 46.1526C56.1838 46.2151 56.0743 46.3034 55.985 46.4173C55.8956 46.5289 55.8275 46.6607 55.7806 46.8126C55.7337 46.9622 55.7069 47.1231 55.7002 47.295L55.5528 47.352C55.5528 47.1152 55.5774 46.8952 55.6265 46.692C55.6756 46.4887 55.7505 46.3112 55.851 46.1593C55.9537 46.0052 56.0821 45.8857 56.2363 45.8008C56.3926 45.7137 56.5758 45.6701 56.7857 45.6701C56.8371 45.6701 56.8873 45.6746 56.9365 45.6835C56.9878 45.6902 57.0258 45.6992 57.0504 45.7104ZM58.1258 45.7372V49.3622H57.7271V45.7372H58.1258ZM57.6568 44.6885C57.6568 44.6126 57.6802 44.5489 57.7271 44.4975C57.7763 44.4439 57.8433 44.4171 57.9282 44.4171C58.013 44.4171 58.08 44.4439 58.1292 44.4975C58.1805 44.5489 58.2062 44.6126 58.2062 44.6885C58.2062 44.7622 58.1805 44.8259 58.1292 44.8795C58.08 44.9308 58.013 44.9565 57.9282 44.9565C57.8433 44.9565 57.7763 44.9308 57.7271 44.8795C57.6802 44.8259 57.6568 44.7622 57.6568 44.6885ZM60.6218 49.4292C60.3851 49.4292 60.1673 49.3856 59.9685 49.2985C59.7719 49.2114 59.6 49.0886 59.4525 48.93C59.3074 48.7714 59.1946 48.5838 59.1142 48.3671C59.036 48.1483 58.9969 47.9093 58.9969 47.6502V47.5061C58.9969 47.2269 59.0382 46.9745 59.1209 46.7489C59.2035 46.5234 59.3174 46.3302 59.4626 46.1693C59.6078 46.0085 59.7731 45.8857 59.9584 45.8008C60.1461 45.7137 60.3426 45.6701 60.5481 45.6701C60.7782 45.6701 60.9825 45.7115 61.1612 45.7941C61.3399 45.8745 61.4895 45.9895 61.6101 46.1392C61.733 46.2866 61.8257 46.4619 61.8882 46.6652C61.9508 46.8662 61.982 47.0884 61.982 47.3319V47.5765H59.2381V47.2347H61.5833V47.1878C61.5789 46.9846 61.5376 46.7947 61.4594 46.6183C61.3834 46.4396 61.2695 46.2944 61.1177 46.1827C60.9658 46.0711 60.7759 46.0152 60.5481 46.0152C60.3784 46.0152 60.222 46.051 60.0791 46.1224C59.9383 46.1939 59.8166 46.2967 59.7139 46.4307C59.6134 46.5624 59.5352 46.7199 59.4794 46.9031C59.4257 47.084 59.3989 47.285 59.3989 47.5061V47.6502C59.3989 47.8512 59.428 48.0388 59.4861 48.213C59.5464 48.385 59.6312 48.5369 59.7407 48.6687C59.8524 48.8004 59.9841 48.9032 60.136 48.9769C60.2879 49.0506 60.4554 49.0875 60.6386 49.0875C60.853 49.0875 61.0428 49.0484 61.2081 48.9702C61.3734 48.8898 61.5219 48.7636 61.6537 48.5916L61.905 48.7859C61.8268 48.9021 61.7285 49.0093 61.6101 49.1076C61.494 49.2058 61.3544 49.284 61.1914 49.3421C61.0283 49.4002 60.8385 49.4292 60.6218 49.4292ZM64.9437 48.4375C64.9437 48.3392 64.9191 48.2421 64.87 48.146C64.8209 48.05 64.7259 47.9618 64.5852 47.8813C64.4467 47.8009 64.2424 47.7328 63.9721 47.677C63.7711 47.6323 63.5913 47.5821 63.4327 47.5262C63.2764 47.4704 63.1446 47.4034 63.0374 47.3252C62.9302 47.247 62.8486 47.1532 62.7928 47.0438C62.737 46.9343 62.709 46.8048 62.709 46.6551C62.709 46.5211 62.7381 46.3949 62.7962 46.2766C62.8565 46.1559 62.9413 46.051 63.0508 45.9616C63.1625 45.87 63.2965 45.7986 63.4528 45.7472C63.6114 45.6958 63.789 45.6701 63.9855 45.6701C64.2647 45.6701 64.5037 45.7182 64.7025 45.8142C64.9035 45.908 65.0565 46.0364 65.1615 46.1995C65.2687 46.3625 65.3223 46.5468 65.3223 46.7523H64.9236C64.9236 46.6272 64.8867 46.5088 64.813 46.3972C64.7416 46.2855 64.6355 46.1939 64.4948 46.1224C64.3563 46.051 64.1865 46.0152 63.9855 46.0152C63.7778 46.0152 63.6092 46.0465 63.4796 46.109C63.3501 46.1716 63.2551 46.2509 63.1948 46.3469C63.1368 46.443 63.1077 46.5423 63.1077 46.6451C63.1077 46.7255 63.12 46.7992 63.1446 46.8662C63.1714 46.931 63.2183 46.9913 63.2853 47.0471C63.3545 47.103 63.4528 47.1554 63.5801 47.2046C63.7074 47.2537 63.8727 47.3017 64.076 47.3486C64.3686 47.4134 64.6076 47.4927 64.7929 47.5865C64.9806 47.6781 65.119 47.792 65.2084 47.9283C65.2977 48.0623 65.3424 48.2253 65.3424 48.4174C65.3424 48.567 65.3111 48.7044 65.2486 48.8295C65.186 48.9523 65.0956 49.0584 64.9772 49.1478C64.8611 49.2371 64.7203 49.3063 64.5551 49.3555C64.392 49.4046 64.2089 49.4292 64.0056 49.4292C63.6996 49.4292 63.4405 49.3789 63.2283 49.2784C63.0184 49.1757 62.8587 49.0417 62.7492 48.8764C62.642 48.7089 62.5884 48.5313 62.5884 48.3437H62.9871C63.0005 48.5313 63.0597 48.6798 63.1647 48.7893C63.2697 48.8965 63.3981 48.9724 63.55 49.0171C63.7041 49.0618 63.856 49.0841 64.0056 49.0841C64.2111 49.0841 64.3831 49.054 64.5216 48.9936C64.66 48.9333 64.765 48.8541 64.8365 48.7558C64.908 48.6575 64.9437 48.5514 64.9437 48.4375Z" fill="black"/>
<path d="M155.334 46.5044V47.3252C155.334 47.6826 155.301 47.9941 155.234 48.2599C155.167 48.5235 155.068 48.7424 154.939 48.9166C154.812 49.0886 154.655 49.217 154.47 49.3019C154.287 49.3868 154.077 49.4292 153.84 49.4292C153.652 49.4292 153.48 49.4024 153.324 49.3488C153.168 49.2952 153.028 49.2137 152.905 49.1042C152.785 48.9925 152.682 48.8529 152.597 48.6854C152.512 48.5179 152.447 48.3214 152.403 48.0958C152.358 47.8679 152.336 47.6111 152.336 47.3252V46.5044C152.336 46.1448 152.369 45.8343 152.436 45.573C152.505 45.3117 152.604 45.095 152.731 44.923C152.861 44.751 153.018 44.6237 153.203 44.5411C153.389 44.4562 153.599 44.4138 153.833 44.4138C154.021 44.4138 154.193 44.4417 154.349 44.4975C154.508 44.5511 154.647 44.6316 154.768 44.7388C154.891 44.846 154.994 44.9833 155.076 45.1508C155.161 45.3161 155.225 45.5116 155.267 45.7372C155.312 45.9627 155.334 46.2185 155.334 46.5044ZM154.935 47.3721V46.4541C154.935 46.233 154.92 46.032 154.889 45.8511C154.86 45.6701 154.816 45.5116 154.758 45.3753C154.7 45.2391 154.626 45.1252 154.537 45.0336C154.45 44.942 154.347 44.8739 154.229 44.8292C154.112 44.7823 153.981 44.7589 153.833 44.7589C153.652 44.7589 153.493 44.7957 153.354 44.8694C153.218 44.9409 153.104 45.0481 153.012 45.1911C152.921 45.3318 152.852 45.5082 152.805 45.7204C152.76 45.9326 152.738 46.1772 152.738 46.4541V47.3721C152.738 47.591 152.752 47.7909 152.781 47.9718C152.81 48.1505 152.855 48.3091 152.915 48.4475C152.976 48.586 153.049 48.7033 153.136 48.7993C153.226 48.8931 153.328 48.9646 153.445 49.0138C153.563 49.0607 153.695 49.0841 153.84 49.0841C154.025 49.0841 154.186 49.0473 154.322 48.9735C154.459 48.8976 154.573 48.787 154.664 48.6419C154.756 48.4945 154.824 48.3147 154.868 48.1025C154.913 47.888 154.935 47.6446 154.935 47.3721ZM159.254 49.0171V49.3622H156.202V49.0506L157.8 47.2381C157.999 47.0125 158.157 46.8148 158.276 46.6451C158.394 46.4731 158.479 46.3168 158.53 46.176C158.584 46.0331 158.611 45.8946 158.611 45.7606C158.611 45.5641 158.572 45.391 158.493 45.2413C158.418 45.0917 158.304 44.9744 158.152 44.8895C158 44.8047 157.812 44.7622 157.589 44.7622C157.366 44.7622 157.171 44.8102 157.006 44.9063C156.841 45.0023 156.713 45.1363 156.624 45.3083C156.537 45.4781 156.493 45.6713 156.493 45.8879H156.095C156.095 45.6199 156.154 45.3742 156.272 45.1508C156.393 44.9275 156.565 44.7499 156.788 44.6182C157.012 44.4841 157.278 44.4171 157.589 44.4171C157.884 44.4171 158.137 44.4696 158.349 44.5746C158.562 44.6773 158.725 44.8259 158.839 45.0202C158.955 45.2145 159.013 45.449 159.013 45.7238C159.013 45.8712 158.986 46.0197 158.932 46.1693C158.881 46.319 158.81 46.4686 158.718 46.6183C158.629 46.7657 158.526 46.912 158.41 47.0572C158.296 47.2024 158.176 47.3453 158.051 47.486L156.691 49.0171H159.254Z" fill="black"/>
<g clip-path="url(#clip1_538_6296)">
<path d="M164.155 46.9248L166.09 48.8595C166.381 49.1509 166.852 49.1509 167.143 48.8595L169.078 46.9248C169.549 46.4541 169.212 45.6473 168.548 45.6473H164.678C164.013 45.6473 163.684 46.4541 164.155 46.9248Z" fill="#5BBC2E"/>
</g>
<path d="M22.3083 67.6144V73.3054H21.8314V67.6144H22.3083ZM24.2587 67.6144V68.0287H19.8849V67.6144H24.2587ZM24.4268 71.2573V71.1283C24.4268 70.8208 24.4711 70.5368 24.5597 70.2762C24.6483 70.0156 24.7747 69.7902 24.9388 69.6C25.1056 69.4098 25.3049 69.2625 25.5369 69.1583C25.7688 69.0515 26.0267 68.998 26.3108 68.998C26.5974 68.998 26.8567 69.0515 27.0886 69.1583C27.3205 69.2625 27.5199 69.4098 27.6866 69.6C27.8534 69.7902 27.9811 70.0156 28.0697 70.2762C28.1583 70.5368 28.2026 70.8208 28.2026 71.1283V71.2573C28.2026 71.5648 28.1583 71.8488 28.0697 72.1094C27.9811 72.3673 27.8534 72.5914 27.6866 72.7817C27.5225 72.9719 27.3244 73.1204 27.0925 73.2272C26.8606 73.3315 26.6026 73.3836 26.3186 73.3836C26.032 73.3836 25.7727 73.3315 25.5408 73.2272C25.3089 73.1204 25.1095 72.9719 24.9427 72.7817C24.776 72.5914 24.6483 72.3673 24.5597 72.1094C24.4711 71.8488 24.4268 71.5648 24.4268 71.2573ZM24.8919 71.1283V71.2573C24.8919 71.4892 24.9232 71.7094 24.9857 71.9178C25.0483 72.1237 25.1395 72.3074 25.2593 72.469C25.3792 72.6279 25.5277 72.753 25.7049 72.8442C25.8821 72.9354 26.0867 72.981 26.3186 72.981C26.5479 72.981 26.7499 72.9354 26.9244 72.8442C27.1016 72.753 27.2502 72.6279 27.37 72.469C27.4899 72.3074 27.5798 72.1237 27.6397 71.9178C27.7023 71.7094 27.7335 71.4892 27.7335 71.2573V71.1283C27.7335 70.899 27.7023 70.6814 27.6397 70.4755C27.5798 70.2697 27.4886 70.086 27.3661 69.9244C27.2463 69.7628 27.0977 69.6352 26.9205 69.5414C26.7433 69.4475 26.5401 69.4006 26.3108 69.4006C26.0815 69.4006 25.8782 69.4475 25.701 69.5414C25.5264 69.6352 25.3779 69.7628 25.2554 69.9244C25.1356 70.086 25.0444 70.2697 24.9818 70.4755C24.9219 70.6814 24.8919 70.899 24.8919 71.1283ZM30.7706 69.0762V69.4593H28.6521V69.0762H30.7706ZM29.4299 67.9896H29.895V72.2774C29.895 72.4729 29.9211 72.6201 29.9732 72.7191C30.0253 72.8181 30.0931 72.8846 30.1765 72.9185C30.2599 72.9523 30.3498 72.9693 30.4462 72.9693C30.5165 72.9693 30.5843 72.9654 30.6494 72.9575C30.7146 72.9471 30.7732 72.9367 30.8253 72.9263L30.8449 73.3211C30.7875 73.3393 30.7133 73.3536 30.6221 73.3641C30.5309 73.3771 30.4397 73.3836 30.3485 73.3836C30.1687 73.3836 30.0097 73.351 29.8716 73.2859C29.7335 73.2181 29.6253 73.1035 29.5472 72.9419C29.469 72.7777 29.4299 72.555 29.4299 72.2735V67.9896ZM34.3236 72.5471V70.3661C34.3236 70.1654 34.2819 69.9922 34.1985 69.8462C34.1151 69.7003 33.9927 69.5883 33.8311 69.5101C33.6695 69.4319 33.4702 69.3928 33.2331 69.3928C33.0142 69.3928 32.8187 69.4319 32.6468 69.5101C32.4774 69.5857 32.3432 69.6886 32.2442 69.8189C32.1478 69.9466 32.0995 70.0886 32.0995 70.2449L31.6305 70.241C31.6305 70.0821 31.6696 69.9283 31.7478 69.7798C31.8259 69.6313 31.9367 69.4984 32.08 69.3811C32.2233 69.2638 32.394 69.1713 32.592 69.1036C32.7927 69.0332 33.0129 68.998 33.2526 68.998C33.5549 68.998 33.8207 69.0489 34.05 69.1505C34.2819 69.2521 34.463 69.4045 34.5933 69.6078C34.7236 69.8111 34.7887 70.0664 34.7887 70.3739V72.4181C34.7887 72.5641 34.7991 72.7152 34.82 72.8716C34.8434 73.0279 34.876 73.1569 34.9177 73.2585V73.3054H34.4213C34.39 73.2116 34.3653 73.0944 34.347 72.9536C34.3314 72.8103 34.3236 72.6748 34.3236 72.5471ZM34.433 70.8429L34.4408 71.2025H33.5223C33.2826 71.2025 33.0676 71.2247 32.8774 71.269C32.6898 71.3107 32.5308 71.3732 32.4005 71.4566C32.2702 71.5374 32.1699 71.6351 32.0995 71.7498C32.0318 71.8644 31.9979 71.9947 31.9979 72.1406C31.9979 72.2918 32.0357 72.4299 32.1113 72.555C32.1894 72.68 32.2989 72.7804 32.4396 72.8559C32.5829 72.9289 32.7523 72.9654 32.9477 72.9654C33.2083 72.9654 33.4376 72.9172 33.6357 72.8207C33.8363 72.7243 34.0018 72.5979 34.1321 72.4416C34.2624 72.2853 34.3496 72.1146 34.3939 71.9296L34.5972 72.1993C34.5633 72.3296 34.5008 72.4637 34.4096 72.6019C34.321 72.7374 34.205 72.865 34.0617 72.9849C33.9184 73.1022 33.749 73.1986 33.5536 73.2742C33.3607 73.3471 33.1419 73.3836 32.8969 73.3836C32.6207 73.3836 32.3797 73.3315 32.1738 73.2272C31.9706 73.123 31.8116 72.981 31.697 72.8012C31.5849 72.6188 31.5289 72.4129 31.5289 72.1836C31.5289 71.9752 31.5732 71.7888 31.6618 71.6247C31.7504 71.4579 31.8781 71.3172 32.0448 71.2025C32.2142 71.0853 32.4175 70.9967 32.6546 70.9368C32.8943 70.8742 33.1627 70.8429 33.4598 70.8429H34.433ZM36.5633 67.3017V73.3054H36.0981V67.3017H36.5633ZM41.84 70.9876H40.2179V70.5772H41.84C42.1787 70.5772 42.4537 70.5224 42.6647 70.413C42.8784 70.3009 43.0334 70.1498 43.1299 69.9596C43.2289 69.7694 43.2784 69.5557 43.2784 69.3186C43.2784 69.0866 43.2289 68.873 43.1299 68.6775C43.0334 68.4821 42.8784 68.3258 42.6647 68.2085C42.4537 68.0886 42.1787 68.0287 41.84 68.0287H40.386V73.3054H39.9052V67.6144H41.84C42.2569 67.6144 42.6074 67.686 42.8914 67.8293C43.1781 67.9727 43.3944 68.172 43.5403 68.4274C43.6862 68.6827 43.7592 68.9772 43.7592 69.3107C43.7592 69.6599 43.6862 69.9609 43.5403 70.2136C43.3944 70.4638 43.1794 70.6553 42.8953 70.7882C42.6113 70.9211 42.2595 70.9876 41.84 70.9876ZM44.4158 71.2573V71.1283C44.4158 70.8208 44.4601 70.5368 44.5487 70.2762C44.6373 70.0156 44.7637 69.7902 44.9279 69.6C45.0946 69.4098 45.294 69.2625 45.5259 69.1583C45.7578 69.0515 46.0158 68.998 46.2998 68.998C46.5864 68.998 46.8457 69.0515 47.0776 69.1583C47.3096 69.2625 47.5089 69.4098 47.6757 69.6C47.8424 69.7902 47.9701 70.0156 48.0587 70.2762C48.1473 70.5368 48.1916 70.8208 48.1916 71.1283V71.2573C48.1916 71.5648 48.1473 71.8488 48.0587 72.1094C47.9701 72.3673 47.8424 72.5914 47.6757 72.7817C47.5115 72.9719 47.3135 73.1204 47.0815 73.2272C46.8496 73.3315 46.5917 73.3836 46.3076 73.3836C46.021 73.3836 45.7617 73.3315 45.5298 73.2272C45.2979 73.1204 45.0985 72.9719 44.9318 72.7817C44.765 72.5914 44.6373 72.3673 44.5487 72.1094C44.4601 71.8488 44.4158 71.5648 44.4158 71.2573ZM44.881 71.1283V71.2573C44.881 71.4892 44.9122 71.7094 44.9748 71.9178C45.0373 72.1237 45.1285 72.3074 45.2484 72.469C45.3682 72.6279 45.5168 72.753 45.694 72.8442C45.8712 72.9354 46.0757 72.981 46.3076 72.981C46.5369 72.981 46.7389 72.9354 46.9135 72.8442C47.0907 72.753 47.2392 72.6279 47.3591 72.469C47.4789 72.3074 47.5688 72.1237 47.6288 71.9178C47.6913 71.7094 47.7226 71.4892 47.7226 71.2573V71.1283C47.7226 70.899 47.6913 70.6814 47.6288 70.4755C47.5688 70.2697 47.4776 70.086 47.3552 69.9244C47.2353 69.7628 47.0868 69.6352 46.9096 69.5414C46.7324 69.4475 46.5291 69.4006 46.2998 69.4006C46.0705 69.4006 45.8672 69.4475 45.6901 69.5414C45.5155 69.6352 45.3669 69.7628 45.2445 69.9244C45.1246 70.086 45.0334 70.2697 44.9709 70.4755C44.9109 70.6814 44.881 70.899 44.881 71.1283ZM51.6938 72.2266C51.6938 72.112 51.6651 71.9986 51.6078 71.8866C51.5505 71.7745 51.4397 71.6716 51.2756 71.5778C51.114 71.484 50.8756 71.4045 50.5603 71.3393C50.3258 71.2872 50.116 71.2286 49.931 71.1635C49.7486 71.0983 49.5948 71.0201 49.4698 70.9289C49.3447 70.8377 49.2496 70.7283 49.1844 70.6006C49.1193 70.4729 49.0867 70.3218 49.0867 70.1472C49.0867 69.9909 49.1206 69.8436 49.1883 69.7055C49.2587 69.5648 49.3577 69.4423 49.4854 69.3381C49.6157 69.2313 49.772 69.1479 49.9544 69.0879C50.1394 69.028 50.3466 68.998 50.5759 68.998C50.9016 68.998 51.1805 69.0541 51.4124 69.1661C51.6469 69.2756 51.8254 69.4254 51.9479 69.6156C52.0729 69.8058 52.1355 70.0208 52.1355 70.2606H51.6703C51.6703 70.1146 51.6274 69.9765 51.5414 69.8462C51.458 69.7159 51.3342 69.6091 51.17 69.5257C51.0085 69.4423 50.8104 69.4006 50.5759 69.4006C50.3336 69.4006 50.1368 69.4371 49.9857 69.5101C49.8346 69.583 49.7238 69.6756 49.6535 69.7876C49.5857 69.8996 49.5518 70.0156 49.5518 70.1355C49.5518 70.2293 49.5662 70.3153 49.5948 70.3934C49.6261 70.469 49.6808 70.5394 49.759 70.6045C49.8398 70.6697 49.9544 70.7309 50.103 70.7882C50.2515 70.8456 50.4443 70.9016 50.6814 70.9563C51.0228 71.0319 51.3016 71.1244 51.5179 71.2338C51.7368 71.3407 51.8984 71.4735 52.0026 71.6325C52.1068 71.7888 52.1589 71.9791 52.1589 72.2032C52.1589 72.3778 52.1225 72.538 52.0495 72.6839C51.9765 72.8273 51.871 72.951 51.7329 73.0553C51.5974 73.1595 51.4332 73.2403 51.2404 73.2976C51.0502 73.3549 50.8365 73.3836 50.5994 73.3836C50.2424 73.3836 49.9401 73.325 49.6925 73.2077C49.4476 73.0878 49.2613 72.9315 49.1336 72.7387C49.0085 72.5432 48.946 72.3361 48.946 72.1172H49.4111C49.4268 72.3361 49.4958 72.5094 49.6183 72.637C49.7408 72.7621 49.8906 72.8507 50.0678 72.9028C50.2476 72.9549 50.4248 72.981 50.5994 72.981C50.8391 72.981 51.0397 72.9458 51.2013 72.8755C51.3629 72.8051 51.4853 72.7126 51.5687 72.5979C51.6521 72.4833 51.6938 72.3595 51.6938 72.2266ZM54.8168 69.0762V69.4593H52.6983V69.0762H54.8168ZM53.4762 67.9896H53.9413V72.2774C53.9413 72.4729 53.9674 72.6201 54.0195 72.7191C54.0716 72.8181 54.1393 72.8846 54.2227 72.9185C54.3061 72.9523 54.396 72.9693 54.4924 72.9693C54.5628 72.9693 54.6305 72.9654 54.6957 72.9575C54.7608 72.9471 54.8194 72.9367 54.8716 72.9263L54.8911 73.3211C54.8338 73.3393 54.7595 73.3536 54.6683 73.3641C54.5771 73.3771 54.4859 73.3836 54.3947 73.3836C54.2149 73.3836 54.0559 73.351 53.9178 73.2859C53.7797 73.2181 53.6716 73.1035 53.5934 72.9419C53.5152 72.7777 53.4762 72.555 53.4762 72.2735V67.9896ZM58.3308 72.2266C58.3308 72.112 58.3021 71.9986 58.2448 71.8866C58.1874 71.7745 58.0767 71.6716 57.9125 71.5778C57.751 71.484 57.5125 71.4045 57.1972 71.3393C56.9627 71.2872 56.7529 71.2286 56.5679 71.1635C56.3855 71.0983 56.2318 71.0201 56.1067 70.9289C55.9816 70.8377 55.8865 70.7283 55.8214 70.6006C55.7562 70.4729 55.7237 70.3218 55.7237 70.1472C55.7237 69.9909 55.7575 69.8436 55.8253 69.7055C55.8956 69.5648 55.9947 69.4423 56.1223 69.3381C56.2526 69.2313 56.409 69.1479 56.5914 69.0879C56.7764 69.028 56.9836 68.998 57.2129 68.998C57.5386 68.998 57.8174 69.0541 58.0493 69.1661C58.2838 69.2756 58.4623 69.4254 58.5848 69.6156C58.7099 69.8058 58.7724 70.0208 58.7724 70.2606H58.3073C58.3073 70.1146 58.2643 69.9765 58.1783 69.8462C58.0949 69.7159 57.9712 69.6091 57.807 69.5257C57.6454 69.4423 57.4474 69.4006 57.2129 69.4006C56.9705 69.4006 56.7738 69.4371 56.6227 69.5101C56.4715 69.583 56.3608 69.6756 56.2904 69.7876C56.2227 69.8996 56.1888 70.0156 56.1888 70.1355C56.1888 70.2293 56.2031 70.3153 56.2318 70.3934C56.2631 70.469 56.3178 70.5394 56.396 70.6045C56.4767 70.6697 56.5914 70.7309 56.7399 70.7882C56.8884 70.8456 57.0813 70.9016 57.3184 70.9563C57.6598 71.0319 57.9386 71.1244 58.1549 71.2338C58.3737 71.3407 58.5353 71.4735 58.6395 71.6325C58.7438 71.7888 58.7959 71.9791 58.7959 72.2032C58.7959 72.3778 58.7594 72.538 58.6864 72.6839C58.6135 72.8273 58.5079 72.951 58.3698 73.0553C58.2343 73.1595 58.0702 73.2403 57.8773 73.2976C57.6871 73.3549 57.4734 73.3836 57.2363 73.3836C56.8793 73.3836 56.5771 73.325 56.3295 73.2077C56.0846 73.0878 55.8982 72.9315 55.7706 72.7387C55.6455 72.5432 55.5829 72.3361 55.5829 72.1172H56.0481C56.0637 72.3361 56.1328 72.5094 56.2552 72.637C56.3777 72.7621 56.5275 72.8507 56.7047 72.9028C56.8845 72.9549 57.0617 72.981 57.2363 72.981C57.4761 72.981 57.6767 72.9458 57.8383 72.8755C57.9998 72.8051 58.1223 72.7126 58.2057 72.5979C58.2891 72.4833 58.3308 72.3595 58.3308 72.2266Z" fill="black"/>
<path d="M109.734 67.5909V73.3054H109.269V68.1811L107.721 68.7557V68.314L109.656 67.5909H109.734ZM112.685 70.4912L112.318 70.3856L112.595 67.6144H115.441V68.0521H112.994L112.795 69.9674C112.894 69.897 113.037 69.828 113.225 69.7602C113.415 69.6899 113.628 69.6547 113.866 69.6547C114.118 69.6547 114.348 69.6977 114.554 69.7837C114.762 69.8671 114.94 69.9895 115.089 70.1511C115.238 70.3101 115.352 70.5029 115.433 70.7296C115.514 70.9537 115.554 71.2078 115.554 71.4918C115.554 71.7654 115.52 72.0169 115.453 72.2462C115.385 72.4755 115.282 72.6761 115.144 72.8481C115.006 73.0175 114.83 73.1491 114.616 73.2429C114.402 73.3367 114.148 73.3836 113.854 73.3836C113.627 73.3836 113.413 73.3523 113.213 73.2898C113.015 73.2246 112.838 73.1269 112.681 72.9966C112.525 72.8663 112.397 72.7022 112.298 72.5041C112.202 72.3061 112.142 72.0742 112.118 71.8084H112.568C112.599 72.0638 112.668 72.2787 112.775 72.4533C112.882 72.6279 113.025 72.7595 113.205 72.8481C113.387 72.9367 113.604 72.981 113.854 72.981C114.057 72.981 114.234 72.9484 114.385 72.8833C114.539 72.8181 114.667 72.723 114.769 72.5979C114.873 72.4703 114.951 72.3152 115.003 72.1328C115.058 71.9478 115.085 71.7367 115.085 71.4996C115.085 71.2964 115.056 71.11 114.999 70.9407C114.942 70.7687 114.857 70.6188 114.745 70.4912C114.636 70.3609 114.5 70.2606 114.339 70.1902C114.177 70.1198 113.992 70.0847 113.784 70.0847C113.513 70.0847 113.296 70.1211 113.135 70.1941C112.976 70.2671 112.826 70.3661 112.685 70.4912Z" fill="black"/>
<g clip-path="url(#clip2_538_6296)">
<path d="M168.512 67.5891C166.368 67.5891 164.537 68.9228 163.795 70.8054C164.537 72.688 166.368 74.0217 168.512 74.0217C170.656 74.0217 172.487 72.688 173.229 70.8054C172.487 68.9228 170.656 67.5891 168.512 67.5891ZM168.512 72.9496C167.329 72.9496 166.368 71.989 166.368 70.8054C166.368 69.6218 167.329 68.6612 168.512 68.6612C169.696 68.6612 170.656 69.6218 170.656 70.8054C170.656 71.989 169.696 72.9496 168.512 72.9496ZM168.512 69.5189C167.8 69.5189 167.226 70.0935 167.226 70.8054C167.226 71.5173 167.8 72.0919 168.512 72.0919C169.224 72.0919 169.799 71.5173 169.799 70.8054C169.799 70.0935 169.224 69.5189 168.512 69.5189Z" fill="#5BBC2E"/>
</g>
<rect x="189.868" y="33.502" width="31.4482" height="31.2996" rx="15.6498" fill="#5BBC2E" fill-opacity="0.1"/>
<rect x="189.868" y="33.502" width="31.4482" height="31.2996" rx="15.6498" stroke="#5BBC2E" strokeWidth="0.571785"/>
<path d="M202.911 49.7365V50.3306H198.799V49.9045L201.347 45.9607H201.938L201.304 47.102L199.62 49.7365H202.911ZM202.117 45.9607V51.6517H201.394V45.9607H202.117ZM204.482 48.943L203.904 48.7945L204.189 45.9607H207.109V46.6291H204.803L204.631 48.1769C204.735 48.117 204.867 48.061 205.025 48.0088C205.187 47.9567 205.372 47.9307 205.581 47.9307C205.844 47.9307 206.08 47.9763 206.288 48.0675C206.496 48.1561 206.674 48.2837 206.82 48.4505C206.968 48.6173 207.081 48.8179 207.16 49.0525C207.238 49.287 207.277 49.5489 207.277 49.8381C207.277 50.1117 207.239 50.3632 207.164 50.5925C207.091 50.8218 206.98 51.0224 206.831 51.1944C206.683 51.3638 206.495 51.4954 206.268 51.5892C206.044 51.683 205.78 51.7299 205.475 51.7299C205.246 51.7299 205.028 51.6986 204.822 51.6361C204.619 51.571 204.437 51.4732 204.275 51.3429C204.116 51.2101 203.986 51.0459 203.884 50.8505C203.785 50.6524 203.723 50.4205 203.697 50.1547H204.384C204.416 50.3684 204.478 50.5482 204.572 50.6941C204.666 50.84 204.788 50.9508 204.94 51.0263C205.093 51.0993 205.272 51.1358 205.475 51.1358C205.647 51.1358 205.799 51.1058 205.932 51.0459C206.065 50.986 206.177 50.9 206.268 50.7879C206.36 50.6759 206.429 50.5404 206.476 50.3814C206.525 50.2225 206.55 50.044 206.55 49.8459C206.55 49.6661 206.525 49.4993 206.476 49.3456C206.426 49.1919 206.352 49.0577 206.253 48.943C206.156 48.8284 206.038 48.7398 205.897 48.6772C205.756 48.6121 205.595 48.5795 205.412 48.5795C205.17 48.5795 204.986 48.6121 204.861 48.6772C204.739 48.7424 204.612 48.831 204.482 48.943ZM211.643 48.3528V49.2205C211.643 49.687 211.601 50.0804 211.518 50.401C211.434 50.7215 211.315 50.9794 211.158 51.1749C211.002 51.3703 210.813 51.5123 210.591 51.6009C210.373 51.6869 210.125 51.7299 209.849 51.7299C209.63 51.7299 209.428 51.7025 209.243 51.6478C209.058 51.5931 208.891 51.5058 208.743 51.3859C208.597 51.2635 208.472 51.1045 208.367 50.9091C208.263 50.7136 208.184 50.4765 208.129 50.1977C208.074 49.9189 208.047 49.5932 208.047 49.2205V48.3528C208.047 47.8864 208.089 47.4955 208.172 47.1802C208.258 46.8649 208.379 46.6121 208.535 46.4219C208.692 46.2291 208.879 46.091 209.098 46.0076C209.32 45.9242 209.567 45.8825 209.841 45.8825C210.062 45.8825 210.266 45.9099 210.451 45.9646C210.638 46.0167 210.805 46.1014 210.951 46.2187C211.097 46.3333 211.221 46.4871 211.322 46.6799C211.427 46.8701 211.506 47.1033 211.561 47.3795C211.616 47.6558 211.643 47.9802 211.643 48.3528ZM210.916 49.3378V48.2316C210.916 47.9763 210.9 47.7522 210.869 47.5593C210.84 47.3639 210.797 47.1971 210.74 47.059C210.683 46.9209 210.61 46.8089 210.521 46.7229C210.435 46.6369 210.335 46.5743 210.22 46.5353C210.108 46.4936 209.982 46.4727 209.841 46.4727C209.669 46.4727 209.517 46.5053 209.384 46.5704C209.251 46.633 209.139 46.7333 209.048 46.8714C208.959 47.0095 208.891 47.1906 208.844 47.4147C208.797 47.6388 208.774 47.9111 208.774 48.2316V49.3378C208.774 49.5932 208.788 49.8186 208.817 50.014C208.848 50.2094 208.894 50.3788 208.954 50.5221C209.014 50.6628 209.087 50.7788 209.173 50.87C209.259 50.9612 209.358 51.0289 209.47 51.0732C209.584 51.1149 209.711 51.1358 209.849 51.1358C210.026 51.1358 210.181 51.1019 210.314 51.0342C210.447 50.9664 210.558 50.8609 210.646 50.7176C210.737 50.5716 210.805 50.3853 210.849 50.1586C210.894 49.9293 210.916 49.6557 210.916 49.3378Z" fill="black"/>
<path d="M187.722 73.2578V78.9489H187.245V73.2578H187.722ZM189.673 73.2578V73.6721H185.299V73.2578H189.673ZM189.841 76.9007V76.7717C189.841 76.4642 189.885 76.1802 189.974 75.9196C190.062 75.659 190.189 75.4336 190.353 75.2434C190.52 75.0532 190.719 74.906 190.951 74.8017C191.183 74.6949 191.441 74.6415 191.725 74.6415C192.011 74.6415 192.271 74.6949 192.503 74.8017C192.735 74.906 192.934 75.0532 193.101 75.2434C193.267 75.4336 193.395 75.659 193.484 75.9196C193.572 76.1802 193.617 76.4642 193.617 76.7717V76.9007C193.617 77.2082 193.572 77.4922 193.484 77.7528C193.395 78.0108 193.267 78.2349 193.101 78.4251C192.937 78.6153 192.738 78.7638 192.507 78.8707C192.275 78.9749 192.017 79.027 191.733 79.027C191.446 79.027 191.187 78.9749 190.955 78.8707C190.723 78.7638 190.524 78.6153 190.357 78.4251C190.19 78.2349 190.062 78.0108 189.974 77.7528C189.885 77.4922 189.841 77.2082 189.841 76.9007ZM190.306 76.7717V76.9007C190.306 77.1326 190.337 77.3528 190.4 77.5613C190.462 77.7671 190.554 77.9508 190.673 78.1124C190.793 78.2713 190.942 78.3964 191.119 78.4876C191.296 78.5788 191.501 78.6244 191.733 78.6244C191.962 78.6244 192.164 78.5788 192.339 78.4876C192.516 78.3964 192.664 78.2713 192.784 78.1124C192.904 77.9508 192.994 77.7671 193.054 77.5613C193.116 77.3528 193.148 77.1326 193.148 76.9007V76.7717C193.148 76.5424 193.116 76.3248 193.054 76.119C192.994 75.9131 192.903 75.7294 192.78 75.5678C192.66 75.4063 192.512 75.2786 192.335 75.1848C192.157 75.091 191.954 75.0441 191.725 75.0441C191.496 75.0441 191.292 75.091 191.115 75.1848C190.94 75.2786 190.792 75.4063 190.669 75.5678C190.55 75.7294 190.458 75.9131 190.396 76.119C190.336 76.3248 190.306 76.5424 190.306 76.7717ZM196.185 74.7197V75.1027H194.066V74.7197H196.185ZM194.844 73.633H195.309V77.9209C195.309 78.1163 195.335 78.2635 195.387 78.3625C195.439 78.4616 195.507 78.528 195.591 78.5619C195.674 78.5958 195.764 78.6127 195.86 78.6127C195.931 78.6127 195.998 78.6088 196.063 78.601C196.129 78.5906 196.187 78.5801 196.239 78.5697L196.259 78.9645C196.202 78.9827 196.127 78.9971 196.036 79.0075C195.945 79.0205 195.854 79.027 195.763 79.027C195.583 79.027 195.424 78.9945 195.286 78.9293C195.148 78.8616 195.039 78.7469 194.961 78.5853C194.883 78.4212 194.844 78.1984 194.844 77.917V73.633ZM199.738 78.1906V76.0095C199.738 75.8089 199.696 75.6356 199.613 75.4897C199.529 75.3437 199.407 75.2317 199.245 75.1535C199.084 75.0753 198.884 75.0363 198.647 75.0363C198.428 75.0363 198.233 75.0753 198.061 75.1535C197.891 75.2291 197.757 75.332 197.658 75.4623C197.562 75.59 197.514 75.732 197.514 75.8883L197.045 75.8844C197.045 75.7255 197.084 75.5717 197.162 75.4232C197.24 75.2747 197.351 75.1418 197.494 75.0245C197.637 74.9073 197.808 74.8148 198.006 74.747C198.207 74.6767 198.427 74.6415 198.667 74.6415C198.969 74.6415 199.235 74.6923 199.464 74.7939C199.696 74.8955 199.877 75.048 200.007 75.2512C200.138 75.4545 200.203 75.7099 200.203 76.0173V78.0616C200.203 78.2075 200.213 78.3586 200.234 78.515C200.258 78.6713 200.29 78.8003 200.332 78.9019V78.9489H199.835C199.804 78.855 199.779 78.7378 199.761 78.5971C199.745 78.4538 199.738 78.3183 199.738 78.1906ZM199.847 76.4864L199.855 76.846H198.936C198.697 76.846 198.482 76.8681 198.291 76.9124C198.104 76.9541 197.945 77.0167 197.815 77.1C197.684 77.1808 197.584 77.2785 197.514 77.3932C197.446 77.5078 197.412 77.6381 197.412 77.7841C197.412 77.9352 197.45 78.0733 197.525 78.1984C197.604 78.3235 197.713 78.4238 197.854 78.4994C197.997 78.5723 198.166 78.6088 198.362 78.6088C198.622 78.6088 198.852 78.5606 199.05 78.4642C199.25 78.3678 199.416 78.2414 199.546 78.085C199.676 77.9287 199.764 77.758 199.808 77.573L200.011 77.8427C199.977 77.973 199.915 78.1072 199.824 78.2453C199.735 78.3808 199.619 78.5085 199.476 78.6283C199.332 78.7456 199.163 78.842 198.968 78.9176C198.775 78.9905 198.556 79.027 198.311 79.027C198.035 79.027 197.794 78.9749 197.588 78.8707C197.385 78.7664 197.226 78.6244 197.111 78.4446C196.999 78.2622 196.943 78.0564 196.943 77.8271C196.943 77.6186 196.987 77.4323 197.076 77.2681C197.164 77.1013 197.292 76.9606 197.459 76.846C197.628 76.7287 197.832 76.6401 198.069 76.5802C198.308 76.5176 198.577 76.4864 198.874 76.4864H199.847ZM201.977 72.9451V78.9489H201.512V72.9451H201.977ZM207.098 78.2414L208.892 73.2578H209.416L207.297 78.9489H206.91L207.098 78.2414ZM205.245 73.2578L207.031 78.2414L207.227 78.9489H206.836L204.721 73.2578H205.245ZM210.67 74.7197V78.9489H210.205V74.7197H210.67ZM210.123 73.4962C210.123 73.4076 210.15 73.3334 210.205 73.2734C210.262 73.2109 210.341 73.1796 210.44 73.1796C210.539 73.1796 210.617 73.2109 210.674 73.2734C210.734 73.3334 210.764 73.4076 210.764 73.4962C210.764 73.5822 210.734 73.6565 210.674 73.719C210.617 73.779 210.539 73.8089 210.44 73.8089C210.341 73.8089 210.262 73.779 210.205 73.719C210.15 73.6565 210.123 73.5822 210.123 73.4962ZM213.582 79.027C213.306 79.027 213.052 78.9762 212.82 78.8746C212.591 78.773 212.39 78.6296 212.218 78.4446C212.049 78.2596 211.917 78.0407 211.823 77.788C211.732 77.5326 211.687 77.2538 211.687 76.9515V76.7834C211.687 76.4577 211.735 76.1633 211.831 75.9001C211.928 75.6369 212.06 75.4115 212.23 75.2239C212.399 75.0363 212.592 74.8929 212.808 74.7939C213.027 74.6923 213.256 74.6415 213.496 74.6415C213.765 74.6415 214.003 74.6897 214.212 74.7861C214.42 74.8799 214.595 75.0141 214.735 75.1887C214.879 75.3607 214.987 75.5652 215.06 75.8024C215.133 76.0369 215.169 76.2962 215.169 76.5802V76.8655H211.968V76.4668H214.704V76.4121C214.699 76.175 214.651 75.9535 214.559 75.7476C214.471 75.5392 214.338 75.3698 214.161 75.2395C213.984 75.1092 213.762 75.0441 213.496 75.0441C213.298 75.0441 213.116 75.0858 212.949 75.1692C212.785 75.2525 212.643 75.3724 212.523 75.5288C212.406 75.6825 212.315 75.8662 212.249 76.0799C212.187 76.2909 212.156 76.5255 212.156 76.7834V76.9515C212.156 77.186 212.189 77.4049 212.257 77.6082C212.328 77.8088 212.427 77.986 212.554 78.1398C212.685 78.2935 212.838 78.4134 213.015 78.4994C213.193 78.5853 213.388 78.6283 213.602 78.6283C213.852 78.6283 214.073 78.5827 214.266 78.4915C214.459 78.3977 214.632 78.2505 214.786 78.0499L215.079 78.2766C214.988 78.4121 214.873 78.5371 214.735 78.6518C214.6 78.7664 214.437 78.8576 214.247 78.9254C214.056 78.9932 213.835 79.027 213.582 79.027ZM217.264 77.96L218.284 74.7197H218.613L218.417 75.5913L217.35 78.9489H217.022L217.264 77.96ZM216.205 74.7197L217.1 77.9795L217.292 78.9489H216.952L215.724 74.7197H216.205ZM219.883 77.9678L220.755 74.7197H221.235L220.008 78.9489H219.672L219.883 77.9678ZM218.679 74.7197L219.684 77.9326L219.938 78.9489H219.609L218.519 75.5874L218.335 74.7197H218.679ZM224.667 77.8701C224.667 77.7554 224.639 77.642 224.581 77.53C224.524 77.4179 224.413 77.315 224.249 77.2212C224.087 77.1274 223.849 77.0479 223.534 76.9828C223.299 76.9307 223.089 76.872 222.904 76.8069C222.722 76.7417 222.568 76.6636 222.443 76.5724C222.318 76.4812 222.223 76.3717 222.158 76.244C222.093 76.1164 222.06 75.9652 222.06 75.7906C222.06 75.6343 222.094 75.4871 222.162 75.349C222.232 75.2082 222.331 75.0858 222.459 74.9815C222.589 74.8747 222.745 74.7913 222.928 74.7314C223.113 74.6714 223.32 74.6415 223.549 74.6415C223.875 74.6415 224.154 74.6975 224.386 74.8096C224.62 74.919 224.799 75.0688 224.921 75.2591C225.046 75.4493 225.109 75.6643 225.109 75.904H224.644C224.644 75.7581 224.601 75.62 224.515 75.4897C224.431 75.3594 224.308 75.2525 224.144 75.1692C223.982 75.0858 223.784 75.0441 223.549 75.0441C223.307 75.0441 223.11 75.0806 222.959 75.1535C222.808 75.2265 222.697 75.319 222.627 75.431C222.559 75.5431 222.525 75.659 222.525 75.7789C222.525 75.8727 222.54 75.9587 222.568 76.0369C222.6 76.1124 222.654 76.1828 222.732 76.2479C222.813 76.3131 222.928 76.3743 223.076 76.4317C223.225 76.489 223.418 76.545 223.655 76.5997C223.996 76.6753 224.275 76.7678 224.491 76.8772C224.71 76.9841 224.872 77.117 224.976 77.2759C225.08 77.4323 225.132 77.6225 225.132 77.8466C225.132 78.0212 225.096 78.1814 225.023 78.3274C224.95 78.4707 224.844 78.5945 224.706 78.6987C224.571 78.8029 224.407 78.8837 224.214 78.941C224.024 78.9984 223.81 79.027 223.573 79.027C223.216 79.027 222.914 78.9684 222.666 78.8511C222.421 78.7313 222.235 78.5749 222.107 78.3821C221.982 78.1867 221.919 77.9795 221.919 77.7606H222.385C222.4 77.9795 222.469 78.1528 222.592 78.2805C222.714 78.4055 222.864 78.4941 223.041 78.5463C223.221 78.5984 223.398 78.6244 223.573 78.6244C223.813 78.6244 224.013 78.5893 224.175 78.5189C224.336 78.4485 224.459 78.356 224.542 78.2414C224.626 78.1267 224.667 78.0029 224.667 77.8701Z" fill="black"/>
<defs>
<linearGradient id="paint0_linear_538_6296" x1="50.5193" y1="28.4505" x2="77.554" y2="119.31" gradientUnits="userSpaceOnUse">
<stop stopColor="#182F59"/>
<stop offset="1" stopColor="#020F26"/>
</linearGradient>
<radialGradient id="paint1_angular_538_6296" cx="0" cy="0" r="1" gradientUnits="userSpaceOnUse" gradientTransform="translate(169.963 65.6187) rotate(-159.829) scale(146.372 95.044)">
<stop stopColor="#4C576B" stopOpacity="0.5"/>
<stop offset="1" stopOpacity="0.7"/>
</radialGradient>
<clipPath id="clip0_538_6296">
<rect width="10.2921" height="10.2921" fill="white" transform="translate(57.5391 15.2086)"/>
</clipPath>
<clipPath id="clip1_538_6296">
<rect width="13.7228" height="13.7228" fill="white" transform="translate(159.934 40.5007)"/>
</clipPath>
<clipPath id="clip2_538_6296">
<rect width="10.2921" height="10.2921" fill="white" transform="translate(163.365 65.6593)"/>
</clipPath>
</defs>
</svg>
