<svg width="45" height="45" viewBox="0 0 45 45" fill="none" xmlns="http://www.w3.org/2000/svg">
<path d="M22.3356 23.7469C14.49 19.2976 3.86369 24.7315 3.68379 34.837H0.497101C0.82913 28.0678 4.08328 23.2797 10.1246 20.2796C6.97498 17.9385 5.26853 14.8417 5.3069 10.8967C5.336 7.85284 6.49744 5.2378 8.68936 3.12169C9.74833 2.09269 11.0026 1.28628 12.3781 0.750019C13.7536 0.213761 15.2225 -0.041483 16.6982 -0.000655328C18.1739 0.0401723 19.6264 0.376244 20.9702 0.987736C22.314 1.59923 23.5218 2.47376 24.5223 3.55973C28.9987 8.40073 28.3849 16.2644 22.6531 20.2901C23.341 20.6567 24.0143 21.0312 24.7061 21.3661C24.8014 21.4124 25.0064 21.292 25.1334 21.2086C27.3351 19.7161 29.9488 18.9511 32.6074 19.021C38.5164 19.1335 43.7813 23.7019 44.7192 29.5447C45.8211 36.4012 41.5232 42.686 34.7451 44.1272C27.8664 45.583 20.8686 40.8042 19.7469 33.8894C19.1595 30.2633 19.9704 26.9826 22.1399 24.0274C22.2086 23.9361 22.2735 23.8408 22.3356 23.7469ZM32.2039 41.2157C34.0847 41.2215 35.925 40.669 37.4919 39.6282C39.0588 38.5873 40.2819 37.1049 41.0064 35.3684C41.731 33.632 41.9244 31.7196 41.5622 29.8731C41.2001 28.0267 40.2986 26.3292 38.9719 24.9954C37.6452 23.6617 35.9529 22.7516 34.109 22.3803C32.2652 22.0089 30.3526 22.1931 28.6134 22.9095C26.8742 23.6259 25.3865 24.8423 24.3385 26.4048C23.2905 27.9672 22.7293 29.8056 22.7259 31.6873C22.7226 32.9353 22.9652 34.1718 23.4398 35.3261C23.9144 36.4803 24.6118 37.5296 25.4921 38.414C26.3723 39.2985 27.4181 40.0007 28.5698 40.4805C29.7215 40.9603 30.9564 41.2084 32.2039 41.2104V41.2157ZM16.4001 3.16536C14.8338 3.16301 13.3019 3.62523 11.998 4.49359C10.6942 5.36195 9.67691 6.59749 9.07473 8.04407C8.47254 9.49066 8.31249 11.0834 8.6148 12.6209C8.91711 14.1585 9.66821 15.5719 10.7732 16.6825C11.8782 17.7931 13.2874 18.5512 14.8229 18.8608C16.3584 19.1704 17.9511 19.0177 19.3998 18.422C20.8486 17.8264 22.0883 16.8144 22.9624 15.5141C23.8365 14.2137 24.3056 12.6834 24.3106 11.1163C24.3165 10.0737 24.1163 9.04011 23.7213 8.07519C23.3263 7.11028 22.7444 6.23306 22.0092 5.49404C21.2739 4.75502 20.3998 4.16881 19.4372 3.76915C18.4745 3.3695 17.4424 3.1643 16.4001 3.16536Z" fill="#5BBC2E"/>
<path d="M31.8416 36.6484C31.3424 36.398 31.1554 35.9896 31.1718 35.4386C31.1942 34.6719 31.1774 33.9052 31.1774 33.1386V32.8661H30.6527C29.9293 32.8661 29.2063 32.8661 28.4829 32.8661C27.8141 32.8661 27.3517 32.4465 27.3487 31.8485C27.3456 31.2505 27.8085 30.8262 28.4727 30.8226C29.2727 30.8226 30.0723 30.8226 30.8739 30.8226H31.1805V30.5298C31.1805 29.7212 31.1805 28.9121 31.1805 28.1035C31.183 27.4528 31.602 26.9959 32.1931 26.9913C32.7959 26.9861 33.221 27.4446 33.223 28.1106C33.2256 29.003 33.223 29.896 33.223 30.8226H33.5097C34.2668 30.8226 35.025 30.8421 35.7811 30.8165C36.4152 30.795 36.8474 31.0312 37.0548 31.642V32.0509C36.8443 32.6581 36.4111 32.8953 35.7801 32.8728C35.093 32.8487 34.4037 32.8677 33.7156 32.8677H33.221C33.221 33.7478 33.2052 34.5973 33.2266 35.4453C33.2409 35.9947 33.0575 36.4036 32.5568 36.652L31.8416 36.6484Z" fill="#5BBC2E"/>
</svg>
