<svg width="50" height="51" viewBox="0 0 50 51" fill="none" xmlns="http://www.w3.org/2000/svg">
<path d="M2.30523 46.6158L18.2691 32.1446L2.30665 23.5848V24.3112C2.30665 29.0672 2.30665 33.8227 2.30665 38.5777C2.30665 39.6098 1.89579 40.1685 1.14657 40.1571C0.397356 40.1458 0.0191932 39.6013 0.0191932 38.5933C0.0191932 33.4838 0.0291449 28.3729 0.012085 23.2635C0.012085 21.984 0.488343 21.0201 1.57592 20.3277C2.83409 19.5316 4.05104 18.6715 5.3021 17.864C5.43859 17.7895 5.55033 17.6768 5.62358 17.5396C5.69683 17.4025 5.72839 17.2469 5.71439 17.092C5.70301 12.6038 5.75419 8.11421 5.68595 3.62601C5.6561 1.66695 7.02374 0.373238 8.9174 0.378925C19.6652 0.413045 30.413 0.394563 41.1608 0.395985C42.7246 0.395985 43.8534 1.18927 44.1918 2.54981C44.2642 2.89652 44.2948 3.25068 44.2828 3.60468C44.2884 8.07535 44.2884 12.5465 44.2828 17.0181C44.2685 17.1984 44.3071 17.3789 44.394 17.5375C44.4809 17.6961 44.6122 17.8259 44.7718 17.9109C46.0229 18.7184 47.2441 19.5714 48.4951 20.3775C49.5301 21.0428 49.9922 21.974 49.9907 23.191C49.9832 31.2101 49.9832 39.2302 49.9907 47.2512C49.9907 49.1876 48.8051 50.3789 46.8801 50.3789H3.13548C1.20628 50.3789 0.0277232 49.1876 0.0191932 47.2512C0.0191932 46.8077 0.00639819 46.3627 0.0191932 45.9206C0.0476265 45.187 0.511089 44.6951 1.15653 44.6922C1.80196 44.6894 2.26258 45.1799 2.30239 45.9092C2.31518 46.1011 2.30523 46.2888 2.30523 46.6158ZM47.6564 23.6089C47.0081 23.9516 46.4167 24.2629 45.8281 24.5771C44.5003 25.2879 43.1781 26.0087 41.8474 26.7096C41.1921 27.0551 40.5551 26.8802 40.2353 26.3073C39.9154 25.7343 40.1301 25.0861 40.8039 24.7065C41.044 24.5563 41.2943 24.4233 41.5532 24.3084C41.947 24.1577 42.0365 23.9018 42.0365 23.4938C42.0223 16.8925 42.0185 10.2917 42.0251 3.69141C42.0251 2.76164 41.9498 2.68344 41.03 2.68344H8.95294C8.05729 2.68344 7.97483 2.7659 7.97483 3.65018C7.97483 10.2514 7.97057 16.8522 7.96204 23.4526C7.96204 23.9089 8.10421 24.1293 8.50227 24.3397C13.8003 27.1659 19.0937 30.006 24.3823 32.8597C24.8486 33.1114 25.2125 33.0929 25.6618 32.8469C29.0415 31.0139 32.427 29.1928 35.8182 27.3835C36.411 27.065 37.001 26.7395 37.6038 26.4423C37.7952 26.3438 38.0125 26.3071 38.2257 26.3374C38.4388 26.3677 38.6373 26.4635 38.7937 26.6115C39.1562 26.9157 39.3098 27.3536 39.125 27.7602C38.9581 28.1035 38.6915 28.3884 38.3601 28.5777C36.347 29.6951 34.3112 30.7727 32.2839 31.8646C32.1218 31.9513 31.9654 32.0465 31.7607 32.1631L47.6621 46.5816L47.6564 23.6089ZM4.1207 48.0374H45.9361C45.7712 47.9123 45.7101 47.8739 45.6518 47.8256C40.4011 43.064 35.1504 38.3009 29.8998 33.5364C29.6623 33.3203 29.4974 33.3502 29.2543 33.4838C28.3558 33.98 27.4417 34.4506 26.5432 34.9481C25.5097 35.5168 24.4946 35.5239 23.461 34.9481C22.5967 34.4619 21.7039 34.0269 20.848 33.5265C20.4869 33.3161 20.2793 33.3843 19.9865 33.6502C16.7394 36.6072 13.4833 39.5596 10.2182 42.5071C8.20941 44.3283 6.20202 46.1509 4.1207 48.0374ZM44.3311 20.342V22.8085L46.384 21.7096L44.3311 20.342ZM5.6888 20.332L3.62596 21.711L5.69164 22.8114L5.6888 20.332Z" fill="#5BBC2E"/>
<path d="M24.7994 16.796C21.2066 14.7594 16.3404 17.2467 16.258 21.8724H14.7987C14.9507 18.7739 16.4409 16.5822 19.2075 15.2089C17.7651 14.1373 16.9837 12.7197 17.0013 10.9139C17.0146 9.52064 17.5465 8.32363 18.5502 7.35499C19.0352 6.88398 19.6095 6.51485 20.2394 6.26938C20.8693 6.02391 21.542 5.90707 22.2178 5.92576C22.8936 5.94445 23.5588 6.09829 24.1741 6.37819C24.7895 6.6581 25.3426 7.05841 25.8008 7.55551C27.8507 9.77144 27.5696 13.371 24.9448 15.2137C25.2598 15.3815 25.5681 15.553 25.885 15.7062C25.9286 15.7274 26.0225 15.6723 26.0806 15.6341C27.0889 14.951 28.2858 14.6008 29.5033 14.6328C32.2093 14.6843 34.6203 16.7754 35.0498 19.4499C35.5544 22.5885 33.5862 25.4653 30.4822 26.125C27.3322 26.7913 24.1276 24.6039 23.6139 21.4387C23.3449 19.7789 23.7163 18.2771 24.7098 16.9244C24.7413 16.8826 24.7709 16.839 24.7994 16.796ZM29.3185 24.7923C30.1798 24.7949 31.0226 24.542 31.7401 24.0656C32.4576 23.5891 33.0177 22.9106 33.3495 22.1157C33.6813 21.3209 33.7699 20.4455 33.6041 19.6003C33.4382 18.7551 33.0254 17.9781 32.4179 17.3675C31.8103 16.757 31.0353 16.3404 30.1909 16.1705C29.3466 16.0005 28.4707 16.0848 27.6743 16.4127C26.8778 16.7407 26.1965 17.2974 25.7166 18.0127C25.2367 18.7279 24.9797 19.5694 24.9781 20.4307C24.9766 21.002 25.0877 21.568 25.3051 22.0963C25.5224 22.6246 25.8418 23.105 26.2449 23.5098C26.648 23.9147 27.1269 24.2361 27.6543 24.4557C28.1817 24.6754 28.7472 24.7889 29.3185 24.7898V24.7923ZM22.0813 7.37498C21.364 7.37391 20.6625 7.58548 20.0654 7.98297C19.4683 8.38046 19.0025 8.94602 18.7267 9.60818C18.4509 10.2703 18.3776 10.9994 18.5161 11.7032C18.6545 12.407 18.9985 13.054 19.5045 13.5624C20.0105 14.0707 20.6559 14.4177 21.359 14.5594C22.0622 14.7012 22.7916 14.6313 23.455 14.3586C24.1184 14.0859 24.6862 13.6227 25.0864 13.0275C25.4867 12.4323 25.7016 11.7318 25.7038 11.0145C25.7066 10.5372 25.6148 10.0641 25.434 9.62243C25.2531 9.18074 24.9866 8.7792 24.6499 8.44092C24.3132 8.10264 23.9129 7.83431 23.4721 7.65137C23.0312 7.46843 22.5586 7.3745 22.0813 7.37498Z" fill="#5BBC2E"/>
<path d="M29.153 22.7018C28.9244 22.5871 28.8388 22.4002 28.8463 22.148C28.8566 21.797 28.8489 21.4461 28.8489 21.0952V20.9704H28.6086C28.2773 20.9704 27.9462 20.9704 27.6149 20.9704C27.3087 20.9704 27.0969 20.7784 27.0955 20.5046C27.0941 20.2309 27.3061 20.0367 27.6103 20.0351C27.9766 20.0351 28.3428 20.0351 28.7099 20.0351H28.8503V19.901C28.8503 19.5309 28.8503 19.1605 28.8503 18.7904C28.8514 18.4925 29.0433 18.2834 29.314 18.2813C29.5901 18.2789 29.7847 18.4888 29.7857 18.7936C29.7868 19.2022 29.7857 19.6109 29.7857 20.0351H29.9169C30.2636 20.0351 30.6108 20.044 30.9571 20.0323C31.2475 20.0224 31.4454 20.1305 31.5404 20.4101V20.5973C31.444 20.8752 31.2456 20.9838 30.9566 20.9735C30.642 20.9625 30.3263 20.9712 30.0112 20.9712H29.7847C29.7847 21.374 29.7775 21.7629 29.7873 22.151C29.7938 22.4025 29.7098 22.5897 29.4806 22.7034L29.153 22.7018Z" fill="#5BBC2E"/>
</svg>
