<svg width="45" height="45" viewBox="0 0 45 45" fill="none" xmlns="http://www.w3.org/2000/svg">
<path d="M31.4509 36.5232L25.7627 30.683L27.9348 28.5126L31.4019 32.0369L36.561 26.8584L38.7489 29.0949L31.4509 36.5232Z" fill="#5BBC2E"/>
<path d="M22.3356 23.7449C14.49 19.2956 3.86369 24.7295 3.68379 34.835H0.497101C0.82913 28.0658 4.08328 23.2778 10.1246 20.2776C6.97498 17.9365 5.26853 14.8398 5.3069 10.8947C5.336 7.85089 6.49744 5.23585 8.68936 3.11974C9.74833 2.09074 11.0026 1.28432 12.3781 0.748066C13.7536 0.211807 15.2225 -0.0434361 16.6982 -0.00260845C18.1739 0.0382192 19.6264 0.374291 20.9702 0.985783C22.314 1.59728 23.5218 2.4718 24.5223 3.55778C28.9987 8.39878 28.3849 16.2624 22.6531 20.2882C23.341 20.6548 24.0143 21.0293 24.7061 21.3641C24.8014 21.4104 25.0064 21.29 25.1334 21.2066C27.3351 19.7142 29.9488 18.9492 32.6074 19.0191C38.5164 19.1315 43.7813 23.6999 44.7192 29.5427C45.8211 36.3993 41.5232 42.6841 34.7451 44.1253C27.8664 45.581 20.8686 40.8022 19.7469 33.8874C19.1595 30.2613 19.9704 26.9806 22.1399 24.0255C22.2086 23.9342 22.2735 23.8389 22.3356 23.7449ZM32.2039 41.2138C34.0847 41.2195 35.925 40.667 37.4919 39.6262C39.0588 38.5854 40.2819 37.1029 41.0064 35.3665C41.731 33.6301 41.9244 31.7176 41.5622 29.8712C41.2001 28.0247 40.2986 26.3272 38.9719 24.9935C37.6452 23.6597 35.9529 22.7496 34.109 22.3783C32.2652 22.007 30.3526 22.1912 28.6134 22.9076C26.8742 23.624 25.3865 24.8403 24.3385 26.4028C23.2905 27.9653 22.7293 29.8037 22.7259 31.6853C22.7226 32.9334 22.9652 34.1699 23.4398 35.3241C23.9144 36.4783 24.6118 37.5276 25.4921 38.4121C26.3723 39.2965 27.4181 39.9987 28.5698 40.4785C29.7215 40.9584 30.9564 41.2064 32.2039 41.2085V41.2138ZM16.4001 3.16341C14.8338 3.16106 13.3019 3.62327 11.998 4.49164C10.6942 5.36 9.67691 6.59554 9.07473 8.04212C8.47254 9.4887 8.31249 11.0814 8.6148 12.619C8.91711 14.1565 9.66821 15.5699 10.7732 16.6805C11.8782 17.7912 13.2874 18.5492 14.8229 18.8588C16.3584 19.1684 17.9511 19.0158 19.3998 18.4201C20.8486 17.8244 22.0883 16.8125 22.9624 15.5121C23.8365 14.2118 24.3056 12.6814 24.3106 11.1144C24.3165 10.0717 24.1163 9.03816 23.7213 8.07324C23.3263 7.10832 22.7444 6.2311 22.0092 5.49209C21.2739 4.75307 20.3998 4.16686 19.4372 3.7672C18.4745 3.36755 17.4424 3.16234 16.4001 3.16341Z" fill="#5BBC2E"/>
</svg>
