<?xml version="1.0" encoding="utf-8"?>
<!-- Generator: Adobe Illustrator 26.2.1, SVG Export Plug-In . SVG Version: 6.00 Build 0)  -->
<svg version="1.1" id="Layer_1" xmlns="http://www.w3.org/2000/svg" xmlns:xlink="http://www.w3.org/1999/xlink" x="0px" y="0px"
	 viewBox="0 0 316.46 90" style="enable-background:new 0 0 316.46 90;" xml:space="preserve">
<style type="text/css">
	.st0{fill:#182F59;}
	.st1{fill:#5BBC2E;}
	.st2{fill:#DB162F;}
	.st3{fill:#4285F4;}
	.st4{fill:#F5BB00;}
	.st5{fill:#1F3F54;}
	.st6{fill:#2E5E4B;}
	.st7{fill:#458D3C;}
	.st8{fill:#54AC33;}
	.st9{fill:#55AF32;}
	.st10{fill:#3D7D41;}
	.st11{fill:#274E4F;}
	.st12{fill:#366E46;}
	.st13{fill:#2A2D55;}
	.st14{fill:#3B2A51;}
	.st15{fill:#941F3E;}
	.st16{fill:#5F264A;}
	.st17{fill:#712446;}
	.st18{fill:#C91833;}
	.st19{fill:#A61D3A;}
	.st20{fill:#B81B37;}
	.st21{fill:#822142;}
	.st22{fill:#293971;}
	.st23{fill:#354A91;}
	.st24{fill:#4762C1;}
	.st25{fill:#415AB1;}
	.st26{fill:#7891D8;}
	.st27{fill:#5D78D0;}
	.st28{fill:#879DDD;}
	.st29{fill:#B3C2EA;}
	.st30{fill:#D2DAF2;}
	.st31{fill:#A4B6E5;}
	.st32{fill:#E1E7F6;}
	.st33{fill:#7991D8;}
</style>
<g>
	<g>
		<g>
			<g>
				<path class="st0" d="M105.7,22.54h1.24l0.2-2.16c0.03-0.27,0.14-0.47,0.33-0.61c0.19-0.14,0.49-0.23,0.88-0.28
					c0.4-0.04,0.91-0.07,1.54-0.07h1.28v12.6c0,0.32-0.18,0.54-0.53,0.64c-0.35,0.1-0.8,0.15-1.35,0.15h-0.35v1.04h6.51v-1.04h-0.35
					c-0.54,0-0.99-0.05-1.35-0.15c-0.35-0.1-0.53-0.32-0.53-0.64v-12.6h1.28c0.63,0,1.15,0.02,1.54,0.07
					c0.4,0.04,0.7,0.14,0.89,0.28c0.2,0.14,0.3,0.34,0.32,0.61l0.2,2.16h1.24v-4.35h-13V22.54z"/>
				<path class="st0" d="M130.2,25.98c-0.22-0.79-0.54-1.45-0.96-1.98c-0.42-0.52-0.93-0.92-1.54-1.18c-0.61-0.26-1.32-0.4-2.13-0.4
					c-0.99,0-1.88,0.25-2.68,0.75c-0.8,0.5-1.44,1.19-1.91,2.06c-0.47,0.88-0.71,1.9-0.71,3.06c0,1.18,0.25,2.2,0.75,3.07
					c0.5,0.87,1.18,1.54,2.04,2.01c0.86,0.47,1.83,0.71,2.9,0.71c0.77,0,1.43-0.11,2-0.34c0.57-0.23,1.06-0.54,1.47-0.94
					c0.41-0.4,0.76-0.83,1.04-1.3l-1.04-0.93c-0.21,0.34-0.46,0.68-0.76,1.03s-0.67,0.64-1.1,0.87c-0.43,0.24-0.95,0.35-1.56,0.35
					c-0.53,0-1.02-0.1-1.48-0.3c-0.46-0.2-0.85-0.49-1.19-0.87c-0.34-0.38-0.6-0.85-0.78-1.41c-0.15-0.44-0.22-0.94-0.25-1.48h8.23
					C130.53,27.7,130.42,26.78,130.2,25.98z M123.23,24.93c0.3-0.4,0.65-0.71,1.05-0.93c0.4-0.21,0.82-0.32,1.28-0.32
					c0.49,0,0.9,0.09,1.26,0.26c0.35,0.18,0.65,0.44,0.88,0.79c0.24,0.35,0.41,0.8,0.53,1.35c0.09,0.42,0.14,0.91,0.17,1.43h-6.08
					c0.04-0.4,0.1-0.78,0.2-1.13C122.69,25.83,122.93,25.34,123.23,24.93z"/>
				<path class="st0" d="M142.37,31.52c-0.33,0.37-0.73,0.68-1.2,0.93c-0.47,0.25-1.04,0.38-1.7,0.38c-0.6,0-1.14-0.11-1.61-0.33
					s-0.87-0.53-1.19-0.94c-0.32-0.4-0.57-0.89-0.74-1.45c-0.17-0.56-0.25-1.18-0.25-1.85c0-0.88,0.15-1.67,0.44-2.36
					c0.29-0.69,0.74-1.23,1.32-1.62c0.59-0.39,1.32-0.58,2.18-0.58c0.74,0,1.42,0.17,2.05,0.5c0.13,0.07,0.24,0.14,0.35,0.21v2.23
					h1.94v-2.74c-0.19-0.19-0.49-0.4-0.89-0.62c-0.4-0.22-0.9-0.42-1.48-0.58c-0.58-0.17-1.24-0.25-1.98-0.25
					c-1.19,0-2.24,0.25-3.14,0.74c-0.91,0.49-1.61,1.17-2.12,2.04s-0.76,1.88-0.76,3.05c0,1.13,0.24,2.14,0.72,3.01
					c0.48,0.88,1.16,1.56,2.03,2.06c0.88,0.5,1.89,0.75,3.06,0.75c0.81,0,1.51-0.12,2.11-0.36c0.6-0.24,1.11-0.57,1.54-0.98
					c0.43-0.41,0.81-0.86,1.14-1.35l-0.97-0.93C142.98,30.8,142.7,31.15,142.37,31.52z"/>
				<path class="st0" d="M158.8,32.8c-0.28-0.04-0.5-0.12-0.65-0.24c-0.16-0.12-0.23-0.28-0.23-0.49v-6.09
					c0-0.82-0.15-1.5-0.44-2.02c-0.29-0.52-0.71-0.91-1.24-1.16c-0.53-0.25-1.15-0.38-1.85-0.38c-0.57,0-1.09,0.09-1.56,0.27
					c-0.46,0.18-0.9,0.44-1.3,0.79c-0.28,0.24-0.55,0.55-0.83,0.88v-6.73h-3.84v1.02l0.24,0.04c0.38,0.06,0.69,0.12,0.93,0.2
					c0.23,0.07,0.41,0.17,0.53,0.29c0.12,0.12,0.18,0.29,0.18,0.51v12.38c0,0.21-0.08,0.37-0.24,0.49c-0.16,0.12-0.38,0.2-0.65,0.24
					c-0.27,0.04-0.58,0.07-0.94,0.07h-0.04v0.99h5.5v-0.99h-0.07c-0.21,0-0.43-0.01-0.68-0.02c-0.25-0.01-0.46-0.04-0.64-0.08
					c-0.18-0.04-0.26-0.08-0.26-0.12v-6.83c0.24-0.32,0.48-0.61,0.73-0.86c0.38-0.38,0.79-0.66,1.24-0.85s0.91-0.29,1.41-0.29
					c0.47,0,0.84,0.08,1.11,0.25c0.27,0.17,0.47,0.43,0.58,0.78c0.12,0.35,0.18,0.81,0.18,1.37v6.42c0,0.04-0.09,0.08-0.28,0.12
					c-0.18,0.04-0.4,0.06-0.65,0.08c-0.25,0.01-0.48,0.02-0.68,0.02h-0.04v0.99h5.47v-0.99h-0.04
					C159.39,32.87,159.08,32.85,158.8,32.8z"/>
				<path class="st0" d="M162.37,19.23h0.24c0.54,0,0.99,0.05,1.35,0.15c0.35,0.1,0.53,0.32,0.53,0.64v12.01
					c0,0.32-0.18,0.54-0.53,0.64c-0.35,0.1-0.8,0.15-1.35,0.15h-0.24v1.04H169v-1.04h-0.38c-0.24,0-0.48-0.01-0.73-0.02
					c-0.25-0.01-0.48-0.04-0.68-0.09c-0.21-0.04-0.37-0.12-0.5-0.23s-0.19-0.26-0.19-0.45V26.6c0.44,0.01,0.88,0.02,1.31,0.04
					c0.66,0.02,1.31,0.04,1.96,0.07c0.65,0.02,1.31,0.05,1.95,0.08v-1.54c-0.65,0.01-1.3,0.03-1.95,0.06
					c-0.66,0.02-1.31,0.04-1.96,0.06c-0.44,0.01-0.87,0.03-1.31,0.04v-5.89h2.96c0.63,0,1.15,0.02,1.54,0.07
					c0.4,0.04,0.69,0.14,0.88,0.28c0.19,0.14,0.3,0.34,0.33,0.61l0.2,1.99h1.24v-4.24h-11.3V19.23z"/>
				<path class="st0" d="M185.65,24.06c-0.52-0.51-1.13-0.92-1.83-1.2c-0.7-0.29-1.47-0.43-2.31-0.43s-1.61,0.14-2.31,0.43
					c-0.7,0.29-1.31,0.69-1.83,1.2c-0.52,0.52-0.92,1.13-1.2,1.84c-0.28,0.71-0.42,1.5-0.42,2.35c0,1.13,0.25,2.14,0.74,3.02
					c0.49,0.88,1.17,1.57,2.04,2.06c0.87,0.49,1.86,0.74,2.98,0.74s2.11-0.25,2.98-0.74c0.87-0.49,1.55-1.18,2.04-2.06
					c0.49-0.88,0.74-1.89,0.74-3.02c0-0.85-0.14-1.64-0.42-2.35C186.57,25.19,186.17,24.58,185.65,24.06z M184.74,30.66
					c-0.3,0.69-0.72,1.23-1.27,1.6c-0.54,0.38-1.2,0.56-1.96,0.56c-0.75,0-1.4-0.19-1.95-0.56c-0.55-0.37-0.98-0.91-1.28-1.6
					c-0.3-0.69-0.45-1.49-0.45-2.41c0-0.93,0.15-1.73,0.45-2.42s0.73-1.21,1.28-1.59c0.55-0.38,1.2-0.56,1.95-0.56
					c0.76,0,1.42,0.19,1.96,0.56c0.54,0.38,0.97,0.91,1.27,1.59s0.45,1.49,0.45,2.42C185.19,29.17,185.04,29.97,184.74,30.66z"/>
				<path class="st0" d="M197.2,22.43c-0.57,0-1.08,0.13-1.53,0.4c-0.45,0.26-0.84,0.63-1.17,1.09c-0.25,0.35-0.46,0.77-0.65,1.21
					v-2.48h-3.62v1.02l0.22,0.04c0.37,0.07,0.67,0.15,0.92,0.22c0.24,0.07,0.42,0.17,0.54,0.28c0.12,0.11,0.18,0.28,0.18,0.5v7.37
					c0,0.32-0.17,0.54-0.51,0.64c-0.34,0.1-0.77,0.15-1.3,0.15h-0.04v0.99h6v-0.99h-0.38c-0.21,0-0.45-0.01-0.74-0.04
					c-0.29-0.03-0.54-0.1-0.75-0.21c-0.21-0.11-0.32-0.28-0.32-0.52v-5.86c0.08-0.16,0.16-0.32,0.24-0.45
					c0.19-0.34,0.4-0.62,0.63-0.84c0.23-0.22,0.49-0.39,0.78-0.5c0.29-0.11,0.64-0.17,1.04-0.17c0.13,0,0.27,0.01,0.42,0.02
					c0.15,0.02,0.29,0.03,0.43,0.06c0.14,0.02,0.26,0.06,0.36,0.1V22.5c-0.07-0.03-0.18-0.05-0.32-0.06
					C197.49,22.43,197.35,22.43,197.2,22.43z"/>
				<path class="st0" d="M204.76,32.71c-0.35-0.1-0.52-0.32-0.52-0.64v-9.42h-3.84v1.02l0.24,0.04c0.56,0.1,0.97,0.21,1.24,0.33
					c0.26,0.12,0.4,0.34,0.4,0.66v7.37c0,0.32-0.17,0.54-0.52,0.64s-0.78,0.15-1.31,0.15h-0.02v0.99h5.67v-0.99h-0.02
					C205.54,32.87,205.11,32.82,204.76,32.71z"/>
				<path class="st0" d="M203.16,20.2c0.38,0,0.7-0.12,0.96-0.36c0.26-0.24,0.39-0.57,0.39-0.98c0-0.41-0.13-0.74-0.39-0.97
					c-0.26-0.23-0.58-0.35-0.96-0.35c-0.38,0-0.7,0.12-0.96,0.35c-0.26,0.24-0.39,0.56-0.39,0.97c0,0.41,0.13,0.74,0.39,0.98
					C202.46,20.08,202.78,20.2,203.16,20.2z"/>
				<path class="st0" d="M220.45,32.8c-0.27-0.04-0.49-0.12-0.64-0.24c-0.15-0.12-0.23-0.28-0.23-0.49v-6.09
					c0-0.82-0.15-1.5-0.44-2.02c-0.29-0.52-0.7-0.91-1.23-1.16c-0.52-0.25-1.14-0.38-1.84-0.38c-0.57,0-1.1,0.09-1.57,0.27
					c-0.47,0.18-0.91,0.45-1.31,0.81c-0.34,0.31-0.69,0.7-1.03,1.14v-1.99h-3.62v1.02l0.22,0.04c0.37,0.07,0.67,0.15,0.92,0.22
					c0.24,0.07,0.42,0.17,0.54,0.28c0.12,0.11,0.18,0.28,0.18,0.5v7.37c0,0.21-0.08,0.37-0.23,0.49c-0.15,0.12-0.37,0.2-0.64,0.24
					c-0.27,0.04-0.58,0.07-0.94,0.07h-0.04v0.99h5.47v-0.99h-0.07c-0.21,0-0.43-0.01-0.68-0.02s-0.46-0.04-0.64-0.08
					s-0.26-0.08-0.26-0.12v-6.82c0.24-0.32,0.48-0.62,0.74-0.87c0.39-0.38,0.81-0.66,1.25-0.85s0.9-0.29,1.39-0.29
					c0.47,0,0.84,0.08,1.12,0.25c0.27,0.17,0.47,0.43,0.58,0.78c0.12,0.35,0.18,0.81,0.18,1.37v6.42c0,0.04-0.09,0.08-0.28,0.12
					c-0.18,0.04-0.4,0.06-0.65,0.08s-0.48,0.02-0.68,0.02h-0.04v0.99h5.47v-0.99h-0.04C221.04,32.87,220.72,32.85,220.45,32.8z"/>
				<path class="st0" d="M235.47,24.22v-2.03c-0.41-0.04-0.8-0.03-1.17,0.03c-0.37,0.07-0.71,0.2-1.04,0.39
					c-0.32,0.19-0.62,0.44-0.89,0.74c-0.06,0.07-0.11,0.15-0.17,0.22c-0.26-0.24-0.56-0.44-0.89-0.61
					c-0.67-0.35-1.43-0.52-2.28-0.52c-0.84,0-1.59,0.17-2.26,0.52s-1.2,0.82-1.59,1.43s-0.58,1.32-0.58,2.13
					c0,0.81,0.19,1.52,0.57,2.12c0.27,0.43,0.64,0.76,1.06,1.06c-0.37,0.19-0.71,0.4-0.97,0.61c-0.35,0.29-0.62,0.58-0.79,0.89
					c-0.18,0.31-0.26,0.64-0.26,0.99c0,0.28,0.06,0.54,0.17,0.79c0.11,0.25,0.3,0.49,0.58,0.72c0.1,0.08,0.22,0.16,0.34,0.24
					c-0.28,0.15-0.53,0.3-0.74,0.44c-0.37,0.26-0.64,0.53-0.83,0.83c-0.18,0.29-0.28,0.62-0.28,0.97c0,0.71,0.23,1.27,0.7,1.7
					c0.46,0.43,1.09,0.73,1.89,0.92s1.68,0.28,2.67,0.28h0.82c1.01,0,1.95-0.14,2.81-0.41c0.86-0.27,1.55-0.69,2.08-1.26
					c0.52-0.57,0.78-1.28,0.78-2.15c0-0.62-0.15-1.13-0.46-1.53c-0.31-0.4-0.76-0.71-1.36-0.9c-0.6-0.2-1.33-0.3-2.22-0.3h-3.31
					c-0.59,0-1.04-0.07-1.36-0.21c-0.32-0.14-0.47-0.36-0.47-0.67c0-0.21,0.06-0.4,0.17-0.57c0.11-0.18,0.28-0.35,0.5-0.51
					c0.15-0.11,0.35-0.22,0.54-0.32c0.55,0.2,1.16,0.3,1.82,0.3c0.85,0,1.61-0.17,2.28-0.5c0.67-0.33,1.2-0.8,1.59-1.4
					s0.58-1.31,0.58-2.12c0-0.81-0.2-1.52-0.58-2.13c-0.03-0.05-0.08-0.09-0.12-0.14c0.29-0.07,0.62-0.11,1.04-0.11
					C234.27,24.13,234.82,24.16,235.47,24.22z M231.1,34.41c0.87,0,1.46,0.09,1.78,0.28c0.32,0.18,0.47,0.49,0.47,0.92
					c0,0.41-0.17,0.78-0.5,1.1c-0.33,0.32-0.79,0.58-1.37,0.76c-0.58,0.18-1.25,0.28-2,0.28h-0.77c-0.81,0-1.47-0.07-2-0.2
					c-0.52-0.13-0.91-0.32-1.16-0.56s-0.38-0.54-0.38-0.89c0-0.25,0.06-0.49,0.17-0.71s0.28-0.43,0.52-0.64
					c0.13-0.12,0.29-0.22,0.46-0.33H231.1z M231.23,28c-0.21,0.41-0.5,0.71-0.87,0.93s-0.82,0.32-1.33,0.32
					c-0.5,0-0.94-0.11-1.31-0.32s-0.67-0.52-0.87-0.93c-0.21-0.4-0.31-0.9-0.31-1.49c0-0.59,0.1-1.09,0.31-1.51s0.5-0.74,0.87-0.96
					s0.81-0.33,1.31-0.33c0.51,0,0.96,0.11,1.33,0.33s0.67,0.54,0.87,0.96c0.21,0.42,0.31,0.92,0.31,1.51
					C231.54,27.1,231.44,27.6,231.23,28z"/>
			</g>
			<g>
				<path class="st0" d="M119.52,65.52h14.69v12.84c-1,1.03-2.1,1.93-3.3,2.68c-1.2,0.76-2.46,1.39-3.78,1.9
					c-1.32,0.51-2.69,0.88-4.11,1.12c-1.42,0.24-2.86,0.36-4.31,0.36c-2.73,0-5.17-0.42-7.32-1.25c-2.15-0.84-3.97-2.03-5.46-3.58
					c-1.49-1.55-2.63-3.43-3.41-5.63c-0.78-2.2-1.17-4.66-1.17-7.38c0-2.55,0.43-4.89,1.29-7.04c0.86-2.15,2.06-4,3.61-5.55
					s3.39-2.76,5.53-3.63s4.48-1.3,7.03-1.3c3.4,0,6.34,0.7,8.8,2.08c2.46,1.39,4.41,3.67,5.84,6.84l-6.37,2.79
					c-0.81-1.89-1.85-3.29-3.1-4.21s-2.88-1.37-4.88-1.37c-1.78,0-3.28,0.33-4.5,1c-1.22,0.66-2.21,1.55-2.98,2.65
					s-1.32,2.37-1.65,3.79c-0.34,1.43-0.5,2.91-0.5,4.44c0,1.56,0.18,3.03,0.53,4.4c0.35,1.37,0.91,2.58,1.69,3.61
					c0.77,1.03,1.78,1.85,3.02,2.45c1.24,0.6,2.75,0.9,4.53,0.9c1.37,0,2.76-0.2,4.16-0.6c1.4-0.4,2.69-1.05,3.88-1.96v-4.71h-7.73
					V65.52z"/>
				<path class="st0" d="M139.46,49.59h12.77c1.76,0,3.45,0.17,5.05,0.52c1.6,0.34,3.01,0.93,4.22,1.75
					c1.21,0.82,2.17,1.91,2.89,3.27c0.72,1.36,1.08,3.05,1.08,5.06c0,2.37-0.61,4.33-1.83,5.86c-1.22,1.53-2.96,2.62-5.22,3.26
					l9.07,14.59h-8.25l-8.22-13.24h-3.82v13.24h-7.73V49.59z M151.78,65.35c0.88,0,1.68-0.09,2.42-0.26s1.39-0.45,1.93-0.84
					c0.55-0.39,0.97-0.91,1.28-1.55c0.3-0.64,0.46-1.43,0.46-2.37c0-0.98-0.16-1.78-0.49-2.4c-0.33-0.62-0.77-1.1-1.34-1.46
					c-0.56-0.36-1.21-0.6-1.94-0.74c-0.73-0.13-1.51-0.2-2.32-0.2h-4.59v9.82H151.78z"/>
				<path class="st0" d="M187.32,84.42c-2.64,0-5.04-0.43-7.2-1.3s-4.01-2.08-5.53-3.65c-1.52-1.57-2.7-3.45-3.54-5.65
					c-0.84-2.19-1.25-4.61-1.25-7.25c0-2.56,0.45-4.91,1.34-7.05c0.89-2.14,2.12-3.99,3.69-5.54s3.43-2.76,5.59-3.63
					s4.51-1.3,7.05-1.3c2.64,0,5.04,0.43,7.2,1.29c2.16,0.86,4.02,2.06,5.56,3.61c1.55,1.55,2.74,3.4,3.6,5.56
					c0.85,2.16,1.28,4.55,1.28,7.16c0,2.64-0.43,5.05-1.3,7.23c-0.87,2.18-2.08,4.05-3.64,5.61c-1.56,1.56-3.43,2.77-5.61,3.63
					C192.36,83.99,189.96,84.42,187.32,84.42z M187.62,78.21c1.69,0,3.12-0.33,4.31-0.98c1.19-0.66,2.16-1.52,2.9-2.6
					c0.75-1.08,1.3-2.31,1.64-3.69c0.34-1.38,0.52-2.8,0.52-4.25c0-1.55-0.19-3.01-0.57-4.4s-0.97-2.61-1.77-3.67
					c-0.8-1.05-1.8-1.89-3.02-2.51c-1.22-0.62-2.66-0.93-4.33-0.93c-1.7,0-3.15,0.32-4.35,0.96c-1.2,0.64-2.17,1.5-2.92,2.58
					c-0.75,1.08-1.29,2.32-1.63,3.74s-0.5,2.89-0.5,4.44c0,1.47,0.2,2.89,0.61,4.25c0.41,1.37,1.01,2.57,1.82,3.62
					s1.82,1.88,3.03,2.51C184.58,77.9,186,78.21,187.62,78.21z"/>
				<path class="st0" d="M207.07,49.59h7.87l5.86,23.68l6.33-23.68h6.63l6.56,23.85l6.04-23.85h7.21l-8.83,34.3h-7.92l-6.68-23.71
					l-6.77,23.71h-7.47L207.07,49.59z"/>
				<path class="st0" d="M264.86,55.63h-9.28v-6.04h26.35v6.04h-9.28v28.25h-7.8V55.63z"/>
				<path class="st0" d="M286.41,49.59h7.78V63.6h14.24V49.59h7.78v34.3h-7.78V69.73h-14.24v14.15h-7.78V49.59z"/>
			</g>
		</g>
	</g>
	<g>
		<g>
			<path class="st0" d="M89.22,38.79c-1.54-1.2-3.84-1.58-4.64-3.58c-1.55-3.46-2.01-7.29-2.78-10.97
				c-0.75,0.12-1.51,0.26-2.26,0.41c0.41-2.81,1.78-6.25-0.48-8.63c-2.97-3.77-6.19-7.34-9.42-10.91c-1.19-1.37-2.76-2.4-4.49-2.97
				c1.35,3.51,3.97,6.36,5.7,9.68c-3.2,0.75-6.95,0.56-9.61-1.52c1.86-0.18,3.67,0.4,5.55,0.46v-0.01c0-0.83-0.46-1.61-1.2-1.99
				c-3.66-1.89-7.58-3.21-11.48-4.51C51.97,3.59,50.64,1.76,49.45,0c0.86,2.97,1.7,5.96,2.51,8.92c-1.37-1.55-2.18-3.55-3.67-4.99
				c-0.17-0.16-0.4-0.27-0.64-0.31c-2.7-0.41-3.91-0.5-8.65,0.01C27.32,5,16.14,11.16,9.13,20.65c-3.16,4.08-5.46,8.79-6.93,13.72
				c-1.04,3.51-1.87,7.15-1.94,10.81c-0.08,4.49,0.51,9.75,2.05,13.17c-0.09-3.1-0.06-5.19,0.24-8.46c0.41-4.38,1.49-8.67,3.3-12.67
				c2.63-5.78,6.65-10.92,11.87-14.55c-5.3,4.94-9.13,11.34-11.22,18.26c-1.72,6.12-1.88,12.66-0.78,18.91
				c0.05,0.25,0.09,0.51,0.14,0.76h1.43v-11.6H17.7c0.11-2.51,0.54-5.01,1.27-7.4c4.14-12.99,18.83-22.12,32.29-18.73
				c1.37,0.44,2.5-0.52,3.51-1.3c-0.18,1.62-0.84,3.43,0.05,4.94c0.89,1.01,2.18,1.54,3.41,2.02c2.6,0.95,5.02,2.31,7.23,3.94
				c-1.01-0.15-2.04-0.26-3.05-0.31c1.95,3.31,4.71,6.03,7.01,9.08c1.44-1.49,2.65-3.19,4.2-4.58c-1.83,3.51-3.64,7.04-5.67,10.45
				c-0.79,1.57-2.58,2.06-4,2.85c1.37,0.25,3.1,0.72,4.17-0.5c1.59-1.72,1.89-4.55,4.27-5.57c3.09-1.27,6.28,0.93,9.41,0.21
				c2.06-0.67,2.86-3.17,4.97-3.75c1.71,0.59,3.15,2.25,3.05,4.11c-0.32,2.15-2.18,3.54-3.2,5.36c2.28-0.87,3.93-2.8,4.88-4.98
				C92.06,42.51,90.73,40.45,89.22,38.79z M64.63,20.36c2.47,1.76,5.14,3.34,7.18,5.62C68.33,26.45,65.27,23.66,64.63,20.36z"/>
		</g>
		<g>
			<path class="st1" d="M18.59,60.44H9.77v-8.95h7.42C17.35,54.15,18.26,58.77,18.59,60.44z"/>
		</g>
		<g>
			<rect x="5.1" y="63.1" class="st2" width="11.87" height="11.87"/>
		</g>
		<g>
			<rect x="19.73" y="71.37" class="st3" width="10.56" height="10.55"/>
		</g>
		<g>
			<rect x="19.73" y="63.86" class="st4" width="4.85" height="4.85"/>
		</g>
		<g>
			<rect x="10.76" y="77.63" class="st3" width="6.21" height="6.22"/>
		</g>
		<g>
			<rect x="28.23" y="84.58" class="st1" width="2.06" height="2.05"/>
		</g>
		<g>
			<rect x="32.95" y="74.23" class="st2" width="2.43" height="2.43"/>
		</g>
		<g>
			<rect x="38.04" y="75.78" class="st0" width="0.89" height="0.89"/>
		</g>
		<g>
			<rect x="56.03" y="86.51" class="st2" width="1.26" height="1.26"/>
		</g>
		<g>
			<rect x="65.38" y="79.83" class="st4" width="2.05" height="2.04"/>
		</g>
		<g>
			<rect x="61.73" y="73.52" class="st3" width="0.99" height="0.98"/>
		</g>
		<g>
			<rect x="67.44" y="69.98" class="st0" width="0.43" height="0.43"/>
		</g>
		<g>
			<rect x="46.16" y="89.1" class="st0" width="0.22" height="0.21"/>
		</g>
		<g>
			<rect x="49.04" y="89.1" class="st3" width="0.9" height="0.9"/>
		</g>
		<g>
			<rect x="71.32" y="67.48" class="st4" width="0.22" height="0.22"/>
		</g>
		<g>
			<rect x="21.66" y="84.58" class="st4" width="3.7" height="3.7"/>
		</g>
		<g>
			<rect x="32.95" y="79.32" class="st4" width="10.56" height="10.56"/>
		</g>
		<g>
			<rect x="46.16" y="79.32" class="st0" width="7.12" height="7.12"/>
		</g>
		<g>
			<rect x="56.02" y="77.15" class="st1" width="6.7" height="6.7"/>
		</g>
		<g>
			<rect x="65.38" y="74.1" class="st0" width="3.09" height="3.09"/>
		</g>
		<g>
			<rect x="70.9" y="70.69" class="st2" width="1.08" height="1.07"/>
		</g>
	</g>
</g>
</svg>
