<svg width="24" height="24" viewBox="0 0 24 24" fill="none" xmlns="http://www.w3.org/2000/svg">
<path d="M10.6514 18.0708V13.3417C10.2091 13.3417 9.77736 13.3463 9.34494 13.3417C8.41164 13.3312 7.72845 12.6691 7.69949 11.7364C7.68633 11.3415 7.69949 10.9466 7.69949 10.5517C7.69949 10.4556 7.69949 10.3595 7.69949 10.2424H6.77607C5.93031 10.2424 5.08455 10.2476 4.23945 10.2384C4.06042 10.2384 3.99131 10.2898 3.938 10.4648C3.64314 11.4442 2.73024 12.0056 1.70809 11.8674C0.762289 11.7397 0.0396085 10.9177 0.00143414 9.9304C-0.0354239 8.97209 0.641842 8.11909 1.60871 7.90782C2.09966 7.80269 2.6122 7.88661 3.04399 8.14282C3.47577 8.39904 3.79503 8.8087 3.938 9.28999C3.99329 9.47428 4.07359 9.50982 4.24274 9.50851C5.3103 9.50258 6.37787 9.50851 7.44544 9.50521C7.52507 9.50521 7.60471 9.49798 7.69554 9.49337V7.75183H4.43032V4.05221C3.07776 3.52566 2.54859 2.76678 2.74209 1.65973C2.89676 0.777766 3.70698 0.0721983 4.60408 0.0399475C5.59135 0.00374769 6.4246 0.627043 6.6576 1.57285C6.91297 2.60948 6.41144 3.43483 5.17472 4.00811V6.97978C5.27015 6.98439 5.35703 6.99229 5.44391 6.99229C6.14224 6.99229 6.83991 6.98637 7.53758 6.99755C7.71529 6.99755 7.81402 6.95675 7.89892 6.7922C7.98096 6.62183 8.10151 6.47289 8.25105 6.35715C8.44258 6.22551 8.47483 6.06755 8.46956 5.85759C8.45574 5.26523 8.45442 4.67747 8.64398 4.10354C9.15802 2.54234 10.7337 1.49781 12.3173 1.67881C14.0503 1.87627 15.3449 3.15511 15.5062 4.84136C15.5423 5.22442 15.5193 5.61275 15.543 5.99712C15.5601 6.10213 15.6056 6.20046 15.6746 6.28146C15.8208 6.47891 15.9787 6.6632 16.1354 6.84881C16.1828 6.90409 16.2466 6.98571 16.3039 6.98637C17.1319 6.99492 17.9605 6.99229 18.8082 6.99229V4.0239C18.5746 3.90346 18.3264 3.80736 18.1145 3.66059C17.7385 3.39605 17.4649 3.01033 17.3394 2.56805C17.214 2.12577 17.2443 1.65381 17.4254 1.23125C17.7933 0.363771 18.6996 -0.11999 19.6566 0.0412639C20.555 0.192645 21.256 1.00155 21.3021 1.93813C21.3218 2.39335 21.1856 2.84169 20.916 3.20899C20.6464 3.57629 20.2594 3.84056 19.8192 3.95809C19.5941 4.01535 19.5638 4.11473 19.5651 4.30955C19.5724 5.35211 19.5651 6.39466 19.5651 7.43788V7.73735H16.3236V9.49074C16.3894 9.49732 16.4454 9.50719 16.5007 9.50719C17.6011 9.50719 18.7016 9.50192 19.8014 9.51443C20.0022 9.51443 20.0199 9.4032 20.0647 9.26959C20.3675 8.34814 21.2909 7.76104 22.2281 7.8828C23.2082 8.00983 23.9302 8.79109 23.996 9.79613C24.0565 10.7176 23.424 11.5837 22.5039 11.8365C21.439 12.1274 20.3596 11.5146 20.0417 10.4286C20.0035 10.297 19.9607 10.2404 19.8146 10.2411C18.6898 10.247 17.5649 10.2444 16.4401 10.245C16.4079 10.245 16.3743 10.2522 16.3085 10.2595C16.3085 10.4207 16.3085 10.582 16.3085 10.7439C16.3085 11.1131 16.319 11.4837 16.296 11.8516C16.2704 12.2534 16.0937 12.6307 15.8014 12.9076C15.5091 13.1845 15.1229 13.3405 14.7203 13.3444C14.353 13.3503 13.9858 13.3444 13.6093 13.3444C13.6004 13.3912 13.5943 13.4384 13.5908 13.4859C13.5908 13.8216 13.5908 14.1566 13.5908 14.5324C13.7758 14.5324 13.9443 14.5324 14.1128 14.5324C14.6854 14.5363 15.1415 14.7614 15.4772 15.234C15.5428 15.3081 15.6346 15.3539 15.7332 15.3617C16.0518 15.386 16.3763 15.3571 16.6902 15.4038C17.2372 15.4854 17.615 15.8145 17.8091 16.3299C17.8703 16.4938 17.9454 16.5471 18.1079 16.5319C18.2394 16.5233 18.3713 16.5233 18.5028 16.5319C19.2927 16.5629 19.8778 17.15 19.885 17.9424C19.8942 19.0837 19.8896 20.225 19.885 21.3649C19.8872 21.7292 19.7718 22.0845 19.5559 22.3779C19.3229 22.6951 19.0899 23.0137 18.8444 23.321C18.685 23.5316 18.4782 23.7018 18.2408 23.8177C18.0035 23.9337 17.7422 23.9921 17.4781 23.9884C15.3594 23.9884 13.2407 23.9937 11.1227 23.9805C11.0443 23.9755 10.9679 23.9545 10.8979 23.9189C10.828 23.8832 10.766 23.8336 10.7159 23.7732C9.65494 22.2923 8.60405 20.8042 7.56325 19.3088C7.44297 19.1395 7.35725 18.9481 7.31101 18.7457C7.26476 18.5432 7.25889 18.3336 7.29374 18.1289C7.32858 17.9241 7.40346 17.7283 7.51408 17.5525C7.6247 17.3767 7.76889 17.2245 7.93841 17.1045C8.65122 16.6004 9.60097 16.7583 10.1486 17.4738C10.3059 17.6798 10.4553 17.8917 10.6093 18.101L10.6514 18.0708ZM12.855 16.6715V14.6653C12.855 13.6557 12.8517 12.646 12.855 11.6377C12.855 11.3336 12.7589 11.0895 12.491 10.9335C11.9882 10.6419 11.4083 11.0078 11.4077 11.6193C11.4077 14.123 11.4077 16.6265 11.4077 19.1298C11.4077 19.3595 11.4143 19.5905 11.1444 19.6767C10.8745 19.7629 10.7495 19.5582 10.6179 19.3753C10.2782 18.902 9.94849 18.4209 9.58847 17.9641C9.45708 17.7993 9.28518 17.6714 9.08957 17.5929C8.75455 17.4665 8.38268 17.6186 8.17733 17.9049C7.95684 18.2123 7.95223 18.5795 8.18589 18.9152C9.16087 20.3158 10.1402 21.7131 11.124 23.1071C11.1583 23.1481 11.2007 23.1815 11.2485 23.2054C11.2962 23.2293 11.3484 23.2431 11.4017 23.246C13.4123 23.2539 15.4232 23.2539 17.4346 23.246C17.5737 23.2459 17.7116 23.2212 17.842 23.173C18.2567 23.0143 19.1281 21.8336 19.1334 21.3959C19.1459 20.2388 19.1439 19.0811 19.1334 17.924C19.1372 17.7695 19.0838 17.6191 18.9834 17.5017C18.8831 17.3842 18.7429 17.3079 18.5897 17.2875C18.3613 17.2746 18.1324 17.2733 17.9039 17.2836V18.596H17.1799C17.1759 18.5052 17.1687 18.4249 17.1687 18.3452C17.1687 17.8608 17.172 17.3764 17.1687 16.892C17.1641 16.503 16.941 16.1969 16.5823 16.1508C16.2966 16.1133 16.0018 16.1429 15.7187 16.1429V17.7318H14.9947V17.4475C14.9947 17.0124 15 16.5773 14.9947 16.1423C14.9875 15.7217 14.7492 15.3828 14.384 15.3255C14.1385 15.2873 13.8818 15.3182 13.5941 15.3182V16.6728L12.855 16.6715ZM13.5876 12.5842C13.6223 12.5937 13.6577 12.6005 13.6935 12.6046C14.0134 12.6046 14.3333 12.6098 14.6532 12.6046C15.1935 12.5987 15.5575 12.2544 15.5608 11.716C15.5682 10.3369 15.5682 8.95827 15.5608 7.58004C15.5575 7.0456 15.1896 6.69216 14.6512 6.6915C12.8873 6.68755 11.1231 6.68755 9.35876 6.6915C8.80655 6.6915 8.45047 7.04626 8.43731 7.59716C8.43007 7.96639 8.43731 8.33563 8.43731 8.70487C8.43731 9.69806 8.43731 10.6906 8.43731 11.6838C8.43731 12.161 8.7144 12.548 9.14222 12.5842C9.63651 12.6256 10.1367 12.5934 10.6613 12.5934C10.6613 12.286 10.6613 11.9931 10.6613 11.6996C10.6679 10.8472 11.2971 10.1956 12.1172 10.1917C12.9373 10.1877 13.5764 10.8374 13.5862 11.6871C13.5909 11.9813 13.5876 12.2755 13.5876 12.5842ZM14.7433 5.94249C14.8894 4.62614 14.5834 3.54804 13.427 2.82865C12.9522 2.53597 12.3991 2.39583 11.8422 2.42714C11.2854 2.45844 10.7515 2.65967 10.3125 3.00373C9.34297 3.76392 9.10997 4.77752 9.26991 5.94249H14.7433ZM4.70741 3.29332C4.95656 3.29253 5.19987 3.21775 5.40646 3.07848C5.61306 2.93921 5.77364 2.74172 5.86783 2.51105C5.96202 2.28039 5.98558 2.02695 5.93553 1.78287C5.88548 1.5388 5.76406 1.31509 5.58669 1.14012C5.40931 0.965144 5.18396 0.846795 4.93922 0.800079C4.69449 0.753363 4.44139 0.780386 4.21204 0.877719C3.98268 0.975053 3.7874 1.13831 3.65096 1.34679C3.51452 1.55527 3.44308 1.79957 3.44568 2.04871C3.44933 2.38064 3.58397 2.69768 3.82029 2.9308C4.05661 3.16391 4.37546 3.29421 4.70741 3.29332ZM20.5392 2.04279C20.5426 1.71123 20.4141 1.39192 20.1821 1.15507C19.95 0.918219 19.6334 0.783214 19.3019 0.77974C18.9683 0.775115 18.6465 0.903194 18.4074 1.1358C18.1682 1.36841 18.0313 1.68649 18.0266 2.02008C18.022 2.35366 18.1501 2.67542 18.3827 2.91457C18.6153 3.15372 18.9334 3.29067 19.267 3.2953C19.4334 3.29819 19.5986 3.26785 19.7531 3.20605C19.9076 3.14425 20.0482 3.05224 20.1667 2.93541C20.2852 2.81858 20.3792 2.67927 20.4432 2.52566C20.5071 2.37205 20.5398 2.20721 20.5392 2.04081V2.04279ZM3.28772 9.91526C3.29334 9.66481 3.22405 9.41838 3.08872 9.20757C2.95339 8.99675 2.75819 8.83115 2.52814 8.73198C2.29809 8.63282 2.04366 8.60461 1.79747 8.65097C1.55129 8.69734 1.32455 8.81616 1.14633 8.99222C0.96811 9.16827 0.846521 9.39353 0.797148 9.63913C0.747775 9.88474 0.772868 10.1395 0.869209 10.3707C0.965551 10.602 1.12875 10.7992 1.3379 10.9371C1.54704 11.075 1.7926 11.1473 2.0431 11.1447C2.37012 11.1432 2.68355 11.0137 2.9162 10.7839C3.14885 10.554 3.28222 10.2422 3.28772 9.91526ZM20.7156 9.88498C20.7118 10.2165 20.8397 10.5361 21.0714 10.7733C21.3031 11.0105 21.6195 11.146 21.951 11.15C22.1163 11.1509 22.2801 11.1193 22.4331 11.0569C22.5862 10.9945 22.7254 10.9025 22.8429 10.7863C22.9604 10.6701 23.0539 10.5319 23.1179 10.3795C23.182 10.2272 23.2155 10.0637 23.2164 9.89848C23.2173 9.73322 23.1856 9.5694 23.1232 9.41637C23.0608 9.26334 22.9689 9.1241 22.8527 9.0066C22.7365 8.8891 22.5982 8.79565 22.4459 8.73157C22.2936 8.66749 22.1301 8.63404 21.9649 8.63313C21.6333 8.63434 21.3158 8.76667 21.0815 9.00121C20.8472 9.23575 20.7152 9.55347 20.7143 9.88498H20.7156Z" fill="white"/>
<path d="M10.6514 18.0708V13.3417C10.2091 13.3417 9.77736 13.3463 9.34494 13.3417C8.41164 13.3312 7.72845 12.6691 7.69949 11.7364C7.68633 11.3415 7.69949 10.9466 7.69949 10.5517C7.69949 10.4556 7.69949 10.3595 7.69949 10.2424H6.77607C5.93031 10.2424 5.08455 10.2476 4.23945 10.2384C4.06042 10.2384 3.99131 10.2898 3.938 10.4648C3.64314 11.4442 2.73024 12.0056 1.70809 11.8674C0.762289 11.7397 0.0396085 10.9177 0.00143414 9.9304C-0.0354239 8.97209 0.641842 8.11909 1.60871 7.90782C2.09966 7.80269 2.6122 7.88661 3.04399 8.14282C3.47577 8.39904 3.79503 8.8087 3.938 9.28999C3.99329 9.47428 4.07359 9.50982 4.24274 9.50851C5.3103 9.50258 6.37787 9.50851 7.44544 9.50521C7.52507 9.50521 7.60471 9.49798 7.69554 9.49337V7.75183H4.43032V4.05221C3.07776 3.52566 2.54859 2.76678 2.74209 1.65973C2.89676 0.777766 3.70698 0.0721983 4.60408 0.0399475C5.59135 0.00374769 6.4246 0.627043 6.6576 1.57285C6.91297 2.60948 6.41144 3.43483 5.17472 4.00811V6.97978C5.27015 6.98439 5.35703 6.99229 5.44391 6.99229C6.14224 6.99229 6.83991 6.98637 7.53758 6.99755C7.71529 6.99755 7.81402 6.95675 7.89892 6.7922C7.98096 6.62183 8.10151 6.47289 8.25105 6.35715C8.44258 6.22551 8.47483 6.06755 8.46956 5.85759C8.45574 5.26523 8.45442 4.67747 8.64398 4.10354C9.15802 2.54234 10.7337 1.49781 12.3173 1.67881C14.0503 1.87627 15.3449 3.15511 15.5062 4.84136C15.5423 5.22442 15.5193 5.61275 15.543 5.99712C15.5601 6.10213 15.6056 6.20046 15.6746 6.28146C15.8208 6.47891 15.9787 6.6632 16.1354 6.84881C16.1828 6.90409 16.2466 6.98571 16.3039 6.98637C17.1319 6.99492 17.9605 6.99229 18.8082 6.99229V4.0239C18.5746 3.90346 18.3264 3.80736 18.1145 3.66059C17.7385 3.39605 17.4649 3.01033 17.3394 2.56805C17.214 2.12577 17.2443 1.65381 17.4254 1.23125C17.7933 0.363771 18.6996 -0.11999 19.6566 0.0412639C20.555 0.192645 21.256 1.00155 21.3021 1.93813C21.3218 2.39335 21.1856 2.84169 20.916 3.20899C20.6464 3.57629 20.2594 3.84056 19.8192 3.95809C19.5941 4.01535 19.5638 4.11473 19.5651 4.30955C19.5724 5.35211 19.5651 6.39466 19.5651 7.43788V7.73735H16.3236V9.49074C16.3894 9.49732 16.4454 9.50719 16.5007 9.50719C17.6011 9.50719 18.7016 9.50192 19.8014 9.51443C20.0022 9.51443 20.0199 9.4032 20.0647 9.26959C20.3675 8.34814 21.2909 7.76104 22.2281 7.8828C23.2082 8.00983 23.9302 8.79109 23.996 9.79613C24.0565 10.7176 23.424 11.5837 22.5039 11.8365C21.439 12.1274 20.3596 11.5146 20.0417 10.4286C20.0035 10.297 19.9607 10.2404 19.8146 10.2411C18.6898 10.247 17.5649 10.2444 16.4401 10.245C16.4079 10.245 16.3743 10.2522 16.3085 10.2595C16.3085 10.4207 16.3085 10.582 16.3085 10.7439C16.3085 11.1131 16.319 11.4837 16.296 11.8516C16.2704 12.2534 16.0937 12.6307 15.8014 12.9076C15.5091 13.1845 15.1229 13.3405 14.7203 13.3444C14.353 13.3503 13.9858 13.3444 13.6093 13.3444C13.6004 13.3912 13.5943 13.4384 13.5908 13.4859C13.5908 13.8216 13.5908 14.1566 13.5908 14.5324C13.7758 14.5324 13.9443 14.5324 14.1128 14.5324C14.6854 14.5363 15.1415 14.7614 15.4772 15.234C15.5428 15.3081 15.6346 15.3539 15.7332 15.3617C16.0518 15.386 16.3763 15.3571 16.6902 15.4038C17.2372 15.4854 17.615 15.8145 17.8091 16.3299C17.8703 16.4938 17.9454 16.5471 18.1079 16.5319C18.2394 16.5233 18.3713 16.5233 18.5028 16.5319C19.2927 16.5629 19.8778 17.15 19.885 17.9424C19.8942 19.0837 19.8896 20.225 19.885 21.3649C19.8872 21.7292 19.7718 22.0845 19.5559 22.3779C19.3229 22.6951 19.0899 23.0137 18.8444 23.321C18.685 23.5316 18.4782 23.7018 18.2408 23.8177C18.0035 23.9337 17.7422 23.9921 17.4781 23.9884C15.3594 23.9884 13.2407 23.9937 11.1227 23.9805C11.0443 23.9755 10.9679 23.9545 10.8979 23.9189C10.828 23.8832 10.766 23.8336 10.7159 23.7732C9.65494 22.2923 8.60405 20.8042 7.56325 19.3088C7.44297 19.1395 7.35725 18.9481 7.31101 18.7457C7.26476 18.5432 7.25889 18.3336 7.29374 18.1289C7.32858 17.9241 7.40346 17.7283 7.51408 17.5525C7.6247 17.3767 7.76889 17.2245 7.93841 17.1045C8.65122 16.6004 9.60097 16.7583 10.1486 17.4738C10.3059 17.6798 10.4553 17.8917 10.6093 18.101L10.6514 18.0708ZM12.855 16.6715V14.6653C12.855 13.6557 12.8517 12.646 12.855 11.6377C12.855 11.3336 12.7589 11.0895 12.491 10.9335C11.9882 10.6419 11.4083 11.0078 11.4077 11.6193C11.4077 14.123 11.4077 16.6265 11.4077 19.1298C11.4077 19.3595 11.4143 19.5905 11.1444 19.6767C10.8745 19.7629 10.7495 19.5582 10.6179 19.3753C10.2782 18.902 9.94849 18.4209 9.58847 17.9641C9.45708 17.7993 9.28518 17.6714 9.08957 17.5929C8.75455 17.4665 8.38268 17.6186 8.17733 17.9049C7.95684 18.2123 7.95223 18.5795 8.18589 18.9152C9.16087 20.3158 10.1402 21.7131 11.124 23.1071C11.1583 23.1481 11.2007 23.1815 11.2485 23.2054C11.2962 23.2293 11.3484 23.2431 11.4017 23.246C13.4123 23.2539 15.4232 23.2539 17.4346 23.246C17.5737 23.2459 17.7116 23.2212 17.842 23.173C18.2567 23.0143 19.1281 21.8336 19.1334 21.3959C19.1459 20.2388 19.1439 19.0811 19.1334 17.924C19.1372 17.7695 19.0838 17.6191 18.9834 17.5017C18.8831 17.3842 18.7429 17.3079 18.5897 17.2875C18.3613 17.2746 18.1324 17.2733 17.9039 17.2836V18.596H17.1799C17.1759 18.5052 17.1687 18.4249 17.1687 18.3452C17.1687 17.8608 17.172 17.3764 17.1687 16.892C17.1641 16.503 16.941 16.1969 16.5823 16.1508C16.2966 16.1133 16.0018 16.1429 15.7187 16.1429V17.7318H14.9947V17.4475C14.9947 17.0124 15 16.5773 14.9947 16.1423C14.9875 15.7217 14.7492 15.3828 14.384 15.3255C14.1385 15.2873 13.8818 15.3182 13.5941 15.3182V16.6728L12.855 16.6715ZM13.5876 12.5842C13.6223 12.5937 13.6577 12.6005 13.6935 12.6046C14.0134 12.6046 14.3333 12.6098 14.6532 12.6046C15.1935 12.5987 15.5575 12.2544 15.5608 11.716C15.5682 10.3369 15.5682 8.95827 15.5608 7.58004C15.5575 7.0456 15.1896 6.69216 14.6512 6.6915C12.8873 6.68755 11.1231 6.68755 9.35876 6.6915C8.80655 6.6915 8.45047 7.04626 8.43731 7.59716C8.43007 7.96639 8.43731 8.33563 8.43731 8.70487C8.43731 9.69806 8.43731 10.6906 8.43731 11.6838C8.43731 12.161 8.7144 12.548 9.14222 12.5842C9.63651 12.6256 10.1367 12.5934 10.6613 12.5934C10.6613 12.286 10.6613 11.9931 10.6613 11.6996C10.6679 10.8472 11.2971 10.1956 12.1172 10.1917C12.9373 10.1877 13.5764 10.8374 13.5862 11.6871C13.5909 11.9813 13.5876 12.2755 13.5876 12.5842ZM14.7433 5.94249C14.8894 4.62614 14.5834 3.54804 13.427 2.82865C12.9522 2.53597 12.3991 2.39583 11.8422 2.42714C11.2854 2.45844 10.7515 2.65967 10.3125 3.00373C9.34297 3.76392 9.10997 4.77752 9.26991 5.94249H14.7433ZM4.70741 3.29332C4.95656 3.29253 5.19987 3.21775 5.40646 3.07848C5.61306 2.93921 5.77364 2.74172 5.86783 2.51105C5.96202 2.28039 5.98558 2.02695 5.93553 1.78287C5.88548 1.5388 5.76406 1.31509 5.58669 1.14012C5.40931 0.965144 5.18396 0.846795 4.93922 0.800079C4.69449 0.753363 4.44139 0.780386 4.21204 0.877719C3.98268 0.975053 3.7874 1.13831 3.65096 1.34679C3.51452 1.55527 3.44308 1.79957 3.44568 2.04871C3.44933 2.38064 3.58397 2.69768 3.82029 2.9308C4.05661 3.16391 4.37546 3.29421 4.70741 3.29332ZM20.5392 2.04279C20.5426 1.71123 20.4141 1.39192 20.1821 1.15507C19.95 0.918219 19.6334 0.783214 19.3019 0.77974C18.9683 0.775115 18.6465 0.903194 18.4074 1.1358C18.1682 1.36841 18.0313 1.68649 18.0266 2.02008C18.022 2.35366 18.1501 2.67542 18.3827 2.91457C18.6153 3.15372 18.9334 3.29067 19.267 3.2953C19.4334 3.29819 19.5986 3.26785 19.7531 3.20605C19.9076 3.14425 20.0482 3.05224 20.1667 2.93541C20.2852 2.81858 20.3792 2.67927 20.4432 2.52566C20.5071 2.37205 20.5398 2.20721 20.5392 2.04081V2.04279ZM3.28772 9.91526C3.29334 9.66481 3.22405 9.41838 3.08872 9.20757C2.95339 8.99675 2.75819 8.83115 2.52814 8.73198C2.29809 8.63282 2.04366 8.60461 1.79747 8.65097C1.55129 8.69734 1.32455 8.81616 1.14633 8.99222C0.96811 9.16827 0.846521 9.39353 0.797148 9.63913C0.747775 9.88474 0.772868 10.1395 0.869209 10.3707C0.965551 10.602 1.12875 10.7992 1.3379 10.9371C1.54704 11.075 1.7926 11.1473 2.0431 11.1447C2.37012 11.1432 2.68355 11.0137 2.9162 10.7839C3.14885 10.554 3.28222 10.2422 3.28772 9.91526ZM20.7156 9.88498C20.7118 10.2165 20.8397 10.5361 21.0714 10.7733C21.3031 11.0105 21.6195 11.146 21.951 11.15C22.1163 11.1509 22.2801 11.1193 22.4331 11.0569C22.5862 10.9945 22.7254 10.9025 22.8429 10.7863C22.9604 10.6701 23.0539 10.5319 23.1179 10.3795C23.182 10.2272 23.2155 10.0637 23.2164 9.89848C23.2173 9.73322 23.1856 9.5694 23.1232 9.41637C23.0608 9.26334 22.9689 9.1241 22.8527 9.0066C22.7365 8.8891 22.5982 8.79565 22.4459 8.73157C22.2936 8.66749 22.1301 8.63404 21.9649 8.63313C21.6333 8.63434 21.3158 8.76667 21.0815 9.00121C20.8472 9.23575 20.7152 9.55347 20.7143 9.88498H20.7156Z" fill="white" fillOpacity="0.6"/>
<path d="M10.6514 18.0708V13.3417C10.2091 13.3417 9.77736 13.3463 9.34494 13.3417C8.41164 13.3312 7.72845 12.6691 7.69949 11.7364C7.68633 11.3415 7.69949 10.9466 7.69949 10.5517C7.69949 10.4556 7.69949 10.3595 7.69949 10.2424H6.77607C5.93031 10.2424 5.08455 10.2476 4.23945 10.2384C4.06042 10.2384 3.99131 10.2898 3.938 10.4648C3.64314 11.4442 2.73024 12.0056 1.70809 11.8674C0.762289 11.7397 0.0396085 10.9177 0.00143414 9.9304C-0.0354239 8.97209 0.641842 8.11909 1.60871 7.90782C2.09966 7.80269 2.6122 7.88661 3.04399 8.14282C3.47577 8.39904 3.79503 8.8087 3.938 9.28999C3.99329 9.47428 4.07359 9.50982 4.24274 9.50851C5.3103 9.50258 6.37787 9.50851 7.44544 9.50521C7.52507 9.50521 7.60471 9.49798 7.69554 9.49337V7.75183H4.43032V4.05221C3.07776 3.52566 2.54859 2.76678 2.74209 1.65973C2.89676 0.777766 3.70698 0.0721983 4.60408 0.0399475C5.59135 0.00374769 6.4246 0.627043 6.6576 1.57285C6.91297 2.60948 6.41144 3.43483 5.17472 4.00811V6.97978C5.27015 6.98439 5.35703 6.99229 5.44391 6.99229C6.14224 6.99229 6.83991 6.98637 7.53758 6.99755C7.71529 6.99755 7.81402 6.95675 7.89892 6.7922C7.98096 6.62183 8.10151 6.47289 8.25105 6.35715C8.44258 6.22551 8.47483 6.06755 8.46956 5.85759C8.45574 5.26523 8.45442 4.67747 8.64398 4.10354C9.15802 2.54234 10.7337 1.49781 12.3173 1.67881C14.0503 1.87627 15.3449 3.15511 15.5062 4.84136C15.5423 5.22442 15.5193 5.61275 15.543 5.99712C15.5601 6.10213 15.6056 6.20046 15.6746 6.28146C15.8208 6.47891 15.9787 6.6632 16.1354 6.84881C16.1828 6.90409 16.2466 6.98571 16.3039 6.98637C17.1319 6.99492 17.9605 6.99229 18.8082 6.99229V4.0239C18.5746 3.90346 18.3264 3.80736 18.1145 3.66059C17.7385 3.39605 17.4649 3.01033 17.3394 2.56805C17.214 2.12577 17.2443 1.65381 17.4254 1.23125C17.7933 0.363771 18.6996 -0.11999 19.6566 0.0412639C20.555 0.192645 21.256 1.00155 21.3021 1.93813C21.3218 2.39335 21.1856 2.84169 20.916 3.20899C20.6464 3.57629 20.2594 3.84056 19.8192 3.95809C19.5941 4.01535 19.5638 4.11473 19.5651 4.30955C19.5724 5.35211 19.5651 6.39466 19.5651 7.43788V7.73735H16.3236V9.49074C16.3894 9.49732 16.4454 9.50719 16.5007 9.50719C17.6011 9.50719 18.7016 9.50192 19.8014 9.51443C20.0022 9.51443 20.0199 9.4032 20.0647 9.26959C20.3675 8.34814 21.2909 7.76104 22.2281 7.8828C23.2082 8.00983 23.9302 8.79109 23.996 9.79613C24.0565 10.7176 23.424 11.5837 22.5039 11.8365C21.439 12.1274 20.3596 11.5146 20.0417 10.4286C20.0035 10.297 19.9607 10.2404 19.8146 10.2411C18.6898 10.247 17.5649 10.2444 16.4401 10.245C16.4079 10.245 16.3743 10.2522 16.3085 10.2595C16.3085 10.4207 16.3085 10.582 16.3085 10.7439C16.3085 11.1131 16.319 11.4837 16.296 11.8516C16.2704 12.2534 16.0937 12.6307 15.8014 12.9076C15.5091 13.1845 15.1229 13.3405 14.7203 13.3444C14.353 13.3503 13.9858 13.3444 13.6093 13.3444C13.6004 13.3912 13.5943 13.4384 13.5908 13.4859C13.5908 13.8216 13.5908 14.1566 13.5908 14.5324C13.7758 14.5324 13.9443 14.5324 14.1128 14.5324C14.6854 14.5363 15.1415 14.7614 15.4772 15.234C15.5428 15.3081 15.6346 15.3539 15.7332 15.3617C16.0518 15.386 16.3763 15.3571 16.6902 15.4038C17.2372 15.4854 17.615 15.8145 17.8091 16.3299C17.8703 16.4938 17.9454 16.5471 18.1079 16.5319C18.2394 16.5233 18.3713 16.5233 18.5028 16.5319C19.2927 16.5629 19.8778 17.15 19.885 17.9424C19.8942 19.0837 19.8896 20.225 19.885 21.3649C19.8872 21.7292 19.7718 22.0845 19.5559 22.3779C19.3229 22.6951 19.0899 23.0137 18.8444 23.321C18.685 23.5316 18.4782 23.7018 18.2408 23.8177C18.0035 23.9337 17.7422 23.9921 17.4781 23.9884C15.3594 23.9884 13.2407 23.9937 11.1227 23.9805C11.0443 23.9755 10.9679 23.9545 10.8979 23.9189C10.828 23.8832 10.766 23.8336 10.7159 23.7732C9.65494 22.2923 8.60405 20.8042 7.56325 19.3088C7.44297 19.1395 7.35725 18.9481 7.31101 18.7457C7.26476 18.5432 7.25889 18.3336 7.29374 18.1289C7.32858 17.9241 7.40346 17.7283 7.51408 17.5525C7.6247 17.3767 7.76889 17.2245 7.93841 17.1045C8.65122 16.6004 9.60097 16.7583 10.1486 17.4738C10.3059 17.6798 10.4553 17.8917 10.6093 18.101L10.6514 18.0708ZM12.855 16.6715V14.6653C12.855 13.6557 12.8517 12.646 12.855 11.6377C12.855 11.3336 12.7589 11.0895 12.491 10.9335C11.9882 10.6419 11.4083 11.0078 11.4077 11.6193C11.4077 14.123 11.4077 16.6265 11.4077 19.1298C11.4077 19.3595 11.4143 19.5905 11.1444 19.6767C10.8745 19.7629 10.7495 19.5582 10.6179 19.3753C10.2782 18.902 9.94849 18.4209 9.58847 17.9641C9.45708 17.7993 9.28518 17.6714 9.08957 17.5929C8.75455 17.4665 8.38268 17.6186 8.17733 17.9049C7.95684 18.2123 7.95223 18.5795 8.18589 18.9152C9.16087 20.3158 10.1402 21.7131 11.124 23.1071C11.1583 23.1481 11.2007 23.1815 11.2485 23.2054C11.2962 23.2293 11.3484 23.2431 11.4017 23.246C13.4123 23.2539 15.4232 23.2539 17.4346 23.246C17.5737 23.2459 17.7116 23.2212 17.842 23.173C18.2567 23.0143 19.1281 21.8336 19.1334 21.3959C19.1459 20.2388 19.1439 19.0811 19.1334 17.924C19.1372 17.7695 19.0838 17.6191 18.9834 17.5017C18.8831 17.3842 18.7429 17.3079 18.5897 17.2875C18.3613 17.2746 18.1324 17.2733 17.9039 17.2836V18.596H17.1799C17.1759 18.5052 17.1687 18.4249 17.1687 18.3452C17.1687 17.8608 17.172 17.3764 17.1687 16.892C17.1641 16.503 16.941 16.1969 16.5823 16.1508C16.2966 16.1133 16.0018 16.1429 15.7187 16.1429V17.7318H14.9947V17.4475C14.9947 17.0124 15 16.5773 14.9947 16.1423C14.9875 15.7217 14.7492 15.3828 14.384 15.3255C14.1385 15.2873 13.8818 15.3182 13.5941 15.3182V16.6728L12.855 16.6715ZM13.5876 12.5842C13.6223 12.5937 13.6577 12.6005 13.6935 12.6046C14.0134 12.6046 14.3333 12.6098 14.6532 12.6046C15.1935 12.5987 15.5575 12.2544 15.5608 11.716C15.5682 10.3369 15.5682 8.95827 15.5608 7.58004C15.5575 7.0456 15.1896 6.69216 14.6512 6.6915C12.8873 6.68755 11.1231 6.68755 9.35876 6.6915C8.80655 6.6915 8.45047 7.04626 8.43731 7.59716C8.43007 7.96639 8.43731 8.33563 8.43731 8.70487C8.43731 9.69806 8.43731 10.6906 8.43731 11.6838C8.43731 12.161 8.7144 12.548 9.14222 12.5842C9.63651 12.6256 10.1367 12.5934 10.6613 12.5934C10.6613 12.286 10.6613 11.9931 10.6613 11.6996C10.6679 10.8472 11.2971 10.1956 12.1172 10.1917C12.9373 10.1877 13.5764 10.8374 13.5862 11.6871C13.5909 11.9813 13.5876 12.2755 13.5876 12.5842ZM14.7433 5.94249C14.8894 4.62614 14.5834 3.54804 13.427 2.82865C12.9522 2.53597 12.3991 2.39583 11.8422 2.42714C11.2854 2.45844 10.7515 2.65967 10.3125 3.00373C9.34297 3.76392 9.10997 4.77752 9.26991 5.94249H14.7433ZM4.70741 3.29332C4.95656 3.29253 5.19987 3.21775 5.40646 3.07848C5.61306 2.93921 5.77364 2.74172 5.86783 2.51105C5.96202 2.28039 5.98558 2.02695 5.93553 1.78287C5.88548 1.5388 5.76406 1.31509 5.58669 1.14012C5.40931 0.965144 5.18396 0.846795 4.93922 0.800079C4.69449 0.753363 4.44139 0.780386 4.21204 0.877719C3.98268 0.975053 3.7874 1.13831 3.65096 1.34679C3.51452 1.55527 3.44308 1.79957 3.44568 2.04871C3.44933 2.38064 3.58397 2.69768 3.82029 2.9308C4.05661 3.16391 4.37546 3.29421 4.70741 3.29332ZM20.5392 2.04279C20.5426 1.71123 20.4141 1.39192 20.1821 1.15507C19.95 0.918219 19.6334 0.783214 19.3019 0.77974C18.9683 0.775115 18.6465 0.903194 18.4074 1.1358C18.1682 1.36841 18.0313 1.68649 18.0266 2.02008C18.022 2.35366 18.1501 2.67542 18.3827 2.91457C18.6153 3.15372 18.9334 3.29067 19.267 3.2953C19.4334 3.29819 19.5986 3.26785 19.7531 3.20605C19.9076 3.14425 20.0482 3.05224 20.1667 2.93541C20.2852 2.81858 20.3792 2.67927 20.4432 2.52566C20.5071 2.37205 20.5398 2.20721 20.5392 2.04081V2.04279ZM3.28772 9.91526C3.29334 9.66481 3.22405 9.41838 3.08872 9.20757C2.95339 8.99675 2.75819 8.83115 2.52814 8.73198C2.29809 8.63282 2.04366 8.60461 1.79747 8.65097C1.55129 8.69734 1.32455 8.81616 1.14633 8.99222C0.96811 9.16827 0.846521 9.39353 0.797148 9.63913C0.747775 9.88474 0.772868 10.1395 0.869209 10.3707C0.965551 10.602 1.12875 10.7992 1.3379 10.9371C1.54704 11.075 1.7926 11.1473 2.0431 11.1447C2.37012 11.1432 2.68355 11.0137 2.9162 10.7839C3.14885 10.554 3.28222 10.2422 3.28772 9.91526ZM20.7156 9.88498C20.7118 10.2165 20.8397 10.5361 21.0714 10.7733C21.3031 11.0105 21.6195 11.146 21.951 11.15C22.1163 11.1509 22.2801 11.1193 22.4331 11.0569C22.5862 10.9945 22.7254 10.9025 22.8429 10.7863C22.9604 10.6701 23.0539 10.5319 23.1179 10.3795C23.182 10.2272 23.2155 10.0637 23.2164 9.89848C23.2173 9.73322 23.1856 9.5694 23.1232 9.41637C23.0608 9.26334 22.9689 9.1241 22.8527 9.0066C22.7365 8.8891 22.5982 8.79565 22.4459 8.73157C22.2936 8.66749 22.1301 8.63404 21.9649 8.63313C21.6333 8.63434 21.3158 8.76667 21.0815 9.00121C20.8472 9.23575 20.7152 9.55347 20.7143 9.88498H20.7156Z" fill="white" fillOpacity="0.2"/>
<defs>
<linearGradient id="paint0_linear_39_1505" x1="4.97983" y1="7.16273" x2="16.9318" y2="23.1357" gradientUnits="userSpaceOnUse">
<stop stopColor="#182F59"/>
<stop offset="1" stopColor="#020F26"/>
</linearGradient>
<radialGradient id="paint1_angular_39_1505" cx="0" cy="0" r="1" gradientUnits="userSpaceOnUse" gradientTransform="translate(16.9452 16.5263) rotate(-137.268) scale(18.738 18.7367)">
<stop stopColor="#4C576B" stopOpacity="0.5"/>
<stop offset="1" stopOpacity="0.7"/>
</radialGradient>
</defs>
</svg>
