<svg width="25" height="24" viewBox="0 0 25 24" fill="none" xmlns="http://www.w3.org/2000/svg">
<path fillRule="evenodd" clipRule="evenodd" d="M24.5 10.8837V3.06977C24.5 2.256 24.1763 1.4746 23.6014 0.898605C23.0254 0.323721 22.244 0 21.4302 0C17.1527 0 7.84735 0 3.56977 0C2.756 0 1.9746 0.323721 1.3986 0.898605C0.823721 1.4746 0.5 2.256 0.5 3.06977C0.5 6.93544 0.5 14.832 0.5 18.6977C0.5 20.3933 1.87414 21.7674 3.56977 21.7674H10.8256C11.2877 21.7674 11.6628 21.3924 11.6628 20.9302C11.6628 20.4681 11.2877 20.093 10.8256 20.093H3.56977C2.79954 20.093 2.17442 19.4679 2.17442 18.6977V3.06977C2.17442 2.69916 2.32177 2.3453 2.58298 2.08298C2.8453 1.82177 3.19916 1.67442 3.56977 1.67442H21.4302C21.8008 1.67442 22.1547 1.82177 22.417 2.08298C22.6782 2.3453 22.8256 2.69916 22.8256 3.06977V10.8837C22.8256 11.3459 23.2007 11.7209 23.6628 11.7209C24.1249 11.7209 24.5 11.3459 24.5 10.8837Z" fill="white"/>
<path fillRule="evenodd" clipRule="evenodd" d="M24.5 10.8837V3.06977C24.5 2.256 24.1763 1.4746 23.6014 0.898605C23.0254 0.323721 22.244 0 21.4302 0C17.1527 0 7.84735 0 3.56977 0C2.756 0 1.9746 0.323721 1.3986 0.898605C0.823721 1.4746 0.5 2.256 0.5 3.06977C0.5 6.93544 0.5 14.832 0.5 18.6977C0.5 20.3933 1.87414 21.7674 3.56977 21.7674H10.8256C11.2877 21.7674 11.6628 21.3924 11.6628 20.9302C11.6628 20.4681 11.2877 20.093 10.8256 20.093H3.56977C2.79954 20.093 2.17442 19.4679 2.17442 18.6977V3.06977C2.17442 2.69916 2.32177 2.3453 2.58298 2.08298C2.8453 1.82177 3.19916 1.67442 3.56977 1.67442H21.4302C21.8008 1.67442 22.1547 1.82177 22.417 2.08298C22.6782 2.3453 22.8256 2.69916 22.8256 3.06977V10.8837C22.8256 11.3459 23.2007 11.7209 23.6628 11.7209C24.1249 11.7209 24.5 11.3459 24.5 10.8837Z" fill="white" fillOpacity="0.6"/>
<path fillRule="evenodd" clipRule="evenodd" d="M24.5 10.8837V3.06977C24.5 2.256 24.1763 1.4746 23.6014 0.898605C23.0254 0.323721 22.244 0 21.4302 0C17.1527 0 7.84735 0 3.56977 0C2.756 0 1.9746 0.323721 1.3986 0.898605C0.823721 1.4746 0.5 2.256 0.5 3.06977C0.5 6.93544 0.5 14.832 0.5 18.6977C0.5 20.3933 1.87414 21.7674 3.56977 21.7674H10.8256C11.2877 21.7674 11.6628 21.3924 11.6628 20.9302C11.6628 20.4681 11.2877 20.093 10.8256 20.093H3.56977C2.79954 20.093 2.17442 19.4679 2.17442 18.6977V3.06977C2.17442 2.69916 2.32177 2.3453 2.58298 2.08298C2.8453 1.82177 3.19916 1.67442 3.56977 1.67442H21.4302C21.8008 1.67442 22.1547 1.82177 22.417 2.08298C22.6782 2.3453 22.8256 2.69916 22.8256 3.06977V10.8837C22.8256 11.3459 23.2007 11.7209 23.6628 11.7209C24.1249 11.7209 24.5 11.3459 24.5 10.8837Z" fill="white" fillOpacity="0.2"/>
<path fillRule="evenodd" clipRule="evenodd" d="M1.33721 7.25581H23.6628C24.1249 7.25581 24.5 6.88074 24.5 6.4186C24.5 5.95647 24.1249 5.5814 23.6628 5.5814H1.33721C0.87507 5.5814 0.5 5.95647 0.5 6.4186C0.5 6.88074 0.87507 7.25581 1.33721 7.25581Z" fill="url(#paint2_linear_39_1496)"/>
<path fillRule="evenodd" clipRule="evenodd" d="M1.33721 7.25581H23.6628C24.1249 7.25581 24.5 6.88074 24.5 6.4186C24.5 5.95647 24.1249 5.5814 23.6628 5.5814H1.33721C0.87507 5.5814 0.5 5.95647 0.5 6.4186C0.5 6.88074 0.87507 7.25581 1.33721 7.25581Z" fill="white" fillOpacity="0.6"/>
<path fillRule="evenodd" clipRule="evenodd" d="M1.33721 7.25581H23.6628C24.1249 7.25581 24.5 6.88074 24.5 6.4186C24.5 5.95647 24.1249 5.5814 23.6628 5.5814H1.33721C0.87507 5.5814 0.5 5.95647 0.5 6.4186C0.5 6.88074 0.87507 7.25581 1.33721 7.25581Z" fill="white" fillOpacity="0.2"/>
<path fillRule="evenodd" clipRule="evenodd" d="M8.59302 4.46512H9.7093C10.1714 4.46512 10.5465 4.09005 10.5465 3.62791C10.5465 3.16577 10.1714 2.7907 9.7093 2.7907H8.59302C8.13088 2.7907 7.75581 3.16577 7.75581 3.62791C7.75581 4.09005 8.13088 4.46512 8.59302 4.46512Z" fill="white"/>
<path fillRule="evenodd" clipRule="evenodd" d="M8.59302 4.46512H9.7093C10.1714 4.46512 10.5465 4.09005 10.5465 3.62791C10.5465 3.16577 10.1714 2.7907 9.7093 2.7907H8.59302C8.13088 2.7907 7.75581 3.16577 7.75581 3.62791C7.75581 4.09005 8.13088 4.46512 8.59302 4.46512Z" fill="white" fillOpacity="0.6"/>
<path fillRule="evenodd" clipRule="evenodd" d="M8.59302 4.46512H9.7093C10.1714 4.46512 10.5465 4.09005 10.5465 3.62791C10.5465 3.16577 10.1714 2.7907 9.7093 2.7907H8.59302C8.13088 2.7907 7.75581 3.16577 7.75581 3.62791C7.75581 4.09005 8.13088 4.46512 8.59302 4.46512Z" fill="white" fillOpacity="0.2"/>
<path fillRule="evenodd" clipRule="evenodd" d="M4.68605 4.46512H5.80233C6.26447 4.46512 6.63954 4.09005 6.63954 3.62791C6.63954 3.16577 6.26447 2.7907 5.80233 2.7907H4.68605C4.22391 2.7907 3.84884 3.16577 3.84884 3.62791C3.84884 4.09005 4.22391 4.46512 4.68605 4.46512Z" fill="white"/>
<path fillRule="evenodd" clipRule="evenodd" d="M4.68605 4.46512H5.80233C6.26447 4.46512 6.63954 4.09005 6.63954 3.62791C6.63954 3.16577 6.26447 2.7907 5.80233 2.7907H4.68605C4.22391 2.7907 3.84884 3.16577 3.84884 3.62791C3.84884 4.09005 4.22391 4.46512 4.68605 4.46512Z" fill="white" fillOpacity="0.6"/>
<path fillRule="evenodd" clipRule="evenodd" d="M4.68605 4.46512H5.80233C6.26447 4.46512 6.63954 4.09005 6.63954 3.62791C6.63954 3.16577 6.26447 2.7907 5.80233 2.7907H4.68605C4.22391 2.7907 3.84884 3.16577 3.84884 3.62791C3.84884 4.09005 4.22391 4.46512 4.68605 4.46512Z" fill="white" fillOpacity="0.2"/>
<path fillRule="evenodd" clipRule="evenodd" d="M19.5861 12.7713L13.5593 18.7993C13.4343 18.9232 13.3528 19.0839 13.3249 19.2569L12.711 23.0277C12.6674 23.2945 12.7545 23.5647 12.9454 23.7544C13.1352 23.9453 13.4053 24.0324 13.671 23.9888L17.4429 23.3749C17.6159 23.347 17.7755 23.2655 17.9006 23.1405L23.9273 17.1137C24.6909 16.3501 24.6909 15.1133 23.9273 14.3509L22.3489 12.7713C21.5865 12.0089 20.3497 12.0089 19.5861 12.7713ZM20.7705 13.9557C20.8799 13.8474 21.0563 13.8474 21.1657 13.9557L22.7441 15.5341C22.8524 15.6435 22.8524 15.8199 22.7441 15.9293L16.9071 21.7663L14.5506 22.1492L14.9335 19.7927L20.7705 13.9557Z" fill="white"/>
<path fillRule="evenodd" clipRule="evenodd" d="M19.5861 12.7713L13.5593 18.7993C13.4343 18.9232 13.3528 19.0839 13.3249 19.2569L12.711 23.0277C12.6674 23.2945 12.7545 23.5647 12.9454 23.7544C13.1352 23.9453 13.4053 24.0324 13.671 23.9888L17.4429 23.3749C17.6159 23.347 17.7755 23.2655 17.9006 23.1405L23.9273 17.1137C24.6909 16.3501 24.6909 15.1133 23.9273 14.3509L22.3489 12.7713C21.5865 12.0089 20.3497 12.0089 19.5861 12.7713ZM20.7705 13.9557C20.8799 13.8474 21.0563 13.8474 21.1657 13.9557L22.7441 15.5341C22.8524 15.6435 22.8524 15.8199 22.7441 15.9293L16.9071 21.7663L14.5506 22.1492L14.9335 19.7927L20.7705 13.9557Z" fill="white" fillOpacity="0.6"/>
<path fillRule="evenodd" clipRule="evenodd" d="M19.5861 12.7713L13.5593 18.7993C13.4343 18.9232 13.3528 19.0839 13.3249 19.2569L12.711 23.0277C12.6674 23.2945 12.7545 23.5647 12.9454 23.7544C13.1352 23.9453 13.4053 24.0324 13.671 23.9888L17.4429 23.3749C17.6159 23.347 17.7755 23.2655 17.9006 23.1405L23.9273 17.1137C24.6909 16.3501 24.6909 15.1133 23.9273 14.3509L22.3489 12.7713C21.5865 12.0089 20.3497 12.0089 19.5861 12.7713ZM20.7705 13.9557C20.8799 13.8474 21.0563 13.8474 21.1657 13.9557L22.7441 15.5341C22.8524 15.6435 22.8524 15.8199 22.7441 15.9293L16.9071 21.7663L14.5506 22.1492L14.9335 19.7927L20.7705 13.9557Z" fill="white" fillOpacity="0.2"/>
<path fillRule="evenodd" clipRule="evenodd" d="M22.321 17.5356L19.1642 14.3788C18.8371 14.0517 18.3069 14.0517 17.9798 14.3788C17.6527 14.7059 17.6527 15.2361 17.9798 15.562L21.1367 18.72C21.4637 19.0471 21.994 19.0471 22.321 18.72C22.6481 18.3929 22.6481 17.8627 22.321 17.5356Z" fill="white"/>
<path fillRule="evenodd" clipRule="evenodd" d="M22.321 17.5356L19.1642 14.3788C18.8371 14.0517 18.3069 14.0517 17.9798 14.3788C17.6527 14.7059 17.6527 15.2361 17.9798 15.562L21.1367 18.72C21.4637 19.0471 21.994 19.0471 22.321 18.72C22.6481 18.3929 22.6481 17.8627 22.321 17.5356Z" fill="white" fillOpacity="0.6"/>
<path fillRule="evenodd" clipRule="evenodd" d="M22.321 17.5356L19.1642 14.3788C18.8371 14.0517 18.3069 14.0517 17.9798 14.3788C17.6527 14.7059 17.6527 15.2361 17.9798 15.562L21.1367 18.72C21.4637 19.0471 21.994 19.0471 22.321 18.72C22.6481 18.3929 22.6481 17.8627 22.321 17.5356Z" fill="white" fillOpacity="0.2"/>
<defs>
<linearGradient id="paint0_linear_39_1496" x1="5.47983" y1="7.15846" x2="17.4451" y2="23.1354" gradientUnits="userSpaceOnUse">
<stop stopColor="#182F59"/>
<stop offset="1" stopColor="#020F26"/>
</linearGradient>
<radialGradient id="paint1_angular_39_1496" cx="0" cy="0" r="1" gradientUnits="userSpaceOnUse" gradientTransform="translate(17.4452 16.5302) rotate(-137.243) scale(18.7455 18.7455)">
<stop stopColor="#4C576B" stopOpacity="0.5"/>
<stop offset="1" stopOpacity="0.7"/>
</radialGradient>
<linearGradient id="paint2_linear_39_1496" x1="5.47983" y1="7.15846" x2="17.4451" y2="23.1354" gradientUnits="userSpaceOnUse">
<stop stopColor="#182F59"/>
<stop offset="1" stopColor="#020F26"/>
</linearGradient>
<radialGradient id="paint3_angular_39_1496" cx="0" cy="0" r="1" gradientUnits="userSpaceOnUse" gradientTransform="translate(17.4452 16.5302) rotate(-137.243) scale(18.7455 18.7455)">
<stop stopColor="#4C576B" stopOpacity="0.5"/>
<stop offset="1" stopOpacity="0.7"/>
</radialGradient>
<linearGradient id="paint4_linear_39_1496" x1="5.47983" y1="7.15846" x2="17.4451" y2="23.1354" gradientUnits="userSpaceOnUse">
<stop stopColor="#182F59"/>
<stop offset="1" stopColor="#020F26"/>
</linearGradient>
<radialGradient id="paint5_angular_39_1496" cx="0" cy="0" r="1" gradientUnits="userSpaceOnUse" gradientTransform="translate(17.4452 16.5302) rotate(-137.243) scale(18.7455 18.7455)">
<stop stopColor="#4C576B" stopOpacity="0.5"/>
<stop offset="1" stopOpacity="0.7"/>
</radialGradient>
<linearGradient id="paint6_linear_39_1496" x1="5.47983" y1="7.15846" x2="17.4451" y2="23.1354" gradientUnits="userSpaceOnUse">
<stop stopColor="#182F59"/>
<stop offset="1" stopColor="#020F26"/>
</linearGradient>
<radialGradient id="paint7_angular_39_1496" cx="0" cy="0" r="1" gradientUnits="userSpaceOnUse" gradientTransform="translate(17.4452 16.5302) rotate(-137.243) scale(18.7455 18.7455)">
<stop stopColor="#4C576B" stopOpacity="0.5"/>
<stop offset="1" stopOpacity="0.7"/>
</radialGradient>
<linearGradient id="paint8_linear_39_1496" x1="5.47983" y1="7.15846" x2="17.4451" y2="23.1354" gradientUnits="userSpaceOnUse">
<stop stopColor="#182F59"/>
<stop offset="1" stopColor="#020F26"/>
</linearGradient>
<radialGradient id="paint9_angular_39_1496" cx="0" cy="0" r="1" gradientUnits="userSpaceOnUse" gradientTransform="translate(17.4452 16.5302) rotate(-137.243) scale(18.7455 18.7455)">
<stop stopColor="#4C576B" stopOpacity="0.5"/>
<stop offset="1" stopOpacity="0.7"/>
</radialGradient>
<linearGradient id="paint10_linear_39_1496" x1="5.47983" y1="7.15846" x2="17.4451" y2="23.1354" gradientUnits="userSpaceOnUse">
<stop stopColor="#182F59"/>
<stop offset="1" stopColor="#020F26"/>
</linearGradient>
<radialGradient id="paint11_angular_39_1496" cx="0" cy="0" r="1" gradientUnits="userSpaceOnUse" gradientTransform="translate(17.4452 16.5302) rotate(-137.243) scale(18.7455 18.7455)">
<stop stopColor="#4C576B" stopOpacity="0.5"/>
<stop offset="1" stopOpacity="0.7"/>
</radialGradient>
</defs>
</svg>
