<svg xmlns="http://www.w3.org/2000/svg" width="25" height="24" viewBox="0 0 25 24" fill="none">
  <path fill-rule="evenodd" clip-rule="evenodd" d="M24.5 10.8838V3.06989C24.5 2.25612 24.1763 1.47473 23.6014 0.898727C23.0254 0.323843 22.244 0.00012207 21.4302 0.00012207C17.1527 0.00012207 7.84735 0.00012207 3.56977 0.00012207C2.756 0.00012207 1.9746 0.323843 1.3986 0.898727C0.823721 1.47473 0.5 2.25612 0.5 3.06989C0.5 6.93556 0.5 14.8321 0.5 18.6978C0.5 20.3934 1.87414 21.7676 3.56977 21.7676H10.8256C11.2877 21.7676 11.6628 21.3925 11.6628 20.9304C11.6628 20.4682 11.2877 20.0931 10.8256 20.0931H3.56977C2.79954 20.0931 2.17442 19.468 2.17442 18.6978V3.06989C2.17442 2.69929 2.32177 2.34542 2.58298 2.0831C2.8453 1.82189 3.19916 1.67454 3.56977 1.67454H21.4302C21.8008 1.67454 22.1547 1.82189 22.417 2.0831C22.6782 2.34542 22.8256 2.69929 22.8256 3.06989V10.8838C22.8256 11.346 23.2007 11.7211 23.6628 11.7211C24.1249 11.7211 24.5 11.346 24.5 10.8838Z" fill="url(#paint0_linear_523_4619)"/>
  <path fill-rule="evenodd" clip-rule="evenodd" d="M24.5 10.8838V3.06989C24.5 2.25612 24.1763 1.47473 23.6014 0.898727C23.0254 0.323843 22.244 0.00012207 21.4302 0.00012207C17.1527 0.00012207 7.84735 0.00012207 3.56977 0.00012207C2.756 0.00012207 1.9746 0.323843 1.3986 0.898727C0.823721 1.47473 0.5 2.25612 0.5 3.06989C0.5 6.93556 0.5 14.8321 0.5 18.6978C0.5 20.3934 1.87414 21.7676 3.56977 21.7676H10.8256C11.2877 21.7676 11.6628 21.3925 11.6628 20.9304C11.6628 20.4682 11.2877 20.0931 10.8256 20.0931H3.56977C2.79954 20.0931 2.17442 19.468 2.17442 18.6978V3.06989C2.17442 2.69929 2.32177 2.34542 2.58298 2.0831C2.8453 1.82189 3.19916 1.67454 3.56977 1.67454H21.4302C21.8008 1.67454 22.1547 1.82189 22.417 2.0831C22.6782 2.34542 22.8256 2.69929 22.8256 3.06989V10.8838C22.8256 11.346 23.2007 11.7211 23.6628 11.7211C24.1249 11.7211 24.5 11.346 24.5 10.8838Z" fill="#04C4C4" fill-opacity="0.6"/>
  <path fill-rule="evenodd" clip-rule="evenodd" d="M24.5 10.8838V3.06989C24.5 2.25612 24.1763 1.47473 23.6014 0.898727C23.0254 0.323843 22.244 0.00012207 21.4302 0.00012207C17.1527 0.00012207 7.84735 0.00012207 3.56977 0.00012207C2.756 0.00012207 1.9746 0.323843 1.3986 0.898727C0.823721 1.47473 0.5 2.25612 0.5 3.06989C0.5 6.93556 0.5 14.8321 0.5 18.6978C0.5 20.3934 1.87414 21.7676 3.56977 21.7676H10.8256C11.2877 21.7676 11.6628 21.3925 11.6628 20.9304C11.6628 20.4682 11.2877 20.0931 10.8256 20.0931H3.56977C2.79954 20.0931 2.17442 19.468 2.17442 18.6978V3.06989C2.17442 2.69929 2.32177 2.34542 2.58298 2.0831C2.8453 1.82189 3.19916 1.67454 3.56977 1.67454H21.4302C21.8008 1.67454 22.1547 1.82189 22.417 2.0831C22.6782 2.34542 22.8256 2.69929 22.8256 3.06989V10.8838C22.8256 11.346 23.2007 11.7211 23.6628 11.7211C24.1249 11.7211 24.5 11.346 24.5 10.8838Z" fill="url(#paint1_angular_523_4619)" fill-opacity="0.2"/>
  <path fill-rule="evenodd" clip-rule="evenodd" d="M1.33721 7.25594H23.6628C24.1249 7.25594 24.5 6.88087 24.5 6.41873C24.5 5.95659 24.1249 5.58152 23.6628 5.58152H1.33721C0.87507 5.58152 0.5 5.95659 0.5 6.41873C0.5 6.88087 0.87507 7.25594 1.33721 7.25594Z" fill="url(#paint2_linear_523_4619)"/>
  <path fill-rule="evenodd" clip-rule="evenodd" d="M1.33721 7.25594H23.6628C24.1249 7.25594 24.5 6.88087 24.5 6.41873C24.5 5.95659 24.1249 5.58152 23.6628 5.58152H1.33721C0.87507 5.58152 0.5 5.95659 0.5 6.41873C0.5 6.88087 0.87507 7.25594 1.33721 7.25594Z" fill="#04C4C4" fill-opacity="0.6"/>
  <path fill-rule="evenodd" clip-rule="evenodd" d="M1.33721 7.25594H23.6628C24.1249 7.25594 24.5 6.88087 24.5 6.41873C24.5 5.95659 24.1249 5.58152 23.6628 5.58152H1.33721C0.87507 5.58152 0.5 5.95659 0.5 6.41873C0.5 6.88087 0.87507 7.25594 1.33721 7.25594Z" fill="url(#paint3_angular_523_4619)" fill-opacity="0.2"/>
  <path fill-rule="evenodd" clip-rule="evenodd" d="M8.59302 4.46524H9.7093C10.1714 4.46524 10.5465 4.09017 10.5465 3.62803C10.5465 3.16589 10.1714 2.79082 9.7093 2.79082H8.59302C8.13088 2.79082 7.75581 3.16589 7.75581 3.62803C7.75581 4.09017 8.13088 4.46524 8.59302 4.46524Z" fill="url(#paint4_linear_523_4619)"/>
  <path fill-rule="evenodd" clip-rule="evenodd" d="M8.59302 4.46524H9.7093C10.1714 4.46524 10.5465 4.09017 10.5465 3.62803C10.5465 3.16589 10.1714 2.79082 9.7093 2.79082H8.59302C8.13088 2.79082 7.75581 3.16589 7.75581 3.62803C7.75581 4.09017 8.13088 4.46524 8.59302 4.46524Z" fill="#04C4C4" fill-opacity="0.6"/>
  <path fill-rule="evenodd" clip-rule="evenodd" d="M8.59302 4.46524H9.7093C10.1714 4.46524 10.5465 4.09017 10.5465 3.62803C10.5465 3.16589 10.1714 2.79082 9.7093 2.79082H8.59302C8.13088 2.79082 7.75581 3.16589 7.75581 3.62803C7.75581 4.09017 8.13088 4.46524 8.59302 4.46524Z" fill="url(#paint5_angular_523_4619)" fill-opacity="0.2"/>
  <path fill-rule="evenodd" clip-rule="evenodd" d="M4.68605 4.46524H5.80233C6.26447 4.46524 6.63953 4.09017 6.63953 3.62803C6.63953 3.16589 6.26447 2.79082 5.80233 2.79082H4.68605C4.22391 2.79082 3.84884 3.16589 3.84884 3.62803C3.84884 4.09017 4.22391 4.46524 4.68605 4.46524Z" fill="url(#paint6_linear_523_4619)"/>
  <path fill-rule="evenodd" clip-rule="evenodd" d="M4.68605 4.46524H5.80233C6.26447 4.46524 6.63953 4.09017 6.63953 3.62803C6.63953 3.16589 6.26447 2.79082 5.80233 2.79082H4.68605C4.22391 2.79082 3.84884 3.16589 3.84884 3.62803C3.84884 4.09017 4.22391 4.46524 4.68605 4.46524Z" fill="#04C4C4" fill-opacity="0.6"/>
  <path fill-rule="evenodd" clip-rule="evenodd" d="M4.68605 4.46524H5.80233C6.26447 4.46524 6.63953 4.09017 6.63953 3.62803C6.63953 3.16589 6.26447 2.79082 5.80233 2.79082H4.68605C4.22391 2.79082 3.84884 3.16589 3.84884 3.62803C3.84884 4.09017 4.22391 4.46524 4.68605 4.46524Z" fill="url(#paint7_angular_523_4619)" fill-opacity="0.2"/>
  <path fill-rule="evenodd" clip-rule="evenodd" d="M19.5861 12.7715L13.5594 18.7994C13.4343 18.9233 13.3528 19.084 13.3249 19.2571L12.711 23.0278C12.6674 23.2946 12.7545 23.5648 12.9454 23.7545C13.1352 23.9454 13.4053 24.0325 13.671 23.989L17.4429 23.375C17.6159 23.3471 17.7755 23.2656 17.9006 23.1406L23.9273 17.1138C24.6909 16.3503 24.6909 15.1134 23.9273 14.351L22.3489 12.7715C21.5865 12.0091 20.3497 12.0091 19.5861 12.7715ZM20.7705 13.9558C20.8799 13.8476 21.0563 13.8476 21.1657 13.9558L22.7441 15.5343C22.8524 15.6437 22.8524 15.82 22.7441 15.9294L16.9071 21.7664L14.5506 22.1493L14.9335 19.7929L20.7705 13.9558Z" fill="url(#paint8_linear_523_4619)"/>
  <path fill-rule="evenodd" clip-rule="evenodd" d="M19.5861 12.7715L13.5594 18.7994C13.4343 18.9233 13.3528 19.084 13.3249 19.2571L12.711 23.0278C12.6674 23.2946 12.7545 23.5648 12.9454 23.7545C13.1352 23.9454 13.4053 24.0325 13.671 23.989L17.4429 23.375C17.6159 23.3471 17.7755 23.2656 17.9006 23.1406L23.9273 17.1138C24.6909 16.3503 24.6909 15.1134 23.9273 14.351L22.3489 12.7715C21.5865 12.0091 20.3497 12.0091 19.5861 12.7715ZM20.7705 13.9558C20.8799 13.8476 21.0563 13.8476 21.1657 13.9558L22.7441 15.5343C22.8524 15.6437 22.8524 15.82 22.7441 15.9294L16.9071 21.7664L14.5506 22.1493L14.9335 19.7929L20.7705 13.9558Z" fill="#04C4C4" fill-opacity="0.6"/>
  <path fill-rule="evenodd" clip-rule="evenodd" d="M19.5861 12.7715L13.5594 18.7994C13.4343 18.9233 13.3528 19.084 13.3249 19.2571L12.711 23.0278C12.6674 23.2946 12.7545 23.5648 12.9454 23.7545C13.1352 23.9454 13.4053 24.0325 13.671 23.989L17.4429 23.375C17.6159 23.3471 17.7755 23.2656 17.9006 23.1406L23.9273 17.1138C24.6909 16.3503 24.6909 15.1134 23.9273 14.351L22.3489 12.7715C21.5865 12.0091 20.3497 12.0091 19.5861 12.7715ZM20.7705 13.9558C20.8799 13.8476 21.0563 13.8476 21.1657 13.9558L22.7441 15.5343C22.8524 15.6437 22.8524 15.82 22.7441 15.9294L16.9071 21.7664L14.5506 22.1493L14.9335 19.7929L20.7705 13.9558Z" fill="url(#paint9_angular_523_4619)" fill-opacity="0.2"/>
  <path fill-rule="evenodd" clip-rule="evenodd" d="M22.321 17.5358L19.1642 14.3789C18.8371 14.0518 18.3069 14.0518 17.9798 14.3789C17.6527 14.706 17.6527 15.2362 17.9798 15.5622L21.1367 18.7201C21.4637 19.0472 21.994 19.0472 22.321 18.7201C22.6481 18.3931 22.6481 17.8628 22.321 17.5358Z" fill="url(#paint10_linear_523_4619)"/>
  <path fill-rule="evenodd" clip-rule="evenodd" d="M22.321 17.5358L19.1642 14.3789C18.8371 14.0518 18.3069 14.0518 17.9798 14.3789C17.6527 14.706 17.6527 15.2362 17.9798 15.5622L21.1367 18.7201C21.4637 19.0472 21.994 19.0472 22.321 18.7201C22.6481 18.3931 22.6481 17.8628 22.321 17.5358Z" fill="#04C4C4" fill-opacity="0.6"/>
  <path fill-rule="evenodd" clip-rule="evenodd" d="M22.321 17.5358L19.1642 14.3789C18.8371 14.0518 18.3069 14.0518 17.9798 14.3789C17.6527 14.706 17.6527 15.2362 17.9798 15.5622L21.1367 18.7201C21.4637 19.0472 21.994 19.0472 22.321 18.7201C22.6481 18.3931 22.6481 17.8628 22.321 17.5358Z" fill="url(#paint11_angular_523_4619)" fill-opacity="0.2"/>
  <defs>
    <linearGradient id="paint0_linear_523_4619" x1="5.47983" y1="7.15858" x2="17.4451" y2="23.1355" gradientUnits="userSpaceOnUse">
      <stop stopColor="#182F59"/>
      <stop offset="1" stopColor="#020F26"/>
    </linearGradient>
    <radialGradient id="paint1_angular_523_4619" cx="0" cy="0" r="1" gradientUnits="userSpaceOnUse" gradientTransform="translate(17.4452 16.5303) rotate(-137.243) scale(18.7455 18.7455)">
      <stop stopColor="#4C576B" stopOpacity="0.5"/>
      <stop offset="1" stopOpacity="0.7"/>
    </radialGradient>
    <linearGradient id="paint2_linear_523_4619" x1="5.47983" y1="7.15858" x2="17.4451" y2="23.1355" gradientUnits="userSpaceOnUse">
      <stop stopColor="#182F59"/>
      <stop offset="1" stopColor="#020F26"/>
    </linearGradient>
    <radialGradient id="paint3_angular_523_4619" cx="0" cy="0" r="1" gradientUnits="userSpaceOnUse" gradientTransform="translate(17.4452 16.5303) rotate(-137.243) scale(18.7455 18.7455)">
      <stop stopColor="#4C576B" stopOpacity="0.5"/>
      <stop offset="1" stopOpacity="0.7"/>
    </radialGradient>
    <linearGradient id="paint4_linear_523_4619" x1="5.47983" y1="7.15858" x2="17.4451" y2="23.1355" gradientUnits="userSpaceOnUse">
      <stop stopColor="#182F59"/>
      <stop offset="1" stopColor="#020F26"/>
    </linearGradient>
    <radialGradient id="paint5_angular_523_4619" cx="0" cy="0" r="1" gradientUnits="userSpaceOnUse" gradientTransform="translate(17.4452 16.5303) rotate(-137.243) scale(18.7455 18.7455)">
      <stop stopColor="#4C576B" stopOpacity="0.5"/>
      <stop offset="1" stopOpacity="0.7"/>
    </radialGradient>
    <linearGradient id="paint6_linear_523_4619" x1="5.47983" y1="7.15858" x2="17.4451" y2="23.1355" gradientUnits="userSpaceOnUse">
      <stop stopColor="#182F59"/>
      <stop offset="1" stopColor="#020F26"/>
    </linearGradient>
    <radialGradient id="paint7_angular_523_4619" cx="0" cy="0" r="1" gradientUnits="userSpaceOnUse" gradientTransform="translate(17.4452 16.5303) rotate(-137.243) scale(18.7455 18.7455)">
      <stop stopColor="#4C576B" stopOpacity="0.5"/>
      <stop offset="1" stopOpacity="0.7"/>
    </radialGradient>
    <linearGradient id="paint8_linear_523_4619" x1="5.47983" y1="7.15858" x2="17.4451" y2="23.1355" gradientUnits="userSpaceOnUse">
      <stop stopColor="#182F59"/>
      <stop offset="1" stopColor="#020F26"/>
    </linearGradient>
    <radialGradient id="paint9_angular_523_4619" cx="0" cy="0" r="1" gradientUnits="userSpaceOnUse" gradientTransform="translate(17.4452 16.5303) rotate(-137.243) scale(18.7455 18.7455)">
      <stop stopColor="#4C576B" stopOpacity="0.5"/>
      <stop offset="1" stopOpacity="0.7"/>
    </radialGradient>
    <linearGradient id="paint10_linear_523_4619" x1="5.47983" y1="7.15858" x2="17.4451" y2="23.1355" gradientUnits="userSpaceOnUse">
      <stop stopColor="#182F59"/>
      <stop offset="1" stopColor="#020F26"/>
    </linearGradient>
    <radialGradient id="paint11_angular_523_4619" cx="0" cy="0" r="1" gradientUnits="userSpaceOnUse" gradientTransform="translate(17.4452 16.5303) rotate(-137.243) scale(18.7455 18.7455)">
      <stop stopColor="#4C576B" stopOpacity="0.5"/>
      <stop offset="1" stopOpacity="0.7"/>
    </radialGradient>
  </defs>
</svg>