<svg width="24" height="24" viewBox="0 0 24 24" fill="none" xmlns="http://www.w3.org/2000/svg">
<path d="M16.5074 23.9822C15.7937 23.9822 15.125 23.5925 14.7906 22.9572C14.7352 22.8569 14.6903 22.7346 14.6569 22.6343L11.9035 14.3972C11.6579 13.695 11.8366 12.9144 12.3716 12.3909C12.9066 11.8559 13.6757 11.6772 14.3779 11.9228L22.615 14.6762C22.7039 14.7096 22.8376 14.743 22.9714 14.8319C23.6182 15.1777 24.0194 15.9238 23.9526 16.7044C23.8857 17.4954 23.3726 18.1307 22.615 18.3762L19.5503 19.4013C19.4615 19.4347 19.405 19.4901 19.3716 19.58L18.3465 22.6447C18.101 23.3919 17.4656 23.9039 16.6746 23.9707H16.496L16.5074 23.9822ZM13.7425 13.4829C13.6537 13.4829 13.5868 13.5278 13.5534 13.5612C13.5085 13.6062 13.4416 13.7065 13.4865 13.8507L16.2399 22.0982C16.3402 22.3103 16.4855 22.2988 16.5294 22.2988C16.6516 22.2988 16.73 22.2205 16.7634 22.1097L17.7885 19.0335C17.9891 18.4431 18.4353 17.9969 19.0257 17.8078L22.0905 16.7827C22.2127 16.7493 22.2691 16.6605 22.2796 16.5487C22.2796 16.5037 22.2796 16.3595 22.1458 16.2812L13.8314 13.5058C13.8314 13.5058 13.7645 13.4839 13.731 13.4839L13.7425 13.4829Z" fill="white"/>
<path d="M13.8098 23.4805C13.721 23.3353 13.6541 23.1347 13.5977 22.9675L13.2414 21.8975C12.8955 22.12 12.5392 22.2653 12.1714 22.2987H11.7816C10.3323 22.1535 8.81715 20.259 7.9582 17.2946H11.7032L11.1463 15.6227H7.57996C7.37933 14.5078 7.25708 13.304 7.25708 12C7.25708 10.6959 7.37934 9.49214 7.57996 8.3772H16.4075C16.5862 9.34689 16.6865 10.4054 16.7085 11.5203L18.4023 12.0888V11.9999C18.4023 10.7293 18.302 9.51407 18.1128 8.37719H21.6238C22.0585 9.51407 22.3041 10.7293 22.3041 11.9999C22.3041 12.4566 22.2706 12.9143 22.2152 13.3594L22.9958 13.6154C23.1181 13.6603 23.3302 13.7272 23.5758 13.8714C23.6646 13.9163 23.7315 13.9717 23.8213 14.0271C23.9331 13.3583 24 12.6896 24 11.9989C24 5.55696 18.7618 0.183948 12.4086 0.0397656C12.3083 0.0282717 12.1745 0.0178223 12.0627 0.0178223H11.9959C11.8621 0.0178223 11.7503 0.0178223 11.7168 0.0293165H11.65C5.20585 0.229942 0 5.57995 0 12C0 18.42 5.23822 23.8149 11.5914 23.9591C11.7136 23.9706 11.8474 23.981 11.9811 23.981H12.2821C12.8725 23.9695 13.4524 23.9142 14.0323 23.8138C13.954 23.702 13.8652 23.6132 13.7983 23.5014L13.8098 23.4805ZM20.7983 6.70532H17.7555C17.3323 5.04495 16.7074 3.60713 15.9383 2.50369C17.9665 3.36157 19.6614 4.84432 20.7983 6.70532ZM11.7931 1.68969H12.1829C13.6322 1.83494 15.1473 3.72938 16.0063 6.69382H7.95928C8.81716 3.72938 10.3334 1.83387 11.7931 1.67819L11.7931 1.68969ZM8.02508 2.51517C7.25601 3.63011 6.64263 5.05642 6.21944 6.70636H3.17661C4.30199 4.8558 5.99688 3.37411 8.02508 2.51517ZM1.67191 11.9999C1.67191 10.7293 1.91747 9.51405 2.35217 8.37717H5.86313C5.674 9.51405 5.57369 10.7293 5.57369 11.9999C5.57369 13.2706 5.67401 14.4858 5.86313 15.6227H2.35217C1.91748 14.4858 1.67191 13.2706 1.67191 11.9999ZM3.16615 17.2946H6.20898C6.63217 18.9549 7.25706 20.3927 8.02612 21.4962C5.99792 20.6383 4.30303 19.1556 3.16615 17.2946Z" fill="white"/>
</svg>
