<svg xmlns="http://www.w3.org/2000/svg" width="24" height="24" viewBox="0 0 24 24" fill="none">
  <g clip-path="url(#clip0_523_4623)">
    <path d="M21.4904 7.91876C21.4904 7.10992 20.8324 6.45186 20.0235 6.45186H19.6841C19.4595 5.6399 18.7219 5.03868 17.8394 5.03868C16.7332 5.03868 15.9177 5.94865 15.9177 6.96039C15.9177 7.96479 16.7283 8.88209 17.8394 8.88209C18.7229 8.88209 19.4615 8.27942 19.6851 7.46594H20.0235C20.2733 7.46594 20.4764 7.66896 20.4764 7.91876V16.4951H3.13127V7.91876C3.13127 7.66896 3.33428 7.46594 3.58409 7.46594H3.92129C4.14547 8.27942 4.88592 8.88209 5.77194 8.88209C6.87385 8.88209 7.6934 7.97877 7.6934 6.96039C7.6934 6.02353 6.99549 5.1118 5.85643 5.04685H5.85426C4.94623 4.99613 4.15665 5.60954 3.92231 6.45186H3.58409C2.77525 6.45186 2.11719 7.10992 2.11719 7.91876V18.8959C2.11719 19.7047 2.77525 20.3628 3.58409 20.3628H9.13498L8.19223 21.9859H7.43591C7.1559 21.9859 6.92887 22.2129 6.92887 22.493C6.92887 22.773 7.1559 23 7.43591 23C9.62423 23 13.9892 23 16.1717 23C16.4517 23 16.6788 22.773 16.6788 22.493C16.6788 22.2129 16.4517 21.9859 16.1717 21.9859H15.4156L14.4727 20.3628H20.0235C20.8324 20.3628 21.4904 19.7047 21.4904 18.8959C21.4904 14.9898 21.4904 11.9216 21.4904 7.91876ZM17.8394 7.86801C17.3023 7.86364 16.9318 7.44027 16.9318 6.96039C16.9318 6.44977 17.3667 6.05252 17.8094 6.05252C17.8191 6.05252 17.829 6.05276 17.8394 6.05276C18.3398 6.05276 18.747 6.46003 18.747 6.96039C18.747 7.46074 18.3398 7.86801 17.8394 7.86801ZM5.79694 6.05276C6.25329 6.05276 6.67931 6.45325 6.67931 6.96039C6.67931 7.47309 6.26306 7.86801 5.79843 7.86801C5.27161 7.87541 4.8633 7.47266 4.85977 6.96676C4.8598 6.96398 4.86135 6.96169 4.86135 6.9589C4.86135 6.95652 4.86002 6.95457 4.85998 6.95219C4.86497 6.44756 5.29223 6.06261 5.79694 6.05276ZM14.2428 21.9859H9.36504L10.3078 20.3628H13.2998L14.2428 21.9859ZM20.0235 19.3487C17.2585 19.3463 3.6378 19.3487 3.58409 19.3487C3.33428 19.3487 3.13127 19.1457 3.13127 18.8959V17.5092H20.4764V18.8959C20.4764 19.1457 20.2733 19.3487 20.0235 19.3487Z" fill="url(#paint0_linear_523_4623)"/>
    <path d="M21.4904 7.91876C21.4904 7.10992 20.8324 6.45186 20.0235 6.45186H19.6841C19.4595 5.6399 18.7219 5.03868 17.8394 5.03868C16.7332 5.03868 15.9177 5.94865 15.9177 6.96039C15.9177 7.96479 16.7283 8.88209 17.8394 8.88209C18.7229 8.88209 19.4615 8.27942 19.6851 7.46594H20.0235C20.2733 7.46594 20.4764 7.66896 20.4764 7.91876V16.4951H3.13127V7.91876C3.13127 7.66896 3.33428 7.46594 3.58409 7.46594H3.92129C4.14547 8.27942 4.88592 8.88209 5.77194 8.88209C6.87385 8.88209 7.6934 7.97877 7.6934 6.96039C7.6934 6.02353 6.99549 5.1118 5.85643 5.04685H5.85426C4.94623 4.99613 4.15665 5.60954 3.92231 6.45186H3.58409C2.77525 6.45186 2.11719 7.10992 2.11719 7.91876V18.8959C2.11719 19.7047 2.77525 20.3628 3.58409 20.3628H9.13498L8.19223 21.9859H7.43591C7.1559 21.9859 6.92887 22.2129 6.92887 22.493C6.92887 22.773 7.1559 23 7.43591 23C9.62423 23 13.9892 23 16.1717 23C16.4517 23 16.6788 22.773 16.6788 22.493C16.6788 22.2129 16.4517 21.9859 16.1717 21.9859H15.4156L14.4727 20.3628H20.0235C20.8324 20.3628 21.4904 19.7047 21.4904 18.8959C21.4904 14.9898 21.4904 11.9216 21.4904 7.91876ZM17.8394 7.86801C17.3023 7.86364 16.9318 7.44027 16.9318 6.96039C16.9318 6.44977 17.3667 6.05252 17.8094 6.05252C17.8191 6.05252 17.829 6.05276 17.8394 6.05276C18.3398 6.05276 18.747 6.46003 18.747 6.96039C18.747 7.46074 18.3398 7.86801 17.8394 7.86801ZM5.79694 6.05276C6.25329 6.05276 6.67931 6.45325 6.67931 6.96039C6.67931 7.47309 6.26306 7.86801 5.79843 7.86801C5.27161 7.87541 4.8633 7.47266 4.85977 6.96676C4.8598 6.96398 4.86135 6.96169 4.86135 6.9589C4.86135 6.95652 4.86002 6.95457 4.85998 6.95219C4.86497 6.44756 5.29223 6.06261 5.79694 6.05276ZM14.2428 21.9859H9.36504L10.3078 20.3628H13.2998L14.2428 21.9859ZM20.0235 19.3487C17.2585 19.3463 3.6378 19.3487 3.58409 19.3487C3.33428 19.3487 3.13127 19.1457 3.13127 18.8959V17.5092H20.4764V18.8959C20.4764 19.1457 20.2733 19.3487 20.0235 19.3487Z" fill="#04C4C4" fill-opacity="0.6"/>
    <path d="M21.4904 7.91876C21.4904 7.10992 20.8324 6.45186 20.0235 6.45186H19.6841C19.4595 5.6399 18.7219 5.03868 17.8394 5.03868C16.7332 5.03868 15.9177 5.94865 15.9177 6.96039C15.9177 7.96479 16.7283 8.88209 17.8394 8.88209C18.7229 8.88209 19.4615 8.27942 19.6851 7.46594H20.0235C20.2733 7.46594 20.4764 7.66896 20.4764 7.91876V16.4951H3.13127V7.91876C3.13127 7.66896 3.33428 7.46594 3.58409 7.46594H3.92129C4.14547 8.27942 4.88592 8.88209 5.77194 8.88209C6.87385 8.88209 7.6934 7.97877 7.6934 6.96039C7.6934 6.02353 6.99549 5.1118 5.85643 5.04685H5.85426C4.94623 4.99613 4.15665 5.60954 3.92231 6.45186H3.58409C2.77525 6.45186 2.11719 7.10992 2.11719 7.91876V18.8959C2.11719 19.7047 2.77525 20.3628 3.58409 20.3628H9.13498L8.19223 21.9859H7.43591C7.1559 21.9859 6.92887 22.2129 6.92887 22.493C6.92887 22.773 7.1559 23 7.43591 23C9.62423 23 13.9892 23 16.1717 23C16.4517 23 16.6788 22.773 16.6788 22.493C16.6788 22.2129 16.4517 21.9859 16.1717 21.9859H15.4156L14.4727 20.3628H20.0235C20.8324 20.3628 21.4904 19.7047 21.4904 18.8959C21.4904 14.9898 21.4904 11.9216 21.4904 7.91876ZM17.8394 7.86801C17.3023 7.86364 16.9318 7.44027 16.9318 6.96039C16.9318 6.44977 17.3667 6.05252 17.8094 6.05252C17.8191 6.05252 17.829 6.05276 17.8394 6.05276C18.3398 6.05276 18.747 6.46003 18.747 6.96039C18.747 7.46074 18.3398 7.86801 17.8394 7.86801ZM5.79694 6.05276C6.25329 6.05276 6.67931 6.45325 6.67931 6.96039C6.67931 7.47309 6.26306 7.86801 5.79843 7.86801C5.27161 7.87541 4.8633 7.47266 4.85977 6.96676C4.8598 6.96398 4.86135 6.96169 4.86135 6.9589C4.86135 6.95652 4.86002 6.95457 4.85998 6.95219C4.86497 6.44756 5.29223 6.06261 5.79694 6.05276ZM14.2428 21.9859H9.36504L10.3078 20.3628H13.2998L14.2428 21.9859ZM20.0235 19.3487C17.2585 19.3463 3.6378 19.3487 3.58409 19.3487C3.33428 19.3487 3.13127 19.1457 3.13127 18.8959V17.5092H20.4764V18.8959C20.4764 19.1457 20.2733 19.3487 20.0235 19.3487Z" fill="url(#paint1_angular_523_4623)" fill-opacity="0.2"/>
    <path d="M11.8039 17.9182C11.5239 17.9182 11.2771 18.1648 11.2771 18.4448C11.2771 18.7248 11.5239 18.9717 11.8039 18.9717C12.084 18.9717 12.3305 18.7248 12.3305 18.4448C12.3305 18.1648 12.084 17.9182 11.8039 17.9182Z" fill="url(#paint2_linear_523_4623)"/>
    <path d="M11.8039 17.9182C11.5239 17.9182 11.2771 18.1648 11.2771 18.4448C11.2771 18.7248 11.5239 18.9717 11.8039 18.9717C12.084 18.9717 12.3305 18.7248 12.3305 18.4448C12.3305 18.1648 12.084 17.9182 11.8039 17.9182Z" fill="#04C4C4" fill-opacity="0.6"/>
    <path d="M11.8039 17.9182C11.5239 17.9182 11.2771 18.1648 11.2771 18.4448C11.2771 18.7248 11.5239 18.9717 11.8039 18.9717C12.084 18.9717 12.3305 18.7248 12.3305 18.4448C12.3305 18.1648 12.084 17.9182 11.8039 17.9182Z" fill="url(#paint3_angular_523_4623)" fill-opacity="0.2"/>
    <path d="M16.8417 10.3534C17.063 10.4868 17.383 10.4183 17.5312 10.1608C17.6681 9.91746 17.5819 9.60824 17.3386 9.47133C17.0952 9.33442 16.7857 9.42057 16.649 9.66394C16.5069 9.90731 16.5931 10.2165 16.8417 10.3534Z" fill="url(#paint4_linear_523_4623)"/>
    <path d="M16.8417 10.3534C17.063 10.4868 17.383 10.4183 17.5312 10.1608C17.6681 9.91746 17.5819 9.60824 17.3386 9.47133C17.0952 9.33442 16.7857 9.42057 16.649 9.66394C16.5069 9.90731 16.5931 10.2165 16.8417 10.3534Z" fill="#04C4C4" fill-opacity="0.6"/>
    <path d="M16.8417 10.3534C17.063 10.4868 17.383 10.4183 17.5312 10.1608C17.6681 9.91746 17.5819 9.60824 17.3386 9.47133C17.0952 9.33442 16.7857 9.42057 16.649 9.66394C16.5069 9.90731 16.5931 10.2165 16.8417 10.3534Z" fill="url(#paint5_angular_523_4623)" fill-opacity="0.2"/>
    <path d="M14.5142 11.7835C14.2659 11.9204 14.1797 12.2296 14.3166 12.473C14.4433 12.7056 14.7375 12.8051 15.0061 12.6708C15.2495 12.5339 15.3356 12.2244 15.2039 11.981C15.067 11.7327 14.7575 11.6466 14.5142 11.7835Z" fill="url(#paint6_linear_523_4623)"/>
    <path d="M14.5142 11.7835C14.2659 11.9204 14.1797 12.2296 14.3166 12.473C14.4433 12.7056 14.7375 12.8051 15.0061 12.6708C15.2495 12.5339 15.3356 12.2244 15.2039 11.981C15.067 11.7327 14.7575 11.6466 14.5142 11.7835Z" fill="#04C4C4" fill-opacity="0.6"/>
    <path d="M14.5142 11.7835C14.2659 11.9204 14.1797 12.2296 14.3166 12.473C14.4433 12.7056 14.7375 12.8051 15.0061 12.6708C15.2495 12.5339 15.3356 12.2244 15.2039 11.981C15.067 11.7327 14.7575 11.6466 14.5142 11.7835Z" fill="url(#paint7_angular_523_4623)" fill-opacity="0.2"/>
    <path d="M15.7211 11.5856C15.918 11.783 16.2296 11.7918 16.4411 11.5906C16.6389 11.393 16.6389 11.0734 16.4411 10.8706C16.2433 10.6731 15.9239 10.6731 15.7261 10.8706C15.5283 11.0685 15.5233 11.3878 15.7211 11.5856Z" fill="url(#paint8_linear_523_4623)"/>
    <path d="M15.7211 11.5856C15.918 11.783 16.2296 11.7918 16.4411 11.5906C16.6389 11.393 16.6389 11.0734 16.4411 10.8706C16.2433 10.6731 15.9239 10.6731 15.7261 10.8706C15.5283 11.0685 15.5233 11.3878 15.7211 11.5856Z" fill="#04C4C4" fill-opacity="0.6"/>
    <path d="M15.7211 11.5856C15.918 11.783 16.2296 11.7918 16.4411 11.5906C16.6389 11.393 16.6389 11.0734 16.4411 10.8706C16.2433 10.6731 15.9239 10.6731 15.7261 10.8706C15.5283 11.0685 15.5233 11.3878 15.7211 11.5856Z" fill="url(#paint9_angular_523_4623)" fill-opacity="0.2"/>
    <path d="M6.27477 9.47133C6.0314 9.61319 5.94524 9.92266 6.08216 10.166C6.22514 10.4198 6.55365 10.4848 6.77166 10.3534C7.01528 10.2165 7.10144 9.90731 6.96452 9.66394C6.82761 9.42057 6.51814 9.33442 6.27477 9.47133Z" fill="url(#paint10_linear_523_4623)"/>
    <path d="M6.27477 9.47133C6.0314 9.61319 5.94524 9.92266 6.08216 10.166C6.22514 10.4198 6.55365 10.4848 6.77166 10.3534C7.01528 10.2165 7.10144 9.90731 6.96452 9.66394C6.82761 9.42057 6.51814 9.33442 6.27477 9.47133Z" fill="#04C4C4" fill-opacity="0.6"/>
    <path d="M6.27477 9.47133C6.0314 9.61319 5.94524 9.92266 6.08216 10.166C6.22514 10.4198 6.55365 10.4848 6.77166 10.3534C7.01528 10.2165 7.10144 9.90731 6.96452 9.66394C6.82761 9.42057 6.51814 9.33442 6.27477 9.47133Z" fill="url(#paint11_angular_523_4623)" fill-opacity="0.2"/>
    <path d="M7.89245 11.5856C8.08506 11.3878 8.08506 11.0685 7.88725 10.8706C7.68943 10.6731 7.36511 10.6731 7.16729 10.8758C6.97468 11.0734 6.97468 11.393 7.17224 11.5906C7.38703 11.7949 7.6984 11.7797 7.89245 11.5856Z" fill="url(#paint12_linear_523_4623)"/>
    <path d="M7.89245 11.5856C8.08506 11.3878 8.08506 11.0685 7.88725 10.8706C7.68943 10.6731 7.36511 10.6731 7.16729 10.8758C6.97468 11.0734 6.97468 11.393 7.17224 11.5906C7.38703 11.7949 7.6984 11.7797 7.89245 11.5856Z" fill="#04C4C4" fill-opacity="0.6"/>
    <path d="M7.89245 11.5856C8.08506 11.3878 8.08506 11.0685 7.88725 10.8706C7.68943 10.6731 7.36511 10.6731 7.16729 10.8758C6.97468 11.0734 6.97468 11.393 7.17224 11.5906C7.38703 11.7949 7.6984 11.7797 7.89245 11.5856Z" fill="url(#paint13_angular_523_4623)" fill-opacity="0.2"/>
    <path d="M8.40964 11.981C8.27768 12.2244 8.36384 12.5339 8.60721 12.6708C8.8779 12.8061 9.17102 12.7037 9.29696 12.473C9.43362 12.2296 9.34747 11.9204 9.09914 11.7835C8.85577 11.6466 8.5463 11.7377 8.40964 11.981Z" fill="url(#paint14_linear_523_4623)"/>
    <path d="M8.40964 11.981C8.27768 12.2244 8.36384 12.5339 8.60721 12.6708C8.8779 12.8061 9.17102 12.7037 9.29696 12.473C9.43362 12.2296 9.34747 11.9204 9.09914 11.7835C8.85577 11.6466 8.5463 11.7377 8.40964 11.981Z" fill="#04C4C4" fill-opacity="0.6"/>
    <path d="M8.40964 11.981C8.27768 12.2244 8.36384 12.5339 8.60721 12.6708C8.8779 12.8061 9.17102 12.7037 9.29696 12.473C9.43362 12.2296 9.34747 11.9204 9.09914 11.7835C8.85577 11.6466 8.5463 11.7377 8.40964 11.981Z" fill="url(#paint15_angular_523_4623)" fill-opacity="0.2"/>
    <path d="M8.58691 1.20642C8.34354 1.34333 8.25738 1.6528 8.39429 1.89617C8.53659 2.14876 8.85896 2.22354 9.0838 2.08879C9.32716 1.95188 9.41357 1.64265 9.28161 1.39928C9.1447 1.15591 8.83547 1.06951 8.58691 1.20642Z" fill="url(#paint16_linear_523_4623)"/>
    <path d="M8.58691 1.20642C8.34354 1.34333 8.25738 1.6528 8.39429 1.89617C8.53659 2.14876 8.85896 2.22354 9.0838 2.08879C9.32716 1.95188 9.41357 1.64265 9.28161 1.39928C9.1447 1.15591 8.83547 1.06951 8.58691 1.20642Z" fill="#04C4C4" fill-opacity="0.6"/>
    <path d="M8.58691 1.20642C8.34354 1.34333 8.25738 1.6528 8.39429 1.89617C8.53659 2.14876 8.85896 2.22354 9.0838 2.08879C9.32716 1.95188 9.41357 1.64265 9.28161 1.39928C9.1447 1.15591 8.83547 1.06951 8.58691 1.20642Z" fill="url(#paint17_angular_523_4623)" fill-opacity="0.2"/>
    <path d="M7.14699 2.30171C6.94917 2.49952 6.95437 2.8189 7.15194 3.01671C7.34029 3.20457 7.65233 3.22083 7.86695 3.01671C8.06476 2.81394 8.06476 2.49432 7.86695 2.29675C7.66913 2.09894 7.3448 2.09894 7.14699 2.30171Z" fill="url(#paint18_linear_523_4623)"/>
    <path d="M7.14699 2.30171C6.94917 2.49952 6.95437 2.8189 7.15194 3.01671C7.34029 3.20457 7.65233 3.22083 7.86695 3.01671C8.06476 2.81394 8.06476 2.49432 7.86695 2.29675C7.66913 2.09894 7.3448 2.09894 7.14699 2.30171Z" fill="#04C4C4" fill-opacity="0.6"/>
    <path d="M7.14699 2.30171C6.94917 2.49952 6.95437 2.8189 7.15194 3.01671C7.34029 3.20457 7.65233 3.22083 7.86695 3.01671C8.06476 2.81394 8.06476 2.49432 7.86695 2.29675C7.66913 2.09894 7.3448 2.09894 7.14699 2.30171Z" fill="url(#paint19_angular_523_4623)" fill-opacity="0.2"/>
    <path d="M6.75161 3.54901C6.50304 3.41209 6.19876 3.49825 6.06185 3.74682C5.92494 3.99019 6.0111 4.29942 6.25472 4.43633C6.52406 4.57141 6.81556 4.47071 6.94917 4.23851H6.94422C7.08113 3.99019 6.99498 3.68592 6.75161 3.54901Z" fill="url(#paint20_linear_523_4623)"/>
    <path d="M6.75161 3.54901C6.50304 3.41209 6.19876 3.49825 6.06185 3.74682C5.92494 3.99019 6.0111 4.29942 6.25472 4.43633C6.52406 4.57141 6.81556 4.47071 6.94917 4.23851H6.94422C7.08113 3.99019 6.99498 3.68592 6.75161 3.54901Z" fill="#04C4C4" fill-opacity="0.6"/>
    <path d="M6.75161 3.54901C6.50304 3.41209 6.19876 3.49825 6.06185 3.74682C5.92494 3.99019 6.0111 4.29942 6.25472 4.43633C6.52406 4.57141 6.81556 4.47071 6.94917 4.23851H6.94422C7.08113 3.99019 6.99498 3.68592 6.75161 3.54901Z" fill="url(#paint21_angular_523_4623)" fill-opacity="0.2"/>
    <path d="M15.0212 1.20147C14.7779 1.06456 14.4686 1.15591 14.3317 1.39928C14.1899 1.64265 14.281 1.95188 14.5243 2.08879C14.7969 2.23393 15.0873 2.12118 15.2141 1.89617C15.351 1.6476 15.2646 1.33838 15.0212 1.20147Z" fill="url(#paint22_linear_523_4623)"/>
    <path d="M15.0212 1.20147C14.7779 1.06456 14.4686 1.15591 14.3317 1.39928C14.1899 1.64265 14.281 1.95188 14.5243 2.08879C14.7969 2.23393 15.0873 2.12118 15.2141 1.89617C15.351 1.6476 15.2646 1.33838 15.0212 1.20147Z" fill="#04C4C4" fill-opacity="0.6"/>
    <path d="M15.0212 1.20147C14.7779 1.06456 14.4686 1.15591 14.3317 1.39928C14.1899 1.64265 14.281 1.95188 14.5243 2.08879C14.7969 2.23393 15.0873 2.12118 15.2141 1.89617C15.351 1.6476 15.2646 1.33838 15.0212 1.20147Z" fill="url(#paint23_angular_523_4623)" fill-opacity="0.2"/>
    <path d="M15.7414 2.29675C15.5436 2.49432 15.5436 2.81394 15.7414 3.01151C15.9462 3.21682 16.2568 3.21083 16.4614 3.01671C16.659 2.81394 16.659 2.49432 16.4614 2.29675C16.2636 2.09894 15.9442 2.09894 15.7414 2.29675Z" fill="url(#paint24_linear_523_4623)"/>
    <path d="M15.7414 2.29675C15.5436 2.49432 15.5436 2.81394 15.7414 3.01151C15.9462 3.21682 16.2568 3.21083 16.4614 3.01671C16.659 2.81394 16.659 2.49432 16.4614 2.29675C16.2636 2.09894 15.9442 2.09894 15.7414 2.29675Z" fill="#04C4C4" fill-opacity="0.6"/>
    <path d="M15.7414 2.29675C15.5436 2.49432 15.5436 2.81394 15.7414 3.01151C15.9462 3.21682 16.2568 3.21083 16.4614 3.01671C16.659 2.81394 16.659 2.49432 16.4614 2.29675C16.2636 2.09894 15.9442 2.09894 15.7414 2.29675Z" fill="url(#paint25_angular_523_4623)" fill-opacity="0.2"/>
    <path d="M17.3537 4.43137C17.597 4.29446 17.6832 3.98499 17.5515 3.74162C17.4146 3.49825 17.1053 3.41209 16.862 3.54405C16.6134 3.68096 16.5272 3.99019 16.6641 4.23356C16.7963 4.47559 17.101 4.57352 17.3537 4.43137Z" fill="url(#paint26_linear_523_4623)"/>
    <path d="M17.3537 4.43137C17.597 4.29446 17.6832 3.98499 17.5515 3.74162C17.4146 3.49825 17.1053 3.41209 16.862 3.54405C16.6134 3.68096 16.5272 3.99019 16.6641 4.23356C16.7963 4.47559 17.101 4.57352 17.3537 4.43137Z" fill="#04C4C4" fill-opacity="0.6"/>
    <path d="M17.3537 4.43137C17.597 4.29446 17.6832 3.98499 17.5515 3.74162C17.4146 3.49825 17.1053 3.41209 16.862 3.54405C16.6134 3.68096 16.5272 3.99019 16.6641 4.23356C16.7963 4.47559 17.101 4.57352 17.3537 4.43137Z" fill="url(#paint27_angular_523_4623)" fill-opacity="0.2"/>
    <path d="M11.8057 -1C10.746 -1 9.88397 -0.137932 9.88397 0.921703C9.88397 1.97277 10.7612 2.84836 11.8057 2.84836C12.9863 2.84836 13.7274 1.87428 13.7274 0.921703C13.7274 -0.137932 12.8653 -1 11.8057 -1ZM10.898 0.921703C10.898 0.421347 11.3053 0.014081 11.8057 0.014081C12.306 0.014081 12.7133 0.421347 12.7133 0.921703C12.7133 1.43735 12.2952 1.83428 11.8057 1.83428C11.298 1.83428 10.898 1.41095 10.898 0.921703Z" fill="url(#paint28_linear_523_4623)"/>
    <path d="M11.8057 -1C10.746 -1 9.88397 -0.137932 9.88397 0.921703C9.88397 1.97277 10.7612 2.84836 11.8057 2.84836C12.9863 2.84836 13.7274 1.87428 13.7274 0.921703C13.7274 -0.137932 12.8653 -1 11.8057 -1ZM10.898 0.921703C10.898 0.421347 11.3053 0.014081 11.8057 0.014081C12.306 0.014081 12.7133 0.421347 12.7133 0.921703C12.7133 1.43735 12.2952 1.83428 11.8057 1.83428C11.298 1.83428 10.898 1.41095 10.898 0.921703Z" fill="#04C4C4" fill-opacity="0.6"/>
    <path d="M11.8057 -1C10.746 -1 9.88397 -0.137932 9.88397 0.921703C9.88397 1.97277 10.7612 2.84836 11.8057 2.84836C12.9863 2.84836 13.7274 1.87428 13.7274 0.921703C13.7274 -0.137932 12.8653 -1 11.8057 -1ZM10.898 0.921703C10.898 0.421347 11.3053 0.014081 11.8057 0.014081C12.306 0.014081 12.7133 0.421347 12.7133 0.921703C12.7133 1.43735 12.2952 1.83428 11.8057 1.83428C11.298 1.83428 10.898 1.41095 10.898 0.921703Z" fill="url(#paint29_angular_523_4623)" fill-opacity="0.2"/>
    <path d="M11.8057 11.0727C10.7825 11.0727 9.88397 11.9154 9.88397 12.9941C9.88397 14.0538 10.746 14.9158 11.8057 14.9158C12.8653 14.9158 13.7274 14.0538 13.7274 12.9941C13.7274 11.8879 12.805 11.0727 11.8057 11.0727ZM11.8057 13.9017C11.3053 13.9017 10.898 13.4945 10.898 12.9941C10.898 12.4852 11.3089 12.0867 11.8057 12.0867C12.2948 12.0867 12.7133 12.4758 12.7133 12.9941C12.7133 13.4945 12.306 13.9017 11.8057 13.9017Z" fill="url(#paint30_linear_523_4623)"/>
    <path d="M11.8057 11.0727C10.7825 11.0727 9.88397 11.9154 9.88397 12.9941C9.88397 14.0538 10.746 14.9158 11.8057 14.9158C12.8653 14.9158 13.7274 14.0538 13.7274 12.9941C13.7274 11.8879 12.805 11.0727 11.8057 11.0727ZM11.8057 13.9017C11.3053 13.9017 10.898 13.4945 10.898 12.9941C10.898 12.4852 11.3089 12.0867 11.8057 12.0867C12.2948 12.0867 12.7133 12.4758 12.7133 12.9941C12.7133 13.4945 12.306 13.9017 11.8057 13.9017Z" fill="#04C4C4" fill-opacity="0.6"/>
    <path d="M11.8057 11.0727C10.7825 11.0727 9.88397 11.9154 9.88397 12.9941C9.88397 14.0538 10.746 14.9158 11.8057 14.9158C12.8653 14.9158 13.7274 14.0538 13.7274 12.9941C13.7274 11.8879 12.805 11.0727 11.8057 11.0727ZM11.8057 13.9017C11.3053 13.9017 10.898 13.4945 10.898 12.9941C10.898 12.4852 11.3089 12.0867 11.8057 12.0867C12.2948 12.0867 12.7133 12.4758 12.7133 12.9941C12.7133 13.4945 12.306 13.9017 11.8057 13.9017Z" fill="url(#paint31_angular_523_4623)" fill-opacity="0.2"/>
    <path d="M8.61414 6.96039C8.61414 8.71745 10.0456 10.147 11.8054 10.147C13.5625 10.147 14.992 8.71745 14.992 6.96039C14.992 5.2006 13.5625 3.7691 11.8054 3.7691C10.0456 3.7691 8.61414 5.2006 8.61414 6.96039ZM11.8054 4.78318C13.0035 4.78318 13.9779 5.75988 13.9779 6.96039C13.9779 8.15842 13.0035 9.13289 11.8054 9.13289C10.6049 9.13289 9.62822 8.15842 9.62822 6.96039C9.62822 5.75988 10.6049 4.78318 11.8054 4.78318Z" fill="url(#paint32_linear_523_4623)"/>
    <path d="M8.61414 6.96039C8.61414 8.71745 10.0456 10.147 11.8054 10.147C13.5625 10.147 14.992 8.71745 14.992 6.96039C14.992 5.2006 13.5625 3.7691 11.8054 3.7691C10.0456 3.7691 8.61414 5.2006 8.61414 6.96039ZM11.8054 4.78318C13.0035 4.78318 13.9779 5.75988 13.9779 6.96039C13.9779 8.15842 13.0035 9.13289 11.8054 9.13289C10.6049 9.13289 9.62822 8.15842 9.62822 6.96039C9.62822 5.75988 10.6049 4.78318 11.8054 4.78318Z" fill="#04C4C4" fill-opacity="0.6"/>
    <path d="M8.61414 6.96039C8.61414 8.71745 10.0456 10.147 11.8054 10.147C13.5625 10.147 14.992 8.71745 14.992 6.96039C14.992 5.2006 13.5625 3.7691 11.8054 3.7691C10.0456 3.7691 8.61414 5.2006 8.61414 6.96039ZM11.8054 4.78318C13.0035 4.78318 13.9779 5.75988 13.9779 6.96039C13.9779 8.15842 13.0035 9.13289 11.8054 9.13289C10.6049 9.13289 9.62822 8.15842 9.62822 6.96039C9.62822 5.75988 10.6049 4.78318 11.8054 4.78318Z" fill="url(#paint33_angular_523_4623)" fill-opacity="0.2"/>
    <path d="M10.9656 7.88782C11.057 8.01284 11.2008 8.08885 11.3556 8.09479C11.3618 8.09504 11.3682 8.09504 11.3744 8.09504C11.5224 8.09504 11.6633 8.03042 11.7599 7.91753L12.873 6.61502C13.055 6.4021 13.0297 6.08198 12.817 5.90001C12.6039 5.71829 12.284 5.74354 12.102 5.95596L11.4048 6.77198L11.2652 6.58159C11.0991 6.3563 10.7824 6.30678 10.5564 6.47266C10.3306 6.63804 10.2818 6.95544 10.4475 7.18123L10.9656 7.88782Z" fill="url(#paint34_linear_523_4623)"/>
    <path d="M10.9656 7.88782C11.057 8.01284 11.2008 8.08885 11.3556 8.09479C11.3618 8.09504 11.3682 8.09504 11.3744 8.09504C11.5224 8.09504 11.6633 8.03042 11.7599 7.91753L12.873 6.61502C13.055 6.4021 13.0297 6.08198 12.817 5.90001C12.6039 5.71829 12.284 5.74354 12.102 5.95596L11.4048 6.77198L11.2652 6.58159C11.0991 6.3563 10.7824 6.30678 10.5564 6.47266C10.3306 6.63804 10.2818 6.95544 10.4475 7.18123L10.9656 7.88782Z" fill="#04C4C4" fill-opacity="0.6"/>
    <path d="M10.9656 7.88782C11.057 8.01284 11.2008 8.08885 11.3556 8.09479C11.3618 8.09504 11.3682 8.09504 11.3744 8.09504C11.5224 8.09504 11.6633 8.03042 11.7599 7.91753L12.873 6.61502C13.055 6.4021 13.0297 6.08198 12.817 5.90001C12.6039 5.71829 12.284 5.74354 12.102 5.95596L11.4048 6.77198L11.2652 6.58159C11.0991 6.3563 10.7824 6.30678 10.5564 6.47266C10.3306 6.63804 10.2818 6.95544 10.4475 7.18123L10.9656 7.88782Z" fill="url(#paint35_angular_523_4623)" fill-opacity="0.2"/>
  </g>
  <defs>
    <linearGradient id="paint0_linear_523_4623" x1="6.137" y1="6.1585" x2="18.5711" y2="19.5605" gradientUnits="userSpaceOnUse">
      <stop stopColor="#182F59"/>
      <stop offset="1" stopColor="#020F26"/>
    </linearGradient>
    <radialGradient id="paint1_angular_523_4623" cx="0" cy="0" r="1" gradientUnits="userSpaceOnUse" gradientTransform="translate(15.7957 15.5303) rotate(-131.122) scale(16.8937 16.7905)">
      <stop stopColor="#4C576B" stopOpacity="0.5"/>
      <stop offset="1" stopOpacity="0.7"/>
    </radialGradient>
    <linearGradient id="paint2_linear_523_4623" x1="6.137" y1="6.1585" x2="18.5711" y2="19.5605" gradientUnits="userSpaceOnUse">
      <stop stopColor="#182F59"/>
      <stop offset="1" stopColor="#020F26"/>
    </linearGradient>
    <radialGradient id="paint3_angular_523_4623" cx="0" cy="0" r="1" gradientUnits="userSpaceOnUse" gradientTransform="translate(15.7957 15.5303) rotate(-131.122) scale(16.8937 16.7905)">
      <stop stopColor="#4C576B" stopOpacity="0.5"/>
      <stop offset="1" stopOpacity="0.7"/>
    </radialGradient>
    <linearGradient id="paint4_linear_523_4623" x1="6.137" y1="6.1585" x2="18.5711" y2="19.5605" gradientUnits="userSpaceOnUse">
      <stop stopColor="#182F59"/>
      <stop offset="1" stopColor="#020F26"/>
    </linearGradient>
    <radialGradient id="paint5_angular_523_4623" cx="0" cy="0" r="1" gradientUnits="userSpaceOnUse" gradientTransform="translate(15.7957 15.5303) rotate(-131.122) scale(16.8937 16.7905)">
      <stop stopColor="#4C576B" stopOpacity="0.5"/>
      <stop offset="1" stopOpacity="0.7"/>
    </radialGradient>
    <linearGradient id="paint6_linear_523_4623" x1="6.137" y1="6.1585" x2="18.5711" y2="19.5605" gradientUnits="userSpaceOnUse">
      <stop stopColor="#182F59"/>
      <stop offset="1" stopColor="#020F26"/>
    </linearGradient>
    <radialGradient id="paint7_angular_523_4623" cx="0" cy="0" r="1" gradientUnits="userSpaceOnUse" gradientTransform="translate(15.7957 15.5303) rotate(-131.122) scale(16.8937 16.7905)">
      <stop stopColor="#4C576B" stopOpacity="0.5"/>
      <stop offset="1" stopOpacity="0.7"/>
    </radialGradient>
    <linearGradient id="paint8_linear_523_4623" x1="6.137" y1="6.1585" x2="18.5711" y2="19.5605" gradientUnits="userSpaceOnUse">
      <stop stopColor="#182F59"/>
      <stop offset="1" stopColor="#020F26"/>
    </linearGradient>
    <radialGradient id="paint9_angular_523_4623" cx="0" cy="0" r="1" gradientUnits="userSpaceOnUse" gradientTransform="translate(15.7957 15.5303) rotate(-131.122) scale(16.8937 16.7905)">
      <stop stopColor="#4C576B" stopOpacity="0.5"/>
      <stop offset="1" stopOpacity="0.7"/>
    </radialGradient>
    <linearGradient id="paint10_linear_523_4623" x1="6.137" y1="6.1585" x2="18.5711" y2="19.5605" gradientUnits="userSpaceOnUse">
      <stop stopColor="#182F59"/>
      <stop offset="1" stopColor="#020F26"/>
    </linearGradient>
    <radialGradient id="paint11_angular_523_4623" cx="0" cy="0" r="1" gradientUnits="userSpaceOnUse" gradientTransform="translate(15.7957 15.5303) rotate(-131.122) scale(16.8937 16.7905)">
      <stop stopColor="#4C576B" stopOpacity="0.5"/>
      <stop offset="1" stopOpacity="0.7"/>
    </radialGradient>
    <linearGradient id="paint12_linear_523_4623" x1="6.137" y1="6.1585" x2="18.5711" y2="19.5605" gradientUnits="userSpaceOnUse">
      <stop stopColor="#182F59"/>
      <stop offset="1" stopColor="#020F26"/>
    </linearGradient>
    <radialGradient id="paint13_angular_523_4623" cx="0" cy="0" r="1" gradientUnits="userSpaceOnUse" gradientTransform="translate(15.7957 15.5303) rotate(-131.122) scale(16.8937 16.7905)">
      <stop stopColor="#4C576B" stopOpacity="0.5"/>
      <stop offset="1" stopOpacity="0.7"/>
    </radialGradient>
    <linearGradient id="paint14_linear_523_4623" x1="6.137" y1="6.1585" x2="18.5711" y2="19.5605" gradientUnits="userSpaceOnUse">
      <stop stopColor="#182F59"/>
      <stop offset="1" stopColor="#020F26"/>
    </linearGradient>
    <radialGradient id="paint15_angular_523_4623" cx="0" cy="0" r="1" gradientUnits="userSpaceOnUse" gradientTransform="translate(15.7957 15.5303) rotate(-131.122) scale(16.8937 16.7905)">
      <stop stopColor="#4C576B" stopOpacity="0.5"/>
      <stop offset="1" stopOpacity="0.7"/>
    </radialGradient>
    <linearGradient id="paint16_linear_523_4623" x1="6.137" y1="6.1585" x2="18.5711" y2="19.5605" gradientUnits="userSpaceOnUse">
      <stop stopColor="#182F59"/>
      <stop offset="1" stopColor="#020F26"/>
    </linearGradient>
    <radialGradient id="paint17_angular_523_4623" cx="0" cy="0" r="1" gradientUnits="userSpaceOnUse" gradientTransform="translate(15.7957 15.5303) rotate(-131.122) scale(16.8937 16.7905)">
      <stop stopColor="#4C576B" stopOpacity="0.5"/>
      <stop offset="1" stopOpacity="0.7"/>
    </radialGradient>
    <linearGradient id="paint18_linear_523_4623" x1="6.137" y1="6.1585" x2="18.5711" y2="19.5605" gradientUnits="userSpaceOnUse">
      <stop stopColor="#182F59"/>
      <stop offset="1" stopColor="#020F26"/>
    </linearGradient>
    <radialGradient id="paint19_angular_523_4623" cx="0" cy="0" r="1" gradientUnits="userSpaceOnUse" gradientTransform="translate(15.7957 15.5303) rotate(-131.122) scale(16.8937 16.7905)">
      <stop stopColor="#4C576B" stopOpacity="0.5"/>
      <stop offset="1" stopOpacity="0.7"/>
    </radialGradient>
    <linearGradient id="paint20_linear_523_4623" x1="6.137" y1="6.1585" x2="18.5711" y2="19.5605" gradientUnits="userSpaceOnUse">
      <stop stopColor="#182F59"/>
      <stop offset="1" stopColor="#020F26"/>
    </linearGradient>
    <radialGradient id="paint21_angular_523_4623" cx="0" cy="0" r="1" gradientUnits="userSpaceOnUse" gradientTransform="translate(15.7957 15.5303) rotate(-131.122) scale(16.8937 16.7905)">
      <stop stopColor="#4C576B" stopOpacity="0.5"/>
      <stop offset="1" stopOpacity="0.7"/>
    </radialGradient>
    <linearGradient id="paint22_linear_523_4623" x1="6.137" y1="6.1585" x2="18.5711" y2="19.5605" gradientUnits="userSpaceOnUse">
      <stop stopColor="#182F59"/>
      <stop offset="1" stopColor="#020F26"/>
    </linearGradient>
    <radialGradient id="paint23_angular_523_4623" cx="0" cy="0" r="1" gradientUnits="userSpaceOnUse" gradientTransform="translate(15.7957 15.5303) rotate(-131.122) scale(16.8937 16.7905)">
      <stop stopColor="#4C576B" stopOpacity="0.5"/>
      <stop offset="1" stopOpacity="0.7"/>
    </radialGradient>
    <linearGradient id="paint24_linear_523_4623" x1="6.137" y1="6.1585" x2="18.5711" y2="19.5605" gradientUnits="userSpaceOnUse">
      <stop stopColor="#182F59"/>
      <stop offset="1" stopColor="#020F26"/>
    </linearGradient>
    <radialGradient id="paint25_angular_523_4623" cx="0" cy="0" r="1" gradientUnits="userSpaceOnUse" gradientTransform="translate(15.7957 15.5303) rotate(-131.122) scale(16.8937 16.7905)">
      <stop stopColor="#4C576B" stopOpacity="0.5"/>
      <stop offset="1" stopOpacity="0.7"/>
    </radialGradient>
    <linearGradient id="paint26_linear_523_4623" x1="6.137" y1="6.1585" x2="18.5711" y2="19.5605" gradientUnits="userSpaceOnUse">
      <stop stopColor="#182F59"/>
      <stop offset="1" stopColor="#020F26"/>
    </linearGradient>
    <radialGradient id="paint27_angular_523_4623" cx="0" cy="0" r="1" gradientUnits="userSpaceOnUse" gradientTransform="translate(15.7957 15.5303) rotate(-131.122) scale(16.8937 16.7905)">
      <stop stopColor="#4C576B" stopOpacity="0.5"/>
      <stop offset="1" stopOpacity="0.7"/>
    </radialGradient>
    <linearGradient id="paint28_linear_523_4623" x1="6.137" y1="6.1585" x2="18.5711" y2="19.5605" gradientUnits="userSpaceOnUse">
      <stop stopColor="#182F59"/>
      <stop offset="1" stopColor="#020F26"/>
    </linearGradient>
    <radialGradient id="paint29_angular_523_4623" cx="0" cy="0" r="1" gradientUnits="userSpaceOnUse" gradientTransform="translate(15.7957 15.5303) rotate(-131.122) scale(16.8937 16.7905)">
      <stop stopColor="#4C576B" stopOpacity="0.5"/>
      <stop offset="1" stopOpacity="0.7"/>
    </radialGradient>
    <linearGradient id="paint30_linear_523_4623" x1="6.137" y1="6.1585" x2="18.5711" y2="19.5605" gradientUnits="userSpaceOnUse">
      <stop stopColor="#182F59"/>
      <stop offset="1" stopColor="#020F26"/>
    </linearGradient>
    <radialGradient id="paint31_angular_523_4623" cx="0" cy="0" r="1" gradientUnits="userSpaceOnUse" gradientTransform="translate(15.7957 15.5303) rotate(-131.122) scale(16.8937 16.7905)">
      <stop stopColor="#4C576B" stopOpacity="0.5"/>
      <stop offset="1" stopOpacity="0.7"/>
    </radialGradient>
    <linearGradient id="paint32_linear_523_4623" x1="6.137" y1="6.1585" x2="18.5711" y2="19.5605" gradientUnits="userSpaceOnUse">
      <stop stopColor="#182F59"/>
      <stop offset="1" stopColor="#020F26"/>
    </linearGradient>
    <radialGradient id="paint33_angular_523_4623" cx="0" cy="0" r="1" gradientUnits="userSpaceOnUse" gradientTransform="translate(15.7957 15.5303) rotate(-131.122) scale(16.8937 16.7905)">
      <stop stopColor="#4C576B" stopOpacity="0.5"/>
      <stop offset="1" stopOpacity="0.7"/>
    </radialGradient>
    <linearGradient id="paint34_linear_523_4623" x1="6.137" y1="6.1585" x2="18.5711" y2="19.5605" gradientUnits="userSpaceOnUse">
      <stop stopColor="#182F59"/>
      <stop offset="1" stopColor="#020F26"/>
    </linearGradient>
    <radialGradient id="paint35_angular_523_4623" cx="0" cy="0" r="1" gradientUnits="userSpaceOnUse" gradientTransform="translate(15.7957 15.5303) rotate(-131.122) scale(16.8937 16.7905)">
      <stop stopColor="#4C576B" stopOpacity="0.5"/>
      <stop offset="1" stopOpacity="0.7"/>
    </radialGradient>
    <clipPath id="clip0_523_4623">
      <rect width="24" height="24" fill="white"/>
    </clipPath>
  </defs>
</svg>