<svg width="20" height="24" viewBox="0 0 20 24" fill="none" xmlns="http://www.w3.org/2000/svg">
<path d="M19.3733 8.91876C19.3733 8.10992 18.7152 7.45186 17.9064 7.45186H17.567C17.3423 6.6399 16.6047 6.03868 15.7222 6.03868C14.616 6.03868 13.8005 6.94865 13.8005 7.96039C13.8005 8.96479 14.6111 9.88209 15.7222 9.88209C16.6058 9.88209 17.3443 9.27942 17.5679 8.46594H17.9064C18.1562 8.46594 18.3592 8.66896 18.3592 8.91876V17.4951H1.01408V8.91876C1.01408 8.66896 1.2171 8.46594 1.4669 8.46594H1.8041C2.02829 9.27942 2.76873 9.88209 3.65475 9.88209C4.75666 9.88209 5.57621 8.97877 5.57621 7.96039C5.57621 7.02353 4.8783 6.1118 3.73924 6.04685H3.73707C2.82905 5.99613 2.03946 6.60954 1.80512 7.45186H1.4669C0.658063 7.45186 0 8.10992 0 8.91876V19.8959C0 20.7047 0.658063 21.3628 1.4669 21.3628H7.01779L6.07505 22.9859H5.31873C5.03871 22.9859 4.81169 23.2129 4.81169 23.493C4.81169 23.773 5.03871 24 5.31873 24C7.50704 24 11.872 24 14.0545 24C14.3345 24 14.5616 23.773 14.5616 23.493C14.5616 23.2129 14.3345 22.9859 14.0545 22.9859H13.2984L12.3555 21.3628H17.9064C18.7152 21.3628 19.3733 20.7047 19.3733 19.8959C19.3733 15.9898 19.3733 12.9216 19.3733 8.91876ZM15.7222 8.86801C15.1852 8.86364 14.8146 8.44027 14.8146 7.96039C14.8146 7.44977 15.2495 7.05252 15.6923 7.05252C15.7019 7.05252 15.7118 7.05276 15.7222 7.05276C16.2226 7.05276 16.6298 7.46003 16.6298 7.96039C16.6298 8.46074 16.2226 8.86801 15.7222 8.86801ZM3.67976 7.05276C4.1361 7.05276 4.56213 7.45325 4.56213 7.96039C4.56213 8.47309 4.14587 8.86801 3.68124 8.86801C3.15443 8.87541 2.74611 8.47266 2.74258 7.96676C2.74261 7.96398 2.74416 7.96169 2.74416 7.9589C2.74416 7.95652 2.74283 7.95457 2.7428 7.95219C2.74778 7.44756 3.17504 7.06261 3.67976 7.05276ZM12.1256 22.9859H7.24786L8.1906 21.3628H11.1827L12.1256 22.9859ZM17.9064 20.3487C15.1413 20.3463 1.52061 20.3487 1.4669 20.3487C1.2171 20.3487 1.01408 20.1457 1.01408 19.8959V18.5092H18.3592V19.8959C18.3592 20.1457 18.1562 20.3487 17.9064 20.3487Z" fill="white"/>
<path d="M9.68675 18.9182C9.40674 18.9182 9.1599 19.1648 9.1599 19.4448C9.1599 19.7248 9.40674 19.9717 9.68675 19.9717C9.96676 19.9717 10.2134 19.7248 10.2134 19.4448C10.2134 19.1648 9.96676 18.9182 9.68675 18.9182Z" fill="white"/>
<path d="M14.7245 11.3534C14.9458 11.4868 15.2658 11.4183 15.414 11.1608C15.5509 10.9175 15.4647 10.6082 15.2214 10.4713C14.978 10.3344 14.6685 10.4206 14.5319 10.6639C14.3897 10.9073 14.4759 11.2165 14.7245 11.3534Z" fill="white"/>
<path d="M12.397 12.7835C12.1487 12.9204 12.0625 13.2296 12.1994 13.473C12.3261 13.7056 12.6203 13.8051 12.8889 13.6708C13.1323 13.5339 13.2185 13.2244 13.0867 12.981C12.9498 12.7327 12.6404 12.6466 12.397 12.7835Z" fill="white"/>
<path d="M13.6039 12.5856C13.8008 12.783 14.1124 12.7918 14.3239 12.5906C14.5217 12.393 14.5217 12.0734 14.3239 11.8706C14.1261 11.6731 13.8067 11.6731 13.6089 11.8706C13.4111 12.0685 13.4061 12.3878 13.6039 12.5856Z" fill="white"/>
<path d="M4.15758 10.4713C3.91421 10.6132 3.82806 10.9227 3.96497 11.166C4.10795 11.4198 4.43646 11.4848 4.65447 11.3534C4.89809 11.2165 4.98425 10.9073 4.84734 10.6639C4.71043 10.4206 4.40095 10.3344 4.15758 10.4713Z" fill="white"/>
<path d="M5.77526 12.5856C5.96788 12.3878 5.96788 12.0685 5.77006 11.8706C5.57225 11.6731 5.24792 11.6731 5.0501 11.8758C4.85749 12.0734 4.85749 12.393 5.05506 12.5906C5.26984 12.7949 5.58122 12.7797 5.77526 12.5856Z" fill="white"/>
<path d="M6.29245 12.981C6.16049 13.2244 6.24665 13.5339 6.49002 13.6708C6.76072 13.8061 7.05383 13.7037 7.17977 13.473C7.31644 13.2296 7.23028 12.9204 6.98196 12.7835C6.73859 12.6466 6.42911 12.7377 6.29245 12.981Z" fill="white"/>
<path d="M6.46972 2.20642C6.22635 2.34333 6.14019 2.6528 6.2771 2.89617C6.4194 3.14876 6.74178 3.22354 6.96661 3.08879C7.20998 2.95188 7.29638 2.64265 7.16442 2.39928C7.02751 2.15591 6.71829 2.06951 6.46972 2.20642Z" fill="white"/>
<path d="M5.0298 3.30171C4.83199 3.49952 4.83719 3.8189 5.03475 4.01671C5.2231 4.20457 5.53514 4.22083 5.74976 4.01671C5.94758 3.81394 5.94758 3.49432 5.74976 3.29675C5.55195 3.09894 5.22762 3.09894 5.0298 3.30171Z" fill="white"/>
<path d="M4.63442 4.54901C4.38585 4.41209 4.08158 4.49825 3.94467 4.74682C3.80776 4.99019 3.89391 5.29942 4.13753 5.43633C4.40687 5.57141 4.69837 5.47071 4.83199 5.23851H4.82704C4.96395 4.99019 4.87779 4.68592 4.63442 4.54901Z" fill="white"/>
<path d="M12.904 2.20147C12.6607 2.06456 12.3514 2.15591 12.2145 2.39928C12.0727 2.64265 12.1638 2.95188 12.4071 3.08879C12.6797 3.23393 12.9701 3.12118 13.0969 2.89617C13.2338 2.6476 13.1474 2.33838 12.904 2.20147Z" fill="white"/>
<path d="M13.6242 3.29675C13.4264 3.49432 13.4264 3.81394 13.6242 4.01151C13.829 4.21682 14.1396 4.21083 14.3442 4.01671C14.5418 3.81394 14.5418 3.49432 14.3442 3.29675C14.1464 3.09894 13.827 3.09894 13.6242 3.29675Z" fill="white"/>
<path d="M15.2365 5.43137C15.4798 5.29446 15.566 4.98499 15.4343 4.74162C15.2974 4.49825 14.9881 4.41209 14.7448 4.54405C14.4962 4.68096 14.41 4.99019 14.547 5.23356C14.6791 5.47559 14.9838 5.57352 15.2365 5.43137Z" fill="white"/>
<path d="M9.68848 0C8.62885 0 7.76678 0.862068 7.76678 1.9217C7.76678 2.97277 8.64405 3.84836 9.68848 3.84836C10.8691 3.84836 11.6102 2.87428 11.6102 1.9217C11.6102 0.862068 10.7481 0 9.68848 0ZM8.78086 1.9217C8.78086 1.42135 9.18813 1.01408 9.68848 1.01408C10.1888 1.01408 10.5961 1.42135 10.5961 1.9217C10.5961 2.43735 10.178 2.83428 9.68848 2.83428C9.18086 2.83428 8.78086 2.41095 8.78086 1.9217Z" fill="white"/>
<path d="M9.68848 12.0727C8.66531 12.0727 7.76678 12.9154 7.76678 13.9941C7.76678 15.0538 8.62885 15.9158 9.68848 15.9158C10.7481 15.9158 11.6102 15.0538 11.6102 13.9941C11.6102 12.8879 10.6878 12.0727 9.68848 12.0727ZM9.68848 14.9017C9.18813 14.9017 8.78086 14.4945 8.78086 13.9941C8.78086 13.4852 9.1917 13.0867 9.68848 13.0867C10.1776 13.0867 10.5961 13.4758 10.5961 13.9941C10.5961 14.4945 10.1888 14.9017 9.68848 14.9017Z" fill="white"/>
<path d="M6.49695 7.96039C6.49695 9.71745 7.92845 11.147 9.68824 11.147C11.4453 11.147 12.8748 9.71745 12.8748 7.96039C12.8748 6.2006 11.4453 4.7691 9.68824 4.7691C7.92845 4.7691 6.49695 6.2006 6.49695 7.96039ZM9.68824 5.78318C10.8863 5.78318 11.8607 6.75988 11.8607 7.96039C11.8607 9.15842 10.8863 10.1329 9.68824 10.1329C8.48773 10.1329 7.51103 9.15842 7.51103 7.96039C7.51103 6.75988 8.48773 5.78318 9.68824 5.78318Z" fill="white"/>
<path d="M8.84845 8.88782C8.93981 9.01284 9.08365 9.08885 9.23839 9.09479C9.24458 9.09504 9.25101 9.09504 9.2572 9.09504C9.40525 9.09504 9.54613 9.03042 9.64268 8.91753L10.7558 7.61502C10.9378 7.4021 10.9125 7.08198 10.6998 6.90001C10.4867 6.71829 10.1668 6.74354 9.98484 6.95596L9.28765 7.77198L9.14802 7.58159C8.9819 7.3563 8.66524 7.30678 8.4392 7.47266C8.21341 7.63804 8.16464 7.95544 8.33027 8.18123L8.84845 8.88782Z" fill="white"/>
</svg>
