<svg width="41" height="39" viewBox="0 0 41 39" fill="none" xmlns="http://www.w3.org/2000/svg">
<path d="M19.8518 35.3045C19.4929 34.8498 19.1332 34.3955 18.7736 33.9413L18.7731 33.9407L18.7726 33.9401L18.7722 33.9395L18.7721 33.9393C17.7707 32.6745 16.7693 31.4097 15.7822 30.1337C15.3509 29.5762 14.8312 29.3359 14.1312 29.3413L13.3057 32.4253C11.0988 32.433 8.89182 32.44 6.68334 32.4253L6.68798 32.0311C6.68762 32.0311 6.68725 32.0311 6.68689 32.0311C5.43467 32.0161 4.22152 31.5929 3.23171 30.8257C2.2416 30.0583 1.52908 28.9886 1.20242 27.7793L1.2021 27.7781C1.1538 27.6014 1.11678 27.4386 1.07779 27.267C1.05208 27.1539 1.02552 27.037 0.994291 26.9099V5.54819C1.0179 5.48345 1.0376 5.41733 1.05327 5.35018L1.05705 5.33399L1.05945 5.31754C1.25849 3.9551 1.94001 2.70939 2.98003 1.80705C4.02004 0.904704 5.34943 0.405701 6.72632 0.400828L6.72493 0.00654536M19.8518 35.3045L19.5422 35.5487M19.8518 35.3045C20.2369 35.7927 20.3701 35.7897 20.7536 35.2999L19.8518 35.3045ZM19.5422 35.5487C19.1836 35.0944 18.8241 34.6402 18.4643 34.1858C17.4624 32.9203 16.459 31.6529 15.4703 30.375L15.4703 30.3749C15.2859 30.1365 15.0945 29.9807 14.8881 29.8825C14.6811 29.784 14.4374 29.7333 14.1342 29.7356H14.1341C12.4649 29.7479 10.7949 29.745 9.12688 29.742C8.39533 29.7407 7.66417 29.7395 6.93361 29.7395C5.87082 29.7395 4.95229 29.3799 4.29858 28.7245C3.64493 28.0691 3.28589 27.1477 3.28589 26.0794V26.0409V26.0025V25.964V25.9255V25.887V25.8485V25.81V25.7715V25.7331V25.6946V25.6561V25.6176V25.5791V25.5406V25.5022V25.4637V25.4252V25.3867V25.3482V25.3097V25.2712V25.2328V25.1943V25.1558V25.1173V25.0788V25.0403V25.0019V24.9634V24.9249V24.8864V24.8479V24.8094V24.7709V24.7325V24.694V24.6555V24.617V24.5785V24.54V24.5015V24.4631V24.4246V24.3861V24.3476V24.3091V24.2706V24.2321V24.1937V24.1552V24.1167V24.0782V24.0397V24.0012V23.9627V23.9243V23.8858V23.8473V23.8088V23.7703V23.7318V23.6933V23.6549V23.6164V23.5779V23.5394V23.5009V23.4624V23.4239V23.3854V23.347V23.3085V23.27V23.2315V23.193V23.1545V23.116V23.0776V23.0391V23.0006V22.9621V22.9236V22.8851V22.8466V22.8081V22.7697V22.7312V22.6927V22.6542V22.6157V22.5772V22.5387V22.5002V22.4618V22.4233V22.3848V22.3463V22.3078V22.2693V22.2308V22.1923V22.1539V22.1154V22.0769V22.0384V21.9999V21.9614V21.9229V21.8844V21.846V21.8075V21.769V21.7305V21.692V21.6535V21.615V21.5765V21.5381V21.4996V21.4611V21.4226V21.3841V21.3456V21.3071V21.2686V21.2301V21.1917V21.1532V21.1147V21.0762V21.0377V20.9992V20.9607V20.9222V20.8837V20.8453V20.8068V20.7683V20.7298V20.6913V20.6528V20.6143V20.5758V20.5373V20.4989V20.4604V20.4219V20.3834V20.3449V20.3064V20.2679V20.2294V20.1909V20.1525V20.114V20.0755V20.037V19.9985V19.96V19.9215V19.883V19.8445V19.806V19.7676V19.7291V19.6906V19.6521V19.6136V19.5751V19.5366V19.4981V19.4596V19.4211V19.3827V19.3442V19.3057V19.2672V19.2287V19.1902V19.1517V19.1132V19.0747V19.0362V18.9978V18.9593V18.9208V18.8823V18.8438V18.8053V18.7668V18.7283V18.6898V18.6513V18.6128V18.5744V18.5359V18.4974V18.4589V18.4204V18.3819V18.3434V18.3049V18.2664V18.2279V18.1894V18.151V18.1125V18.074V18.0355V17.997V17.9585V17.92V17.8815V17.843V17.8045V17.766V17.7275V17.6891V17.6506V17.6121V17.5736V17.5351V17.4966V17.4581V17.4196V17.3811V17.3426V17.3041V17.2656V17.2271V17.1887V17.1502V17.1117V17.0732V17.0347V16.9962V16.9577V16.9192V16.8807V16.8422V16.8037V16.7652V16.7267V16.6883V16.6498V16.6113V16.5728V16.5343V16.4958V16.4573V16.4188V16.3803V16.3418V16.3033V16.2648V16.2263V16.1878V16.1494V16.1109V16.0724V16.0339V15.9954V15.9569V15.9184V15.8799V15.8414V15.8029V15.7644V15.7259V15.6874V15.6489V15.6104V15.572V15.5335V15.495V15.4565V15.418V15.3795V15.341V15.3025V15.264V15.2255V15.187V15.1485V15.11V15.0715V15.033V14.9945V14.956V14.9176V14.8791V14.8406V14.8021V14.7636V14.7251V14.6866V14.6481V14.6096V14.5711V14.5326V14.4941V14.4556V14.4171V14.3786V14.3401V14.3016V14.2631V14.2247V14.1862V14.1477V14.1092V14.0707V14.0322V13.9937V13.9552V13.9167V13.8782V13.8397V13.8012V13.7627V13.7242V13.6857V13.6472V13.6087V13.5702V13.5317V13.4932V13.4547V13.4162V13.3778V13.3393V13.3008V13.2623V13.2238V13.1853V13.1468V13.1083V13.0698V13.0313V12.9928V12.9543V12.9158V12.8773V12.8388V12.8003V12.7618V12.7233V12.6848V12.6463V12.6078V12.5693V12.5308V12.4923V12.4538V12.4153V12.3769V12.3384V12.2999V12.2614V12.2229V12.1844V12.1459V12.1074V12.0689V12.0304V11.9919V11.9534V11.9149V11.8764V11.8379V11.7994V11.7609V11.7224V11.6839V11.6454V11.6069V11.5684V11.5299V11.4914V11.4529V11.4144V11.3759V11.3374V11.2989V11.2604V11.2219V11.1834V11.1449V11.1064V11.0679V11.0294V10.991V10.9525V10.914V10.8755V10.837V10.7985V10.76V10.7215V10.683V10.6445V10.606V10.5675V10.529V10.4905V10.452V10.4135V10.375V10.3365V10.298V10.2595V10.221V10.1825V10.144V10.1055V10.067V10.0285V9.98999V9.95149V9.913V9.8745V9.836V9.7975V9.759V9.7205V9.682V9.6435V9.605V9.5665V9.528V9.48951V9.45101V9.41251V9.37401V9.33551V9.29701V9.25851V9.22001V9.18151V9.14301V9.10451V9.06601V9.02751V8.98901V8.95051V8.91201V8.87351V8.83501V8.79651V8.75801V8.71951V8.68101V8.64251V8.60401V8.56551V8.52701V8.48851V8.45001V8.41151V8.37301V8.33451V8.29601V8.25751V8.21901V8.18051V8.14201V8.10351V8.06501V8.02651V7.98801V7.94951V7.91101V7.8725V7.834V7.7955V7.757V7.7185V7.68V7.6415V7.603V7.5645V7.526V7.4875V7.44899V7.41049V7.37199V7.33349V7.29499V7.25649V7.21799V7.17949V7.14098V7.10248V7.06398V7.02548V6.98698V6.94848V6.90997V6.87147V6.83297V6.79447V6.75597V6.71747V6.67896V6.64046V6.60196V6.56346V6.52496V6.48645V6.44795V6.40945V6.37095C3.28589 5.29219 3.64067 4.36549 4.29606 3.70733C4.9516 3.04903 5.87502 2.69243 6.94978 2.69243H33.6626C34.7402 2.69243 35.6668 3.04705 36.325 3.7031C36.9834 4.3593 37.3403 5.28406 37.3403 6.36171V6.37697V6.39223V6.4075V6.42276V6.43802V6.45328V6.46854V6.48381V6.49907V6.51433V6.52959V6.54486V6.56012V6.57538V6.59064V6.60591V6.62117V6.63643V6.65169V6.66696V6.68222V6.69748V6.71274V6.72801V6.74327V6.75853V6.77379V6.78905V6.80432V6.81958V6.83484V6.8501V6.86537V6.88063V6.89589V6.91115V6.92642V6.94168V6.95694V6.9722V6.98746V7.00273V7.01799V7.03325V7.04851V7.06378V7.07904V7.0943V7.10956V7.12482V7.14009V7.15535V7.17061V7.18587V7.20114V7.2164V7.23166V7.24692V7.26218V7.27745V7.29271V7.30797V7.32323V7.33849V7.35376V7.36902V7.38428V7.39954V7.41481V7.43007V7.44533V7.46059V7.47585V7.49112V7.50638V7.52164V7.5369V7.55216V7.56743V7.58269V7.59795V7.61321V7.62847V7.64374V7.659V7.67426V7.68952V7.70478V7.72005V7.73531V7.75057V7.76583V7.78109V7.79636V7.81162V7.82688V7.84214V7.8574V7.87266V7.88793V7.90319V7.91845V7.93371V7.94897V7.96424V7.9795V7.99476V8.01002V8.02528V8.04055V8.05581V8.07107V8.08633V8.10159V8.11685V8.13212V8.14738V8.16264V8.1779V8.19316V8.20843V8.22369V8.23895V8.25421V8.26947V8.28473V8.3V8.31526V8.33052V8.34578V8.36104V8.3763V8.39157V8.40683V8.42209V8.43735V8.45261V8.46787V8.48314V8.4984V8.51366V8.52892V8.54418V8.55944V8.57471V8.58997V8.60523V8.62049V8.63575V8.65101V8.66628V8.68154V8.6968V8.71206V8.72732V8.74258V8.75785V8.77311V8.78837V8.80363V8.81889V8.83415V8.84941V8.86468V8.87994V8.8952V8.91046V8.92572V8.94098V8.95625V8.97151V8.98677V9.00203V9.01729V9.03255V9.04781V9.06308V9.07834V9.0936V9.10886V9.12412V9.13938V9.15464V9.16991V9.18517V9.20043V9.21569V9.23095V9.24621V9.26147V9.27674V9.292V9.30726V9.32252V9.33778V9.35304V9.3683V9.38356V9.39883V9.41409V9.42935V9.44461V9.45987V9.47513V9.49039V9.50566V9.52092V9.53618V9.55144V9.5667V9.58196V9.59722V9.61248V9.62775V9.64301V9.65827V9.67353V9.68879V9.70405V9.71931V9.73457V9.74984V9.7651V9.78036V9.79562V9.81088V9.82614V9.8414V9.85666V9.87192V9.88719V9.90245V9.91771V9.93297V9.94823V9.96349V9.97875V9.99401V10.0093V10.0245V10.0398V10.0551V10.0703V10.0856V10.1008V10.1161V10.1314V10.1466V10.1619V10.1771V10.1924V10.2077V10.2229V10.2382V10.2535V10.2687V10.284V10.2992V10.3145V10.3298V10.345V10.3603V10.3755V10.3908V10.4061V10.4213V10.4366V10.4518V10.4671V10.4824V10.4976V10.5129V10.5281V10.5434V10.5587V10.5739V10.5892V10.6045V10.6197V10.635V10.6502V10.6655V10.6808V10.696V10.7113V10.7265V10.7418V10.7571V10.7723V10.7876V10.8028V10.8181V10.8334V10.8486V10.8639V10.8791V10.8944V10.9097V10.9249V10.9402V10.9555V10.9707V10.986V11.0012V11.0165V11.0318V11.047V11.0623V11.0775V11.0928V11.1081V11.1233V11.1386V11.1538V11.1691V11.1844V11.1996V11.2149V11.2301V11.2454V11.2607V11.2759V11.2912V11.3064V11.3217V11.337V11.3522V11.3675V11.3827V11.398V11.4133V11.4285V11.4438V11.4591V11.4743V11.4896V11.5048V11.5201V11.5354V11.5506V11.5659V11.5811V11.5964V11.6117V11.6269V11.6422V11.6574V11.6727V11.688V11.7032V11.7185V11.7337V11.749V11.7643V11.7795V11.7948V11.81V11.8253V11.8406V11.8558V11.8711V11.8863V11.9016V11.9169V11.9321V11.9474V11.9626V11.9779V11.9932V12.0084V12.0237V12.0389V12.0542V12.0695V12.0847V12.1V12.1152V12.1305V12.1458V12.161V12.1763V12.1915V12.2068V12.2221V12.2373V12.2526V12.2678V12.2831V12.2984V12.3136V12.3289V12.3442V12.3594V12.3747V12.3899V12.4052V12.4205V12.4357V12.451V12.4662V12.4815V12.4968V12.512V12.5273V12.5425V12.5578V12.5731V12.5883V12.6036V12.6188V12.6341V12.6494V12.6646V12.6799V12.6951V12.7104V12.7257V12.7409V12.7562V12.7714V12.7867V12.802V12.8172V12.8325V12.8477V12.863V12.8783V12.8935V12.9088V12.924V12.9393V12.9546V12.9698V12.9851V13.0003V13.0156V13.0309V13.0461V13.0614V13.0766V13.0919V13.1072V13.1224V13.1377V13.1529V13.1682V13.1835V13.1987V13.214V13.2292V13.2445V13.2598V13.275V13.2903V13.3055V13.3208V13.3361V13.3513V13.3666V13.3818V13.3971V13.4123V13.4276V13.4429V13.4581V13.4734V13.4886V13.5039V13.5192V13.5344V13.5497V13.5649V13.5802V13.5955V13.6107V13.626V13.6412V13.6565V13.6718V13.687V13.7023V13.7175V13.7328V13.7481V13.7633V13.7786V13.7938V13.8091V13.8244V13.8396V13.8549V13.8701V13.8854V13.9007V13.9159V13.9312V13.9464V13.9617V13.977V13.9922V14.0075V14.0227V14.038V14.0533V14.0685V14.0838V14.099V14.1143V14.1296V14.1448V14.1601V14.1753C37.3403 14.6648 37.3393 15.1534 37.3382 15.6415C37.3362 16.6159 37.3341 17.5883 37.3403 18.5621L37.3403 18.5661C37.3393 18.8359 37.4339 19.0973 37.6074 19.3039C37.7809 19.5105 38.022 19.6489 38.2879 19.6945L38.2944 19.6956L38.2944 19.6957C38.799 19.7909 39.3368 19.5016 39.5595 18.968C39.5832 18.9105 39.6073 18.8519 39.6319 18.793V5.51704C39.6111 5.42918 39.5912 5.34321 39.5715 5.25842C39.5263 5.06336 39.4826 4.87449 39.4325 4.68305C38.755 2.1572 36.5054 0.40083 33.902 0.40083H33.9017C24.8426 0.392103 15.7838 0.392103 6.72531 0.40083L6.72493 0.00654536M19.5422 35.5487C19.6412 35.6741 19.7426 35.7927 19.8484 35.8811C19.9549 35.9702 20.1084 36.0647 20.3062 36.0632C20.5032 36.0618 20.6553 35.9656 20.7603 35.8764C20.865 35.7874 20.9657 35.6686 21.064 35.543L21.0641 35.5429C21.4412 35.061 21.8192 34.5792 22.1975 34.0973C23.1653 32.864 24.1343 31.6292 25.0925 30.3851L25.0926 30.385C25.2772 30.1451 25.4672 29.9856 25.6724 29.8843C25.8772 29.7832 26.1185 29.7295 26.4209 29.7317C28.2781 29.7472 30.1357 29.7443 31.9926 29.7415C32.5494 29.7407 33.1062 29.7398 33.6628 29.7395C34.7089 29.7394 35.6089 29.411 36.2625 28.7904C36.9163 28.1697 37.2897 27.2891 37.3429 26.2482L37.343 26.2482L37.3432 26.2387C37.3504 25.9733 37.4489 25.7185 37.622 25.5173C37.7952 25.316 38.0324 25.1806 38.2938 25.1338L38.2973 25.1332C38.8039 25.0377 39.3394 25.3259 39.5619 25.8618L39.5632 25.8647C39.587 25.9207 39.6105 25.9773 39.6342 26.035V26.8621C39.6172 26.9 39.6025 26.939 39.5904 26.9789L39.5831 27.0028L39.5789 27.0275C39.0604 30.0809 36.7604 32.0311 33.6703 32.0311C33.1404 32.0311 32.6107 32.0315 32.0812 32.032C30.4935 32.0335 28.9074 32.0349 27.3226 32.0234H27.3197C27.1228 32.0234 26.9357 32.0563 26.7603 32.1462C26.5865 32.2351 26.454 32.3645 26.342 32.5095C25.1482 34.0499 23.9565 35.5875 22.7406 37.1094C22.0586 37.9595 21.1631 38.3621 20.2859 38.3563C19.4081 38.3505 18.5134 37.9355 17.8353 37.0802C16.6185 35.5432 15.4069 34.0045 14.2004 32.464C14.0977 32.3202 13.9599 32.205 13.8002 32.1293C13.6416 32.0541 13.4666 32.0204 13.2916 32.0311L19.5422 35.5487ZM6.72493 0.00654536C5.25358 0.0117529 3.83299 0.544987 2.72163 1.50923C1.61027 2.47347 0.881998 3.80465 0.66931 5.26055L40.0262 5.47077C40.0028 5.37286 39.9801 5.27478 39.9574 5.17673L39.9573 5.17656L39.9573 5.17639C39.9112 4.97766 39.8652 4.77904 39.8137 4.58214C39.0914 1.88699 36.6881 0.00654536 33.902 0.00654536C24.8427 -0.00218179 15.7837 -0.00218179 6.72493 0.00654536ZM20.3212 24.6363L20.3215 24.6363C20.9685 24.6324 21.4589 24.1491 21.4589 23.3612V23.3533V23.3454V23.3375V23.3297V23.3218V23.3139V23.3061V23.2982V23.2903V23.2824V23.2746V23.2667V23.2588V23.2509V23.2431V23.2352V23.2273V23.2194V23.2116V23.2037V23.1958V23.1879V23.1801V23.1722V23.1643V23.1564V23.1486V23.1407V23.1328V23.1249V23.117V23.1092V23.1013V23.0934V23.0855V23.0777V23.0698V23.0619V23.054V23.0462V23.0383V23.0304V23.0225V23.0146V23.0068V22.9989V22.991V22.9831V22.9753V22.9674V22.9595V22.9516V22.9437V22.9359V22.928V22.9201V22.9122V22.9043V22.8965V22.8886V22.8807V22.8728V22.8649V22.8571V22.8492V22.8413V22.8334V22.8256V22.8177V22.8098V22.8019V22.794V22.7861V22.7783V22.7704V22.7625V22.7546V22.7467V22.7389V22.731V22.7231V22.7152V22.7073V22.6995V22.6916V22.6837V22.6758V22.6679V22.6601V22.6522V22.6443V22.6364V22.6285V22.6206V22.6128V22.6049V22.597V22.5891V22.5812V22.5733V22.5655V22.5576V22.5497V22.5418V22.5339V22.5261V22.5182V22.5103V22.5024V22.4945V22.4866V22.4788V22.4709V22.463V22.4551V22.4472V22.4393V22.4314V22.4236V22.4157V22.4078V22.3999V22.392V22.3841V22.3763V22.3684V22.3605V22.3526V22.3447V22.3368V22.329V22.3211V22.3132V22.3053V22.2974V22.2895V22.2816V22.2738V22.2659V22.258V22.2501V22.2422V22.2343V22.2264V22.2186V22.2107V22.2028V22.1949V22.187V22.1791V22.1712V22.1634V22.1555V22.1476V22.1397V22.1318V22.1239V22.116V22.1081V22.1003V22.0924V22.0845V22.0766V22.0687V22.0608V22.0529V22.0451V22.0372V22.0293V22.0214V22.0135V22.0056V21.9977V21.9898V21.982V21.9741V21.9662V21.9583V21.9504V21.9425V21.9346V21.9267V21.9188V21.911V21.9031V21.8952V21.8873V21.8794V21.8715V21.8636V21.8557V21.8479V21.84V21.8321V21.8242V21.8163V21.8084V21.8005V21.7926V21.7847V21.7769V21.769V21.7611V21.7532V21.7453V21.7374V21.7295V21.7216V21.7137V21.7059V21.698V21.6901V21.6822V21.6743V21.6664V21.6585V21.6506V21.6427V21.6348V21.627V21.6191V21.6112V21.6033V21.5954V21.5875V21.5796V21.5717V21.5638V21.5559V21.5481V21.5402V21.5323V21.5244V21.5165V21.5086V21.5007V21.4928V21.4849V21.477V21.4691V21.4613V21.4534V21.4455V21.4376V21.4297V21.4218V21.4139V21.406V21.3981V21.3902V21.3823V21.3745V21.3666V21.3587V21.3508V21.3429V21.335V21.3271V21.3192V21.3113V21.3034V21.2955V21.2876V21.2798V21.2719V21.264V21.2561V21.2482V21.2403V21.2324V21.2245V21.2166V21.2087V21.2008V21.1929V21.1851V21.1772V21.1693V21.1614V21.1535V21.1456V21.1377V21.1298V21.1219V21.114V21.1061V21.0982V21.0903V21.0825V21.0746V21.0667V21.0588V21.0509V21.043V21.0351V21.0272V21.0193V21.0114V21.0035V20.9956V20.9877V20.9798V20.972V20.9641V20.9562V20.9483V20.9404V20.9325V20.9246V20.9167V20.9088V20.9009V20.893V20.8851V20.8772V20.8693V20.8615V20.8536V20.8457V20.8378V20.8299V20.822V20.8141V20.8062V20.7983V20.7904V20.7825V20.7746V20.7667V20.7588V20.7509V20.7431V20.7352V20.7273V20.7194V20.7115V20.7036V20.6957V20.6878V20.6799V20.672V20.6641V20.6562V20.6483V20.6404V20.6325V20.6247V20.6168V20.6089V20.601V20.5931V20.5852V20.5773V20.5694V20.5615V20.5536V20.5457V20.5378V20.5299V20.522V20.5141V20.5063V20.4984V20.4905V20.4826V20.4747V20.4668V20.4589V20.451V20.4431V20.4352V20.4273V20.4194V20.4115V20.4036V20.3957V20.3878V20.38V20.3721V20.3642V20.3563V20.3484V20.3405V20.3326V20.3247V20.3168V20.3089V20.301V20.2931V20.2852V20.2773V20.2694V20.2615V20.2537V20.2458V20.2379V20.23V20.2221V20.2142V20.2063V20.1984V20.1905V20.1826V20.1747V20.1668V20.1589V20.151V20.1431V20.1353V20.1274V20.1195V20.1116V20.1037V20.0958V20.0879V20.08V20.0721V20.0642V20.0563V20.0484V20.0405V20.0326V20.0247V20.0168V20.009V20.0011V19.9932V19.9853V19.9774V19.9695V19.9616V19.9537V19.9458V19.9379V19.93V19.9221V19.9142V19.9063V19.8984V19.8906V19.8827V19.8748V19.8669V19.859V19.8511V19.8432V19.8353V19.8274V19.8195V19.8116V19.8037V19.7958V19.7879V19.7801V19.7722V19.7643V19.7564V19.7485V19.7406V19.7327V19.7248V19.7169V19.709V19.7011V19.6932V19.6853V19.6774V19.6695V19.6617V19.6538V19.6459V19.638V19.6301V19.6222V19.6143V19.6064V19.5985V19.5906V19.5827V19.5748V19.5669V19.5591V19.5512V19.5433V19.5354V19.5275V19.5196V19.5117V19.5038V19.4959V19.488V19.4801V19.4722V19.4643V19.4565V19.4486V19.4407V19.4328V19.4249V19.417V19.4091V19.4012V19.3933V19.3854V19.3775V19.3696V19.3618V19.3539V19.346V19.3381V19.3302V19.3223L20.3212 24.6363ZM20.3212 24.6363C19.9755 24.6387 19.6961 24.509 19.5 24.2955M20.3212 24.6363L19.5 24.2955M19.5 24.2955C19.3016 24.0794 19.1692 23.7553 19.1688 23.3432M19.5 24.2955L19.1688 23.3432M19.1688 23.3432V23.3278M19.1688 23.3432V23.3278M19.1688 23.3278V23.3121M19.1688 23.3278V23.3121M19.1688 23.3121V23.2964M19.1688 23.3121V23.2964M19.1688 23.2964V23.2807M19.1688 23.2964V23.2807M19.1688 23.2807V23.265M19.1688 23.2807V23.265M19.1688 23.265V23.2493M19.1688 23.265V23.2493M19.1688 23.2493V23.2336M19.1688 23.2493V23.2336M19.1688 23.2336V23.2179M19.1688 23.2336V23.2179M19.1688 23.2179V23.2022M19.1688 23.2179V23.2022M19.1688 23.2022V23.1865M19.1688 23.2022V23.1865M19.1688 23.1865V23.1708M19.1688 23.1865V23.1708M19.1688 23.1708V23.1551M19.1688 23.1708V23.1551M19.1688 23.1551V23.1394M19.1688 23.1551V23.1394M19.1688 23.1394V23.1237M19.1688 23.1394V23.1237M19.1688 23.1237V23.108M19.1688 23.1237V23.108M19.1688 23.108V23.0923M19.1688 23.108V23.0923M19.1688 23.0923V23.0766M19.1688 23.0923V23.0766M19.1688 23.0766V23.0609M19.1688 23.0766V23.0609M19.1688 23.0609V23.0452M19.1688 23.0609V23.0452M19.1688 23.0452V23.0295M19.1688 23.0452V23.0295M19.1688 23.0295V23.0138M19.1688 23.0295V23.0138M19.1688 23.0138V22.9981M19.1688 23.0138V22.9981M19.1688 22.9981V22.9824M19.1688 22.9981V22.9824M19.1688 22.9824V22.9667M19.1688 22.9824V22.9667M19.1688 22.9667V22.951M19.1688 22.9667V22.951M19.1688 22.951V22.9353M19.1688 22.951V22.9353M19.1688 22.9353V22.9196M19.1688 22.9353V22.9196M19.1688 22.9196V22.9039M19.1688 22.9196V22.9039M19.1688 22.9039V22.8882M19.1688 22.9039V22.8882M19.1688 22.8882V22.8725M19.1688 22.8882V22.8725M19.1688 22.8725V22.8568M19.1688 22.8725V22.8568M19.1688 22.8568V22.8411M19.1688 22.8568V22.8411M19.1688 22.8411V22.8254M19.1688 22.8411V22.8254M19.1688 22.8254V22.8097M19.1688 22.8254V22.8097M19.1688 22.8097V22.794M19.1688 22.8097V22.794M19.1688 22.794V22.7783M19.1688 22.794V22.7783M19.1688 22.7783V22.7626M19.1688 22.7783V22.7626M19.1688 22.7626V22.7469M19.1688 22.7626V22.7469M19.1688 22.7469V22.7312M19.1688 22.7469V22.7312M19.1688 22.7312V22.7155M19.1688 22.7312V22.7155M19.1688 22.7155V22.6998M19.1688 22.7155V22.6998M19.1688 22.6998V22.6841M19.1688 22.6998V22.6841M19.1688 22.6841V22.6684M19.1688 22.6841V22.6684M19.1688 22.6684V22.6527M19.1688 22.6684V22.6527M19.1688 22.6527V22.637M19.1688 22.6527V22.637M19.1688 22.637V22.6213M19.1688 22.637V22.6213M19.1688 22.6213V22.6056M19.1688 22.6213V22.6056M19.1688 22.6056V22.5899M19.1688 22.6056V22.5899M19.1688 22.5899V22.5742M19.1688 22.5899V22.5742M19.1688 22.5742V22.5585M19.1688 22.5742V22.5585M19.1688 22.5585V22.5428M19.1688 22.5585V22.5428M19.1688 22.5428V22.5271M19.1688 22.5428V22.5271M19.1688 22.5271V22.5114M19.1688 22.5271V22.5114M19.1688 22.5114V22.4957M19.1688 22.5114V22.4957M19.1688 22.4957V22.48M19.1688 22.4957V22.48M19.1688 22.48V22.4643M19.1688 22.48V22.4643M19.1688 22.4643V22.4486M19.1688 22.4643V22.4486M19.1688 22.4486V22.4329M19.1688 22.4486V22.4329M19.1688 22.4329V22.4172M19.1688 22.4329V22.4172M19.1688 22.4172V22.4015M19.1688 22.4172V22.4015M19.1688 22.4015V22.3858M19.1688 22.4015V22.3858M19.1688 22.3858V22.3701M19.1688 22.3858V22.3701M19.1688 22.3701V22.3544M19.1688 22.3701V22.3544M19.1688 22.3544V22.3387M19.1688 22.3544V22.3387M19.1688 22.3387V22.323M19.1688 22.3387V22.323M19.1688 22.323V22.3073M19.1688 22.323V22.3073M19.1688 22.3073V22.2916M19.1688 22.3073V22.2916M19.1688 22.2916V22.2759M19.1688 22.2916V22.2759M19.1688 22.2759V22.2602M19.1688 22.2759V22.2602M19.1688 22.2602V22.2445M19.1688 22.2602V22.2445M19.1688 22.2445V22.2288M19.1688 22.2445V22.2288M19.1688 22.2288V22.2131M19.1688 22.2288V22.2131M19.1688 22.2131V22.1974M19.1688 22.2131V22.1974M19.1688 22.1974V22.1817M19.1688 22.1974V22.1817M19.1688 22.1817V22.166M19.1688 22.1817V22.166M19.1688 22.166V22.1503M19.1688 22.166V22.1503M19.1688 22.1503V22.1346M19.1688 22.1503V22.1346M19.1688 22.1346V22.1189M19.1688 22.1346V22.1189M19.1688 22.1189V22.1032M19.1688 22.1189V22.1032M19.1688 22.1032V22.0875M19.1688 22.1032V22.0875M19.1688 22.0875V22.0718M19.1688 22.0875V22.0718M19.1688 22.0718V22.0562M19.1688 22.0718V22.0562M19.1688 22.0562V22.0405M19.1688 22.0562V22.0405M19.1688 22.0405V22.0248M19.1688 22.0405V22.0248M19.1688 22.0248V22.0091M19.1688 22.0248V22.0091M19.1688 22.0091V21.9934M19.1688 22.0091V21.9934M19.1688 21.9934V21.9777M19.1688 21.9934V21.9777M19.1688 21.9777V21.962M19.1688 21.9777V21.962M19.1688 21.962V21.9463M19.1688 21.962V21.9463M19.1688 21.9463V21.9306M19.1688 21.9463V21.9306M19.1688 21.9306V21.9149M19.1688 21.9306V21.9149M19.1688 21.9149V21.8992M19.1688 21.9149V21.8992M19.1688 21.8992V21.8835M19.1688 21.8992V21.8835M19.1688 21.8835V21.8678M19.1688 21.8835V21.8678M19.1688 21.8678V21.8521M19.1688 21.8678V21.8521M19.1688 21.8521V21.8364M19.1688 21.8521V21.8364M19.1688 21.8364V21.8207M19.1688 21.8364V21.8207M19.1688 21.8207V21.805M19.1688 21.8207V21.805M19.1688 21.805V21.7893M19.1688 21.805V21.7893M19.1688 21.7893V21.7736M19.1688 21.7893V21.7736M19.1688 21.7736V21.7579M19.1688 21.7736V21.7579M19.1688 21.7579V21.7422M19.1688 21.7579V21.7422M19.1688 21.7422V21.7265M19.1688 21.7422V21.7265M19.1688 21.7265V21.7108M19.1688 21.7265V21.7108M19.1688 21.7108V21.6951M19.1688 21.7108V21.6951M19.1688 21.6951V21.6794M19.1688 21.6951V21.6794M19.1688 21.6794V21.6637M19.1688 21.6794V21.6637M19.1688 21.6637V21.648M19.1688 21.6637V21.648M19.1688 21.648V21.6323M19.1688 21.648V21.6323M19.1688 21.6323V21.6166M19.1688 21.6323V21.6166M19.1688 21.6166V21.6009M19.1688 21.6166V21.6009M19.1688 21.6009V21.5852M19.1688 21.6009V21.5852M19.1688 21.5852V21.5695M19.1688 21.5852V21.5695M19.1688 21.5695V21.5538M19.1688 21.5695V21.5538M19.1688 21.5538V21.5381M19.1688 21.5538V21.5381M19.1688 21.5381V21.5224M19.1688 21.5381V21.5224M19.1688 21.5224V21.5067M19.1688 21.5224V21.5067M19.1688 21.5067V21.491M19.1688 21.5067V21.491M19.1688 21.491V21.4753M19.1688 21.491V21.4753M19.1688 21.4753V21.4596M19.1688 21.4753V21.4596M19.1688 21.4596V21.4439M19.1688 21.4596V21.4439M19.1688 21.4439V21.4282M19.1688 21.4439V21.4282M19.1688 21.4282V21.4125M19.1688 21.4282V21.4125M19.1688 21.4125V21.3968M19.1688 21.4125V21.3968M19.1688 21.3968V21.3811M19.1688 21.3968V21.3811M19.1688 21.3811V21.3654M19.1688 21.3811V21.3654M19.1688 21.3654V21.3497M19.1688 21.3654V21.3497M19.1688 21.3497V21.334M19.1688 21.3497V21.334M19.1688 21.334V21.3183M19.1688 21.334V21.3183M19.1688 21.3183V21.3026M19.1688 21.3183V21.3026M19.1688 21.3026V21.2869M19.1688 21.3026V21.2869M19.1688 21.2869V21.2712M19.1688 21.2869V21.2712M19.1688 21.2712V21.2555M19.1688 21.2712V21.2555M19.1688 21.2555V21.2398M19.1688 21.2555V21.2398M19.1688 21.2398V21.2241M19.1688 21.2398V21.2241M19.1688 21.2241V21.2084M19.1688 21.2241V21.2084M19.1688 21.2084V21.1927M19.1688 21.2084V21.1927M19.1688 21.1927V21.177M19.1688 21.1927V21.177M19.1688 21.177V21.1613M19.1688 21.177V21.1613M19.1688 21.1613V21.1456M19.1688 21.1613V21.1456M19.1688 21.1456V21.1299M19.1688 21.1456V21.1299M19.1688 21.1299V21.1142M19.1688 21.1299V21.1142M19.1688 21.1142V21.0985M19.1688 21.1142V21.0985M19.1688 21.0985V21.0828M19.1688 21.0985V21.0828M19.1688 21.0828V21.0671M19.1688 21.0828V21.0671M19.1688 21.0671V21.0514M19.1688 21.0671V21.0514M19.1688 21.0514V21.0357M19.1688 21.0514V21.0357M19.1688 21.0357V21.02M19.1688 21.0357V21.02M19.1688 21.02V21.0043M19.1688 21.02V21.0043M19.1688 21.0043V20.9886M19.1688 21.0043V20.9886M19.1688 20.9886V20.9729M19.1688 20.9886V20.9729M19.1688 20.9729V20.9572M19.1688 20.9729V20.9572M19.1688 20.9572V20.9415M19.1688 20.9572V20.9415M19.1688 20.9415V20.9258M19.1688 20.9415V20.9258M19.1688 20.9258V20.9101M19.1688 20.9258V20.9101M19.1688 20.9101V20.8944M19.1688 20.9101V20.8944M19.1688 20.8944V20.8787M19.1688 20.8944V20.8787M19.1688 20.8787V20.863M19.1688 20.8787V20.863M19.1688 20.863V20.8473M19.1688 20.863V20.8473M19.1688 20.8473V20.8316M19.1688 20.8473V20.8316M19.1688 20.8316V20.8159M19.1688 20.8316V20.8159M19.1688 20.8159V20.8002M19.1688 20.8159V20.8002M19.1688 20.8002V20.7845M19.1688 20.8002V20.7845M19.1688 20.7845V20.7688M19.1688 20.7845V20.7688M19.1688 20.7688V20.7531M19.1688 20.7688V20.7531M19.1688 20.7531V20.7374M19.1688 20.7531V20.7374M19.1688 20.7374V20.7217M19.1688 20.7374V20.7217M19.1688 20.7217V20.706M19.1688 20.7217V20.706M19.1688 20.706V20.6903M19.1688 20.706V20.6903M19.1688 20.6903V20.6746M19.1688 20.6903V20.6746M19.1688 20.6746V20.6589M19.1688 20.6746V20.6589M19.1688 20.6589V20.6432M19.1688 20.6589V20.6432M19.1688 20.6432V20.6275M19.1688 20.6432V20.6275M19.1688 20.6275V20.6118M19.1688 20.6275V20.6118M19.1688 20.6118V20.5961M19.1688 20.6118V20.5961M19.1688 20.5961V20.5804M19.1688 20.5961V20.5804M19.1688 20.5804V20.5647M19.1688 20.5804V20.5647M19.1688 20.5647V20.549M19.1688 20.5647V20.549M19.1688 20.549V20.5333M19.1688 20.549V20.5333M19.1688 20.5333V20.5176M19.1688 20.5333V20.5176M19.1688 20.5176V20.5019M19.1688 20.5176V20.5019M19.1688 20.5019V20.4862M19.1688 20.5019V20.4862M19.1688 20.4862V20.4705M19.1688 20.4862V20.4705M19.1688 20.4705V20.4548M19.1688 20.4705V20.4548M19.1688 20.4548V20.4391M19.1688 20.4548V20.4391M19.1688 20.4391V20.4234M19.1688 20.4391V20.4234M19.1688 20.4234V20.4077M19.1688 20.4234V20.4077M19.1688 20.4077V20.392M19.1688 20.4077V20.392M19.1688 20.392V20.3763M19.1688 20.392V20.3763M19.1688 20.3763V20.3606M19.1688 20.3763V20.3606M19.1688 20.3606V20.3449M19.1688 20.3606V20.3449M19.1688 20.3449V20.3292M19.1688 20.3449V20.3292M19.1688 20.3292V20.3135M19.1688 20.3292V20.3135M19.1688 20.3135V20.2978M19.1688 20.3135V20.2978M19.1688 20.2978V20.2821M19.1688 20.2978V20.2821M19.1688 20.2821V20.2664M19.1688 20.2821V20.2664M19.1688 20.2664V20.2507M19.1688 20.2664V20.2507M19.1688 20.2507V20.235M19.1688 20.2507V20.235M19.1688 20.235V20.2193M19.1688 20.235V20.2193M19.1688 20.2193V20.2036M19.1688 20.2193V20.2036M19.1688 20.2036V20.1879M19.1688 20.2036V20.1879M19.1688 20.1879V20.1722M19.1688 20.1879V20.1722M19.1688 20.1722V20.1565M19.1688 20.1722V20.1565M19.1688 20.1565V20.1408M19.1688 20.1565V20.1408M19.1688 20.1408V20.1251M19.1688 20.1408V20.1251M19.1688 20.1251V20.1094M19.1688 20.1251V20.1094M19.1688 20.1094V20.0937M19.1688 20.1094V20.0937M19.1688 20.0937V20.078M19.1688 20.0937V20.078M19.1688 20.078V20.0623M19.1688 20.078V20.0623M19.1688 20.0623V20.0466M19.1688 20.0623V20.0466M19.1688 20.0466V20.0309M19.1688 20.0466V20.0309M19.1688 20.0309V20.0152M19.1688 20.0309V20.0152M19.1688 20.0152V19.9995M19.1688 20.0152V19.9995M19.1688 19.9995V19.9838M19.1688 19.9995V19.9838M19.1688 19.9838V19.9681M19.1688 19.9838V19.9681M19.1688 19.9681V19.9524M19.1688 19.9681V19.9524M19.1688 19.9524V19.9367M19.1688 19.9524V19.9367M19.1688 19.9367V19.921M19.1688 19.9367V19.921M19.1688 19.921V19.9053M19.1688 19.921V19.9053M19.1688 19.9053V19.8896M19.1688 19.9053V19.8896M19.1688 19.8896V19.8739M19.1688 19.8896V19.8739M19.1688 19.8739V19.8582M19.1688 19.8739V19.8582M19.1688 19.8582V19.8425M19.1688 19.8582V19.8425M19.1688 19.8425V19.8268M19.1688 19.8425V19.8268M19.1688 19.8268V19.8111M19.1688 19.8268V19.8111M19.1688 19.8111V19.7954M19.1688 19.8111V19.7954M19.1688 19.7954V19.7797M19.1688 19.7954V19.7797M19.1688 19.7797V19.764M19.1688 19.7797V19.764M19.1688 19.764V19.7483M19.1688 19.764V19.7483M19.1688 19.7483V19.7326M19.1688 19.7483V19.7326M19.1688 19.7326V19.7169M19.1688 19.7326V19.7169M19.1688 19.7169V19.7012M19.1688 19.7169V19.7012M19.1688 19.7012V19.6855M19.1688 19.7012V19.6855M19.1688 19.6855V19.6698M19.1688 19.6855V19.6698M19.1688 19.6698V19.6541M19.1688 19.6698V19.6541M19.1688 19.6541V19.6384M19.1688 19.6541V19.6384M19.1688 19.6384V19.6227M19.1688 19.6384V19.6227M19.1688 19.6227V19.607M19.1688 19.6227V19.607M19.1688 19.607V19.5913M19.1688 19.607V19.5913M19.1688 19.5913V19.5756M19.1688 19.5913V19.5756M19.1688 19.5756V19.5599M19.1688 19.5756V19.5599M19.1688 19.5599V19.5442M19.1688 19.5599V19.5442M19.1688 19.5442V19.5285M19.1688 19.5442V19.5285M19.1688 19.5285V19.5128M19.1688 19.5285V19.5128M19.1688 19.5128V19.4971M19.1688 19.5128V19.4971M19.1688 19.4971V19.4814M19.1688 19.4971V19.4814M19.1688 19.4814V19.4657M19.1688 19.4814V19.4657M19.1688 19.4657V19.45M19.1688 19.4657V19.45M19.1688 19.45V19.4343M19.1688 19.45V19.4343M19.1688 19.4343V19.4186M19.1688 19.4343V19.4186M19.1688 19.4186V19.4029M19.1688 19.4186V19.4029M19.1688 19.4029V19.3872M19.1688 19.4029V19.3872M19.1688 19.3872V19.3715M19.1688 19.3872V19.3715M19.1688 19.3715V19.3558M19.1688 19.3715V19.3558M19.1688 19.3558V19.3401M19.1688 19.3558V19.3401M19.1688 19.3401V19.3244M19.1688 19.3401V19.3244M19.1688 19.3244V19.3087M19.1688 19.3244V19.3087M19.1688 19.3087V19.293M19.1688 19.3087V19.293M19.1688 19.293V19.2773M19.1688 19.293V19.2773M19.1688 19.2773V19.2616M19.1688 19.2773V19.2616M19.1688 19.2616V19.2459M19.1688 19.2616V19.2459M19.1688 19.2459V19.2302M19.1688 19.2459V19.2302M19.1688 19.2302V19.2145M19.1688 19.2302V19.2145M19.1688 19.2145V19.1988M19.1688 19.2145V19.1988M19.1688 19.1988V19.1831M19.1688 19.1988V19.1831M19.1688 19.1831V19.1674M19.1688 19.1831V19.1674M19.1688 19.1674V19.1517M19.1688 19.1674V19.1517M19.1688 19.1517V19.136M19.1688 19.1517V19.136M19.1688 19.136V19.1203M19.1688 19.136V19.1203M19.1688 19.1203V19.1046M19.1688 19.1203V19.1046M19.1688 19.1046V19.0889M19.1688 19.1046V19.0889M19.1688 19.0889V19.0732M19.1688 19.0889V19.0732M19.1688 19.0732V19.0575M19.1688 19.0732V19.0575M19.1688 19.0575V19.0418M19.1688 19.0575V19.0418M19.1688 19.0418V19.0261M19.1688 19.0418V19.0261M19.1688 19.0261V19.0104M19.1688 19.0261V19.0104M19.1688 19.0104V18.9947M19.1688 19.0104V18.9947M19.1688 18.9947V18.979M19.1688 18.9947V18.979M19.1688 18.979V18.9633M19.1688 18.979V18.9633M19.1688 18.9633V18.9476M19.1688 18.9633V18.9476M19.1688 18.9476V18.9319M19.1688 18.9476V18.9319M19.1688 18.9319V18.9162M19.1688 18.9319V18.9162M19.1688 18.9162V18.9005M19.1688 18.9162V18.9005M19.1688 18.9005V18.8848M19.1688 18.9005V18.8848M19.1688 18.8848V18.8691M19.1688 18.8848V18.8691M19.1688 18.8691V18.8534M19.1688 18.8691V18.8534M19.1688 18.8534V18.8377M19.1688 18.8534V18.8377M19.1688 18.8377V18.822M19.1688 18.8377V18.822M19.1688 18.822V18.8063M19.1688 18.822V18.8063M19.1688 18.8063V18.7906M19.1688 18.8063V18.7906M19.1688 18.7906V18.7749M19.1688 18.7906V18.7749M19.1688 18.7749V18.7592M19.1688 18.7749V18.7592M19.1688 18.7592V18.7435M19.1688 18.7592V18.7435M19.1688 18.7435V18.7278M19.1688 18.7435V18.7278M19.1688 18.7278V18.7121M19.1688 18.7278V18.7121M19.1688 18.7121V18.6964M19.1688 18.7121V18.6964M19.1688 18.6964V18.6807M19.1688 18.6964V18.6807M19.1688 18.6807V18.665M19.1688 18.6807V18.665M19.1688 18.665V18.6493M19.1688 18.665V18.6493M19.1688 18.6493V18.6336M19.1688 18.6493V18.6336M19.1688 18.6336V18.6179M19.1688 18.6336V18.6179M19.1688 18.6179V18.6022M19.1688 18.6179V18.6022M19.1688 18.6022V18.5865M19.1688 18.6022V18.5865M19.1688 18.5865V18.5708M19.1688 18.5865V18.5708M19.1688 18.5708V18.5551M19.1688 18.5708V18.5551M19.1688 18.5551V18.5394M19.1688 18.5551V18.5394M19.1688 18.5394V18.5237M19.1688 18.5394V18.5237M19.1688 18.5237V18.508M19.1688 18.5237V18.508M19.1688 18.508V18.4923M19.1688 18.508V18.4923M19.1688 18.4923V18.4766M19.1688 18.4923V18.4766M19.1688 18.4766V18.4609M19.1688 18.4766V18.4609M19.1688 18.4609V18.4452M19.1688 18.4609V18.4452M19.1688 18.4452V18.4295M19.1688 18.4452V18.4295M19.1688 18.4295V18.4138M19.1688 18.4295V18.4138M19.1688 18.4138V18.3981M19.1688 18.4138V18.3981M19.1688 18.3981V18.3824M19.1688 18.3981V18.3824M19.1688 18.3824V18.3667M19.1688 18.3824V18.3667M19.1688 18.3667V18.351M19.1688 18.3667V18.351M19.1688 18.351V18.3353M19.1688 18.351V18.3353M19.1688 18.3353V18.3196M19.1688 18.3353V18.3196M19.1688 18.3196V18.3039M19.1688 18.3196V18.3039M19.1688 18.3039V18.2882M19.1688 18.3039V18.2882M19.1688 18.2882V18.2725M19.1688 18.2882V18.2725M19.1688 18.2725V18.2568M19.1688 18.2725V18.2568M19.1688 18.2568V18.2411M19.1688 18.2568V18.2411M19.1688 18.2411V18.2254M19.1688 18.2411V18.2254M19.1688 18.2254V18.2097M19.1688 18.2254V18.2097M19.1688 18.2097V18.194M19.1688 18.2097V18.194M19.1688 18.194V18.1783M19.1688 18.194V18.1783M19.1688 18.1783V18.1626M19.1688 18.1783V18.1626M19.1688 18.1626V18.1469M19.1688 18.1626V18.1469M19.1688 18.1469V18.1312M19.1688 18.1469V18.1312M19.1688 18.1312V18.1155M19.1688 18.1312V18.1155M19.1688 18.1155V18.0998M19.1688 18.1155V18.0998M19.1688 18.0998V18.0841M19.1688 18.0998V18.0841M19.1688 18.0841V18.0684M19.1688 18.0841V18.0684M19.1688 18.0684V18.0527M19.1688 18.0684V18.0527M19.1688 18.0527V18.037M19.1688 18.0527V18.037M19.1688 18.037V18.0213M19.1688 18.037V18.0213M19.1688 18.0213V18.0056M19.1688 18.0213V18.0056M19.1688 18.0056V17.9899M19.1688 18.0056V17.9899M19.1688 17.9899V17.9742M19.1688 17.9899V17.9742M19.1688 17.9742V17.9585M19.1688 17.9742V17.9585M19.1688 17.9585V17.9428M19.1688 17.9585V17.9428M19.1688 17.9428V17.9271M19.1688 17.9428V17.9271M19.1688 17.9271V17.9114M19.1688 17.9271V17.9114M19.1688 17.9114V17.8957M19.1688 17.9114V17.8957M19.1688 17.8957V17.88M19.1688 17.8957V17.88M19.1688 17.88V17.8643M19.1688 17.88V17.8643M19.1688 17.8643V17.8486M19.1688 17.8643V17.8486M19.1688 17.8486V17.8329M19.1688 17.8486V17.8329M19.1688 17.8329V17.8172M19.1688 17.8329V17.8172M19.1688 17.8172V17.8015M19.1688 17.8172V17.8015M19.1688 17.8015V17.7858M19.1688 17.8015V17.7858M19.1688 17.7858V17.7701M19.1688 17.7858V17.7701M19.1688 17.7701V17.7544M19.1688 17.7701V17.7544M19.1688 17.7544V17.7387M19.1688 17.7544V17.7387M19.1688 17.7387V17.723M19.1688 17.7387V17.723M19.1688 17.723V17.7073M19.1688 17.723V17.7073M19.1688 17.7073V17.6916M19.1688 17.7073V17.6916M19.1688 17.6916V17.6759M19.1688 17.6916V17.6759M19.1688 17.6759V17.6602M19.1688 17.6759V17.6602M19.1688 17.6602V17.6445M19.1688 17.6602V17.6445M19.1688 17.6445V17.6288M19.1688 17.6445V17.6288M19.1688 17.6288V17.6131M19.1688 17.6288V17.6131M19.1688 17.6131V17.5974M19.1688 17.6131V17.5974M19.1688 17.5974V17.5817M19.1688 17.5974V17.5817M19.1688 17.5817V17.566M19.1688 17.5817V17.566M19.1688 17.566V17.5503M19.1688 17.566V17.5503M19.1688 17.5503V17.5346M19.1688 17.5503V17.5346M19.1688 17.5346V17.5189M19.1688 17.5346V17.5189M19.1688 17.5189V17.5032M19.1688 17.5189V17.5032M19.1688 17.5032V17.4875M19.1688 17.5032V17.4875M19.1688 17.4875V17.4718M19.1688 17.4875V17.4718M19.1688 17.4718V17.4561M19.1688 17.4718V17.4561M19.1688 17.4561V17.4404M19.1688 17.4561V17.4404M19.1688 17.4404V17.4247M19.1688 17.4404V17.4247M19.1688 17.4247V17.409M19.1688 17.4247V17.409M19.1688 17.409V17.3932M19.1688 17.409V17.3932M19.1688 17.3932V17.3776M19.1688 17.3932V17.3776M19.1688 17.3776V17.3618M19.1688 17.3776V17.3618M19.1688 17.3618V17.3461M19.1688 17.3618V17.3461M19.1688 17.3461V17.3304M19.1688 17.3461V17.3304M19.1688 17.3304V17.3147M19.1688 17.3304V17.3147M19.1688 17.3147V17.299M19.1688 17.3147V17.299M19.1688 17.299V17.2833M19.1688 17.299V17.2833M19.1688 17.2833V17.2676M19.1688 17.2833V17.2676M19.1688 17.2676V17.2519M19.1688 17.2676V17.2519M19.1688 17.2519V17.2362M19.1688 17.2519V17.2362M19.1688 17.2362V17.2205M19.1688 17.2362V17.2205M19.1688 17.2205V17.2048M19.1688 17.2205V17.2048M19.1688 17.2048V17.1891M19.1688 17.2048V17.1891M19.1688 17.1891V17.1734M19.1688 17.1891V17.1734M19.1688 17.1734V17.1577M19.1688 17.1734V17.1577M19.1688 17.1577V17.142M19.1688 17.1577V17.142M19.1688 17.142V17.1263M19.1688 17.142V17.1263M19.1688 17.1263V17.1106M19.1688 17.1263V17.1106M19.1688 17.1106V17.0949M19.1688 17.1106V17.0949M19.1688 17.0949V17.0792M19.1688 17.0949V17.0792M19.1688 17.0792V17.0635M19.1688 17.0792V17.0635M19.1688 17.0635V17.0478M19.1688 17.0635V17.0478M19.1688 17.0478V17.0321M19.1688 17.0478V17.0321M19.1688 17.0321V17.0164M19.1688 17.0321V17.0164M19.1688 17.0164V17.0007M19.1688 17.0164V17.0007M19.1688 17.0007V16.985M19.1688 17.0007V16.985M19.1688 16.985V16.9693M19.1688 16.985V16.9693M19.1688 16.9693V16.9536M19.1688 16.9693V16.9536M19.1688 16.9536V16.9379M19.1688 16.9536V16.9379M19.1688 16.9379V16.9222M19.1688 16.9379V16.9222M19.1688 16.9222V16.9065M19.1688 16.9222V16.9065M19.1688 16.9065V16.8908M19.1688 16.9065V16.8908M19.1688 16.8908V16.8751M19.1688 16.8908V16.8751M19.1688 16.8751V16.8594M19.1688 16.8751V16.8594M19.1688 16.8594V16.8437M19.1688 16.8594V16.8437M19.1688 16.8437V16.828M19.1688 16.8437V16.828M19.1688 16.828V16.8123M19.1688 16.828V16.8123M19.1688 16.8123V16.7966M19.1688 16.8123V16.7966M19.1688 16.7966V16.7809M19.1688 16.7966V16.7809M19.1688 16.7809V16.7652M19.1688 16.7809V16.7652M19.1688 16.7652V16.7495M19.1688 16.7652V16.7495M19.1688 16.7495V16.7338M19.1688 16.7495V16.7338M19.1688 16.7338V16.7181M19.1688 16.7338V16.7181M19.1688 16.7181V16.7024M19.1688 16.7181V16.7024M19.1688 16.7024V16.6867M19.1688 16.7024V16.6867M19.1688 16.6867V16.671M19.1688 16.6867V16.671M19.1688 16.671V16.6553M19.1688 16.671V16.6553M19.1688 16.6553V16.6396M19.1688 16.6553V16.6396M19.1688 16.6396V16.6239M19.1688 16.6396V16.6239M19.1688 16.6239V16.6082M19.1688 16.6239V16.6082M19.1688 16.6082V16.5925M19.1688 16.6082V16.5925M19.1688 16.5925V16.5768M19.1688 16.5925V16.5768M19.1688 16.5768V16.5611M19.1688 16.5768V16.5611M19.1688 16.5611V16.5454M19.1688 16.5611V16.5454M19.1688 16.5454V16.5297M19.1688 16.5454V16.5297M19.1688 16.5297V16.514M19.1688 16.5297V16.514M19.1688 16.514V16.4983M19.1688 16.514V16.4983M19.1688 16.4983V16.4826M19.1688 16.4983V16.4826M19.1688 16.4826V16.4669M19.1688 16.4826V16.4669M19.1688 16.4669V16.4512M19.1688 16.4669V16.4512M19.1688 16.4512V16.4355M19.1688 16.4512V16.4355M19.1688 16.4355V16.4198M19.1688 16.4355V16.4198M19.1688 16.4198V16.4041M19.1688 16.4198V16.4041M19.1688 16.4041V16.3884M19.1688 16.4041V16.3884M19.1688 16.3884V16.3727M19.1688 16.3884V16.3727M19.1688 16.3727V16.357M19.1688 16.3727V16.357M19.1688 16.357V16.3413M19.1688 16.357V16.3413M19.1688 16.3413V16.3256M19.1688 16.3413V16.3256M19.1688 16.3256V16.3099M19.1688 16.3256V16.3099M19.1688 16.3099V16.2942M19.1688 16.3099V16.2942M19.1688 16.2942V16.2785M19.1688 16.2942V16.2785M19.1688 16.2785V16.2628M19.1688 16.2785V16.2628M19.1688 16.2628V16.2471M19.1688 16.2628V16.2471M19.1688 16.2471V16.2314M19.1688 16.2471V16.2314M19.1688 16.2314V16.2157M19.1688 16.2314V16.2157M19.1688 16.2157V16.2M19.1688 16.2157V16.2M19.1688 16.2V16.1843M19.1688 16.2V16.1843M19.1688 16.1843V16.1686M19.1688 16.1843V16.1686M19.1688 16.1686V16.1529M19.1688 16.1686V16.1529M19.1688 16.1529V16.1372M19.1688 16.1529V16.1372M19.1688 16.1372V16.1215M19.1688 16.1372V16.1215M19.1688 16.1215V16.1058M19.1688 16.1215V16.1058M19.1688 16.1058V16.0901M19.1688 16.1058V16.0901M19.1688 16.0901V16.0744M19.1688 16.0901V16.0744M19.1688 16.0744V16.0587M19.1688 16.0744V16.0587M19.1688 16.0587V16.043M19.1688 16.0587V16.043M19.1688 16.043V16.0273M19.1688 16.043V16.0273M19.1688 16.0273V16.0116M19.1688 16.0273V16.0116M19.1688 16.0116V15.9958M19.1688 16.0116V15.9958M19.1688 15.9958V15.9801M19.1688 15.9958V15.9801M19.1688 15.9801V15.9644M19.1688 15.9801V15.9644M19.1688 15.9644V15.9487M19.1688 15.9644V15.9487M19.1688 15.9487V15.933M19.1688 15.9487V15.933M19.1688 15.933V15.9173M19.1688 15.933V15.9173M19.1688 15.9173V15.9016M19.1688 15.9173V15.9016M19.1688 15.9016V15.8859M19.1688 15.9016V15.8859M19.1688 15.8859V15.8702M19.1688 15.8859V15.8702M19.1688 15.8702V15.8545M19.1688 15.8702V15.8545M19.1688 15.8545V15.8388M19.1688 15.8545V15.8388M19.1688 15.8388V15.8231M19.1688 15.8388V15.8231M19.1688 15.8231V15.8074M19.1688 15.8231V15.8074M19.1688 15.8074V15.7917M19.1688 15.8074V15.7917M19.1688 15.7917V15.776M19.1688 15.7917V15.776M19.1688 15.776V15.7603M19.1688 15.776V15.7603M19.1688 15.7603V15.7446M19.1688 15.7603V15.7446M19.1688 15.7446V15.7289M19.1688 15.7446V15.7289M19.1688 15.7289V15.7132M19.1688 15.7289V15.7132M19.1688 15.7132V15.6975M19.1688 15.7132V15.6975M19.1688 15.6975V15.6818M19.1688 15.6975V15.6818M19.1688 15.6818V15.6661M19.1688 15.6818V15.6661M19.1688 15.6661V15.6504M19.1688 15.6661V15.6504M19.1688 15.6504V15.6347M19.1688 15.6504V15.6347M19.1688 15.6347V15.619M19.1688 15.6347V15.619M19.1688 15.619V15.6033M19.1688 15.619V15.6033M19.1688 15.6033V15.5876M19.1688 15.6033V15.5876M19.1688 15.5876V15.5719M19.1688 15.5876V15.5719M19.1688 15.5719V15.5562M19.1688 15.5719V15.5562M19.1688 15.5562V15.5405M19.1688 15.5562V15.5405M19.1688 15.5405V15.5248M19.1688 15.5405V15.5248M19.1688 15.5248V15.5091M19.1688 15.5248V15.5091M19.1688 15.5091V15.4934M19.1688 15.5091V15.4934M19.1688 15.4934V15.4777M19.1688 15.4934V15.4777M19.1688 15.4777V15.462M19.1688 15.4777V15.462M19.1688 15.462V15.4463M19.1688 15.462V15.4463M19.1688 15.4463V15.4306M19.1688 15.4463V15.4306M19.1688 15.4306V15.4149M19.1688 15.4306V15.4149M19.1688 15.4149V15.3992M19.1688 15.4149V15.3992M19.1688 15.3992V15.3835M19.1688 15.3992V15.3835M19.1688 15.3835V15.3678M19.1688 15.3835V15.3678M19.1688 15.3678V15.3521M19.1688 15.3678V15.3521M19.1688 15.3521V15.3364M19.1688 15.3521V15.3364M19.1688 15.3364V15.3207M19.1688 15.3364V15.3207M19.1688 15.3207V15.305M19.1688 15.3207V15.305M19.1688 15.305C19.1688 14.5175 19.6589 14.0337 20.3055 14.0298L19.1688 15.305Z" fill="#5BBC2E" stroke="#5BBC2E" strokeWidth="0.78857"/>
</svg>
