<svg width="62" height="73" viewBox="0 0 62 73" fill="none" xmlns="http://www.w3.org/2000/svg">
<path d="M9.62468 72.0051L9.62733 72.0058C10.1563 72.1605 10.6891 72.262 11.2352 72.3661C11.5056 72.4176 11.7793 72.4698 12.0574 72.5293L50.1615 72.5258C50.3112 72.4703 50.4653 72.4272 50.6221 72.3969L50.6317 72.395L50.6415 72.3939C56.8262 71.7122 61.0808 67.0953 61.1558 60.8819C61.1789 58.7638 61.0867 56.6461 60.8797 54.5381L60.8797 54.538C60.4798 50.4441 59.5843 46.4854 57.6004 42.8483L57.6003 42.8481C55.3896 38.7893 52.1223 36.2607 47.494 35.5798C45.8014 35.3308 44.278 35.47 42.8951 36.5062L42.8951 36.5063C42.2366 36.9994 41.5311 37.4315 40.8375 37.8565C40.6842 37.9503 40.5316 38.0438 40.3802 38.1375C40.3802 38.1375 40.3802 38.1375 40.3801 38.1376L40.2527 37.9316C34.1788 41.6925 28.1026 41.6973 22.024 37.9458L9.62468 72.0051ZM9.62468 72.0051C4.54397 70.5824 1.35424 66.6821 1.12069 61.3504C0.88534 55.7581 1.50002 50.2618 3.61811 45.0433L3.3937 44.9522L3.61812 45.0433C4.98334 41.6787 6.95258 38.7986 10.2388 37.0414L10.2395 37.041C12.2302 35.9677 14.4661 35.4313 16.7271 35.4846L16.7281 35.4846C17.3943 35.4975 18.1177 35.8393 18.7893 36.2036L9.62468 72.0051ZM47.9394 17.5858V17.5859C48.0025 27.0254 40.2114 34.8602 30.7165 34.8864C21.2224 34.9127 13.4061 27.0887 13.4026 17.6748L13.4026 17.6742C13.3891 13.0993 15.1917 8.70611 18.4146 5.45921C21.6375 2.21231 26.0173 0.37716 30.5921 0.356747L30.5928 0.356742C40.1387 0.286642 47.8798 7.97458 47.9394 17.5858Z" fill="#5BBC2E" stroke="#5BBC2E" strokeWidth="0.484383"/>
</svg>



