<svg width="100" height="60" viewBox="0 0 100 60" fill="none" xmlns="http://www.w3.org/2000/svg">
<path d="M99.407 56.684C98.6033 59.1678 96.8458 60.0051 94.3078 60C64.4995 59.9586 34.6851 59.95 4.86477 59.9741C1.9029 59.9741 0.0497836 57.9737 0.455555 55.1746H40.459L40.5701 56.7383H59.3054C59.3313 56.2472 59.3597 55.751 59.3933 55.1385H99.407V56.684ZM13.6005 57.7695C12.2514 57.2655 10.8842 57.4387 9.5221 57.4516V57.7695H13.6005Z" fill="#5BBC2E"/>
<path d="M86.9134 0C89.3248 0 90.294 0.976955 90.294 3.409V50.1167C90.294 52.5746 89.3041 53.5541 86.8178 53.5541H12.9363C10.4422 53.5541 9.46524 52.5875 9.46524 50.1219V3.41417C9.46524 0.974369 10.4293 0 12.8251 0H86.9134ZM86.0605 49.3155V4.21021H13.7892V49.3155H86.0605ZM49.9778 3.31079C50.3707 2.72927 50.8307 2.32867 50.7532 2.08314C50.6524 1.72905 50.1613 1.48869 49.8357 1.19922C49.5772 1.51454 49.1353 1.81693 49.1198 2.14516C49.1042 2.4734 49.5565 2.7577 49.9778 3.30303V3.31079Z" fill="#5BBC2E"/>
<path d="M86.0605 49.3155H13.7892V4.21021H86.0605V49.3155Z" fill="white"/>
</svg>
