<svg width="6" height="28" viewBox="0 0 6 28" fill="none" xmlns="http://www.w3.org/2000/svg">
<path d="M5.68865 18.5702C5.68865 20.795 5.68865 23.0224 5.68865 25.2421C5.68865 26.8526 4.63666 27.9911 3.16234 28C1.66513 28.0101 0.604229 26.8551 0.602957 25.2129C0.602957 20.787 0.602957 16.3606 0.602957 11.9339C0.602957 10.3247 1.65368 9.18494 3.12799 9.17604C4.63029 9.16713 5.6861 10.3107 5.68865 11.9631C5.68865 14.1655 5.68865 16.3678 5.68865 18.5702Z" fill="#5BBC2E"/>
<path d="M3.13519 0.40004C3.63874 0.398278 4.1315 0.545988 4.55104 0.824465C4.97059 1.10294 5.29806 1.49966 5.49198 1.96438C5.68591 2.4291 5.73756 2.94091 5.64041 3.43501C5.54325 3.9291 5.30165 4.38325 4.9462 4.73995C4.59076 5.09664 4.13746 5.33983 3.64371 5.43872C3.14996 5.53761 2.63797 5.48775 2.17257 5.29545C1.70717 5.10316 1.30931 4.77708 1.02936 4.35851C0.749416 3.93995 0.599979 3.44771 0.599976 2.94416C0.599971 2.27095 0.86679 1.62519 1.34198 1.14834C1.81717 0.671476 2.46199 0.402396 3.13519 0.40004Z" fill="#5BBC2E"/>
</svg>
