<svg width="275" height="275" viewBox="0 0 275 275" fill="none" xmlns="http://www.w3.org/2000/svg">
<path d="M154.107 274.067C147.285 274.251 140.512 274.456 133.886 274.52C131.429 274.788 128.943 274.521 126.599 273.738C124.255 272.955 122.107 271.674 120.304 269.984C118.501 268.293 117.085 266.233 116.153 263.944C115.221 261.654 114.796 259.191 114.905 256.722C114.716 252.717 114.823 249.042 114.375 245.305C114.295 244.78 114.095 244.28 113.792 243.844C113.488 243.408 113.089 243.047 112.624 242.789C103.437 239.439 94.2006 236.273 84.4577 232.862C81.993 235.449 78.9824 238.705 75.8732 241.92C67.7995 250.322 58.1882 250.571 49.5896 242.618C45.6358 238.991 41.7028 235.315 37.8259 231.576C35.9478 230.014 34.4235 228.071 33.3541 225.875C32.2848 223.679 31.6949 221.281 31.6237 218.84C31.5525 216.398 32.0016 213.969 32.9411 211.715C33.8806 209.46 35.2891 207.432 37.073 205.763C39.6565 202.965 42.4161 200.3 44.8445 197.32C45.1688 196.788 45.3719 196.19 45.439 195.571C45.5062 194.951 45.4359 194.324 45.2331 193.735C41.8062 185.856 38.0144 178.083 34.6577 170.175C33.8075 168.07 32.9331 167.117 30.608 167.322C26.6602 167.651 22.9574 167.677 19.1918 167.851C16.9078 168.002 14.6173 167.684 12.4607 166.917C10.3041 166.15 8.32693 164.95 6.65054 163.392C4.97414 161.834 3.63392 159.949 2.71203 157.854C1.79017 155.759 1.30608 153.498 1.28954 151.209C0.903644 144.999 0.707305 138.753 0.728914 132.541C0.621279 130.285 0.969625 128.031 1.75312 125.913C2.53661 123.794 3.73917 121.856 5.28891 120.213C6.83866 118.57 8.70376 117.256 10.7727 116.351C12.8417 115.445 15.072 114.966 17.3304 114.941C21.3207 114.717 25.3677 114.634 29.443 114.62C30.1578 114.687 30.8724 114.491 31.4531 114.069C32.0337 113.646 32.4405 113.027 32.5973 112.326C35.549 104.007 38.6671 95.7284 41.9517 87.4919C42.3536 86.8469 42.4876 86.0703 42.3249 85.3278C42.1623 84.5854 41.7161 83.9359 41.0813 83.5178C38.2272 80.9978 35.4501 78.365 32.6939 75.683C30.8879 74.135 29.4255 72.2266 28.4004 70.0802C27.3754 67.9338 26.8103 65.5968 26.7416 63.2192C26.6729 60.8416 27.1019 58.4758 28.0013 56.2738C28.9006 54.0718 30.2504 52.082 31.9639 50.4323C35.8144 46.1569 39.754 41.9678 43.783 37.8651C45.3017 35.9835 47.2054 34.4486 49.3663 33.3634C51.5271 32.2783 53.8951 31.6679 56.3113 31.5734C58.7275 31.4789 61.1359 31.9024 63.375 32.8155C65.614 33.7286 67.6317 35.1101 69.2928 36.8673C71.7823 38.929 74.1279 41.1585 76.3132 43.5403C78.62 46.3221 80.572 45.9011 83.5111 44.3877C90.2873 40.9575 97.2477 37.9834 104.475 35.0646C107.001 34.0444 108.446 33.1754 108.063 30.1061C107.65 26.3153 107.473 22.5025 107.534 18.6898C107.452 16.4643 107.815 14.2447 108.602 12.1614C109.389 10.0781 110.585 8.17301 112.118 6.55789C113.651 4.94277 115.492 3.65015 117.532 2.7559C119.571 1.86165 121.769 1.38377 123.996 1.3503C130.206 0.964385 136.437 0.732984 142.649 0.754597C144.939 0.673231 147.222 1.04989 149.365 1.86249C151.508 2.67509 153.467 3.90727 155.127 5.48681C156.787 7.06634 158.116 8.96145 159.034 11.061C159.952 13.1606 160.442 15.4223 160.475 17.7137C160.758 22.4556 160.766 27.2265 160.907 31.4139L190.637 42.5859C193.284 39.8439 196.393 36.6295 199.165 33.3882C207.337 24.824 217.018 24.5461 225.709 32.6259C229.642 36.3017 233.61 39.9635 237.486 43.7028C239.36 45.2568 240.881 47.193 241.947 49.3819C243.012 51.5708 243.598 53.962 243.666 56.3955C243.733 58.8291 243.28 61.249 242.337 63.4934C241.394 65.7378 239.982 67.7551 238.197 69.4102C235.704 72.1307 233.191 74.9004 230.558 77.4737C229.91 77.9745 229.481 78.7057 229.36 79.515C229.238 80.3242 229.433 81.1493 229.905 81.8182C233.676 89.844 237.153 97.9481 240.875 105.953C241.157 106.452 241.547 106.88 242.018 107.206C242.489 107.532 243.028 107.747 243.594 107.834C247.388 107.934 251.245 107.682 255.074 107.564C257.518 107.323 259.985 107.601 262.313 108.381C264.641 109.161 266.778 110.424 268.583 112.089C270.389 113.753 271.821 115.781 272.787 118.038C273.753 120.295 274.231 122.732 274.188 125.187C274.425 130.926 274.732 136.638 274.695 142.407C274.847 144.724 274.522 147.048 273.739 149.234C272.956 151.421 271.733 153.423 270.144 155.117C268.555 156.811 266.635 158.16 264.503 159.081C262.371 160.002 260.073 160.476 257.751 160.472C253.76 160.696 249.642 160.604 245.695 160.933C245.09 161.075 244.524 161.349 244.038 161.736C243.552 162.123 243.158 162.612 242.884 163.17C239.63 171.38 236.622 179.696 233.333 187.92C232.977 188.534 232.857 189.255 232.995 189.951C233.133 190.646 233.52 191.268 234.083 191.698C237.05 194.295 239.905 197.019 242.704 199.806C244.457 201.327 245.878 203.193 246.877 205.288C247.877 207.383 248.433 209.661 248.512 211.981C248.591 214.301 248.19 216.612 247.336 218.77C246.481 220.928 245.19 222.886 243.544 224.523C239.512 229.089 235.318 233.558 230.975 237.76C229.457 239.492 227.6 240.895 225.518 241.881C223.436 242.867 221.174 243.415 218.872 243.492C216.57 243.569 214.276 243.172 212.133 242.327C209.99 241.482 208.044 240.206 206.414 238.579C203.313 235.75 200.527 232.794 197.449 230.324C196.928 229.982 196.336 229.765 195.718 229.689C195.1 229.613 194.473 229.68 193.885 229.886C185.605 233.23 177.459 237.009 169.349 240.774C168.842 241.053 168.406 241.444 168.074 241.918C167.741 242.392 167.522 242.935 167.433 243.507C167.223 246.208 167.267 248.922 167.565 251.615C168.212 255.284 167.849 259.06 166.515 262.538C165.182 266.017 162.927 269.067 159.993 271.363L154.107 274.067ZM75.2939 162.375C87.1783 195.037 126.663 213.084 159.88 201.057C172.544 196.642 183.598 188.54 191.62 177.791C199.641 167.042 204.262 154.139 204.889 140.742C205.516 127.344 202.12 114.066 195.137 102.615C188.155 91.164 177.906 82.0642 165.709 76.4865C153.512 70.9087 139.925 69.1081 126.697 71.3164C113.468 73.5247 101.202 79.6409 91.4785 88.8779C81.7546 98.115 75.017 110.05 72.1328 123.148C69.2485 136.246 70.3494 149.908 75.2939 162.375Z" fill="url(#paint0_linear_363_2670)"/>
<path d="M154.107 274.067C147.285 274.251 140.512 274.456 133.886 274.52C131.429 274.788 128.943 274.521 126.599 273.738C124.255 272.955 122.107 271.674 120.304 269.984C118.501 268.293 117.085 266.233 116.153 263.944C115.221 261.654 114.796 259.191 114.905 256.722C114.716 252.717 114.823 249.042 114.375 245.305C114.295 244.78 114.095 244.28 113.792 243.844C113.488 243.408 113.089 243.047 112.624 242.789C103.437 239.439 94.2006 236.273 84.4577 232.862C81.993 235.449 78.9824 238.705 75.8732 241.92C67.7995 250.322 58.1882 250.571 49.5896 242.618C45.6358 238.991 41.7028 235.315 37.8259 231.576C35.9478 230.014 34.4235 228.071 33.3541 225.875C32.2848 223.679 31.6949 221.281 31.6237 218.84C31.5525 216.398 32.0016 213.969 32.9411 211.715C33.8806 209.46 35.2891 207.432 37.073 205.763C39.6565 202.965 42.4161 200.3 44.8445 197.32C45.1688 196.788 45.3719 196.19 45.439 195.571C45.5062 194.951 45.4359 194.324 45.2331 193.735C41.8062 185.856 38.0144 178.083 34.6577 170.175C33.8075 168.07 32.9331 167.117 30.608 167.322C26.6602 167.651 22.9574 167.677 19.1918 167.851C16.9078 168.002 14.6173 167.684 12.4607 166.917C10.3041 166.15 8.32693 164.95 6.65054 163.392C4.97414 161.834 3.63392 159.949 2.71203 157.854C1.79017 155.759 1.30608 153.498 1.28954 151.209C0.903644 144.999 0.707305 138.753 0.728914 132.541C0.621279 130.285 0.969625 128.031 1.75312 125.913C2.53661 123.794 3.73917 121.856 5.28891 120.213C6.83866 118.57 8.70376 117.256 10.7727 116.351C12.8417 115.445 15.072 114.966 17.3304 114.941C21.3207 114.717 25.3677 114.634 29.443 114.62C30.1578 114.687 30.8724 114.491 31.4531 114.069C32.0337 113.646 32.4405 113.027 32.5973 112.326C35.549 104.007 38.6671 95.7284 41.9517 87.4919C42.3536 86.8469 42.4876 86.0703 42.3249 85.3278C42.1623 84.5854 41.7161 83.9359 41.0813 83.5178C38.2272 80.9978 35.4501 78.365 32.6939 75.683C30.8879 74.135 29.4255 72.2266 28.4004 70.0802C27.3754 67.9338 26.8103 65.5968 26.7416 63.2192C26.6729 60.8416 27.1019 58.4758 28.0013 56.2738C28.9006 54.0718 30.2504 52.082 31.9639 50.4323C35.8144 46.1569 39.754 41.9678 43.783 37.8651C45.3017 35.9835 47.2054 34.4486 49.3663 33.3634C51.5271 32.2783 53.8951 31.6679 56.3113 31.5734C58.7275 31.4789 61.1359 31.9024 63.375 32.8155C65.614 33.7286 67.6317 35.1101 69.2928 36.8673C71.7823 38.929 74.1279 41.1585 76.3132 43.5403C78.62 46.3221 80.572 45.9011 83.5111 44.3877C90.2873 40.9575 97.2477 37.9834 104.475 35.0646C107.001 34.0444 108.446 33.1754 108.063 30.1061C107.65 26.3153 107.473 22.5025 107.534 18.6898C107.452 16.4643 107.815 14.2447 108.602 12.1614C109.389 10.0781 110.585 8.17301 112.118 6.55789C113.651 4.94277 115.492 3.65015 117.532 2.7559C119.571 1.86165 121.769 1.38377 123.996 1.3503C130.206 0.964385 136.437 0.732984 142.649 0.754597C144.939 0.673231 147.222 1.04989 149.365 1.86249C151.508 2.67509 153.467 3.90727 155.127 5.48681C156.787 7.06634 158.116 8.96145 159.034 11.061C159.952 13.1606 160.442 15.4223 160.475 17.7137C160.758 22.4556 160.766 27.2265 160.907 31.4139L190.637 42.5859C193.284 39.8439 196.393 36.6295 199.165 33.3882C207.337 24.824 217.018 24.5461 225.709 32.6259C229.642 36.3017 233.61 39.9635 237.486 43.7028C239.36 45.2568 240.881 47.193 241.947 49.3819C243.012 51.5708 243.598 53.962 243.666 56.3955C243.733 58.8291 243.28 61.249 242.337 63.4934C241.394 65.7378 239.982 67.7551 238.197 69.4102C235.704 72.1307 233.191 74.9004 230.558 77.4737C229.91 77.9745 229.481 78.7057 229.36 79.515C229.238 80.3242 229.433 81.1493 229.905 81.8182C233.676 89.844 237.153 97.9481 240.875 105.953C241.157 106.452 241.547 106.88 242.018 107.206C242.489 107.532 243.028 107.747 243.594 107.834C247.388 107.934 251.245 107.682 255.074 107.564C257.518 107.323 259.985 107.601 262.313 108.381C264.641 109.161 266.778 110.424 268.583 112.089C270.389 113.753 271.821 115.781 272.787 118.038C273.753 120.295 274.231 122.732 274.188 125.187C274.425 130.926 274.732 136.638 274.695 142.407C274.847 144.724 274.522 147.048 273.739 149.234C272.956 151.421 271.733 153.423 270.144 155.117C268.555 156.811 266.635 158.16 264.503 159.081C262.371 160.002 260.073 160.476 257.751 160.472C253.76 160.696 249.642 160.604 245.695 160.933C245.09 161.075 244.524 161.349 244.038 161.736C243.552 162.123 243.158 162.612 242.884 163.17C239.63 171.38 236.622 179.696 233.333 187.92C232.977 188.534 232.857 189.255 232.995 189.951C233.133 190.646 233.52 191.268 234.083 191.698C237.05 194.295 239.905 197.019 242.704 199.806C244.457 201.327 245.878 203.193 246.877 205.288C247.877 207.383 248.433 209.661 248.512 211.981C248.591 214.301 248.19 216.612 247.336 218.77C246.481 220.928 245.19 222.886 243.544 224.523C239.512 229.089 235.318 233.558 230.975 237.76C229.457 239.492 227.6 240.895 225.518 241.881C223.436 242.867 221.174 243.415 218.872 243.492C216.57 243.569 214.276 243.172 212.133 242.327C209.99 241.482 208.044 240.206 206.414 238.579C203.313 235.75 200.527 232.794 197.449 230.324C196.928 229.982 196.336 229.765 195.718 229.689C195.1 229.613 194.473 229.68 193.885 229.886C185.605 233.23 177.459 237.009 169.349 240.774C168.842 241.053 168.406 241.444 168.074 241.918C167.741 242.392 167.522 242.935 167.433 243.507C167.223 246.208 167.267 248.922 167.565 251.615C168.212 255.284 167.849 259.06 166.515 262.538C165.182 266.017 162.927 269.067 159.993 271.363L154.107 274.067ZM75.2939 162.375C87.1783 195.037 126.663 213.084 159.88 201.057C172.544 196.642 183.598 188.54 191.62 177.791C199.641 167.042 204.262 154.139 204.889 140.742C205.516 127.344 202.12 114.066 195.137 102.615C188.155 91.164 177.906 82.0642 165.709 76.4865C153.512 70.9087 139.925 69.1081 126.697 71.3164C113.468 73.5247 101.202 79.6409 91.4785 88.8779C81.7546 98.115 75.017 110.05 72.1328 123.148C69.2485 136.246 70.3494 149.908 75.2939 162.375Z" fill="#3E88EC" fillOpacity="0.7"/>
<path d="M154.107 274.067C147.285 274.251 140.512 274.456 133.886 274.52C131.429 274.788 128.943 274.521 126.599 273.738C124.255 272.955 122.107 271.674 120.304 269.984C118.501 268.293 117.085 266.233 116.153 263.944C115.221 261.654 114.796 259.191 114.905 256.722C114.716 252.717 114.823 249.042 114.375 245.305C114.295 244.78 114.095 244.28 113.792 243.844C113.488 243.408 113.089 243.047 112.624 242.789C103.437 239.439 94.2006 236.273 84.4577 232.862C81.993 235.449 78.9824 238.705 75.8732 241.92C67.7995 250.322 58.1882 250.571 49.5896 242.618C45.6358 238.991 41.7028 235.315 37.8259 231.576C35.9478 230.014 34.4235 228.071 33.3541 225.875C32.2848 223.679 31.6949 221.281 31.6237 218.84C31.5525 216.398 32.0016 213.969 32.9411 211.715C33.8806 209.46 35.2891 207.432 37.073 205.763C39.6565 202.965 42.4161 200.3 44.8445 197.32C45.1688 196.788 45.3719 196.19 45.439 195.571C45.5062 194.951 45.4359 194.324 45.2331 193.735C41.8062 185.856 38.0144 178.083 34.6577 170.175C33.8075 168.07 32.9331 167.117 30.608 167.322C26.6602 167.651 22.9574 167.677 19.1918 167.851C16.9078 168.002 14.6173 167.684 12.4607 166.917C10.3041 166.15 8.32693 164.95 6.65054 163.392C4.97414 161.834 3.63392 159.949 2.71203 157.854C1.79017 155.759 1.30608 153.498 1.28954 151.209C0.903644 144.999 0.707305 138.753 0.728914 132.541C0.621279 130.285 0.969625 128.031 1.75312 125.913C2.53661 123.794 3.73917 121.856 5.28891 120.213C6.83866 118.57 8.70376 117.256 10.7727 116.351C12.8417 115.445 15.072 114.966 17.3304 114.941C21.3207 114.717 25.3677 114.634 29.443 114.62C30.1578 114.687 30.8724 114.491 31.4531 114.069C32.0337 113.646 32.4405 113.027 32.5973 112.326C35.549 104.007 38.6671 95.7284 41.9517 87.4919C42.3536 86.8469 42.4876 86.0703 42.3249 85.3278C42.1623 84.5854 41.7161 83.9359 41.0813 83.5178C38.2272 80.9978 35.4501 78.365 32.6939 75.683C30.8879 74.135 29.4255 72.2266 28.4004 70.0802C27.3754 67.9338 26.8103 65.5968 26.7416 63.2192C26.6729 60.8416 27.1019 58.4758 28.0013 56.2738C28.9006 54.0718 30.2504 52.082 31.9639 50.4323C35.8144 46.1569 39.754 41.9678 43.783 37.8651C45.3017 35.9835 47.2054 34.4486 49.3663 33.3634C51.5271 32.2783 53.8951 31.6679 56.3113 31.5734C58.7275 31.4789 61.1359 31.9024 63.375 32.8155C65.614 33.7286 67.6317 35.1101 69.2928 36.8673C71.7823 38.929 74.1279 41.1585 76.3132 43.5403C78.62 46.3221 80.572 45.9011 83.5111 44.3877C90.2873 40.9575 97.2477 37.9834 104.475 35.0646C107.001 34.0444 108.446 33.1754 108.063 30.1061C107.65 26.3153 107.473 22.5025 107.534 18.6898C107.452 16.4643 107.815 14.2447 108.602 12.1614C109.389 10.0781 110.585 8.17301 112.118 6.55789C113.651 4.94277 115.492 3.65015 117.532 2.7559C119.571 1.86165 121.769 1.38377 123.996 1.3503C130.206 0.964385 136.437 0.732984 142.649 0.754597C144.939 0.673231 147.222 1.04989 149.365 1.86249C151.508 2.67509 153.467 3.90727 155.127 5.48681C156.787 7.06634 158.116 8.96145 159.034 11.061C159.952 13.1606 160.442 15.4223 160.475 17.7137C160.758 22.4556 160.766 27.2265 160.907 31.4139L190.637 42.5859C193.284 39.8439 196.393 36.6295 199.165 33.3882C207.337 24.824 217.018 24.5461 225.709 32.6259C229.642 36.3017 233.61 39.9635 237.486 43.7028C239.36 45.2568 240.881 47.193 241.947 49.3819C243.012 51.5708 243.598 53.962 243.666 56.3955C243.733 58.8291 243.28 61.249 242.337 63.4934C241.394 65.7378 239.982 67.7551 238.197 69.4102C235.704 72.1307 233.191 74.9004 230.558 77.4737C229.91 77.9745 229.481 78.7057 229.36 79.515C229.238 80.3242 229.433 81.1493 229.905 81.8182C233.676 89.844 237.153 97.9481 240.875 105.953C241.157 106.452 241.547 106.88 242.018 107.206C242.489 107.532 243.028 107.747 243.594 107.834C247.388 107.934 251.245 107.682 255.074 107.564C257.518 107.323 259.985 107.601 262.313 108.381C264.641 109.161 266.778 110.424 268.583 112.089C270.389 113.753 271.821 115.781 272.787 118.038C273.753 120.295 274.231 122.732 274.188 125.187C274.425 130.926 274.732 136.638 274.695 142.407C274.847 144.724 274.522 147.048 273.739 149.234C272.956 151.421 271.733 153.423 270.144 155.117C268.555 156.811 266.635 158.16 264.503 159.081C262.371 160.002 260.073 160.476 257.751 160.472C253.76 160.696 249.642 160.604 245.695 160.933C245.09 161.075 244.524 161.349 244.038 161.736C243.552 162.123 243.158 162.612 242.884 163.17C239.63 171.38 236.622 179.696 233.333 187.92C232.977 188.534 232.857 189.255 232.995 189.951C233.133 190.646 233.52 191.268 234.083 191.698C237.05 194.295 239.905 197.019 242.704 199.806C244.457 201.327 245.878 203.193 246.877 205.288C247.877 207.383 248.433 209.661 248.512 211.981C248.591 214.301 248.19 216.612 247.336 218.77C246.481 220.928 245.19 222.886 243.544 224.523C239.512 229.089 235.318 233.558 230.975 237.76C229.457 239.492 227.6 240.895 225.518 241.881C223.436 242.867 221.174 243.415 218.872 243.492C216.57 243.569 214.276 243.172 212.133 242.327C209.99 241.482 208.044 240.206 206.414 238.579C203.313 235.75 200.527 232.794 197.449 230.324C196.928 229.982 196.336 229.765 195.718 229.689C195.1 229.613 194.473 229.68 193.885 229.886C185.605 233.23 177.459 237.009 169.349 240.774C168.842 241.053 168.406 241.444 168.074 241.918C167.741 242.392 167.522 242.935 167.433 243.507C167.223 246.208 167.267 248.922 167.565 251.615C168.212 255.284 167.849 259.06 166.515 262.538C165.182 266.017 162.927 269.067 159.993 271.363L154.107 274.067ZM75.2939 162.375C87.1783 195.037 126.663 213.084 159.88 201.057C172.544 196.642 183.598 188.54 191.62 177.791C199.641 167.042 204.262 154.139 204.889 140.742C205.516 127.344 202.12 114.066 195.137 102.615C188.155 91.164 177.906 82.0642 165.709 76.4865C153.512 70.9087 139.925 69.1081 126.697 71.3164C113.468 73.5247 101.202 79.6409 91.4785 88.8779C81.7546 98.115 75.017 110.05 72.1328 123.148C69.2485 136.246 70.3494 149.908 75.2939 162.375Z" fill="url(#paint1_angular_363_2670)" fillOpacity="0.2"/>
<defs>
<linearGradient id="paint0_linear_363_2670" x1="158.215" y1="45.68" x2="43.9973" y2="234.488" gradientUnits="userSpaceOnUse">
<stop stopColor="#182F59"/>
<stop offset="1" stopColor="#020F26"/>
</linearGradient>
<radialGradient id="paint1_angular_363_2670" cx="0" cy="0" r="1" gradientUnits="userSpaceOnUse" gradientTransform="translate(111.662 207.112) rotate(-69.226) scale(207.222 207.227)">
<stop stopColor="#4C576B" stopOpacity="0.5"/>
<stop offset="1" stopOpacity="0.7"/>
</radialGradient>
</defs>
</svg>
