<svg width="41" height="40" viewBox="0 0 41 40" fill="none" xmlns="http://www.w3.org/2000/svg">
<path d="M40.7969 18.2993C40.538 18.9939 40.2831 19.6844 40.0201 20.3543C39.9471 20.6126 39.8192 20.8522 39.645 21.0564C39.4708 21.2607 39.2544 21.4248 39.0108 21.5377C38.7672 21.6505 38.5021 21.7093 38.2337 21.71C37.9652 21.7108 37.6998 21.6535 37.4555 21.542C37.0445 21.3982 36.6788 21.2379 36.2842 21.1311C36.228 21.1178 36.1696 21.1176 36.1133 21.1304C36.057 21.1432 36.0044 21.1687 35.9595 21.205C35.2485 21.9941 34.554 22.7956 33.8142 23.6381C33.9745 23.9915 34.18 24.4272 34.3772 24.8711C34.8951 26.0259 34.5293 27.0041 33.3785 27.5466C32.8525 27.7973 32.3223 28.0439 31.788 28.2823C31.5543 28.4079 31.2966 28.4824 31.032 28.5008C30.7673 28.5192 30.5018 28.481 30.253 28.3889C30.0042 28.2968 29.7779 28.1528 29.589 27.9664C29.4002 27.7801 29.2531 27.5557 29.1577 27.3082C28.9809 26.9342 28.8248 26.5479 28.6234 26.1821C28.583 26.1278 28.5311 26.0831 28.4714 26.0511C28.4117 26.0191 28.3457 26.0007 28.2781 25.9972C27.3452 26.0218 26.4081 26.0876 25.4752 26.104C25.2286 26.104 25.0971 26.1533 25.0231 26.3958C24.8957 26.8068 24.7477 27.1808 24.6121 27.5672C24.5344 27.8033 24.4092 28.021 24.2442 28.2071C24.0793 28.3931 23.878 28.5434 23.6529 28.6489C23.4278 28.7543 23.1834 28.8126 22.935 28.8203C22.6865 28.8279 22.439 28.7847 22.2078 28.6933C21.5667 28.4795 20.9297 28.2453 20.305 27.9905C20.0734 27.9096 19.8605 27.7828 19.679 27.6177C19.4975 27.4526 19.3512 27.2527 19.2488 27.0298C19.1463 26.8069 19.0899 26.5656 19.0828 26.3204C19.0757 26.0752 19.1182 25.8311 19.2076 25.6026C19.3473 25.1916 19.5035 24.7806 19.6679 24.3697C19.7037 24.3004 19.713 24.2204 19.6941 24.1448C19.6752 24.0691 19.6294 24.003 19.5652 23.9587C18.8473 23.323 18.1404 22.6723 17.4445 22.0065C17.3958 21.9397 17.3231 21.8947 17.2417 21.8808C17.1603 21.867 17.0767 21.8856 17.0088 21.9325C16.6389 22.1174 16.2608 22.29 15.8786 22.4586C15.6492 22.5775 15.3976 22.6472 15.1397 22.6631C14.8818 22.679 14.6235 22.6409 14.3812 22.5511C14.139 22.4613 13.9182 22.3219 13.733 22.1417C13.5478 21.9616 13.4023 21.7447 13.3058 21.5051C13.0318 20.9434 12.7701 20.3762 12.5208 19.8036C12.3931 19.5741 12.3159 19.3199 12.2945 19.0582C12.2731 18.7964 12.308 18.5331 12.3967 18.2859C12.4855 18.0387 12.6261 17.8134 12.8091 17.625C12.9921 17.4366 13.2133 17.2896 13.4579 17.1938C13.7668 17.0269 14.0867 16.8814 14.4155 16.7581C14.7895 16.6389 14.8265 16.4252 14.7936 16.0677C14.7237 15.2457 14.7073 14.4237 14.7073 13.5771C14.7073 13.2812 14.6785 13.1003 14.3538 13.014C13.9552 12.9015 13.564 12.7642 13.1825 12.603C12.955 12.5208 12.7463 12.3939 12.5685 12.2299C12.3907 12.0659 12.2474 11.868 12.1471 11.6479C12.0468 11.4278 11.9915 11.1898 11.9844 10.948C11.9773 10.7063 12.0185 10.4655 12.1057 10.2398C12.3194 9.5987 12.5496 8.96167 12.8044 8.33696C12.8894 8.103 13.0202 7.88835 13.1891 7.7056C13.3581 7.52285 13.5619 7.37568 13.7885 7.27271C14.0151 7.16974 14.26 7.11305 14.5088 7.10595C14.7576 7.09886 15.0053 7.14151 15.2375 7.2314C15.7265 7.3958 16.2074 7.58896 16.6348 7.74514L18.9692 5.20522C18.8007 4.82711 18.6035 4.38324 18.3897 3.97226C17.8596 2.80094 18.2253 1.81456 19.3926 1.26795C19.9227 1.02135 20.4529 0.770649 20.9872 0.532275C21.2199 0.406743 21.4768 0.332343 21.7406 0.314051C22.0044 0.295758 22.269 0.333993 22.5169 0.426201C22.7647 0.518408 22.99 0.662462 23.1777 0.848732C23.3654 1.035 23.5111 1.25919 23.6052 1.50632C23.7778 1.86799 23.9545 2.23377 24.1066 2.60366C24.1307 2.68922 24.1869 2.76217 24.2635 2.80734C24.34 2.85251 24.431 2.86641 24.5176 2.84614C25.4793 2.79272 26.4369 2.77217 27.3945 2.72285C27.4562 2.71481 27.5152 2.69288 27.5672 2.65871C27.6192 2.62454 27.6627 2.57901 27.6945 2.52557C27.8589 2.14746 27.9905 1.7488 28.1343 1.35836C28.2094 1.10245 28.3377 0.865318 28.511 0.662543C28.6842 0.459768 28.8984 0.29594 29.1394 0.18182C29.3805 0.0677011 29.6429 0.00587317 29.9096 0.000398415C30.1762 -0.00507634 30.441 0.0459259 30.6865 0.150055C31.2743 0.359659 31.862 0.561044 32.4415 0.799418C32.6811 0.87831 32.9019 1.00559 33.0902 1.17337C33.2786 1.34114 33.4305 1.54583 33.5365 1.77474C33.6424 2.00364 33.7003 2.25188 33.7063 2.50406C33.7124 2.75623 33.6665 3.00696 33.5717 3.24069C33.432 3.65168 33.2552 4.06267 33.1278 4.47366C33.1175 4.54033 33.1221 4.60845 33.1413 4.67312C33.1605 4.73779 33.1938 4.79741 33.2388 4.84766C33.9334 5.50936 34.6485 6.1505 35.3431 6.8163C35.3903 6.8771 35.4581 6.91857 35.5338 6.93294C35.6095 6.94732 35.6878 6.93361 35.754 6.89439C36.1363 6.70122 36.5267 6.5245 36.9212 6.35599C37.1457 6.24126 37.3915 6.17407 37.6431 6.15861C37.8947 6.14316 38.1468 6.17978 38.3837 6.26618C38.6205 6.35258 38.837 6.48691 39.0196 6.66077C39.2021 6.83463 39.3469 7.04428 39.4447 7.27661C39.7406 7.86843 40.0201 8.47259 40.2667 9.08085C40.3795 9.30421 40.4452 9.54833 40.4598 9.7981C40.4744 10.0479 40.4377 10.298 40.3518 10.533C40.2658 10.768 40.1326 10.9828 39.9604 11.1643C39.7881 11.3457 39.5804 11.4899 39.3502 11.5879C38.9392 11.7852 38.5282 11.9454 38.1542 12.1551C38.0986 12.1935 38.0526 12.2443 38.0198 12.3035C37.987 12.3627 37.9683 12.4286 37.9652 12.4962C37.9652 13.4661 38.0145 14.4402 38.0638 15.4101C38.0712 15.4725 38.0929 15.5324 38.1271 15.5851C38.1613 15.6378 38.2071 15.682 38.2611 15.7142C38.5245 15.8453 38.7997 15.9512 39.0831 16.0307C39.4789 16.1148 39.8444 16.3049 40.1405 16.5807C40.4366 16.8565 40.6521 17.2077 40.764 17.5966L40.7969 18.2993ZM26.3424 21.6941C30.1153 21.8256 33.5388 18.5829 33.6785 14.7484C33.7491 13.2933 33.3826 11.8505 32.6262 10.6055C31.8699 9.36043 30.7584 8.37018 29.4346 7.76214C28.1108 7.1541 26.6353 6.95608 25.1981 7.19355C23.7608 7.43102 22.4275 8.09313 21.3696 9.09467C20.3118 10.0962 19.5778 11.3914 19.2622 12.8135C18.9465 14.2357 19.0636 15.7197 19.5984 17.0748C20.1332 18.4298 21.0613 19.5938 22.2631 20.417C23.465 21.2403 24.8857 21.685 26.3424 21.6941Z" fill="#5BBC2E"/>
<path d="M5.3934 37.1186C4.93309 36.6789 4.51799 36.2638 4.08645 35.8857C4.03498 35.8498 3.97645 35.8254 3.91478 35.8141C3.85311 35.8028 3.78973 35.8047 3.72889 35.8199C3.4823 35.898 3.25625 36.0377 3.01377 36.1281C2.76088 36.2412 2.47388 36.2512 2.21374 36.156C1.95359 36.0609 1.74079 35.868 1.62052 35.6185C1.41965 35.2326 1.23992 34.8361 1.08212 34.4308C1.01583 34.3055 0.97697 34.1675 0.968117 34.0261C0.959264 33.8846 0.980622 33.7429 1.03077 33.6103C1.08092 33.4777 1.15872 33.3574 1.25898 33.2572C1.35925 33.157 1.47969 33.0793 1.6123 33.0293C2.4055 32.7704 2.60278 32.3306 2.40139 31.5621C2.36197 31.2317 2.36197 30.8978 2.40139 30.5675C2.13014 30.4647 1.83423 30.362 1.54654 30.2469C1.4058 30.2016 1.27586 30.1279 1.16474 30.0304C1.05363 29.9328 0.9637 29.8135 0.900524 29.6799C0.837348 29.5462 0.802267 29.401 0.797449 29.2532C0.792631 29.1054 0.81818 28.9583 0.872515 28.8208C0.991701 28.4509 1.12733 28.081 1.2835 27.7193C1.33145 27.5767 1.40799 27.4454 1.50846 27.3334C1.60893 27.2214 1.7312 27.131 1.86779 27.0679C2.00437 27.0048 2.15241 26.9703 2.30281 26.9664C2.45322 26.9625 2.60284 26.9893 2.74252 27.0453C3.03432 27.1398 3.36311 27.3576 3.61381 27.2919C3.86452 27.2261 3.96726 26.811 4.20153 26.6466C4.90843 26.1575 5.02351 25.6315 4.56731 24.8794C4.51143 24.7633 4.47966 24.637 4.47392 24.5083C4.46819 24.3796 4.4886 24.2511 4.53392 24.1304C4.57925 24.0098 4.64855 23.8997 4.73764 23.8066C4.82673 23.7135 4.93376 23.6394 5.05228 23.5889C5.45213 23.3741 5.86377 23.182 6.28524 23.0135C6.40982 22.9531 6.54558 22.9193 6.68392 22.9142C6.82226 22.9091 6.96015 22.9328 7.08884 22.9838C7.21753 23.0348 7.33421 23.112 7.43148 23.2105C7.52874 23.309 7.60446 23.4267 7.65384 23.556C7.91276 24.3122 8.32375 24.5752 9.08408 24.341C9.23643 24.302 9.39614 24.302 9.5485 24.341C10.0006 24.4519 10.2102 24.2547 10.3129 23.8313C10.3436 23.6171 10.4268 23.4137 10.5552 23.2395C10.6836 23.0652 10.8531 22.9254 11.0486 22.8326C11.6528 22.5737 13.3501 23.1697 13.5926 23.7779C13.6732 24.0611 13.6901 24.3587 13.642 24.6492C13.6088 24.8544 13.5392 25.0521 13.4365 25.2328C13.3173 25.463 13.3748 25.5945 13.5721 25.7548C13.942 26.0589 14.2708 26.4124 14.6365 26.7247C14.6921 26.7636 14.7551 26.7906 14.8216 26.804C14.888 26.8175 14.9566 26.817 15.0229 26.8028C15.2695 26.7288 15.4955 26.585 15.738 26.4946C15.987 26.3874 16.2676 26.3796 16.5221 26.4728C16.7766 26.5661 16.9858 26.7533 17.1066 26.996C17.308 27.3741 17.4847 27.7686 17.6491 28.1632C17.7182 28.2909 17.7591 28.432 17.769 28.5768C17.779 28.7217 17.7577 28.867 17.7067 29.003C17.6556 29.139 17.576 29.2624 17.4732 29.3649C17.3704 29.4675 17.2468 29.5468 17.1107 29.5975C16.3833 29.8564 16.2682 30.251 16.2887 30.999C16.3093 31.747 16.4531 32.232 17.2628 32.4251C17.394 32.4691 17.5147 32.5397 17.6173 32.6326C17.72 32.7255 17.8022 32.8386 17.859 32.9649C17.9157 33.0911 17.9457 33.2277 17.9471 33.3661C17.9485 33.5045 17.9212 33.6417 17.8669 33.7691C17.7395 34.1801 17.5874 34.591 17.4189 34.9733C17.3737 35.1077 17.3007 35.2311 17.2046 35.3355C17.1085 35.4399 16.9916 35.5228 16.8613 35.5791C16.7311 35.6353 16.5905 35.6634 16.4486 35.6617C16.3068 35.66 16.1669 35.6285 16.038 35.5692C15.3434 35.2322 14.9941 35.4418 14.4804 35.9802C13.9666 36.5186 13.7324 36.9748 14.1598 37.6981C14.2197 37.8194 14.2541 37.9516 14.2609 38.0867C14.2677 38.2218 14.2468 38.3568 14.1995 38.4835C14.1521 38.6102 14.0793 38.7259 13.9855 38.8233C13.8918 38.9208 13.779 38.998 13.6543 39.0503C13.2844 39.2434 12.9063 39.4119 12.52 39.5722C12.3908 39.6449 12.2474 39.6886 12.0997 39.7002C11.952 39.7119 11.8035 39.6911 11.6646 39.6395C11.5257 39.5878 11.3997 39.5065 11.2955 39.4012C11.1912 39.2959 11.1112 39.1691 11.0609 39.0297C10.8061 38.2941 10.4157 38.0557 9.68412 38.2694C9.47996 38.3166 9.2677 38.3166 9.06353 38.2694C8.70597 38.1995 8.53746 38.3434 8.45938 38.6804C8.41625 38.8577 8.35424 39.03 8.27443 39.1941C8.17455 39.453 7.97861 39.6633 7.72747 39.7812C7.47632 39.8991 7.18935 39.9155 6.92639 39.827C6.50806 39.6956 6.09656 39.5433 5.69342 39.3708C5.43574 39.2679 5.228 39.0691 5.11381 38.8162C4.99962 38.5633 4.98788 38.276 5.08104 38.0146C5.17557 37.7063 5.29065 37.4063 5.3934 37.1186ZM13.6954 31.3319C13.6986 30.4728 13.4466 29.632 12.9712 28.9164C12.4958 28.2007 11.8186 27.6425 11.0254 27.3124C10.2322 26.9823 9.35881 26.8953 8.51608 27.0624C7.67335 27.2295 6.89926 27.6432 6.29205 28.251C5.68483 28.8588 5.27187 29.6333 5.10555 30.4762C4.93924 31.319 5.02708 32.1923 5.35793 32.9852C5.68877 33.7781 6.2477 34.4548 6.9638 34.9295C7.67989 35.4042 8.52086 35.6555 9.37999 35.6514C10.5232 35.6449 11.6177 35.1876 12.4257 34.3788C13.2337 33.5701 13.69 32.4751 13.6954 31.3319Z" fill="#5BBC2E"/>
<path d="M21.4911 38.1591L20.6692 37.4069L20.5828 37.4275C19.5636 37.9864 19.3499 37.4275 19.0745 36.6055C19.0437 36.532 19.029 36.4527 19.0316 36.3731C19.0342 36.2934 19.0539 36.2152 19.0894 36.1439C19.1248 36.0725 19.1753 36.0096 19.2373 35.9595C19.2993 35.9094 19.3713 35.8732 19.4485 35.8534C19.5246 35.8402 19.5966 35.8098 19.6591 35.7644C19.7216 35.7191 19.7729 35.66 19.809 35.5917C19.8451 35.5235 19.8651 35.4479 19.8674 35.3707C19.8698 35.2935 19.8544 35.2168 19.8225 35.1465C19.8205 35.1329 19.8205 35.119 19.8225 35.1054C19.8529 35.0214 19.8638 34.9316 19.8545 34.8428C19.8453 34.754 19.816 34.6684 19.769 34.5925C19.7219 34.5166 19.6583 34.4523 19.5829 34.4045C19.5074 34.3566 19.4222 34.3265 19.3334 34.3163C18.9718 34.2095 18.8731 33.9053 18.9841 33.5272C19.0339 33.3525 19.0943 33.1809 19.1649 33.0135C19.1857 32.9162 19.2294 32.8252 19.2922 32.748C19.355 32.6708 19.4353 32.6096 19.5263 32.5695C19.6174 32.5294 19.7167 32.5114 19.8161 32.5172C19.9154 32.5229 20.012 32.5522 20.0979 32.6025C20.1544 32.6383 20.218 32.6615 20.2843 32.6705C20.3506 32.6795 20.4181 32.6741 20.4821 32.6545C20.5461 32.635 20.6051 32.6019 20.6552 32.5575C20.7052 32.513 20.745 32.4583 20.7719 32.397C20.8327 32.2975 20.9139 32.212 21.0103 32.1463C21.2486 31.9901 21.2281 31.8216 21.1171 31.5873C20.8623 31.0613 20.9774 30.7654 21.5281 30.527L21.8117 30.3996C22.346 30.1653 22.6337 30.2475 22.8433 30.7736C22.9625 31.0448 23.1022 31.1846 23.3981 31.0654C23.4616 31.05 23.5278 31.05 23.5913 31.0654C23.6693 31.0923 23.7524 31.1015 23.8345 31.0925C23.9165 31.0834 23.9956 31.0563 24.0659 31.0131C24.1362 30.9699 24.1961 30.9116 24.2413 30.8425C24.2864 30.7733 24.3157 30.6951 24.327 30.6133C24.3486 30.5294 24.3887 30.4514 24.4442 30.3849C24.4998 30.3185 24.5694 30.2652 24.6481 30.229C24.7268 30.1928 24.8126 30.1746 24.8992 30.1756C24.9859 30.1767 25.0712 30.1971 25.1489 30.2352C25.3092 30.2845 25.4695 30.3462 25.6257 30.4119C26.1107 30.6051 26.2504 30.8763 26.0367 31.3572C25.9216 31.649 25.9339 31.8463 26.2216 32.0024C26.292 32.038 26.3527 32.0902 26.3983 32.1545C26.6079 32.471 26.8381 32.4956 27.1792 32.3148C27.2549 32.2673 27.3405 32.2377 27.4294 32.2283C27.5183 32.2188 27.6081 32.2298 27.6921 32.2603C27.7762 32.2908 27.8521 32.3401 27.9142 32.4043C27.9763 32.4686 28.0229 32.5462 28.0505 32.6313C28.1204 32.7587 28.1738 32.8902 28.2314 33.0422C28.4821 33.6053 28.3957 33.8642 27.8204 34.119C27.5902 34.2218 27.4875 34.341 27.5697 34.5917C27.586 34.655 27.586 34.7215 27.5697 34.7848C27.5039 35.1958 27.6067 35.5164 28.0875 35.6068C28.1424 35.5953 28.1994 35.5995 28.2519 35.6191C28.5643 35.8657 28.5519 36.2685 28.2149 36.9425C28.1851 37.0204 28.1399 37.0914 28.082 37.1514C28.0242 37.2114 27.9548 37.2591 27.8781 37.2917C27.8014 37.3243 27.7189 37.3412 27.6355 37.3412C27.5522 37.3412 27.4697 37.3244 27.3929 37.2919C27.2244 37.2467 26.9819 37.1234 26.8915 37.1932C26.6256 37.4114 26.3918 37.666 26.197 37.9495C26.1517 38.0111 26.2463 38.1878 26.2956 38.3029C26.5134 38.8249 26.4189 39.0879 25.8846 39.3345C25.7777 39.3838 25.675 39.4372 25.564 39.4824C25.0626 39.6962 24.7667 39.6099 24.5612 39.1126C24.4338 38.8043 24.2653 38.7016 23.9694 38.8043C23.9315 38.8123 23.8923 38.8123 23.8543 38.8043C23.4104 38.7016 23.1803 38.8783 23.0323 39.3181C23.0087 39.3903 22.9704 39.4569 22.9198 39.5136C22.8692 39.5703 22.8074 39.6159 22.7383 39.6476C22.6692 39.6792 22.5942 39.6962 22.5182 39.6975C22.4423 39.6988 22.3668 39.6844 22.2967 39.6551C22.1727 39.6188 22.0506 39.5762 21.9309 39.5277C21.2363 39.2728 21.1336 39.0509 21.3802 38.3481C21.4459 38.3029 21.4624 38.2413 21.4911 38.1591ZM26.1107 34.9616C26.115 34.3228 25.8654 33.7085 25.4169 33.2538C24.9683 32.799 24.3574 32.5411 23.7187 32.5367C23.0799 32.5324 22.4656 32.7819 22.0109 33.2305C21.5561 33.6791 21.2982 34.2899 21.2939 34.9287C21.2895 35.5674 21.5391 36.1817 21.9876 36.6365C22.4362 37.0912 23.0471 37.3492 23.6858 37.3535C24.3246 37.3579 24.9389 37.1083 25.3936 36.6597C25.8484 36.2112 26.1063 35.6003 26.1107 34.9616Z" fill="#5BBC2E"/>
</svg>
