<svg xmlns="http://www.w3.org/2000/svg" width="93" height="121" viewBox="0 0 93 121" fill="none">
  <g opacity="0.6">
    <path d="M66.9065 -1.14058e-06L93 60.5L66.9065 121L2.34032e-06 121L27.4317 60.5L7.62939e-06 -4.06516e-06L66.9065 -1.14058e-06Z" fill="url(#paint0_linear_503_197)"/>
    <path d="M66.9065 -1.14058e-06L93 60.5L66.9065 121L2.34032e-06 121L27.4317 60.5L7.62939e-06 -4.06516e-06L66.9065 -1.14058e-06Z" fill="#3E88EC" fill-opacity="0.7"/>
    <path d="M66.9065 -1.14058e-06L93 60.5L66.9065 121L2.34032e-06 121L27.4317 60.5L7.62939e-06 -4.06516e-06L66.9065 -1.14058e-06Z" fill="url(#paint1_angular_503_197)" fill-opacity="0.2"/>
  </g>
  <defs>
    <linearGradient id="paint0_linear_503_197" x1="65.2608" y1="25.1066" x2="-7.32438" y2="66.8877" gradientUnits="userSpaceOnUse">
      <stop stopColor="#182F59"/>
      <stop offset="1" stopColor="#020F26"/>
    </linearGradient>
    <radialGradient id="paint1_angular_503_197" cx="0" cy="0" r="1" gradientUnits="userSpaceOnUse" gradientTransform="translate(28.9452 85.4323) rotate(-54.6001) scale(85.13 80.6417)">
      <stop stopColor="#4C576B" stopOpacity="0.5"/>
      <stop offset="1" stopOpacity="0.7"/>
    </radialGradient>
  </defs>
</svg>