<svg xmlns="http://www.w3.org/2000/svg" width="79" height="78" viewBox="0 0 79 78" fill="none">
  <path d="M4.63556 31.2486C4.63556 29.0061 6.45345 27.1882 8.69592 27.1882H70.0074C72.2499 27.1882 74.0678 29.0061 74.0678 31.2486V69.822C74.0678 72.0645 72.2499 73.8824 70.0074 73.8824H8.69592C6.45345 73.8824 4.63556 72.0645 4.63556 69.822V31.2486Z" fill="white"/>
  <path d="M78.3841 14.0164V19.1832C78.3325 19.2681 78.2864 19.3563 78.2461 19.4471C77.6776 20.9921 76.3133 21.8468 74.8293 21.5829C73.3452 21.3189 72.3179 20.0826 72.3058 18.4361C72.3058 17.5245 72.3058 16.6089 72.3058 15.7014C72.2936 10.2341 68.3225 6.27732 62.8573 6.26513C54.8543 6.26513 46.852 6.26513 38.8504 6.26513C31.1763 6.26513 23.5022 6.22859 15.8302 6.28544C8.84836 6.33416 4.44692 13.7261 7.80078 19.7699C9.58734 22.9918 12.4519 24.5084 16.1245 24.5084C31.7488 24.5084 47.3738 24.5084 62.9994 24.5084C70.2939 24.5084 76.3661 29.3341 78.0065 36.4154C78.1527 37.0488 78.2542 37.6924 78.378 38.3298V64.1639C78.3222 64.3522 78.2761 64.5433 78.24 64.7364C77.162 72.4308 70.8501 77.9793 63.0806 77.9874C48.3442 78.0077 33.6058 78.0043 18.8653 77.9773C17.6004 77.9798 16.3388 77.8492 15.1013 77.5875C6.44665 75.7096 0.589576 68.4009 0.583485 59.527C0.574011 44.8894 0.572658 30.2524 0.579425 15.6162C0.553063 12.1433 1.71158 8.76519 3.86375 6.03944C6.01593 3.31369 9.03315 1.40319 12.4174 0.623257C13.126 0.456782 13.8446 0.330911 14.5572 0.186768H64.7027C64.8383 0.244526 64.979 0.289388 65.123 0.32076C68.0821 0.700063 70.8634 1.94476 73.1178 3.8987C75.3722 5.85265 76.9995 8.42882 77.7954 11.304C78.0471 12.1933 78.1913 13.1109 78.3841 14.0164ZM6.65779 27.576V28.185C6.65779 38.7203 6.66117 49.2542 6.66794 59.7868C6.668 60.5462 6.7428 61.3037 6.89126 62.0485C8.07689 67.8994 12.9818 71.907 18.9627 71.9111C33.58 71.9111 48.1913 71.9111 62.7964 71.9111C68.355 71.9111 72.2997 67.9583 72.3017 62.3834C72.3017 54.9651 72.3017 47.5462 72.3017 40.1265C72.3017 34.5111 68.3591 30.5847 62.7375 30.5847C47.2662 30.5847 31.7942 30.5793 16.3215 30.5684C14.9582 30.5502 13.5992 30.4096 12.2611 30.1482C10.2492 29.7746 8.4545 28.8408 6.65779 27.576Z" fill="#5BBC2E"/>
  <path d="M62.4551 55.0444C61.9568 55.0411 61.4641 54.9396 61.005 54.7459C60.5459 54.5521 60.1295 54.2698 59.7795 53.9151C59.0727 53.1988 58.6793 52.231 58.6861 51.2246C58.6928 50.2183 59.099 49.2559 59.8154 48.549C60.5317 47.8422 61.4995 47.4489 62.5059 47.4556C63.5122 47.4623 64.4747 47.8686 65.1815 48.5849C65.8883 49.3013 66.2816 50.2691 66.2749 51.2754C66.2682 52.2817 65.8619 53.2442 65.1456 53.951C64.4292 54.6578 63.4614 55.0512 62.4551 55.0444Z" fill="#5BBC2E"/>
</svg>