<svg width="82" height="32" viewBox="0 0 82 32" fill="none" xmlns="http://www.w3.org/2000/svg">
<g id="Vector">
<path d="M37.732 8.06491H38.1457L38.2129 7.33651C38.2153 7.29606 38.2267 7.25666 38.2463 7.22118C38.2659 7.1857 38.2931 7.15504 38.3261 7.13143C38.4158 7.07629 38.5179 7.04467 38.6231 7.03949C38.7959 7.02367 38.9694 7.01659 39.1429 7.01828H39.5742V11.2614C39.5749 11.3129 39.5571 11.3631 39.524 11.4026C39.491 11.4422 39.4448 11.4686 39.3939 11.4771C39.2463 11.5162 39.0939 11.5341 38.9413 11.5301H38.8211V11.8837H41.0134V11.5301H40.8896C40.7358 11.5338 40.5823 11.5159 40.4335 11.4771C40.3832 11.4679 40.3379 11.4411 40.3055 11.4016C40.2732 11.3621 40.2558 11.3124 40.2567 11.2614V7.01828H40.6881C40.8616 7.01659 41.035 7.02367 41.2078 7.03949C41.314 7.04526 41.4172 7.07681 41.5084 7.13143C41.5412 7.15485 41.5682 7.18555 41.5872 7.22112C41.6062 7.2567 41.6168 7.29619 41.618 7.33651L41.6816 8.06491H42.0989V6.60104H37.732V8.06491Z" fill="#182F59"/>
<path d="M45.9789 9.22492C45.9177 8.9832 45.8069 8.75683 45.6536 8.56017C45.5162 8.3859 45.3376 8.24858 45.1338 8.16061C44.9097 8.06828 44.669 8.02256 44.4266 8.02625C44.1068 8.0228 43.7926 8.11115 43.5215 8.28083C43.2474 8.45348 43.026 8.69811 42.8815 8.98802C42.7168 9.3056 42.6342 9.6593 42.641 10.017C42.6319 10.3777 42.7198 10.7343 42.8956 11.0495C43.0555 11.336 43.2933 11.5714 43.5816 11.7283C43.8819 11.8877 44.2175 11.9691 44.5575 11.9653C44.788 11.9702 45.0173 11.9306 45.2328 11.8486C45.4152 11.7759 45.582 11.6691 45.7243 11.5339C45.8608 11.4037 45.9796 11.2563 46.0779 11.0954L45.7243 10.7843C45.6495 10.909 45.5644 11.0273 45.4697 11.1378C45.3646 11.2572 45.2389 11.3566 45.0985 11.4313C44.9372 11.5156 44.757 11.557 44.5752 11.5516C44.4039 11.5539 44.234 11.5202 44.0766 11.4525C43.9222 11.3857 43.7845 11.2855 43.6735 11.1591C43.5549 11.0193 43.4658 10.8569 43.4118 10.6817C43.3621 10.5199 43.3336 10.3523 43.327 10.1832H46.0956C46.1013 9.85988 46.062 9.53738 45.9789 9.22492ZM43.6346 8.87133C43.7277 8.74242 43.8485 8.63608 43.9882 8.56017C44.1221 8.48564 44.2734 8.44782 44.4266 8.45056C44.5718 8.44777 44.7157 8.478 44.8474 8.53895C44.9691 8.59978 45.0718 8.69271 45.1444 8.80768C45.2334 8.94541 45.2946 9.09914 45.3248 9.26028C45.3546 9.42028 45.3735 9.58213 45.3813 9.7447H43.334C43.3454 9.6166 43.3691 9.4899 43.4048 9.36636C43.4504 9.18868 43.5283 9.02089 43.6346 8.87133Z" fill="#182F59"/>
<path d="M50.0824 11.0886C49.9658 11.2149 49.8282 11.3202 49.6758 11.3998C49.4983 11.4889 49.3015 11.5326 49.103 11.5271C48.9165 11.5297 48.7318 11.491 48.562 11.4139C48.4047 11.3423 48.2665 11.2344 48.1589 11.0992C48.0467 10.9547 47.9627 10.7904 47.9114 10.6148C47.8531 10.4114 47.8245 10.2006 47.8265 9.98895C47.8173 9.71742 47.863 9.44682 47.9609 9.19337C48.0512 8.97116 48.2065 8.78137 48.4064 8.64884C48.6264 8.51116 48.8825 8.44221 49.1419 8.45083C49.3818 8.44958 49.6184 8.50661 49.8314 8.61702C49.8773 8.64177 49.9127 8.66652 49.9516 8.69127V9.44088H50.6057V8.51801C50.5151 8.43556 50.4141 8.36542 50.3052 8.30939C50.1456 8.22774 49.9787 8.16144 49.8066 8.11138C49.5901 8.05197 49.3663 8.0234 49.1419 8.02652C48.7727 8.01878 48.4076 8.10518 48.0811 8.27757C47.7851 8.4346 47.5399 8.67249 47.3739 8.96354C47.1978 9.27615 47.1087 9.63022 47.1158 9.98895C47.1087 10.3425 47.1927 10.692 47.3598 11.0038C47.5145 11.3002 47.7515 11.5457 48.0422 11.7109C48.3564 11.8859 48.7116 11.9738 49.0711 11.9655C49.3126 11.9698 49.5527 11.9278 49.7783 11.8418C49.97 11.7644 50.1461 11.653 50.2981 11.5129C50.4415 11.3751 50.5695 11.2222 50.68 11.0568L50.3547 10.7456C50.2695 10.8643 50.1786 10.9788 50.0824 11.0886Z" fill="#182F59"/>
<path d="M55.6065 11.5204C55.5279 11.5118 55.4526 11.4838 55.3873 11.4391C55.3619 11.4205 55.3416 11.3959 55.328 11.3675C55.3144 11.3392 55.3081 11.3079 55.3095 11.2765V9.22563C55.3192 8.9892 55.2681 8.75422 55.161 8.5432C55.0663 8.3729 54.9203 8.23679 54.7438 8.15425C54.3801 7.99781 53.9707 7.98517 53.5981 8.11889C53.4367 8.17905 53.2879 8.269 53.1597 8.38409C53.0579 8.47453 52.9644 8.57393 52.8803 8.6811V6.41458H51.5862V6.76817H51.6675C51.7738 6.78372 51.8789 6.80616 51.9822 6.83536C52.0478 6.85294 52.1083 6.88564 52.159 6.93083C52.2008 6.97857 52.2224 7.04071 52.2191 7.10409V11.2765C52.2199 11.3081 52.2128 11.3395 52.1987 11.3679C52.1845 11.3962 52.1636 11.4207 52.1378 11.4391C52.0719 11.4826 51.9969 11.5105 51.9186 11.5204C51.8132 11.5355 51.7068 11.5426 51.6003 11.5417V11.8952H53.4496V11.5417H53.1986C53.1262 11.5383 53.0541 11.5301 52.9829 11.5169C52.9228 11.5169 52.8945 11.4886 52.8945 11.4745V9.17613C52.9666 9.07209 53.0483 8.97501 53.1385 8.88619C53.2586 8.76573 53.4001 8.66862 53.5557 8.59978C53.7055 8.53602 53.8667 8.50353 54.0295 8.50431C54.1599 8.49746 54.2896 8.52683 54.4043 8.58917C54.4996 8.64979 54.5699 8.74266 54.6023 8.85083C54.6459 9.00126 54.6662 9.15747 54.6624 9.31403V11.4745C54.6624 11.4745 54.6306 11.5028 54.5705 11.5169C54.498 11.5296 54.4248 11.5379 54.3513 11.5417H54.1179V11.8952H55.9601V11.5417C55.8419 11.5446 55.7236 11.5375 55.6065 11.5204Z" fill="#182F59"/>
<path d="M56.8029 6.9509H56.8842C57.0377 6.94803 57.191 6.96467 57.3403 7.00041C57.3906 7.00961 57.4359 7.03634 57.4683 7.07584C57.5006 7.11533 57.518 7.16504 57.5171 7.2161V11.2576C57.518 11.3087 57.5006 11.3584 57.4683 11.3979C57.4359 11.4374 57.3906 11.4641 57.3403 11.4733C57.1915 11.5122 57.038 11.5301 56.8842 11.5264H56.8029V11.88H59.034V11.5264H58.6804C58.6018 11.5237 58.5236 11.513 58.4471 11.4946C58.3858 11.4837 58.3285 11.4569 58.2809 11.4168C58.2592 11.3981 58.2421 11.3747 58.2311 11.3483C58.22 11.3219 58.2153 11.2933 58.2172 11.2647V9.42958H58.6592L59.3204 9.45079L59.9781 9.47555V8.96991L59.3204 8.98759C59.1012 8.98759 58.882 8.98759 58.6592 9.00881H58.2172V7.0393H59.2144C59.3879 7.03762 59.5613 7.0447 59.7341 7.06052C59.8393 7.06569 59.9415 7.09731 60.0312 7.15245C60.0631 7.17704 60.0896 7.20793 60.1091 7.24322C60.1285 7.2785 60.1405 7.31741 60.1443 7.35753L60.2115 8.02582H60.6252V6.61146H56.8029V6.9509Z" fill="#182F59"/>
<path d="M64.6425 8.57758C64.4649 8.40437 64.2561 8.26639 64.0272 8.17095C63.5266 7.97774 62.972 7.97774 62.4714 8.17095C62.2425 8.26639 62.0337 8.40437 61.8562 8.57758C61.6787 8.75095 61.5411 8.9609 61.4531 9.19283C61.3558 9.4454 61.3078 9.71425 61.3116 9.98487C61.3044 10.34 61.3897 10.691 61.5591 11.0032C61.7174 11.2983 61.955 11.5432 62.2451 11.7104C62.5538 11.8763 62.8988 11.9631 63.2493 11.9631C63.5998 11.9631 63.9448 11.8763 64.2535 11.7104C64.5436 11.5432 64.7812 11.2983 64.9395 11.0032C65.1089 10.691 65.1942 10.34 65.187 9.98487C65.1908 9.71425 65.1428 9.4454 65.0455 9.19283C64.9575 8.9609 64.8199 8.75095 64.6425 8.57758ZM64.3384 10.7981C64.2504 11.0147 64.1018 11.2013 63.9105 11.3356C63.7153 11.4663 63.4842 11.5331 63.2493 11.5265C63.0157 11.5317 62.7862 11.465 62.5916 11.3356C62.3993 11.2015 62.2496 11.0149 62.1602 10.7981C61.9575 10.2761 61.9575 9.69715 62.1602 9.17515C62.2505 8.95986 62.4001 8.77468 62.5916 8.64122C62.7862 8.5118 63.0157 8.44516 63.2493 8.45029C63.4842 8.44373 63.7153 8.51047 63.9105 8.64122C64.1037 8.77964 64.2524 8.97131 64.3384 9.19283C64.5411 9.71483 64.5411 10.2938 64.3384 10.8158V10.7981Z" fill="#182F59"/>
<path d="M68.534 8.02614C68.353 8.02357 68.1746 8.07 68.0178 8.16051C67.8633 8.24902 67.7294 8.36958 67.6253 8.5141C67.537 8.64084 67.4634 8.77727 67.4061 8.92073V8.1004H66.1862V8.45399H66.2605C66.383 8.47756 66.4856 8.50231 66.5681 8.52824C66.6348 8.54643 66.6973 8.57768 66.7519 8.62018C66.7722 8.64325 66.7877 8.67015 66.7974 8.69931C66.8071 8.72846 66.8109 8.75926 66.8085 8.7899V11.265C66.8102 11.3148 66.7941 11.3636 66.7629 11.4025C66.7318 11.4414 66.6878 11.4679 66.6388 11.4772C66.4961 11.5165 66.3483 11.5343 66.2003 11.5302V11.8838H68.2194V11.5302H68.0956C68.012 11.5347 67.9282 11.5347 67.8445 11.5302C67.757 11.5233 67.6718 11.4993 67.5935 11.4595C67.561 11.4439 67.5338 11.4192 67.5149 11.3885C67.4961 11.3578 67.4866 11.3223 67.4874 11.2863V9.30968C67.5117 9.25751 67.5388 9.20675 67.5687 9.15763C67.6243 9.05379 67.6946 8.95852 67.7774 8.87476C67.853 8.80124 67.9434 8.7446 68.0426 8.70857C68.1558 8.66766 68.2758 8.64847 68.3961 8.652H68.5376L68.6826 8.66968C68.7244 8.67421 68.7651 8.68619 68.8028 8.70504V8.05089C68.7687 8.03842 68.7329 8.03127 68.6967 8.02968L68.534 8.02614Z" fill="#182F59"/>
<path d="M71.0786 11.4882C71.0287 11.4798 70.9834 11.4538 70.951 11.4149C70.9185 11.3759 70.9011 11.3267 70.9018 11.2761V8.09375H69.6112V8.44734H69.6925C69.834 8.47031 69.9727 8.50824 70.1062 8.56049C70.1498 8.57794 70.1865 8.60913 70.2108 8.64933C70.235 8.68954 70.2455 8.73656 70.2406 8.78325V11.2584C70.2422 11.3087 70.2255 11.3579 70.1937 11.3969C70.1618 11.4359 70.117 11.462 70.0673 11.4705C69.9233 11.5093 69.7745 11.5272 69.6253 11.5236V11.8772H71.5347V11.5236C71.3818 11.5345 71.2281 11.5226 71.0786 11.4882Z" fill="#182F59"/>
<path d="M70.5393 7.27648C70.5991 7.27874 70.6587 7.26895 70.7145 7.24769C70.7704 7.22642 70.8215 7.19413 70.8646 7.15273C70.9466 7.06284 70.9921 6.94556 70.9921 6.82389C70.9921 6.70222 70.9466 6.58494 70.8646 6.49505C70.7749 6.41628 70.6586 6.37456 70.5393 6.37836C70.4211 6.37475 70.306 6.4165 70.2175 6.49505C70.1332 6.58377 70.0862 6.70149 70.0862 6.82389C70.0862 6.94629 70.1332 7.06401 70.2175 7.15273C70.26 7.19403 70.3104 7.22629 70.3657 7.24756C70.4211 7.26883 70.4801 7.27867 70.5393 7.27648Z" fill="#182F59"/>
<path d="M76.3603 11.52C76.284 11.5107 76.2111 11.4828 76.1482 11.4386C76.1228 11.42 76.1024 11.3954 76.0889 11.3671C76.0753 11.3387 76.0689 11.3074 76.0704 11.276V9.22515C76.0801 8.98871 76.029 8.75374 75.9219 8.54272C75.8266 8.37411 75.6823 8.23846 75.5082 8.15377C75.3131 8.0647 75.1003 8.02117 74.8858 8.02647C74.7061 8.02498 74.5276 8.05613 74.359 8.11841C74.196 8.17922 74.046 8.27041 73.917 8.38714C73.7877 8.50329 73.6693 8.63113 73.5634 8.76901V8.10073H72.3612V8.45432H72.4355C72.558 8.47789 72.6606 8.50264 72.7431 8.52857C72.8098 8.54676 72.8723 8.57801 72.9269 8.62051C72.9473 8.64358 72.9627 8.67049 72.9724 8.69964C72.9821 8.72879 72.9859 8.7596 72.9835 8.79023V11.2654C72.985 11.2968 72.9786 11.3281 72.965 11.3565C72.9515 11.3848 72.9311 11.4094 72.9057 11.428C72.8418 11.4727 72.7676 11.5007 72.69 11.5093C72.5859 11.5246 72.4806 11.5317 72.3753 11.5306V11.8842H74.2176V11.5306H73.9665C73.8941 11.5272 73.8221 11.519 73.7508 11.5058C73.6907 11.5058 73.6589 11.4775 73.6589 11.4634V9.17211C73.7344 9.06758 73.8184 8.96943 73.9099 8.87863C74.0314 8.75807 74.174 8.66097 74.3307 8.59222C74.4781 8.52883 74.637 8.49634 74.7974 8.49675C74.9278 8.4899 75.0575 8.51927 75.1722 8.58161C75.2665 8.64336 75.3364 8.73581 75.3703 8.84327C75.4125 8.99392 75.4315 9.1501 75.4268 9.30647V11.4669C75.4268 11.4669 75.3986 11.4952 75.3349 11.5093C75.2625 11.5225 75.1892 11.5308 75.1157 11.5341H74.8858V11.8877H76.7281V11.5341C76.6053 11.54 76.4823 11.5353 76.3603 11.52Z" fill="#182F59"/>
<path d="M81.4176 8.63063V7.94466C81.2873 7.92678 81.1553 7.92678 81.0251 7.94466C80.9007 7.96819 80.7812 8.01241 80.6715 8.07549C80.5587 8.14284 80.4573 8.22756 80.3709 8.32654C80.3497 8.34775 80.3356 8.37251 80.3144 8.39726C80.2234 8.31624 80.1224 8.24731 80.0138 8.19217C79.7754 8.07591 79.5136 8.01549 79.2483 8.01549C78.983 8.01549 78.7212 8.07591 78.4828 8.19217C78.2653 8.30233 78.0811 8.46829 77.9488 8.67306C77.8167 8.88505 77.748 9.13044 77.7508 9.38024C77.7479 9.62956 77.8153 9.87467 77.9453 10.0874C78.0374 10.2285 78.1578 10.3489 78.2989 10.441C78.1848 10.5 78.076 10.5686 77.9736 10.6461C77.8671 10.7297 77.7761 10.8315 77.7049 10.9466C77.6461 11.0488 77.6156 11.1647 77.6165 11.2826C77.6159 11.3748 77.6339 11.4662 77.6695 11.5513C77.7159 11.6458 77.7837 11.7281 77.8675 11.7917L77.9807 11.8731C77.8954 11.9178 77.8128 11.9674 77.7331 12.0216C77.6234 12.0964 77.5286 12.1911 77.4538 12.3009C77.3936 12.3987 77.3617 12.5113 77.3619 12.6262C77.3573 12.7328 77.3758 12.8392 77.4161 12.9381C77.4563 13.0369 77.5175 13.1259 77.5952 13.199C77.7766 13.3558 77.9962 13.4619 78.2317 13.5066C78.5264 13.5732 78.8278 13.6053 79.1298 13.6021H79.4056C79.7267 13.6053 80.0464 13.5588 80.3533 13.4642C80.6229 13.3891 80.8673 13.2425 81.0604 13.0399C81.2402 12.8422 81.3354 12.582 81.3256 12.315C81.3321 12.1305 81.2774 11.949 81.1701 11.7988C81.0517 11.6542 80.8929 11.5483 80.7139 11.4947C80.472 11.4224 80.2202 11.389 79.9678 11.3957H78.8505C78.6953 11.4023 78.5403 11.3782 78.3944 11.325C78.3478 11.3082 78.3075 11.2775 78.279 11.237C78.2505 11.1965 78.2352 11.1482 78.2352 11.0987C78.2347 11.0297 78.2544 10.9621 78.2918 10.9042C78.3348 10.8367 78.3914 10.7789 78.458 10.7345C78.5158 10.6943 78.5761 10.6577 78.6383 10.6249C78.8362 10.6932 79.0443 10.7267 79.2536 10.7239C79.5189 10.73 79.7819 10.6731 80.0209 10.5577C80.2395 10.4527 80.4253 10.2901 80.5583 10.0874C80.6858 9.87032 80.753 9.62314 80.753 9.3714C80.753 9.11966 80.6858 8.87248 80.5583 8.65538L80.5159 8.60941C80.6317 8.58162 80.7505 8.56855 80.8695 8.57052C81.0145 8.5988 81.2019 8.60941 81.4176 8.63063ZM79.9466 12.0605C80.1506 12.0439 80.3555 12.0767 80.5442 12.1559C80.5979 12.1862 80.6419 12.2313 80.6707 12.2859C80.6995 12.3404 80.7121 12.4021 80.7068 12.4636C80.7035 12.5308 80.6868 12.5968 80.6577 12.6575C80.6285 12.7182 80.5875 12.7725 80.5371 12.8171C80.4067 12.9379 80.249 13.0253 80.0775 13.0717C79.8599 13.1386 79.6332 13.1708 79.4056 13.1672H79.144C78.9182 13.1709 78.6927 13.1483 78.4722 13.1C78.3287 13.0695 78.1951 13.0039 78.0832 12.9091C78.042 12.8708 78.0094 12.8242 77.9875 12.7724C77.9655 12.7206 77.9548 12.6648 77.9559 12.6085C77.9576 12.5267 77.9795 12.4465 78.0196 12.3752C78.0632 12.293 78.122 12.2198 78.1928 12.1595C78.2419 12.1181 78.2939 12.0803 78.3484 12.0463L79.9466 12.0605ZM79.9926 9.90355C79.9278 10.0341 79.8256 10.1424 79.6991 10.2147C79.5614 10.2893 79.4067 10.3271 79.25 10.3243C79.0957 10.3267 78.9434 10.2889 78.8081 10.2147C78.6805 10.1438 78.5779 10.0351 78.5146 9.90355C78.4396 9.74707 78.4032 9.57489 78.4085 9.40146C78.4037 9.22579 78.44 9.05143 78.5146 8.89228C78.5761 8.75683 78.6788 8.64423 78.8081 8.57052C78.9424 8.49349 79.0952 8.45439 79.25 8.45737C79.4072 8.45399 79.5623 8.49308 79.6991 8.57052C79.8269 8.64603 79.9291 8.75811 79.9926 8.89228C80.0642 9.05226 80.0993 9.22621 80.0951 9.40146C80.0991 9.57326 80.0641 9.74374 79.9926 9.90002V9.90355Z" fill="#182F59"/>
<path d="M47.4654 25.6426C47.3146 26.1831 47.0573 26.688 46.7087 27.1277C46.3791 27.537 45.9792 27.8842 45.5277 28.1531C45.0643 28.4226 44.564 28.6228 44.0426 28.7471C43.5027 28.875 42.9497 28.9391 42.3949 28.9381C41.5418 28.9542 40.6931 28.8128 39.8914 28.5208C39.2025 28.2665 38.5816 27.8562 38.0775 27.3222C37.5784 26.778 37.2021 26.1328 36.9743 25.4305C36.7139 24.6232 36.5873 23.7787 36.5995 22.9306C36.5916 22.1346 36.7332 21.3442 37.0167 20.6004C37.2797 19.909 37.6776 19.2768 38.1871 18.7405C38.6992 18.2072 39.3154 17.7848 39.9975 17.4994C40.7373 17.1944 41.531 17.0417 42.3312 17.0503C42.8706 17.0471 43.4084 17.1088 43.933 17.2342C44.4294 17.348 44.9061 17.5351 45.3474 17.7894C45.783 18.0399 46.1728 18.3627 46.5001 18.744C46.8514 19.154 47.1332 19.6186 47.3345 20.1195L45.213 21.0424C45.0993 20.7709 44.9507 20.5153 44.771 20.2822C44.5973 20.0501 44.3913 19.8441 44.1593 19.6705C43.9305 19.4953 43.675 19.358 43.4026 19.2638C43.1233 19.1654 42.8289 19.1164 42.5328 19.1189C42.0283 19.1037 41.5283 19.2168 41.0795 19.4477C40.6901 19.6612 40.3559 19.9627 40.1036 20.3281C39.8377 20.7025 39.6446 21.1235 39.5343 21.5692C39.4178 22.0424 39.3596 22.5281 39.361 23.0154C39.3587 23.5056 39.4193 23.994 39.5414 24.4687C39.6515 24.9041 39.8435 25.3145 40.1071 25.678C40.3676 26.0285 40.7067 26.3131 41.0972 26.5089C41.5458 26.7239 42.039 26.8293 42.5363 26.8165C43.171 26.8463 43.7963 26.6538 44.3043 26.272C44.7853 25.8585 45.1426 25.3201 45.3367 24.7162L47.4654 25.6426Z" fill="#182F59"/>
<path d="M49.6154 17.2125H57.4616V19.2492H52.2037V21.9436H56.4644V23.8459H52.2037V26.7241H57.7091V28.7573H49.6154V17.2125Z" fill="#182F59"/>
<path d="M60.3362 17.2125H63.3736L67.9207 24.8147V17.2125H70.2474V28.7573H67.6308L62.6805 20.5398V28.7573H60.3362V17.2125Z" fill="#182F59"/>
<path d="M75.6334 19.2492H72.5112V17.2125H81.3828V19.2492H78.2606V28.7573H75.6334V19.2492Z" fill="#182F59"/>
<path d="M3.66535 24.8857L6.66026 23.1602L3.57695 21.3923V10.6077L15.9774 3.45459L22.1369 6.9905L28.3814 10.6077V17.7291L29.9725 16.8097L31.3869 16V8.88575L22.1511 3.55359L21.3873 3.12221L19.0607 1.76796L15.9774 0L0.582031 8.88575V23.1107L3.65827 24.8787" fill="#4285F4"/>
<path d="M9.82014 14.2219V17.779L6.74037 19.554V16.0004L9.82014 14.2219Z" fill="#DB162F"/>
<path d="M15.9826 10.6677V21.332L13.4757 19.8858L12.9029 19.5535V12.4427L15.9826 10.6677Z" fill="#F5BB00"/>
<path d="M22.1297 3.55356L19.057 1.775V8.87511H19.0747L19.057 8.88925V19.5536L22.1333 17.7785V7.11423L22.1297 3.55356Z" fill="#5BBC2E"/>
<path d="M31.3798 16V23.1107C26.3942 25.996 20.9807 29.1182 15.9809 32C11.9889 29.7017 7.65385 27.1912 3.66535 24.8857C5.28479 23.9558 8.20547 22.2621 9.82139 21.3498L12.6501 22.9834C12.7597 23.0541 15.7971 24.7973 15.9809 24.907C19.8704 22.6475 24.3929 20.0451 28.2965 17.7927C28.2965 17.7927 28.3814 17.7467 28.3849 17.7467L31.3763 16.0177L31.3798 16Z" fill="#182F59"/>
<path d="M15.9795 24.8856V24.8892L12.8997 23.1141L12.6487 22.9656L15.9795 24.8856Z" fill="#182F59"/>
<path d="M19.2168 23.0187L19.0576 23.1142L15.9779 24.8928V24.8892L19.2168 23.0187Z" fill="#182F59"/>
<path d="M31.3763 12.4458V15.9994L28.3849 17.7285L28.3036 17.778H28.2965L25.2167 19.5566L24.6439 19.8889L22.1369 21.3316L19.2198 23.0182L19.0607 23.1137L15.9809 24.8922V24.8887L12.9011 23.1137L12.6501 22.9652H12.6466L9.82137 21.3316L6.9891 22.9652L6.74159 23.1137L6.66026 23.1596L3.66535 24.8852L3.66181 24.8887L0.582031 23.1137L0.585567 23.1101L3.57695 21.3811L3.66181 21.3316L6.16877 19.8889L6.74159 19.553L9.82137 17.778L12.9011 19.553L13.474 19.8889L15.9809 21.3316L18.4808 19.8889L19.0607 19.553L22.1369 17.778L23.82 16.8091L25.2167 15.9994L28.2965 14.2244V14.2209L28.3814 14.1714L29.1522 13.7294L31.3763 12.4458Z" fill="#4285F4"/>
<path d="M9.82014 14.2219V17.779L6.74037 19.554V16.0004L9.82014 14.2219Z" fill="#DB162F"/>
<path d="M15.9826 10.6677V21.332L13.4757 19.8894L12.9029 19.5535V12.4427L15.9826 10.6677Z" fill="#F5BB00"/>
<path d="M22.1297 7.11044L19.057 5.33542V8.87511H19.0747L19.057 8.88925V19.5536L22.1333 17.7785V7.11423V7.11044H22.1297Z" fill="#5BBC2E"/>
</g>
</svg>
