<svg width="20" height="21" viewBox="0 0 20 21" fill="none" xmlns="http://www.w3.org/2000/svg">
<g id="Check">
<path id="Vector" fill-rule="evenodd" clip-rule="evenodd" d="M16.7074 6.02496C16.8949 6.21249 17.0002 6.4668 17.0002 6.73196C17.0002 6.99713 16.8949 7.25144 16.7074 7.43896L8.70741 15.439C8.51988 15.6264 8.26557 15.7318 8.00041 15.7318C7.73524 15.7318 7.48094 15.6264 7.29341 15.439L3.29341 11.439C3.11125 11.2504 3.01045 10.9978 3.01273 10.7356C3.01501 10.4734 3.12018 10.2226 3.30559 10.0371C3.491 9.85174 3.74181 9.74657 4.00401 9.74429C4.2662 9.74201 4.5188 9.84281 4.70741 10.025L8.00041 13.318L15.2934 6.02496C15.4809 5.83749 15.7352 5.73218 16.0004 5.73218C16.2656 5.73218 16.5199 5.83749 16.7074 6.02496Z" fill="#5BBC2E"/>
</g>
</svg>
