<svg width="70" height="32" viewBox="0 0 70 32" fill="none" xmlns="http://www.w3.org/2000/svg">
<g id="Vector">
<path d="M23.932 5.73322L20.8186 7.52915L17.6266 5.68681C17.4623 5.59398 17.2553 5.64753 17.1589 5.81177L16.5126 6.93289C16.4876 6.9793 16.4341 7.00073 16.3841 6.98644C14.7631 6.54014 13.0529 6.54014 11.4319 6.98644C11.3819 7.00073 11.3283 6.9793 11.3033 6.93289L10.6571 5.81177C10.5643 5.64753 10.3536 5.59398 10.1894 5.68681L6.83674 7.62198C6.6725 7.71481 6.61894 7.92547 6.71177 8.08971L7.35802 9.21082C7.38301 9.25724 7.37587 9.31079 7.34017 9.35007C6.14407 10.5319 5.28717 12.0136 4.86229 13.6382C4.84801 13.6881 4.80516 13.7238 4.75161 13.7238H3.45911C3.26988 13.7238 3.11635 13.8774 3.11635 14.0666V17.937C3.11635 18.1262 3.26988 18.2797 3.45911 18.2797H4.75161C4.80516 18.2797 4.84801 18.3154 4.86229 18.3654C5.07294 19.1795 5.39428 19.9578 5.81202 20.6791C6.22976 21.4003 6.74033 22.0679 7.34017 22.6571C7.37587 22.6928 7.38658 22.7499 7.35802 22.7963L6.71177 23.9139C6.61894 24.0781 6.6725 24.2852 6.83674 24.3816L10.1894 26.3168C10.3536 26.4096 10.5607 26.356 10.6571 26.1918L11.1498 25.3385C11.182 25.2849 11.2498 25.2671 11.3069 25.2956L12.3888 25.9204L7.83289 28.5519L0.17431 24.1245C0.0671974 24.0638 0.00292969 23.9496 0.00292969 23.8282V8.16826C0.00292969 8.04686 0.0671974 7.93261 0.17431 7.87191L13.7384 0.045523C13.8455 -0.0151743 13.974 -0.0151743 14.0811 0.045523L23.932 5.73322Z" fill="#5BBC2E"/>
<path d="M27.813 5.24407V10.3069C27.813 10.4283 27.7488 10.5426 27.6416 10.6033L20.0616 14.9806L15.6628 17.5192L15.5093 17.6085L13.9133 16.6873V13.274L17.0268 11.478L20.2151 9.6357L20.8971 9.24296L25.453 6.61155L27.813 5.24407Z" fill="#F5BB00"/>
<path d="M21.1042 23.9067C21.197 24.071 21.1435 24.278 20.9792 24.3745L17.6266 26.3096C17.4623 26.4025 17.2553 26.3489 17.1589 26.1847L16.6661 25.3313C16.634 25.2778 16.5662 25.2563 16.509 25.2885L13.9062 26.7916L13.9026 26.7881L9.35032 29.423L13.7348 31.9545C13.8419 32.0152 13.9705 32.0152 14.0776 31.9545L27.6452 24.1209C27.7523 24.0603 27.8166 23.946 27.8166 23.8246V19.6543C27.8166 19.5329 27.7523 19.4187 27.6452 19.358L27.2168 19.1116L23.2607 21.3931V21.3967L22.6645 21.7395L21.147 22.6178L20.6579 22.8999C20.6043 22.932 20.5865 22.9998 20.615 23.057L21.1042 23.9067Z" fill="#F5BB00"/>
<path d="M27.2132 19.1081C26.824 19.333 22.918 21.5895 22.6573 21.7359C21.7219 21.1968 16.3269 18.0798 15.5057 17.6085C16.4698 17.0515 19.0619 15.5555 20.0616 14.9806C22.3467 16.3017 24.9245 17.7906 27.2132 19.1081Z" fill="#DB162F"/>
<path d="M27.2132 19.1081C26.824 19.333 22.918 21.5895 22.6573 21.7359C21.7219 21.1968 16.3269 18.0798 15.5057 17.6085C16.4698 17.0515 19.0619 15.5555 20.0616 14.9806C22.3467 16.3017 24.9245 17.7906 27.2132 19.1081Z" fill="url(#paint0_linear_695_2954)"/>
<path d="M43.7979 25.4277C43.63 25.999 43.3801 26.4881 43.0445 26.9023C42.7089 27.3165 42.3161 27.6557 41.8662 27.9235C41.4164 28.1912 40.9237 28.3876 40.3917 28.5162C39.8597 28.6447 39.3134 28.709 38.7528 28.709C37.8102 28.709 36.9819 28.5697 36.2607 28.2912C35.543 28.0127 34.9396 27.6164 34.4576 27.0987C33.972 26.581 33.6078 25.9526 33.3579 25.2171C33.108 24.478 32.9866 23.6497 32.9866 22.7285C32.9866 21.8966 33.1258 21.1254 33.4008 20.4113C33.6792 19.6972 34.0649 19.0795 34.5647 18.5546C35.0646 18.0334 35.6644 17.6228 36.3642 17.3228C37.064 17.0229 37.8388 16.8765 38.685 16.8765C39.2456 16.8765 39.774 16.9372 40.2774 17.0551C40.7808 17.1729 41.245 17.3585 41.6734 17.6085C42.1019 17.8584 42.4839 18.1726 42.8196 18.5582C43.1552 18.9438 43.4301 19.3973 43.6515 19.9257L41.5342 20.8433C41.4199 20.5719 41.2736 20.3184 41.095 20.0864C40.9165 19.8543 40.713 19.6508 40.4881 19.4794C40.2596 19.308 40.0096 19.1723 39.7347 19.0759C39.4598 18.9795 39.1706 18.9295 38.8671 18.9295C38.303 18.9295 37.8209 19.0402 37.4246 19.258C37.0283 19.4758 36.7034 19.7686 36.4535 20.1328C36.2035 20.497 36.0179 20.9111 35.9036 21.3753C35.7894 21.8394 35.7322 22.3179 35.7322 22.8106C35.7322 23.3176 35.7929 23.7996 35.9143 24.2566C36.0357 24.7136 36.2214 25.1171 36.4785 25.4599C36.7355 25.8026 37.064 26.0811 37.4639 26.2846C37.8638 26.4881 38.3422 26.5917 38.8956 26.5917C39.624 26.5917 40.2096 26.4132 40.6523 26.049C41.0986 25.6884 41.4378 25.1742 41.6806 24.503L43.7979 25.4277Z" fill="#182F59"/>
<path d="M45.9794 17.0408H49.4141L52.2776 24.5565L55.0697 17.0408H58.4438V28.5269H55.8552V20.4613L52.6775 28.5269H51.4993L48.3109 20.4613V28.5269H45.9794V17.0408Z" fill="#182F59"/>
<path d="M62.7926 25.01C62.8925 25.3242 63.0353 25.592 63.221 25.8169C63.4067 26.0418 63.6245 26.2275 63.8708 26.3703C64.1208 26.5131 64.3921 26.6203 64.692 26.6881C64.9919 26.7559 65.299 26.7916 65.6168 26.7916C65.8524 26.7916 66.0809 26.7631 66.3059 26.7024C66.5308 26.6417 66.7307 26.5488 66.9093 26.4239C67.0878 26.2989 67.2306 26.1418 67.3413 25.949C67.452 25.7562 67.5055 25.5313 67.5055 25.2706C67.5055 24.9886 67.4377 24.7601 67.3056 24.5815C67.1735 24.403 66.9914 24.2602 66.7664 24.1495C66.5415 24.0388 66.2809 23.9531 65.9809 23.8889C65.681 23.8246 65.3704 23.7675 65.0384 23.7175C64.7456 23.6639 64.4421 23.6104 64.1279 23.5533C63.8137 23.4961 63.5102 23.4176 63.2139 23.314C62.9175 23.2105 62.639 23.0855 62.3748 22.932C62.1106 22.782 61.8821 22.5857 61.6857 22.3464C61.4893 22.1072 61.3322 21.8216 61.218 21.486C61.1037 21.1503 61.0466 20.754 61.0466 20.2934C61.0466 19.7186 61.1609 19.2152 61.3929 18.7832C61.6215 18.3511 61.9285 17.9941 62.3105 17.7085C62.6926 17.4228 63.1282 17.2086 63.6138 17.0693C64.0993 16.9301 64.6028 16.8587 65.1205 16.8587C65.5704 16.8587 66.0095 16.9015 66.4415 16.9908C66.8736 17.0801 67.2734 17.2229 67.6412 17.4192C68.009 17.6156 68.341 17.8727 68.6302 18.194C68.9194 18.5118 69.1479 18.901 69.3157 19.3544L67.5127 20.2006C67.2663 19.7257 66.9414 19.3687 66.5308 19.1295C66.1238 18.8903 65.656 18.7724 65.1348 18.7724C64.9205 18.7724 64.7134 18.7939 64.5171 18.8403C64.3207 18.8831 64.1493 18.9581 63.9994 19.0545C63.8494 19.1545 63.7316 19.283 63.6423 19.4437C63.5531 19.6044 63.5102 19.7972 63.5102 20.0292C63.5102 20.3292 63.5852 20.5719 63.7316 20.7576C63.878 20.9433 64.0743 21.0968 64.3171 21.211C64.5599 21.3253 64.8384 21.411 65.149 21.4681C65.4597 21.5252 65.781 21.5717 66.1095 21.6002C66.4058 21.6324 66.7093 21.6716 67.0199 21.7216C67.327 21.7716 67.6269 21.8466 67.9126 21.9466C68.1982 22.0465 68.4695 22.1751 68.723 22.3322C68.9765 22.4893 69.1979 22.6892 69.3871 22.932C69.5764 23.1748 69.7228 23.4676 69.8335 23.8103C69.9441 24.1531 69.9977 24.5565 69.9977 25.0207C69.9977 25.6277 69.8727 26.1597 69.6228 26.6167C69.3729 27.0737 69.0408 27.4557 68.6266 27.7664C68.2125 28.077 67.7447 28.3091 67.2235 28.4662C66.7022 28.6233 66.163 28.7018 65.6168 28.7018C65.1133 28.7018 64.6063 28.659 64.0886 28.5697C63.5709 28.4804 63.0853 28.3305 62.639 28.1198C62.1892 27.9092 61.7928 27.6235 61.4501 27.2665C61.1073 26.9095 60.861 26.4596 60.7074 25.9204L62.7926 25.01Z" fill="#182F59"/>
<path d="M33.7042 8.58957H34.0649L34.122 7.96117C34.1291 7.88262 34.1613 7.8255 34.2184 7.78622C34.2755 7.74695 34.3576 7.71838 34.4755 7.70767C34.5897 7.69339 34.7397 7.68982 34.9253 7.68982H35.2967V11.3495C35.2967 11.4423 35.2467 11.5066 35.1431 11.5352C35.0396 11.5637 34.911 11.5816 34.7539 11.5816H34.6504V11.8815H36.5427V11.5816H36.4392C36.2821 11.5816 36.15 11.5673 36.0464 11.5352C35.9429 11.5066 35.8929 11.4423 35.8929 11.3495V7.68625H36.2642C36.4463 7.68625 36.5963 7.69339 36.7141 7.7041C36.8284 7.71838 36.9176 7.74338 36.9748 7.78265C37.0319 7.82193 37.064 7.88262 37.0676 7.9576L37.1247 8.586H37.4818V7.32206H33.7042V8.58957Z" fill="#182F59"/>
<path d="M40.6166 9.58929C40.5523 9.35721 40.4595 9.16798 40.3381 9.01445C40.2167 8.86449 40.0668 8.75024 39.8882 8.67169C39.7097 8.59314 39.5062 8.55743 39.2705 8.55743C38.9849 8.55743 38.7243 8.62884 38.4922 8.77523C38.2601 8.92162 38.0745 9.12156 37.9388 9.37506C37.8031 9.62856 37.7353 9.92491 37.7353 10.2641C37.7353 10.6069 37.8067 10.9032 37.9531 11.1531C38.0994 11.4066 38.2958 11.5994 38.5457 11.7351C38.7957 11.8708 39.0777 11.9386 39.3884 11.9386C39.6097 11.9386 39.8025 11.9065 39.9704 11.8387C40.1346 11.7708 40.2774 11.6816 40.3952 11.5673C40.5131 11.4531 40.6166 11.3245 40.6951 11.1888L40.3952 10.9211C40.3345 11.021 40.2631 11.1174 40.1739 11.2174C40.0846 11.3174 39.9811 11.4031 39.8525 11.4709C39.7276 11.5387 39.574 11.5745 39.3991 11.5745C39.2456 11.5745 39.1027 11.5459 38.9706 11.4888C38.8385 11.4316 38.7243 11.3459 38.6243 11.2353C38.5243 11.1246 38.4493 10.9889 38.3958 10.8247C38.3529 10.6961 38.3315 10.5497 38.3244 10.3962H40.713C40.713 10.0891 40.6809 9.82137 40.6166 9.58929ZM38.5922 9.2858C38.6814 9.16798 38.7814 9.07872 38.8956 9.01802C39.0099 8.95732 39.1349 8.92519 39.267 8.92519C39.4062 8.92519 39.5312 8.95018 39.6312 9.00374C39.7347 9.05372 39.8204 9.13227 39.8882 9.23582C39.9561 9.33936 40.0061 9.46789 40.0418 9.62856C40.0667 9.74996 40.081 9.89278 40.0917 10.0463H38.328C38.3387 9.93205 38.3565 9.82137 38.3886 9.71782C38.4386 9.54644 38.5065 9.40363 38.5922 9.2858Z" fill="#182F59"/>
<path d="M43.9514 11.1996C43.855 11.3067 43.7372 11.3959 43.6015 11.4673C43.4658 11.5387 43.3016 11.578 43.1088 11.578C42.9338 11.578 42.7767 11.5459 42.641 11.4816C42.5054 11.4174 42.3875 11.3281 42.2947 11.2103C42.2019 11.0924 42.1305 10.9532 42.0805 10.789C42.0305 10.6283 42.0055 10.4462 42.0055 10.2498C42.0055 9.99275 42.0483 9.76424 42.134 9.5643C42.2197 9.36435 42.3483 9.20725 42.5196 9.093C42.691 8.97875 42.9017 8.92162 43.1552 8.92162C43.3694 8.92162 43.5658 8.96803 43.7514 9.06444C43.7871 9.08229 43.8228 9.10371 43.855 9.12513V9.77138H44.4191V8.97517C44.362 8.91805 44.2763 8.86092 44.1585 8.79665C44.0406 8.73239 43.8978 8.67526 43.73 8.62527C43.5622 8.57529 43.3694 8.55029 43.1552 8.55029C42.8088 8.55029 42.5054 8.6217 42.2411 8.76452C41.9769 8.90734 41.7734 9.10371 41.627 9.35721C41.4806 9.61071 41.4057 9.90349 41.4057 10.2427C41.4057 10.5712 41.4735 10.8639 41.6127 11.1174C41.752 11.3709 41.9484 11.5709 42.2019 11.7173C42.4554 11.8637 42.7517 11.9351 43.0909 11.9351C43.3266 11.9351 43.5301 11.8994 43.7015 11.828C43.8728 11.7565 44.0228 11.6637 44.1513 11.5423C44.2763 11.4245 44.387 11.2924 44.4798 11.1531L44.1977 10.8854C44.1299 10.9889 44.0478 11.0924 43.9514 11.1996Z" fill="#182F59"/>
<path d="M48.5215 11.5709C48.4394 11.5566 48.3787 11.5352 48.3323 11.4995C48.2859 11.4638 48.2645 11.4173 48.2645 11.3602V9.59286C48.2645 9.35364 48.2216 9.15727 48.1359 9.00731C48.0502 8.85735 47.9324 8.7431 47.7789 8.67169C47.6254 8.60028 47.4468 8.561 47.2397 8.561C47.0719 8.561 46.922 8.586 46.7863 8.63955C46.6506 8.68954 46.5257 8.76809 46.4078 8.87163C46.3257 8.94304 46.2472 9.02873 46.1686 9.1287V7.17568H45.0546V7.47202L45.1261 7.4863C45.2367 7.50416 45.326 7.52201 45.3938 7.54343C45.4617 7.56485 45.5117 7.59342 45.5474 7.62555C45.5831 7.66126 45.5974 7.70767 45.5974 7.77194V11.3674C45.5974 11.4281 45.5724 11.4745 45.5259 11.5066C45.4795 11.5423 45.4153 11.5637 45.3367 11.578C45.2582 11.5923 45.1689 11.5959 45.0654 11.5959H45.0511V11.8851H46.6471V11.5959H46.6292C46.5685 11.5959 46.5042 11.5923 46.4293 11.5887C46.3579 11.5852 46.2936 11.578 46.2436 11.5673C46.1936 11.5566 46.1651 11.5459 46.1651 11.5316V9.54644C46.2329 9.45361 46.3043 9.36792 46.3757 9.29651C46.4864 9.18583 46.6078 9.10371 46.7363 9.05015C46.8649 8.9966 47.0005 8.96803 47.1469 8.96803C47.2826 8.96803 47.3897 8.99303 47.4718 9.04301C47.5504 9.093 47.6075 9.16798 47.6432 9.27152C47.6789 9.37506 47.6932 9.50717 47.6932 9.66784V11.5316C47.6932 11.5459 47.6682 11.5566 47.6146 11.5673C47.5611 11.578 47.4968 11.5852 47.4254 11.5887C47.354 11.5923 47.2862 11.5959 47.2255 11.5959H47.2112V11.8851H48.8V11.5959H48.7857C48.6929 11.5887 48.6001 11.5816 48.5215 11.5709Z" fill="#182F59"/>
<path d="M49.357 7.62912H49.4284C49.5855 7.62912 49.7176 7.6434 49.8176 7.67554C49.9211 7.7041 49.9711 7.76837 49.9711 7.8612V11.3459C49.9711 11.4388 49.9211 11.503 49.8176 11.5316C49.7141 11.5602 49.5855 11.578 49.4284 11.578H49.357V11.8779H51.2779V11.578H51.1708C51.103 11.578 51.0315 11.5744 50.9601 11.5709C50.8887 11.5673 50.8209 11.5566 50.7602 11.5459C50.6995 11.5316 50.6531 11.5102 50.6174 11.478C50.5817 11.4459 50.5638 11.4031 50.5638 11.3459V9.76781C50.6924 9.77138 50.8173 9.77495 50.9459 9.77852C51.1351 9.78566 51.3279 9.7928 51.5171 9.79637C51.7064 9.80351 51.8956 9.81066 52.0848 9.8178V9.36792C51.8956 9.37149 51.7064 9.37863 51.5171 9.3822C51.3279 9.38934 51.1351 9.39291 50.9459 9.39649C50.8209 9.40006 50.6924 9.40363 50.5638 9.41077V7.70053H51.4207C51.6028 7.70053 51.7528 7.70767 51.8706 7.71838C51.9849 7.73266 52.0705 7.75766 52.1277 7.79693C52.1848 7.83621 52.2169 7.8969 52.2241 7.97188L52.2812 8.55029H52.6382V7.31849H49.357V7.62912Z" fill="#182F59"/>
<path d="M55.9159 9.0323C55.7659 8.88234 55.5874 8.76809 55.3839 8.6824C55.1804 8.60028 54.959 8.55743 54.7127 8.55743C54.4699 8.55743 54.2449 8.60028 54.0414 8.6824C53.8379 8.76452 53.6594 8.88234 53.5094 9.0323C53.3595 9.18226 53.2416 9.36078 53.1595 9.56787C53.0774 9.77495 53.0381 10.0035 53.0381 10.2498C53.0381 10.5783 53.1095 10.8711 53.2524 11.1281C53.3952 11.3852 53.5915 11.5852 53.8451 11.728C54.0986 11.8708 54.3842 11.9422 54.7091 11.9422C55.034 11.9422 55.3232 11.8708 55.5731 11.728C55.8266 11.5852 56.023 11.3852 56.1658 11.1281C56.3086 10.8711 56.3801 10.5783 56.3801 10.2498C56.3801 10.0035 56.3408 9.77495 56.2587 9.56787C56.1837 9.36078 56.0659 9.18226 55.9159 9.0323ZM55.6517 10.9496C55.5624 11.1496 55.441 11.3067 55.2839 11.4138C55.1268 11.5209 54.934 11.578 54.7127 11.578C54.4949 11.578 54.3056 11.5245 54.145 11.4138C53.9843 11.3067 53.8593 11.1496 53.7736 10.9496C53.6844 10.7497 53.6415 10.5176 53.6415 10.2498C53.6415 9.98204 53.6844 9.74639 53.7736 9.54644C53.8629 9.3465 53.9843 9.19297 54.145 9.08586C54.3056 8.97874 54.4949 8.92162 54.7127 8.92162C54.934 8.92162 55.1233 8.97517 55.2839 9.08586C55.441 9.19654 55.566 9.35007 55.6517 9.54644C55.7409 9.74639 55.7838 9.97847 55.7838 10.2498C55.7838 10.514 55.7409 10.7461 55.6517 10.9496Z" fill="#182F59"/>
<path d="M59.0686 8.55743C58.9008 8.55743 58.7544 8.59671 58.6223 8.67169C58.4902 8.75024 58.3795 8.85378 58.2831 8.98946C58.2081 9.093 58.1474 9.21082 58.0939 9.33936V8.61813H57.0442V8.91448L57.1084 8.92876C57.2155 8.95018 57.3048 8.9716 57.3726 8.99303C57.444 9.01445 57.494 9.03944 57.5297 9.07158C57.5654 9.10371 57.5797 9.15013 57.5797 9.21439V11.3567C57.5797 11.4495 57.5297 11.5138 57.4333 11.5423C57.3369 11.5709 57.2084 11.5887 57.0549 11.5887H57.0406V11.8779H58.783V11.5887H58.6758C58.6151 11.5887 58.5437 11.5852 58.4616 11.5745C58.3795 11.5673 58.3045 11.5459 58.2438 11.5138C58.1831 11.4816 58.151 11.4316 58.151 11.3638V9.6607C58.176 9.61428 58.1974 9.56787 58.2224 9.52859C58.2795 9.42862 58.3402 9.35007 58.4045 9.2858C58.4723 9.22153 58.5473 9.17512 58.633 9.14298C58.7187 9.11085 58.8187 9.09657 58.9329 9.09657C58.9722 9.09657 59.0115 9.10014 59.0543 9.10371C59.0972 9.10728 59.14 9.11442 59.1793 9.11799C59.2186 9.12513 59.2543 9.13227 59.2864 9.14655V8.57529C59.265 8.56814 59.2328 8.561 59.1936 8.561C59.1543 8.55743 59.1114 8.55743 59.0686 8.55743Z" fill="#182F59"/>
<path d="M61.0645 11.5459C60.9645 11.5173 60.9145 11.4531 60.9145 11.3602V8.62527H59.8005V8.92162L59.8719 8.9359C60.0362 8.96446 60.154 8.9966 60.2326 9.0323C60.3111 9.06801 60.3468 9.13227 60.3468 9.22511V11.3674C60.3468 11.4602 60.2968 11.5245 60.1968 11.553C60.0969 11.5816 59.9683 11.5994 59.8148 11.5994H59.8077V11.8886H61.4536V11.5994H61.4465C61.293 11.5887 61.1644 11.5744 61.0645 11.5459Z" fill="#182F59"/>
<path d="M60.6003 7.91119C60.711 7.91119 60.8038 7.87548 60.8788 7.80407C60.9538 7.73266 60.9895 7.63983 60.9895 7.51844C60.9895 7.40061 60.9538 7.30421 60.8788 7.23637C60.8038 7.16854 60.711 7.13283 60.6003 7.13283C60.4896 7.13283 60.3968 7.16854 60.3218 7.23637C60.2468 7.30421 60.2111 7.40061 60.2111 7.51844C60.2111 7.63983 60.2468 7.73266 60.3218 7.80407C60.3968 7.87548 60.4896 7.91119 60.6003 7.91119Z" fill="#182F59"/>
<path d="M65.4204 11.5709C65.3418 11.5566 65.2811 11.5352 65.2347 11.4995C65.1883 11.4638 65.1669 11.4173 65.1669 11.3602V9.59286C65.1669 9.35364 65.124 9.15727 65.0384 9.00731C64.9527 8.85735 64.8348 8.7431 64.6813 8.67169C64.5314 8.60028 64.3528 8.561 64.1458 8.561C63.9779 8.561 63.828 8.586 63.6923 8.63955C63.5566 8.68954 63.4281 8.76809 63.3103 8.8752C63.2103 8.96446 63.1103 9.07872 63.0139 9.20368V8.62527H61.9642V8.92162L62.0285 8.9359C62.1356 8.95732 62.2249 8.97874 62.2927 9.00017C62.3641 9.02159 62.4141 9.04658 62.4498 9.07872C62.4855 9.11085 62.4998 9.15727 62.4998 9.22153V11.3638C62.4998 11.4245 62.4784 11.4709 62.4319 11.503C62.3855 11.5387 62.3248 11.5602 62.2463 11.5745C62.1677 11.5887 62.0785 11.5923 61.9749 11.5923H61.9606V11.8815H63.5495V11.5923H63.5316C63.4709 11.5923 63.4067 11.5887 63.3317 11.5852C63.2567 11.5816 63.196 11.5745 63.146 11.5637C63.096 11.553 63.0675 11.5423 63.0675 11.528V9.54644C63.1353 9.45361 63.2067 9.36435 63.2817 9.29294C63.396 9.18226 63.5174 9.10014 63.6423 9.04658C63.7673 8.99303 63.9065 8.96446 64.0458 8.96446C64.1815 8.96446 64.2921 8.98946 64.3707 9.03944C64.4492 9.08943 64.5064 9.16441 64.5421 9.26795C64.5778 9.37149 64.5921 9.5036 64.5921 9.66427V11.528C64.5921 11.5423 64.5671 11.553 64.5135 11.5637C64.4599 11.5745 64.3957 11.5816 64.3243 11.5852C64.2529 11.5887 64.185 11.5923 64.1243 11.5923H64.11V11.8815H65.6989V11.5923H65.6846C65.5882 11.5887 65.4989 11.5816 65.4204 11.5709Z" fill="#182F59"/>
<path d="M69.5799 9.07872V8.4896C69.4586 8.47531 69.3479 8.47888 69.2408 8.50031C69.1336 8.51816 69.0337 8.55743 68.9408 8.61099C68.848 8.66812 68.7588 8.73953 68.6802 8.82522C68.6623 8.84307 68.6481 8.86806 68.6302 8.88948C68.5552 8.82165 68.466 8.76095 68.3696 8.71096C68.1768 8.61099 67.9554 8.561 67.7055 8.561C67.4627 8.561 67.2413 8.61099 67.0485 8.71096C66.8557 8.81094 66.6986 8.95018 66.5879 9.1287C66.4772 9.30723 66.4165 9.51074 66.4165 9.74639C66.4165 9.98204 66.4737 10.1856 66.5844 10.3605C66.6629 10.4855 66.77 10.5819 66.8914 10.6676C66.7843 10.7247 66.6843 10.7818 66.6093 10.8461C66.5058 10.9282 66.4308 11.0175 66.3773 11.1067C66.3273 11.196 66.2987 11.2924 66.2987 11.3959C66.2987 11.478 66.3166 11.553 66.3487 11.628C66.3808 11.6994 66.438 11.7708 66.5201 11.8351C66.5487 11.8565 66.5844 11.8815 66.6201 11.9065C66.5415 11.9493 66.4665 11.9922 66.4058 12.035C66.2987 12.11 66.2202 12.1886 66.1666 12.2743C66.1131 12.3599 66.0881 12.4528 66.0881 12.5563C66.0881 12.7598 66.1559 12.9241 66.2916 13.049C66.4273 13.174 66.6093 13.2633 66.8379 13.3133C67.0699 13.3668 67.327 13.3918 67.6126 13.3918H67.8483C68.1446 13.3918 68.416 13.3525 68.6659 13.274C68.9158 13.1954 69.1158 13.074 69.2693 12.9098C69.4193 12.7456 69.4978 12.5385 69.4978 12.285C69.4978 12.1064 69.4514 11.9565 69.3622 11.8387C69.2729 11.7208 69.1408 11.6351 68.9694 11.5745C68.798 11.5173 68.5802 11.4888 68.3267 11.4888H67.3663C67.1949 11.4888 67.0628 11.4673 66.9735 11.4281C66.8807 11.3888 66.8343 11.3209 66.8343 11.2317C66.8343 11.171 66.8521 11.1174 66.8843 11.0639C66.9164 11.0139 66.9628 10.9639 67.0271 10.9175C67.0735 10.8854 67.1271 10.8532 67.1842 10.8247C67.3449 10.8818 67.5198 10.9139 67.7126 10.9139C67.959 10.9139 68.1803 10.8675 68.3767 10.7711C68.5695 10.6747 68.7266 10.539 68.8373 10.3641C68.9516 10.1891 69.0087 9.98204 69.0087 9.74996C69.0087 9.51431 68.9516 9.30723 68.8373 9.13227C68.8266 9.11799 68.8123 9.10728 68.8016 9.093C68.8837 9.07158 68.9837 9.06086 69.1015 9.06086C69.2336 9.05015 69.3943 9.06087 69.5799 9.07872ZM68.3124 12.0386C68.5659 12.0386 68.7373 12.0636 68.8266 12.1172C68.9194 12.1707 68.9658 12.26 68.9658 12.3814C68.9658 12.4992 68.9194 12.6063 68.823 12.7027C68.7266 12.7955 68.5945 12.8705 68.4267 12.9241C68.2589 12.9776 68.0661 13.0026 67.8483 13.0026H67.6233C67.3877 13.0026 67.1949 12.9848 67.0449 12.9455C66.895 12.9062 66.7807 12.8527 66.7093 12.7813C66.6379 12.7098 66.6022 12.6242 66.6022 12.5206C66.6022 12.4492 66.6201 12.3814 66.6522 12.3171C66.6843 12.2528 66.7343 12.1921 66.8021 12.1314C66.8414 12.0993 66.8878 12.0672 66.9378 12.035H68.3124V12.0386ZM68.3517 10.1748C68.291 10.2927 68.2089 10.3819 68.0982 10.4426C67.9875 10.5033 67.859 10.5355 67.709 10.5355C67.5627 10.5355 67.4377 10.5033 67.327 10.4426C67.2199 10.3819 67.1342 10.2927 67.0735 10.1748C67.0128 10.057 66.9842 9.9142 66.9842 9.74282C66.9842 9.57144 67.0128 9.42505 67.0735 9.30365C67.1342 9.18226 67.2163 9.08943 67.327 9.02516C67.4341 8.96089 67.5627 8.92876 67.709 8.92876C67.859 8.92876 67.9875 8.96089 68.0982 9.02516C68.2089 9.08943 68.291 9.18226 68.3517 9.30365C68.4124 9.42505 68.441 9.57144 68.441 9.74282C68.441 9.9142 68.4088 10.0606 68.3517 10.1748Z" fill="#182F59"/>
</g>
<defs>
<linearGradient id="paint0_linear_695_2954" x1="25.1402" y1="1.02139" x2="33.1257" y2="20.3613" gradientUnits="userSpaceOnUse">
<stop/>
<stop offset="0.2611" stopColor="#292929" stopOpacity="0.7389"/>
<stop offset="0.5942" stopColor="#565656" stopOpacity="0.4058"/>
<stop offset="0.8516" stopColor="#727272" stopOpacity="0.1484"/>
<stop offset="1" stopColor="#7D7D7D" stopOpacity="0"/>
</linearGradient>
</defs>
</svg>
