<svg width="800" height="800" viewBox="0 0 800 800" fill="none" xmlns="http://www.w3.org/2000/svg">
<path d="M733.333 572.377V366.666H433.333V227.621C472.17 213.893 500 176.874 500 133.332C500 78.0992 455.233 33.332 400 33.332C344.767 33.332 300 78.0992 300 133.332C300 176.874 327.83 213.891 366.667 227.621V366.666H66.6672V572.377C27.8297 586.107 0 623.124 0 666.666C0 721.899 44.7672 766.666 100 766.666C155.233 766.666 200 721.899 200 666.666C200 623.124 172.17 586.107 133.333 572.377V433.332H366.666V572.377C327.83 586.107 300 623.124 300 666.666C300 721.899 344.767 766.666 400 766.666C455.233 766.666 500 721.899 500 666.666C500 623.124 472.17 586.107 433.333 572.377V433.332H666.666V572.377C627.83 586.105 600 623.124 600 666.666C600 721.899 644.767 766.666 700 766.666C755.233 766.666 800 721.899 800 666.666C800 623.124 772.17 586.105 733.333 572.377Z" fill="black"/>
</svg>
