<svg width="149" height="70" viewBox="0 0 149 70" fill="none" xmlns="http://www.w3.org/2000/svg">
<g filter="url(#filter0_d_1165_15650)">
<rect x="15" y="15" width="119" height="40" rx="4" fill="#5BBC2E" shape-rendering="crispEdges"/>
<path d="M40.082 37.084H40.9154V35.4173H42.582V34.584H40.9154V32.9173H40.082V34.584H38.4154V35.4173H40.082V37.084ZM40.4987 39.1673C39.9223 39.1673 39.3806 39.0579 38.8737 38.839C38.3668 38.6201 37.9258 38.3233 37.5508 37.9486C37.1758 37.5736 36.879 37.1326 36.6604 36.6257C36.4418 36.1187 36.3323 35.577 36.332 35.0007C36.332 34.4243 36.4415 33.8826 36.6604 33.3757C36.8793 32.8687 37.1761 32.4277 37.5508 32.0527C37.9258 31.6777 38.3668 31.3809 38.8737 31.1623C39.3806 30.9437 39.9223 30.8343 40.4987 30.834C41.0751 30.834 41.6168 30.9434 42.1237 31.1623C42.6306 31.3812 43.0716 31.678 43.4466 32.0527C43.8216 32.4277 44.1186 32.8687 44.3374 33.3757C44.5563 33.8826 44.6656 34.4243 44.6654 35.0007C44.6654 35.577 44.5559 36.1187 44.337 36.6257C44.1181 37.1326 43.8213 37.5736 43.4466 37.9486C43.0716 38.3236 42.6306 38.6205 42.1237 38.8394C41.6168 39.0583 41.0751 39.1676 40.4987 39.1673Z" fill="white"/>
<path d="M49.8262 37.5L52.4183 31.86H53.4183L56.0103 37.5H54.7623L54.2343 36.276H51.6023L51.0822 37.5H49.8262ZM52.9063 33.18L52.0182 35.308H53.8263L52.9223 33.18H52.9063ZM56.4977 37.5V31.86H58.7057C59.6657 31.86 60.4097 32.1053 60.9377 32.596C61.4657 33.0813 61.7297 33.7747 61.7297 34.676C61.7297 35.5773 61.4657 36.2733 60.9377 36.764C60.4097 37.2547 59.6657 37.5 58.7057 37.5H56.4977ZM57.7377 36.484H58.6337C59.8337 36.484 60.4337 35.8813 60.4337 34.676C60.4337 33.476 59.8337 32.876 58.6337 32.876H57.7377V36.484ZM62.693 37.5V31.86H64.901C65.861 31.86 66.605 32.1053 67.133 32.596C67.661 33.0813 67.925 33.7747 67.925 34.676C67.925 35.5773 67.661 36.2733 67.133 36.764C66.605 37.2547 65.861 37.5 64.901 37.5H62.693ZM63.933 36.484H64.829C66.029 36.484 66.629 35.8813 66.629 34.676C66.629 33.476 66.029 32.876 64.829 32.876H63.933V36.484ZM71.1149 37.5V31.86H74.9789V32.828H72.2989V34.148H74.8029V35.124H72.2989V36.532H74.9789V37.5H71.1149ZM75.9746 37.5V31.86H77.0066L78.9106 35.324L80.8066 31.86H81.8226V37.5H80.6946V34.06L79.2386 36.652H78.5426L77.0946 34.084V37.5H75.9746ZM82.9664 37.5V31.86H85.5424C86.1718 31.86 86.6571 32.02 86.9984 32.34C87.3398 32.6547 87.5104 33.0947 87.5104 33.66C87.5104 34.2253 87.3398 34.668 86.9984 34.988C86.6571 35.308 86.1718 35.468 85.5424 35.468H84.2064V37.5H82.9664ZM84.2064 34.508H85.3344C85.9904 34.508 86.3184 34.2253 86.3184 33.66C86.3184 33.1053 85.9904 32.828 85.3344 32.828H84.2064V34.508ZM88.2789 37.5V31.86H89.5189V36.452H92.1269V37.5H88.2789ZM95.1684 37.588C94.6137 37.588 94.1257 37.468 93.7044 37.228C93.2884 36.9827 92.963 36.644 92.7284 36.212C92.499 35.7747 92.3844 35.2627 92.3844 34.676C92.3844 34.0893 92.499 33.58 92.7284 33.148C92.963 32.7107 93.2884 32.372 93.7044 32.132C94.1204 31.892 94.6084 31.772 95.1684 31.772C95.7284 31.772 96.2164 31.892 96.6324 32.132C97.0537 32.372 97.379 32.7107 97.6084 33.148C97.843 33.58 97.9604 34.0867 97.9604 34.668C97.9604 35.2547 97.843 35.7667 97.6084 36.204C97.379 36.6413 97.0537 36.9827 96.6324 37.228C96.2164 37.468 95.7284 37.588 95.1684 37.588ZM95.1684 36.532C95.6377 36.532 96.003 36.3693 96.2644 36.044C96.531 35.7133 96.6644 35.2573 96.6644 34.676C96.6644 34.0893 96.5337 33.636 96.2724 33.316C96.011 32.9907 95.643 32.828 95.1684 32.828C94.7044 32.828 94.339 32.9907 94.0724 33.316C93.811 33.636 93.6804 34.0893 93.6804 34.676C93.6804 35.2573 93.811 35.7133 94.0724 36.044C94.339 36.3693 94.7044 36.532 95.1684 36.532ZM99.9196 37.5V34.956L97.7436 31.86H99.1836L100.56 33.844L101.936 31.86H103.32L101.16 34.964V37.5H99.9196ZM103.974 37.5V31.86H107.838V32.828H105.158V34.148H107.662V35.124H105.158V36.532H107.838V37.5H103.974ZM108.818 37.5V31.86H112.682V32.828H110.002V34.148H112.506V35.124H110.002V36.532H112.682V37.5H108.818Z" fill="white"/>
</g>
<defs>
<filter id="filter0_d_1165_15650" x="0" y="0" width="149" height="70" filterUnits="userSpaceOnUse" color-interpolation-filters="sRGB">
<feFlood flood-opacity="0" result="BackgroundImageFix"/>
<feColorMatrix in="SourceAlpha" type="matrix" values="0 0 0 0 0 0 0 0 0 0 0 0 0 0 0 0 0 0 127 0" result="hardAlpha"/>
<feOffset/>
<feGaussianBlur stdDeviation="7.5"/>
<feComposite in2="hardAlpha" operator="out"/>
<feColorMatrix type="matrix" values="0 0 0 0 0 0 0 0 0 0 0 0 0 0 0 0 0 0 0.25 0"/>
<feBlend mode="normal" in2="BackgroundImageFix" result="effect1_dropShadow_1165_15650"/>
<feBlend mode="normal" in="SourceGraphic" in2="effect1_dropShadow_1165_15650" result="shape"/>
</filter>
</defs>
</svg>
