<svg width="212" height="100" viewBox="0 0 212 100" fill="none" xmlns="http://www.w3.org/2000/svg">
<g filter="url(#filter0_d_1165_15779)">
<rect x="15" y="15" width="182" height="70" rx="8" fill="#123068" shape-rendering="crispEdges"/>
<path fillRule="evenodd" clipRule="evenodd" d="M108.336 34.5645C109.021 35.0295 109.501 35.6595 109.501 36.4995V37.9995H111.001C111.276 37.9995 111.501 37.7745 111.501 37.4995V36.4995C111.501 35.4095 109.716 34.7645 108.336 34.5645Z" fill="#F2F2F3"/>
<path d="M104.5 34C105.605 34 106.5 33.1046 106.5 32C106.5 30.8954 105.605 30 104.5 30C103.395 30 102.5 30.8954 102.5 32C102.5 33.1046 103.395 34 104.5 34Z" fill="#F2F2F3"/>
<path fillRule="evenodd" clipRule="evenodd" d="M107.5 34C108.605 34 109.5 33.105 109.5 32C109.5 30.895 108.605 30 107.5 30C107.265 30 107.045 30.05 106.835 30.12C107.265 30.6521 107.5 31.3157 107.5 32C107.5 32.6843 107.265 33.3479 106.835 33.88C107.045 33.95 107.265 34 107.5 34ZM104.5 34.5C103.165 34.5 100.5 35.17 100.5 36.5V37.5C100.5 37.775 100.725 38 101 38H108C108.275 38 108.5 37.775 108.5 37.5V36.5C108.5 35.17 105.835 34.5 104.5 34.5Z" fill="#F2F2F3"/>
<path d="M64.8407 52V45.076H62.0447V43.54H69.4967V45.076H66.7007V52H64.8407ZM72.1335 52.132C71.5015 52.132 70.9495 52.008 70.4775 51.76C70.0135 51.504 69.6535 51.148 69.3975 50.692C69.1415 50.228 69.0135 49.68 69.0135 49.048C69.0135 48.424 69.1415 47.884 69.3975 47.428C69.6535 46.964 70.0135 46.608 70.4775 46.36C70.9495 46.112 71.5015 45.988 72.1335 45.988C72.7655 45.988 73.3135 46.112 73.7775 46.36C74.2495 46.608 74.6135 46.964 74.8695 47.428C75.1335 47.884 75.2655 48.424 75.2655 49.048C75.2655 49.68 75.1335 50.228 74.8695 50.692C74.6135 51.148 74.2495 51.504 73.7775 51.76C73.3135 52.008 72.7655 52.132 72.1335 52.132ZM72.1335 50.776C72.5175 50.776 72.8295 50.636 73.0695 50.356C73.3175 50.076 73.4415 49.64 73.4415 49.048C73.4415 48.464 73.3175 48.036 73.0695 47.764C72.8295 47.484 72.5175 47.344 72.1335 47.344C71.7495 47.344 71.4375 47.484 71.1975 47.764C70.9575 48.036 70.8375 48.464 70.8375 49.048C70.8375 49.64 70.9575 50.076 71.1975 50.356C71.4375 50.636 71.7495 50.776 72.1335 50.776ZM79.2013 52.132C77.5453 52.132 76.7173 51.328 76.7173 49.72V47.464H75.6013V46.108H76.7173V44.38H78.5293V46.108H80.2693V47.464H78.5293V49.648C78.5293 49.984 78.6053 50.236 78.7573 50.404C78.9173 50.572 79.1693 50.656 79.5133 50.656C79.6173 50.656 79.7253 50.644 79.8373 50.62C79.9573 50.596 80.0853 50.564 80.2213 50.524L80.4853 51.844C80.3173 51.932 80.1173 52 79.8853 52.048C79.6533 52.104 79.4253 52.132 79.2013 52.132ZM83.1528 52.132C82.7128 52.132 82.3248 52.048 81.9888 51.88C81.6528 51.712 81.3848 51.484 81.1848 51.196C80.9928 50.908 80.8968 50.584 80.8968 50.224C80.8968 49.8 81.0088 49.46 81.2328 49.204C81.4568 48.948 81.8208 48.768 82.3248 48.664C82.8288 48.552 83.4968 48.496 84.3288 48.496H84.7608V48.292C84.7608 47.94 84.6808 47.692 84.5208 47.548C84.3608 47.396 84.0888 47.32 83.7048 47.32C83.3848 47.32 83.0448 47.372 82.6848 47.476C82.3328 47.572 81.9808 47.72 81.6288 47.92L81.1368 46.708C81.3448 46.572 81.5968 46.448 81.8928 46.336C82.1968 46.224 82.5128 46.14 82.8408 46.084C83.1688 46.02 83.4808 45.988 83.7768 45.988C84.6888 45.988 85.3688 46.196 85.8168 46.612C86.2648 47.02 86.4888 47.656 86.4888 48.52V52H84.7968V51.112C84.6768 51.424 84.4728 51.672 84.1848 51.856C83.9048 52.04 83.5608 52.132 83.1528 52.132ZM83.5608 50.92C83.8968 50.92 84.1808 50.804 84.4128 50.572C84.6448 50.34 84.7608 50.04 84.7608 49.672V49.432H84.3408C83.7248 49.432 83.2888 49.488 83.0328 49.6C82.7768 49.704 82.6488 49.888 82.6488 50.152C82.6488 50.376 82.7248 50.56 82.8768 50.704C83.0368 50.848 83.2648 50.92 83.5608 50.92ZM90.0365 52.132C89.2765 52.132 88.7205 51.936 88.3685 51.544C88.0165 51.144 87.8405 50.552 87.8405 49.768V43.54H89.6525V49.696C89.6525 50.336 89.9365 50.656 90.5045 50.656C90.5925 50.656 90.6765 50.652 90.7565 50.644C90.8445 50.636 90.9285 50.62 91.0085 50.596L90.9845 52C90.6805 52.088 90.3645 52.132 90.0365 52.132ZM95.3325 52V43.54H101.128V44.992H97.1085V46.972H100.864V48.436H97.1085V50.548H101.128V52H95.3325ZM102.466 52V46.108H104.242V46.96C104.418 46.656 104.658 46.42 104.962 46.252C105.274 46.076 105.634 45.988 106.042 45.988C106.458 45.988 106.81 46.08 107.098 46.264C107.394 46.448 107.618 46.728 107.77 47.104C107.954 46.752 108.218 46.48 108.562 46.288C108.914 46.088 109.302 45.988 109.726 45.988C110.398 45.988 110.898 46.192 111.226 46.6C111.554 47 111.718 47.62 111.718 48.46V52H109.906V48.52C109.906 48.128 109.842 47.844 109.714 47.668C109.594 47.484 109.386 47.392 109.09 47.392C108.746 47.392 108.478 47.512 108.286 47.752C108.094 47.992 107.998 48.332 107.998 48.772V52H106.186V48.52C106.186 48.128 106.122 47.844 105.994 47.668C105.866 47.484 105.658 47.392 105.37 47.392C105.026 47.392 104.758 47.512 104.566 47.752C104.374 47.992 104.278 48.332 104.278 48.772V52H102.466ZM113.106 54.16V46.108H114.882V46.984C115.042 46.68 115.286 46.44 115.614 46.264C115.95 46.08 116.326 45.988 116.742 45.988C117.254 45.988 117.702 46.112 118.086 46.36C118.478 46.608 118.782 46.96 118.998 47.416C119.214 47.872 119.322 48.416 119.322 49.048C119.322 49.68 119.214 50.228 118.998 50.692C118.782 51.148 118.478 51.504 118.086 51.76C117.702 52.008 117.254 52.132 116.742 52.132C116.35 52.132 115.99 52.048 115.662 51.88C115.342 51.712 115.094 51.488 114.918 51.208V54.16H113.106ZM116.202 50.776C116.586 50.776 116.898 50.636 117.138 50.356C117.378 50.076 117.498 49.64 117.498 49.048C117.498 48.464 117.378 48.036 117.138 47.764C116.898 47.484 116.586 47.344 116.202 47.344C115.81 47.344 115.494 47.484 115.254 47.764C115.014 48.036 114.894 48.464 114.894 49.048C114.894 49.64 115.014 50.076 115.254 50.356C115.494 50.636 115.81 50.776 116.202 50.776ZM122.626 52.132C121.866 52.132 121.31 51.936 120.958 51.544C120.606 51.144 120.43 50.552 120.43 49.768V43.54H122.242V49.696C122.242 50.336 122.526 50.656 123.094 50.656C123.182 50.656 123.266 50.652 123.346 50.644C123.434 50.636 123.518 50.62 123.598 50.596L123.574 52C123.27 52.088 122.954 52.132 122.626 52.132ZM127.2 52.132C126.568 52.132 126.016 52.008 125.544 51.76C125.08 51.504 124.72 51.148 124.464 50.692C124.208 50.228 124.08 49.68 124.08 49.048C124.08 48.424 124.208 47.884 124.464 47.428C124.72 46.964 125.08 46.608 125.544 46.36C126.016 46.112 126.568 45.988 127.2 45.988C127.832 45.988 128.38 46.112 128.844 46.36C129.316 46.608 129.68 46.964 129.936 47.428C130.2 47.884 130.332 48.424 130.332 49.048C130.332 49.68 130.2 50.228 129.936 50.692C129.68 51.148 129.316 51.504 128.844 51.76C128.38 52.008 127.832 52.132 127.2 52.132ZM127.2 50.776C127.584 50.776 127.896 50.636 128.136 50.356C128.384 50.076 128.508 49.64 128.508 49.048C128.508 48.464 128.384 48.036 128.136 47.764C127.896 47.484 127.584 47.344 127.2 47.344C126.816 47.344 126.504 47.484 126.264 47.764C126.024 48.036 125.904 48.464 125.904 49.048C125.904 49.64 126.024 50.076 126.264 50.356C126.504 50.636 126.816 50.776 127.2 50.776ZM131.75 54.16L132.878 51.676L130.454 46.108H132.362L133.838 49.852L135.362 46.108H137.162L133.598 54.16H131.75ZM140.611 52.132C139.915 52.132 139.315 52.008 138.811 51.76C138.315 51.504 137.931 51.148 137.659 50.692C137.395 50.228 137.263 49.684 137.263 49.06C137.263 48.452 137.391 47.92 137.647 47.464C137.911 47 138.267 46.64 138.715 46.384C139.171 46.12 139.695 45.988 140.287 45.988C141.143 45.988 141.823 46.26 142.327 46.804C142.831 47.34 143.083 48.068 143.083 48.988V49.444H138.991C139.055 49.908 139.223 50.248 139.495 50.464C139.775 50.672 140.159 50.776 140.647 50.776C140.967 50.776 141.291 50.728 141.619 50.632C141.947 50.536 142.243 50.388 142.507 50.188L142.987 51.4C142.691 51.624 142.327 51.804 141.895 51.94C141.471 52.068 141.043 52.132 140.611 52.132ZM140.359 47.188C139.975 47.188 139.663 47.304 139.423 47.536C139.191 47.768 139.047 48.092 138.991 48.508H141.583C141.535 47.628 141.127 47.188 140.359 47.188ZM147.197 52.132C146.501 52.132 145.901 52.008 145.397 51.76C144.901 51.504 144.517 51.148 144.245 50.692C143.981 50.228 143.849 49.684 143.849 49.06C143.849 48.452 143.977 47.92 144.233 47.464C144.497 47 144.853 46.64 145.301 46.384C145.757 46.12 146.281 45.988 146.873 45.988C147.729 45.988 148.409 46.26 148.913 46.804C149.417 47.34 149.669 48.068 149.669 48.988V49.444H145.577C145.641 49.908 145.809 50.248 146.081 50.464C146.361 50.672 146.745 50.776 147.233 50.776C147.553 50.776 147.877 50.728 148.205 50.632C148.533 50.536 148.829 50.388 149.093 50.188L149.573 51.4C149.277 51.624 148.913 51.804 148.481 51.94C148.057 52.068 147.629 52.132 147.197 52.132ZM146.945 47.188C146.561 47.188 146.249 47.304 146.009 47.536C145.777 47.768 145.633 48.092 145.577 48.508H148.169C148.121 47.628 147.713 47.188 146.945 47.188Z" fill="#F2F2F3"/>
<path d="M101.174 68V67.13H102.774V62.15L101.524 62.93L101.104 62.16L103.074 60.95H103.804V67.13H105.304V68H101.174ZM106.85 68V67.23L109.2 64.71C109.527 64.3567 109.76 64.0367 109.9 63.75C110.047 63.4633 110.12 63.1733 110.12 62.88C110.12 62.12 109.673 61.74 108.78 61.74C108.1 61.74 107.49 61.9967 106.95 62.51L106.58 61.72C106.847 61.46 107.187 61.2533 107.6 61.1C108.013 60.94 108.443 60.86 108.89 60.86C109.617 60.86 110.173 61.0267 110.56 61.36C110.953 61.6933 111.15 62.17 111.15 62.79C111.15 63.21 111.047 63.62 110.84 64.02C110.64 64.42 110.323 64.8467 109.89 65.3L108.15 67.13H111.43V68H106.85Z" fill="#F2F2F3"/>
</g>
<defs>
<filter id="filter0_d_1165_15779" x="0" y="0" width="212" height="100" filterUnits="userSpaceOnUse" color-interpolation-filters="sRGB">
<feFlood flood-opacity="0" result="BackgroundImageFix"/>
<feColorMatrix in="SourceAlpha" type="matrix" values="0 0 0 0 0 0 0 0 0 0 0 0 0 0 0 0 0 0 127 0" result="hardAlpha"/>
<feOffset/>
<feGaussianBlur stdDeviation="7.5"/>
<feComposite in2="hardAlpha" operator="out"/>
<feColorMatrix type="matrix" values="0 0 0 0 0 0 0 0 0 0 0 0 0 0 0 0 0 0 0.25 0"/>
<feBlend mode="normal" in2="BackgroundImageFix" result="effect1_dropShadow_1165_15779"/>
<feBlend mode="normal" in="SourceGraphic" in2="effect1_dropShadow_1165_15779" result="shape"/>
</filter>
</defs>
</svg>
