<svg width="16" height="17" viewBox="0 0 16 17" fill="none" xmlns="http://www.w3.org/2000/svg">
<g id="LightBulbOutline">
<path id="Vector" d="M6.442 11.9525H9.55733M8 2.61914V3.28581M12.2427 4.37647L11.7713 4.84781M14 8.61914H13.3333M2.66667 8.61914H2M4.22867 4.84781L3.75733 4.37647M5.64267 10.9765C5.17658 10.5103 4.8592 9.91632 4.73065 9.26974C4.60211 8.62316 4.66817 7.95298 4.92049 7.34395C5.1728 6.73491 5.60005 6.21437 6.14819 5.84814C6.69634 5.4819 7.34077 5.28643 8 5.28643C8.65923 5.28643 9.30366 5.4819 9.85181 5.84814C10.4 6.21437 10.8272 6.73491 11.0795 7.34395C11.3318 7.95298 11.3979 8.62316 11.2693 9.26974C11.1408 9.91632 10.8234 10.5103 10.3573 10.9765L9.992 11.3411C9.78314 11.55 9.61747 11.798 9.50446 12.071C9.39144 12.3439 9.33329 12.6364 9.33333 12.9318V13.2858C9.33333 13.6394 9.19286 13.9786 8.94281 14.2286C8.69276 14.4787 8.35362 14.6191 8 14.6191C7.64638 14.6191 7.30724 14.4787 7.05719 14.2286C6.80714 13.9786 6.66667 13.6394 6.66667 13.2858V12.9318C6.66667 12.3351 6.42933 11.7625 6.008 11.3411L5.64267 10.9765Z" stroke="#494949" strokeLinecap="round" strokeLinejoin="round"/>
</g>
</svg>
