<?xml version="1.0" encoding="UTF-8" standalone="no" ?>
<!DOCTYPE svg PUBLIC "-//W3C//DTD SVG 1.1//EN" "http://www.w3.org/Graphics/SVG/1.1/DTD/svg11.dtd">
<svg xmlns="http://www.w3.org/2000/svg" xmlns:xlink="http://www.w3.org/1999/xlink" version="1.1" width="1080" height="1080" viewBox="0 0 1080 1080" xml:space="preserve">
<desc>Created with Fabric.js 5.2.4</desc>
<defs>
</defs>
<g transform="matrix(1 0 0 1 540 540)" id="23772a51-ac5a-4dee-891f-c41d1253e1af"  >
<rect style="stroke: none; stroke-width: 1; stroke-dasharray: none; stroke-linecap: butt; stroke-dashoffset: 0; stroke-linejoin: miter; stroke-miterlimit: 4; fill: rgb(255,255,255); fill-rule: nonzero; opacity: 1; visibility: hidden;" vector-effect="non-scaling-stroke"  x="-540" y="-540" rx="0" ry="0" width="1080" height="1080" />
</g>
<g transform="matrix(1 0 0 1 540 540)" id="b2fdfb00-2995-446f-b009-c7bbf5ebbdc1"  >
</g>
<g transform="matrix(90 0 0 90 540 540)"  >
<path style="stroke: rgb(15,147,177); stroke-width: 1; stroke-dasharray: none; stroke-linecap: round; stroke-dashoffset: 0; stroke-linejoin: round; stroke-miterlimit: 4; fill: none; fill-rule: nonzero; opacity: 1;"  transform=" translate(-6, -6.73)" d="M 6.5 8.73193 L 6 8.73193 L 6 6.73193 L 5.5 6.73193 M 6 4.73193 L 6.005 4.73193 M 10.5 6.73193 C 10.5 7.32288 10.3836 7.90804 10.1575 8.45401 C 9.93131 8.99997 9.59984 9.49605 9.18198 9.91391 C 8.76412 10.3318 8.26804 10.6632 7.72208 10.8894 C 7.17611 11.1155 6.59095 11.2319 6 11.2319 C 5.40905 11.2319 4.82389 11.1155 4.27792 10.8894 C 3.73196 10.6632 3.23588 10.3318 2.81802 9.91391 C 2.40016 9.49605 2.06869 8.99997 1.84254 8.45401 C 1.6164 7.90804 1.5 7.32288 1.5 6.73193 C 1.5 5.53846 1.97411 4.39387 2.81802 3.54995 C 3.66193 2.70604 4.80653 2.23193 6 2.23193 C 7.19347 2.23193 8.33807 2.70604 9.18198 3.54995 C 10.0259 4.39387 10.5 5.53846 10.5 6.73193 Z" stroke-linecap="round" />
</g>
<g transform="matrix(NaN NaN NaN NaN 0 0)"  >
<g style=""   >
</g>
</g>
</svg>