<svg width="199" height="76" viewBox="0 0 199 76" fill="none" xmlns="http://www.w3.org/2000/svg">
<g id="Group 1261155675">
<path id="Vector 255" d="M4.86523 0H40.9896V16.7779L194.367 15.4669C196.589 15.4479 198.401 17.2443 198.401 19.4668V71.619C198.401 73.8282 196.61 75.619 194.401 75.619H21.8409C19.6318 75.619 17.8409 73.8282 17.8409 71.619V61.7298H4.86523C2.6561 61.7298 0.865234 59.939 0.865234 57.7298V4C0.865234 1.79086 2.6561 0 4.86523 0Z" fill="url(#paint0_linear_695_2968)"/>
<path id="Vector 257" d="M4.86523 0H40.9896V12.8119C40.9896 15.0077 39.2195 16.793 37.0238 16.8117L17.8409 16.9757V61.7298H4.86523C2.6561 61.7298 0.865234 59.939 0.865234 57.7298V4C0.865234 1.79086 2.6561 0 4.86523 0Z" fill="#FFF388"/>
<path id="Vector 256" d="M17.8409 16.9757L18.4006 16.9709C20.4867 16.916 27.9977 16.3857 33.9933 11.7224C40.9164 6.33781 40.9891 0.196016 40.9896 0.00459111V16.7779L18.4006 16.9709C18.0395 16.9804 17.8409 16.9757 17.8409 16.9757Z" fill="#EED600"/>
</g>
<defs>
<linearGradient id="paint0_linear_695_2968" x1="10.5485" y1="53.9232" x2="212.956" y2="53.9232" gradientUnits="userSpaceOnUse">
<stop stop-color="#FFE81E"/>
<stop offset="0.5" stop-color="#FCFF6F"/>
<stop offset="1" stop-color="#FFE81E"/>
</linearGradient>
</defs>
</svg>
