<svg width="98" height="32" viewBox="0 0 98 32" fill="none" xmlns="http://www.w3.org/2000/svg">
<g id="Vector">
<path d="M19.8261 0.682348C18.9168 -0.227225 17.4424 -0.227482 16.5328 0.681773C15.6232 1.59103 15.623 3.06548 16.5322 3.97505C17.4415 4.88463 18.9159 4.88488 19.8255 3.97563C20.7351 3.06637 20.7353 1.59192 19.8261 0.682348Z" fill="#5BBC2E"/>
<path d="M26.1277 6.84656L19.8374 13.1478C19.62 13.3656 19.3619 13.5385 19.0776 13.6564C18.7934 13.7744 18.4887 13.8351 18.181 13.8351C17.8732 13.8351 17.5685 13.7744 17.2843 13.6564C17 13.5385 16.7419 13.3656 16.5246 13.1478L10.2342 6.84656C10.0849 6.69756 9.96638 6.52057 9.88555 6.32572C9.80472 6.13087 9.76312 5.922 9.76312 5.71105C9.76312 5.5001 9.80472 5.29122 9.88555 5.09638C9.96638 4.90153 10.0849 4.72454 10.2342 4.57553C10.3829 4.42632 10.5596 4.30793 10.7541 4.22715C10.9487 4.14637 11.1572 4.10478 11.3679 4.10478C11.5785 4.10478 11.7871 4.14637 11.9817 4.22715C12.1762 4.30793 12.3529 4.42632 12.5016 4.57553L17.7646 9.83854C17.8752 9.9473 18.0241 10.0082 18.1792 10.0082C18.3342 10.0082 18.4831 9.9473 18.5937 9.83854L23.8567 4.57553C24.0057 4.42621 24.1827 4.30774 24.3776 4.22691C24.5724 4.14608 24.7813 4.10448 24.9922 4.10448C25.2032 4.10448 25.4121 4.14608 25.6069 4.22691C25.8017 4.30774 25.9787 4.42621 26.1277 4.57553C26.2771 4.72454 26.3955 4.90153 26.4764 5.09638C26.5572 5.29122 26.5988 5.5001 26.5988 5.71105C26.5988 5.922 26.5572 6.13087 26.4764 6.32572C26.3955 6.52057 26.2771 6.69756 26.1277 6.84656Z" fill="#F5BB00"/>
<path d="M26.1283 15.9381L19.8344 22.2321C19.3951 22.6701 18.8001 22.9161 18.1798 22.9161C17.5594 22.9161 16.9644 22.6701 16.5252 22.2321L10.2312 15.9381C9.93136 15.6362 9.76309 15.2281 9.76309 14.8026C9.76309 14.3771 9.93136 13.9689 10.2312 13.6671C10.3802 13.5178 10.5572 13.3993 10.752 13.3185C10.9469 13.2376 11.1557 13.196 11.3667 13.196C11.5776 13.196 11.7865 13.2376 11.9814 13.3185C12.1762 13.3993 12.3532 13.5178 12.5022 13.6671L17.7652 18.9301C17.8195 18.9848 17.8841 19.0282 17.9552 19.0579C18.0264 19.0875 18.1027 19.1028 18.1798 19.1028C18.2568 19.1028 18.3331 19.0875 18.4043 19.0579C18.4754 19.0282 18.54 18.9848 18.5943 18.9301L23.8573 13.6671C24.0063 13.5178 24.1833 13.3993 24.3782 13.3185C24.573 13.2376 24.7819 13.196 24.9928 13.196C25.2038 13.196 25.4127 13.2376 25.6075 13.3185C25.8024 13.3993 25.9793 13.5178 26.1283 13.6671C26.2777 13.8161 26.3961 13.9931 26.477 14.1879C26.5578 14.3828 26.5994 14.5916 26.5994 14.8026C26.5994 15.0135 26.5578 15.2224 26.477 15.4173C26.3961 15.6121 26.2777 15.7891 26.1283 15.9381Z" fill="#DB162F"/>
<path d="M34.6892 16.4609L19.8374 31.3127C19.6201 31.5305 19.3619 31.7034 19.0777 31.8213C18.7935 31.9393 18.4888 32 18.181 32C17.8733 32 17.5686 31.9393 17.2843 31.8213C17.0001 31.7034 16.7419 31.5305 16.5246 31.3127L1.66923 16.4609C1.23095 16.021 0.984863 15.4254 0.984863 14.8045C0.984863 14.1835 1.23095 13.5879 1.66923 13.1481L5.69219 9.12871C5.84119 8.97938 6.01818 8.86092 6.21303 8.78009C6.40787 8.69925 6.61675 8.65765 6.8277 8.65765C7.03865 8.65765 7.24752 8.69925 7.44237 8.78009C7.63722 8.86092 7.81421 8.97938 7.96321 9.12871C8.11253 9.27771 8.231 9.4547 8.31183 9.64955C8.39266 9.84439 8.43427 10.0533 8.43427 10.2642C8.43427 10.4752 8.39266 10.684 8.31183 10.8789C8.231 11.0737 8.11253 11.2507 7.96321 11.3997L4.97123 14.3917C4.91662 14.4457 4.87327 14.51 4.84368 14.5808C4.8141 14.6517 4.79886 14.7277 4.79886 14.8045C4.79886 14.8812 4.8141 14.9573 4.84368 15.0281C4.87327 15.099 4.91662 15.1632 4.97123 15.2172L17.7647 28.0143C17.8752 28.123 18.0241 28.184 18.1792 28.184C18.3343 28.184 18.4832 28.123 18.5938 28.0143L31.3908 15.2172C31.5002 15.1077 31.5617 14.9593 31.5617 14.8045C31.5617 14.6497 31.5002 14.5012 31.3908 14.3917L28.3988 11.3961C28.2496 11.2474 28.1312 11.0707 28.0504 10.8762C27.9697 10.6816 27.9281 10.4731 27.9281 10.2624C27.9281 10.0518 27.9697 9.84318 28.0504 9.64864C28.1312 9.45409 28.2496 9.2774 28.3988 9.12871C28.5478 8.97938 28.7248 8.86092 28.9197 8.78009C29.1145 8.69925 29.3234 8.65765 29.5343 8.65765C29.7453 8.65765 29.9542 8.69925 30.149 8.78009C30.3439 8.86092 30.5208 8.97938 30.6698 9.12871L34.6892 13.1481C34.9071 13.3654 35.0799 13.6236 35.1979 13.9078C35.3158 14.192 35.3765 14.4967 35.3765 14.8045C35.3765 15.1122 35.3158 15.4169 35.1979 15.7011C35.0799 15.9854 34.9071 16.2435 34.6892 16.4609Z" fill="#4285F4"/>
<path d="M40.7053 8.33893H41.0982L41.1631 7.64681C41.1653 7.60873 41.1759 7.57159 41.1939 7.53798C41.212 7.50437 41.2371 7.47508 41.2676 7.45215C41.353 7.40104 41.4494 7.37136 41.5488 7.36564C41.7129 7.34947 41.8777 7.34225 42.0426 7.34401H42.4392V11.367C42.4407 11.4159 42.4243 11.4638 42.3931 11.5016C42.362 11.5394 42.3181 11.5646 42.2697 11.5724C42.1283 11.6075 41.9828 11.6233 41.8372 11.6193H41.7254V11.9509H43.8054V11.6193H43.69C43.5456 11.6231 43.4013 11.6073 43.2611 11.5724C43.2127 11.5646 43.1688 11.5394 43.1377 11.5016C43.1065 11.4638 43.0901 11.4159 43.0916 11.367V7.34401H43.5206C43.6843 7.34223 43.848 7.34946 44.0109 7.36564C44.1124 7.37147 44.2112 7.4011 44.2992 7.45215C44.3298 7.47473 44.3548 7.50401 44.3723 7.53776C44.3898 7.5715 44.3993 7.60881 44.4002 7.64681L44.4651 8.33893H44.858V6.94748H40.7053V8.33893Z" fill="#182F59"/>
<path d="M48.5241 9.43857C48.4688 9.20862 48.3643 8.9934 48.2177 8.80773C48.0894 8.64167 47.9206 8.51134 47.7275 8.42923C47.5111 8.34195 47.2794 8.29904 47.0462 8.30306C46.7435 8.29963 46.446 8.38212 46.1882 8.54097C45.9316 8.70459 45.7217 8.93186 45.579 9.20065C45.4255 9.503 45.3487 9.83851 45.3555 10.1776C45.3467 10.5185 45.4288 10.8557 45.5934 11.1545C45.7467 11.4251 45.9728 11.6473 46.2459 11.7961C46.5302 11.95 46.8492 12.0282 47.1724 12.0232C47.39 12.028 47.6065 11.9913 47.8104 11.9151C47.9848 11.8456 48.144 11.7427 48.279 11.6123C48.4073 11.4893 48.5188 11.3499 48.6107 11.1977L48.279 10.9021C48.2071 11.0176 48.1264 11.1272 48.0375 11.2302C47.9348 11.3434 47.8128 11.4374 47.677 11.5077C47.5231 11.5859 47.3521 11.6243 47.1796 11.6195C47.0173 11.6222 46.8563 11.5903 46.7073 11.5257C46.5678 11.4615 46.4446 11.3667 46.3468 11.2482C46.2316 11.1177 46.1456 10.964 46.0945 10.7976C46.0483 10.6441 46.0216 10.4855 46.0152 10.3254H48.6431C48.6446 10.0257 48.6046 9.72725 48.5241 9.43857ZM46.3036 9.10332C46.3896 8.97901 46.5047 8.87755 46.6388 8.80773C46.7635 8.73876 46.9037 8.70277 47.0462 8.70319C47.1846 8.69946 47.3218 8.72914 47.4463 8.78971C47.5621 8.8468 47.6605 8.93395 47.7311 9.04204C47.812 9.17374 47.8682 9.31912 47.8969 9.47101C47.927 9.62205 47.9463 9.77504 47.9546 9.92882H46.0116C46.0227 9.807 46.0444 9.68638 46.0765 9.56834C46.1235 9.40091 46.2005 9.24337 46.3036 9.10332Z" fill="#182F59"/>
<path d="M52.4109 11.205C52.3031 11.3265 52.1735 11.4267 52.0288 11.5006C51.8625 11.5742 51.6826 11.6122 51.5007 11.6122C51.3188 11.6122 51.139 11.5742 50.9726 11.5006C50.8233 11.4327 50.6923 11.3301 50.5905 11.2014C50.4829 11.0645 50.4033 10.9077 50.3562 10.74C50.2994 10.5481 50.2715 10.3489 50.2733 10.1488C50.2688 9.89074 50.3166 9.63445 50.4139 9.39539C50.4993 9.18299 50.6478 9.00184 50.8392 8.8763C51.0476 8.74654 51.2896 8.68131 51.535 8.68885C51.7633 8.68781 51.9884 8.74224 52.191 8.84746L52.3028 8.91596V9.63692H52.9228V8.76816C52.8371 8.68972 52.7413 8.62305 52.638 8.56989C52.4875 8.49139 52.3292 8.42857 52.1658 8.38244C51.9603 8.32632 51.7479 8.29962 51.535 8.30314C51.1866 8.29637 50.8421 8.37692 50.5328 8.53745C50.2505 8.6874 50.0157 8.91342 49.8551 9.18992C49.6886 9.48673 49.6051 9.82297 49.6136 10.1632C49.6074 10.498 49.6855 10.829 49.8407 11.1257C49.9901 11.4017 50.2152 11.6294 50.4896 11.7818C50.7877 11.9483 51.1251 12.0317 51.4665 12.0233C51.6962 12.0232 51.9238 11.9791 52.137 11.8935C52.3194 11.8201 52.4868 11.7138 52.6308 11.5799C52.7665 11.4493 52.8873 11.3043 52.9913 11.1473L52.6813 10.8517C52.5999 10.9759 52.5095 11.094 52.4109 11.205Z" fill="#182F59"/>
<path d="M57.6598 11.612C57.5848 11.6048 57.5129 11.5787 57.4507 11.5363C57.4268 11.5185 57.4077 11.4949 57.3951 11.4679C57.3825 11.4408 57.3768 11.4111 57.3786 11.3813V9.43831C57.3884 9.21426 57.3386 8.99162 57.2344 8.79305C57.1454 8.63389 57.0077 8.50752 56.8415 8.43257C56.6555 8.34996 56.4537 8.30934 56.2503 8.31362C56.0809 8.31181 55.9125 8.33988 55.7528 8.39653C55.5999 8.45537 55.4594 8.54216 55.3383 8.65247C55.2414 8.73832 55.1521 8.83239 55.0715 8.93364V6.77076H53.8459V7.09519H53.9252C54.0247 7.11184 54.1234 7.1335 54.2208 7.16008C54.2829 7.17801 54.3406 7.20871 54.3902 7.2502C54.4283 7.29535 54.4477 7.35341 54.4443 7.41242V11.3777C54.4456 11.4078 54.4394 11.4378 54.4262 11.4648C54.413 11.4919 54.3931 11.5153 54.3686 11.5327C54.3061 11.5746 54.2343 11.6006 54.1595 11.6084C54.0605 11.6237 53.9604 11.6309 53.8603 11.63V11.9473H55.6158V11.63H55.5942C55.5293 11.63 55.4572 11.63 55.3779 11.63C55.309 11.628 55.2403 11.6207 55.1725 11.6084C55.1148 11.6084 55.0859 11.5832 55.0859 11.5687V9.36982C55.1557 9.2717 55.2341 9.18001 55.3202 9.09586C55.4327 8.98048 55.566 8.88752 55.7132 8.82189C55.8555 8.76096 56.0089 8.73027 56.1638 8.73177C56.289 8.72396 56.4139 8.75144 56.5243 8.81108C56.6139 8.8711 56.6801 8.96023 56.7117 9.06341C56.7531 9.205 56.7726 9.35211 56.7694 9.49959V11.5507C56.7694 11.5507 56.7369 11.576 56.6793 11.5904C56.6101 11.6025 56.5403 11.6097 56.4702 11.612C56.3909 11.612 56.3188 11.612 56.2539 11.612V11.9292H58.0022V11.612C57.8883 11.6227 57.7737 11.6227 57.6598 11.612Z" fill="#182F59"/>
<path d="M58.7997 7.27912H58.879C59.0236 7.27612 59.1679 7.29311 59.3079 7.32959C59.3563 7.33744 59.4002 7.36262 59.4313 7.40042C59.4625 7.43823 59.4789 7.48608 59.4774 7.53506V11.367C59.4789 11.4159 59.4625 11.4638 59.4313 11.5016C59.4002 11.5394 59.3563 11.5646 59.3079 11.5724C59.1677 11.6075 59.0234 11.6233 58.879 11.6193H58.7997V11.9509H60.9157V11.6193H60.7967C60.721 11.6193 60.6417 11.6193 60.5624 11.6193C60.4885 11.6169 60.415 11.6084 60.3425 11.5941C60.285 11.5831 60.2315 11.557 60.1875 11.5184C60.1667 11.5008 60.1503 11.4787 60.1396 11.4536C60.129 11.4285 60.1244 11.4013 60.1262 11.3742V9.63306H60.5444L61.1716 9.65469L61.7953 9.67992V9.19687L60.5444 9.23292H60.1262V7.36564H61.0707C61.2356 7.36397 61.4004 7.37119 61.5645 7.38727C61.6639 7.39299 61.7603 7.42267 61.8457 7.47378C61.8766 7.49636 61.902 7.52556 61.9201 7.55925C61.9382 7.59293 61.9485 7.63025 61.9503 7.66844L62.0151 8.28847H62.4081V6.94748H58.8033L58.7997 7.27912Z" fill="#182F59"/>
<path d="M66.2307 8.82249C66.0612 8.65861 65.8617 8.52889 65.6432 8.44038C65.1699 8.25788 64.6457 8.25788 64.1724 8.44038C63.9547 8.52849 63.7563 8.65829 63.5884 8.82249C63.4187 8.98944 63.2872 9.19111 63.2027 9.41367C63.1109 9.65283 63.0656 9.90733 63.0693 10.1635C63.0643 10.5002 63.1449 10.8326 63.3036 11.1296C63.4554 11.405 63.6815 11.6323 63.9561 11.7856C64.249 11.9418 64.5758 12.0236 64.9078 12.0236C65.2397 12.0236 65.5666 11.9418 65.8594 11.7856C66.1341 11.6323 66.3601 11.405 66.5119 11.1296C66.6706 10.8326 66.7513 10.5002 66.7462 10.1635C66.7499 9.90733 66.7046 9.65283 66.6128 9.41367C66.5284 9.19199 66.3982 8.99056 66.2307 8.82249ZM65.9424 10.9313C65.8561 11.1361 65.7152 11.3131 65.535 11.4432C65.3491 11.5651 65.13 11.6268 64.9078 11.6198C64.6867 11.6261 64.4691 11.5644 64.2841 11.4432C64.1021 11.3151 63.9607 11.1374 63.8768 10.9313C63.6846 10.4362 63.6846 9.88713 63.8768 9.39205C63.9597 9.18626 64.1013 9.00946 64.2841 8.88377C64.4687 8.76124 64.6863 8.69833 64.9078 8.70353C65.1304 8.69758 65.3495 8.76053 65.535 8.88377C65.7158 9.01157 65.857 9.18772 65.9424 9.39205C66.1345 9.88713 66.1345 10.4362 65.9424 10.9313Z" fill="#182F59"/>
<path d="M69.9208 8.28882C69.7491 8.28637 69.5798 8.32994 69.4306 8.41499C69.2865 8.50863 69.1637 8.63144 69.0701 8.77547C68.9874 8.89595 68.9185 9.02533 68.8646 9.16118V8.36812H67.7075V8.69256H67.7796C67.8949 8.71779 67.9922 8.73942 68.0716 8.76465C68.135 8.78006 68.1942 8.80964 68.2446 8.85117C68.2637 8.87268 68.2783 8.89779 68.2876 8.92502C68.2969 8.95226 68.3006 8.98107 68.2987 9.00978V11.3637C68.3004 11.4116 68.2851 11.4587 68.2554 11.4963C68.2256 11.534 68.1835 11.5598 68.1364 11.5692C68.0013 11.6048 67.8616 11.6206 67.7219 11.616V11.9333H69.6396V11.616H69.4774C69.3982 11.6207 69.3187 11.6207 69.2395 11.616C69.1566 11.6109 69.0756 11.5888 69.0016 11.5512C68.9697 11.5369 68.9428 11.5136 68.9242 11.4841C68.9056 11.4546 68.8962 11.4202 68.8971 11.3853V9.51805L68.9764 9.37386C69.029 9.27478 69.0972 9.18474 69.1782 9.10711C69.2479 9.03594 69.333 8.98168 69.427 8.9485C69.5333 8.91041 69.6457 8.89208 69.7586 8.89442H69.892L70.029 8.91245C70.0687 8.91795 70.1075 8.92886 70.1443 8.94489V8.32487C70.1124 8.3117 70.0779 8.30556 70.0434 8.30684L69.9208 8.28882Z" fill="#182F59"/>
<path d="M72.332 11.5873C72.2843 11.5787 72.2413 11.5531 72.2108 11.5154C72.1804 11.4777 72.1645 11.4303 72.1662 11.3818V8.3718H70.9405V8.69623H71.0198C71.1541 8.71729 71.2858 8.75233 71.4128 8.80077C71.4537 8.81851 71.4881 8.84848 71.5113 8.88655C71.5346 8.92462 71.5455 8.96895 71.5425 9.01345V11.3674C71.5442 11.4158 71.5283 11.4633 71.4979 11.501C71.4674 11.5387 71.4244 11.5642 71.3767 11.5729C71.2389 11.6078 71.097 11.6236 70.9549 11.6197V11.9369H72.7573V11.6197C72.6147 11.6286 72.4716 11.6177 72.332 11.5873Z" fill="#182F59"/>
<path d="M71.8214 7.58945C71.8776 7.59162 71.9337 7.58253 71.9863 7.56272C72.0389 7.54291 72.087 7.51278 72.1278 7.4741C72.2066 7.38939 72.2504 7.27798 72.2504 7.16229C72.2504 7.04659 72.2066 6.93518 72.1278 6.85047C72.0442 6.77467 71.9342 6.73457 71.8214 6.73872C71.7086 6.73418 71.5985 6.77433 71.515 6.85047C71.4338 6.93393 71.3883 7.04581 71.3883 7.16229C71.3883 7.27876 71.4338 7.39064 71.515 7.4741C71.5556 7.51312 71.6037 7.54348 71.6564 7.56331C71.709 7.58314 71.7652 7.59204 71.8214 7.58945Z" fill="#182F59"/>
<path d="M77.3422 11.6122C77.2694 11.6052 77.1998 11.5791 77.1403 11.5365C77.1158 11.519 77.0959 11.4957 77.0827 11.4686C77.0695 11.4415 77.0633 11.4116 77.0646 11.3815V9.43848C77.0739 9.2149 77.0254 8.9927 76.924 8.79322C76.8351 8.63406 76.6973 8.50769 76.5311 8.43274C76.3467 8.34938 76.1458 8.30871 75.9435 8.31378C75.773 8.31223 75.6034 8.34028 75.4425 8.39669C75.2888 8.45768 75.1472 8.54557 75.0243 8.65624C74.9044 8.76633 74.7946 8.88698 74.6963 9.01672V8.37146H73.5427V8.69589H73.6112C73.7097 8.71483 73.8072 8.73889 73.9032 8.76799C73.9673 8.78166 74.0268 8.81143 74.0762 8.8545C74.0965 8.87535 74.1122 8.90027 74.1221 8.92762C74.1321 8.95496 74.1361 8.9841 74.1339 9.01311V11.3671C74.1353 11.3972 74.129 11.4271 74.1158 11.4542C74.1026 11.4813 74.0828 11.5046 74.0582 11.5221C73.9988 11.5647 73.9291 11.5908 73.8563 11.5978C73.7574 11.6131 73.6573 11.6203 73.5572 11.6194V11.9366H75.3019V11.6194H75.2839C75.2154 11.6194 75.1433 11.6194 75.064 11.6194C74.995 11.6169 74.9264 11.6097 74.8585 11.5978C74.8044 11.5978 74.7756 11.5725 74.7756 11.5581V9.39522C74.8453 9.29598 74.9238 9.20309 75.0099 9.11765C75.1256 9.00284 75.2611 8.91001 75.41 8.84369C75.5498 8.78272 75.7009 8.75201 75.8534 8.75357C75.9786 8.74633 76.1033 8.77378 76.2139 8.83288C76.3035 8.89216 76.3688 8.98174 76.3977 9.08521C76.441 9.22639 76.4605 9.37381 76.4554 9.52139V11.5725C76.4554 11.5725 76.4266 11.5978 76.3689 11.6122C76.2997 11.6239 76.2299 11.6311 76.1598 11.6338C76.0805 11.6338 76.0084 11.6338 75.9399 11.6338V11.951H77.6882V11.6338C77.5725 11.6374 77.4566 11.6302 77.3422 11.6122Z" fill="#182F59"/>
<path d="M82.136 8.873V8.22414C82.0165 8.20698 81.8951 8.20698 81.7756 8.22414C81.659 8.24652 81.547 8.28793 81.4439 8.3467C81.337 8.41048 81.2409 8.49078 81.1591 8.58462C81.1375 8.60625 81.1231 8.63148 81.1051 8.65311C81.019 8.57611 80.9233 8.51067 80.8203 8.45845C80.5952 8.35091 80.3488 8.2951 80.0993 8.2951C79.8498 8.2951 79.6035 8.35091 79.3784 8.45845C79.1714 8.56203 78.9969 8.72038 78.8737 8.91626C78.7522 9.12144 78.6881 9.35551 78.6881 9.59396C78.6881 9.83242 78.7522 10.0665 78.8737 10.2717C78.9617 10.4059 79.0757 10.5211 79.2089 10.6105C79.1001 10.6662 78.9964 10.7313 78.8989 10.8052C78.7977 10.8834 78.7121 10.98 78.6466 11.09C78.5907 11.1862 78.562 11.2959 78.5637 11.4072C78.5619 11.494 78.5791 11.5801 78.6141 11.6595C78.6586 11.7495 78.7226 11.8283 78.8016 11.8902L78.9097 11.9659C78.8288 12.008 78.7506 12.0549 78.6754 12.1065C78.5694 12.1764 78.4786 12.2672 78.4087 12.3733C78.3508 12.4662 78.3208 12.5738 78.3222 12.6833C78.3195 12.784 78.3381 12.8842 78.3766 12.9773C78.4151 13.0705 78.4727 13.1545 78.5457 13.224C78.7168 13.3731 78.9246 13.4739 79.1477 13.516C79.4267 13.5795 79.7122 13.6098 79.9984 13.6061H80.2615C80.5659 13.6093 80.8689 13.5643 81.1591 13.4727C81.4112 13.3991 81.6398 13.2612 81.8224 13.0726C81.9906 12.8849 82.0797 12.6395 82.0712 12.3877C82.078 12.2123 82.026 12.0398 81.9234 11.8974C81.8123 11.7582 81.6614 11.6563 81.4908 11.6054C81.2568 11.5371 81.0135 11.5054 80.7698 11.5117H79.7136C79.5666 11.5183 79.4197 11.4963 79.281 11.4468C79.2364 11.4311 79.1978 11.4017 79.1707 11.3629C79.1435 11.3242 79.1292 11.2779 79.1296 11.2305C79.1296 11.1658 79.1471 11.1023 79.1801 11.0467C79.2223 10.9832 79.2762 10.9281 79.3387 10.8845C79.3892 10.8484 79.4505 10.816 79.5117 10.7799C79.6991 10.8466 79.8968 10.8796 80.0957 10.8773C80.3452 10.8817 80.5921 10.8274 80.8167 10.7187C81.0241 10.6194 81.2 10.4647 81.325 10.2717C81.4508 10.0684 81.5147 9.83294 81.5088 9.59396C81.5137 9.35512 81.4499 9.11989 81.325 8.91626C81.325 8.89824 81.2961 8.88742 81.2853 8.8694C81.394 8.8443 81.5054 8.8322 81.6169 8.83335C81.7539 8.84416 81.9306 8.85498 82.136 8.873ZM80.741 12.1173C80.9353 12.1014 81.1306 12.1323 81.3105 12.2074C81.3606 12.237 81.4014 12.2801 81.4282 12.3317C81.4549 12.3833 81.4666 12.4415 81.4619 12.4994C81.4616 12.5672 81.4474 12.6342 81.4201 12.6962C81.3928 12.7582 81.3531 12.8139 81.3033 12.8599C81.1779 12.9721 81.0288 13.0547 80.8671 13.1014C80.66 13.1619 80.4449 13.1911 80.2291 13.188H79.9804C79.766 13.1934 79.5517 13.1728 79.3423 13.1267C79.2092 13.097 79.0854 13.0351 78.9818 12.9464C78.943 12.9099 78.9121 12.8658 78.891 12.8168C78.8699 12.7678 78.8591 12.715 78.8593 12.6616C78.8592 12.5827 78.8777 12.5049 78.9133 12.4345C78.9554 12.3574 79.0116 12.2889 79.0792 12.2327C79.1256 12.1929 79.175 12.1568 79.227 12.1245L80.741 12.1173ZM80.7842 10.0698C80.7244 10.1946 80.6275 10.2979 80.5067 10.3654C80.376 10.4339 80.2306 10.4697 80.0831 10.4697C79.9356 10.4697 79.7902 10.4339 79.6595 10.3654C79.5387 10.2979 79.4418 10.1946 79.382 10.0698C79.3122 9.92116 79.2789 9.75805 79.2846 9.59396C79.28 9.42881 79.3133 9.26481 79.382 9.11453C79.442 8.98615 79.5386 8.87832 79.6595 8.80451C79.7902 8.73599 79.9356 8.70019 80.0831 8.70019C80.2306 8.70019 80.376 8.73599 80.5067 8.80451C80.6276 8.87832 80.7242 8.98615 80.7842 9.11453C80.8529 9.26481 80.8862 9.42881 80.8816 9.59396C80.8909 9.76529 80.8574 9.93624 80.7842 10.0914V10.0698Z" fill="#182F59"/>
<path d="M43.3043 19.103H40.3448V17.1853H48.7584V19.103H45.7952V28.115H43.3043V19.103Z" fill="#182F59"/>
<path d="M51.6528 17.1853H54.8971L58.4515 28.1366H55.8632L55.1675 25.8548H51.0905L50.3695 28.1366H48.0444L51.6528 17.1853ZM54.6124 24.0884L53.1272 19.2039L51.6204 24.0884H54.6124Z" fill="#182F59"/>
<path d="M59.8501 17.1853H62.3338V26.1973H66.9516V28.1438H59.8501V17.1853Z" fill="#182F59"/>
<path d="M68.4678 17.1853H75.9082V19.103H70.9371V21.6588H74.9745V23.4612H70.9371V26.1936H76.1569V28.1222H68.4678V17.1853Z" fill="#182F59"/>
<path d="M77.7671 17.1853H80.651L84.9767 24.3949V17.1853H87.1829V28.1366H84.6883L79.9769 20.3431V28.1366H77.7671V17.1853Z" fill="#182F59"/>
<path d="M91.5616 19.103H88.5984V17.1853H97.0156V19.103H94.0525V28.115H91.5616V19.103Z" fill="#182F59"/>
</g>
</svg>
