<svg width="88" height="91" viewBox="0 0 88 91" fill="none" xmlns="http://www.w3.org/2000/svg">
<path d="M8.72003 70.38L17.19 65.5L8.47003 60.47V30.02L43.54 9.77002L52.26 14.8L60.96 19.83L78.62 30.02V40.08L78.63 50.14L83.13 47.54L87.09 45.25V25.13L60.95 10.05L58.84 8.83002L52.26 5.03003L43.54 0L0 25.13V65.36H0.0100098L8.71002 70.39" fill="#4285F4"/>
<path d="M26.1299 40.22V50.28L17.4199 55.3V45.25L26.1299 40.22Z" fill="#DB162F"/>
<path d="M43.5498 30.1699V60.33L36.4598 56.2399L34.8398 55.2999V35.1899L43.5498 30.1699Z" fill="#F5BB00"/>
<path d="M60.9498 10.05L52.2598 5.02002V25.1H52.3198L52.2598 25.13V25.15V45.26V55.3L60.9598 50.28H60.9698V30.17V30.12V20.12V20.1L60.9498 10.05Z" fill="#5BBC2E"/>
<path d="M87.1002 45.25V65.36C72.9702 73.52 57.6902 82.35 43.5502 90.5C32.2602 83.96 19.9902 76.9 8.72021 70.38C13.3002 67.75 21.5602 62.96 26.1302 60.33L34.1202 64.95H34.1302C34.4402 65.15 43.0302 70.08 43.5502 70.39V70.4C54.5902 64.01 67.3402 56.65 78.3802 50.28C78.3902 50.3 78.6202 50.15 78.6302 50.15V50.14C80.7402 48.92 85.0002 46.46 87.0902 45.25H87.1002Z" fill="#182F59"/>
<path d="M43.5499 70.3802V70.3902L34.8399 65.3702L34.1299 64.9502L34.8399 65.3602L43.5499 70.3802Z" fill="#182F59"/>
<path d="M52.7098 65.1001L52.2598 65.3701L43.5498 70.4001V70.3901L52.2598 65.3601L52.7098 65.1001Z" fill="#182F59"/>
<path d="M87.09 35.2002V45.2502L83.13 47.5402L78.63 50.1402L78.4 50.2802H78.38L69.67 55.3102L68.05 56.2502L60.96 60.3302L52.97 64.9502L52.71 65.1002L52.26 65.3702L43.55 70.4002V70.3902L34.84 65.3702L34.13 64.9502H34.12L26.13 60.3302L18.12 64.9502L17.42 65.3702L17.19 65.5002L8.72003 70.3802L8.71002 70.3902L0 65.3702L0.0100098 65.3602L0.720032 64.9502L8.47003 60.4702L8.71002 60.3302L15.8 56.2502L17.42 55.3002L26.13 50.2802L34.84 55.3002L36.46 56.2502L43.55 60.3302L50.62 56.2502L52.26 55.3002L60.96 50.2802L65.72 47.5402L69.67 45.2502L78.38 40.2302V40.2202L78.62 40.0802L80.8 38.8302L87.09 35.2002Z" fill="#4285F4"/>
<path d="M26.1299 40.22V50.28L17.4199 55.3V45.25L26.1299 40.22Z" fill="#DB162F"/>
<path d="M43.5498 30.1699V60.33L36.4598 56.2499L34.8398 55.2999V35.1899L43.5498 30.1699Z" fill="#F5BB00"/>
<path d="M60.9498 20.11L54.5098 16.4001L52.2598 15.0901V25.1H52.3198L52.2598 25.1401V25.1501V45.2701V55.3L60.9598 50.2801L60.9698 50.29V50.2801V30.17V30.1201V20.1201V20.11H60.9498Z" fill="#5BBC2E"/>
</svg>
