<svg width="78" height="90" viewBox="0 0 78 90" fill="none" xmlns="http://www.w3.org/2000/svg">
<path d="M43.3698 41.74C40.3898 43.46 36.7198 43.46 33.7398 41.74C27.3198 38.03 27.3198 28.76 33.7398 25.05C36.7198 23.33 40.3898 23.33 43.3698 25.05C49.7998 28.76 49.7998 38.03 43.3698 41.74Z" fill="#4285F4"/>
<path d="M77.11 22.2599L75.12 23.41L67.47 27.81V27.83L57.83 22.27V22.2599L57.75 22.22L48.19 16.7L41.06 12.58L38.56 11.13L36.05 12.58L28.92 16.7L19.36 22.22L19.28 22.2599V22.27L9.64 27.83L2 23.41L0 22.2599L9.64 16.7V16.69L14.7 13.77L19.28 11.13L28.92 5.57001L31.41 4.13L38.56 0L45.71 4.13L48.19 5.57001L57.83 11.13L62.41 13.77L67.47 16.69V16.7L77.11 22.2599Z" fill="#5BBC2E"/>
<path d="M33.7198 52.8498V63.9998L28.9198 61.2298L28.9098 61.2098L28.1298 60.7698L19.2798 55.6598V44.5098L22.5098 46.3698V46.3798L27.0298 48.9898L33.7198 52.8498Z" fill="#DB162F"/>
<path d="M33.7198 75.1199V89.0299L22.5098 82.5599L18.0198 79.9499L11.2898 76.0899L0.0698242 69.5899V33.4199L7.58982 37.7699L9.63983 38.9499V61.2299L19.2798 66.7799L25.5598 70.4099L28.9198 72.3499L33.7198 75.1199Z" fill="#DB162F"/>
<path d="M57.8299 44.5601V55.66L48.9699 60.77L48.1899 61.21V61.23L43.3599 64.01V52.91L50.0699 49.04L54.5799 46.45V46.4301L57.8299 44.5601Z" fill="#F5BB00"/>
<path d="M77.0199 33.48V69.66L65.7999 76.14L59.0799 80.02L54.5799 82.62L43.3599 89.08V75.13L48.1799 72.35H48.1899V72.34L51.5399 70.41L57.8299 66.78L67.4699 61.21V39L69.4899 37.83L77.0199 33.48Z" fill="#F5BB00"/>
</svg>
