<?xml version="1.0" encoding="utf-8"?>
<!-- Generator: Adobe Illustrator 26.2.1, SVG Export Plug-In . SVG Version: 6.00 Build 0)  -->
<svg version="1.1" id="Layer_1" xmlns="http://www.w3.org/2000/svg" xmlns:xlink="http://www.w3.org/1999/xlink" x="0px" y="0px"
	 viewBox="0 0 90 90" style="enable-background:new 0 0 90 90;" xml:space="preserve">
<style type="text/css">
	.st0{fill:#182F59;}
	.st1{fill:#5BBC2E;}
	.st2{fill:#DB162F;}
	.st3{fill:#4285F4;}
	.st4{fill:#F5BB00;}
	.st5{fill:#F2F2F2;}
	.st6{fill:#E6E6E6;}
	.st7{opacity:0.5;fill:url(#SVGID_1_);}
	.st8{opacity:0.5;fill:#F2F2F2;}
	.st9{opacity:0.5;fill:url(#SVGID_00000008109887584925116260000014754857485202026922_);}
	.st10{opacity:0.5;fill:url(#SVGID_00000018915724804531248030000007208377268997712787_);}
	.st11{fill:#FFFFFF;}
</style>
<g>
	<g>
		<g>
			<path class="st1" d="M73.07,16.25l-8.72,5.03l-8.94-5.16c-0.46-0.26-1.04-0.11-1.31,0.35l-1.81,3.14
				c-0.07,0.13-0.22,0.19-0.36,0.15c-4.54-1.25-9.33-1.25-13.87,0c-0.14,0.04-0.29-0.02-0.36-0.15l-1.81-3.14
				c-0.26-0.46-0.85-0.61-1.31-0.35l-9.39,5.42c-0.46,0.26-0.61,0.85-0.35,1.31l1.81,3.14c0.07,0.13,0.05,0.28-0.05,0.39
				c-3.35,3.31-5.75,7.46-6.94,12.01c-0.04,0.14-0.16,0.24-0.31,0.24h-3.62c-0.53,0-0.96,0.43-0.96,0.96v10.84
				c0,0.53,0.43,0.96,0.96,0.96h3.62c0.15,0,0.27,0.1,0.31,0.24c0.59,2.28,1.49,4.46,2.66,6.48c1.17,2.02,2.6,3.89,4.28,5.54
				c0.1,0.1,0.13,0.26,0.05,0.39l-1.81,3.13c-0.26,0.46-0.11,1.04,0.35,1.31l9.39,5.42c0.46,0.26,1.04,0.11,1.31-0.35l1.38-2.39
				c0.09-0.15,0.28-0.2,0.44-0.12l3.03,1.75l-12.76,7.37L6.54,67.76c-0.3-0.17-0.48-0.49-0.48-0.83V23.07
				c0-0.34,0.18-0.66,0.48-0.83L44.52,0.32c0.3-0.17,0.66-0.17,0.96,0L73.07,16.25z"/>
			<path class="st4" d="M83.94,14.88v14.18c0,0.34-0.18,0.66-0.48,0.83L62.23,42.15l-8.63,4.98l-3.69,2.13l-0.43,0.25L45,46.93
				v-9.56l2.22-1.28l2.25-1.3h0l4.25-2.45l8.93-5.16l0,0l1.91-1.1l12.76-7.37L83.94,14.88z"/>
			<path class="st4" d="M65.16,67.15c0.26,0.46,0.11,1.04-0.35,1.31l-9.39,5.42c-0.46,0.26-1.04,0.11-1.31-0.35l-1.38-2.39
				c-0.09-0.15-0.28-0.21-0.44-0.12L45,75.24l-0.01-0.01L32.23,82.6l12.28,7.09c0.3,0.17,0.66,0.17,0.96,0l38-21.94
				c0.3-0.17,0.48-0.49,0.48-0.83V55.24c0-0.34-0.18-0.66-0.48-0.83l-1.2-0.69l-11.08,6.39v0.01l-1.67,0.96l-4.25,2.46l-1.37,0.79
				c-0.15,0.09-0.2,0.28-0.12,0.44L65.16,67.15z"/>
			<path class="st2" d="M82.26,53.71c-1.09,0.63-12.03,6.95-12.76,7.36c-2.62-1.51-17.73-10.24-20.03-11.56
				c2.7-1.56,9.96-5.75,12.76-7.36C68.64,45.85,75.86,50.02,82.26,53.71z"/>
			<linearGradient id="SVGID_1_" gradientUnits="userSpaceOnUse" x1="61.2487" y1="42.7539" x2="66.7339" y2="53.2796">
				<stop  offset="0" style="stopColor:#000000"/>
				<stop  offset="0.2611" style="stopColor:#292929;stopOpacity:0.7389"/>
				<stop  offset="0.5942" style="stopColor:#565656;stopOpacity:0.4058"/>
				<stop  offset="0.8516" style="stopColor:#727272;stopOpacity:0.1484"/>
				<stop  offset="1" style="stopColor:#7D7D7D;stopOpacity:0"/>
			</linearGradient>
			<path class="st7" d="M82.26,53.71c-1.09,0.63-12.03,6.95-12.76,7.36c-2.62-1.51-17.73-10.24-20.03-11.56
				c2.7-1.56,9.96-5.75,12.76-7.36C68.64,45.85,75.86,50.02,82.26,53.71z"/>
		</g>
	</g>
</g>
</svg>
