<?xml version="1.0" encoding="utf-8"?>
<!-- Generator: Adobe Illustrator 26.2.1, SVG Export Plug-In . SVG Version: 6.00 Build 0)  -->
<svg version="1.1" id="Layer_1" xmlns="http://www.w3.org/2000/svg" xmlns:xlink="http://www.w3.org/1999/xlink" x="0px" y="0px"
	 viewBox="0 0 90 90" style="enable-background:new 0 0 90 90;" xml:space="preserve">
<style type="text/css">
	.st0{fill:#182F59;}
	.st1{fill:#5BBC2E;}
	.st2{fill:#DB162F;}
	.st3{fill:#4285F4;}
	.st4{fill:#F5BB00;}
	.st5{fill:#F2F2F2;}
	.st6{fill:#E6E6E6;}
	.st7{opacity:0.5;fill:url(#SVGID_1_);}
	.st8{opacity:0.5;fill:#F2F2F2;}
	.st9{opacity:0.5;fill:url(#SVGID_00000155852043462074768280000009894691237128075166_);}
	.st10{opacity:0.5;fill:url(#SVGID_00000168807202247403680640000009326695937623444112_);}
	.st11{fill:#FFFFFF;}
</style>
<g>
	<g>
		<g>
			<path class="st2" d="M44.87,1.73L7.77,23.15c-0.15,0.09-0.25,0.25-0.25,0.43v7.85c0,0.14,0.11,0.25,0.25,0.25h3.45
				c0.14,0,0.25-0.11,0.25-0.25v-5.71c0-0.09,0.05-0.17,0.12-0.21L45,6.22c0.08-0.04,0.17-0.04,0.25,0l9.48,5.47
				c0.04,0.02,0.08,0.03,0.12,0.03h6.91c0.25,0,0.34-0.33,0.12-0.46L45.37,1.73C45.21,1.64,45.03,1.64,44.87,1.73z"/>
			<path class="st2" d="M82.72,59.56v6.87c0,0.18-0.09,0.34-0.25,0.43L45.37,88.27c-0.15,0.09-0.34,0.09-0.49,0l-14.06-8.12
				c-0.12-0.07-0.16-0.22-0.09-0.34l0.25-0.43c0.04-0.08,0.13-0.12,0.21-0.12h5.91c0.04,0,0.09,0.01,0.12,0.03L45,83.78
				c0.08,0.04,0.17,0.04,0.25,0l8.03-4.64l6.04-3.48L78.65,64.5c0.08-0.04,0.12-0.13,0.12-0.21v-4.73c0-0.14,0.11-0.25,0.25-0.25
				h1.04h2.42C82.61,59.31,82.72,59.42,82.72,59.56z"/>
		</g>
		<g>
			<path class="st4" d="M82.69,16.41H38.42c-2.72,0-4.94,2.22-4.94,4.94v17.73h3.95V21.35c0-0.54,0.44-0.99,0.99-0.99h44.26
				c0.54,0,0.99,0.44,0.99,0.99v28.34c0,0.54-0.44,0.99-0.99,0.99h-6.99c-0.53,0-1.01,0.28-1.28,0.74l-4.6,7.91
				c-0.1,0.16-0.26,0.24-0.43,0.24c-0.16,0-0.33-0.08-0.42-0.24l-4.61-7.91c-0.26-0.45-0.75-0.74-1.28-0.74h-9.52v3.95h8.1
				l3.89,6.68c0.79,1.36,2.27,2.21,3.84,2.21s3.05-0.84,3.84-2.21l3.89-6.68h5.57c2.72,0,4.94-2.22,4.94-4.94V21.35
				C87.62,18.63,85.41,16.41,82.69,16.41z"/>
			<path class="st3" d="M51.82,36.36H7.31c-2.72,0-4.94,2.22-4.94,4.94v28.34c0,2.72,2.21,4.94,4.94,4.94h5.57l3.89,6.68
				c0.79,1.36,2.26,2.21,3.83,2.21s3.05-0.84,3.84-2.21l3.89-6.68h23.47c2.72,0,4.94-2.21,4.94-4.94V41.3
				C56.75,38.58,54.54,36.36,51.82,36.36z M52.81,69.64c0,0.55-0.44,0.99-0.99,0.99H26.65c-0.35,0-0.68,0.19-0.85,0.49l-4.75,8.15
				c-0.1,0.16-0.26,0.24-0.43,0.24c-0.16,0-0.33-0.08-0.42-0.24l-4.75-8.15c-0.17-0.31-0.5-0.49-0.85-0.49H7.31
				c-0.55,0-0.99-0.44-0.99-0.99V41.3c0-0.54,0.44-0.99,0.99-0.99h44.5c0.55,0,0.99,0.44,0.99,0.99V69.64z"/>
		</g>
		<g>
			<circle class="st4" cx="17.63" cy="52.85" r="2.56"/>
			<circle class="st4" cx="29.48" cy="52.85" r="2.56"/>
			<circle class="st4" cx="41.32" cy="52.85" r="2.56"/>
		</g>
	</g>
</g>
</svg>
