<svg width="96" height="89" viewBox="0 0 96 89" fill="none" xmlns="http://www.w3.org/2000/svg">
<path d="M52.2751 11.03C49.7551 13.55 45.6651 13.55 43.1351 11.03C40.6151 8.51 40.6151 4.42 43.1351 1.89C45.6551 -0.63 49.7451 -0.63 52.2751 1.89C54.7951 4.42 54.7951 8.51 52.2751 11.03Z" fill="#5BBC2E"/>
<path d="M69.7549 19.03L52.3049 36.48C49.7649 39.02 45.6549 39.02 43.1249 36.48L25.6649 19.02C23.9249 17.28 23.9249 14.46 25.6649 12.72C27.4049 10.98 30.2249 10.98 31.9649 12.72L46.5649 27.32C47.1949 27.95 48.2249 27.95 48.8649 27.32L63.4649 12.72C65.2049 10.98 68.0248 10.98 69.7648 12.72C71.4948 14.47 71.4949 17.29 69.7549 19.03Z" fill="#F5BB00"/>
<path d="M69.7549 44.23L52.2949 61.68C49.7549 64.22 45.6449 64.22 43.1149 61.68L25.6649 44.23C23.9249 42.49 23.9249 39.67 25.6649 37.93C27.4049 36.19 30.2249 36.19 31.9649 37.93L46.5649 52.53C47.1949 53.16 48.2249 53.16 48.8649 52.53L63.4649 37.93C65.2049 36.19 68.0248 36.19 69.7648 37.93C71.4948 39.66 71.4949 42.49 69.7549 44.23Z" fill="#DB162F"/>
<path d="M93.505 45.6699L52.295 86.8799C49.755 89.4199 45.645 89.4199 43.115 86.8799L1.905 45.6699C-0.635 43.1299 -0.635 39.0199 1.905 36.4899L13.055 25.3299C14.795 23.5899 17.615 23.5899 19.355 25.3299C21.095 27.0699 21.095 29.8899 19.355 31.6299L11.055 39.9299C10.425 40.5599 10.425 41.5899 11.055 42.2299L46.555 77.7299C47.185 78.3599 48.215 78.3599 48.855 77.7299L84.355 42.2299C84.985 41.5999 84.985 40.5699 84.355 39.9299L76.055 31.6299C74.315 29.8899 74.315 27.0699 76.055 25.3299C77.795 23.5899 80.615 23.5899 82.355 25.3299L93.515 36.4899C96.045 39.0199 96.045 43.1299 93.505 45.6699Z" fill="#4285F4"/>
</svg>
