<svg width="478" height="460" viewBox="0 0 478 460" fill="none" xmlns="http://www.w3.org/2000/svg">
<path d="M239.988 2.10882C247.637 10.123 256.168 18.4538 268.236 20.4192C292.711 25.18 317.413 29.968 340.664 38.8218C340.955 40.5213 341.42 43.8817 341.648 45.5367C331.464 46.2772 321.201 44.4315 311.183 46.3757C327.047 55.1741 347.63 54.0272 364.482 48.5331C352.781 33.0508 336.611 20.4181 326.874 3.76788C336.64 5.66441 345.885 9.85262 353.332 16.0055C373.302 31.8595 393.224 47.7693 412.01 64.7621C425.932 75.2858 420.785 93.0571 420.5 107.176C424.482 106.055 428.464 104.934 432.515 103.908C439.228 121.733 444.323 140.386 455.128 156.672C460.856 166.156 473.625 166.726 482.822 171.784C492.18 179.216 500.808 188.655 499.392 200.652C495.756 211.962 488.094 222.463 476.28 228C480.545 218.406 489.738 210.494 489.977 199.686C489.198 190.407 480.288 182.98 470.57 181.028C459.499 185.064 456.849 197.848 446.123 202.358C429.575 207.617 410.762 198.511 394.822 206.557C382.616 212.896 382.896 227.059 375.42 236.473C370.415 243.142 360.718 241.747 353.048 241.263C360.28 236.553 369.594 233.155 372.875 224.934C381.571 206.951 388.963 188.44 396.542 170.063C389.058 177.8 383.607 186.904 376.799 195.081C362.247 181.214 345.34 169.318 332.441 154.06C338.036 153.689 343.68 153.67 349.296 153.856C336.163 147.015 322.052 141.597 307.295 138.382C300.244 136.715 292.883 134.826 287.339 130.309C281.455 123.334 283.804 114.039 283.687 105.913C278.764 110.335 273.248 115.733 265.501 114.291C189.979 105.056 116.293 158.45 102.69 225.055C93.8094 270.423 109.563 320.484 146.402 353.222C170.961 375.98 204.223 389.706 238.483 394.479C257.685 397.9 277.156 394.374 296.133 391.714C341.089 380.435 379.18 350.227 398.223 311.65C401.477 304.449 403.813 296.681 409.335 290.519C410.585 301.988 408.361 313.406 408.66 324.871C421.76 299.111 426.953 270.755 433.994 243.227C446.635 271.583 441.872 303.455 433.467 332.039C414.954 395.893 346.917 445.655 273.394 444.811C253.155 446.025 233.345 441.446 213.435 438.964C230.477 447.387 250.345 448.348 267.71 455.873C171.312 468.314 71.642 406.93 43.0641 322.734C32.7782 292.406 29.182 259.917 34.3662 228.662C40.9873 193.242 57.4431 159.406 82.8976 132.022C42.7551 164.373 20.7363 212.971 18.6742 261.555C16.8358 280.208 22.9563 298.602 23.4608 317.218C5.53865 294.338 7.96816 264.994 3.0331 238.594C2.84963 199.65 12.9473 160.262 34.8271 126.835C66.4162 75.8809 123.011 39.1954 185.58 25.9046C201.897 24.6362 218.212 20.5194 234.614 21.0735C244.749 27.2556 250.691 37.4799 259.752 44.7896C253.318 30.5978 246.656 16.3783 239.988 2.10882ZM336.492 94.3874C342.225 110.381 360.779 122.463 379.423 118.209C366.776 108.012 351.142 101.683 336.492 94.3874Z" fill="url(#paint0_linear_2363_26039)" stroke="url(#paint1_linear_2363_26039)" strokeWidth="5"/>
<defs>
<linearGradient id="paint0_linear_2363_26039" x1="45.2329" y1="108.238" x2="436.676" y2="334.238" gradientUnits="userSpaceOnUse">
<stop stopColor="#66B172"/>
<stop offset="1" stopColor="#4DA2C9"/>
</linearGradient>
<linearGradient id="paint1_linear_2363_26039" x1="45.2329" y1="108.238" x2="436.676" y2="334.238" gradientUnits="userSpaceOnUse">
<stop stopColor="#66B172"/>
<stop offset="1" stopColor="#4DA2C9"/>
</linearGradient>
</defs>
</svg>
