<svg width="688" height="402" viewBox="0 0 688 402" fill="none" xmlns="http://www.w3.org/2000/svg">
<path d="M39.8344 477.065C112.497 447.054 175.684 403.382 162.947 348.465C140.753 252.728 152.857 201.288 275.97 155.565C399.082 109.842 425.324 144.131 489.911 65.545C554.498 -13.0409 576.692 -53.0468 699.823 -54.4727C822.955 -55.8985 776.515 -47.3297 776.515 -47.3297L750.292 254.168C750.292 254.168 602.953 228.448 520.2 295.599C430.311 368.536 556.531 422.774 366.798 448.494C268.143 461.87 257.804 538.514 275.97 567.085C294.135 595.657 17.6212 564.234 17.6212 564.234C17.6212 564.234 -32.8284 507.077 39.8344 477.065Z" fill="url(#paint0_linear_2363_26071)"/>
<defs>
<linearGradient id="paint0_linear_2363_26071" x1="46.9298" y1="319.364" x2="815.412" y2="319.364" gradientUnits="userSpaceOnUse">
<stop offset="0.416667" stopColor="#1A2C82"/>
<stop offset="1" stopColor="#26CCCC"/>
</linearGradient>
</defs>
</svg>
