<svg width="136" height="32" viewBox="0 0 136 32" fill="none" xmlns="http://www.w3.org/2000/svg">
<g id="Vector">
<path d="M16.2113 0.0249207L2.51047 7.93308C2.45509 7.96631 2.41817 8.02538 2.41817 8.09184V10.99C2.41817 11.0417 2.45878 11.0823 2.51047 11.0823H3.78419C3.83588 11.0823 3.87649 11.0417 3.87649 10.99V8.88192C3.87649 8.84869 3.89495 8.81915 3.9208 8.80438L16.2519 1.6863C16.2815 1.67153 16.3147 1.67153 16.3442 1.6863L19.8442 3.7058C19.859 3.71318 19.8737 3.71687 19.8885 3.71687H22.4396C22.5319 3.71687 22.5652 3.59504 22.4839 3.54704L16.3922 0.0249207C16.3368 -0.00830689 16.2667 -0.00830689 16.2113 0.0249207Z" fill="#DB162F"/>
<path d="M30.1817 21.3755V23.9119C30.1817 23.9783 30.1484 24.0374 30.0894 24.0706L16.3922 31.9751C16.3368 32.0083 16.2667 32.0083 16.2113 31.9751L11.0204 28.9772C10.9761 28.9514 10.9614 28.896 10.9872 28.8517L11.0795 28.6929C11.0943 28.6634 11.1275 28.6486 11.157 28.6486H13.339C13.3537 28.6486 13.3722 28.6523 13.3833 28.6597L16.2556 30.3174C16.2851 30.3322 16.3184 30.3322 16.3479 30.3174L19.3125 28.6043L28.679 23.1993C28.7086 23.1845 28.7233 23.1513 28.7233 23.1218V21.3755C28.7233 21.3238 28.7639 21.2832 28.8156 21.2832H30.0931C30.141 21.2832 30.1817 21.3238 30.1817 21.3755Z" fill="#DB162F"/>
<path d="M30.1706 5.44471H13.83C12.8258 5.44471 12.0062 6.26432 12.0062 7.26853V13.8144H13.4645V7.26853C13.4645 7.06917 13.6269 6.90303 13.83 6.90303H30.1706C30.3699 6.90303 30.5361 7.06547 30.5361 7.26853V17.7315C30.5361 17.9309 30.3736 18.097 30.1706 18.097H27.5899C27.3942 18.097 27.217 18.2004 27.1173 18.3702L25.419 21.2906C25.3821 21.3496 25.323 21.3792 25.2603 21.3792C25.2012 21.3792 25.1384 21.3496 25.1052 21.2906L23.4032 18.3702C23.3072 18.2041 23.1263 18.097 22.9307 18.097H19.4159V19.5554H22.4064L23.8426 22.0216C24.1342 22.5237 24.6806 22.8375 25.2603 22.8375C25.8399 22.8375 26.3863 22.5274 26.678 22.0216L28.1142 19.5554H30.1706C31.1748 19.5554 31.9944 18.7357 31.9944 17.7315V7.26853C31.9907 6.26432 31.1748 5.44471 30.1706 5.44471Z" fill="#F5BB00"/>
<path d="M18.7735 12.8102H2.34433C1.34012 12.8102 0.520508 13.6298 0.520508 14.634V25.097C0.520508 26.1012 1.33643 26.9208 2.34433 26.9208H4.40075L5.83692 29.387C6.12858 29.8891 6.6713 30.2029 7.25094 30.2029C7.83057 30.2029 8.37698 29.8928 8.66865 29.387L10.1048 26.9208H18.7698C19.774 26.9208 20.5937 26.1049 20.5937 25.097V14.634C20.5973 13.6298 19.7777 12.8102 18.7735 12.8102ZM19.139 25.097C19.139 25.3 18.9766 25.4625 18.7735 25.4625H9.48088C9.35166 25.4625 9.22982 25.5326 9.16706 25.6434L7.41338 28.6523C7.37646 28.7114 7.31739 28.7409 7.25463 28.7409C7.19556 28.7409 7.1328 28.7114 7.09957 28.6523L5.34589 25.6434C5.28313 25.5289 5.16129 25.4625 5.03207 25.4625H2.34433C2.14127 25.4625 1.97883 25.3 1.97883 25.097V14.634C1.97883 14.4346 2.14127 14.2685 2.34433 14.2685H18.7735C18.9766 14.2685 19.139 14.4309 19.139 14.634V25.097Z" fill="#4285F4"/>
<path d="M6.15443 19.8433C6.67641 19.8433 7.09957 19.4202 7.09957 18.8982C7.09957 18.3762 6.67641 17.953 6.15443 17.953C5.63244 17.953 5.20929 18.3762 5.20929 18.8982C5.20929 19.4202 5.63244 19.8433 6.15443 19.8433Z" fill="#F5BB00"/>
<path d="M10.5257 19.8433C11.0477 19.8433 11.4708 19.4202 11.4708 18.8982C11.4708 18.3762 11.0477 17.953 10.5257 17.953C10.0037 17.953 9.58056 18.3762 9.58056 18.8982C9.58056 19.4202 10.0037 19.8433 10.5257 19.8433Z" fill="#F5BB00"/>
<path d="M14.9007 19.8433C15.4227 19.8433 15.8458 19.4202 15.8458 18.8982C15.8458 18.3762 15.4227 17.953 14.9007 17.953C14.3787 17.953 13.9555 18.3762 13.9555 18.8982C13.9555 19.4202 14.3787 19.8433 14.9007 19.8433Z" fill="#F5BB00"/>
<path d="M38.16 7.70787L38.2338 6.91041C38.2449 6.81073 38.2855 6.73689 38.3556 6.6852C38.4258 6.63352 38.5365 6.60029 38.6805 6.58183C38.8282 6.56706 39.0165 6.55598 39.2491 6.55598H39.7217V11.2078C39.7217 11.326 39.6552 11.4072 39.526 11.4441C39.3968 11.4811 39.2306 11.4995 39.0276 11.4995H38.8984V11.8835H41.3018V11.4995H41.1726C40.9732 11.4995 40.8071 11.4811 40.6742 11.4441C40.545 11.4072 40.4785 11.326 40.4785 11.2078V6.55598H40.9511C41.1837 6.55598 41.3757 6.56337 41.5196 6.58183C41.6673 6.5966 41.7781 6.63352 41.8482 6.6852C41.9221 6.73689 41.959 6.81073 41.9664 6.91041L42.0402 7.70787H42.498V6.10188H37.6985V7.70787H38.16Z" fill="#182F59"/>
<path d="M46.7474 8.97791C46.6662 8.68624 46.5481 8.44257 46.393 8.2469C46.238 8.05492 46.0497 7.90724 45.8245 7.81125C45.5993 7.71526 45.3371 7.66357 45.0381 7.66357C44.6726 7.66357 44.344 7.75587 44.0486 7.94047C43.7533 8.12506 43.517 8.37981 43.3435 8.70101C43.1699 9.0259 43.0813 9.40248 43.0813 9.83075C43.0813 10.2664 43.1736 10.643 43.3582 10.9642C43.5428 11.2854 43.7939 11.5327 44.1114 11.7063C44.4289 11.8798 44.787 11.9684 45.1821 11.9684C45.4663 11.9684 45.71 11.9278 45.9204 11.8429C46.1309 11.7579 46.3118 11.6435 46.4632 11.4958C46.6145 11.3481 46.7438 11.1894 46.8471 11.0159L46.4632 10.6725C46.3856 10.798 46.2933 10.9236 46.1826 11.0528C46.0718 11.182 45.9352 11.2891 45.7765 11.374C45.6177 11.4626 45.4257 11.5032 45.2005 11.5032C45.0048 11.5032 44.8239 11.4663 44.6541 11.3924C44.4843 11.3186 44.3403 11.2115 44.2148 11.0712C44.0892 10.9309 43.9933 10.7574 43.9268 10.5507C43.8714 10.3882 43.8456 10.2036 43.8345 10.0043H46.873C46.8693 9.61292 46.8287 9.27326 46.7474 8.97791ZM44.1742 8.59025C44.2849 8.44257 44.4141 8.32812 44.5618 8.2469C44.7095 8.16937 44.8646 8.12876 45.0344 8.12876C45.2153 8.12876 45.3667 8.16198 45.4996 8.22475C45.6288 8.2912 45.7395 8.38719 45.8245 8.51641C45.9131 8.64563 45.9758 8.81177 46.0201 9.01483C46.0534 9.16989 46.0718 9.35079 46.0829 9.54278H43.8382C43.853 9.3951 43.8751 9.2548 43.912 9.12558C43.9785 8.92253 44.0634 8.74162 44.1742 8.59025Z" fill="#182F59"/>
<path d="M51.2406 11.0232C51.1187 11.1599 50.971 11.2743 50.7975 11.3666C50.624 11.4589 50.4136 11.5069 50.1699 11.5069C49.9484 11.5069 49.749 11.4663 49.5755 11.3851C49.402 11.3038 49.2543 11.1894 49.1361 11.038C49.018 10.8903 48.9257 10.7094 48.8629 10.5027C48.8002 10.2959 48.7706 10.067 48.7706 9.81967C48.7706 9.49478 48.826 9.20312 48.9331 8.94837C49.0401 8.69363 49.2063 8.49426 49.4204 8.35027C49.6382 8.20629 49.9078 8.13614 50.2253 8.13614C50.4985 8.13614 50.7495 8.1989 50.9821 8.32074C51.0301 8.34658 51.0707 8.37243 51.1113 8.39827V9.22157H51.8276V8.20998C51.7574 8.13983 51.6467 8.0623 51.499 7.98108C51.3513 7.89986 51.1667 7.82602 50.9526 7.76695C50.7384 7.70418 50.4948 7.67465 50.2216 7.67465C49.7822 7.67465 49.3946 7.76695 49.0623 7.94785C48.7263 8.12876 48.4679 8.37981 48.2796 8.70101C48.0913 9.02221 47.999 9.3951 47.999 9.82706C47.999 10.2442 48.0876 10.6171 48.2648 10.9383C48.4421 11.2632 48.6931 11.5143 49.0143 11.6989C49.3392 11.8835 49.7121 11.9758 50.144 11.9758C50.4431 11.9758 50.7015 11.9315 50.923 11.8429C51.1446 11.7543 51.3329 11.6324 51.4916 11.481C51.6504 11.3297 51.7907 11.1635 51.9125 10.9826L51.5544 10.6393C51.4658 10.7574 51.3624 10.8866 51.2406 11.0232Z" fill="#182F59"/>
<path d="M57.3064 11.4958C57.2031 11.481 57.1218 11.4515 57.0665 11.4072C57.0074 11.3629 56.9815 11.3038 56.9815 11.2263V8.97791C56.9815 8.67517 56.9262 8.42411 56.8191 8.23213C56.712 8.04015 56.557 7.89616 56.3613 7.80386C56.1656 7.71157 55.9367 7.66357 55.6783 7.66357C55.4678 7.66357 55.2759 7.6968 55.1023 7.76325C54.9325 7.82971 54.7701 7.9257 54.6224 8.05492C54.519 8.14352 54.4193 8.25798 54.3159 8.37981V5.89513H52.8982V6.2717L52.9869 6.28647C53.1271 6.30862 53.2416 6.33078 53.3302 6.36031C53.4151 6.38616 53.4816 6.42307 53.5259 6.46738C53.5702 6.51168 53.5923 6.57445 53.5923 6.65567V11.2263C53.5923 11.3038 53.5628 11.3629 53.5037 11.4072C53.4446 11.4515 53.3634 11.481 53.2637 11.4958C53.1641 11.5106 53.0496 11.5217 52.9167 11.5217H52.9019V11.8872H54.9325V11.5217H54.9067C54.8291 11.5217 54.7479 11.518 54.6556 11.5143C54.5633 11.5106 54.4858 11.4995 54.4193 11.4847C54.3529 11.47 54.3233 11.4552 54.3233 11.4404V8.91883C54.4119 8.80069 54.5005 8.69363 54.5928 8.60133C54.7331 8.46103 54.8845 8.35766 55.0507 8.28751C55.2168 8.21736 55.3866 8.18044 55.5712 8.18044C55.7447 8.18044 55.8813 8.20998 55.981 8.27274C56.0807 8.33551 56.1545 8.4315 56.1952 8.56072C56.2395 8.68993 56.2616 8.85976 56.2616 9.06651V11.4367C56.2616 11.4515 56.2284 11.4663 56.1582 11.481C56.0918 11.4958 56.0106 11.5032 55.9183 11.5106C55.826 11.5143 55.741 11.518 55.6672 11.518H55.6524V11.8835H57.6719V11.518H57.6572C57.5243 11.5217 57.4098 11.5143 57.3064 11.4958Z" fill="#182F59"/>
<path d="M58.7168 6.48584C58.9161 6.48584 59.0823 6.5043 59.2152 6.54122C59.3444 6.57814 59.4108 6.65936 59.4108 6.7775V11.2115C59.4108 11.3297 59.3444 11.4109 59.2152 11.4478C59.086 11.4847 58.9198 11.5032 58.7168 11.5032H58.6282V11.8872H61.0722V11.5032H60.9319C60.8433 11.5032 60.7547 11.4995 60.6624 11.4958C60.5701 11.4921 60.4852 11.481 60.4114 11.4626C60.3338 11.4478 60.2748 11.4183 60.2268 11.3777C60.1788 11.3371 60.1566 11.2817 60.1566 11.2115V9.20681C60.3191 9.2105 60.4815 9.21419 60.6403 9.22157C60.8839 9.22896 61.1239 9.23634 61.3639 9.24742C61.6039 9.2548 61.8475 9.26588 62.0838 9.27695V8.70839C61.8438 8.71209 61.6039 8.71947 61.3639 8.73055C61.1202 8.73793 60.8802 8.74531 60.6403 8.7527C60.4815 8.75639 60.3191 8.76377 60.1566 8.76746V6.5929H61.2494C61.482 6.5929 61.674 6.60029 61.818 6.61875C61.9657 6.63352 62.0727 6.67044 62.1429 6.72212C62.213 6.77381 62.2536 6.84765 62.2647 6.94733L62.3386 7.68203H62.7964V6.11664H58.6245V6.48584H58.7168Z" fill="#182F59"/>
<path d="M67.2193 8.26905C67.0273 8.08076 66.8021 7.92939 66.5437 7.82602C66.2853 7.71895 66.001 7.66726 65.6909 7.66726C65.3807 7.66726 65.0965 7.71895 64.838 7.82602C64.5796 7.93308 64.3544 8.08076 64.1624 8.26905C63.9704 8.46103 63.8227 8.68624 63.7194 8.94837C63.616 9.2105 63.5643 9.50216 63.5643 9.81598C63.5643 10.2332 63.6566 10.6061 63.8375 10.9309C64.0184 11.2558 64.2695 11.5106 64.5907 11.6915C64.9119 11.8724 65.2774 11.9647 65.6909 11.9647C66.1044 11.9647 66.4699 11.8724 66.7911 11.6915C67.1123 11.5106 67.3633 11.2558 67.5442 10.9309C67.7251 10.6061 67.8174 10.2332 67.8174 9.81598C67.8174 9.50216 67.7657 9.2105 67.6624 8.94837C67.559 8.68624 67.4113 8.46103 67.2193 8.26905ZM66.887 10.7057C66.7763 10.9605 66.6212 11.1598 66.4182 11.2965C66.2188 11.4367 65.9751 11.5032 65.6945 11.5032C65.4177 11.5032 65.1777 11.4331 64.9746 11.2965C64.7716 11.1598 64.6128 10.9605 64.5021 10.7057C64.3913 10.451 64.3359 10.1556 64.3359 9.81598C64.3359 9.47263 64.3913 9.17727 64.5021 8.92253C64.6128 8.66778 64.7716 8.4758 64.9746 8.33551C65.1777 8.19521 65.4177 8.12876 65.6945 8.12876C65.9751 8.12876 66.2188 8.1989 66.4182 8.33551C66.6175 8.4758 66.7763 8.67147 66.887 8.92253C66.9978 9.17358 67.0532 9.47263 67.0532 9.81598C67.0532 10.1556 66.9978 10.451 66.887 10.7057Z" fill="#182F59"/>
<path d="M71.4835 7.66726C71.2731 7.66726 71.0848 7.71526 70.9187 7.81494C70.7525 7.91093 70.6085 8.04753 70.4867 8.21736C70.3944 8.34658 70.3169 8.50164 70.2467 8.66409V7.74849H68.9102V8.12506L68.9915 8.13983C69.1281 8.16568 69.2388 8.19521 69.3311 8.22106C69.4197 8.2469 69.4862 8.28382 69.5305 8.32443C69.5748 8.36504 69.5969 8.4278 69.5969 8.50903V11.23C69.5969 11.3481 69.5342 11.4294 69.4087 11.4663C69.2831 11.5032 69.1244 11.5217 68.9287 11.5217H68.9139V11.8872H71.1291V11.5217H70.9888C70.9113 11.5217 70.8227 11.518 70.7156 11.5069C70.6085 11.4958 70.5162 11.47 70.4387 11.4294C70.3612 11.3888 70.3206 11.326 70.3206 11.2374V9.0739C70.3501 9.01483 70.3796 8.95576 70.4092 8.90776C70.4793 8.78223 70.5568 8.67886 70.6418 8.59764C70.7267 8.51641 70.8227 8.45365 70.9297 8.41304C71.0368 8.37243 71.166 8.35027 71.3137 8.35027C71.3617 8.35027 71.4134 8.35397 71.4688 8.35766C71.5241 8.36504 71.5758 8.36873 71.6275 8.37981C71.6792 8.38719 71.7235 8.40196 71.7604 8.41673V7.69311C71.7346 7.68203 71.694 7.67465 71.6423 7.67096C71.5906 7.66726 71.5389 7.66726 71.4835 7.66726Z" fill="#182F59"/>
<path d="M74.2747 11.4626C74.1454 11.4257 74.0827 11.3444 74.0827 11.2263V7.74849H72.665V8.12506L72.7536 8.13983C72.9603 8.17675 73.1117 8.21736 73.2114 8.26167C73.3074 8.30597 73.359 8.38719 73.359 8.50534V11.2263C73.359 11.3444 73.2963 11.4257 73.1671 11.4626C73.0378 11.4995 72.8791 11.518 72.6834 11.518H72.676V11.8835H74.7694V11.518H74.762C74.5663 11.5217 74.4039 11.5032 74.2747 11.4626Z" fill="#182F59"/>
<path d="M73.6839 6.84396C73.8242 6.84396 73.9424 6.79965 74.0384 6.71105C74.1344 6.62244 74.1824 6.50061 74.1824 6.34924C74.1824 6.19787 74.1344 6.07603 74.0384 5.99112C73.9424 5.9062 73.8242 5.8619 73.6839 5.8619C73.5436 5.8619 73.4255 5.9062 73.3295 5.99112C73.2335 6.07972 73.1855 6.19787 73.1855 6.34924C73.1855 6.50061 73.2335 6.62244 73.3295 6.71105C73.4255 6.79965 73.5436 6.84396 73.6839 6.84396Z" fill="#182F59"/>
<path d="M80.0673 11.4958C79.9676 11.481 79.8864 11.4515 79.831 11.4072C79.7757 11.3629 79.7461 11.3038 79.7461 11.2263V8.97791C79.7461 8.67517 79.6907 8.42411 79.5837 8.23213C79.4766 8.04015 79.3252 7.89616 79.1296 7.80386C78.9376 7.71157 78.7087 7.66357 78.4502 7.66357C78.2398 7.66357 78.0441 7.6968 77.8706 7.76325C77.6971 7.82971 77.5346 7.92939 77.387 8.0623C77.2614 8.17675 77.1322 8.32074 77.0067 8.48318V7.74849H75.6702V8.12506L75.7514 8.13983C75.888 8.16568 75.9988 8.19521 76.0911 8.22106C76.1797 8.2469 76.2461 8.28382 76.2905 8.32443C76.3348 8.36504 76.3569 8.4278 76.3569 8.50903V11.23C76.3569 11.3075 76.3274 11.3666 76.272 11.4109C76.2166 11.4552 76.1354 11.4847 76.0357 11.4995C75.936 11.5143 75.8216 11.5254 75.6887 11.5254H75.6739V11.8909H77.6934V11.5254H77.6675C77.59 11.5254 77.5088 11.5217 77.4165 11.518C77.3242 11.5143 77.2467 11.5032 77.1802 11.4884C77.1138 11.4737 77.0842 11.4589 77.0842 11.4441V8.92622C77.1728 8.80808 77.2614 8.69732 77.3574 8.60502C77.5014 8.46472 77.6565 8.36135 77.8189 8.2912C77.9814 8.22106 78.1512 8.18414 78.3321 8.18414C78.5056 8.18414 78.6422 8.21367 78.7456 8.27643C78.8453 8.3392 78.9191 8.43519 78.9597 8.56441C79.004 8.69363 79.0262 8.86346 79.0262 9.0702V11.4404C79.0262 11.4552 78.993 11.47 78.9228 11.4847C78.8564 11.4995 78.7751 11.5069 78.6828 11.5143C78.5905 11.5217 78.5056 11.5217 78.4318 11.5217H78.417V11.8872H80.4365V11.5217H80.4218C80.2851 11.5217 80.1707 11.5143 80.0673 11.4958Z" fill="#182F59"/>
<path d="M85.6126 8.32812V7.57866C85.4613 7.56389 85.3173 7.56758 85.1807 7.58973C85.0441 7.61558 84.9185 7.66357 84.7967 7.73372C84.6786 7.80387 84.5678 7.89616 84.4681 8.00692C84.446 8.03277 84.4275 8.0623 84.4054 8.08815C84.3094 7.99954 84.1986 7.9257 84.0768 7.86294C83.8294 7.73372 83.5488 7.67096 83.235 7.67096C82.9249 7.67096 82.648 7.73372 82.4006 7.86294C82.1533 7.99215 81.9576 8.16568 81.8136 8.39089C81.6696 8.61609 81.5995 8.87822 81.5995 9.17727C81.5995 9.47632 81.6696 9.73845 81.8099 9.95997C81.9096 10.1187 82.0462 10.2406 82.2013 10.3513C82.0647 10.4215 81.9391 10.499 81.8432 10.5765C81.7139 10.6836 81.6143 10.7907 81.5515 10.9051C81.485 11.0196 81.4555 11.1414 81.4555 11.2706C81.4555 11.374 81.4776 11.47 81.5183 11.5623C81.5589 11.6546 81.629 11.7432 81.7324 11.8281C81.7693 11.8576 81.8136 11.8872 81.8579 11.9167C81.7545 11.9721 81.6622 12.0275 81.5847 12.0791C81.4481 12.1751 81.3484 12.2748 81.2783 12.3856C81.2118 12.4926 81.1749 12.6145 81.1749 12.7437C81.1749 13.0058 81.2598 13.2126 81.4333 13.3713C81.6032 13.5301 81.8358 13.6408 82.1311 13.711C82.4265 13.7811 82.7514 13.8144 83.1169 13.8144H83.4196C83.7925 13.8144 84.1395 13.7627 84.4571 13.663C84.7746 13.5633 85.0293 13.4082 85.225 13.1978C85.417 12.9874 85.5129 12.7252 85.5129 12.404C85.5129 12.1751 85.4576 11.9868 85.3431 11.8392C85.2287 11.6915 85.0625 11.577 84.841 11.5069C84.6195 11.4331 84.35 11.3961 84.0214 11.3961H82.7994C82.5815 11.3961 82.4154 11.3703 82.2973 11.3186C82.1791 11.2669 82.1237 11.1857 82.1237 11.0712C82.1237 10.9937 82.1459 10.9236 82.1865 10.8608C82.2271 10.7943 82.2899 10.7316 82.3711 10.6725C82.4265 10.6319 82.5003 10.5913 82.5705 10.5544C82.7735 10.6282 82.9987 10.6651 83.2424 10.6651C83.5562 10.6651 83.8368 10.6024 84.0842 10.4805C84.3315 10.3587 84.5272 10.1852 84.6712 9.96366C84.8152 9.74214 84.8853 9.48001 84.8853 9.18096C84.8853 8.88192 84.8115 8.61979 84.6712 8.39458C84.6601 8.37612 84.6417 8.36135 84.6269 8.34289C84.7339 8.31705 84.8558 8.30228 85.0108 8.30228C85.1696 8.2949 85.3764 8.30597 85.6126 8.32812ZM83.9993 12.0902C84.3204 12.0902 84.5383 12.1234 84.6564 12.1936C84.7746 12.2601 84.8299 12.3745 84.8299 12.5333C84.8299 12.6846 84.7672 12.8212 84.6453 12.9394C84.5235 13.0575 84.3537 13.1535 84.1395 13.22C83.9254 13.2864 83.678 13.3233 83.4012 13.3233H83.1169C82.8178 13.3233 82.5742 13.2975 82.3785 13.2495C82.1865 13.2015 82.0425 13.1314 81.9502 13.0427C81.8579 12.9541 81.8173 12.8397 81.8173 12.7105C81.8173 12.6182 81.8395 12.5296 81.8801 12.4483C81.9207 12.3671 81.9834 12.2896 82.0721 12.2121C82.12 12.1678 82.1791 12.1308 82.2419 12.0902H83.9993ZM84.0509 9.72368C83.9734 9.87505 83.8663 9.98581 83.7297 10.067C83.5931 10.1483 83.427 10.1852 83.2387 10.1852C83.0541 10.1852 82.8917 10.1446 82.7551 10.067C82.6185 9.9895 82.5077 9.87505 82.4339 9.72368C82.3563 9.576 82.3194 9.39141 82.3194 9.17358C82.3194 8.95575 82.3563 8.77116 82.4339 8.61609C82.5114 8.46103 82.6185 8.34289 82.7551 8.26167C82.8917 8.18044 83.0541 8.13983 83.2387 8.13983C83.427 8.13983 83.5931 8.18044 83.7297 8.26167C83.8663 8.34289 83.9771 8.46103 84.0509 8.61609C84.1285 8.77116 84.1654 8.95575 84.1654 9.17358C84.1617 9.39141 84.1248 9.576 84.0509 9.72368Z" fill="#182F59"/>
<path d="M48.5417 26.9466C48.3571 27.5743 48.0802 28.117 47.711 28.5748C47.3419 29.0326 46.9099 29.4055 46.4115 29.7008C45.9168 29.9962 45.374 30.214 44.7833 30.3543C44.1926 30.4946 43.5908 30.5648 42.9743 30.5648C41.9368 30.5648 41.0212 30.4134 40.2275 30.107C39.4337 29.8005 38.7691 29.3612 38.2375 28.7926C37.7059 28.2241 37.2997 27.53 37.0265 26.7177C36.7533 25.9055 36.6167 24.9899 36.6167 23.9746C36.6167 23.059 36.7681 22.2062 37.0745 21.4161C37.381 20.626 37.8092 19.9467 38.3593 19.3708C38.9094 18.7948 39.574 18.3407 40.3456 18.0121C41.1172 17.6835 41.9738 17.5174 42.9078 17.5174C43.5244 17.5174 44.1114 17.5838 44.6652 17.7168C45.219 17.8497 45.7322 18.0527 46.2047 18.3259C46.6773 18.5991 47.0982 18.9499 47.4674 19.3744C47.8366 19.799 48.143 20.3011 48.383 20.8845L46.046 21.896C45.9205 21.597 45.758 21.3164 45.5623 21.0617C45.3667 20.8069 45.1414 20.5817 44.8904 20.3897C44.6393 20.1978 44.3624 20.0501 44.0597 19.943C43.757 19.8359 43.4395 19.7843 43.1035 19.7843C42.4795 19.7843 41.9516 19.9061 41.5123 20.1461C41.0729 20.386 40.7148 20.7109 40.4379 21.1097C40.161 21.5084 39.9579 21.9662 39.8324 22.4794C39.7069 22.9926 39.6404 23.5205 39.6404 24.0632C39.6404 24.6244 39.7069 25.156 39.8398 25.6582C39.9727 26.1603 40.1795 26.607 40.4637 26.9873C40.748 27.3675 41.1098 27.6703 41.5492 27.8955C41.9885 28.1207 42.5165 28.2314 43.1293 28.2314C43.9305 28.2314 44.5766 28.0321 45.0676 27.6333C45.5586 27.2346 45.9352 26.6661 46.201 25.9277L48.5417 26.9466Z" fill="#182F59"/>
<path d="M53.0238 17.6946V25.241C53.0238 25.6692 53.0533 26.0643 53.1087 26.4335C53.1641 26.8027 53.2822 27.1239 53.4557 27.3934C53.6292 27.6629 53.8692 27.877 54.183 28.0321C54.4969 28.1871 54.903 28.2647 55.4014 28.2647C55.9146 28.2647 56.3281 28.1871 56.6419 28.0284C56.9557 27.8696 57.1994 27.6481 57.3729 27.3675C57.5464 27.0869 57.6646 26.7547 57.7236 26.3707C57.7827 25.9867 57.8159 25.5769 57.8159 25.1339V17.6946H60.7067V25.3074C60.7067 27.0537 60.2489 28.368 59.3296 29.243C58.4103 30.118 57.0997 30.5574 55.394 30.5574C53.6994 30.5574 52.3961 30.1254 51.4916 29.2652C50.5871 28.405 50.133 27.1202 50.133 25.4182V17.6946H53.0238Z" fill="#182F59"/>
<path d="M64.6682 26.4888C64.7789 26.8359 64.934 27.1312 65.1408 27.3786C65.3475 27.626 65.5838 27.829 65.8607 27.9878C66.1376 28.1465 66.4366 28.2647 66.7652 28.3385C67.0938 28.4123 67.4335 28.4493 67.7879 28.4493C68.0463 28.4493 68.3011 28.416 68.5484 28.3496C68.7958 28.2831 69.0173 28.1798 69.213 28.0432C69.4087 27.9065 69.5674 27.7293 69.6892 27.5189C69.8111 27.3085 69.8701 27.0574 69.8701 26.7694C69.8701 26.4593 69.7963 26.2046 69.6486 26.0089C69.501 25.8132 69.3053 25.6545 69.0542 25.5326C68.8032 25.4108 68.5189 25.3148 68.1903 25.2483C67.8617 25.1819 67.5147 25.1154 67.1529 25.0564C66.828 24.9973 66.4957 24.9382 66.1487 24.8755C65.8016 24.8127 65.4657 24.7241 65.1408 24.6133C64.8159 24.5026 64.5057 24.3623 64.2141 24.1924C63.9224 24.0226 63.6677 23.8085 63.4535 23.5464C63.2394 23.2842 63.0659 22.9667 62.9403 22.5975C62.8148 22.2283 62.7484 21.789 62.7484 21.2832C62.7484 20.6482 62.8739 20.0944 63.1286 19.6181C63.3834 19.1419 63.7194 18.7468 64.1402 18.433C64.5611 18.1192 65.0411 17.8829 65.5764 17.7278C66.1117 17.5728 66.6655 17.4952 67.2378 17.4952C67.7325 17.4952 68.2198 17.5432 68.6961 17.6429C69.1724 17.7426 69.6117 17.8977 70.0215 18.1155C70.4313 18.3333 70.7931 18.6176 71.1106 18.9683C71.4282 19.3191 71.6829 19.7473 71.8675 20.2494L69.8775 21.1835C69.608 20.6592 69.2462 20.2642 68.7958 20.0021C68.3454 19.7399 67.8322 19.607 67.2562 19.607C67.02 19.607 66.7948 19.6329 66.5769 19.6809C66.3591 19.7289 66.1708 19.8101 66.0047 19.9172C65.8385 20.0242 65.7093 20.1682 65.6096 20.3454C65.51 20.5226 65.462 20.7368 65.462 20.9915C65.462 21.3201 65.5432 21.5896 65.7056 21.7964C65.8681 22.0031 66.0822 22.1729 66.3517 22.2985C66.6212 22.424 66.924 22.52 67.2673 22.5828C67.6107 22.6455 67.9651 22.6935 68.3269 22.7304C68.6555 22.7637 68.9915 22.808 69.3311 22.8633C69.6708 22.9187 69.9994 22.9999 70.3169 23.1107C70.6344 23.2215 70.9334 23.3618 71.214 23.5353C71.4946 23.7088 71.7383 23.9303 71.945 24.1961C72.1518 24.462 72.3179 24.7868 72.4398 25.1634C72.5616 25.54 72.6207 25.9867 72.6207 26.4999C72.6207 27.1682 72.4804 27.7552 72.2072 28.261C71.934 28.7668 71.5648 29.1877 71.107 29.5273C70.6492 29.867 70.136 30.1254 69.5563 30.2989C68.9767 30.4725 68.3897 30.5574 67.7842 30.5574C67.2304 30.5574 66.6692 30.5094 66.097 30.4097C65.5247 30.31 64.9931 30.1476 64.4947 29.9113C63.9963 29.675 63.5606 29.3649 63.184 28.9698C62.8074 28.5748 62.5342 28.0801 62.3681 27.4857L64.6682 26.4888Z" fill="#182F59"/>
<path d="M73.0895 19.9282V17.6946H82.8252V19.9282H79.3991V30.3654H76.5194V19.9282H73.0895Z" fill="#182F59"/>
<path d="M89.6073 30.5648C88.6327 30.5648 87.7466 30.406 86.9454 30.0848C86.1443 29.7636 85.465 29.3132 84.9038 28.7335C84.3426 28.1539 83.907 27.4598 83.5968 26.6476C83.2867 25.8354 83.1353 24.9456 83.1353 23.9709C83.1353 23.0258 83.3015 22.1582 83.6301 21.3681C83.9586 20.578 84.4128 19.895 84.9924 19.3228C85.572 18.7505 86.2587 18.3001 87.0562 17.9826C87.8537 17.6651 88.7213 17.5026 89.659 17.5026C90.6337 17.5026 91.5198 17.6614 92.3209 17.9789C93.1221 18.2964 93.8051 18.7394 94.3773 19.3117C94.9496 19.8839 95.3926 20.5669 95.7064 21.3681C96.0203 22.1693 96.179 23.0479 96.179 24.0115C96.179 24.9862 96.0202 25.876 95.6991 26.6808C95.3778 27.4857 94.9311 28.1761 94.3552 28.752C93.7792 29.328 93.0888 29.7747 92.284 30.0922C91.4791 30.4097 90.582 30.5648 89.6073 30.5648ZM89.7181 28.2684C90.342 28.2684 90.87 28.1465 91.3093 27.9065C91.7487 27.6666 92.1068 27.3454 92.3837 26.9466C92.6606 26.5479 92.8636 26.0938 92.9892 25.5843C93.1147 25.0748 93.1811 24.5506 93.1811 24.0152C93.1811 23.443 93.111 22.9003 92.9707 22.3871C92.8304 21.8739 92.6126 21.4235 92.3172 21.0321C92.0219 20.6408 91.6527 20.3344 91.2022 20.1055C90.7518 19.8766 90.2202 19.7621 89.5999 19.7621C88.9723 19.7621 88.437 19.8802 87.9939 20.1165C87.5509 20.3528 87.1928 20.6703 86.9159 21.069C86.639 21.4678 86.4396 21.9256 86.3141 22.4498C86.1886 22.9741 86.1295 23.5168 86.1295 24.0891C86.1295 24.6318 86.2033 25.156 86.3547 25.6582C86.5061 26.1603 86.7276 26.607 87.0267 26.9946C87.3257 27.3823 87.6986 27.6887 88.149 27.9213C88.5994 28.1539 89.12 28.2684 89.7181 28.2684Z" fill="#182F59"/>
<path d="M98.0804 17.6946H101.872L105.029 25.983L108.108 17.6946H111.829V30.3617H108.975V21.4678L105.472 30.3617H104.172L100.65 21.4678V30.3617H98.0804V17.6946Z" fill="#182F59"/>
<path d="M114.406 17.6946H123.016V19.9282H117.26V22.8892H121.934V24.9751H117.26V28.1318H123.3V30.3654H114.406V17.6946Z" fill="#182F59"/>
<path d="M129.85 17.6946C130.503 17.6946 131.123 17.7574 131.714 17.8866C132.305 18.0158 132.825 18.2299 133.272 18.5327C133.719 18.8354 134.077 19.2378 134.339 19.7399C134.601 20.2421 134.738 20.866 134.738 21.6081C134.738 22.4868 134.513 23.2067 134.062 23.7716C133.612 24.3364 132.969 24.7389 132.131 24.9751L135.48 30.3654H132.434L129.395 25.4772H127.985V30.3654H125.131V17.6946H129.85ZM129.687 23.5205C130.012 23.5205 130.307 23.4873 130.584 23.4245C130.861 23.3618 131.097 23.2584 131.297 23.1144C131.496 22.9704 131.655 22.7784 131.769 22.5421C131.884 22.3059 131.939 22.0142 131.939 21.6671C131.939 21.3053 131.88 21.0063 131.758 20.7811C131.637 20.5559 131.474 20.3713 131.264 20.2421C131.053 20.1128 130.817 20.0168 130.544 19.9689C130.27 19.9209 129.986 19.895 129.687 19.895H127.993V23.5205H129.687Z" fill="#182F59"/>
</g>
</svg>
