<svg width="114" height="32" viewBox="0 0 114 32" fill="none" xmlns="http://www.w3.org/2000/svg">
<g id="Vector">
<path d="M38.7606 8.00889L38.8317 7.24072C38.8424 7.1447 38.8815 7.07357 38.9491 7.02378C39.0167 6.97399 39.1234 6.94199 39.2621 6.9242C39.4043 6.90998 39.5857 6.89931 39.8097 6.89931H40.2649V11.3803C40.2649 11.4941 40.2009 11.5723 40.0765 11.6079C39.952 11.6435 39.792 11.6613 39.5963 11.6613H39.4719V12.0311H41.7871V11.6613H41.6626C41.4705 11.6613 41.3105 11.6435 41.1825 11.6079C41.058 11.5723 40.994 11.4941 40.994 11.3803V6.89931H41.4492C41.6733 6.89931 41.8582 6.90642 41.9969 6.9242C42.1391 6.93843 42.2458 6.97399 42.3134 7.02378C42.3845 7.07357 42.4201 7.1447 42.4272 7.24072L42.4983 8.00889H42.9393V6.46188H38.3161V8.00889H38.7606Z" fill="#182F59"/>
<path d="M47.0291 9.23227C46.9509 8.95132 46.8371 8.7166 46.6877 8.52812C46.5383 8.34319 46.357 8.20093 46.14 8.10847C45.9231 8.016 45.6706 7.96621 45.3825 7.96621C45.0304 7.96621 44.7139 8.05512 44.4294 8.23294C44.1449 8.41076 43.9173 8.65615 43.7502 8.96555C43.583 9.27851 43.4977 9.64125 43.4977 10.0538C43.4977 10.4663 43.5866 10.8362 43.7644 11.1456C43.9422 11.455 44.184 11.6933 44.4899 11.8604C44.7957 12.0276 45.1407 12.1129 45.5212 12.1129C45.7951 12.1129 46.0298 12.0738 46.2325 11.992C46.4352 11.9102 46.6095 11.8 46.7553 11.6577C46.9011 11.5154 47.0256 11.3625 47.1251 11.1954L46.7553 10.8646C46.6806 10.9856 46.5917 11.1065 46.485 11.2309C46.3783 11.3554 46.2467 11.4585 46.0938 11.5403C45.9409 11.6257 45.7559 11.6648 45.539 11.6648C45.3505 11.6648 45.1763 11.6293 45.0127 11.5581C44.8491 11.487 44.7104 11.3839 44.5895 11.2487C44.4685 11.1136 44.3761 10.9464 44.3121 10.7473C44.2587 10.5908 44.2338 10.413 44.2232 10.2209H47.15C47.15 9.84396 47.1109 9.51322 47.0327 9.23227H47.0291ZM44.5539 8.85886C44.6606 8.7166 44.7851 8.60636 44.9273 8.52812C45.0696 8.45343 45.2189 8.41431 45.3825 8.41431C45.5568 8.41431 45.7026 8.44632 45.8306 8.50678C45.9551 8.57079 46.0618 8.66326 46.1436 8.78773C46.2289 8.9122 46.2894 9.07224 46.3321 9.26784C46.3641 9.4172 46.3819 9.59146 46.3925 9.77639H44.2303C44.2445 9.63414 44.2658 9.499 44.3014 9.37453C44.3619 9.17181 44.4436 8.99755 44.5539 8.85174V8.85886Z" fill="#182F59"/>
<path d="M51.3607 11.2025C51.2434 11.3341 51.1011 11.4443 50.934 11.5332C50.7668 11.6221 50.5641 11.6684 50.3294 11.6684C50.116 11.6684 49.924 11.6293 49.7568 11.551C49.5897 11.4728 49.4474 11.3625 49.3336 11.2167C49.2198 11.0745 49.1309 10.9002 49.0705 10.701C49.01 10.5019 48.9815 10.2814 48.9815 10.0431C48.9815 9.73016 49.0349 9.44921 49.138 9.20382C49.2412 8.95843 49.4012 8.76639 49.6075 8.6277C49.8173 8.489 50.0769 8.42143 50.3827 8.42143C50.6459 8.42143 50.8877 8.48188 51.1118 8.59924C51.158 8.62414 51.1972 8.64903 51.2363 8.67393V9.46699H51.9262V8.49255C51.8586 8.42498 51.7519 8.3503 51.6097 8.27206C51.4674 8.19382 51.2896 8.12269 51.0833 8.06579C50.8771 8.00533 50.6424 7.97688 50.3792 7.97688C49.956 7.97688 49.5826 8.06579 49.2625 8.24005C48.9389 8.41431 48.6899 8.65615 48.5086 8.96555C48.3272 9.27495 48.2383 9.63414 48.2383 10.0502C48.2383 10.4663 48.3236 10.8113 48.4943 11.1207C48.665 11.4337 48.9069 11.6755 49.2163 11.8533C49.5292 12.0311 49.8884 12.12 50.3045 12.12C50.5926 12.12 50.8415 12.0774 51.0549 11.992C51.2683 11.9066 51.4497 11.7893 51.6026 11.6435C51.7555 11.4977 51.8906 11.3376 52.008 11.1634L51.663 10.8326C51.5777 10.9535 51.4781 11.078 51.3607 11.2096V11.2025Z" fill="#182F59"/>
<path d="M57.2038 11.6577C57.1042 11.6435 57.026 11.615 56.9727 11.5723C56.9158 11.5297 56.8909 11.4728 56.8909 11.3981V9.23227C56.8909 8.94065 56.8375 8.69882 56.7344 8.51389C56.6312 8.32896 56.4819 8.19026 56.2934 8.10135C56.1049 8.01245 55.8844 7.96621 55.6355 7.96621C55.4328 7.96621 55.2478 7.99822 55.0807 8.06224C54.9171 8.12625 54.7606 8.21871 54.6184 8.34319C54.5188 8.42854 54.4228 8.53879 54.3232 8.65615V6.26272H52.9575V6.62547L53.0429 6.6397C53.178 6.66104 53.2883 6.68237 53.3736 6.71082C53.4554 6.73572 53.5194 6.77128 53.5621 6.81396C53.6048 6.85663 53.6261 6.91709 53.6261 6.99533V11.3981C53.6261 11.4728 53.5977 11.5297 53.5408 11.5723C53.4839 11.615 53.4056 11.6435 53.3096 11.6577C53.2136 11.6719 53.1034 11.6826 52.9753 11.6826H52.9611V12.0347H54.9171V11.6826H54.8922C54.8175 11.6826 54.7393 11.6826 54.6504 11.6755C54.5615 11.6719 54.4868 11.6613 54.4228 11.647C54.3587 11.6328 54.3303 11.6186 54.3303 11.6044V9.17537C54.4156 9.06157 54.501 8.95843 54.5899 8.86953C54.725 8.73438 54.8709 8.63481 55.0309 8.56724C55.1909 8.49967 55.3545 8.4641 55.5323 8.4641C55.6995 8.4641 55.8311 8.49255 55.9271 8.55301C56.0231 8.61347 56.0942 8.70593 56.1334 8.83041C56.176 8.95488 56.1974 9.11847 56.1974 9.31763V11.6008C56.1974 11.6008 56.1654 11.6292 56.0978 11.6435C56.0338 11.6577 55.9555 11.6648 55.8666 11.6719C55.7777 11.6755 55.6959 11.679 55.6248 11.679H55.6106V12.0311H57.5559V11.679H57.5417C57.4208 11.679 57.3105 11.6719 57.2109 11.6541L57.2038 11.6577Z" fill="#182F59"/>
<path d="M58.4734 6.83174H58.5588C58.7508 6.83174 58.9109 6.84952 59.0389 6.88508C59.1634 6.92065 59.2274 6.99889 59.2274 7.11269V11.3839C59.2274 11.4977 59.1634 11.5759 59.0389 11.6115C58.9144 11.647 58.7544 11.6648 58.5588 11.6648H58.4734V12.0347H60.8277V11.6648H60.6926C60.6072 11.6648 60.5219 11.6648 60.433 11.6577C60.3441 11.6541 60.2623 11.6435 60.1912 11.6257C60.1165 11.6115 60.0596 11.583 60.0133 11.5439C59.9671 11.5048 59.9458 11.4514 59.9458 11.3839V9.45277C60.1022 9.45632 60.2587 9.45988 60.4116 9.46699C60.6464 9.4741 60.8775 9.48122 61.1087 9.49189C61.3398 9.499 61.5746 9.50967 61.8022 9.52034V8.97266C61.571 8.97622 61.3398 8.98333 61.1087 8.994C60.874 9.00111 60.6428 9.00822 60.4116 9.01534C60.2552 9.01534 60.1022 9.026 59.9458 9.02956V6.93487H60.9984C61.2225 6.93487 61.4074 6.94199 61.5461 6.95977C61.6884 6.97399 61.7915 7.00956 61.8591 7.05935C61.9266 7.10914 61.9658 7.18026 61.9764 7.27628L62.0476 7.984H62.4886V6.47611H58.4699V6.84597L58.4734 6.83174Z" fill="#182F59"/>
<path d="M66.7526 8.54945C66.5677 8.36808 66.3507 8.22227 66.1018 8.12269C65.8529 8.01956 65.579 7.96977 65.2803 7.96977C64.9815 7.96977 64.7077 8.01956 64.4588 8.12269C64.2098 8.22583 63.9929 8.36808 63.808 8.54945C63.623 8.73438 63.4808 8.95132 63.3812 9.20382C63.2816 9.45632 63.2318 9.73727 63.2318 10.0396C63.2318 10.4414 63.3207 10.8006 63.495 11.1136C63.6693 11.4265 63.9111 11.6719 64.2205 11.8462C64.5299 12.0204 64.882 12.1094 65.2803 12.1094C65.6786 12.1094 66.0307 12.0204 66.3401 11.8462C66.6495 11.6719 66.8913 11.4265 67.0656 11.1136C67.2398 10.8006 67.3287 10.4414 67.3287 10.0396C67.3287 9.73727 67.2789 9.45632 67.1794 9.20382C67.0798 8.95132 66.9375 8.73083 66.7526 8.54945ZM66.429 10.8966C66.3223 11.142 66.1729 11.3341 65.9773 11.4657C65.7853 11.6008 65.5506 11.6648 65.2803 11.6648C65.01 11.6648 64.7824 11.5972 64.5868 11.4657C64.3912 11.3341 64.2383 11.142 64.1316 10.8966C64.0249 10.6513 63.9715 10.3667 63.9715 10.0396C63.9715 9.71238 64.0249 9.42432 64.1316 9.17893C64.2383 8.93354 64.3912 8.74861 64.5868 8.61347C64.7824 8.47833 65.0135 8.41431 65.2803 8.41431C65.547 8.41431 65.7853 8.48188 65.9773 8.61347C66.1694 8.74861 66.3223 8.9371 66.429 9.17893C66.5357 9.42076 66.589 9.70882 66.589 10.0396C66.589 10.3703 66.5357 10.6477 66.429 10.8966Z" fill="#182F59"/>
<path d="M70.8602 7.96977C70.6575 7.96977 70.4761 8.016 70.3161 8.11202C70.156 8.20449 70.0173 8.33607 69.9 8.49967C69.8111 8.62414 69.7364 8.7735 69.6688 8.92998V8.04801H68.3814V8.41076L68.4597 8.42498C68.5912 8.44988 68.6979 8.47833 68.7868 8.50322C68.8722 8.52812 68.9362 8.56368 68.9789 8.6028C69.0216 8.64192 69.0429 8.70238 69.0429 8.78062V11.4016C69.0429 11.5154 68.9824 11.5937 68.8615 11.6293C68.7406 11.6648 68.5877 11.6826 68.3992 11.6826H68.385V12.0347H70.5188V11.6826H70.3836C70.309 11.6826 70.2236 11.679 70.1205 11.6684C70.0173 11.6577 69.9284 11.6328 69.8537 11.5937C69.7791 11.5546 69.7399 11.4941 69.7399 11.4088V9.32474C69.7684 9.26784 69.7968 9.21094 69.8253 9.1647C69.8929 9.04379 69.9675 8.94421 70.0493 8.86597C70.1311 8.78773 70.2236 8.72727 70.3267 8.68815C70.4299 8.64903 70.5543 8.6277 70.6966 8.6277C70.7428 8.6277 70.7926 8.62769 70.846 8.63481C70.8993 8.64192 70.9491 8.64548 70.9989 8.65615C71.0487 8.66326 71.0913 8.67748 71.1269 8.69171V7.99467C71.102 7.984 71.0629 7.97688 71.0131 7.97333C70.9633 7.97333 70.9135 7.96977 70.8602 7.96977Z" fill="#182F59"/>
<path d="M73.5488 11.6257C73.4243 11.5901 73.3639 11.5119 73.3639 11.3981V8.04801H71.9982V8.41076L72.0836 8.42498C72.2827 8.46055 72.4285 8.49967 72.5246 8.54234C72.617 8.58502 72.6668 8.66326 72.6668 8.77706V11.3981C72.6668 11.5119 72.6064 11.5901 72.4819 11.6257C72.3574 11.6613 72.2045 11.679 72.016 11.679H72.0089V12.0311H74.0253V11.679H74.0182C73.8297 11.679 73.6733 11.6613 73.5523 11.6257H73.5488Z" fill="#182F59"/>
<path d="M72.9798 7.17671C73.1149 7.17671 73.2287 7.13403 73.3212 7.04868C73.4136 6.96332 73.4599 6.84597 73.4599 6.70016C73.4599 6.55435 73.4136 6.43699 73.3212 6.35519C73.2287 6.27339 73.1149 6.23072 72.9798 6.23072C72.8446 6.23072 72.7308 6.27339 72.6384 6.35519C72.5459 6.44054 72.4997 6.55435 72.4997 6.70016C72.4997 6.84597 72.5459 6.96332 72.6384 7.04868C72.7308 7.13403 72.8446 7.17671 72.9798 7.17671Z" fill="#182F59"/>
<path d="M79.1287 11.6577C79.0327 11.6435 78.9544 11.615 78.9011 11.5723C78.8477 11.5297 78.8193 11.4728 78.8193 11.3981V9.23227C78.8193 8.94065 78.7659 8.69882 78.6628 8.51389C78.5597 8.32896 78.4139 8.19026 78.2254 8.10135C78.0405 8.01245 77.82 7.96621 77.571 7.96621C77.3683 7.96621 77.1798 7.99822 77.0127 8.06224C76.8455 8.12625 76.689 8.22227 76.5468 8.3503C76.4259 8.46055 76.3014 8.59924 76.1805 8.75572V8.04801H74.8931V8.41076L74.9713 8.42498C75.1029 8.44988 75.2096 8.47833 75.2985 8.50322C75.3839 8.52812 75.4479 8.56368 75.4905 8.6028C75.5332 8.64192 75.5546 8.70238 75.5546 8.78062V11.4016C75.5546 11.4763 75.5261 11.5332 75.4728 11.5759C75.4194 11.6186 75.3412 11.647 75.2452 11.6613C75.1491 11.6755 75.0389 11.6862 74.9109 11.6862H74.8966V12.0382H76.842V11.6862H76.8171C76.7424 11.6862 76.6641 11.6862 76.5752 11.679C76.4863 11.6719 76.4116 11.6648 76.3476 11.6506C76.2836 11.6364 76.2552 11.6221 76.2552 11.6079V9.18248C76.3405 9.06868 76.4259 8.96199 76.5183 8.87308C76.657 8.73794 76.8064 8.63836 76.9629 8.57079C77.1194 8.50322 77.2829 8.46766 77.4572 8.46766C77.6315 8.46766 77.7559 8.49611 77.8555 8.55657C77.9515 8.61703 78.0227 8.70949 78.0618 8.83396C78.1045 8.95844 78.1258 9.12203 78.1258 9.32118V11.6044C78.1258 11.6044 78.0938 11.6328 78.0262 11.647C77.9622 11.6613 77.884 11.6684 77.7951 11.6755C77.7062 11.6826 77.6244 11.6826 77.5532 11.6826H77.539V12.0347H79.4843V11.6826H79.4701C79.3456 11.6826 79.2318 11.6755 79.1358 11.6577H79.1287Z" fill="#182F59"/>
<path d="M84.4703 8.60636V7.88442C84.3245 7.87019 84.1858 7.87375 84.0542 7.89509C83.9226 7.91998 83.8017 7.96621 83.6844 8.03378C83.5706 8.10136 83.4639 8.19026 83.3679 8.29695C83.3465 8.32185 83.3287 8.3503 83.3074 8.37519C83.2149 8.28984 83.1082 8.21871 82.9909 8.15826C82.7526 8.03378 82.4823 7.97333 82.18 7.97333C81.8777 7.97333 81.6146 8.03378 81.3763 8.15826C81.138 8.28273 80.9495 8.44988 80.8108 8.66681C80.6721 8.88375 80.6046 9.13625 80.6046 9.42432C80.6046 9.71238 80.6721 9.96488 80.8073 10.1783C80.9033 10.3312 81.0349 10.4485 81.1843 10.5552C81.0527 10.6228 80.9318 10.6975 80.8393 10.7722C80.7148 10.8753 80.6188 10.9784 80.5583 11.0887C80.4943 11.1989 80.4659 11.3163 80.4659 11.4408C80.4659 11.5403 80.4872 11.6328 80.5263 11.7217C80.5655 11.8106 80.633 11.896 80.7326 11.9778C80.7682 12.0062 80.8108 12.0347 80.8535 12.0631C80.7539 12.1165 80.665 12.1698 80.5903 12.2196C80.4588 12.3121 80.3627 12.4081 80.2952 12.5148C80.2312 12.6179 80.1956 12.7353 80.1956 12.8597C80.1956 13.1122 80.2774 13.3114 80.4445 13.4643C80.6081 13.6172 80.8322 13.7239 81.1167 13.7915C81.4012 13.8591 81.7142 13.8911 82.0662 13.8911H82.3578C82.717 13.8911 83.0513 13.8413 83.3572 13.7453C83.663 13.6493 83.9084 13.4999 84.0969 13.2972C84.2818 13.0945 84.3743 12.842 84.3743 12.5326C84.3743 12.3121 84.321 12.1307 84.2107 11.9884C84.1005 11.8462 83.9404 11.7359 83.7271 11.6684C83.5137 11.5972 83.2541 11.5617 82.9375 11.5617H81.7604C81.5506 11.5617 81.3905 11.5368 81.2767 11.487C81.1629 11.4372 81.1096 11.359 81.1096 11.2487C81.1096 11.174 81.1309 11.1065 81.17 11.046C81.2092 10.982 81.2696 10.9215 81.3479 10.8646C81.4012 10.8255 81.4723 10.7864 81.5399 10.7508C81.7355 10.822 81.9524 10.8575 82.1871 10.8575C82.4894 10.8575 82.7597 10.7971 82.998 10.6797C83.2363 10.5623 83.4248 10.3952 83.5635 10.1818C83.7021 9.96844 83.7697 9.71594 83.7697 9.42787C83.7697 9.13981 83.6986 8.88731 83.5635 8.67037C83.5528 8.65259 83.535 8.63836 83.5208 8.62058C83.6239 8.59569 83.7413 8.58146 83.8906 8.58146C84.0542 8.58146 84.2498 8.59213 84.481 8.61347L84.4703 8.60636ZM82.9162 12.2338C83.2256 12.2338 83.4354 12.2658 83.5492 12.3334C83.663 12.3974 83.7164 12.5077 83.7164 12.6606C83.7164 12.8135 83.6559 12.938 83.5386 13.0518C83.4212 13.1656 83.2576 13.2581 83.0513 13.3221C82.8451 13.3861 82.6068 13.4216 82.3401 13.4216H82.0662C81.7782 13.4216 81.5434 13.3968 81.355 13.3505C81.17 13.3043 81.0313 13.2367 80.9424 13.1514C80.8535 13.066 80.8073 12.9593 80.8073 12.8349C80.8073 12.7459 80.8286 12.6606 80.8677 12.5824C80.9069 12.5041 80.9673 12.4294 81.0527 12.3547C81.0989 12.3121 81.1558 12.2765 81.2163 12.2374H82.9126L82.9162 12.2338ZM82.9624 9.95421C82.8877 10.1 82.7846 10.2067 82.653 10.285C82.5214 10.3632 82.3614 10.3988 82.18 10.3988C81.9987 10.3988 81.8457 10.3596 81.7142 10.285C81.5826 10.2103 81.4759 10.1 81.4048 9.95421C81.3301 9.81196 81.2945 9.63414 81.2945 9.42432C81.2945 9.21449 81.3301 9.03667 81.4048 8.88731C81.4794 8.73794 81.5826 8.62414 81.7142 8.5459C81.8457 8.46766 82.0022 8.42854 82.18 8.42854C82.3578 8.42854 82.5214 8.46766 82.653 8.5459C82.7846 8.62414 82.8913 8.73794 82.9624 8.88731C83.0371 9.03667 83.0727 9.21449 83.0727 9.42432C83.0727 9.63414 83.0371 9.81196 82.9624 9.95421Z" fill="#182F59"/>
<path d="M43.2345 23.2941H48.4588V27.8604C48.1031 28.2267 47.7119 28.5468 47.2852 28.8135C46.8584 29.0838 46.4103 29.3078 45.9409 29.4892C45.4714 29.6706 44.9842 29.8022 44.4792 29.8875C43.9742 29.9729 43.4621 30.0156 42.9464 30.0156C41.9755 30.0156 41.1078 29.8662 40.3432 29.571C39.5786 29.2723 38.9313 28.8491 38.4014 28.2978C37.8715 27.7466 37.4661 27.078 37.1887 26.2956C36.9113 25.5132 36.7726 24.6384 36.7726 23.671C36.7726 22.7642 36.9255 21.932 37.2314 21.1674C37.5372 20.4028 37.964 19.7448 38.5152 19.1936C39.0665 18.6424 39.7208 18.212 40.4819 17.9026C41.2429 17.5932 42.0751 17.4403 42.982 17.4403C44.1911 17.4403 45.2367 17.6893 46.1116 18.18C46.9864 18.6744 47.6799 19.4852 48.1885 20.6126L45.9231 21.6048C45.635 20.9327 45.2652 20.4348 44.8206 20.1076C44.3761 19.7804 43.7964 19.6204 43.0851 19.6204C42.4521 19.6204 41.9186 19.7377 41.4848 19.976C41.0509 20.2107 40.6988 20.5272 40.425 20.9184C40.1511 21.3096 39.9555 21.7613 39.8382 22.2663C39.7173 22.7748 39.6604 23.3012 39.6604 23.8453C39.6604 24.3894 39.7244 24.9229 39.8489 25.4101C39.9733 25.8973 40.1725 26.3276 40.4499 26.6939C40.7237 27.0602 41.0829 27.3519 41.5239 27.5652C41.9649 27.7786 42.5019 27.8853 43.1349 27.8853C43.6221 27.8853 44.1165 27.8142 44.6144 27.6719C45.1122 27.5297 45.571 27.2985 45.9942 26.9749V25.2998H43.2452V23.2905L43.2345 23.2941Z" fill="#182F59"/>
<path d="M50.3258 17.6288H54.8673C55.4932 17.6288 56.0942 17.6893 56.6633 17.8137C57.2323 17.9347 57.7337 18.1445 58.164 18.4361C58.5943 18.7277 58.9358 19.1154 59.1918 19.599C59.4479 20.0827 59.5759 20.6837 59.5759 21.3985C59.5759 22.2414 59.359 22.9384 58.9251 23.4826C58.4912 24.0267 57.8724 24.4143 57.0687 24.6419L60.2943 29.8306H57.3603L54.437 25.122H53.0785V29.8306H50.3294V17.6288H50.3258ZM54.7073 23.2372C55.0202 23.2372 55.3047 23.2052 55.5679 23.1447C55.8311 23.0842 56.0622 22.9847 56.2543 22.846C56.4499 22.7073 56.5992 22.5223 56.7095 22.2947C56.8162 22.0671 56.8731 21.7862 56.8731 21.4519C56.8731 21.1034 56.8162 20.8188 56.6988 20.5984C56.5815 20.3779 56.425 20.2072 56.2223 20.0791C56.0231 19.9511 55.792 19.8657 55.5323 19.816C55.2727 19.7697 54.9953 19.7448 54.7073 19.7448H53.0749V23.2372H54.7073Z" fill="#182F59"/>
<path d="M67.3465 30.0156C66.4076 30.0156 65.5541 29.8626 64.7859 29.5532C64.0178 29.2438 63.3599 28.8135 62.8193 28.2552C62.2787 27.6968 61.8591 27.0282 61.5603 26.2458C61.2616 25.467 61.1158 24.6064 61.1158 23.6675C61.1158 22.7286 61.2758 21.9213 61.5924 21.1603C61.9089 20.3992 62.3463 19.7413 62.9046 19.19C63.463 18.6388 64.1245 18.2085 64.8926 17.8991C65.6608 17.5897 66.4966 17.4368 67.3999 17.4368C68.3032 17.4368 69.1923 17.5897 69.9604 17.8955C70.7286 18.2014 71.3901 18.6281 71.9378 19.1794C72.489 19.7306 72.9122 20.3885 73.218 21.1567C73.5203 21.9249 73.6733 22.7748 73.6733 23.703C73.6733 24.6313 73.5203 25.499 73.2109 26.2743C72.9015 27.0496 72.4712 27.7146 71.9164 28.2694C71.3616 28.8242 70.6966 29.2545 69.9213 29.5603C69.146 29.8662 68.2889 30.0191 67.3501 30.0191L67.3465 30.0156ZM67.4532 27.8071C68.0542 27.8071 68.5628 27.6897 68.986 27.4585C69.4092 27.2238 69.7542 26.918 70.0173 26.5339C70.2841 26.1498 70.4797 25.7124 70.6006 25.2216C70.7215 24.7308 70.7855 24.2258 70.7855 23.7102C70.7855 23.1589 70.7179 22.6397 70.5828 22.1454C70.4476 21.651 70.2378 21.2172 69.9533 20.8402C69.6688 20.4668 69.3132 20.168 68.8793 19.9475C68.4454 19.727 67.9333 19.6168 67.3394 19.6168C66.7455 19.6168 66.2192 19.7306 65.7924 19.9582C65.3656 20.1858 65.0207 20.4917 64.7539 20.8757C64.4872 21.2598 64.2952 21.7008 64.1743 22.2058C64.0533 22.7108 63.9964 23.2336 63.9964 23.7848C63.9964 24.3361 64.0676 24.8126 64.2134 25.2963C64.3592 25.7835 64.5726 26.2103 64.8606 26.5837C65.1487 26.9571 65.5079 27.2523 65.9382 27.4763C66.3721 27.6968 66.8771 27.8106 67.4532 27.8106V27.8071Z" fill="#182F59"/>
<path d="M74.3703 17.6288H77.1691L79.2532 26.0502L81.5043 17.6288H83.8622L86.1952 26.1107L88.3432 17.6288H90.9073L87.7671 29.8271H84.9504L82.5748 21.395L80.1671 29.8271H77.5106L74.3703 17.6288Z" fill="#182F59"/>
<path d="M94.9224 19.7768H91.6221V17.6288H100.993V19.7768H97.6928V29.8235H94.9189V19.7768H94.9224Z" fill="#182F59"/>
<path d="M102.586 17.6288H105.353V22.6112H110.417V17.6288H113.184V29.8271H110.417V24.7948H105.353V29.8271H102.586V17.6288Z" fill="#182F59"/>
<path d="M32.4588 13.788C31.9111 13.3612 31.0931 13.226 30.8086 12.5148C30.2574 11.2843 30.0938 9.9222 29.82 8.61347C29.5532 8.65615 29.2829 8.70593 29.0162 8.75928C29.162 7.75995 29.6493 6.53656 28.8455 5.69015C27.7893 4.34941 26.6441 3.0798 25.4954 1.81018C25.0722 1.32296 24.5139 0.956657 23.8986 0.753945C24.3787 2.00222 25.3105 3.01578 25.9258 4.19649C24.7877 4.46321 23.4541 4.39564 22.5081 3.65592C23.1696 3.59191 23.8133 3.79818 24.4819 3.81952C24.4819 3.51723 24.3183 3.24339 24.0551 3.10825C22.7535 2.4361 21.3594 1.96666 19.9724 1.50433C19.2114 1.27673 18.7384 0.625917 18.3152 0C18.621 1.05623 18.9198 2.11958 19.2078 3.17226C18.7206 2.62103 18.4325 1.90976 17.9026 1.39764C17.8422 1.34074 17.7604 1.30162 17.675 1.2874C16.7148 1.14159 16.2845 1.10958 14.5988 1.29095C10.445 1.77462 6.47255 3.96533 3.97955 7.34385C2.85574 8.79484 2.03778 10.4699 1.515 12.2232C1.14158 13.4679 0.846407 14.7588 0.817957 16.064C0.789506 17.6608 0.99933 19.5315 1.54701 20.7477C1.515 19.6453 1.52567 18.902 1.63236 17.7391C1.77817 16.1814 2.16226 14.6557 2.80595 13.2332C3.74127 11.1776 5.17092 9.34963 7.02734 8.05868C5.14247 9.81551 3.78039 12.0916 3.03712 14.5526C2.42542 16.729 2.36852 19.0549 2.75972 21.2776C2.7775 21.3665 2.79173 21.459 2.80951 21.5479H3.31807V17.4225H7.02022C7.05934 16.5299 7.21227 15.6408 7.47188 14.7908C8.94421 10.1711 14.1685 6.9242 18.9553 8.12981C19.4425 8.28629 19.8444 7.94488 20.2036 7.66748C20.1396 8.24361 19.9049 8.88731 20.2214 9.42432C20.5379 9.78351 20.9967 9.97199 21.4341 10.1427C22.3587 10.4806 23.2194 10.9642 24.0053 11.5439C23.6461 11.4906 23.2798 11.4514 22.9206 11.4337C23.6141 12.6108 24.5957 13.5781 25.4136 14.6628C25.9258 14.1329 26.3561 13.5283 26.9073 13.034C26.2565 14.2823 25.6128 15.5377 24.8909 16.7504C24.6099 17.3087 23.9733 17.483 23.4683 17.7639C23.9555 17.8529 24.5708 18.02 24.9513 17.5861C25.5168 16.9744 25.6235 15.968 26.4699 15.6052C27.5688 15.1536 28.7033 15.936 29.8164 15.6799C30.549 15.4417 30.8335 14.5526 31.5839 14.3463C32.192 14.5561 32.7042 15.1465 32.6686 15.808C32.5548 16.5726 31.8933 17.0669 31.5306 17.7142C32.3414 17.4048 32.9282 16.7184 33.2661 15.9431C33.4652 15.1038 32.9922 14.3712 32.4552 13.7773L32.4588 13.788ZM23.7173 7.23361C24.5957 7.85952 25.5452 8.42143 26.2707 9.23227C25.0331 9.39942 23.9413 8.4072 23.7173 7.23361Z" fill="#182F59"/>
<path d="M7.3403 21.4874H4.2036V18.3045H6.84241C6.89931 19.2505 7.22294 20.8935 7.3403 21.4874Z" fill="#5BBC2E"/>
<path d="M6.76417 22.4334H2.54278V26.6548H6.76417V22.4334Z" fill="#DB162F"/>
<path d="M11.5012 25.3745H7.74572V29.1265H11.5012V25.3745Z" fill="#4285F4"/>
<path d="M9.47055 22.7037H7.74572V24.4285H9.47055V22.7037Z" fill="#F5BB00"/>
<path d="M6.76417 27.6008H4.55568V29.8128H6.76417V27.6008Z" fill="#4285F4"/>
<path d="M11.5012 30.0725H10.7686V30.8015H11.5012V30.0725Z" fill="#5BBC2E"/>
<path d="M13.3078 26.3916H12.4437V27.2558H13.3078V26.3916Z" fill="#DB162F"/>
<path d="M14.5703 26.9429H14.2538V27.2594H14.5703V26.9429Z" fill="#182F59"/>
<path d="M21.1034 30.7588H20.6553V31.2069H21.1034V30.7588Z" fill="#DB162F"/>
<path d="M24.7095 28.3832H23.9804V29.1087H24.7095V28.3832Z" fill="#F5BB00"/>
<path d="M23.0344 26.1391H22.6824V26.4877H23.0344V26.1391Z" fill="#4285F4"/>
<path d="M24.866 24.8802H24.713V25.0331H24.866V24.8802Z" fill="#182F59"/>
<path d="M17.2234 31.6799H17.1451V31.7546H17.2234V31.6799Z" fill="#182F59"/>
<path d="M18.4894 31.6799H18.1694V32H18.4894V31.6799Z" fill="#4285F4"/>
<path d="M26.1711 23.9911H26.0929V24.0693H26.1711V23.9911Z" fill="#F5BB00"/>
<path d="M9.74794 30.0725H8.43209V31.3883H9.74794V30.0725Z" fill="#F5BB00"/>
<path d="M16.1992 28.2018H12.4437V31.9573H16.1992V28.2018Z" fill="#F5BB00"/>
<path d="M19.6773 28.2018H17.1451V30.7339H19.6773V28.2018Z" fill="#182F59"/>
<path d="M23.0344 27.4301H20.6517V29.8128H23.0344V27.4301Z" fill="#5BBC2E"/>
<path d="M25.0793 26.3454H23.9804V27.4443H25.0793V26.3454Z" fill="#182F59"/>
<path d="M26.3276 25.1327H25.9435V25.5132H26.3276V25.1327Z" fill="#DB162F"/>
</g>
</svg>
