<svg width="92" height="32" viewBox="0 0 92 32" fill="none" xmlns="http://www.w3.org/2000/svg">
<g id="Vector">
<path d="M33.6151 7.97066H34.021L34.0857 7.25217C34.0888 7.21312 34.1004 7.17521 34.1196 7.14108C34.1388 7.10696 34.1653 7.07744 34.1971 7.05458C34.2835 7.00026 34.3825 6.96931 34.4845 6.96477C34.6528 6.9488 34.8219 6.9416 34.991 6.94321H35.4113V11.0853C35.4128 11.1351 35.3961 11.1837 35.3644 11.222C35.3327 11.2604 35.2881 11.2859 35.2389 11.2937C35.0945 11.3302 34.9459 11.3471 34.797 11.344H34.6821V11.6853H36.816V11.344H36.701C36.5522 11.3469 36.4036 11.33 36.2592 11.2937C36.21 11.2859 36.1654 11.2604 36.1336 11.222C36.1019 11.1837 36.0852 11.1351 36.0867 11.0853V6.9504H36.507C36.6761 6.94861 36.8452 6.9558 37.0136 6.97195C37.1175 6.97787 37.2186 7.00867 37.3082 7.06177C37.3396 7.08445 37.3653 7.11408 37.3834 7.14836C37.4015 7.18263 37.4114 7.22062 37.4123 7.25935L37.477 7.97785H37.8937V6.54086H33.6151V7.97066Z" fill="#182F59"/>
<path d="M41.6555 9.09503C41.5958 8.85997 41.4882 8.6398 41.3393 8.44838C41.206 8.27834 41.0317 8.14485 40.8328 8.0604C40.6117 7.97018 40.3745 7.92617 40.1358 7.93107C39.8253 7.92799 39.5202 8.01267 39.2557 8.17535C38.9842 8.3397 38.762 8.57427 38.6126 8.85433C38.4535 9.16397 38.3744 9.50857 38.3827 9.85663C38.3747 10.2075 38.4589 10.5544 38.627 10.8625C38.7938 11.1456 39.0381 11.3749 39.3311 11.5235C39.6236 11.6802 39.9514 11.7593 40.2831 11.7535C40.5062 11.7592 40.7283 11.7213 40.937 11.6421C41.116 11.5715 41.2796 11.4665 41.4184 11.3331C41.5519 11.2076 41.6668 11.0637 41.7596 10.9056L41.4184 10.6039C41.3455 10.7221 41.2625 10.8339 41.1705 10.938C41.0686 11.0542 40.947 11.1515 40.8112 11.2254C40.6532 11.305 40.478 11.3445 40.3011 11.3403C40.1345 11.3415 39.9694 11.3085 39.8161 11.2433C39.6657 11.178 39.5319 11.0798 39.4245 10.9559C39.3076 10.8213 39.2207 10.6633 39.1695 10.4925C39.1202 10.3353 39.0924 10.1722 39.0868 10.0075H41.7848C41.7826 9.69894 41.7391 9.39205 41.6555 9.09503ZM39.3706 8.75374C39.465 8.62539 39.588 8.52083 39.7299 8.44838C39.8586 8.37786 40.0034 8.34196 40.1502 8.3442C40.2927 8.34105 40.434 8.37054 40.5633 8.43042C40.681 8.48876 40.7804 8.57822 40.8507 8.68908C40.9359 8.82437 40.9956 8.97414 41.0268 9.13095C41.0556 9.28638 41.0736 9.44363 41.0807 9.60156H39.0868C39.0985 9.48024 39.1201 9.36009 39.1515 9.24232C39.1939 9.06738 39.2682 8.90176 39.3706 8.75374Z" fill="#182F59"/>
<path d="M45.6506 10.9131C45.5382 11.0377 45.4043 11.1411 45.2554 11.2184C45.0827 11.3045 44.8914 11.3465 44.6986 11.3406C44.5168 11.3438 44.3365 11.307 44.1705 11.2328C44.0176 11.1618 43.8835 11.056 43.7789 10.9238C43.6681 10.7827 43.5852 10.6218 43.5346 10.4496C43.4783 10.2522 43.4505 10.0478 43.452 9.8425C43.4466 9.57676 43.4955 9.31272 43.5957 9.06653C43.6846 8.85007 43.8359 8.66498 44.0304 8.53484C44.2453 8.40062 44.4957 8.33427 44.7489 8.34444C44.9826 8.34289 45.2132 8.39838 45.4207 8.5061L45.5392 8.57436V9.29285H46.1751V8.4091C46.087 8.32738 45.9878 8.25845 45.8805 8.20433C45.7262 8.12343 45.5636 8.05958 45.3955 8.01393C45.1851 7.95503 44.9673 7.92719 44.7489 7.93131C44.3903 7.92271 44.0355 8.00554 43.7178 8.172C43.4267 8.32561 43.1851 8.55853 43.0209 8.84379C42.8504 9.14851 42.7648 9.49341 42.773 9.8425C42.7654 10.1863 42.8458 10.5264 43.0065 10.8304C43.1628 11.1098 43.3926 11.3409 43.6711 11.4986C43.9794 11.6662 44.3262 11.7505 44.677 11.7429C44.9124 11.7484 45.1467 11.7081 45.3668 11.6244C45.5553 11.5511 45.7275 11.4412 45.8733 11.301C46.0101 11.1684 46.1307 11.0201 46.2326 10.8592L45.9128 10.5538C45.834 10.6796 45.7463 10.7996 45.6506 10.9131Z" fill="#182F59"/>
<path d="M51.0447 11.3354C50.9674 11.3277 50.8932 11.3005 50.8292 11.2564C50.8051 11.2378 50.7857 11.2138 50.7726 11.1863C50.7595 11.1589 50.753 11.1287 50.7537 11.0983V9.09728C50.7616 8.86842 50.7122 8.64121 50.61 8.43627C50.5181 8.26985 50.376 8.13662 50.2041 8.05547C50.0121 7.96991 49.8035 7.92819 49.5934 7.93332C49.256 7.92654 48.9281 8.04564 48.6737 8.26742C48.5768 8.35764 48.4868 8.4549 48.4043 8.55841V6.35982H47.1433V6.69392H47.2224C47.3257 6.70718 47.4278 6.7288 47.5277 6.75858C47.591 6.77756 47.6497 6.80935 47.7001 6.85199C47.7205 6.87489 47.7361 6.90162 47.7459 6.93061C47.7558 6.95961 47.7598 6.99028 47.7576 7.02084V11.0983C47.7585 11.1291 47.7518 11.1597 47.738 11.1873C47.7242 11.2148 47.7038 11.2386 47.6786 11.2564C47.6154 11.2994 47.5426 11.3265 47.4666 11.3354C47.3644 11.3506 47.2611 11.3578 47.1577 11.3569V11.6839H48.9539V11.3569H48.9324C48.8641 11.3569 48.7887 11.3569 48.706 11.3569C48.6361 11.3537 48.5664 11.3452 48.4977 11.3318C48.4402 11.3318 48.4115 11.3067 48.4115 11.2923V9.0434C48.482 8.94315 48.5614 8.84938 48.6486 8.76318C48.7582 8.64675 48.8886 8.55173 49.033 8.48297C49.179 8.41903 49.337 8.38718 49.4964 8.38957C49.6215 8.38326 49.7459 8.41187 49.8556 8.47219C49.9488 8.53035 50.0168 8.62138 50.046 8.72726C50.09 8.87277 50.1106 9.02434 50.1071 9.17632V11.2851C50.1071 11.2851 50.0748 11.3138 50.0137 11.3246C49.9437 11.3378 49.8729 11.3462 49.8017 11.3498C49.7191 11.3498 49.6437 11.3498 49.5754 11.3498V11.6767H51.3717V11.3569C51.2623 11.3591 51.1529 11.3519 51.0447 11.3354Z" fill="#182F59"/>
<path d="M52.2188 6.88099H52.2979C52.447 6.87706 52.5959 6.89521 52.7397 6.93487C52.7896 6.94192 52.835 6.96705 52.8675 7.00548C52.9 7.04391 52.9172 7.09295 52.9158 7.14324V11.095C52.9172 11.1452 52.9 11.1943 52.8675 11.2327C52.835 11.2711 52.7896 11.2963 52.7397 11.3033C52.5954 11.3398 52.4468 11.3567 52.2979 11.3536H52.2188V11.6949H54.3743V11.3536H54.2522C54.1731 11.3536 54.0941 11.3536 54.0115 11.3536C53.9365 11.3505 53.862 11.3409 53.7887 11.3249C53.7281 11.3143 53.6712 11.2883 53.6235 11.2494C53.6033 11.2308 53.5873 11.2079 53.5768 11.1825C53.5663 11.1571 53.5613 11.1296 53.5624 11.1021V9.3059H53.9935L54.6366 9.32746L55.2796 9.35261V8.85325L53.9935 8.88918H53.5624V6.9708H54.5324C54.7015 6.96901 54.8706 6.9762 55.0389 6.99235C55.142 6.99692 55.2422 7.02785 55.3299 7.08216C55.3612 7.10521 55.3871 7.13485 55.4057 7.16899C55.4244 7.20313 55.4353 7.24094 55.4377 7.27975L55.5023 7.93358H55.9083V6.54329H52.2188V6.88099Z" fill="#182F59"/>
<path d="M59.8539 8.46605C59.6812 8.29689 59.4775 8.16271 59.2539 8.07088C58.7659 7.88397 58.226 7.88397 57.7379 8.07088C57.5139 8.1618 57.31 8.2961 57.138 8.46605C56.9653 8.63718 56.8306 8.84284 56.7428 9.06958C56.6505 9.31653 56.6042 9.57832 56.6063 9.84196C56.5997 10.1877 56.6826 10.5293 56.847 10.8335C57.0045 11.1134 57.2372 11.3436 57.5188 11.4981C57.8203 11.6561 58.1556 11.7386 58.4959 11.7386C58.8363 11.7386 59.1716 11.6561 59.4731 11.4981C59.7551 11.3377 59.9875 11.1028 60.1449 10.8191C60.3076 10.5143 60.3904 10.1731 60.3856 9.82759C60.3877 9.56395 60.3414 9.30216 60.2491 9.05521C60.1595 8.83361 60.0249 8.63299 59.8539 8.46605ZM59.5557 10.6215C59.4705 10.833 59.3257 11.0152 59.139 11.146C58.9488 11.2722 58.7241 11.3362 58.4959 11.3292C58.268 11.3346 58.0438 11.2707 57.8529 11.146C57.6662 11.0152 57.5214 10.833 57.4362 10.6215C57.235 10.1126 57.235 9.5462 57.4362 9.03725C57.5225 8.82741 57.6671 8.64666 57.8529 8.51634C58.0438 8.39169 58.268 8.32781 58.4959 8.33313C58.7241 8.32619 58.9488 8.3902 59.139 8.51634C59.3248 8.64666 59.4694 8.82741 59.5557 9.03725C59.7568 9.5462 59.7568 10.1126 59.5557 10.6215Z" fill="#182F59"/>
<path d="M63.6451 7.93083C63.4689 7.92796 63.2952 7.97264 63.1422 8.06016C62.9893 8.15037 62.8581 8.273 62.7578 8.4194C62.673 8.54303 62.6019 8.67554 62.5458 8.81458V8.00268H61.3567V8.33678H61.4286C61.5306 8.35408 61.6314 8.37809 61.7303 8.40863C61.795 8.42501 61.8551 8.4557 61.9064 8.49844C61.9269 8.51976 61.9426 8.54521 61.9525 8.57308C61.9624 8.60095 61.9663 8.63062 61.9638 8.6601V11.0814C61.9656 11.1301 61.9499 11.1779 61.9196 11.2161C61.8894 11.2543 61.8464 11.2804 61.7986 11.2898C61.6594 11.3279 61.5153 11.3449 61.3711 11.3401V11.667H63.3398V11.3545H63.2176C63.1374 11.3591 63.0571 11.3591 62.9769 11.3545C62.8909 11.3468 62.8069 11.3237 62.729 11.2862C62.697 11.2714 62.67 11.2475 62.6515 11.2175C62.633 11.1874 62.6237 11.1526 62.6249 11.1173V9.17742L62.7039 9.03012C62.7598 8.92937 62.8286 8.83637 62.9087 8.7535C62.9828 8.68241 63.0709 8.62737 63.1673 8.59184C63.277 8.55397 63.3926 8.53573 63.5086 8.53796H63.7852C63.827 8.544 63.868 8.55485 63.9074 8.57029V7.95238C63.873 7.93938 63.8363 7.93328 63.7996 7.93442L63.6451 7.93083Z" fill="#182F59"/>
<path d="M66.1283 11.302C66.0792 11.2942 66.0345 11.2687 66.0028 11.2303C65.9711 11.192 65.9544 11.1434 65.9559 11.0936V8.00051H64.6949V8.33462H64.7776C64.9165 8.35511 65.0527 8.39126 65.1835 8.44239C65.2249 8.46027 65.2596 8.49069 65.2828 8.52936C65.306 8.56803 65.3165 8.613 65.3128 8.65794V11.0793C65.3143 11.129 65.2977 11.1776 65.2659 11.216C65.2342 11.2543 65.1896 11.2798 65.1404 11.2876C65.0001 11.3261 64.8547 11.3431 64.7093 11.3379V11.6648H66.5738V11.3523C66.4236 11.3589 66.2733 11.342 66.1283 11.302Z" fill="#182F59"/>
<path d="M65.595 7.18626C65.712 7.19015 65.8256 7.14752 65.9112 7.06771C65.992 6.98013 66.0368 6.86534 66.0368 6.74618C66.0368 6.62703 65.992 6.51224 65.9112 6.42466C65.8243 6.34747 65.7112 6.30635 65.595 6.3097C65.4799 6.30617 65.3679 6.34737 65.2825 6.42466C65.1993 6.51102 65.1528 6.62627 65.1528 6.74618C65.1528 6.8661 65.1993 6.98135 65.2825 7.06771C65.3242 7.10712 65.3733 7.13788 65.4269 7.15823C65.4805 7.17858 65.5377 7.1881 65.595 7.18626Z" fill="#182F59"/>
<path d="M71.2771 11.3332C71.201 11.3249 71.1281 11.2977 71.0651 11.2542C71.0411 11.2356 71.0217 11.2116 71.0086 11.1841C70.9955 11.1567 70.989 11.1265 70.9897 11.0961V9.09508C70.9993 8.86607 70.9498 8.63844 70.846 8.43407C70.7556 8.26776 70.6147 8.13443 70.4436 8.05327C70.2542 7.96772 70.0479 7.92597 69.8401 7.93112C69.665 7.92833 69.4909 7.95755 69.3264 8.01734C69.1677 8.07744 69.0216 8.16635 68.8953 8.27959C68.7727 8.38954 68.6598 8.50972 68.5576 8.63884V8.00297H67.3577V8.33707H67.4296C67.5316 8.35438 67.6324 8.37838 67.7313 8.40892C67.796 8.4253 67.8561 8.456 67.9074 8.49873C67.9285 8.51974 67.9449 8.54505 67.9555 8.57294C67.966 8.60082 67.9704 8.63065 67.9684 8.6604V11.0817C67.9693 11.1125 67.9626 11.1431 67.9488 11.1707C67.935 11.1983 67.9146 11.222 67.8894 11.2398C67.8278 11.2834 67.7561 11.3106 67.681 11.3188C67.5788 11.3342 67.4755 11.3414 67.3721 11.3404V11.6673H69.1683V11.3547H69.1539C69.0857 11.3547 69.0103 11.3547 68.9312 11.3547C68.8601 11.3514 68.7892 11.343 68.7193 11.3296C68.6618 11.3296 68.633 11.3045 68.633 11.2901V9.04479C68.7051 8.9425 68.7869 8.84746 68.8773 8.76098C68.9934 8.64233 69.1312 8.54719 69.2833 8.48077C69.4271 8.41794 69.5826 8.38611 69.7395 8.38737C69.8646 8.38107 69.989 8.40967 70.0988 8.46999C70.1919 8.52901 70.2608 8.61953 70.2928 8.72506C70.3338 8.87113 70.3531 9.02243 70.3502 9.17412V11.2829C70.3502 11.2829 70.3179 11.3116 70.2604 11.3224C70.1892 11.3356 70.1172 11.344 70.0449 11.3476C69.9623 11.3476 69.8868 11.3476 69.8222 11.3476V11.6745H71.6184V11.3547H71.6004C71.4922 11.3566 71.3841 11.3494 71.2771 11.3332Z" fill="#182F59"/>
<path d="M76.2057 8.51016V7.84556C76.0785 7.82378 75.9485 7.82378 75.8213 7.84556C75.7007 7.86582 75.585 7.90847 75.48 7.97129C75.37 8.03589 75.2707 8.11708 75.1854 8.21199L75.1316 8.28384C75.0435 8.20472 74.9457 8.13712 74.8406 8.08266C74.6071 7.96795 74.3498 7.91009 74.0897 7.91381C73.832 7.91054 73.5772 7.96841 73.3461 8.08266C73.1339 8.19074 72.9542 8.35312 72.8252 8.55327C72.6962 8.76382 72.6301 9.00691 72.6348 9.25381C72.6286 9.49814 72.6935 9.73903 72.8216 9.94715C72.9163 10.0896 73.0384 10.2117 73.1808 10.3064C73.0679 10.3614 72.9608 10.4276 72.8611 10.504C72.7584 10.5863 72.6708 10.686 72.6025 10.7986C72.5496 10.8861 72.519 10.9852 72.5134 11.0873C72.5077 11.1894 72.5272 11.2913 72.5701 11.3841C72.6134 11.4775 72.6787 11.5589 72.7605 11.6212L72.8719 11.7003C72.7889 11.7434 72.7085 11.7914 72.6312 11.844C72.5231 11.9161 72.4303 12.0089 72.3582 12.117C72.2978 12.2126 72.2666 12.3237 72.2684 12.4367C72.2636 12.5404 72.2814 12.6438 72.3205 12.74C72.3596 12.8361 72.419 12.9226 72.4947 12.9936C72.6693 13.143 72.8797 13.2446 73.1054 13.2882C73.393 13.3529 73.6872 13.3842 73.982 13.3816H74.2478C74.5608 13.3842 74.8723 13.3382 75.1711 13.245C75.4311 13.1699 75.6665 13.0274 75.8536 12.8319C76.03 12.6354 76.1217 12.3772 76.1087 12.1134C76.1161 11.9336 76.063 11.7565 75.9578 11.6105C75.8438 11.4674 75.6881 11.3632 75.5124 11.3123C75.2794 11.2429 75.0369 11.2101 74.7939 11.2153H73.7161C73.5646 11.2228 73.413 11.1996 73.2707 11.147C73.2246 11.1311 73.1849 11.1009 73.1571 11.0609C73.1293 11.0208 73.115 10.973 73.1162 10.9243C73.1166 10.8583 73.1353 10.7936 73.1701 10.7375C73.2124 10.6722 73.2673 10.616 73.3317 10.5722C73.3888 10.5319 73.4489 10.4958 73.5114 10.4645C73.7028 10.5324 73.9046 10.5665 74.1077 10.5651C74.3673 10.5682 74.6242 10.5116 74.8585 10.3998C75.0709 10.2969 75.251 10.1379 75.3794 9.93997C75.5089 9.73223 75.575 9.49132 75.5698 9.24662C75.5746 8.99972 75.5085 8.75663 75.3794 8.54609C75.3794 8.52813 75.3507 8.51735 75.3399 8.49939C75.4508 8.47462 75.5641 8.46257 75.6776 8.46346C75.8105 8.48142 75.9794 8.4922 76.2057 8.51016ZM74.7687 11.8548C74.9682 11.8404 75.1683 11.8711 75.3543 11.9446C75.4057 11.9753 75.4475 12.0199 75.4748 12.0733C75.5021 12.1266 75.5139 12.1866 75.5088 12.2463C75.5076 12.314 75.4927 12.3808 75.4649 12.4426C75.4371 12.5043 75.397 12.5598 75.3471 12.6056C75.2196 12.7231 75.0655 12.8082 74.898 12.8535C74.6851 12.9184 74.4633 12.9499 74.2406 12.9469H73.9892C73.7682 12.9515 73.5475 12.9298 73.3317 12.8822C73.1917 12.8512 73.0611 12.7872 72.9509 12.6954C72.9116 12.6572 72.8804 12.6114 72.8594 12.5607C72.8384 12.5101 72.828 12.4556 72.8288 12.4008C72.8287 12.321 72.8471 12.2423 72.8827 12.1709C72.9249 12.0901 72.9837 12.0191 73.0551 11.9625C73.1019 11.9209 73.1524 11.8836 73.206 11.8512L74.7687 11.8548ZM74.8154 9.75316C74.7515 9.87993 74.6515 9.98494 74.528 10.0549C74.3943 10.1296 74.2429 10.1669 74.0897 10.1627C73.9389 10.1665 73.7899 10.1292 73.6586 10.0549C73.5351 9.98494 73.4351 9.87993 73.3713 9.75316C73.3013 9.59996 73.2669 9.43294 73.2707 9.26458C73.267 9.09391 73.3013 8.92456 73.3713 8.76882C73.4328 8.63674 73.533 8.52648 73.6586 8.45269C73.7899 8.37841 73.9389 8.34116 74.0897 8.34491C74.2429 8.34075 74.3943 8.37799 74.528 8.45269C74.6537 8.52648 74.7539 8.63674 74.8154 8.76882C74.8804 8.92568 74.9099 9.09499 74.9016 9.26458C74.9099 9.43184 74.8804 9.59882 74.8154 9.75316Z" fill="#182F59"/>
<path d="M33.2774 17.1952H35.828V21.7936H40.4982V17.1952H43.0525V28.4504H40.4982V23.8054H35.828V28.4504H33.2774V17.1952Z" fill="#182F59"/>
<path d="M47.8124 17.1952V23.8988C47.8088 24.2596 47.8353 24.6201 47.8914 24.9765C47.9313 25.28 48.0354 25.5714 48.1968 25.8315C48.3557 26.0769 48.5795 26.2734 48.8434 26.3991C49.1817 26.5509 49.5506 26.6222 49.9211 26.6075C50.3002 26.6224 50.6775 26.5499 51.024 26.3955C51.2914 26.2649 51.5158 26.0604 51.6707 25.8064C51.8327 25.5356 51.939 25.2351 51.9832 24.9226C52.0397 24.5589 52.0673 24.1914 52.0658 23.8233V17.1952H54.6309V23.9598C54.6309 25.5118 54.2237 26.6782 53.4094 27.4589C52.5951 28.2397 51.4288 28.6289 49.9104 28.6265C48.4063 28.6265 47.2507 28.2433 46.4436 27.4769C45.6365 26.7105 45.2366 25.5741 45.2437 24.0676V17.1952H47.8124Z" fill="#182F59"/>
<path d="M56.8472 17.1952H60.2169L63.0226 24.5597L65.7565 17.1952H69.0616V28.4504H66.5253V20.5469L63.4034 28.4504H62.2503L59.1212 20.5469V28.4504H56.8364L56.8472 17.1952Z" fill="#182F59"/>
<path d="M74.0477 17.1952H77.3743L81.0278 28.4504H78.3694L77.6509 26.1045H73.4657L72.7472 28.4504H70.3582L74.0477 17.1952ZM77.0905 24.2904L75.5637 19.2609L74.0153 24.2904H77.0905Z" fill="#182F59"/>
<path d="M82.1621 17.1952H85.1187L89.5554 24.6065V17.1952H91.8223V28.4504H89.268L84.429 20.4392V28.4504H82.1621V17.1952Z" fill="#182F59"/>
<path d="M15.7617 15.0013C15.2358 15.3049 14.6392 15.4648 14.032 15.4648C13.4247 15.4648 12.8281 15.3049 12.3022 15.0013C11.7763 14.6977 11.3395 14.2609 11.0358 13.735C10.7322 13.2091 10.5723 12.6125 10.5723 12.0052C10.5723 11.3979 10.7322 10.8013 11.0358 10.2753C11.3395 9.7494 11.7763 9.31267 12.3022 9.00904C12.8279 8.7047 13.4245 8.54444 14.032 8.54444C14.6394 8.54444 15.2361 8.7047 15.7617 9.00904C16.2886 9.31194 16.7263 9.74841 17.0306 10.2744C17.335 10.8005 17.4952 11.3974 17.4952 12.0052C17.4952 12.6129 17.335 13.2099 17.0306 13.7359C16.7263 14.2619 16.2886 14.6984 15.7617 15.0013Z" fill="#4285F4"/>
<path d="M27.8793 7.99683L27.1608 8.40997L24.4161 9.99424V9.99784L20.953 8.00043V7.99683L20.9242 7.98246L17.4898 6.00301L14.9284 4.51932L14.0267 4.00201L13.1286 4.51932L10.5636 6.00301L7.13276 7.98246L7.10402 7.99683V8.00043L3.64088 9.99784L0.896228 8.40997L0.177734 7.99683L3.64088 6.00301V5.99583L7.10402 4.00201L10.5636 2.001L11.4617 1.48728L14.0267 0L16.5953 1.48728L17.4898 2.001L20.953 4.00201L24.4161 5.99583V6.00301L27.8793 7.99683Z" fill="#5BBC2E"/>
<path d="M12.2917 18.989V22.9946L10.5638 21.9995L10.5602 21.9959L10.2835 21.8343L7.10421 19.9985V15.9929L8.26099 16.6611V16.6647L12.2917 18.989Z" fill="#DB162F"/>
<path d="M12.2924 26.9883V31.9818L8.26162 29.6611L6.6522 28.7234L4.23446 27.3332L0.203713 25.0016V12.0077L2.90525 13.5704L3.64171 13.9907V21.9947L7.10485 23.9886L9.35732 25.2926L12.2924 26.9883Z" fill="#DB162F"/>
<path d="M20.9533 16.0067V19.9944L17.4902 21.9918V21.9954L15.755 22.9941V19.01L19.7857 16.6857V16.6821L20.9533 16.0067Z" fill="#F5BB00"/>
<path d="M27.8437 12.0223V25.0198L15.755 32V26.9885L17.4866 25.9862H17.4902V25.9826L24.4164 21.9878V14.0089L25.1421 13.585L27.8437 12.0223Z" fill="#F5BB00"/>
</g>
</svg>
