<svg width="29" height="28" viewBox="0 0 29 28" fill="none" xmlns="http://www.w3.org/2000/svg">
<path d="M14.6803 0.000338118C18.7131 0.000338118 22.746 -0.000422648 26.7795 0.000338118C27.6902 0.000338118 28.3528 0.451472 28.5787 1.23887C28.6381 1.44503 28.6632 1.66794 28.6632 1.884C28.667 9.36157 28.6678 16.8391 28.6655 24.3167C28.6655 25.4609 27.9389 26.1806 26.7955 26.1806C23.8065 26.1813 20.8174 26.1829 17.8284 26.1775C17.6169 26.1775 17.4571 26.2278 17.2958 26.3738C15.9546 27.5895 13.8701 27.6025 12.5129 26.4004C12.328 26.2369 12.1477 26.1753 11.9058 26.176C8.7935 26.1829 5.68044 26.1806 2.56815 26.1806C1.38363 26.1806 0.668514 25.4708 0.667753 24.2893C0.666992 16.8315 0.666992 9.37298 0.666992 1.91443C0.666992 0.715458 1.38211 0.00109888 2.58184 0.000338118C6.61466 0.000338118 10.6475 0.000338118 14.6803 0.000338118ZM18.0672 25.6054H18.3122C21.1019 25.6054 23.8924 25.6054 26.6822 25.6054C27.6582 25.6054 28.0797 25.1809 28.0797 24.1965C28.0797 18.9016 28.0797 13.6059 28.0797 8.31095C28.0797 8.19912 28.0797 8.08652 28.0797 7.94046C27.8545 7.94046 27.6552 7.9222 27.4619 7.94806C27.36 7.96176 27.2337 8.0287 27.1767 8.11163C26.2554 9.44677 24.342 9.42471 23.4603 8.06142C23.2663 7.76244 23.3751 7.53649 23.7289 7.5266C24.0704 7.51671 24.4151 7.49617 24.7529 7.53116C25.1302 7.57072 25.3957 7.45204 25.557 7.1135C25.6072 7.00776 25.6954 6.83658 25.6544 6.78561C25.4946 6.58781 25.4741 6.23938 25.1097 6.24319C24.6829 6.24775 24.2553 6.24623 23.8285 6.24319C23.439 6.24014 23.3165 6.02561 23.5158 5.69239C23.5744 5.59501 23.6429 5.50296 23.7174 5.41775C24.6524 4.34127 26.3748 4.44245 27.198 5.61631C27.2581 5.70228 27.3425 5.81487 27.4285 5.82857C27.6293 5.86052 27.8393 5.83846 28.0789 5.83846C28.0789 5.70761 28.0789 5.60566 28.0789 5.50296C28.0789 4.31693 28.0804 3.13013 28.0789 1.9441C28.0774 1.01672 27.6491 0.58841 26.7187 0.58841C18.6812 0.58841 10.6429 0.58841 2.60542 0.58841C1.67881 0.58841 1.2543 1.01824 1.2543 1.95246C1.2543 9.38287 1.2543 16.8133 1.2543 24.2437C1.2543 25.1672 1.69251 25.6032 2.61455 25.6039C5.57546 25.6039 8.53636 25.6039 11.4973 25.6039H11.8236C11.358 24.8142 11.2051 23.9972 11.3299 23.1375C11.4577 22.2596 11.851 21.5019 12.541 20.9465C13.9933 19.778 15.5164 19.7894 17.1353 20.8035C17.3993 20.5174 17.6739 20.2177 17.9516 19.9202C18.1273 19.7323 18.3069 19.7232 18.4879 19.9172C18.7603 20.2078 19.0327 20.4992 19.3096 20.786C19.4906 20.9731 19.4876 21.1443 19.2989 21.3254C18.9977 21.6145 18.7086 21.9157 18.4027 22.2003C18.2825 22.3121 18.2818 22.4072 18.3099 22.5669C18.3951 23.047 18.5153 23.543 18.472 24.0192C18.4233 24.5518 18.211 25.0691 18.0672 25.6039V25.6054ZM17.7629 22.8477C17.6922 22.9139 17.6222 22.9762 17.556 23.0417C16.7732 23.8146 15.9919 24.5891 15.2075 25.3605C14.9504 25.6138 14.85 25.6115 14.5928 25.3552C14.0017 24.7663 13.4113 24.1767 12.8218 23.5856C12.557 23.3201 12.557 23.2303 12.8195 22.9481C13.0584 22.6917 13.3003 22.4369 13.5414 22.1828C13.7818 21.9302 13.9104 21.9241 14.1539 22.1713C14.3981 22.4194 14.6324 22.6757 14.8888 22.9473C15.4837 22.3235 16.0307 21.7499 16.5746 21.1785C15.5073 20.3379 13.7567 20.5007 12.7327 21.5574C11.6517 22.6727 11.5764 24.4552 12.5608 25.6313C13.5437 26.8059 15.2889 27.0547 16.5746 26.2042C17.6815 25.4723 18.2704 23.8253 17.7622 22.8469L17.7629 22.8477ZM13.8815 22.6689C13.6715 22.8941 13.5057 23.0713 13.3581 23.2296C13.8891 23.7621 14.4019 24.2764 14.9489 24.8249C16.1706 23.5514 17.4061 22.2634 18.6606 20.9556C18.5633 20.8507 18.3974 20.6726 18.224 20.4863C18.1486 20.5562 18.0847 20.6118 18.0246 20.6711C17.1041 21.5741 16.1843 22.4772 15.2646 23.381C14.9298 23.7096 14.8637 23.7127 14.5274 23.368C14.3098 23.1451 14.1044 22.9101 13.8815 22.6689ZM28.0675 6.41664C27.821 6.41664 27.6019 6.3999 27.3866 6.42044C27.093 6.44935 26.9286 6.34056 26.7849 6.07353C26.3489 5.26484 25.2983 5.00998 24.5201 5.49459C24.4653 5.52883 24.4212 5.58056 24.3253 5.66653C24.7171 5.66653 25.0397 5.64903 25.3584 5.67489C25.49 5.68554 25.6513 5.76086 25.7335 5.86052C25.9381 6.10701 26.1002 6.38925 26.2904 6.64944C26.4174 6.82365 26.403 6.97504 26.2736 7.13861C26.0857 7.37673 25.8986 7.61561 25.7282 7.86666C25.6026 8.05153 25.449 8.12836 25.2268 8.11847C24.9423 8.10554 24.6578 8.11543 24.3101 8.11543C25.1553 8.80164 26.2828 8.56048 26.7575 7.64376C26.8693 7.4277 27.0078 7.33412 27.2459 7.34478C27.5152 7.35695 27.7853 7.34782 28.0667 7.34782V6.4174L28.0675 6.41664Z" fill="#08727E"/>
<path d="M12.3721 17.2522C12.4901 17.5155 12.5882 17.7893 12.732 18.0381C12.9092 18.3439 12.9024 18.4444 12.6011 18.6368C11.9469 19.0545 11.2333 19.3284 10.4801 19.5033C10.1492 19.5802 10.0693 19.4942 9.98334 19.1488C9.92095 18.897 9.8289 18.6338 9.68131 18.4253C9.37092 17.9864 8.8361 17.9468 8.49071 18.3599C8.29443 18.5942 8.17652 18.9137 8.08979 19.2142C8.01447 19.4744 7.89351 19.568 7.6455 19.5125C6.87256 19.339 6.1331 19.0819 5.46971 18.6368C5.16921 18.4352 5.16388 18.3439 5.34875 18.0351C5.46362 17.8433 5.57013 17.6326 5.61806 17.4166C5.77402 16.7151 5.23996 16.2123 4.54614 16.4055C4.35138 16.4603 4.17108 16.5812 3.99687 16.6915C3.76255 16.8407 3.62866 16.8285 3.47498 16.5949C3.02156 15.9057 2.73475 15.1464 2.55369 14.3446C2.49816 14.0981 2.62444 13.9977 2.85496 13.9246C3.11894 13.841 3.3989 13.736 3.60583 13.5625C3.9885 13.2415 3.98013 12.7348 3.58225 12.432C3.35174 12.257 3.04743 12.1658 2.76366 12.0775C2.53543 12.006 2.4449 11.8873 2.49663 11.6621C2.67389 10.8907 2.92419 10.1482 3.36771 9.48405C3.58301 9.16148 3.66289 9.15692 3.98622 9.35092C4.17793 9.46579 4.38942 9.56849 4.60548 9.6187C5.19127 9.75488 5.68196 9.30603 5.57698 8.71111C5.52905 8.44104 5.38907 8.18086 5.25746 7.93437C5.12204 7.68103 5.12204 7.57072 5.36244 7.41324C6.0342 6.97276 6.75312 6.64183 7.55117 6.50261C7.86917 6.44707 7.9422 6.51402 8.02817 6.81985C8.10348 7.0884 8.18717 7.37368 8.34541 7.59659C8.67254 8.05761 9.23931 8.05457 9.56263 7.58974C9.71859 7.36532 9.80075 7.07927 9.87302 6.80996C9.9491 6.52771 10.0427 6.44098 10.3295 6.50641C11.0933 6.68063 11.8099 6.97352 12.4794 7.37977C12.7852 7.56464 12.7822 7.66582 12.6186 7.97621C12.4809 8.23715 12.3508 8.52929 12.3273 8.81686C12.2824 9.36917 12.7502 9.74804 13.2957 9.62783C13.5194 9.57838 13.737 9.46275 13.9348 9.34026C14.2102 9.16909 14.3243 9.17061 14.4962 9.43384C14.9085 10.066 15.2235 10.7408 15.3741 11.4864C15.4669 11.9436 15.4106 11.9877 14.9762 12.1117C14.6879 12.1939 14.3988 12.3461 14.1668 12.537C13.9142 12.7439 13.9241 12.9699 14.0945 13.2506C14.338 13.6515 14.7069 13.8592 15.1603 13.93C15.5035 13.984 15.5841 14.0943 15.5019 14.4298C15.3186 15.1807 15.0318 15.8897 14.6278 16.55C14.4521 16.8376 14.3425 16.8452 14.0512 16.6779C13.8336 16.5531 13.5955 16.4276 13.3528 16.3888C12.7921 16.299 12.4216 16.6566 12.3706 17.2522H12.3721ZM7.51769 18.9115C7.79461 18.1362 8.19097 17.5215 9.05596 17.5139C9.93541 17.5056 10.3036 18.1431 10.5661 18.9214C11.1024 18.7023 11.622 18.49 12.1546 18.2724C11.7856 17.5155 11.6502 16.8102 12.2527 16.1864C12.8522 15.5656 13.543 15.7528 14.2695 16.0807C14.4878 15.5474 14.7001 15.0278 14.9093 14.5142C14.6674 14.4054 14.4658 14.3408 14.2923 14.232C13.7925 13.917 13.3672 13.5108 13.4091 12.874C13.4547 12.1832 13.9515 11.8264 14.5555 11.6013C14.6316 11.5731 14.7069 11.5442 14.8325 11.497C14.6058 10.9607 14.3897 10.451 14.166 9.92377C13.425 10.3102 12.7236 10.4198 12.1264 9.81346C11.5292 9.20713 11.6677 8.5019 12.0321 7.75102C11.4965 7.53268 10.9731 7.31891 10.4406 7.10133C10.1857 7.88492 9.80988 8.48897 8.98369 8.50494C8.09511 8.52168 7.71093 7.87883 7.44694 7.06633C6.9106 7.2938 6.38948 7.51595 5.85998 7.74113C6.23884 8.5019 6.36513 9.19648 5.77782 9.81574C5.17377 10.4525 4.47767 10.2752 3.7306 9.9154C3.51606 10.4571 3.30761 10.9843 3.0946 11.5221C3.85612 11.7793 4.42213 12.1688 4.44952 12.9615C4.47843 13.7862 3.90938 14.2023 3.15089 14.4975C3.36999 15.0331 3.58377 15.5565 3.80059 16.086C4.52027 15.7216 5.18062 15.6097 5.76032 16.1316C6.44805 16.7509 6.30275 17.498 5.93606 18.2519C6.10267 18.3386 6.24797 18.4291 6.40469 18.4923C6.76453 18.6361 7.12894 18.7669 7.51617 18.9122L7.51769 18.9115Z" fill="#08727E"/>
<path d="M27.0154 14.8239C26.9629 15.2081 26.9195 15.5945 26.8541 15.9764C26.81 16.2351 26.6753 16.3066 26.4265 16.2397C26.3718 16.2252 26.3177 16.2054 26.263 16.1925C25.9366 16.1172 25.5935 16.248 25.471 16.4922C25.3599 16.7144 25.4626 17.0194 25.7251 17.2431C26.1298 17.5893 26.1542 17.6448 25.7829 18.0176C25.4444 18.3576 25.0648 18.6612 24.6791 18.9472C24.3922 19.1602 24.2743 19.1077 24.0887 18.8065C24.0149 18.687 23.9312 18.5661 23.8262 18.4755C23.4938 18.1887 23.0693 18.3325 22.9833 18.7646C22.9514 18.9267 22.9727 19.1024 22.9909 19.2698C23.0145 19.4889 22.9361 19.6532 22.7155 19.6448C22.1122 19.622 21.5097 19.5794 20.9095 19.5193C20.6995 19.498 20.6622 19.323 20.7002 19.126C20.7337 18.9518 20.7763 18.7677 20.7535 18.5965C20.6911 18.1385 20.2879 17.9727 19.9144 18.2428C19.801 18.3249 19.7021 18.4322 19.6154 18.544C19.4534 18.7532 19.2639 18.7897 19.0874 18.5995C18.704 18.1842 18.3236 17.7635 17.9759 17.3192C17.788 17.0788 17.8519 16.9609 18.1045 16.7859C18.2491 16.6855 18.3982 16.5675 18.4933 16.4238C18.7276 16.0708 18.5564 15.7094 18.1357 15.6501C17.9896 15.6295 17.8337 15.6508 17.6853 15.6744C17.4465 15.7124 17.2905 15.6097 17.2973 15.383C17.3156 14.798 17.3559 14.2122 17.413 13.6295C17.4358 13.4012 17.6016 13.3312 17.8344 13.383C18.014 13.4225 18.2125 13.4575 18.3875 13.4218C18.8272 13.3328 18.9634 12.9509 18.7101 12.5773C18.6629 12.5073 18.6043 12.4427 18.5404 12.3879C18.1395 12.0425 18.1121 11.9809 18.4819 11.6112C18.8272 11.2658 19.2168 10.9592 19.6093 10.6663C19.8664 10.4746 19.9905 10.5309 20.1624 10.7979C20.243 10.9234 20.3358 11.0505 20.4484 11.1463C20.7809 11.4293 21.1772 11.3053 21.2746 10.8823C21.3111 10.7233 21.2921 10.5453 21.2731 10.3795C21.2457 10.1505 21.3195 9.97322 21.5553 9.98235C22.1586 10.0044 22.7619 10.0485 23.3614 10.1132C23.5638 10.1353 23.6094 10.3057 23.563 10.508C23.5235 10.68 23.4839 10.8664 23.5098 11.0368C23.579 11.4894 23.9799 11.6515 24.3603 11.4004C24.4227 11.3593 24.482 11.3084 24.533 11.2536C24.9415 10.8116 24.9765 10.791 25.4124 11.2323C25.7358 11.5602 26.0172 11.9337 26.2881 12.308C26.4691 12.5575 26.4189 12.6831 26.1618 12.8383C26.0971 12.8771 26.0279 12.9121 25.9708 12.96C25.7654 13.1319 25.6072 13.3343 25.6855 13.6219C25.7479 13.8501 26.0507 14.0053 26.3619 13.9946C26.7686 13.9799 26.9778 14.1798 26.9895 14.5941C26.9918 14.6702 26.9895 14.7455 26.9895 14.8216L27.0169 14.8254L27.0154 14.8239ZM25.0138 11.621C24.568 12.0182 24.107 12.2753 23.5448 11.9923C22.9863 11.7116 22.8836 11.1844 22.9072 10.5948C22.5641 10.5697 22.2476 10.5461 21.9152 10.5217C21.8825 11.1159 21.7318 11.6096 21.1384 11.8181C20.5222 12.0341 20.1152 11.6857 19.7211 11.2445L18.933 11.9428C19.3293 12.3506 19.5469 12.7812 19.3522 13.2932C19.108 13.9338 18.5465 14.0585 17.9105 14.0486C17.8877 14.3834 17.8656 14.7006 17.8428 15.0354C18.4377 15.065 18.9467 15.2088 19.13 15.8144C19.308 16.4025 18.9931 16.8308 18.5602 17.2241C18.8021 17.4972 19.0319 17.7551 19.2654 18.0183C19.7196 17.6174 20.1738 17.3443 20.7383 17.6471C21.2739 17.9346 21.3796 18.4504 21.3553 19.0339C21.6961 19.0583 22.0118 19.0819 22.3481 19.1062C22.3785 18.509 22.5322 18.0168 23.1279 17.8106C23.741 17.5984 24.1595 17.9209 24.5406 18.3812C24.8137 18.1423 25.0678 17.9194 25.3288 17.6904C24.9141 17.2507 24.6806 16.7828 24.9567 16.2252C25.2344 15.666 25.7685 15.5687 26.3543 15.5793C26.3748 15.2408 26.3938 14.9235 26.4128 14.6124C24.9461 14.3256 24.6882 13.5344 25.6825 12.3894C25.4642 12.1384 25.2428 11.8843 25.013 11.6195L25.0138 11.621Z" fill="#08727E"/>
<path d="M18.952 3.62159C16.7412 3.62159 14.5312 3.62387 12.3204 3.62006C11.5939 3.61854 11.1252 3.12252 11.1815 2.43251C11.2234 1.91823 11.6228 1.51426 12.1378 1.46786C12.204 1.46177 12.2702 1.46253 12.3371 1.46253C16.7108 1.46253 21.0844 1.46177 25.4581 1.46253C26.2828 1.46253 26.7902 2.11603 26.5718 2.88516C26.4395 3.35227 26.0758 3.62311 25.5836 3.62235C23.3728 3.62235 21.1628 3.62159 18.952 3.62159ZM18.9086 3.03732V3.04036C21.1293 3.04036 23.3492 3.03884 25.5699 3.04264C25.8369 3.04264 25.9731 2.91255 26.0249 2.66835C26.1063 2.28416 25.8651 2.03843 25.4025 2.03843C21.0662 2.03767 16.729 2.03843 12.3927 2.03843C12.3265 2.03843 12.2588 2.03539 12.1941 2.04452C11.8913 2.08788 11.7133 2.33513 11.7628 2.63639C11.8077 2.9057 12.0085 3.0358 12.3896 3.03656C14.5624 3.03656 16.7359 3.03732 18.9086 3.03732Z" fill="#08727E"/>
<path d="M8.6809 21.6875C7.0483 21.5818 5.57089 21.1025 4.21445 20.2474C4.04175 20.1386 3.93068 19.9986 4.04632 19.8031C4.16347 19.6045 4.34073 19.6357 4.51419 19.7453C5.83792 20.5844 7.28261 21.0416 8.84903 21.1101C9.04911 21.1184 9.1891 21.2143 9.17997 21.4182C9.17008 21.6244 9.02021 21.7035 8.82012 21.689C8.76383 21.6852 8.70677 21.689 8.68166 21.689L8.6809 21.6875Z" fill="#08727E"/>
<path d="M6.02431 1.46329C6.63064 1.45721 7.13655 1.95094 7.14416 2.55651C7.15176 3.15752 6.65194 3.66875 6.04789 3.67712C5.44689 3.68549 4.93641 3.18491 4.92956 2.58086C4.92272 1.97529 5.41874 1.46938 6.02431 1.46329ZM6.56065 2.55651C6.55304 2.27503 6.30275 2.03615 6.02431 2.04376C5.74358 2.05136 5.50394 2.30242 5.51155 2.58086C5.51916 2.86082 5.77097 3.10046 6.04941 3.09361C6.33166 3.08601 6.56826 2.83724 6.56065 2.55651Z" fill="#08727E"/>
<path d="M8.83306 1.46329C9.44015 1.46177 9.93921 1.95931 9.94073 2.56564C9.94225 3.17197 9.44319 3.67484 8.83914 3.67712C8.24118 3.6794 7.72919 3.17045 7.7269 2.57173C7.72462 1.97072 8.22977 1.46481 8.83306 1.46329ZM9.36179 2.57705C9.36635 2.29937 9.12443 2.04984 8.84447 2.04452C8.56451 2.03919 8.31802 2.27959 8.31345 2.56184C8.30889 2.84332 8.54777 3.09057 8.82925 3.09514C9.10845 3.09894 9.35723 2.85778 9.36255 2.57781L9.36179 2.57705Z" fill="#08727E"/>
<path d="M2.13603 2.56108C2.13984 1.95322 2.6389 1.45949 3.24599 1.46329C3.84928 1.46786 4.35443 1.97833 4.34758 2.57705C4.34073 3.17958 3.83026 3.68245 3.23001 3.67712C2.62368 3.6718 2.13223 3.17121 2.13603 2.56108ZM3.23077 2.04452C2.95005 2.04832 2.70965 2.29481 2.71269 2.57477C2.71574 2.85549 2.96222 3.09666 3.24219 3.09437C3.52671 3.09133 3.75875 2.85169 3.7557 2.56412C3.75266 2.27807 3.51302 2.04071 3.23077 2.04452Z" fill="#08727E"/>
<path d="M7.52378 22.8127C6.87028 22.621 6.27308 22.4505 5.67968 22.2687C5.50546 22.2155 5.40885 22.0839 5.47808 21.896C5.54426 21.7156 5.68272 21.6738 5.86835 21.7233C6.43208 21.8746 6.99733 22.0192 7.56334 22.1607C7.74288 22.2056 7.88362 22.306 7.82504 22.4901C7.78624 22.6103 7.63865 22.6963 7.52454 22.8119L7.52378 22.8127Z" fill="#08727E"/>
<path d="M20.081 8.94619C20.0384 8.98879 19.9699 9.08921 19.8748 9.14551C19.4845 9.37678 19.0844 9.59056 18.6933 9.82031C18.5176 9.92301 18.3472 9.97018 18.2209 9.77694C18.1068 9.60197 18.1798 9.44677 18.3525 9.34711C18.7786 9.10214 19.2 8.84805 19.6382 8.62591C19.8771 8.50494 20.0856 8.64112 20.081 8.94619Z" fill="#08727E"/>
<path d="M18.9292 7.64984C19.0349 7.75102 19.165 7.81873 19.1856 7.91079C19.2069 8.00512 19.1536 8.17781 19.0775 8.2227C18.7611 8.41061 18.4301 8.5795 18.0893 8.71872C18.0041 8.75371 17.8314 8.67916 17.7568 8.60004C17.7051 8.54526 17.7135 8.33149 17.7645 8.3003C18.1319 8.07359 18.5176 7.87503 18.9292 7.64984Z" fill="#08727E"/>
<path d="M9.02857 15.4857C7.6455 15.4895 6.52641 14.3834 6.51957 13.0056C6.51272 11.6142 7.63029 10.4822 9.0164 10.4761C10.3934 10.47 11.5345 11.6127 11.5307 12.9935C11.5269 14.3697 10.4101 15.4819 9.02857 15.4857ZM9.01336 14.9053C10.0731 14.9098 10.9335 14.0631 10.948 13.0018C10.9624 11.9383 10.0914 11.0657 9.0164 11.0687C7.95589 11.071 7.09775 11.9276 7.09699 12.9851C7.09623 14.041 7.95437 14.9007 9.01336 14.9053Z" fill="#08727E"/>
<path d="M20.1959 14.8041C20.2118 13.7801 21.0631 12.9554 22.0909 12.9676C23.1119 12.9798 23.9533 13.8455 23.9305 14.8604C23.9069 15.892 23.0525 16.7205 22.0346 16.6969C21.0008 16.6733 20.1799 15.8281 20.1959 14.8041ZM22.0673 16.1088C22.7855 16.1073 23.3462 15.5397 23.3393 14.8208C23.3333 14.1224 22.7672 13.5534 22.0719 13.5473C21.3712 13.5412 20.7801 14.127 20.7786 14.83C20.7771 15.5359 21.356 16.1103 22.0673 16.1088Z" fill="#08727E"/>
</svg>
