<svg width="29" height="28" viewBox="0 0 29 28" fill="none" xmlns="http://www.w3.org/2000/svg">
<path d="M26.6094 22.6243C26.5155 22.5825 26.4066 22.5715 26.458 22.4009C26.5779 22.0056 26.5717 21.5931 26.5717 21.1826C26.5703 18.968 26.5717 16.7541 26.5717 14.5394C26.5717 12.6345 26.5751 10.7303 26.5703 8.82542C26.5662 7.11238 25.3582 5.90502 23.6493 5.89886C22.9476 5.8968 22.2453 5.88789 21.5443 5.90434C21.3154 5.90982 21.2585 5.84678 21.2606 5.62066C21.2716 4.32697 21.2716 3.0326 21.264 1.73891C21.2579 0.676137 20.5726 0.00393999 19.5133 0.000513912C19.2125 -0.000171304 18.9117 -0.000171304 18.6109 0.000513912C17.5118 0.00325478 16.8457 0.6686 16.8437 1.77111C16.8416 3.04699 16.8348 4.32286 16.8499 5.59873C16.8533 5.85843 16.7724 5.90502 16.5326 5.90434C12.7235 5.8968 8.91368 5.89954 5.10456 5.89817C4.80307 5.89817 4.50363 5.90571 4.21036 5.98314C2.92832 6.31958 2.09852 7.43922 2.09783 8.8494C2.09578 13.0594 2.09646 17.2693 2.09783 21.48C2.09783 21.7712 2.10263 22.0672 2.19788 22.3434C2.2616 22.527 2.18212 22.5784 2.03753 22.6366C1.4784 22.8614 1.06042 23.2499 0.736994 23.7556C0.545134 24.0564 0.362181 24.3264 0.332031 24.719V25.7037C0.350532 25.9394 0.430017 26.2107 0.558838 26.4492C1.01177 27.2899 1.67369 27.8374 2.62956 28.0005H25.929C25.9379 27.9567 25.9708 27.9525 26.0085 27.9471C27.2569 27.7586 28.2806 26.6143 28.3313 25.3515C28.38 24.1475 27.7311 23.1211 26.6094 22.6243ZM17.7228 2.17608C17.7345 2.00409 17.7228 1.83073 17.7262 1.65805C17.7352 1.20718 18.0223 0.898833 18.4677 0.883758C18.8582 0.870739 19.2495 0.870739 19.6394 0.883758C20.0546 0.898147 20.3294 1.17223 20.3705 1.58336C20.4221 2.09773 20.1898 2.35492 19.6736 2.35492C19.4646 2.35492 19.2557 2.35492 19.0467 2.35492C18.665 2.35492 18.2833 2.34807 17.9017 2.35834C17.7564 2.36246 17.7132 2.31792 17.7228 2.17608ZM20.3753 15.4672C20.376 15.581 20.339 15.6748 20.2691 15.7667C19.9224 16.2223 19.5777 16.6801 19.2392 17.1419C19.1049 17.3255 18.9966 17.3248 18.8623 17.1419C18.5184 16.6732 18.1668 16.2086 17.8153 15.7454C17.7447 15.6529 17.7215 15.5549 17.7235 15.4412C17.7283 15.1774 17.7345 14.9129 17.7215 14.6498C17.7132 14.4874 17.7523 14.4284 17.9284 14.4353C18.3011 14.4504 18.6746 14.4401 19.0473 14.4401C19.4297 14.4401 19.812 14.4462 20.1937 14.4367C20.3383 14.4332 20.3815 14.4785 20.3767 14.6203C20.3671 14.9019 20.3732 15.1849 20.3753 15.4672ZM20.0971 13.5657C19.4886 13.5493 19.4886 13.5609 19.4886 12.958C19.4886 11.4368 19.4886 9.9156 19.4886 8.39442C19.4886 6.76429 19.4927 5.13347 19.4831 3.50334C19.4818 3.2875 19.5373 3.22788 19.7538 3.23199C20.3746 3.24364 20.3753 3.23405 20.3753 3.85828C20.3753 7.00069 20.3726 10.1431 20.3808 13.2855C20.3808 13.5157 20.3232 13.5719 20.0971 13.5657ZM18.0175 3.23131C18.6054 3.24981 18.6054 3.23679 18.6054 3.83156V8.42388C18.6054 10.0458 18.6026 11.667 18.6088 13.2889C18.6095 13.4828 18.5883 13.5733 18.3532 13.5664C17.7256 13.5493 17.7249 13.5623 17.7249 12.9278C17.7249 9.79363 17.7283 6.65945 17.7187 3.52527C17.718 3.28065 17.779 3.22377 18.0175 3.23131ZM2.98793 8.87475C2.98793 7.57147 3.78141 6.78142 5.07853 6.78142C8.90614 6.78142 12.7338 6.78416 16.5614 6.77388C16.8163 6.77388 16.8574 6.84994 16.8499 7.07674C16.8327 7.58655 16.8362 8.09772 16.8492 8.60752C16.854 8.79732 16.8033 8.85351 16.6087 8.85145C15.7062 8.84118 14.8045 8.84666 13.9021 8.84734C13.8109 8.84734 13.7191 8.84597 13.6293 8.85762C13.3964 8.88777 13.2696 9.0392 13.2532 9.25916C13.2374 9.47021 13.3505 9.62027 13.5547 9.69564C13.6602 9.7347 13.7698 9.72922 13.8788 9.72922C14.7901 9.72922 15.7014 9.73538 16.6128 9.72442C16.8087 9.72236 16.8505 9.77924 16.8499 9.96699C16.8423 11.7533 16.8526 13.539 16.8403 15.3254C16.8375 15.7393 16.952 16.0867 17.2069 16.4073C17.5344 16.8212 17.8407 17.2515 18.1607 17.6722C18.6746 18.3479 19.4297 18.3479 19.9443 17.6722C20.2862 17.2234 20.6179 16.7657 20.9625 16.3189C21.1777 16.0401 21.2709 15.7303 21.2695 15.3816C21.2661 14.3613 21.2736 13.3403 21.2633 12.32C21.2613 12.1302 21.3079 12.0747 21.5004 12.0809C21.9739 12.096 22.4481 12.0857 22.9222 12.0857C23.3389 12.0857 23.5526 11.939 23.5588 11.6512C23.565 11.3532 23.3519 11.2052 22.9127 11.2052C22.4296 11.2052 21.9465 11.199 21.4634 11.2086C21.3072 11.2113 21.2599 11.1654 21.2647 11.0099C21.275 10.6454 21.277 10.2808 21.2647 9.91628C21.2592 9.75114 21.3236 9.72442 21.4682 9.72716C21.9513 9.7347 22.4344 9.7299 22.9174 9.7299C22.9901 9.7299 23.0641 9.7347 23.136 9.72511C23.3909 9.69153 23.5691 9.4983 23.5609 9.27149C23.5526 9.03646 23.3738 8.85694 23.11 8.85214C22.5728 8.84255 22.0349 8.84186 21.497 8.85145C21.3236 8.8542 21.2599 8.81582 21.2647 8.62739C21.2777 8.07168 21.2743 7.51597 21.2661 6.96026C21.264 6.81499 21.3072 6.77799 21.449 6.77936C22.2329 6.78621 23.0168 6.76771 23.8 6.78758C24.9135 6.81499 25.6789 7.6537 25.6844 8.83638C25.6905 10.2034 25.6857 11.5704 25.6857 12.9374C25.6857 15.79 25.683 18.6418 25.6878 21.4944C25.6885 22.17 25.4836 22.7435 24.9402 23.1711C24.5743 23.4589 24.1556 23.5795 23.6952 23.5781C22.8297 23.5754 21.9636 23.5781 21.0982 23.5781C18.8473 23.5781 16.5963 23.5781 14.3454 23.5781C11.2379 23.5781 8.13048 23.5795 5.02234 23.5774C4.02192 23.5768 3.31615 23.0512 3.05645 22.1296C2.99615 21.9165 2.99204 21.6979 2.99204 21.4807C2.99067 17.2796 2.9893 13.0786 2.99204 8.87749L2.98793 8.87475ZM27.4495 25.272C27.3755 26.2183 26.719 26.9604 25.8447 27.0789C25.6556 27.1043 25.4637 27.1186 25.2732 27.1186C21.619 27.1207 17.9647 27.12 14.3104 27.12C10.6377 27.12 6.96561 27.1207 3.29285 27.12C2.2753 27.12 1.54007 26.5903 1.28517 25.6824C1.02273 24.7457 1.57433 23.7104 2.49252 23.4C2.61106 23.3602 2.68095 23.3602 2.77003 23.4644C3.36411 24.1571 4.1247 24.4648 5.03604 24.4614C7.5967 24.4518 10.1573 24.4579 12.718 24.4579C16.3264 24.4579 19.9354 24.4497 23.5437 24.4634C24.4934 24.4669 25.2931 24.1811 25.9118 23.4486C25.9968 23.3479 26.0653 23.365 26.1695 23.3993C26.9397 23.6542 27.5111 24.4854 27.4495 25.272Z" fill="#08727E"/>
<path d="M6.81884 21.7868C9.30617 21.7539 11.7942 21.7765 14.2822 21.7765C16.7976 21.7765 19.3124 21.7793 21.8278 21.7751C22.8776 21.7738 23.5566 21.103 23.5628 20.0539C23.5717 18.4498 23.5662 16.8464 23.5642 15.2423C23.5642 14.9477 23.5093 14.6619 23.3579 14.4036C23.225 14.1768 22.9913 14.0959 22.7775 14.196C22.5583 14.2988 22.4699 14.518 22.5678 14.7722C22.6377 14.9538 22.6789 15.1354 22.6789 15.3293C22.6775 16.8964 22.6802 18.4642 22.6768 20.0313C22.6754 20.6226 22.3952 20.894 21.8004 20.894C16.788 20.894 11.7757 20.894 6.76402 20.894C6.14321 20.894 5.87118 20.6185 5.8705 19.9902C5.86913 18.4498 5.86981 16.9101 5.8705 15.3697C5.8705 14.7092 6.1391 14.4399 6.79554 14.4399C9.4021 14.4399 12.008 14.4399 14.6145 14.4399C14.6968 14.4399 14.779 14.4433 14.8605 14.4372C15.1175 14.4173 15.3011 14.2378 15.3052 14.0062C15.3094 13.7766 15.1257 13.5861 14.8736 13.5621C14.8105 13.556 14.7461 13.5594 14.6824 13.5594C12.0484 13.5594 9.41512 13.5587 6.78115 13.5594C5.6526 13.5594 4.98862 14.2282 4.98794 15.3643C4.98657 16.8861 5.01123 18.4087 4.97971 19.9292C4.95642 21.0399 5.71084 21.8012 6.81884 21.7868Z" fill="#08727E"/>
<path d="M5.65143 11.205C5.56029 11.205 5.46848 11.2022 5.37871 11.2139C5.14711 11.244 5.01897 11.3941 4.99979 11.6133C4.98197 11.8244 5.09298 11.9847 5.29649 12.0512C5.39721 12.0841 5.51164 12.0848 5.61922 12.0848C8.6424 12.0861 11.6656 12.0861 14.6881 12.0848C14.7874 12.0848 14.8916 12.0855 14.9848 12.0574C15.202 11.9909 15.3191 11.8285 15.2965 11.6044C15.2746 11.3852 15.143 11.2385 14.9108 11.2125C14.8203 11.2022 14.7292 11.205 14.638 11.205C13.145 11.205 11.6512 11.205 10.1581 11.205C8.66501 11.205 7.15411 11.205 5.65143 11.205Z" fill="#08727E"/>
<path d="M5.39237 9.72009C5.45472 9.73105 5.51913 9.72968 5.58286 9.72968C7.24862 9.72968 8.91438 9.72968 10.5801 9.73037C10.6898 9.73037 10.8001 9.73037 10.9022 9.68583C11.1009 9.59881 11.192 9.44326 11.1653 9.22811C11.14 9.02528 11.0207 8.89852 10.82 8.86152C10.7316 8.84507 10.6384 8.84781 10.5479 8.84781C9.72842 8.84713 8.90958 8.84781 8.09006 8.84781C7.4254 8.84781 6.76143 8.84781 6.09677 8.84781C5.87819 8.84781 5.6596 8.84233 5.4417 8.85192C5.17858 8.86426 4.99905 9.03967 4.9922 9.27333C4.98603 9.48712 5.1546 9.67898 5.39237 9.72009Z" fill="#08727E"/>
<path d="M24.172 25.374C24.0849 25.3528 23.9917 25.3487 23.9013 25.3487C21.0611 25.3473 18.2208 25.3473 15.3806 25.3487C14.9914 25.3487 14.779 25.5083 14.7783 25.79C14.7776 26.0702 14.9955 26.2326 15.3793 26.2367C15.4245 26.2367 15.4704 26.2367 15.5156 26.2367H19.6125C21.0234 26.2367 22.4349 26.2374 23.8458 26.2354C23.963 26.2354 24.0842 26.2278 24.1959 26.1977C24.396 26.1435 24.4988 25.9873 24.4974 25.7913C24.4961 25.5837 24.3864 25.4261 24.172 25.374Z" fill="#08727E"/>
<path d="M9.40893 25.3698C9.31163 25.352 9.21022 25.3479 9.11086 25.3479C7.68219 25.3465 6.25351 25.3465 4.82552 25.3479C4.71726 25.3479 4.60557 25.3506 4.50073 25.3732C4.28488 25.4212 4.17593 25.5802 4.17251 25.7871C4.16977 25.9831 4.27186 26.1393 4.47126 26.1962C4.57405 26.2256 4.68642 26.2339 4.794 26.2339C5.51279 26.2373 6.23158 26.2352 6.95038 26.2352C7.67808 26.2352 8.40646 26.2366 9.13416 26.2339C9.23283 26.2339 9.33424 26.2256 9.43017 26.203C9.65698 26.1489 9.76388 25.9892 9.75291 25.7645C9.74263 25.5514 9.62546 25.4089 9.40893 25.3698Z" fill="#08727E"/>
<path d="M11.355 25.3499C11.0987 25.3506 10.8918 25.5445 10.8897 25.7851C10.887 26.0338 11.1131 26.2428 11.3735 26.2325C11.6298 26.2229 11.8271 26.0242 11.8223 25.7803C11.8175 25.537 11.6133 25.3493 11.355 25.3499Z" fill="#08727E"/>
<path d="M13.2017 25.3514C12.9331 25.3432 12.7131 25.5426 12.7152 25.7933C12.7172 26.0311 12.9297 26.2319 13.1811 26.2339C13.4347 26.236 13.6437 26.0421 13.6498 25.8002C13.656 25.5535 13.4621 25.3596 13.2017 25.3514Z" fill="#08727E"/>
</svg>
