<svg width="28" height="28" viewBox="0 0 28 28" fill="none" xmlns="http://www.w3.org/2000/svg">
<path d="M-0.000976562 4.67204C-0.000976562 2.10074 2.10935 -0.00478647 4.67996 8.17244e-06C7.25194 0.00480281 9.35679 2.12129 9.34446 4.68916C9.33281 7.24882 7.23756 9.33928 4.67996 9.34476C2.11072 9.35024 -0.000976562 7.24197 -0.000976562 4.67204Z" fill="#08727E"/>
<path d="M11.6534 17.9128C10.1328 17.9011 8.92732 16.6751 8.93691 15.1504C8.9465 13.6325 10.1753 12.4236 11.6993 12.4332C13.2144 12.4428 14.4281 13.6764 14.4192 15.1963C14.4103 16.7107 13.1747 17.9244 11.6541 17.9128H11.6534Z" fill="#08727E"/>
<path d="M8.94308 24.4965C8.95061 22.9841 10.1863 21.7581 11.689 21.7711C13.2028 21.7841 14.4172 23.0122 14.4103 24.5232C14.4035 26.0301 13.1651 27.2589 11.6616 27.2507C10.1541 27.2424 8.93486 26.0075 8.94239 24.4965H8.94308Z" fill="#08727E"/>
<path d="M27.312 7.49333H12.3808C12.0025 7.49333 11.6959 7.8 11.6959 8.17828C11.6959 8.55657 12.0025 8.86323 12.3808 8.86323H27.312C27.6903 8.86323 27.997 8.55657 27.997 8.17828C27.997 7.8 27.6903 7.49333 27.312 7.49333Z" fill="#08727E"/>
<path d="M22.64 2.81925H12.3884C12.0101 2.81925 11.7034 3.12591 11.7034 3.5042C11.7034 3.88248 12.0101 4.18914 12.3884 4.18914H22.64C23.0183 4.18914 23.3249 3.88248 23.3249 3.5042C23.3249 3.12591 23.0183 2.81925 22.64 2.81925Z" fill="#08727E"/>
<path d="M27.3168 21.4903H18.2002C17.8219 21.4903 17.5152 21.7969 17.5152 22.1752C17.5152 22.5535 17.8219 22.8601 18.2002 22.8601H27.3168C27.6951 22.8601 28.0018 22.5535 28.0018 22.1752C28.0018 21.7969 27.6951 21.4903 27.3168 21.4903Z" fill="#08727E"/>
<path d="M27.3113 12.1578H18.2056C17.8273 12.1578 17.5207 12.4645 17.5207 12.8428C17.5207 13.2211 17.8273 13.5277 18.2056 13.5277H27.3113C27.6896 13.5277 27.9963 13.2211 27.9963 12.8428C27.9963 12.4645 27.6896 12.1578 27.3113 12.1578Z" fill="#08727E"/>
<path d="M24.9784 26.1623H18.2193C17.841 26.1623 17.5344 26.4689 17.5344 26.8472C17.5344 27.2255 17.841 27.5322 18.2193 27.5322H24.9784C25.3567 27.5322 25.6634 27.2255 25.6634 26.8472C25.6634 26.4689 25.3567 26.1623 24.9784 26.1623Z" fill="#08727E"/>
<path d="M22.6434 16.8182H18.2091C17.8308 16.8182 17.5241 17.1249 17.5241 17.5032C17.5241 17.8815 17.8308 18.1881 18.2091 18.1881H22.6434C23.0217 18.1881 23.3284 17.8815 23.3284 17.5032C23.3284 17.1249 23.0217 16.8182 22.6434 16.8182Z" fill="#08727E"/>
<path d="M5.8293 21.0053V23.3129H3.49911C3.49911 23.0519 3.49911 22.7848 3.49911 22.5177C3.49911 22.0971 3.48883 21.6759 3.50801 21.256C3.51212 21.1697 3.62308 21.0176 3.68815 21.0163C4.39023 20.9991 5.0923 21.0053 5.8293 21.0053Z" fill="#08727E"/>
<path d="M3.52856 11.69H5.81903V13.9914H3.52856V11.69Z" fill="#08727E"/>
<path d="M5.81012 18.6559H3.52308V16.3566H5.81012V18.6559Z" fill="#08727E"/>
<path d="M3.51623 28V25.7061H5.81834V28H3.51623Z" fill="#08727E"/>
</svg>
