<svg width="73" height="165" viewBox="0 0 73 165" fill="none" xmlns="http://www.w3.org/2000/svg">
<g opacity="0.18" filter="url(#filter0_f_6766_30832)">
<mask id="path-1-inside-1_6766_30832" fill="white">
<path fillRule="evenodd" clipRule="evenodd" d="M21.2022 159.861L19.8272 159.852L19.8287 159.623C10.6193 156.485 3.56931 122.627 3.838 81.371C4.10668 40.1151 11.5971 6.35184 20.8466 3.33353L20.8481 3.1051L22.223 3.11406L40.0977 3.23047L39.5872 81.6038L39.0768 159.977L21.2022 159.861Z"/>
</mask>
<path fillRule="evenodd" clipRule="evenodd" d="M21.2022 159.861L19.8272 159.852L19.8287 159.623C10.6193 156.485 3.56931 122.627 3.838 81.371C4.10668 40.1151 11.5971 6.35184 20.8466 3.33353L20.8481 3.1051L22.223 3.11406L40.0977 3.23047L39.5872 81.6038L39.0768 159.977L21.2022 159.861Z" fill="#2C2C2C"/>
<path d="M21.2022 159.861L21.1843 162.611L21.2022 159.861ZM19.8272 159.852L17.0773 159.834L17.0594 162.584L19.8093 162.602L19.8272 159.852ZM19.8287 159.623L22.5787 159.641L22.5916 157.66L20.7158 157.02L19.8287 159.623ZM20.8466 3.33353L21.6997 5.94786L23.5836 5.33309L23.5965 3.35144L20.8466 3.33353ZM20.8481 3.1051L20.866 0.355162L18.116 0.337252L18.0981 3.08719L20.8481 3.1051ZM40.0977 3.23047L42.8476 3.24838L42.8655 0.498436L40.1156 0.480527L40.0977 3.23047ZM39.5872 81.6038L42.3372 81.6217L39.5872 81.6038ZM39.0768 159.977L39.0589 162.727L41.8089 162.745L41.8268 159.995L39.0768 159.977ZM21.2201 157.111L19.8451 157.102L19.8093 162.602L21.1843 162.611L21.2201 157.111ZM22.5772 159.87L22.5787 159.641L17.0788 159.605L17.0773 159.834L22.5772 159.87ZM20.7158 157.02C20.2188 156.851 19.4969 156.384 18.6113 155.306C17.7369 154.242 16.8227 152.727 15.9073 150.729C14.0763 146.732 12.3914 141.14 10.9728 134.238C8.14058 120.457 6.45451 101.877 6.58794 81.3889L1.08806 81.3531C0.952803 102.121 2.6574 121.098 5.58539 135.345C7.04683 142.456 8.83444 148.496 10.9071 153.019C11.9435 155.282 13.0888 157.249 14.3617 158.798C15.6234 160.333 17.1363 161.611 18.9416 162.226L20.7158 157.02ZM6.58794 81.3889C6.72137 60.9007 8.6493 42.3445 11.6608 28.6018C13.1692 21.7181 14.9267 16.1488 16.8096 12.1765C17.7509 10.1906 18.6849 8.6872 19.5731 7.63442C20.4726 6.56819 21.2005 6.11075 21.6997 5.94786L19.9935 0.719204C18.1803 1.31088 16.6508 2.5688 15.3692 4.08788C14.0763 5.62041 12.9055 7.57223 11.8397 9.82072C9.70829 14.3172 7.84217 20.3332 6.28823 27.4245C3.17493 41.632 1.22331 60.5853 1.08806 81.3531L6.58794 81.3889ZM23.5965 3.35144L23.598 3.12301L18.0981 3.08719L18.0966 3.31562L23.5965 3.35144ZM20.8302 5.85505L22.2051 5.864L22.2409 0.364116L20.866 0.355162L20.8302 5.85505ZM22.2051 5.864L40.0797 5.98041L40.1156 0.480527L22.2409 0.364116L22.2051 5.864ZM37.3477 3.21256L36.8373 81.5859L42.3372 81.6217L42.8476 3.24838L37.3477 3.21256ZM36.8373 81.5859L36.3269 159.959L41.8268 159.995L42.3372 81.6217L36.8373 81.5859ZM39.0947 157.227L21.2201 157.111L21.1843 162.611L39.0589 162.727L39.0947 157.227Z" fill="#2C2C2C" mask="url(#path-1-inside-1_6766_30832)"/>
<mask id="path-3-inside-2_6766_30832" fill="white">
<path d="M40.0156 16.9814L39.9977 19.7314L12.4983 19.5523L12.5162 16.8024L40.0156 16.9814Z"/>
</mask>
<path d="M40.0156 16.9814L39.9977 19.7314L12.4983 19.5523L12.5162 16.8024L40.0156 16.9814Z" fill="#2C2C2C"/>
<path d="M40.0156 16.9814L42.7656 16.9994L42.7835 14.2494L40.0335 14.2315L40.0156 16.9814ZM39.9977 19.7314L39.9798 22.4813L42.7297 22.4992L42.7477 19.7493L39.9977 19.7314ZM37.2657 16.9635L37.2478 19.7135L42.7477 19.7493L42.7656 16.9994L37.2657 16.9635ZM40.0156 16.9814L12.5162 16.8024L12.4804 22.3022L39.9798 22.4813L40.0156 16.9814ZM12.4983 19.5523L39.9977 19.7314L40.0335 14.2315L12.5341 14.0524L12.4983 19.5523Z" fill="#2C2C2C" mask="url(#path-3-inside-2_6766_30832)"/>
<mask id="path-5-inside-3_6766_30832" fill="white">
<path d="M37.1445 34.8369L37.1266 37.5869L9.6272 37.4078L9.64511 34.6578L37.1445 34.8369Z"/>
</mask>
<path d="M37.1445 34.8369L37.1266 37.5869L9.6272 37.4078L9.64511 34.6578L37.1445 34.8369Z" fill="#2C2C2C"/>
<path d="M37.1445 34.8369L39.8945 34.8548L39.9124 32.1049L37.1624 32.087L37.1445 34.8369ZM37.1266 37.5869L37.1087 40.3368L39.8587 40.3547L39.8766 37.6048L37.1266 37.5869ZM34.3946 34.819L34.3767 37.5689L39.8766 37.6048L39.8945 34.8548L34.3946 34.819ZM37.1445 34.8369L9.64511 34.6578L9.60929 40.1577L37.1087 40.3368L37.1445 34.8369ZM9.6272 37.4078L37.1266 37.5869L37.1624 32.087L9.66302 31.9079L9.6272 37.4078Z" fill="#2C2C2C" mask="url(#path-5-inside-3_6766_30832)"/>
<mask id="path-7-inside-4_6766_30832" fill="white">
<path d="M34.2773 52.6963L34.2594 55.4462L6.76002 55.2671L6.77793 52.5172L34.2773 52.6963Z"/>
</mask>
<path d="M34.2773 52.6963L34.2594 55.4462L6.76002 55.2671L6.77793 52.5172L34.2773 52.6963Z" fill="#2C2C2C"/>
<path d="M34.2773 52.6963L37.0273 52.7142L37.0452 49.9643L34.2953 49.9463L34.2773 52.6963ZM34.2594 55.4462L34.2415 58.1962L36.9915 58.2141L37.0094 55.4641L34.2594 55.4462ZM31.5274 52.6784L31.5095 55.4283L37.0094 55.4641L37.0273 52.7142L31.5274 52.6784ZM34.2773 52.6963L6.77793 52.5172L6.74211 58.0171L34.2415 58.1962L34.2773 52.6963ZM6.76002 55.2671L34.2594 55.4462L34.2953 49.9463L6.79583 49.7673L6.76002 55.2671Z" fill="#2C2C2C" mask="url(#path-7-inside-4_6766_30832)"/>
<mask id="path-9-inside-5_6766_30832" fill="white">
<path d="M34.1602 70.5684L34.1422 73.3183L6.64283 73.1392L6.66074 70.3893L34.1602 70.5684Z"/>
</mask>
<path d="M34.1602 70.5684L34.1422 73.3183L6.64283 73.1392L6.66074 70.3893L34.1602 70.5684Z" fill="#2C2C2C"/>
<path d="M34.1602 70.5684L36.9101 70.5863L36.928 67.8363L34.1781 67.8184L34.1602 70.5684ZM34.1422 73.3183L34.1243 76.0682L36.8743 76.0862L36.8922 73.3362L34.1422 73.3183ZM31.4102 70.5505L31.3923 73.3004L36.8922 73.3362L36.9101 70.5863L31.4102 70.5505ZM34.1602 70.5684L6.66074 70.3893L6.62492 75.8891L34.1243 76.0682L34.1602 70.5684ZM6.64283 73.1392L34.1422 73.3183L34.1781 67.8184L6.67865 67.6393L6.64283 73.1392Z" fill="#2C2C2C" mask="url(#path-9-inside-5_6766_30832)"/>
<mask id="path-11-inside-6_6766_30832" fill="white">
<path d="M31.293 88.4277L31.2751 91.1777L3.77564 90.9986L3.79355 88.2486L31.293 88.4277Z"/>
</mask>
<path d="M31.293 88.4277L31.2751 91.1777L3.77564 90.9986L3.79355 88.2486L31.293 88.4277Z" fill="#2C2C2C"/>
<path d="M31.293 88.4277L34.0429 88.4456L34.0608 85.6957L31.3109 85.6778L31.293 88.4277ZM31.2751 91.1777L31.2572 93.9276L34.0071 93.9455L34.025 91.1956L31.2751 91.1777ZM28.543 88.4098L28.5251 91.1598L34.025 91.1956L34.0429 88.4456L28.543 88.4098ZM31.293 88.4277L3.79355 88.2486L3.75773 93.7485L31.2572 93.9276L31.293 88.4277ZM3.77564 90.9986L31.2751 91.1777L31.3109 85.6778L3.81146 85.4987L3.77564 90.9986Z" fill="#2C2C2C" mask="url(#path-11-inside-6_6766_30832)"/>
<mask id="path-13-inside-7_6766_30832" fill="white">
<path d="M33.9336 106.318L33.9157 109.068L6.41627 108.889L6.43418 106.139L33.9336 106.318Z"/>
</mask>
<path d="M33.9336 106.318L33.9157 109.068L6.41627 108.889L6.43418 106.139L33.9336 106.318Z" fill="#2C2C2C"/>
<path d="M33.9336 106.318L36.6835 106.336L36.7014 103.586L33.9515 103.568L33.9336 106.318ZM33.9157 109.068L33.8978 111.818L36.6477 111.836L36.6656 109.086L33.9157 109.068ZM31.1837 106.3L31.1657 109.05L36.6656 109.086L36.6835 106.336L31.1837 106.3ZM33.9336 106.318L6.43418 106.139L6.39836 111.639L33.8978 111.818L33.9336 106.318ZM6.41627 108.889L33.9157 109.068L33.9515 103.568L6.45208 103.389L6.41627 108.889Z" fill="#2C2C2C" mask="url(#path-13-inside-7_6766_30832)"/>
<mask id="path-15-inside-8_6766_30832" fill="white">
<path d="M36.5664 124.212L36.5485 126.962L9.04908 126.783L9.06699 124.033L36.5664 124.212Z"/>
</mask>
<path d="M36.5664 124.212L36.5485 126.962L9.04908 126.783L9.06699 124.033L36.5664 124.212Z" fill="#2C2C2C"/>
<path d="M36.5664 124.212L39.3163 124.23L39.3343 121.48L36.5843 121.462L36.5664 124.212ZM36.5485 126.962L36.5306 129.712L39.2805 129.73L39.2984 126.98L36.5485 126.962ZM33.8165 124.194L33.7986 126.944L39.2984 126.98L39.3163 124.23L33.8165 124.194ZM36.5664 124.212L9.06699 124.033L9.03117 129.533L36.5306 129.712L36.5664 124.212ZM9.04908 126.783L36.5485 126.962L36.5843 121.462L9.0849 121.283L9.04908 126.783Z" fill="#2C2C2C" mask="url(#path-15-inside-8_6766_30832)"/>
<mask id="path-17-inside-9_6766_30832" fill="white">
<path d="M39.1992 142.104L39.1813 144.853L11.6819 144.674L11.6998 141.924L39.1992 142.104Z"/>
</mask>
<path d="M39.1992 142.104L39.1813 144.853L11.6819 144.674L11.6998 141.924L39.1992 142.104Z" fill="#2C2C2C"/>
<path d="M39.1992 142.104L41.9492 142.121L41.9671 139.371L39.2171 139.354L39.1992 142.104ZM39.1813 144.853L39.1634 147.603L41.9133 147.621L41.9313 144.871L39.1813 144.853ZM36.4493 142.086L36.4314 144.836L41.9313 144.871L41.9492 142.121L36.4493 142.086ZM39.1992 142.104L11.6998 141.924L11.664 147.424L39.1634 147.603L39.1992 142.104ZM11.6819 144.674L39.1813 144.853L39.2171 139.354L11.7177 139.174L11.6819 144.674Z" fill="#2C2C2C" mask="url(#path-17-inside-9_6766_30832)"/>
<path d="M40.4651 158.613C39.6673 158.608 38.7778 158.253 37.789 157.355C36.7921 156.448 35.768 155.051 34.7531 153.139C32.7243 149.317 30.8684 143.703 29.3089 136.653C26.1947 122.577 24.3264 103.078 24.4669 81.5069C24.6074 59.9361 26.7295 40.4631 30.0267 26.4282C31.678 19.3997 33.6068 13.8103 35.6852 10.0151C36.7249 8.11665 37.7672 6.7324 38.7758 5.83922C39.7761 4.95337 40.6702 4.61079 41.468 4.61598C42.2658 4.62118 43.1553 4.97537 44.144 5.87418C45.1409 6.78042 46.1651 8.17813 47.1799 10.09C49.2088 13.9119 51.0646 19.5259 52.6242 26.5754C55.7383 40.6521 57.6067 60.151 57.4662 81.7218C57.3257 103.293 55.2036 122.766 51.9063 136.801C50.2551 143.829 48.3263 149.418 46.2478 153.214C45.2081 155.112 44.1659 156.496 43.1573 157.389C42.1569 158.275 41.2628 158.618 40.4651 158.613Z" fill="#2C2C2C" stroke="#2C2C2C" strokeWidth="2.75"/>
</g>
<mask id="path-20-inside-10_6766_30832" fill="white">
<path fillRule="evenodd" clipRule="evenodd" d="M34.2022 163.861L32.8272 163.852L32.8287 163.623C23.6193 160.485 16.5693 126.627 16.838 85.371C17.1067 44.1151 24.5971 10.3518 33.8466 7.33353L33.8481 7.1051L35.223 7.11406L53.0977 7.23047L52.5872 85.6038L52.0768 163.977L34.2022 163.861Z"/>
</mask>
<path fillRule="evenodd" clipRule="evenodd" d="M34.2022 163.861L32.8272 163.852L32.8287 163.623C23.6193 160.485 16.5693 126.627 16.838 85.371C17.1067 44.1151 24.5971 10.3518 33.8466 7.33353L33.8481 7.1051L35.223 7.11406L53.0977 7.23047L52.5872 85.6038L52.0768 163.977L34.2022 163.861Z" fill="#5BBC2E"/>
<path d="M32.8272 163.852L30.0773 163.834L30.0594 166.584L32.8093 166.602L32.8272 163.852ZM32.8287 163.623L35.5787 163.641L35.5916 161.66L33.7158 161.02L32.8287 163.623ZM33.8466 7.33353L34.6997 9.94786L36.5836 9.33309L36.5965 7.35144L33.8466 7.33353ZM33.8481 7.1051L33.866 4.35516L31.116 4.33725L31.0981 7.08719L33.8481 7.1051ZM53.0977 7.23047L55.8476 7.24838L55.8655 4.49844L53.1156 4.48053L53.0977 7.23047ZM52.5872 85.6038L49.8373 85.5859L52.5872 85.6038ZM52.0768 163.977L52.0589 166.727L54.8089 166.745L54.8268 163.995L52.0768 163.977ZM34.2201 161.111L32.8451 161.102L32.8093 166.602L34.1843 166.611L34.2201 161.111ZM35.5772 163.87L35.5787 163.641L30.0788 163.605L30.0773 163.834L35.5772 163.87ZM33.7158 161.02C33.2188 160.851 32.4969 160.384 31.6113 159.306C30.7369 158.242 29.8227 156.727 28.9073 154.729C27.0763 150.732 25.3914 145.14 23.9728 138.238C21.1406 124.457 19.4545 105.877 19.5879 85.3889L14.0881 85.3531C13.9528 106.121 15.6574 125.098 18.5854 139.345C20.0468 146.456 21.8344 152.496 23.9071 157.019C24.9435 159.282 26.0888 161.249 27.3617 162.798C28.6234 164.333 30.1363 165.611 31.9416 166.226L33.7158 161.02ZM19.5879 85.3889C19.7214 64.9007 21.6493 46.3445 24.6608 32.6018C26.1692 25.7181 27.9267 20.1488 29.8096 16.1765C30.7509 14.1906 31.6849 12.6872 32.5731 11.6344C33.4726 10.5682 34.2005 10.1108 34.6997 9.94786L32.9935 4.7192C31.1803 5.31088 29.6508 6.5688 28.3692 8.08788C27.0763 9.62041 25.9055 11.5722 24.8397 13.8207C22.7083 18.3172 20.8422 24.3332 19.2882 31.4245C16.1749 45.632 14.2233 64.5853 14.0881 85.3531L19.5879 85.3889ZM36.5965 7.35144L36.598 7.12301L31.0981 7.08719L31.0966 7.31562L36.5965 7.35144ZM33.8302 9.85505L35.2051 9.864L35.2409 4.36412L33.866 4.35516L33.8302 9.85505ZM35.2051 9.864L53.0797 9.98041L53.1156 4.48053L35.2409 4.36412L35.2051 9.864ZM50.3477 7.21256L49.8373 85.5859L55.3372 85.6217L55.8476 7.24838L50.3477 7.21256ZM49.8373 85.5859L49.3269 163.959L54.8268 163.995L55.3372 85.6217L49.8373 85.5859ZM52.0947 161.227L34.2201 161.111L34.1843 166.611L52.0589 166.727L52.0947 161.227Z" fill="#5BBC2E" mask="url(#path-20-inside-10_6766_30832)"/>
<mask id="path-22-inside-11_6766_30832" fill="white">
<path d="M53.0156 20.9814L52.9977 23.7314L25.4983 23.5523L25.5162 20.8024L53.0156 20.9814Z"/>
</mask>
<path d="M53.0156 20.9814L52.9977 23.7314L25.4983 23.5523L25.5162 20.8024L53.0156 20.9814Z" fill="white"/>
<path d="M53.0156 20.9814L55.7656 20.9994L55.7835 18.2494L53.0335 18.2315L53.0156 20.9814ZM52.9977 23.7314L52.9798 26.4813L55.7297 26.4992L55.7477 23.7493L52.9977 23.7314ZM50.2657 20.9635L50.2478 23.7135L55.7477 23.7493L55.7656 20.9994L50.2657 20.9635ZM53.0156 20.9814L25.5162 20.8024L25.4804 26.3022L52.9798 26.4813L53.0156 20.9814ZM25.4983 23.5523L52.9977 23.7314L53.0335 18.2315L25.5341 18.0524L25.4983 23.5523Z" fill="#FAFAFA" mask="url(#path-22-inside-11_6766_30832)"/>
<mask id="path-24-inside-12_6766_30832" fill="white">
<path d="M50.1445 38.8369L50.1266 41.5869L22.6272 41.4078L22.6451 38.6578L50.1445 38.8369Z"/>
</mask>
<path d="M50.1445 38.8369L50.1266 41.5869L22.6272 41.4078L22.6451 38.6578L50.1445 38.8369Z" fill="white"/>
<path d="M50.1445 38.8369L52.8945 38.8548L52.9124 36.1049L50.1624 36.087L50.1445 38.8369ZM50.1266 41.5869L50.1087 44.3368L52.8587 44.3547L52.8766 41.6048L50.1266 41.5869ZM47.3946 38.819L47.3767 41.5689L52.8766 41.6048L52.8945 38.8548L47.3946 38.819ZM50.1445 38.8369L22.6451 38.6578L22.6093 44.1577L50.1087 44.3368L50.1445 38.8369ZM22.6272 41.4078L50.1266 41.5869L50.1624 36.087L22.663 35.9079L22.6272 41.4078Z" fill="#FAFAFA" mask="url(#path-24-inside-12_6766_30832)"/>
<mask id="path-26-inside-13_6766_30832" fill="white">
<path d="M47.2773 56.6963L47.2594 59.4462L19.76 59.2671L19.7779 56.5172L47.2773 56.6963Z"/>
</mask>
<path d="M47.2773 56.6963L47.2594 59.4462L19.76 59.2671L19.7779 56.5172L47.2773 56.6963Z" fill="white"/>
<path d="M47.2773 56.6963L50.0273 56.7142L50.0452 53.9643L47.2953 53.9463L47.2773 56.6963ZM47.2594 59.4462L47.2415 62.1962L49.9915 62.2141L50.0094 59.4641L47.2594 59.4462ZM44.5274 56.6784L44.5095 59.4283L50.0094 59.4641L50.0273 56.7142L44.5274 56.6784ZM47.2773 56.6963L19.7779 56.5172L19.7421 62.0171L47.2415 62.1962L47.2773 56.6963ZM19.76 59.2671L47.2594 59.4462L47.2953 53.9463L19.7958 53.7673L19.76 59.2671Z" fill="#FAFAFA" mask="url(#path-26-inside-13_6766_30832)"/>
<mask id="path-28-inside-14_6766_30832" fill="white">
<path d="M47.1602 74.5684L47.1422 77.3183L19.6428 77.1392L19.6607 74.3893L47.1602 74.5684Z"/>
</mask>
<path d="M47.1602 74.5684L47.1422 77.3183L19.6428 77.1392L19.6607 74.3893L47.1602 74.5684Z" fill="white"/>
<path d="M47.1602 74.5684L49.9101 74.5863L49.928 71.8363L47.1781 71.8184L47.1602 74.5684ZM47.1422 77.3183L47.1243 80.0682L49.8743 80.0862L49.8922 77.3362L47.1422 77.3183ZM44.4102 74.5505L44.3923 77.3004L49.8922 77.3362L49.9101 74.5863L44.4102 74.5505ZM47.1602 74.5684L19.6607 74.3893L19.6249 79.8891L47.1243 80.0682L47.1602 74.5684ZM19.6428 77.1392L47.1422 77.3183L47.1781 71.8184L19.6786 71.6393L19.6428 77.1392Z" fill="#FAFAFA" mask="url(#path-28-inside-14_6766_30832)"/>
<mask id="path-30-inside-15_6766_30832" fill="white">
<path d="M44.293 92.4277L44.2751 95.1777L16.7756 94.9986L16.7936 92.2486L44.293 92.4277Z"/>
</mask>
<path d="M44.293 92.4277L44.2751 95.1777L16.7756 94.9986L16.7936 92.2486L44.293 92.4277Z" fill="white"/>
<path d="M44.293 92.4277L47.0429 92.4456L47.0608 89.6957L44.3109 89.6778L44.293 92.4277ZM44.2751 95.1777L44.2572 97.9276L47.0071 97.9455L47.025 95.1956L44.2751 95.1777ZM41.543 92.4098L41.5251 95.1598L47.025 95.1956L47.0429 92.4456L41.543 92.4098ZM44.293 92.4277L16.7936 92.2486L16.7577 97.7485L44.2572 97.9276L44.293 92.4277ZM16.7756 94.9986L44.2751 95.1777L44.3109 89.6778L16.8115 89.4987L16.7756 94.9986Z" fill="#FAFAFA" mask="url(#path-30-inside-15_6766_30832)"/>
<mask id="path-32-inside-16_6766_30832" fill="white">
<path d="M46.9336 110.318L46.9157 113.068L19.4163 112.889L19.4342 110.139L46.9336 110.318Z"/>
</mask>
<path d="M46.9336 110.318L46.9157 113.068L19.4163 112.889L19.4342 110.139L46.9336 110.318Z" fill="white"/>
<path d="M46.9336 110.318L49.6835 110.336L49.7014 107.586L46.9515 107.568L46.9336 110.318ZM46.9157 113.068L46.8978 115.818L49.6477 115.836L49.6656 113.086L46.9157 113.068ZM44.1837 110.3L44.1657 113.05L49.6656 113.086L49.6835 110.336L44.1837 110.3ZM46.9336 110.318L19.4342 110.139L19.3984 115.639L46.8978 115.818L46.9336 110.318ZM19.4163 112.889L46.9157 113.068L46.9515 107.568L19.4521 107.389L19.4163 112.889Z" fill="#FAFAFA" mask="url(#path-32-inside-16_6766_30832)"/>
<mask id="path-34-inside-17_6766_30832" fill="white">
<path d="M49.5664 128.212L49.5485 130.962L22.0491 130.783L22.067 128.033L49.5664 128.212Z"/>
</mask>
<path d="M49.5664 128.212L49.5485 130.962L22.0491 130.783L22.067 128.033L49.5664 128.212Z" fill="white"/>
<path d="M49.5664 128.212L52.3163 128.23L52.3343 125.48L49.5843 125.462L49.5664 128.212ZM49.5485 130.962L49.5306 133.712L52.2805 133.73L52.2984 130.98L49.5485 130.962ZM46.8165 128.194L46.7986 130.944L52.2984 130.98L52.3163 128.23L46.8165 128.194ZM49.5664 128.212L22.067 128.033L22.0312 133.533L49.5306 133.712L49.5664 128.212ZM22.0491 130.783L49.5485 130.962L49.5843 125.462L22.0849 125.283L22.0491 130.783Z" fill="#FAFAFA" mask="url(#path-34-inside-17_6766_30832)"/>
<mask id="path-36-inside-18_6766_30832" fill="white">
<path d="M52.1992 146.104L52.1813 148.853L24.6819 148.674L24.6998 145.924L52.1992 146.104Z"/>
</mask>
<path d="M52.1992 146.104L52.1813 148.853L24.6819 148.674L24.6998 145.924L52.1992 146.104Z" fill="white"/>
<path d="M52.1992 146.104L54.9492 146.121L54.9671 143.371L52.2171 143.354L52.1992 146.104ZM52.1813 148.853L52.1634 151.603L54.9133 151.621L54.9313 148.871L52.1813 148.853ZM49.4493 146.086L49.4314 148.836L54.9313 148.871L54.9492 146.121L49.4493 146.086ZM52.1992 146.104L24.6998 145.924L24.664 151.424L52.1634 151.603L52.1992 146.104ZM24.6819 148.674L52.1813 148.853L52.2171 143.354L24.7177 143.174L24.6819 148.674Z" fill="#FAFAFA" mask="url(#path-36-inside-18_6766_30832)"/>
<mask id="path-38-inside-19_6766_30832" fill="white">
<path fillRule="evenodd" clipRule="evenodd" d="M34.2022 163.861L32.8272 163.852L32.8287 163.623C23.6193 160.485 16.5693 126.627 16.838 85.371C17.1067 44.1151 24.5971 10.3518 33.8466 7.33353L33.8481 7.1051L35.223 7.11406L53.0977 7.23047L52.5872 85.6038L52.0768 163.977L34.2022 163.861Z"/>
</mask>
<path d="M32.8272 163.852L30.0773 163.834L30.0594 166.584L32.8093 166.602L32.8272 163.852ZM32.8287 163.623L35.5787 163.641L35.5916 161.66L33.7158 161.02L32.8287 163.623ZM33.8466 7.33353L34.6997 9.94786L36.5836 9.33309L36.5965 7.35144L33.8466 7.33353ZM33.8481 7.1051L33.866 4.35516L31.116 4.33725L31.0981 7.08719L33.8481 7.1051ZM53.0977 7.23047L55.8476 7.24838L55.8655 4.49844L53.1156 4.48053L53.0977 7.23047ZM52.5872 85.6038L49.8373 85.5859L52.5872 85.6038ZM52.0768 163.977L52.0589 166.727L54.8089 166.745L54.8268 163.995L52.0768 163.977ZM34.2201 161.111L32.8451 161.102L32.8093 166.602L34.1843 166.611L34.2201 161.111ZM35.5772 163.87L35.5787 163.641L30.0788 163.605L30.0773 163.834L35.5772 163.87ZM33.7158 161.02C33.2188 160.851 32.4969 160.384 31.6113 159.306C30.7369 158.242 29.8227 156.727 28.9073 154.729C27.0763 150.732 25.3914 145.14 23.9728 138.238C21.1406 124.457 19.4545 105.877 19.5879 85.3889L14.0881 85.3531C13.9528 106.121 15.6574 125.098 18.5854 139.345C20.0468 146.456 21.8344 152.496 23.9071 157.019C24.9435 159.282 26.0888 161.249 27.3617 162.798C28.6234 164.333 30.1363 165.611 31.9416 166.226L33.7158 161.02ZM19.5879 85.3889C19.7214 64.9007 21.6493 46.3445 24.6608 32.6018C26.1692 25.7181 27.9267 20.1488 29.8096 16.1765C30.7509 14.1906 31.6849 12.6872 32.5731 11.6344C33.4726 10.5682 34.2005 10.1108 34.6997 9.94786L32.9935 4.7192C31.1803 5.31088 29.6508 6.5688 28.3692 8.08788C27.0763 9.62041 25.9055 11.5722 24.8397 13.8207C22.7083 18.3172 20.8422 24.3332 19.2882 31.4245C16.1749 45.632 14.2233 64.5853 14.0881 85.3531L19.5879 85.3889ZM36.5965 7.35144L36.598 7.12301L31.0981 7.08719L31.0966 7.31562L36.5965 7.35144ZM33.8302 9.85505L35.2051 9.864L35.2409 4.36412L33.866 4.35516L33.8302 9.85505ZM35.2051 9.864L53.0797 9.98041L53.1156 4.48053L35.2409 4.36412L35.2051 9.864ZM50.3477 7.21256L49.8373 85.5859L55.3372 85.6217L55.8476 7.24838L50.3477 7.21256ZM49.8373 85.5859L49.3269 163.959L54.8268 163.995L55.3372 85.6217L49.8373 85.5859ZM52.0947 161.227L34.2201 161.111L34.1843 166.611L52.0589 166.727L52.0947 161.227Z" fill="#5BBC2E" mask="url(#path-38-inside-19_6766_30832)"/>
<path d="M53.4651 162.613C52.6673 162.608 51.7778 162.253 50.789 161.355C49.7921 160.448 48.768 159.051 47.7531 157.139C45.7243 153.317 43.8684 147.703 42.3089 140.653C39.1947 126.577 37.3264 107.078 37.4669 85.5069C37.6074 63.9361 39.7295 44.4631 43.0267 30.4282C44.678 23.3997 46.6068 17.8103 48.6852 14.0151C49.7249 12.1167 50.7672 10.7324 51.7758 9.83922C52.7761 8.95337 53.6702 8.61079 54.468 8.61598C55.2658 8.62118 56.1553 8.97537 57.144 9.87418C58.1409 10.7804 59.1651 12.1781 60.1799 14.09C62.2088 17.9119 64.0646 23.5259 65.6242 30.5754C68.7383 44.6521 70.6067 64.151 70.4662 85.7218C70.3257 107.293 68.2036 126.766 64.9063 140.801C63.2551 147.829 61.3263 153.418 59.2478 157.214C58.2081 159.112 57.1659 160.496 56.1573 161.389C55.1569 162.275 54.2628 162.618 53.4651 162.613Z" fill="white" stroke="#5BBC2E" strokeWidth="2.75"/>
<defs>
<filter id="filter0_f_6766_30832" x="0.332031" y="-0.000976562" width="62.0195" height="163.105" filterUnits="userSpaceOnUse" color-interpolation-filters="sRGB">
<feFlood flood-opacity="0" result="BackgroundImageFix"/>
<feBlend mode="normal" in="SourceGraphic" in2="BackgroundImageFix" result="shape"/>
<feGaussianBlur stdDeviation="1.5" result="effect1_foregroundBlur_6766_30832"/>
</filter>
</defs>
</svg>
