<svg width="76" height="163" viewBox="0 0 76 163" fill="none" xmlns="http://www.w3.org/2000/svg">
<g opacity="0.18" filter="url(#filter0_f_6766_30831)">
<mask id="path-1-inside-1_6766_30831" fill="white">
<path fillRule="evenodd" clipRule="evenodd" d="M21.2022 159.861L19.8272 159.852L19.8287 159.623C10.6193 156.485 3.56931 122.627 3.838 81.371C4.10668 40.1151 11.5971 6.35184 20.8466 3.33353L20.8481 3.1051L22.223 3.11406L40.0977 3.23047L39.5872 81.6038L39.0768 159.977L21.2022 159.861Z"/>
</mask>
<path fillRule="evenodd" clipRule="evenodd" d="M21.2022 159.861L19.8272 159.852L19.8287 159.623C10.6193 156.485 3.56931 122.627 3.838 81.371C4.10668 40.1151 11.5971 6.35184 20.8466 3.33353L20.8481 3.1051L22.223 3.11406L40.0977 3.23047L39.5872 81.6038L39.0768 159.977L21.2022 159.861Z" fill="#2C2C2C"/>
<path d="M21.2022 159.861L21.2201 157.111L21.2022 159.861ZM19.8272 159.852L17.0773 159.834L17.0594 162.584L19.8093 162.602L19.8272 159.852ZM19.8287 159.623L22.5787 159.641L22.5916 157.66L20.7158 157.02L19.8287 159.623ZM20.8466 3.33353L21.6997 5.94786L23.5836 5.33309L23.5965 3.35144L20.8466 3.33353ZM20.8481 3.1051L20.866 0.355162L18.116 0.337252L18.0981 3.08719L20.8481 3.1051ZM40.0977 3.23047L42.8476 3.24838L42.8655 0.498436L40.1156 0.480527L40.0977 3.23047ZM39.5872 81.6038L42.3372 81.6217L39.5872 81.6038ZM39.0768 159.977L39.0589 162.727L41.8089 162.745L41.8268 159.995L39.0768 159.977ZM21.2201 157.111L19.8451 157.102L19.8093 162.602L21.1843 162.611L21.2201 157.111ZM22.5772 159.87L22.5787 159.641L17.0788 159.605L17.0773 159.834L22.5772 159.87ZM20.7158 157.02C20.2188 156.851 19.4969 156.384 18.6113 155.306C17.7369 154.242 16.8227 152.727 15.9073 150.729C14.0763 146.732 12.3914 141.14 10.9728 134.238C8.14058 120.457 6.45451 101.877 6.58794 81.3889L1.08806 81.3531C0.952803 102.121 2.6574 121.098 5.58539 135.345C7.04683 142.456 8.83444 148.496 10.9071 153.019C11.9435 155.282 13.0888 157.249 14.3617 158.798C15.6234 160.333 17.1363 161.611 18.9416 162.226L20.7158 157.02ZM6.58794 81.3889C6.72137 60.9007 8.6493 42.3445 11.6608 28.6018C13.1692 21.7181 14.9267 16.1488 16.8096 12.1765C17.7509 10.1906 18.6849 8.6872 19.5731 7.63442C20.4726 6.56819 21.2005 6.11075 21.6997 5.94786L19.9935 0.719204C18.1803 1.31088 16.6508 2.5688 15.3692 4.08788C14.0763 5.62041 12.9055 7.57223 11.8397 9.82072C9.70829 14.3172 7.84217 20.3332 6.28823 27.4245C3.17493 41.632 1.22331 60.5853 1.08806 81.3531L6.58794 81.3889ZM23.5965 3.35144L23.598 3.12301L18.0981 3.08719L18.0966 3.31562L23.5965 3.35144ZM20.8302 5.85505L22.2051 5.864L22.2409 0.364116L20.866 0.355162L20.8302 5.85505ZM22.2051 5.864L40.0797 5.98041L40.1156 0.480527L22.2409 0.364116L22.2051 5.864ZM37.3477 3.21256L36.8373 81.5859L42.3372 81.6217L42.8476 3.24838L37.3477 3.21256ZM36.8373 81.5859L36.3269 159.959L41.8268 159.995L42.3372 81.6217L36.8373 81.5859ZM39.0947 157.227L21.2201 157.111L21.1843 162.611L39.0589 162.727L39.0947 157.227Z" fill="#2C2C2C" mask="url(#path-1-inside-1_6766_30831)"/>
<mask id="path-3-inside-2_6766_30831" fill="white">
<path d="M40.0156 16.9814L39.9977 19.7314L12.4983 19.5523L12.5162 16.8024L40.0156 16.9814Z"/>
</mask>
<path d="M40.0156 16.9814L39.9977 19.7314L12.4983 19.5523L12.5162 16.8024L40.0156 16.9814Z" fill="#2C2C2C"/>
<path d="M40.0156 16.9814L42.7656 16.9994L42.7835 14.2494L40.0335 14.2315L40.0156 16.9814ZM39.9977 19.7314L39.9798 22.4813L42.7297 22.4992L42.7477 19.7493L39.9977 19.7314ZM37.2657 16.9635L37.2478 19.7135L42.7477 19.7493L42.7656 16.9994L37.2657 16.9635ZM40.0156 16.9814L12.5162 16.8024L12.4804 22.3022L39.9798 22.4813L40.0156 16.9814ZM12.4983 19.5523L39.9977 19.7314L40.0335 14.2315L12.5341 14.0524L12.4983 19.5523Z" fill="#2C2C2C" mask="url(#path-3-inside-2_6766_30831)"/>
<mask id="path-5-inside-3_6766_30831" fill="white">
<path d="M37.1445 34.8369L37.1266 37.5869L9.6272 37.4078L9.64511 34.6578L37.1445 34.8369Z"/>
</mask>
<path d="M37.1445 34.8369L37.1266 37.5869L9.6272 37.4078L9.64511 34.6578L37.1445 34.8369Z" fill="#2C2C2C"/>
<path d="M37.1445 34.8369L39.8945 34.8548L39.9124 32.1049L37.1624 32.087L37.1445 34.8369ZM37.1266 37.5869L37.1087 40.3368L39.8587 40.3547L39.8766 37.6048L37.1266 37.5869ZM34.3946 34.819L34.3767 37.5689L39.8766 37.6048L39.8945 34.8548L34.3946 34.819ZM37.1445 34.8369L9.64511 34.6578L9.60929 40.1577L37.1087 40.3368L37.1445 34.8369ZM9.6272 37.4078L37.1266 37.5869L37.1624 32.087L9.66302 31.9079L9.6272 37.4078Z" fill="#2C2C2C" mask="url(#path-5-inside-3_6766_30831)"/>
<mask id="path-7-inside-4_6766_30831" fill="white">
<path d="M34.2773 52.6963L34.2594 55.4462L6.76002 55.2671L6.77793 52.5172L34.2773 52.6963Z"/>
</mask>
<path d="M34.2773 52.6963L34.2594 55.4462L6.76002 55.2671L6.77793 52.5172L34.2773 52.6963Z" fill="#2C2C2C"/>
<path d="M34.2773 52.6963L37.0273 52.7142L37.0452 49.9643L34.2953 49.9463L34.2773 52.6963ZM34.2594 55.4462L34.2415 58.1962L36.9915 58.2141L37.0094 55.4641L34.2594 55.4462ZM31.5274 52.6784L31.5095 55.4283L37.0094 55.4641L37.0273 52.7142L31.5274 52.6784ZM34.2773 52.6963L6.77793 52.5172L6.74211 58.0171L34.2415 58.1962L34.2773 52.6963ZM6.76002 55.2671L34.2594 55.4462L34.2953 49.9463L6.79583 49.7673L6.76002 55.2671Z" fill="#2C2C2C" mask="url(#path-7-inside-4_6766_30831)"/>
<mask id="path-9-inside-5_6766_30831" fill="white">
<path d="M34.1602 70.5684L34.1422 73.3183L6.64283 73.1392L6.66074 70.3893L34.1602 70.5684Z"/>
</mask>
<path d="M34.1602 70.5684L34.1422 73.3183L6.64283 73.1392L6.66074 70.3893L34.1602 70.5684Z" fill="#2C2C2C"/>
<path d="M34.1602 70.5684L36.9101 70.5863L36.928 67.8363L34.1781 67.8184L34.1602 70.5684ZM34.1422 73.3183L34.1243 76.0682L36.8743 76.0862L36.8922 73.3362L34.1422 73.3183ZM31.4102 70.5505L31.3923 73.3004L36.8922 73.3362L36.9101 70.5863L31.4102 70.5505ZM34.1602 70.5684L6.66074 70.3893L6.62492 75.8891L34.1243 76.0682L34.1602 70.5684ZM6.64283 73.1392L34.1422 73.3183L34.1781 67.8184L6.67865 67.6393L6.64283 73.1392Z" fill="#2C2C2C" mask="url(#path-9-inside-5_6766_30831)"/>
<mask id="path-11-inside-6_6766_30831" fill="white">
<path d="M31.293 88.4277L31.2751 91.1777L3.77564 90.9986L3.79355 88.2486L31.293 88.4277Z"/>
</mask>
<path d="M31.293 88.4277L31.2751 91.1777L3.77564 90.9986L3.79355 88.2486L31.293 88.4277Z" fill="#2C2C2C"/>
<path d="M31.293 88.4277L34.0429 88.4456L34.0608 85.6957L31.3109 85.6778L31.293 88.4277ZM31.2751 91.1777L31.2572 93.9276L34.0071 93.9455L34.025 91.1956L31.2751 91.1777ZM28.543 88.4098L28.5251 91.1598L34.025 91.1956L34.0429 88.4456L28.543 88.4098ZM31.293 88.4277L3.79355 88.2486L3.75773 93.7485L31.2572 93.9276L31.293 88.4277ZM3.77564 90.9986L31.2751 91.1777L31.3109 85.6778L3.81146 85.4987L3.77564 90.9986Z" fill="#2C2C2C" mask="url(#path-11-inside-6_6766_30831)"/>
<mask id="path-13-inside-7_6766_30831" fill="white">
<path d="M33.9336 106.318L33.9157 109.068L6.41627 108.889L6.43418 106.139L33.9336 106.318Z"/>
</mask>
<path d="M33.9336 106.318L33.9157 109.068L6.41627 108.889L6.43418 106.139L33.9336 106.318Z" fill="#2C2C2C"/>
<path d="M33.9336 106.318L36.6835 106.336L36.7014 103.586L33.9515 103.568L33.9336 106.318ZM33.9157 109.068L33.8978 111.818L36.6477 111.836L36.6656 109.086L33.9157 109.068ZM31.1837 106.3L31.1657 109.05L36.6656 109.086L36.6835 106.336L31.1837 106.3ZM33.9336 106.318L6.43418 106.139L6.39836 111.639L33.8978 111.818L33.9336 106.318ZM6.41627 108.889L33.9157 109.068L33.9515 103.568L6.45208 103.389L6.41627 108.889Z" fill="#2C2C2C" mask="url(#path-13-inside-7_6766_30831)"/>
<mask id="path-15-inside-8_6766_30831" fill="white">
<path d="M36.5664 124.212L36.5485 126.962L9.04908 126.783L9.06699 124.033L36.5664 124.212Z"/>
</mask>
<path d="M36.5664 124.212L36.5485 126.962L9.04908 126.783L9.06699 124.033L36.5664 124.212Z" fill="#2C2C2C"/>
<path d="M36.5664 124.212L39.3163 124.23L39.3343 121.48L36.5843 121.462L36.5664 124.212ZM36.5485 126.962L36.5306 129.712L39.2805 129.73L39.2984 126.98L36.5485 126.962ZM33.8165 124.194L33.7986 126.944L39.2984 126.98L39.3163 124.23L33.8165 124.194ZM36.5664 124.212L9.06699 124.033L9.03117 129.533L36.5306 129.712L36.5664 124.212ZM9.04908 126.783L36.5485 126.962L36.5843 121.462L9.0849 121.283L9.04908 126.783Z" fill="#2C2C2C" mask="url(#path-15-inside-8_6766_30831)"/>
<mask id="path-17-inside-9_6766_30831" fill="white">
<path d="M39.1992 142.104L39.1813 144.853L11.6819 144.674L11.6998 141.924L39.1992 142.104Z"/>
</mask>
<path d="M39.1992 142.104L39.1813 144.853L11.6819 144.674L11.6998 141.924L39.1992 142.104Z" fill="#2C2C2C"/>
<path d="M39.1992 142.104L41.9492 142.121L41.9671 139.371L39.2171 139.354L39.1992 142.104ZM39.1813 144.853L39.1634 147.603L41.9133 147.621L41.9313 144.871L39.1813 144.853ZM36.4493 142.086L36.4314 144.836L41.9313 144.871L41.9492 142.121L36.4493 142.086ZM39.1992 142.104L11.6998 141.924L11.664 147.424L39.1634 147.603L39.1992 142.104ZM11.6819 144.674L39.1813 144.853L39.2171 139.354L11.7177 139.174L11.6819 144.674Z" fill="#2C2C2C" mask="url(#path-17-inside-9_6766_30831)"/>
<path d="M40.4651 158.613C39.6673 158.608 38.7778 158.253 37.789 157.355C36.7921 156.448 35.768 155.051 34.7531 153.139C32.7243 149.317 30.8684 143.703 29.3089 136.653C26.1947 122.577 24.3264 103.078 24.4669 81.5069C24.6074 59.9361 26.7295 40.4631 30.0267 26.4282C31.678 19.3997 33.6068 13.8103 35.6852 10.0151C36.7249 8.11665 37.7672 6.7324 38.7758 5.83922C39.7761 4.95337 40.6702 4.61079 41.468 4.61598C42.2658 4.62118 43.1553 4.97537 44.144 5.87418C45.1409 6.78042 46.1651 8.17813 47.1799 10.09C49.2088 13.9119 51.0646 19.5259 52.6242 26.5754C55.7383 40.6521 57.6067 60.151 57.4662 81.7218C57.3257 103.293 55.2036 122.766 51.9063 136.801C50.2551 143.829 48.3263 149.418 46.2478 153.214C45.2081 155.112 44.1659 156.496 43.1573 157.389C42.1569 158.275 41.2628 158.618 40.4651 158.613Z" fill="#2C2C2C" stroke="#2C2C2C" strokeWidth="2.75"/>
</g>
<mask id="path-20-inside-10_6766_30831" fill="white">
<path fillRule="evenodd" clipRule="evenodd" d="M37.2022 161.861L35.8272 161.852L35.8287 161.623C26.6193 158.485 19.5693 124.627 19.838 83.371C20.1067 42.1151 27.5971 8.35184 36.8466 5.33353L36.8481 5.1051L38.223 5.11406L56.0977 5.23047L55.5872 83.6038L55.0768 161.977L37.2022 161.861Z"/>
</mask>
<path fillRule="evenodd" clipRule="evenodd" d="M37.2022 161.861L35.8272 161.852L35.8287 161.623C26.6193 158.485 19.5693 124.627 19.838 83.371C20.1067 42.1151 27.5971 8.35184 36.8466 5.33353L36.8481 5.1051L38.223 5.11406L56.0977 5.23047L55.5872 83.6038L55.0768 161.977L37.2022 161.861Z" fill="url(#paint0_linear_6766_30831)"/>
<path fillRule="evenodd" clipRule="evenodd" d="M37.2022 161.861L35.8272 161.852L35.8287 161.623C26.6193 158.485 19.5693 124.627 19.838 83.371C20.1067 42.1151 27.5971 8.35184 36.8466 5.33353L36.8481 5.1051L38.223 5.11406L56.0977 5.23047L55.5872 83.6038L55.0768 161.977L37.2022 161.861Z" fill="url(#paint1_radial_6766_30831)" fillOpacity="0.2"/>
<path fillRule="evenodd" clipRule="evenodd" d="M37.2022 161.861L35.8272 161.852L35.8287 161.623C26.6193 158.485 19.5693 124.627 19.838 83.371C20.1067 42.1151 27.5971 8.35184 36.8466 5.33353L36.8481 5.1051L38.223 5.11406L56.0977 5.23047L55.5872 83.6038L55.0768 161.977L37.2022 161.861Z" fill="url(#paint2_angular_6766_30831)" fillOpacity="0.1"/>
<path d="M37.2022 161.861L37.1843 164.611L37.2022 161.861ZM35.8272 161.852L33.0773 161.834L33.0594 164.584L35.8093 164.602L35.8272 161.852ZM35.8287 161.623L38.5787 161.641L38.5916 159.66L36.7158 159.02L35.8287 161.623ZM36.8466 5.33353L37.6997 7.94786L39.5836 7.33309L39.5965 5.35144L36.8466 5.33353ZM36.8481 5.1051L36.866 2.35516L34.116 2.33725L34.0981 5.08719L36.8481 5.1051ZM38.223 5.11406L38.2409 2.36412L38.223 5.11406ZM56.0977 5.23047L58.8476 5.24838L58.8655 2.49844L56.1156 2.48053L56.0977 5.23047ZM55.5872 83.6038L58.3372 83.6217L55.5872 83.6038ZM55.0768 161.977L55.0589 164.727L57.8089 164.745L57.8268 161.995L55.0768 161.977ZM37.2201 159.111L35.8451 159.102L35.8093 164.602L37.1843 164.611L37.2201 159.111ZM38.5772 161.87L38.5787 161.641L33.0788 161.605L33.0773 161.834L38.5772 161.87ZM36.7158 159.02C36.2188 158.851 35.4969 158.384 34.6113 157.306C33.7369 156.242 32.8227 154.727 31.9073 152.729C30.0763 148.732 28.3914 143.14 26.9728 136.238C24.1406 122.457 22.4545 103.877 22.5879 83.3889L17.0881 83.3531C16.9528 104.121 18.6574 123.098 21.5854 137.345C23.0468 144.456 24.8344 150.496 26.9071 155.019C27.9435 157.282 29.0888 159.249 30.3617 160.798C31.6234 162.333 33.1363 163.611 34.9416 164.226L36.7158 159.02ZM22.5879 83.3889C22.7214 62.9007 24.6493 44.3445 27.6608 30.6018C29.1692 23.7181 30.9267 18.1488 32.8096 14.1765C33.7509 12.1906 34.6849 10.6872 35.5731 9.63442C36.4726 8.56819 37.2005 8.11075 37.6997 7.94786L35.9935 2.7192C34.1803 3.31089 32.6508 4.5688 31.3692 6.08788C30.0763 7.62041 28.9055 9.57223 27.8397 11.8207C25.7083 16.3172 23.8422 22.3332 22.2882 29.4245C19.1749 43.632 17.2233 62.5853 17.0881 83.3531L22.5879 83.3889ZM39.5965 5.35144L39.598 5.12301L34.0981 5.08719L34.0966 5.31562L39.5965 5.35144ZM36.8302 7.85505L38.2051 7.864L38.2409 2.36412L36.866 2.35516L36.8302 7.85505ZM38.2051 7.864L56.0797 7.98041L56.1156 2.48053L38.2409 2.36412L38.2051 7.864ZM53.3477 5.21256L52.8373 83.5859L58.3372 83.6217L58.8476 5.24838L53.3477 5.21256ZM52.8373 83.5859L52.3269 161.959L57.8268 161.995L58.3372 83.6217L52.8373 83.5859ZM55.0947 159.227L37.2201 159.111L37.1843 164.611L55.0589 164.727L55.0947 159.227Z" fill="url(#paint3_linear_6766_30831)" mask="url(#path-20-inside-10_6766_30831)"/>
<path d="M37.2022 161.861L37.1843 164.611L37.2022 161.861ZM35.8272 161.852L33.0773 161.834L33.0594 164.584L35.8093 164.602L35.8272 161.852ZM35.8287 161.623L38.5787 161.641L38.5916 159.66L36.7158 159.02L35.8287 161.623ZM36.8466 5.33353L37.6997 7.94786L39.5836 7.33309L39.5965 5.35144L36.8466 5.33353ZM36.8481 5.1051L36.866 2.35516L34.116 2.33725L34.0981 5.08719L36.8481 5.1051ZM38.223 5.11406L38.2409 2.36412L38.223 5.11406ZM56.0977 5.23047L58.8476 5.24838L58.8655 2.49844L56.1156 2.48053L56.0977 5.23047ZM55.5872 83.6038L58.3372 83.6217L55.5872 83.6038ZM55.0768 161.977L55.0589 164.727L57.8089 164.745L57.8268 161.995L55.0768 161.977ZM37.2201 159.111L35.8451 159.102L35.8093 164.602L37.1843 164.611L37.2201 159.111ZM38.5772 161.87L38.5787 161.641L33.0788 161.605L33.0773 161.834L38.5772 161.87ZM36.7158 159.02C36.2188 158.851 35.4969 158.384 34.6113 157.306C33.7369 156.242 32.8227 154.727 31.9073 152.729C30.0763 148.732 28.3914 143.14 26.9728 136.238C24.1406 122.457 22.4545 103.877 22.5879 83.3889L17.0881 83.3531C16.9528 104.121 18.6574 123.098 21.5854 137.345C23.0468 144.456 24.8344 150.496 26.9071 155.019C27.9435 157.282 29.0888 159.249 30.3617 160.798C31.6234 162.333 33.1363 163.611 34.9416 164.226L36.7158 159.02ZM22.5879 83.3889C22.7214 62.9007 24.6493 44.3445 27.6608 30.6018C29.1692 23.7181 30.9267 18.1488 32.8096 14.1765C33.7509 12.1906 34.6849 10.6872 35.5731 9.63442C36.4726 8.56819 37.2005 8.11075 37.6997 7.94786L35.9935 2.7192C34.1803 3.31089 32.6508 4.5688 31.3692 6.08788C30.0763 7.62041 28.9055 9.57223 27.8397 11.8207C25.7083 16.3172 23.8422 22.3332 22.2882 29.4245C19.1749 43.632 17.2233 62.5853 17.0881 83.3531L22.5879 83.3889ZM39.5965 5.35144L39.598 5.12301L34.0981 5.08719L34.0966 5.31562L39.5965 5.35144ZM36.8302 7.85505L38.2051 7.864L38.2409 2.36412L36.866 2.35516L36.8302 7.85505ZM38.2051 7.864L56.0797 7.98041L56.1156 2.48053L38.2409 2.36412L38.2051 7.864ZM53.3477 5.21256L52.8373 83.5859L58.3372 83.6217L58.8476 5.24838L53.3477 5.21256ZM52.8373 83.5859L52.3269 161.959L57.8268 161.995L58.3372 83.6217L52.8373 83.5859ZM55.0947 159.227L37.2201 159.111L37.1843 164.611L55.0589 164.727L55.0947 159.227Z" fill="url(#paint4_radial_6766_30831)" fillOpacity="0.2" mask="url(#path-20-inside-10_6766_30831)"/>
<path d="M37.2022 161.861L37.1843 164.611L37.2022 161.861ZM35.8272 161.852L33.0773 161.834L33.0594 164.584L35.8093 164.602L35.8272 161.852ZM35.8287 161.623L38.5787 161.641L38.5916 159.66L36.7158 159.02L35.8287 161.623ZM36.8466 5.33353L37.6997 7.94786L39.5836 7.33309L39.5965 5.35144L36.8466 5.33353ZM36.8481 5.1051L36.866 2.35516L34.116 2.33725L34.0981 5.08719L36.8481 5.1051ZM38.223 5.11406L38.2409 2.36412L38.223 5.11406ZM56.0977 5.23047L58.8476 5.24838L58.8655 2.49844L56.1156 2.48053L56.0977 5.23047ZM55.5872 83.6038L58.3372 83.6217L55.5872 83.6038ZM55.0768 161.977L55.0589 164.727L57.8089 164.745L57.8268 161.995L55.0768 161.977ZM37.2201 159.111L35.8451 159.102L35.8093 164.602L37.1843 164.611L37.2201 159.111ZM38.5772 161.87L38.5787 161.641L33.0788 161.605L33.0773 161.834L38.5772 161.87ZM36.7158 159.02C36.2188 158.851 35.4969 158.384 34.6113 157.306C33.7369 156.242 32.8227 154.727 31.9073 152.729C30.0763 148.732 28.3914 143.14 26.9728 136.238C24.1406 122.457 22.4545 103.877 22.5879 83.3889L17.0881 83.3531C16.9528 104.121 18.6574 123.098 21.5854 137.345C23.0468 144.456 24.8344 150.496 26.9071 155.019C27.9435 157.282 29.0888 159.249 30.3617 160.798C31.6234 162.333 33.1363 163.611 34.9416 164.226L36.7158 159.02ZM22.5879 83.3889C22.7214 62.9007 24.6493 44.3445 27.6608 30.6018C29.1692 23.7181 30.9267 18.1488 32.8096 14.1765C33.7509 12.1906 34.6849 10.6872 35.5731 9.63442C36.4726 8.56819 37.2005 8.11075 37.6997 7.94786L35.9935 2.7192C34.1803 3.31089 32.6508 4.5688 31.3692 6.08788C30.0763 7.62041 28.9055 9.57223 27.8397 11.8207C25.7083 16.3172 23.8422 22.3332 22.2882 29.4245C19.1749 43.632 17.2233 62.5853 17.0881 83.3531L22.5879 83.3889ZM39.5965 5.35144L39.598 5.12301L34.0981 5.08719L34.0966 5.31562L39.5965 5.35144ZM36.8302 7.85505L38.2051 7.864L38.2409 2.36412L36.866 2.35516L36.8302 7.85505ZM38.2051 7.864L56.0797 7.98041L56.1156 2.48053L38.2409 2.36412L38.2051 7.864ZM53.3477 5.21256L52.8373 83.5859L58.3372 83.6217L58.8476 5.24838L53.3477 5.21256ZM52.8373 83.5859L52.3269 161.959L57.8268 161.995L58.3372 83.6217L52.8373 83.5859ZM55.0947 159.227L37.2201 159.111L37.1843 164.611L55.0589 164.727L55.0947 159.227Z" fill="url(#paint5_angular_6766_30831)" fillOpacity="0.1" mask="url(#path-20-inside-10_6766_30831)"/>
<mask id="path-22-inside-11_6766_30831" fill="white">
<path d="M56.0156 18.9814L55.9977 21.7314L28.4983 21.5523L28.5162 18.8024L56.0156 18.9814Z"/>
</mask>
<path d="M56.0156 18.9814L55.9977 21.7314L28.4983 21.5523L28.5162 18.8024L56.0156 18.9814Z" fill="white"/>
<path d="M56.0156 18.9814L58.7656 18.9994L58.7835 16.2494L56.0335 16.2315L56.0156 18.9814ZM55.9977 21.7314L55.9798 24.4813L58.7297 24.4992L58.7477 21.7493L55.9977 21.7314ZM53.2657 18.9635L53.2478 21.7135L58.7477 21.7493L58.7656 18.9994L53.2657 18.9635ZM56.0156 18.9814L28.5162 18.8024L28.4804 24.3022L55.9798 24.4813L56.0156 18.9814ZM28.4983 21.5523L55.9977 21.7314L56.0335 16.2315L28.5341 16.0524L28.4983 21.5523Z" fill="#FAFAFA" mask="url(#path-22-inside-11_6766_30831)"/>
<mask id="path-24-inside-12_6766_30831" fill="white">
<path d="M53.1445 36.8369L53.1266 39.5869L25.6272 39.4078L25.6451 36.6578L53.1445 36.8369Z"/>
</mask>
<path d="M53.1445 36.8369L53.1266 39.5869L25.6272 39.4078L25.6451 36.6578L53.1445 36.8369Z" fill="white"/>
<path d="M53.1445 36.8369L55.8945 36.8548L55.9124 34.1049L53.1624 34.087L53.1445 36.8369ZM53.1266 39.5869L53.1087 42.3368L55.8587 42.3547L55.8766 39.6048L53.1266 39.5869ZM50.3946 36.819L50.3767 39.5689L55.8766 39.6048L55.8945 36.8548L50.3946 36.819ZM53.1445 36.8369L25.6451 36.6578L25.6093 42.1577L53.1087 42.3368L53.1445 36.8369ZM25.6272 39.4078L53.1266 39.5869L53.1624 34.087L25.663 33.9079L25.6272 39.4078Z" fill="#FAFAFA" mask="url(#path-24-inside-12_6766_30831)"/>
<mask id="path-26-inside-13_6766_30831" fill="white">
<path d="M50.2773 54.6963L50.2594 57.4462L22.76 57.2671L22.7779 54.5172L50.2773 54.6963Z"/>
</mask>
<path d="M50.2773 54.6963L50.2594 57.4462L22.76 57.2671L22.7779 54.5172L50.2773 54.6963Z" fill="white"/>
<path d="M50.2773 54.6963L53.0273 54.7142L53.0452 51.9643L50.2953 51.9463L50.2773 54.6963ZM50.2594 57.4462L50.2415 60.1962L52.9915 60.2141L53.0094 57.4641L50.2594 57.4462ZM47.5274 54.6784L47.5095 57.4283L53.0094 57.4641L53.0273 54.7142L47.5274 54.6784ZM50.2773 54.6963L22.7779 54.5172L22.7421 60.0171L50.2415 60.1962L50.2773 54.6963ZM22.76 57.2671L50.2594 57.4462L50.2953 51.9463L22.7958 51.7673L22.76 57.2671Z" fill="#FAFAFA" mask="url(#path-26-inside-13_6766_30831)"/>
<mask id="path-28-inside-14_6766_30831" fill="white">
<path d="M50.1602 72.5684L50.1422 75.3183L22.6428 75.1392L22.6607 72.3893L50.1602 72.5684Z"/>
</mask>
<path d="M50.1602 72.5684L50.1422 75.3183L22.6428 75.1392L22.6607 72.3893L50.1602 72.5684Z" fill="white"/>
<path d="M50.1602 72.5684L52.9101 72.5863L52.928 69.8363L50.1781 69.8184L50.1602 72.5684ZM50.1422 75.3183L50.1243 78.0682L52.8743 78.0862L52.8922 75.3362L50.1422 75.3183ZM47.4102 72.5505L47.3923 75.3004L52.8922 75.3362L52.9101 72.5863L47.4102 72.5505ZM50.1602 72.5684L22.6607 72.3893L22.6249 77.8891L50.1243 78.0682L50.1602 72.5684ZM22.6428 75.1392L50.1422 75.3183L50.1781 69.8184L22.6786 69.6393L22.6428 75.1392Z" fill="#FAFAFA" mask="url(#path-28-inside-14_6766_30831)"/>
<mask id="path-30-inside-15_6766_30831" fill="white">
<path d="M47.293 90.4277L47.2751 93.1777L19.7756 92.9986L19.7936 90.2486L47.293 90.4277Z"/>
</mask>
<path d="M47.293 90.4277L47.2751 93.1777L19.7756 92.9986L19.7936 90.2486L47.293 90.4277Z" fill="white"/>
<path d="M47.293 90.4277L50.0429 90.4456L50.0608 87.6957L47.3109 87.6778L47.293 90.4277ZM47.2751 93.1777L47.2572 95.9276L50.0071 95.9455L50.025 93.1956L47.2751 93.1777ZM44.543 90.4098L44.5251 93.1598L50.025 93.1956L50.0429 90.4456L44.543 90.4098ZM47.293 90.4277L19.7936 90.2486L19.7577 95.7485L47.2572 95.9276L47.293 90.4277ZM19.7756 92.9986L47.2751 93.1777L47.3109 87.6778L19.8115 87.4987L19.7756 92.9986Z" fill="#FAFAFA" mask="url(#path-30-inside-15_6766_30831)"/>
<mask id="path-32-inside-16_6766_30831" fill="white">
<path d="M49.9336 108.318L49.9157 111.068L22.4163 110.889L22.4342 108.139L49.9336 108.318Z"/>
</mask>
<path d="M49.9336 108.318L49.9157 111.068L22.4163 110.889L22.4342 108.139L49.9336 108.318Z" fill="white"/>
<path d="M49.9336 108.318L52.6835 108.336L52.7014 105.586L49.9515 105.568L49.9336 108.318ZM49.9157 111.068L49.8978 113.818L52.6477 113.836L52.6656 111.086L49.9157 111.068ZM47.1837 108.3L47.1657 111.05L52.6656 111.086L52.6835 108.336L47.1837 108.3ZM49.9336 108.318L22.4342 108.139L22.3984 113.639L49.8978 113.818L49.9336 108.318ZM22.4163 110.889L49.9157 111.068L49.9515 105.568L22.4521 105.389L22.4163 110.889Z" fill="#FAFAFA" mask="url(#path-32-inside-16_6766_30831)"/>
<mask id="path-34-inside-17_6766_30831" fill="white">
<path d="M52.5664 126.212L52.5485 128.962L25.0491 128.783L25.067 126.033L52.5664 126.212Z"/>
</mask>
<path d="M52.5664 126.212L52.5485 128.962L25.0491 128.783L25.067 126.033L52.5664 126.212Z" fill="white"/>
<path d="M52.5664 126.212L55.3163 126.23L55.3343 123.48L52.5843 123.462L52.5664 126.212ZM52.5485 128.962L52.5306 131.712L55.2805 131.73L55.2984 128.98L52.5485 128.962ZM49.8165 126.194L49.7986 128.944L55.2984 128.98L55.3163 126.23L49.8165 126.194ZM52.5664 126.212L25.067 126.033L25.0312 131.533L52.5306 131.712L52.5664 126.212ZM25.0491 128.783L52.5485 128.962L52.5843 123.462L25.0849 123.283L25.0491 128.783Z" fill="#FAFAFA" mask="url(#path-34-inside-17_6766_30831)"/>
<mask id="path-36-inside-18_6766_30831" fill="white">
<path d="M55.1992 144.104L55.1813 146.853L27.6819 146.674L27.6998 143.924L55.1992 144.104Z"/>
</mask>
<path d="M55.1992 144.104L55.1813 146.853L27.6819 146.674L27.6998 143.924L55.1992 144.104Z" fill="white"/>
<path d="M55.1992 144.104L57.9492 144.121L57.9671 141.371L55.2171 141.354L55.1992 144.104ZM55.1813 146.853L55.1634 149.603L57.9133 149.621L57.9313 146.871L55.1813 146.853ZM52.4493 144.086L52.4314 146.836L57.9313 146.871L57.9492 144.121L52.4493 144.086ZM55.1992 144.104L27.6998 143.924L27.664 149.424L55.1634 149.603L55.1992 144.104ZM27.6819 146.674L55.1813 146.853L55.2171 141.354L27.7177 141.174L27.6819 146.674Z" fill="#FAFAFA" mask="url(#path-36-inside-18_6766_30831)"/>
<mask id="path-38-inside-19_6766_30831" fill="white">
<path fillRule="evenodd" clipRule="evenodd" d="M37.2022 161.861L35.8272 161.852L35.8287 161.623C26.6193 158.485 19.5693 124.627 19.838 83.371C20.1067 42.1151 27.5971 8.35184 36.8466 5.33353L36.8481 5.1051L38.223 5.11406L56.0977 5.23047L55.5872 83.6038L55.0768 161.977L37.2022 161.861Z"/>
</mask>
<path d="M37.2022 161.861L37.1843 164.611L37.2022 161.861ZM35.8272 161.852L33.0773 161.834L33.0594 164.584L35.8093 164.602L35.8272 161.852ZM35.8287 161.623L38.5787 161.641L38.5916 159.66L36.7158 159.02L35.8287 161.623ZM36.8466 5.33353L37.6997 7.94786L39.5836 7.33309L39.5965 5.35144L36.8466 5.33353ZM36.8481 5.1051L36.866 2.35516L34.116 2.33725L34.0981 5.08719L36.8481 5.1051ZM38.223 5.11406L38.2409 2.36412L38.223 5.11406ZM56.0977 5.23047L58.8476 5.24838L58.8655 2.49844L56.1156 2.48053L56.0977 5.23047ZM55.5872 83.6038L58.3372 83.6217L55.5872 83.6038ZM55.0768 161.977L55.0589 164.727L57.8089 164.745L57.8268 161.995L55.0768 161.977ZM37.2201 159.111L35.8451 159.102L35.8093 164.602L37.1843 164.611L37.2201 159.111ZM38.5772 161.87L38.5787 161.641L33.0788 161.605L33.0773 161.834L38.5772 161.87ZM36.7158 159.02C36.2188 158.851 35.4969 158.384 34.6113 157.306C33.7369 156.242 32.8227 154.727 31.9073 152.729C30.0763 148.732 28.3914 143.14 26.9728 136.238C24.1406 122.457 22.4545 103.877 22.5879 83.3889L17.0881 83.3531C16.9528 104.121 18.6574 123.098 21.5854 137.345C23.0468 144.456 24.8344 150.496 26.9071 155.019C27.9435 157.282 29.0888 159.249 30.3617 160.798C31.6234 162.333 33.1363 163.611 34.9416 164.226L36.7158 159.02ZM22.5879 83.3889C22.7214 62.9007 24.6493 44.3445 27.6608 30.6018C29.1692 23.7181 30.9267 18.1488 32.8096 14.1765C33.7509 12.1906 34.6849 10.6872 35.5731 9.63442C36.4726 8.56819 37.2005 8.11075 37.6997 7.94786L35.9935 2.7192C34.1803 3.31089 32.6508 4.5688 31.3692 6.08788C30.0763 7.62041 28.9055 9.57223 27.8397 11.8207C25.7083 16.3172 23.8422 22.3332 22.2882 29.4245C19.1749 43.632 17.2233 62.5853 17.0881 83.3531L22.5879 83.3889ZM39.5965 5.35144L39.598 5.12301L34.0981 5.08719L34.0966 5.31562L39.5965 5.35144ZM36.8302 7.85505L38.2051 7.864L38.2409 2.36412L36.866 2.35516L36.8302 7.85505ZM38.2051 7.864L56.0797 7.98041L56.1156 2.48053L38.2409 2.36412L38.2051 7.864ZM53.3477 5.21256L52.8373 83.5859L58.3372 83.6217L58.8476 5.24838L53.3477 5.21256ZM52.8373 83.5859L52.3269 161.959L57.8268 161.995L58.3372 83.6217L52.8373 83.5859ZM55.0947 159.227L37.2201 159.111L37.1843 164.611L55.0589 164.727L55.0947 159.227Z" fill="url(#paint6_linear_6766_30831)" mask="url(#path-38-inside-19_6766_30831)"/>
<path d="M37.2022 161.861L37.1843 164.611L37.2022 161.861ZM35.8272 161.852L33.0773 161.834L33.0594 164.584L35.8093 164.602L35.8272 161.852ZM35.8287 161.623L38.5787 161.641L38.5916 159.66L36.7158 159.02L35.8287 161.623ZM36.8466 5.33353L37.6997 7.94786L39.5836 7.33309L39.5965 5.35144L36.8466 5.33353ZM36.8481 5.1051L36.866 2.35516L34.116 2.33725L34.0981 5.08719L36.8481 5.1051ZM38.223 5.11406L38.2409 2.36412L38.223 5.11406ZM56.0977 5.23047L58.8476 5.24838L58.8655 2.49844L56.1156 2.48053L56.0977 5.23047ZM55.5872 83.6038L58.3372 83.6217L55.5872 83.6038ZM55.0768 161.977L55.0589 164.727L57.8089 164.745L57.8268 161.995L55.0768 161.977ZM37.2201 159.111L35.8451 159.102L35.8093 164.602L37.1843 164.611L37.2201 159.111ZM38.5772 161.87L38.5787 161.641L33.0788 161.605L33.0773 161.834L38.5772 161.87ZM36.7158 159.02C36.2188 158.851 35.4969 158.384 34.6113 157.306C33.7369 156.242 32.8227 154.727 31.9073 152.729C30.0763 148.732 28.3914 143.14 26.9728 136.238C24.1406 122.457 22.4545 103.877 22.5879 83.3889L17.0881 83.3531C16.9528 104.121 18.6574 123.098 21.5854 137.345C23.0468 144.456 24.8344 150.496 26.9071 155.019C27.9435 157.282 29.0888 159.249 30.3617 160.798C31.6234 162.333 33.1363 163.611 34.9416 164.226L36.7158 159.02ZM22.5879 83.3889C22.7214 62.9007 24.6493 44.3445 27.6608 30.6018C29.1692 23.7181 30.9267 18.1488 32.8096 14.1765C33.7509 12.1906 34.6849 10.6872 35.5731 9.63442C36.4726 8.56819 37.2005 8.11075 37.6997 7.94786L35.9935 2.7192C34.1803 3.31089 32.6508 4.5688 31.3692 6.08788C30.0763 7.62041 28.9055 9.57223 27.8397 11.8207C25.7083 16.3172 23.8422 22.3332 22.2882 29.4245C19.1749 43.632 17.2233 62.5853 17.0881 83.3531L22.5879 83.3889ZM39.5965 5.35144L39.598 5.12301L34.0981 5.08719L34.0966 5.31562L39.5965 5.35144ZM36.8302 7.85505L38.2051 7.864L38.2409 2.36412L36.866 2.35516L36.8302 7.85505ZM38.2051 7.864L56.0797 7.98041L56.1156 2.48053L38.2409 2.36412L38.2051 7.864ZM53.3477 5.21256L52.8373 83.5859L58.3372 83.6217L58.8476 5.24838L53.3477 5.21256ZM52.8373 83.5859L52.3269 161.959L57.8268 161.995L58.3372 83.6217L52.8373 83.5859ZM55.0947 159.227L37.2201 159.111L37.1843 164.611L55.0589 164.727L55.0947 159.227Z" fill="url(#paint7_radial_6766_30831)" fillOpacity="0.2" mask="url(#path-38-inside-19_6766_30831)"/>
<path d="M37.2022 161.861L37.1843 164.611L37.2022 161.861ZM35.8272 161.852L33.0773 161.834L33.0594 164.584L35.8093 164.602L35.8272 161.852ZM35.8287 161.623L38.5787 161.641L38.5916 159.66L36.7158 159.02L35.8287 161.623ZM36.8466 5.33353L37.6997 7.94786L39.5836 7.33309L39.5965 5.35144L36.8466 5.33353ZM36.8481 5.1051L36.866 2.35516L34.116 2.33725L34.0981 5.08719L36.8481 5.1051ZM38.223 5.11406L38.2409 2.36412L38.223 5.11406ZM56.0977 5.23047L58.8476 5.24838L58.8655 2.49844L56.1156 2.48053L56.0977 5.23047ZM55.5872 83.6038L58.3372 83.6217L55.5872 83.6038ZM55.0768 161.977L55.0589 164.727L57.8089 164.745L57.8268 161.995L55.0768 161.977ZM37.2201 159.111L35.8451 159.102L35.8093 164.602L37.1843 164.611L37.2201 159.111ZM38.5772 161.87L38.5787 161.641L33.0788 161.605L33.0773 161.834L38.5772 161.87ZM36.7158 159.02C36.2188 158.851 35.4969 158.384 34.6113 157.306C33.7369 156.242 32.8227 154.727 31.9073 152.729C30.0763 148.732 28.3914 143.14 26.9728 136.238C24.1406 122.457 22.4545 103.877 22.5879 83.3889L17.0881 83.3531C16.9528 104.121 18.6574 123.098 21.5854 137.345C23.0468 144.456 24.8344 150.496 26.9071 155.019C27.9435 157.282 29.0888 159.249 30.3617 160.798C31.6234 162.333 33.1363 163.611 34.9416 164.226L36.7158 159.02ZM22.5879 83.3889C22.7214 62.9007 24.6493 44.3445 27.6608 30.6018C29.1692 23.7181 30.9267 18.1488 32.8096 14.1765C33.7509 12.1906 34.6849 10.6872 35.5731 9.63442C36.4726 8.56819 37.2005 8.11075 37.6997 7.94786L35.9935 2.7192C34.1803 3.31089 32.6508 4.5688 31.3692 6.08788C30.0763 7.62041 28.9055 9.57223 27.8397 11.8207C25.7083 16.3172 23.8422 22.3332 22.2882 29.4245C19.1749 43.632 17.2233 62.5853 17.0881 83.3531L22.5879 83.3889ZM39.5965 5.35144L39.598 5.12301L34.0981 5.08719L34.0966 5.31562L39.5965 5.35144ZM36.8302 7.85505L38.2051 7.864L38.2409 2.36412L36.866 2.35516L36.8302 7.85505ZM38.2051 7.864L56.0797 7.98041L56.1156 2.48053L38.2409 2.36412L38.2051 7.864ZM53.3477 5.21256L52.8373 83.5859L58.3372 83.6217L58.8476 5.24838L53.3477 5.21256ZM52.8373 83.5859L52.3269 161.959L57.8268 161.995L58.3372 83.6217L52.8373 83.5859ZM55.0947 159.227L37.2201 159.111L37.1843 164.611L55.0589 164.727L55.0947 159.227Z" fill="url(#paint8_angular_6766_30831)" fillOpacity="0.1" mask="url(#path-38-inside-19_6766_30831)"/>
<path d="M56.4651 160.613C55.6673 160.608 54.7778 160.253 53.789 159.355C52.7921 158.448 51.768 157.051 50.7531 155.139C48.7243 151.317 46.8684 145.703 45.3089 138.653C42.1947 124.577 40.3264 105.078 40.4669 83.5069C40.6074 61.9361 42.7295 42.4631 46.0267 28.4282C47.678 21.3997 49.6068 15.8103 51.6852 12.0151C52.7249 10.1167 53.7672 8.7324 54.7758 7.83922C55.7761 6.95337 56.6702 6.61079 57.468 6.61598C58.2658 6.62118 59.1553 6.97537 60.144 7.87418C61.1409 8.78042 62.1651 10.1781 63.1799 12.09C65.2088 15.9119 67.0646 21.5259 68.6242 28.5754C71.7383 42.6521 73.6067 62.151 73.4662 83.7218C73.3257 105.293 71.2036 124.766 67.9063 138.801C66.2551 145.829 64.3263 151.418 62.2478 155.214C61.2081 157.112 60.1659 158.496 59.1573 159.389C58.1569 160.275 57.2628 160.618 56.4651 160.613Z" fill="white"/>
<path d="M56.4651 160.613C55.6673 160.608 54.7778 160.253 53.789 159.355C52.7921 158.448 51.768 157.051 50.7531 155.139C48.7243 151.317 46.8684 145.703 45.3089 138.653C42.1947 124.577 40.3264 105.078 40.4669 83.5069C40.6074 61.9361 42.7295 42.4631 46.0267 28.4282C47.678 21.3997 49.6068 15.8103 51.6852 12.0151C52.7249 10.1167 53.7672 8.7324 54.7758 7.83922C55.7761 6.95337 56.6702 6.61079 57.468 6.61598C58.2658 6.62118 59.1553 6.97537 60.144 7.87418C61.1409 8.78042 62.1651 10.1781 63.1799 12.09C65.2088 15.9119 67.0646 21.5259 68.6242 28.5754C71.7383 42.6521 73.6067 62.151 73.4662 83.7218C73.3257 105.293 71.2036 124.766 67.9063 138.801C66.2551 145.829 64.3263 151.418 62.2478 155.214C61.2081 157.112 60.1659 158.496 59.1573 159.389C58.1569 160.275 57.2628 160.618 56.4651 160.613Z" stroke="url(#paint9_linear_6766_30831)" strokeWidth="2.75"/>
<path d="M56.4651 160.613C55.6673 160.608 54.7778 160.253 53.789 159.355C52.7921 158.448 51.768 157.051 50.7531 155.139C48.7243 151.317 46.8684 145.703 45.3089 138.653C42.1947 124.577 40.3264 105.078 40.4669 83.5069C40.6074 61.9361 42.7295 42.4631 46.0267 28.4282C47.678 21.3997 49.6068 15.8103 51.6852 12.0151C52.7249 10.1167 53.7672 8.7324 54.7758 7.83922C55.7761 6.95337 56.6702 6.61079 57.468 6.61598C58.2658 6.62118 59.1553 6.97537 60.144 7.87418C61.1409 8.78042 62.1651 10.1781 63.1799 12.09C65.2088 15.9119 67.0646 21.5259 68.6242 28.5754C71.7383 42.6521 73.6067 62.151 73.4662 83.7218C73.3257 105.293 71.2036 124.766 67.9063 138.801C66.2551 145.829 64.3263 151.418 62.2478 155.214C61.2081 157.112 60.1659 158.496 59.1573 159.389C58.1569 160.275 57.2628 160.618 56.4651 160.613Z" stroke="url(#paint10_radial_6766_30831)" strokeOpacity="0.2" strokeWidth="2.75"/>
<path d="M56.4651 160.613C55.6673 160.608 54.7778 160.253 53.789 159.355C52.7921 158.448 51.768 157.051 50.7531 155.139C48.7243 151.317 46.8684 145.703 45.3089 138.653C42.1947 124.577 40.3264 105.078 40.4669 83.5069C40.6074 61.9361 42.7295 42.4631 46.0267 28.4282C47.678 21.3997 49.6068 15.8103 51.6852 12.0151C52.7249 10.1167 53.7672 8.7324 54.7758 7.83922C55.7761 6.95337 56.6702 6.61079 57.468 6.61598C58.2658 6.62118 59.1553 6.97537 60.144 7.87418C61.1409 8.78042 62.1651 10.1781 63.1799 12.09C65.2088 15.9119 67.0646 21.5259 68.6242 28.5754C71.7383 42.6521 73.6067 62.151 73.4662 83.7218C73.3257 105.293 71.2036 124.766 67.9063 138.801C66.2551 145.829 64.3263 151.418 62.2478 155.214C61.2081 157.112 60.1659 158.496 59.1573 159.389C58.1569 160.275 57.2628 160.618 56.4651 160.613Z" stroke="url(#paint11_angular_6766_30831)" strokeOpacity="0.1" strokeWidth="2.75"/>
<defs>
<filter id="filter0_f_6766_30831" x="0.332031" y="-0.000976562" width="62.0195" height="163.105" filterUnits="userSpaceOnUse" color-interpolation-filters="sRGB">
<feFlood flood-opacity="0" result="BackgroundImageFix"/>
<feBlend mode="normal" in="SourceGraphic" in2="BackgroundImageFix" result="shape"/>
<feGaussianBlur stdDeviation="1.5" result="effect1_foregroundBlur_6766_30831"/>
</filter>
<linearGradient id="paint0_linear_6766_30831" x1="45.2229" y1="37.6848" x2="9.08922" y2="43.6148" gradientUnits="userSpaceOnUse">
<stop stopColor="#182F59"/>
<stop offset="1" stopColor="#020F26"/>
</linearGradient>
<radialGradient id="paint1_radial_6766_30831" cx="0" cy="0" r="1" gradientUnits="userSpaceOnUse" gradientTransform="translate(41.467 52.7936) rotate(174.666) scale(18.1711 78.9265)">
<stop stopColor="#182F59"/>
<stop offset="1" stopColor="#5C7EBC"/>
</radialGradient>
<radialGradient id="paint2_angular_6766_30831" cx="0" cy="0" r="1" gradientUnits="userSpaceOnUse" gradientTransform="translate(30.7542 115.741) rotate(-77.7189) scale(91.8711 37.2116)">
<stop stopColor="#4C576B" stopOpacity="0.5"/>
<stop offset="1" stopOpacity="0.7"/>
</radialGradient>
<linearGradient id="paint3_linear_6766_30831" x1="45.2229" y1="37.6848" x2="9.08922" y2="43.6148" gradientUnits="userSpaceOnUse">
<stop stopColor="#182F59"/>
<stop offset="1" stopColor="#020F26"/>
</linearGradient>
<radialGradient id="paint4_radial_6766_30831" cx="0" cy="0" r="1" gradientUnits="userSpaceOnUse" gradientTransform="translate(41.467 52.7936) rotate(174.666) scale(18.1711 78.9265)">
<stop stopColor="#182F59"/>
<stop offset="1" stopColor="#5C7EBC"/>
</radialGradient>
<radialGradient id="paint5_angular_6766_30831" cx="0" cy="0" r="1" gradientUnits="userSpaceOnUse" gradientTransform="translate(30.7542 115.741) rotate(-77.7189) scale(91.8711 37.2116)">
<stop stopColor="#4C576B" stopOpacity="0.5"/>
<stop offset="1" stopOpacity="0.7"/>
</radialGradient>
<linearGradient id="paint6_linear_6766_30831" x1="45.2229" y1="37.6848" x2="9.08922" y2="43.6148" gradientUnits="userSpaceOnUse">
<stop stopColor="#182F59"/>
<stop offset="1" stopColor="#020F26"/>
</linearGradient>
<radialGradient id="paint7_radial_6766_30831" cx="0" cy="0" r="1" gradientUnits="userSpaceOnUse" gradientTransform="translate(41.467 52.7936) rotate(174.666) scale(18.1711 78.9265)">
<stop stopColor="#182F59"/>
<stop offset="1" stopColor="#5C7EBC"/>
</radialGradient>
<radialGradient id="paint8_angular_6766_30831" cx="0" cy="0" r="1" gradientUnits="userSpaceOnUse" gradientTransform="translate(30.7542 115.741) rotate(-77.7189) scale(91.8711 37.2116)">
<stop stopColor="#4C576B" stopOpacity="0.5"/>
<stop offset="1" stopOpacity="0.7"/>
</radialGradient>
<linearGradient id="paint9_linear_6766_30831" x1="64.4768" y1="37.8118" x2="28.3431" y2="43.7417" gradientUnits="userSpaceOnUse">
<stop stopColor="#182F59"/>
<stop offset="1" stopColor="#020F26"/>
</linearGradient>
<radialGradient id="paint10_radial_6766_30831" cx="0" cy="0" r="1" gradientUnits="userSpaceOnUse" gradientTransform="translate(60.7209 52.9206) rotate(174.666) scale(18.1711 78.9265)">
<stop stopColor="#182F59"/>
<stop offset="1" stopColor="#5C7EBC"/>
</radialGradient>
<radialGradient id="paint11_angular_6766_30831" cx="0" cy="0" r="1" gradientUnits="userSpaceOnUse" gradientTransform="translate(50.0081 115.868) rotate(-77.7189) scale(91.8711 37.2116)">
<stop stopColor="#4C576B" stopOpacity="0.5"/>
<stop offset="1" stopOpacity="0.7"/>
</radialGradient>
</defs>
</svg>
