<svg width="370" height="159" viewBox="0 0 370 159" fill="none" xmlns="http://www.w3.org/2000/svg">
<path d="M212 59.998L231 40.498H214.5L190 52.498L182.5 61.998L212 59.998Z" stroke="url(#paint0_linear_6751_30661)" strokeWidth="2.35"/>
<path d="M212 59.998L231 40.498H214.5L190 52.498L182.5 61.998L212 59.998Z" stroke="url(#paint1_radial_6751_30661)" strokeOpacity="0.2" strokeWidth="2.35"/>
<path d="M212 59.998L231 40.498H214.5L190 52.498L182.5 61.998L212 59.998Z" stroke="url(#paint2_angular_6751_30661)" strokeOpacity="0.1" strokeWidth="2.35"/>
<path d="M222.098 80.2445L221.825 80.5716V80.998V86.998V87.2243L221.909 87.4344L223.909 92.4344L224.113 92.9434L224.633 93.1144L231.438 95.3489V147.975H112.112V58.6895L114.4 57.7746H231.438V69.0716L222.098 80.2445Z" fill="white"/>
<path d="M222.098 80.2445L221.825 80.5716V80.998V86.998V87.2243L221.909 87.4344L223.909 92.4344L224.113 92.9434L224.633 93.1144L231.438 95.3489V147.975H112.112V58.6895L114.4 57.7746H231.438V69.0716L222.098 80.2445Z" fill="url(#paint3_angular_6751_30661)" fillOpacity="0.07"/>
<path d="M222.098 80.2445L221.825 80.5716V80.998V86.998V87.2243L221.909 87.4344L223.909 92.4344L224.113 92.9434L224.633 93.1144L231.438 95.3489V147.975H112.112V58.6895L114.4 57.7746H231.438V69.0716L222.098 80.2445Z" stroke="#5BBC2E" strokeWidth="2.35"/>
<path d="M230.725 40.9971L256.495 43.208L224.422 78.418C224.422 78.418 223.016 79.5566 222.683 80.5915C222.398 81.4804 222.683 82.9823 222.683 82.9823C222.683 82.9823 222.21 88.9047 224.422 91.4588C226.212 93.5246 230.725 94.5016 230.725 94.5016C230.725 94.5016 233.005 94.7814 234.42 94.5016C235.765 94.2357 237.68 93.1975 237.68 93.1975L300.276 52.5538C300.276 52.5538 302.712 51.1595 304.406 50.5977C305.97 50.0789 308.535 49.7283 308.535 49.7283H313.969V6.47647H230.725C230.725 6.47647 223.388 6.74891 219.858 8.86726C217.283 10.4125 213.5 12.4971 213.5 12.4971L138 56.4971C138 56.4971 128.568 63.642 130.5 68.9971C132.761 75.2664 147.5 70.4971 147.5 70.4971L196 49.7283L211.5 43.208C211.5 43.208 215.076 40.9971 219 40.9971H230.725Z" fill="white"/>
<path d="M256.495 43.208L230.725 40.9971C230.725 40.9971 220.528 40.9971 219 40.9971C215.076 40.9971 211.5 43.208 211.5 43.208L196 49.7283L147.5 70.4971C147.5 70.4971 132.761 75.2664 130.5 68.9971C128.568 63.642 138 56.4971 138 56.4971L213.5 12.4971C213.5 12.4971 217.283 10.4125 219.858 8.86726C223.388 6.74891 230.725 6.47647 230.725 6.47647H313.969V49.7283H308.535C308.535 49.7283 305.97 50.0789 304.406 50.5977C302.712 51.1595 300.276 52.5538 300.276 52.5538L237.68 93.1975C237.68 93.1975 235.765 94.2357 234.42 94.5016C233.005 94.7814 230.725 94.5016 230.725 94.5016C230.725 94.5016 226.212 93.5246 224.422 91.4588C222.21 88.9047 222.683 82.9823 222.683 82.9823C222.683 82.9823 222.398 81.4804 222.683 80.5915C223.016 79.5566 224.422 78.418 224.422 78.418L264.414 34.5141" stroke="url(#paint4_linear_6751_30661)" strokeWidth="2.35"/>
<path d="M256.495 43.208L230.725 40.9971C230.725 40.9971 220.528 40.9971 219 40.9971C215.076 40.9971 211.5 43.208 211.5 43.208L196 49.7283L147.5 70.4971C147.5 70.4971 132.761 75.2664 130.5 68.9971C128.568 63.642 138 56.4971 138 56.4971L213.5 12.4971C213.5 12.4971 217.283 10.4125 219.858 8.86726C223.388 6.74891 230.725 6.47647 230.725 6.47647H313.969V49.7283H308.535C308.535 49.7283 305.97 50.0789 304.406 50.5977C302.712 51.1595 300.276 52.5538 300.276 52.5538L237.68 93.1975C237.68 93.1975 235.765 94.2357 234.42 94.5016C233.005 94.7814 230.725 94.5016 230.725 94.5016C230.725 94.5016 226.212 93.5246 224.422 91.4588C222.21 88.9047 222.683 82.9823 222.683 82.9823C222.683 82.9823 222.398 81.4804 222.683 80.5915C223.016 79.5566 224.422 78.418 224.422 78.418L264.414 34.5141" stroke="url(#paint5_radial_6751_30661)" strokeOpacity="0.2" strokeWidth="2.35"/>
<path d="M256.495 43.208L230.725 40.9971C230.725 40.9971 220.528 40.9971 219 40.9971C215.076 40.9971 211.5 43.208 211.5 43.208L196 49.7283L147.5 70.4971C147.5 70.4971 132.761 75.2664 130.5 68.9971C128.568 63.642 138 56.4971 138 56.4971L213.5 12.4971C213.5 12.4971 217.283 10.4125 219.858 8.86726C223.388 6.74891 230.725 6.47647 230.725 6.47647H313.969V49.7283H308.535C308.535 49.7283 305.97 50.0789 304.406 50.5977C302.712 51.1595 300.276 52.5538 300.276 52.5538L237.68 93.1975C237.68 93.1975 235.765 94.2357 234.42 94.5016C233.005 94.7814 230.725 94.5016 230.725 94.5016C230.725 94.5016 226.212 93.5246 224.422 91.4588C222.21 88.9047 222.683 82.9823 222.683 82.9823C222.683 82.9823 222.398 81.4804 222.683 80.5915C223.016 79.5566 224.422 78.418 224.422 78.418L264.414 34.5141" stroke="url(#paint6_angular_6751_30661)" strokeOpacity="0.1" strokeWidth="2.35"/>
<path d="M366.999 5.82393V50.8146C366.999 50.8146 366.85 51.545 366.564 51.9013C366.009 52.592 364.391 52.5533 364.391 52.5533H318.313C318.313 52.5533 316.758 52.3887 315.922 51.9013C314.936 51.3261 313.966 49.7278 313.966 49.7278V6.47596C313.966 6.47596 314.873 4.5881 315.922 3.86781C316.742 3.30576 318.313 2.99843 318.313 2.99843H364.391C364.391 2.99843 366.001 3.14761 366.564 3.86781C367.046 4.48431 366.999 5.82393 366.999 5.82393Z" fill="url(#paint7_linear_6751_30661)"/>
<path d="M366.999 5.82393V50.8146C366.999 50.8146 366.85 51.545 366.564 51.9013C366.009 52.592 364.391 52.5533 364.391 52.5533H318.313C318.313 52.5533 316.758 52.3887 315.922 51.9013C314.936 51.3261 313.966 49.7278 313.966 49.7278V6.47596C313.966 6.47596 314.873 4.5881 315.922 3.86781C316.742 3.30576 318.313 2.99843 318.313 2.99843H364.391C364.391 2.99843 366.001 3.14761 366.564 3.86781C367.046 4.48431 366.999 5.82393 366.999 5.82393Z" fill="url(#paint8_radial_6751_30661)" fillOpacity="0.2"/>
<path d="M366.999 5.82393V50.8146C366.999 50.8146 366.85 51.545 366.564 51.9013C366.009 52.592 364.391 52.5533 364.391 52.5533H318.313C318.313 52.5533 316.758 52.3887 315.922 51.9013C314.936 51.3261 313.966 49.7278 313.966 49.7278V6.47596C313.966 6.47596 314.873 4.5881 315.922 3.86781C316.742 3.30576 318.313 2.99843 318.313 2.99843H364.391C364.391 2.99843 366.001 3.14761 366.564 3.86781C367.046 4.48431 366.999 5.82393 366.999 5.82393Z" fill="url(#paint9_angular_6751_30661)" fillOpacity="0.1"/>
<path d="M366.999 5.82393V50.8146C366.999 50.8146 366.85 51.545 366.564 51.9013C366.009 52.592 364.391 52.5533 364.391 52.5533H318.313C318.313 52.5533 316.758 52.3887 315.922 51.9013C314.936 51.3261 313.966 49.7278 313.966 49.7278V6.47596C313.966 6.47596 314.873 4.5881 315.922 3.86781C316.742 3.30576 318.313 2.99843 318.313 2.99843H364.391C364.391 2.99843 366.001 3.14761 366.564 3.86781C367.046 4.48431 366.999 5.82393 366.999 5.82393Z" stroke="url(#paint10_linear_6751_30661)" strokeWidth="4.34692"/>
<path d="M366.999 5.82393V50.8146C366.999 50.8146 366.85 51.545 366.564 51.9013C366.009 52.592 364.391 52.5533 364.391 52.5533H318.313C318.313 52.5533 316.758 52.3887 315.922 51.9013C314.936 51.3261 313.966 49.7278 313.966 49.7278V6.47596C313.966 6.47596 314.873 4.5881 315.922 3.86781C316.742 3.30576 318.313 2.99843 318.313 2.99843H364.391C364.391 2.99843 366.001 3.14761 366.564 3.86781C367.046 4.48431 366.999 5.82393 366.999 5.82393Z" stroke="url(#paint11_radial_6751_30661)" strokeOpacity="0.2" strokeWidth="4.34692"/>
<path d="M366.999 5.82393V50.8146C366.999 50.8146 366.85 51.545 366.564 51.9013C366.009 52.592 364.391 52.5533 364.391 52.5533H318.313C318.313 52.5533 316.758 52.3887 315.922 51.9013C314.936 51.3261 313.966 49.7278 313.966 49.7278V6.47596C313.966 6.47596 314.873 4.5881 315.922 3.86781C316.742 3.30576 318.313 2.99843 318.313 2.99843H364.391C364.391 2.99843 366.001 3.14761 366.564 3.86781C367.046 4.48431 366.999 5.82393 366.999 5.82393Z" stroke="url(#paint12_angular_6751_30661)" strokeOpacity="0.1" strokeWidth="4.34692"/>
<path d="M4.34319 152.507H117.735H118.035L118.298 152.65L117.735 153.682C118.298 152.65 118.298 152.65 118.298 152.65L118.299 152.651L118.3 152.651L118.302 152.653L118.31 152.657L118.333 152.67C118.353 152.681 118.379 152.696 118.411 152.714C118.475 152.752 118.564 152.805 118.671 152.872C118.882 153.006 119.17 153.2 119.474 153.44C120.015 153.867 120.864 154.638 121.135 155.641C121.229 155.989 121.249 156.351 121.226 156.7C121.281 156.668 121.335 156.637 121.387 156.605C121.732 156.397 121.95 156.228 122.052 156.118C122.315 155.835 122.51 155.308 122.617 154.694C122.666 154.411 122.689 154.154 122.7 153.968C122.705 153.876 122.707 153.803 122.708 153.756C122.709 153.732 122.709 153.715 122.709 153.706L122.709 153.699L122.709 153.698L122.709 153.698L122.709 153.697V153.697V153.697L122.709 153.691V153.682V71.1627V71.1286L122.711 71.095L122.711 71.0949L122.711 71.0946L122.711 71.0931L122.711 71.0835L122.713 71.0402C122.715 71.0011 122.718 70.9417 122.721 70.8645C122.726 70.7098 122.733 70.4838 122.736 70.2045C122.742 69.6445 122.734 68.8779 122.676 68.0473C122.619 67.213 122.514 66.3382 122.335 65.5541C122.156 64.7738 121.924 64.1745 121.659 63.7927C121.079 63.1187 120.086 62.6415 118.718 62.2114C118.171 62.0395 117.608 61.8873 117.022 61.729C116.88 61.6906 116.737 61.6518 116.592 61.6123C115.867 61.4146 115.113 61.2002 114.41 60.9367C113.718 60.6772 113.078 60.3826 112.549 60.0574C112.404 59.9683 112.257 59.8709 112.114 59.7644V59.768V59.7781V59.7882V59.7982V59.8083V59.8183V59.8284V59.8384V59.8484V59.8584V59.8683V59.8783V59.8882V59.8981V59.908V59.9179V59.9278V59.9376V59.9474V59.9573V59.9671V59.9769V59.9866V59.9964V60.0061V60.0158V60.0255V60.0352V60.0449V60.0545V60.0642V60.0738V60.0834V60.0929V60.1025V60.1121V60.1216V60.1311V60.1406V60.15V60.1595V60.1689V60.1784V60.1878V60.1971V60.2065V60.2158V60.2252V60.2345V60.2438V60.253V60.2623V60.2715V60.2807V60.2899V60.2991V60.3082V60.3173V60.3265V60.3355V60.3446V60.3537V60.3627V60.3717V60.3807V60.3897V60.3986V60.4075V60.4165V60.4253V60.4342V60.4431V60.4519V60.4607V60.4695V60.4782V60.487V60.4957V60.5044V60.5131V60.5217V60.5303V60.5389V60.5475V60.5561V60.5646V60.5732V60.5817V60.5901V60.5986V60.607V60.6154V60.6238V60.6322V60.6405V60.6488V60.6571V60.6654V60.6737V60.6819V60.6901V60.6983V60.7064V60.7145V60.7227V60.7307V60.7388V60.7468V60.7548V60.7628V60.7708V60.7787V60.7866V60.7945V60.8024V60.8102V60.818V60.8258V60.8336V60.8413V60.8491V60.8567V60.8644V60.872V60.8797V60.8872V60.8948V60.9023V60.9099V60.9173V60.9248V60.9322V60.9396V60.947V60.9544V60.9617V60.969V60.9763V60.9835V60.9907V60.9979V61.0051V61.0122V61.0193V61.0264V61.0335V61.0405V61.0475V61.0545V61.0614V61.0683V61.0752V61.0821V61.0889V61.0957V61.1025V61.1093V61.116V61.1227V61.1293V61.136V61.1426V61.1492V61.1557V61.1622V61.1687V61.1752V61.1816V61.188V61.1944V61.2008V61.2071V61.2134V61.2196V61.2258V61.232V61.2382V61.2443V61.2504V61.2565V61.2626V61.2686V61.2746V61.2805V61.2864V61.2923V61.2982V61.304V61.3098V61.3156V61.3213V61.327V61.3327V61.3383V61.344V61.3495V61.3551V61.3606V61.3661V61.3715V61.377V61.3823V61.3877V61.393V61.3983V61.4036V61.4088V61.414V61.4191V61.4243V61.4294V61.4344V61.4395V61.4444V61.4494V61.4543V61.4592V61.4641V61.4689V61.4737V61.4785V61.4832V61.4879V61.4925V61.4972V61.5017V61.5063V61.5108V61.5153V61.5198V61.5242V61.5285V61.5329V61.5372V61.5415V61.5457V61.5499V61.5541V61.5582V61.5623V61.5664V61.5704V61.5744V61.5784V61.5823V61.5862V61.59V61.5938V61.5976V61.6014V61.6051V61.6087V61.6124V61.6159V61.6195V61.623V61.6265V61.63V61.6334V61.6367V61.6401V61.6434V61.6466V61.6498V61.653V61.6562V61.6593V61.6623V61.6654V61.6684V61.6713V61.6742V61.6771V61.68V61.6828V61.6855V61.6883V61.6909V61.6936V61.6962V61.6988V61.7013V61.7038V61.7062V61.7086V61.711V61.7133V61.7156V61.7179V61.7201V61.7223V61.7244V61.7265V61.7286V61.7306V61.7326V61.7345V61.7364V61.7382V61.74V61.7418V61.7435V61.7452V61.7469V61.7485V61.75V61.7516V61.753V61.7545V61.7559V61.7572V61.7586V61.7598V61.7611V61.7622V61.7634V61.7645V61.7656V61.7666V61.7676V61.7685V61.7694V61.7702V61.771V61.7718V61.7725V61.7732V61.7738V61.7744V61.775V61.7755V61.776V61.7764V61.7767V61.7771V61.7774V61.7776V61.7778V61.778V61.7781V61.7781V68.2502V68.8255L111.66 69.1783L4.34319 152.507Z" fill="black" fillOpacity="0.2"/>
<path d="M4.34319 152.507H117.735H118.035L118.298 152.65L117.735 153.682C118.298 152.65 118.298 152.65 118.298 152.65L118.299 152.651L118.3 152.651L118.302 152.653L118.31 152.657L118.333 152.67C118.353 152.681 118.379 152.696 118.411 152.714C118.475 152.752 118.564 152.805 118.671 152.872C118.882 153.006 119.17 153.2 119.474 153.44C120.015 153.867 120.864 154.638 121.135 155.641C121.229 155.989 121.249 156.351 121.226 156.7C121.281 156.668 121.335 156.637 121.387 156.605C121.732 156.397 121.95 156.228 122.052 156.118C122.315 155.835 122.51 155.308 122.617 154.694C122.666 154.411 122.689 154.154 122.7 153.968C122.705 153.876 122.707 153.803 122.708 153.756C122.709 153.732 122.709 153.715 122.709 153.706L122.709 153.699L122.709 153.698L122.709 153.698L122.709 153.697V153.697V153.697L122.709 153.691V153.682V71.1627V71.1286L122.711 71.095L122.711 71.0949L122.711 71.0946L122.711 71.0931L122.711 71.0835L122.713 71.0402C122.715 71.0011 122.718 70.9417 122.721 70.8645C122.726 70.7098 122.733 70.4838 122.736 70.2045C122.742 69.6445 122.734 68.8779 122.676 68.0473C122.619 67.213 122.514 66.3382 122.335 65.5541C122.156 64.7738 121.924 64.1745 121.659 63.7927C121.079 63.1187 120.086 62.6415 118.718 62.2114C118.171 62.0395 117.608 61.8873 117.022 61.729C116.88 61.6906 116.737 61.6518 116.592 61.6123C115.867 61.4146 115.113 61.2002 114.41 60.9367C113.718 60.6772 113.078 60.3826 112.549 60.0574C112.404 59.9683 112.257 59.8709 112.114 59.7644V59.768V59.7781V59.7882V59.7982V59.8083V59.8183V59.8284V59.8384V59.8484V59.8584V59.8683V59.8783V59.8882V59.8981V59.908V59.9179V59.9278V59.9376V59.9474V59.9573V59.9671V59.9769V59.9866V59.9964V60.0061V60.0158V60.0255V60.0352V60.0449V60.0545V60.0642V60.0738V60.0834V60.0929V60.1025V60.1121V60.1216V60.1311V60.1406V60.15V60.1595V60.1689V60.1784V60.1878V60.1971V60.2065V60.2158V60.2252V60.2345V60.2438V60.253V60.2623V60.2715V60.2807V60.2899V60.2991V60.3082V60.3173V60.3265V60.3355V60.3446V60.3537V60.3627V60.3717V60.3807V60.3897V60.3986V60.4075V60.4165V60.4253V60.4342V60.4431V60.4519V60.4607V60.4695V60.4782V60.487V60.4957V60.5044V60.5131V60.5217V60.5303V60.5389V60.5475V60.5561V60.5646V60.5732V60.5817V60.5901V60.5986V60.607V60.6154V60.6238V60.6322V60.6405V60.6488V60.6571V60.6654V60.6737V60.6819V60.6901V60.6983V60.7064V60.7145V60.7227V60.7307V60.7388V60.7468V60.7548V60.7628V60.7708V60.7787V60.7866V60.7945V60.8024V60.8102V60.818V60.8258V60.8336V60.8413V60.8491V60.8567V60.8644V60.872V60.8797V60.8872V60.8948V60.9023V60.9099V60.9173V60.9248V60.9322V60.9396V60.947V60.9544V60.9617V60.969V60.9763V60.9835V60.9907V60.9979V61.0051V61.0122V61.0193V61.0264V61.0335V61.0405V61.0475V61.0545V61.0614V61.0683V61.0752V61.0821V61.0889V61.0957V61.1025V61.1093V61.116V61.1227V61.1293V61.136V61.1426V61.1492V61.1557V61.1622V61.1687V61.1752V61.1816V61.188V61.1944V61.2008V61.2071V61.2134V61.2196V61.2258V61.232V61.2382V61.2443V61.2504V61.2565V61.2626V61.2686V61.2746V61.2805V61.2864V61.2923V61.2982V61.304V61.3098V61.3156V61.3213V61.327V61.3327V61.3383V61.344V61.3495V61.3551V61.3606V61.3661V61.3715V61.377V61.3823V61.3877V61.393V61.3983V61.4036V61.4088V61.414V61.4191V61.4243V61.4294V61.4344V61.4395V61.4444V61.4494V61.4543V61.4592V61.4641V61.4689V61.4737V61.4785V61.4832V61.4879V61.4925V61.4972V61.5017V61.5063V61.5108V61.5153V61.5198V61.5242V61.5285V61.5329V61.5372V61.5415V61.5457V61.5499V61.5541V61.5582V61.5623V61.5664V61.5704V61.5744V61.5784V61.5823V61.5862V61.59V61.5938V61.5976V61.6014V61.6051V61.6087V61.6124V61.6159V61.6195V61.623V61.6265V61.63V61.6334V61.6367V61.6401V61.6434V61.6466V61.6498V61.653V61.6562V61.6593V61.6623V61.6654V61.6684V61.6713V61.6742V61.6771V61.68V61.6828V61.6855V61.6883V61.6909V61.6936V61.6962V61.6988V61.7013V61.7038V61.7062V61.7086V61.711V61.7133V61.7156V61.7179V61.7201V61.7223V61.7244V61.7265V61.7286V61.7306V61.7326V61.7345V61.7364V61.7382V61.74V61.7418V61.7435V61.7452V61.7469V61.7485V61.75V61.7516V61.753V61.7545V61.7559V61.7572V61.7586V61.7598V61.7611V61.7622V61.7634V61.7645V61.7656V61.7666V61.7676V61.7685V61.7694V61.7702V61.771V61.7718V61.7725V61.7732V61.7738V61.7744V61.775V61.7755V61.776V61.7764V61.7767V61.7771V61.7774V61.7776V61.7778V61.778V61.7781V61.7781V68.2502V68.8255L111.66 69.1783L4.34319 152.507Z" fill="url(#paint13_angular_6751_30661)" fillOpacity="0.1"/>
<path d="M4.34319 152.507H117.735H118.035L118.298 152.65L117.735 153.682C118.298 152.65 118.298 152.65 118.298 152.65L118.299 152.651L118.3 152.651L118.302 152.653L118.31 152.657L118.333 152.67C118.353 152.681 118.379 152.696 118.411 152.714C118.475 152.752 118.564 152.805 118.671 152.872C118.882 153.006 119.17 153.2 119.474 153.44C120.015 153.867 120.864 154.638 121.135 155.641C121.229 155.989 121.249 156.351 121.226 156.7C121.281 156.668 121.335 156.637 121.387 156.605C121.732 156.397 121.95 156.228 122.052 156.118C122.315 155.835 122.51 155.308 122.617 154.694C122.666 154.411 122.689 154.154 122.7 153.968C122.705 153.876 122.707 153.803 122.708 153.756C122.709 153.732 122.709 153.715 122.709 153.706L122.709 153.699L122.709 153.698L122.709 153.698L122.709 153.697V153.697V153.697L122.709 153.691V153.682V71.1627V71.1286L122.711 71.095L122.711 71.0949L122.711 71.0946L122.711 71.0931L122.711 71.0835L122.713 71.0402C122.715 71.0011 122.718 70.9417 122.721 70.8645C122.726 70.7098 122.733 70.4838 122.736 70.2045C122.742 69.6445 122.734 68.8779 122.676 68.0473C122.619 67.213 122.514 66.3382 122.335 65.5541C122.156 64.7738 121.924 64.1745 121.659 63.7927C121.079 63.1187 120.086 62.6415 118.718 62.2114C118.171 62.0395 117.608 61.8873 117.022 61.729C116.88 61.6906 116.737 61.6518 116.592 61.6123C115.867 61.4146 115.113 61.2002 114.41 60.9367C113.718 60.6772 113.078 60.3826 112.549 60.0574C112.404 59.9683 112.257 59.8709 112.114 59.7644V59.768V59.7781V59.7882V59.7982V59.8083V59.8183V59.8284V59.8384V59.8484V59.8584V59.8683V59.8783V59.8882V59.8981V59.908V59.9179V59.9278V59.9376V59.9474V59.9573V59.9671V59.9769V59.9866V59.9964V60.0061V60.0158V60.0255V60.0352V60.0449V60.0545V60.0642V60.0738V60.0834V60.0929V60.1025V60.1121V60.1216V60.1311V60.1406V60.15V60.1595V60.1689V60.1784V60.1878V60.1971V60.2065V60.2158V60.2252V60.2345V60.2438V60.253V60.2623V60.2715V60.2807V60.2899V60.2991V60.3082V60.3173V60.3265V60.3355V60.3446V60.3537V60.3627V60.3717V60.3807V60.3897V60.3986V60.4075V60.4165V60.4253V60.4342V60.4431V60.4519V60.4607V60.4695V60.4782V60.487V60.4957V60.5044V60.5131V60.5217V60.5303V60.5389V60.5475V60.5561V60.5646V60.5732V60.5817V60.5901V60.5986V60.607V60.6154V60.6238V60.6322V60.6405V60.6488V60.6571V60.6654V60.6737V60.6819V60.6901V60.6983V60.7064V60.7145V60.7227V60.7307V60.7388V60.7468V60.7548V60.7628V60.7708V60.7787V60.7866V60.7945V60.8024V60.8102V60.818V60.8258V60.8336V60.8413V60.8491V60.8567V60.8644V60.872V60.8797V60.8872V60.8948V60.9023V60.9099V60.9173V60.9248V60.9322V60.9396V60.947V60.9544V60.9617V60.969V60.9763V60.9835V60.9907V60.9979V61.0051V61.0122V61.0193V61.0264V61.0335V61.0405V61.0475V61.0545V61.0614V61.0683V61.0752V61.0821V61.0889V61.0957V61.1025V61.1093V61.116V61.1227V61.1293V61.136V61.1426V61.1492V61.1557V61.1622V61.1687V61.1752V61.1816V61.188V61.1944V61.2008V61.2071V61.2134V61.2196V61.2258V61.232V61.2382V61.2443V61.2504V61.2565V61.2626V61.2686V61.2746V61.2805V61.2864V61.2923V61.2982V61.304V61.3098V61.3156V61.3213V61.327V61.3327V61.3383V61.344V61.3495V61.3551V61.3606V61.3661V61.3715V61.377V61.3823V61.3877V61.393V61.3983V61.4036V61.4088V61.414V61.4191V61.4243V61.4294V61.4344V61.4395V61.4444V61.4494V61.4543V61.4592V61.4641V61.4689V61.4737V61.4785V61.4832V61.4879V61.4925V61.4972V61.5017V61.5063V61.5108V61.5153V61.5198V61.5242V61.5285V61.5329V61.5372V61.5415V61.5457V61.5499V61.5541V61.5582V61.5623V61.5664V61.5704V61.5744V61.5784V61.5823V61.5862V61.59V61.5938V61.5976V61.6014V61.6051V61.6087V61.6124V61.6159V61.6195V61.623V61.6265V61.63V61.6334V61.6367V61.6401V61.6434V61.6466V61.6498V61.653V61.6562V61.6593V61.6623V61.6654V61.6684V61.6713V61.6742V61.6771V61.68V61.6828V61.6855V61.6883V61.6909V61.6936V61.6962V61.6988V61.7013V61.7038V61.7062V61.7086V61.711V61.7133V61.7156V61.7179V61.7201V61.7223V61.7244V61.7265V61.7286V61.7306V61.7326V61.7345V61.7364V61.7382V61.74V61.7418V61.7435V61.7452V61.7469V61.7485V61.75V61.7516V61.753V61.7545V61.7559V61.7572V61.7586V61.7598V61.7611V61.7622V61.7634V61.7645V61.7656V61.7666V61.7676V61.7685V61.7694V61.7702V61.771V61.7718V61.7725V61.7732V61.7738V61.7744V61.775V61.7755V61.776V61.7764V61.7767V61.7771V61.7774V61.7776V61.7778V61.778V61.7781V61.7781V68.2502V68.8255L111.66 69.1783L4.34319 152.507Z" stroke="#5BBC2E" strokeWidth="2.35"/>
<path d="M117.735 157.684H2.08906V67.4835H117.735H118.035L118.298 67.3401L117.735 66.3085C118.298 67.3401 118.298 67.34 118.298 67.3398L118.299 67.3396L118.3 67.339L118.302 67.3375L118.31 67.3333L118.333 67.3202C118.353 67.3095 118.379 67.2946 118.411 67.2759C118.475 67.2384 118.564 67.1852 118.671 67.1179C118.882 66.9843 119.17 66.7906 119.474 66.5507C120.015 66.1231 120.864 65.3524 121.135 64.3497C121.229 64.0011 121.249 63.639 121.226 63.2906C121.281 63.3219 121.335 63.3534 121.387 63.385C121.732 63.5929 121.95 63.7625 122.052 63.8724C122.315 64.1554 122.51 64.6827 122.617 65.2967C122.666 65.5792 122.689 65.8363 122.7 66.0223C122.705 66.1145 122.707 66.1872 122.708 66.2343C122.709 66.2578 122.709 66.2748 122.709 66.2845L122.709 66.2913L122.709 66.2918L122.709 66.2926L122.709 66.2932V66.2935V66.2936L122.709 66.2997V66.3085V107.568V148.828V148.862L122.711 148.895L122.711 148.895L122.711 148.896L122.711 148.897L122.711 148.907L122.713 148.95C122.715 148.989 122.718 149.048 122.721 149.126C122.726 149.28 122.733 149.506 122.736 149.786C122.742 150.346 122.734 151.112 122.676 151.943C122.619 152.777 122.514 153.652 122.335 154.436C122.151 155.239 121.91 155.851 121.636 156.23C121.178 156.866 120.312 157.264 119.365 157.483C118.916 157.586 118.501 157.637 118.198 157.662C118.048 157.674 117.928 157.68 117.849 157.682C117.809 157.684 117.78 157.684 117.762 157.684L117.745 157.684H117.735ZM123.884 107.568V148.828V66.3085V107.568Z" fill="white"/>
<path d="M117.735 157.684H2.08906V67.4835H117.735H118.035L118.298 67.3401L117.735 66.3085C118.298 67.3401 118.298 67.34 118.298 67.3398L118.299 67.3396L118.3 67.339L118.302 67.3375L118.31 67.3333L118.333 67.3202C118.353 67.3095 118.379 67.2946 118.411 67.2759C118.475 67.2384 118.564 67.1852 118.671 67.1179C118.882 66.9843 119.17 66.7906 119.474 66.5507C120.015 66.1231 120.864 65.3524 121.135 64.3497C121.229 64.0011 121.249 63.639 121.226 63.2906C121.281 63.3219 121.335 63.3534 121.387 63.385C121.732 63.5929 121.95 63.7625 122.052 63.8724C122.315 64.1554 122.51 64.6827 122.617 65.2967C122.666 65.5792 122.689 65.8363 122.7 66.0223C122.705 66.1145 122.707 66.1872 122.708 66.2343C122.709 66.2578 122.709 66.2748 122.709 66.2845L122.709 66.2913L122.709 66.2918L122.709 66.2926L122.709 66.2932V66.2935V66.2936L122.709 66.2997V66.3085V107.568V148.828V148.862L122.711 148.895L122.711 148.895L122.711 148.896L122.711 148.897L122.711 148.907L122.713 148.95C122.715 148.989 122.718 149.048 122.721 149.126C122.726 149.28 122.733 149.506 122.736 149.786C122.742 150.346 122.734 151.112 122.676 151.943C122.619 152.777 122.514 153.652 122.335 154.436C122.151 155.239 121.91 155.851 121.636 156.23C121.178 156.866 120.312 157.264 119.365 157.483C118.916 157.586 118.501 157.637 118.198 157.662C118.048 157.674 117.928 157.68 117.849 157.682C117.809 157.684 117.78 157.684 117.762 157.684L117.745 157.684H117.735ZM123.884 107.568V148.828V66.3085V107.568Z" fill="url(#paint14_angular_6751_30661)" fillOpacity="0.07"/>
<path d="M117.735 157.684H2.08906V67.4835H117.735H118.035L118.298 67.3401L117.735 66.3085C118.298 67.3401 118.298 67.34 118.298 67.3398L118.299 67.3396L118.3 67.339L118.302 67.3375L118.31 67.3333L118.333 67.3202C118.353 67.3095 118.379 67.2946 118.411 67.2759C118.475 67.2384 118.564 67.1852 118.671 67.1179C118.882 66.9843 119.17 66.7906 119.474 66.5507C120.015 66.1231 120.864 65.3524 121.135 64.3497C121.229 64.0011 121.249 63.639 121.226 63.2906C121.281 63.3219 121.335 63.3534 121.387 63.385C121.732 63.5929 121.95 63.7625 122.052 63.8724C122.315 64.1554 122.51 64.6827 122.617 65.2967C122.666 65.5792 122.689 65.8363 122.7 66.0223C122.705 66.1145 122.707 66.1872 122.708 66.2343C122.709 66.2578 122.709 66.2748 122.709 66.2845L122.709 66.2913L122.709 66.2918L122.709 66.2926L122.709 66.2932V66.2935V66.2936L122.709 66.2997V66.3085V107.568V148.828V148.862L122.711 148.895L122.711 148.895L122.711 148.896L122.711 148.897L122.711 148.907L122.713 148.95C122.715 148.989 122.718 149.048 122.721 149.126C122.726 149.28 122.733 149.506 122.736 149.786C122.742 150.346 122.734 151.112 122.676 151.943C122.619 152.777 122.514 153.652 122.335 154.436C122.151 155.239 121.91 155.851 121.636 156.23C121.178 156.866 120.312 157.264 119.365 157.483C118.916 157.586 118.501 157.637 118.198 157.662C118.048 157.674 117.928 157.68 117.849 157.682C117.809 157.684 117.78 157.684 117.762 157.684L117.745 157.684H117.735ZM123.884 107.568V148.828V66.3085V107.568Z" stroke="#5BBC2E" strokeWidth="2.35"/>
<rect x="12.5625" y="83.1348" width="64.7208" height="2.58883" fill="#5BBC2E"/>
<rect x="12.5625" y="142.031" width="20.7107" height="2.58883" fill="#5BBC2E"/>
<rect x="39.7461" y="142.031" width="20.7107" height="2.58883" fill="#5BBC2E"/>
<rect opacity="0.8" x="197.343" y="133.941" width="20.0635" height="1.94162" fill="#5BBC2E" stroke="#5BBC2E" strokeWidth="0.647208"/>
<rect x="66.9297" y="142.031" width="20.7107" height="2.58883" fill="#5BBC2E"/>
<rect x="12.5625" y="131.029" width="47.8934" height="2.58883" fill="#5BBC2E"/>
<path d="M74.0469 118.731H121.94C121.94 118.731 122.551 118.579 122.911 118.407C123.322 118.21 123.882 117.76 123.882 117.76V120.349C123.882 120.349 123.322 120.799 122.911 120.996C122.551 121.168 121.94 121.319 121.94 121.319H74.0469V118.731Z" fill="#5BBC2E"/>
<path opacity="0.8" d="M148.801 116.466H124.207V118.408H148.801V116.466Z" fill="#5BBC2E" stroke="#5BBC2E" strokeWidth="0.647208"/>
<path d="M123.882 90.9023C123.882 90.9023 122.467 92.5131 121.293 93.1676C120.246 93.7517 118.381 94.1384 118.381 94.1384H12.5625V113.555H118.381C118.381 113.555 120.219 113.476 121.293 112.907C122.368 112.339 123.882 110.642 123.882 110.642" stroke="#5BBC2E" strokeWidth="0.647208"/>
<path opacity="0.8" d="M123.883 86.3711L200.254 86.3711L200.254 105.787L123.883 105.787" stroke="#5BBC2E" strokeWidth="0.647208"/>
<rect opacity="0.8" x="192.812" y="117.761" width="29.1244" height="13.5914" stroke="#5BBC2E" strokeWidth="0.647208"/>
<path opacity="0.8" d="M210.345 107.9V84.3655H211.853V107.9H210.345ZM215.42 91.426C215.31 90.4944 214.862 89.7712 214.078 89.2564C213.293 88.7415 212.331 88.4841 211.191 88.4841C210.358 88.4841 209.628 88.6189 209.003 88.8886C208.384 89.1583 207.9 89.5291 207.551 90.001C207.208 90.4729 207.036 91.0092 207.036 91.6098C207.036 92.1124 207.155 92.5445 207.394 92.9061C207.64 93.2616 207.952 93.5588 208.332 93.7978C208.712 94.0307 209.111 94.2238 209.527 94.377C209.944 94.5241 210.327 94.6436 210.676 94.7356L212.589 95.2504C213.079 95.3791 213.624 95.5568 214.225 95.7836C214.832 96.0104 215.411 96.3199 215.963 96.7121C216.52 97.0982 216.98 97.5947 217.342 98.2014C217.703 98.8082 217.884 99.5528 217.884 100.435C217.884 101.453 217.617 102.372 217.084 103.193C216.557 104.015 215.785 104.667 214.767 105.152C213.756 105.636 212.527 105.878 211.081 105.878C209.733 105.878 208.565 105.66 207.578 105.225C206.598 104.79 205.825 104.183 205.262 103.405C204.704 102.626 204.388 101.722 204.315 100.693H206.668C206.729 101.404 206.968 101.992 207.385 102.458C207.808 102.918 208.341 103.261 208.985 103.488C209.635 103.708 210.333 103.819 211.081 103.819C211.951 103.819 212.733 103.678 213.425 103.396C214.118 103.108 214.666 102.709 215.071 102.201C215.475 101.686 215.678 101.085 215.678 100.399C215.678 99.7735 215.503 99.2648 215.154 98.8725C214.804 98.4803 214.345 98.1616 213.775 97.9164C213.205 97.6713 212.589 97.4568 211.927 97.2729L209.61 96.611C208.139 96.1881 206.975 95.5844 206.117 94.7999C205.259 94.0154 204.83 92.9888 204.83 91.7202C204.83 90.666 205.114 89.7467 205.684 88.9622C206.261 88.1715 207.033 87.5587 208.001 87.1235C208.976 86.6822 210.064 86.4616 211.265 86.4616C212.478 86.4616 213.557 86.6792 214.501 87.1143C215.445 87.5433 216.192 88.1317 216.744 88.8794C217.302 89.6271 217.596 90.476 217.627 91.426H215.42Z" fill="#5BBC2E"/>
<defs>
<linearGradient id="paint0_linear_6751_30661" x1="192.563" y1="46.9109" x2="199.244" y2="67.0333" gradientUnits="userSpaceOnUse">
<stop stopColor="#182F59"/>
<stop offset="1" stopColor="#020F26"/>
</linearGradient>
<radialGradient id="paint1_radial_6751_30661" cx="0" cy="0" r="1" gradientUnits="userSpaceOnUse" gradientTransform="translate(197.246 49.1104) rotate(87.0568) scale(10.8883 24.5099)">
<stop stopColor="#182F59"/>
<stop offset="1" stopColor="#5C7EBC"/>
</radialGradient>
<radialGradient id="paint2_angular_6751_30661" cx="0" cy="0" r="1" gradientUnits="userSpaceOnUse" gradientTransform="translate(216.744 55.3064) rotate(-157.712) scale(30.0599 21.1625)">
<stop stopColor="#4C576B" stopOpacity="0.5"/>
<stop offset="1" stopOpacity="0.7"/>
</radialGradient>
<radialGradient id="paint3_angular_6751_30661" cx="0" cy="0" r="1" gradientUnits="userSpaceOnUse" gradientTransform="translate(233 161.498) rotate(-161.056) scale(160.176 151.205)">
<stop stopColor="#4C576B" stopOpacity="0.5"/>
<stop offset="1" stopOpacity="0.7"/>
</radialGradient>
<linearGradient id="paint4_linear_6751_30661" x1="275.846" y1="68.3335" x2="246.698" y2="-12.788" gradientUnits="userSpaceOnUse">
<stop stopColor="#182F59"/>
<stop offset="1" stopColor="#020F26"/>
</linearGradient>
<radialGradient id="paint5_radial_6751_30661" cx="0" cy="0" r="1" gradientUnits="userSpaceOnUse" gradientTransform="translate(258.109 59.3154) rotate(-92.7198) scale(44.6331 92.8673)">
<stop stopColor="#182F59"/>
<stop offset="1" stopColor="#5C7EBC"/>
</radialGradient>
<radialGradient id="paint6_angular_6751_30661" cx="0" cy="0" r="1" gradientUnits="userSpaceOnUse" gradientTransform="translate(184.246 33.9121) rotate(23.9228) scale(115.269 85.7158)">
<stop stopColor="#4C576B" stopOpacity="0.5"/>
<stop offset="1" stopOpacity="0.7"/>
</radialGradient>
<linearGradient id="paint7_linear_6751_30661" x1="355.996" y1="37.7728" x2="331.807" y2="3.20771" gradientUnits="userSpaceOnUse">
<stop stopColor="#182F59"/>
<stop offset="1" stopColor="#020F26"/>
</linearGradient>
<radialGradient id="paint8_radial_6751_30661" cx="0" cy="0" r="1" gradientUnits="userSpaceOnUse" gradientTransform="translate(350.876 32.703) rotate(-91.3973) scale(25.0707 26.8285)">
<stop stopColor="#182F59"/>
<stop offset="1" stopColor="#5C7EBC"/>
</radialGradient>
<radialGradient id="paint9_angular_6751_30661" cx="0" cy="0" r="1" gradientUnits="userSpaceOnUse" gradientTransform="translate(329.555 18.422) rotate(40.8263) scale(40.1934 39.8898)">
<stop stopColor="#4C576B" stopOpacity="0.5"/>
<stop offset="1" stopOpacity="0.7"/>
</radialGradient>
<linearGradient id="paint10_linear_6751_30661" x1="355.996" y1="37.7728" x2="331.807" y2="3.20771" gradientUnits="userSpaceOnUse">
<stop stopColor="#182F59"/>
<stop offset="1" stopColor="#020F26"/>
</linearGradient>
<radialGradient id="paint11_radial_6751_30661" cx="0" cy="0" r="1" gradientUnits="userSpaceOnUse" gradientTransform="translate(350.876 32.703) rotate(-91.3973) scale(25.0707 26.8285)">
<stop stopColor="#182F59"/>
<stop offset="1" stopColor="#5C7EBC"/>
</radialGradient>
<radialGradient id="paint12_angular_6751_30661" cx="0" cy="0" r="1" gradientUnits="userSpaceOnUse" gradientTransform="translate(329.555 18.422) rotate(40.8263) scale(40.1934 39.8898)">
<stop stopColor="#4C576B" stopOpacity="0.5"/>
<stop offset="1" stopOpacity="0.7"/>
</radialGradient>
<radialGradient id="paint13_angular_6751_30661" cx="0" cy="0" r="1" gradientUnits="userSpaceOnUse" gradientTransform="translate(87.7574 88.4275) rotate(142.45) scale(88.971 86.2436)">
<stop stopColor="#4C576B" stopOpacity="0.5"/>
<stop offset="1" stopOpacity="0.7"/>
</radialGradient>
<radialGradient id="paint14_angular_6751_30661" cx="0" cy="0" r="1" gradientUnits="userSpaceOnUse" gradientTransform="translate(134 113.498) rotate(-160.921) scale(140.73 134.708)">
<stop stopColor="#4C576B" stopOpacity="0.5"/>
<stop offset="0.0441842" stopColor="#495367" stopOpacity="0.508837"/>
<stop offset="1" stopOpacity="0.7"/>
</radialGradient>
</defs>
</svg>
