<svg width="198" height="165" viewBox="0 0 198 165" fill="none" xmlns="http://www.w3.org/2000/svg">
<path d="M144.455 63.6695L121.708 75.7798L133.472 29.6277C133.472 29.6277 134.178 27.9618 133.985 26.8921C133.819 25.9732 132.861 24.7817 132.861 24.7817C132.861 24.7817 130.496 19.3313 127.343 18.1167C124.792 17.1342 120.349 18.3929 120.349 18.3929C120.349 18.3929 118.206 19.2171 117.088 20.1293C116.026 20.9962 114.823 22.8125 114.823 22.8125L78.6708 88.1052C78.6708 88.1052 77.176 90.4807 75.9449 91.7726C74.808 92.9656 72.7083 94.4806 72.7083 94.4806L67.9121 97.0342L88.2383 135.212L161.717 96.0921C161.717 96.0921 168.065 92.4037 170.186 88.8747C171.733 86.3005 172.159 82.4069 172.159 82.4069L172.159 35.8009L151.124 35.8009L148.858 57.1395C148.858 57.1395 148.687 59.6195 147.5 61.0636C146.529 62.2438 144.455 63.6695 144.455 63.6695Z" fill="white"/>
<path d="M121.708 75.7798L144.455 63.6695C144.455 63.6695 146.529 62.2438 147.5 61.0636C148.687 59.6195 148.858 57.1395 148.858 57.1395L151.124 35.8009L172.159 35.8009L172.159 82.4069C172.159 82.4069 171.733 86.3005 170.186 88.8747C168.065 92.4037 161.717 96.0921 161.717 96.0921L88.2383 135.212L67.9121 97.0342L72.7083 94.4806C72.7083 94.4806 74.808 92.9656 75.9449 91.7726C77.176 90.4807 78.6708 88.1052 78.6708 88.1052L114.823 22.8125C114.823 22.8125 116.026 20.9962 117.088 20.1293C118.206 19.2171 120.349 18.3929 120.349 18.3929C120.349 18.3929 124.792 17.1342 127.343 18.1167C130.496 19.3313 132.861 24.7817 132.861 24.7817C132.861 24.7817 133.819 25.9732 133.985 26.8921C134.178 27.9618 133.472 29.6277 133.472 29.6277L118.804 87.1754" stroke="url(#paint0_linear_6708_30374)" strokeWidth="2.35"/>
<path d="M121.708 75.7798L144.455 63.6695C144.455 63.6695 146.529 62.2438 147.5 61.0636C148.687 59.6195 148.858 57.1395 148.858 57.1395L151.124 35.8009L172.159 35.8009L172.159 82.4069C172.159 82.4069 171.733 86.3005 170.186 88.8747C168.065 92.4037 161.717 96.0921 161.717 96.0921L88.2383 135.212L67.9121 97.0342L72.7083 94.4806C72.7083 94.4806 74.808 92.9656 75.9449 91.7726C77.176 90.4807 78.6708 88.1052 78.6708 88.1052L114.823 22.8125C114.823 22.8125 116.026 20.9962 117.088 20.1293C118.206 19.2171 120.349 18.3929 120.349 18.3929C120.349 18.3929 124.792 17.1342 127.343 18.1167C130.496 19.3313 132.861 24.7817 132.861 24.7817C132.861 24.7817 133.819 25.9732 133.985 26.8921C134.178 27.9618 133.472 29.6277 133.472 29.6277L118.804 87.1754" stroke="url(#paint1_radial_6708_30374)" strokeOpacity="0.2" strokeWidth="2.35"/>
<path d="M121.708 75.7798L144.455 63.6695C144.455 63.6695 146.529 62.2438 147.5 61.0636C148.687 59.6195 148.858 57.1395 148.858 57.1395L151.124 35.8009L172.159 35.8009L172.159 82.4069C172.159 82.4069 171.733 86.3005 170.186 88.8747C168.065 92.4037 161.717 96.0921 161.717 96.0921L88.2383 135.212L67.9121 97.0342L72.7083 94.4806C72.7083 94.4806 74.808 92.9656 75.9449 91.7726C77.176 90.4807 78.6708 88.1052 78.6708 88.1052L114.823 22.8125C114.823 22.8125 116.026 20.9962 117.088 20.1293C118.206 19.2171 120.349 18.3929 120.349 18.3929C120.349 18.3929 124.792 17.1342 127.343 18.1167C130.496 19.3313 132.861 24.7817 132.861 24.7817C132.861 24.7817 133.819 25.9732 133.985 26.8921C134.178 27.9618 133.472 29.6277 133.472 29.6277L118.804 87.1754" stroke="url(#paint2_angular_6708_30374)" strokeOpacity="0.1" strokeWidth="2.35"/>
<path d="M41.7352 160.71L20.5919 120.997C20.5919 120.997 20.3795 120.283 20.4649 119.834C20.6303 118.963 22.0769 118.237 22.0769 118.237L62.7491 96.5829C62.7491 96.5829 64.1989 95.9976 65.1659 96.0349C66.307 96.079 67.914 97.0342 67.914 97.0342L88.2401 135.212C88.2401 135.212 88.3274 137.305 87.7392 138.434C87.2802 139.315 86.0374 140.325 86.0374 140.325L45.3652 161.979C45.3652 161.979 43.8736 162.604 43.0381 162.233C42.323 161.915 41.7352 160.71 41.7352 160.71Z" fill="url(#paint3_linear_6708_30374)"/>
<path d="M41.7352 160.71L20.5919 120.997C20.5919 120.997 20.3795 120.283 20.4649 119.834C20.6303 118.963 22.0769 118.237 22.0769 118.237L62.7491 96.5829C62.7491 96.5829 64.1989 95.9976 65.1659 96.0349C66.307 96.079 67.914 97.0342 67.914 97.0342L88.2401 135.212C88.2401 135.212 88.3274 137.305 87.7392 138.434C87.2802 139.315 86.0374 140.325 86.0374 140.325L45.3652 161.979C45.3652 161.979 43.8736 162.604 43.0381 162.233C42.323 161.915 41.7352 160.71 41.7352 160.71Z" fill="url(#paint4_radial_6708_30374)" fillOpacity="0.2"/>
<path d="M41.7352 160.71L20.5919 120.997C20.5919 120.997 20.3795 120.283 20.4649 119.834C20.6303 118.963 22.0769 118.237 22.0769 118.237L62.7491 96.5829C62.7491 96.5829 64.1989 95.9976 65.1659 96.0349C66.307 96.079 67.914 97.0342 67.914 97.0342L88.2401 135.212C88.2401 135.212 88.3274 137.305 87.7392 138.434C87.2802 139.315 86.0374 140.325 86.0374 140.325L45.3652 161.979C45.3652 161.979 43.8736 162.604 43.0381 162.233C42.323 161.915 41.7352 160.71 41.7352 160.71Z" fill="url(#paint5_angular_6708_30374)" fillOpacity="0.1"/>
<path d="M41.7352 160.71L20.5919 120.997C20.5919 120.997 20.3795 120.283 20.4649 119.834C20.6303 118.963 22.0769 118.237 22.0769 118.237L62.7491 96.5829C62.7491 96.5829 64.1989 95.9976 65.1659 96.0349C66.307 96.079 67.914 97.0342 67.914 97.0342L88.2401 135.212C88.2401 135.212 88.3274 137.305 87.7392 138.434C87.2802 139.315 86.0374 140.325 86.0374 140.325L45.3652 161.979C45.3652 161.979 43.8736 162.604 43.0381 162.233C42.323 161.915 41.7352 160.71 41.7352 160.71Z" stroke="url(#paint6_linear_6708_30374)" strokeWidth="4.34692"/>
<path d="M41.7352 160.71L20.5919 120.997C20.5919 120.997 20.3795 120.283 20.4649 119.834C20.6303 118.963 22.0769 118.237 22.0769 118.237L62.7491 96.5829C62.7491 96.5829 64.1989 95.9976 65.1659 96.0349C66.307 96.079 67.914 97.0342 67.914 97.0342L88.2401 135.212C88.2401 135.212 88.3274 137.305 87.7392 138.434C87.2802 139.315 86.0374 140.325 86.0374 140.325L45.3652 161.979C45.3652 161.979 43.8736 162.604 43.0381 162.233C42.323 161.915 41.7352 160.71 41.7352 160.71Z" stroke="url(#paint7_radial_6708_30374)" strokeOpacity="0.2" strokeWidth="4.34692"/>
<path d="M41.7352 160.71L20.5919 120.997C20.5919 120.997 20.3795 120.283 20.4649 119.834C20.6303 118.963 22.0769 118.237 22.0769 118.237L62.7491 96.5829C62.7491 96.5829 64.1989 95.9976 65.1659 96.0349C66.307 96.079 67.914 97.0342 67.914 97.0342L88.2401 135.212C88.2401 135.212 88.3274 137.305 87.7392 138.434C87.2802 139.315 86.0374 140.325 86.0374 140.325L45.3652 161.979C45.3652 161.979 43.8736 162.604 43.0381 162.233C42.323 161.915 41.7352 160.71 41.7352 160.71Z" stroke="url(#paint8_angular_6708_30374)" strokeOpacity="0.1" strokeWidth="4.34692"/>
<defs>
<linearGradient id="paint0_linear_6708_30374" x1="81.2925" y1="68.8327" x2="148.461" y2="112.974" gradientUnits="userSpaceOnUse">
<stop stopColor="#182F59"/>
<stop offset="1" stopColor="#020F26"/>
</linearGradient>
<radialGradient id="paint1_radial_6708_30374" cx="0" cy="0" r="1" gradientUnits="userSpaceOnUse" gradientTransform="translate(95.8243 71.3125) rotate(60.1801) scale(44.6046 61.0956)">
<stop stopColor="#182F59"/>
<stop offset="1" stopColor="#5C7EBC"/>
</radialGradient>
<radialGradient id="paint2_angular_6708_30374" cx="0" cy="0" r="1" gradientUnits="userSpaceOnUse" gradientTransform="translate(150.628 70.9144) rotate(-174.022) scale(83.5689 77.7317)">
<stop stopColor="#4C576B" stopOpacity="0.5"/>
<stop offset="1" stopOpacity="0.7"/>
</radialGradient>
<linearGradient id="paint3_linear_6708_30374" x1="36.433" y1="127.339" x2="74.0279" y2="146.482" gradientUnits="userSpaceOnUse">
<stop stopColor="#182F59"/>
<stop offset="1" stopColor="#020F26"/>
</linearGradient>
<radialGradient id="paint4_radial_6708_30374" cx="0" cy="0" r="1" gradientUnits="userSpaceOnUse" gradientTransform="translate(43.3349 129.407) rotate(60.5718) scale(25.0707 26.8285)">
<stop stopColor="#182F59"/>
<stop offset="1" stopColor="#5C7EBC"/>
</radialGradient>
<radialGradient id="paint5_angular_6708_30374" cx="0" cy="0" r="1" gradientUnits="userSpaceOnUse" gradientTransform="translate(68.8657 131.994) rotate(-167.205) scale(40.1934 39.8898)">
<stop stopColor="#4C576B" stopOpacity="0.5"/>
<stop offset="1" stopOpacity="0.7"/>
</radialGradient>
<linearGradient id="paint6_linear_6708_30374" x1="36.433" y1="127.339" x2="74.0279" y2="146.482" gradientUnits="userSpaceOnUse">
<stop stopColor="#182F59"/>
<stop offset="1" stopColor="#020F26"/>
</linearGradient>
<radialGradient id="paint7_radial_6708_30374" cx="0" cy="0" r="1" gradientUnits="userSpaceOnUse" gradientTransform="translate(43.3349 129.407) rotate(60.5718) scale(25.0707 26.8285)">
<stop stopColor="#182F59"/>
<stop offset="1" stopColor="#5C7EBC"/>
</radialGradient>
<radialGradient id="paint8_angular_6708_30374" cx="0" cy="0" r="1" gradientUnits="userSpaceOnUse" gradientTransform="translate(68.8657 131.994) rotate(-167.205) scale(40.1934 39.8898)">
<stop stopColor="#4C576B" stopOpacity="0.5"/>
<stop offset="1" stopOpacity="0.7"/>
</radialGradient>
</defs>
</svg>
