<svg width="57" height="158" viewBox="0 0 57 158" fill="none" xmlns="http://www.w3.org/2000/svg">
<mask id="path-1-inside-1_6792_32337" fill="white">
<path fillRule="evenodd" clipRule="evenodd" d="M18.2042 156.861L16.8292 156.852L16.8307 156.623C7.6213 153.485 0.571267 119.627 0.83995 78.371C1.10863 37.1151 8.59906 3.35184 17.8485 0.33353L17.85 0.105104L19.225 0.114058L37.0996 0.230469L36.5892 78.6038L36.0788 156.977L18.2042 156.861Z"/>
</mask>
<path fillRule="evenodd" clipRule="evenodd" d="M18.2042 156.861L16.8292 156.852L16.8307 156.623C7.6213 153.485 0.571267 119.627 0.83995 78.371C1.10863 37.1151 8.59906 3.35184 17.8485 0.33353L17.85 0.105104L19.225 0.114058L37.0996 0.230469L36.5892 78.6038L36.0788 156.977L18.2042 156.861Z" fill="url(#paint0_linear_6792_32337)"/>
<path fillRule="evenodd" clipRule="evenodd" d="M18.2042 156.861L16.8292 156.852L16.8307 156.623C7.6213 153.485 0.571267 119.627 0.83995 78.371C1.10863 37.1151 8.59906 3.35184 17.8485 0.33353L17.85 0.105104L19.225 0.114058L37.0996 0.230469L36.5892 78.6038L36.0788 156.977L18.2042 156.861Z" fill="#003D3D" fillOpacity="0.7"/>
<path fillRule="evenodd" clipRule="evenodd" d="M18.2042 156.861L16.8292 156.852L16.8307 156.623C7.6213 153.485 0.571267 119.627 0.83995 78.371C1.10863 37.1151 8.59906 3.35184 17.8485 0.33353L17.85 0.105104L19.225 0.114058L37.0996 0.230469L36.5892 78.6038L36.0788 156.977L18.2042 156.861Z" fill="url(#paint1_angular_6792_32337)" fillOpacity="0.2"/>
<path d="M16.8292 156.852L14.0792 156.834L14.0613 159.584L16.8113 159.602L16.8292 156.852ZM16.8307 156.623L19.5806 156.641L19.5935 154.66L17.7178 154.02L16.8307 156.623ZM17.8485 0.33353L18.7016 2.94786L20.5856 2.33309L20.5985 0.351439L17.8485 0.33353ZM17.85 0.105104L17.8679 -2.64484L15.118 -2.66275L15.1001 0.0871942L17.85 0.105104ZM37.0996 0.230469L39.8496 0.248378L39.8675 -2.50156L37.1175 -2.51947L37.0996 0.230469ZM36.5892 78.6038L39.3391 78.6217L36.5892 78.6038ZM36.0788 156.977L36.0609 159.727L38.8108 159.745L38.8287 156.995L36.0788 156.977ZM18.2221 154.111L16.8471 154.102L16.8113 159.602L18.1862 159.611L18.2221 154.111ZM19.5791 156.87L19.5806 156.641L14.0807 156.605L14.0792 156.834L19.5791 156.87ZM17.7178 154.02C17.2207 153.851 16.4988 153.384 15.6133 152.306C14.7389 151.242 13.8246 149.727 12.9092 147.729C11.0783 143.732 9.39339 138.14 7.97474 131.238C5.14254 117.457 3.45646 98.8771 3.58989 78.3889L-1.90999 78.3531C-2.04524 99.1208 -0.340644 118.098 2.58734 132.345C4.04878 139.456 5.8364 145.496 7.90904 150.019C8.94547 152.282 10.0908 154.249 11.3636 155.798C12.6253 157.333 14.1383 158.611 15.9436 159.226L17.7178 154.02ZM3.58989 78.3889C3.72332 57.9007 5.65125 39.3445 8.66271 25.6018C10.1711 18.7181 11.9287 13.1488 13.8116 9.17651C14.7529 7.19063 15.6868 5.6872 16.575 4.63442C17.4745 3.56819 18.2025 3.11075 18.7016 2.94786L16.9954 -2.2808C15.1822 -1.68912 13.6528 -0.431203 12.3712 1.08788C11.0783 2.62041 9.90744 4.57223 8.84164 6.82072C6.71025 11.3172 4.84412 17.3332 3.29019 24.4245C0.176887 38.632 -1.77474 57.5853 -1.90999 78.3531L3.58989 78.3889ZM20.5985 0.351439L20.6 0.123013L15.1001 0.0871942L15.0986 0.31562L20.5985 0.351439ZM17.8321 2.85505L19.2071 2.864L19.2429 -2.63588L17.8679 -2.64484L17.8321 2.85505ZM19.2071 2.864L37.0817 2.98041L37.1175 -2.51947L19.2429 -2.63588L19.2071 2.864ZM34.3497 0.212559L33.8393 78.5859L39.3391 78.6217L39.8496 0.248378L34.3497 0.212559ZM33.8393 78.5859L33.3288 156.959L38.8287 156.995L39.3391 78.6217L33.8393 78.5859ZM36.0967 154.227L18.2221 154.111L18.1862 159.611L36.0609 159.727L36.0967 154.227Z" fill="url(#paint2_linear_6792_32337)" mask="url(#path-1-inside-1_6792_32337)"/>
<path d="M16.8292 156.852L14.0792 156.834L14.0613 159.584L16.8113 159.602L16.8292 156.852ZM16.8307 156.623L19.5806 156.641L19.5935 154.66L17.7178 154.02L16.8307 156.623ZM17.8485 0.33353L18.7016 2.94786L20.5856 2.33309L20.5985 0.351439L17.8485 0.33353ZM17.85 0.105104L17.8679 -2.64484L15.118 -2.66275L15.1001 0.0871942L17.85 0.105104ZM37.0996 0.230469L39.8496 0.248378L39.8675 -2.50156L37.1175 -2.51947L37.0996 0.230469ZM36.5892 78.6038L39.3391 78.6217L36.5892 78.6038ZM36.0788 156.977L36.0609 159.727L38.8108 159.745L38.8287 156.995L36.0788 156.977ZM18.2221 154.111L16.8471 154.102L16.8113 159.602L18.1862 159.611L18.2221 154.111ZM19.5791 156.87L19.5806 156.641L14.0807 156.605L14.0792 156.834L19.5791 156.87ZM17.7178 154.02C17.2207 153.851 16.4988 153.384 15.6133 152.306C14.7389 151.242 13.8246 149.727 12.9092 147.729C11.0783 143.732 9.39339 138.14 7.97474 131.238C5.14254 117.457 3.45646 98.8771 3.58989 78.3889L-1.90999 78.3531C-2.04524 99.1208 -0.340644 118.098 2.58734 132.345C4.04878 139.456 5.8364 145.496 7.90904 150.019C8.94547 152.282 10.0908 154.249 11.3636 155.798C12.6253 157.333 14.1383 158.611 15.9436 159.226L17.7178 154.02ZM3.58989 78.3889C3.72332 57.9007 5.65125 39.3445 8.66271 25.6018C10.1711 18.7181 11.9287 13.1488 13.8116 9.17651C14.7529 7.19063 15.6868 5.6872 16.575 4.63442C17.4745 3.56819 18.2025 3.11075 18.7016 2.94786L16.9954 -2.2808C15.1822 -1.68912 13.6528 -0.431203 12.3712 1.08788C11.0783 2.62041 9.90744 4.57223 8.84164 6.82072C6.71025 11.3172 4.84412 17.3332 3.29019 24.4245C0.176887 38.632 -1.77474 57.5853 -1.90999 78.3531L3.58989 78.3889ZM20.5985 0.351439L20.6 0.123013L15.1001 0.0871942L15.0986 0.31562L20.5985 0.351439ZM17.8321 2.85505L19.2071 2.864L19.2429 -2.63588L17.8679 -2.64484L17.8321 2.85505ZM19.2071 2.864L37.0817 2.98041L37.1175 -2.51947L19.2429 -2.63588L19.2071 2.864ZM34.3497 0.212559L33.8393 78.5859L39.3391 78.6217L39.8496 0.248378L34.3497 0.212559ZM33.8393 78.5859L33.3288 156.959L38.8287 156.995L39.3391 78.6217L33.8393 78.5859ZM36.0967 154.227L18.2221 154.111L18.1862 159.611L36.0609 159.727L36.0967 154.227Z" fill="#003D3D" fillOpacity="0.7" mask="url(#path-1-inside-1_6792_32337)"/>
<path d="M16.8292 156.852L14.0792 156.834L14.0613 159.584L16.8113 159.602L16.8292 156.852ZM16.8307 156.623L19.5806 156.641L19.5935 154.66L17.7178 154.02L16.8307 156.623ZM17.8485 0.33353L18.7016 2.94786L20.5856 2.33309L20.5985 0.351439L17.8485 0.33353ZM17.85 0.105104L17.8679 -2.64484L15.118 -2.66275L15.1001 0.0871942L17.85 0.105104ZM37.0996 0.230469L39.8496 0.248378L39.8675 -2.50156L37.1175 -2.51947L37.0996 0.230469ZM36.5892 78.6038L39.3391 78.6217L36.5892 78.6038ZM36.0788 156.977L36.0609 159.727L38.8108 159.745L38.8287 156.995L36.0788 156.977ZM18.2221 154.111L16.8471 154.102L16.8113 159.602L18.1862 159.611L18.2221 154.111ZM19.5791 156.87L19.5806 156.641L14.0807 156.605L14.0792 156.834L19.5791 156.87ZM17.7178 154.02C17.2207 153.851 16.4988 153.384 15.6133 152.306C14.7389 151.242 13.8246 149.727 12.9092 147.729C11.0783 143.732 9.39339 138.14 7.97474 131.238C5.14254 117.457 3.45646 98.8771 3.58989 78.3889L-1.90999 78.3531C-2.04524 99.1208 -0.340644 118.098 2.58734 132.345C4.04878 139.456 5.8364 145.496 7.90904 150.019C8.94547 152.282 10.0908 154.249 11.3636 155.798C12.6253 157.333 14.1383 158.611 15.9436 159.226L17.7178 154.02ZM3.58989 78.3889C3.72332 57.9007 5.65125 39.3445 8.66271 25.6018C10.1711 18.7181 11.9287 13.1488 13.8116 9.17651C14.7529 7.19063 15.6868 5.6872 16.575 4.63442C17.4745 3.56819 18.2025 3.11075 18.7016 2.94786L16.9954 -2.2808C15.1822 -1.68912 13.6528 -0.431203 12.3712 1.08788C11.0783 2.62041 9.90744 4.57223 8.84164 6.82072C6.71025 11.3172 4.84412 17.3332 3.29019 24.4245C0.176887 38.632 -1.77474 57.5853 -1.90999 78.3531L3.58989 78.3889ZM20.5985 0.351439L20.6 0.123013L15.1001 0.0871942L15.0986 0.31562L20.5985 0.351439ZM17.8321 2.85505L19.2071 2.864L19.2429 -2.63588L17.8679 -2.64484L17.8321 2.85505ZM19.2071 2.864L37.0817 2.98041L37.1175 -2.51947L19.2429 -2.63588L19.2071 2.864ZM34.3497 0.212559L33.8393 78.5859L39.3391 78.6217L39.8496 0.248378L34.3497 0.212559ZM33.8393 78.5859L33.3288 156.959L38.8287 156.995L39.3391 78.6217L33.8393 78.5859ZM36.0967 154.227L18.2221 154.111L18.1862 159.611L36.0609 159.727L36.0967 154.227Z" fill="url(#paint3_angular_6792_32337)" fillOpacity="0.2" mask="url(#path-1-inside-1_6792_32337)"/>
<mask id="path-3-inside-2_6792_32337" fill="white">
<path d="M37.0156 13.9814L36.9977 16.7314L9.4983 16.5523L9.51621 13.8024L37.0156 13.9814Z"/>
</mask>
<path d="M37.0156 13.9814L36.9977 16.7314L9.4983 16.5523L9.51621 13.8024L37.0156 13.9814Z" fill="white"/>
<path d="M37.0156 13.9814L39.7656 13.9994L39.7835 11.2494L37.0335 11.2315L37.0156 13.9814ZM36.9977 16.7314L36.9798 19.4813L39.7297 19.4992L39.7477 16.7493L36.9977 16.7314ZM34.2657 13.9635L34.2478 16.7135L39.7477 16.7493L39.7656 13.9994L34.2657 13.9635ZM37.0156 13.9814L9.51621 13.8024L9.48039 19.3022L36.9798 19.4813L37.0156 13.9814ZM9.4983 16.5523L36.9977 16.7314L37.0335 11.2315L9.53412 11.0524L9.4983 16.5523Z" fill="#FAFAFA" mask="url(#path-3-inside-2_6792_32337)"/>
<mask id="path-5-inside-3_6792_32337" fill="white">
<path d="M34.1465 31.8369L34.1286 34.5869L6.62916 34.4078L6.64707 31.6578L34.1465 31.8369Z"/>
</mask>
<path d="M34.1465 31.8369L34.1286 34.5869L6.62916 34.4078L6.64707 31.6578L34.1465 31.8369Z" fill="white"/>
<path d="M34.1465 31.8369L36.8964 31.8548L36.9143 29.1049L34.1644 29.087L34.1465 31.8369ZM34.1286 34.5869L34.1107 37.3368L36.8606 37.3547L36.8785 34.6048L34.1286 34.5869ZM31.3965 31.819L31.3786 34.5689L36.8785 34.6048L36.8964 31.8548L31.3965 31.819ZM34.1465 31.8369L6.64707 31.6578L6.61125 37.1577L34.1107 37.3368L34.1465 31.8369ZM6.62916 34.4078L34.1286 34.5869L34.1644 29.087L6.66498 28.9079L6.62916 34.4078Z" fill="#FAFAFA" mask="url(#path-5-inside-3_6792_32337)"/>
<mask id="path-7-inside-4_6792_32337" fill="white">
<path d="M31.2793 49.6963L31.2614 52.4462L3.76197 52.2671L3.77988 49.5172L31.2793 49.6963Z"/>
</mask>
<path d="M31.2793 49.6963L31.2614 52.4462L3.76197 52.2671L3.77988 49.5172L31.2793 49.6963Z" fill="white"/>
<path d="M31.2793 49.6963L34.0292 49.7142L34.0471 46.9643L31.2972 46.9463L31.2793 49.6963ZM31.2614 52.4462L31.2435 55.1962L33.9934 55.2141L34.0113 52.4641L31.2614 52.4462ZM28.5294 49.6784L28.5114 52.4283L34.0113 52.4641L34.0292 49.7142L28.5294 49.6784ZM31.2793 49.6963L3.77988 49.5172L3.74406 55.0171L31.2435 55.1962L31.2793 49.6963ZM3.76197 52.2671L31.2614 52.4462L31.2972 46.9463L3.79779 46.7673L3.76197 52.2671Z" fill="#FAFAFA" mask="url(#path-7-inside-4_6792_32337)"/>
<mask id="path-9-inside-5_6792_32337" fill="white">
<path d="M31.1602 67.5684L31.1422 70.3183L3.64283 70.1392L3.66074 67.3893L31.1602 67.5684Z"/>
</mask>
<path d="M31.1602 67.5684L31.1422 70.3183L3.64283 70.1392L3.66074 67.3893L31.1602 67.5684Z" fill="white"/>
<path d="M31.1602 67.5684L33.9101 67.5863L33.928 64.8363L31.1781 64.8184L31.1602 67.5684ZM31.1422 70.3183L31.1243 73.0682L33.8743 73.0862L33.8922 70.3362L31.1422 70.3183ZM28.4102 67.5505L28.3923 70.3004L33.8922 70.3362L33.9101 67.5863L28.4102 67.5505ZM31.1602 67.5684L3.66074 67.3893L3.62492 72.8891L31.1243 73.0682L31.1602 67.5684ZM3.64283 70.1392L31.1422 70.3183L31.1781 64.8184L3.67865 64.6393L3.64283 70.1392Z" fill="#FAFAFA" mask="url(#path-9-inside-5_6792_32337)"/>
<mask id="path-11-inside-6_6792_32337" fill="white">
<path d="M28.291 85.4277L28.2731 88.1777L0.773688 87.9986L0.791598 85.2486L28.291 85.4277Z"/>
</mask>
<path d="M28.291 85.4277L28.2731 88.1777L0.773688 87.9986L0.791598 85.2486L28.291 85.4277Z" fill="white"/>
<path d="M28.291 85.4277L31.041 85.4456L31.0589 82.6957L28.3089 82.6778L28.291 85.4277ZM28.2731 88.1777L28.2552 90.9276L31.0051 90.9455L31.023 88.1956L28.2731 88.1777ZM25.5411 85.4098L25.5232 88.1598L31.023 88.1956L31.041 85.4456L25.5411 85.4098ZM28.291 85.4277L0.791598 85.2486L0.755779 90.7485L28.2552 90.9276L28.291 85.4277ZM0.773688 87.9986L28.2731 88.1777L28.3089 82.6778L0.809507 82.4987L0.773688 87.9986Z" fill="#FAFAFA" mask="url(#path-11-inside-6_6792_32337)"/>
<mask id="path-13-inside-7_6792_32337" fill="white">
<path d="M30.9336 103.318L30.9157 106.068L3.41627 105.889L3.43418 103.139L30.9336 103.318Z"/>
</mask>
<path d="M30.9336 103.318L30.9157 106.068L3.41627 105.889L3.43418 103.139L30.9336 103.318Z" fill="white"/>
<path d="M30.9336 103.318L33.6835 103.336L33.7014 100.586L30.9515 100.568L30.9336 103.318ZM30.9157 106.068L30.8978 108.818L33.6477 108.836L33.6656 106.086L30.9157 106.068ZM28.1837 103.3L28.1657 106.05L33.6656 106.086L33.6835 103.336L28.1837 103.3ZM30.9336 103.318L3.43418 103.139L3.39836 108.639L30.8978 108.818L30.9336 103.318ZM3.41627 105.889L30.9157 106.068L30.9515 100.568L3.45208 100.389L3.41627 105.889Z" fill="#FAFAFA" mask="url(#path-13-inside-7_6792_32337)"/>
<mask id="path-15-inside-8_6792_32337" fill="white">
<path d="M33.5664 121.212L33.5485 123.962L6.04908 123.783L6.06699 121.033L33.5664 121.212Z"/>
</mask>
<path d="M33.5664 121.212L33.5485 123.962L6.04908 123.783L6.06699 121.033L33.5664 121.212Z" fill="white"/>
<path d="M33.5664 121.212L36.3163 121.23L36.3343 118.48L33.5843 118.462L33.5664 121.212ZM33.5485 123.962L33.5306 126.712L36.2805 126.73L36.2984 123.98L33.5485 123.962ZM30.8165 121.194L30.7986 123.944L36.2984 123.98L36.3163 121.23L30.8165 121.194ZM33.5664 121.212L6.06699 121.033L6.03117 126.533L33.5306 126.712L33.5664 121.212ZM6.04908 123.783L33.5485 123.962L33.5843 118.462L6.0849 118.283L6.04908 123.783Z" fill="#FAFAFA" mask="url(#path-15-inside-8_6792_32337)"/>
<mask id="path-17-inside-9_6792_32337" fill="white">
<path d="M36.1973 139.104L36.1794 141.853L8.67994 141.674L8.69785 138.924L36.1973 139.104Z"/>
</mask>
<path d="M36.1973 139.104L36.1794 141.853L8.67994 141.674L8.69785 138.924L36.1973 139.104Z" fill="white"/>
<path d="M36.1973 139.104L38.9472 139.121L38.9651 136.371L36.2152 136.354L36.1973 139.104ZM36.1794 141.853L36.1614 144.603L38.9114 144.621L38.9293 141.871L36.1794 141.853ZM33.4473 139.086L33.4294 141.836L38.9293 141.871L38.9472 139.121L33.4473 139.086ZM36.1973 139.104L8.69785 138.924L8.66203 144.424L36.1614 144.603L36.1973 139.104ZM8.67994 141.674L36.1794 141.853L36.2152 136.354L8.71576 136.174L8.67994 141.674Z" fill="#FAFAFA" mask="url(#path-17-inside-9_6792_32337)"/>
<mask id="path-19-inside-10_6792_32337" fill="white">
<path fillRule="evenodd" clipRule="evenodd" d="M18.2022 156.861L16.8272 156.852L16.8287 156.623C7.61935 153.485 0.569313 119.627 0.837997 78.371C1.10668 37.1151 8.59711 3.35184 17.8466 0.33353L17.8481 0.105104L19.223 0.114058L37.0977 0.230469L36.5872 78.6038L36.0768 156.977L18.2022 156.861Z"/>
</mask>
<path d="M18.2022 156.861L18.1843 159.611L18.2022 156.861ZM16.8272 156.852L14.0773 156.834L14.0594 159.584L16.8093 159.602L16.8272 156.852ZM16.8287 156.623L19.5787 156.641L19.5916 154.66L17.7158 154.02L16.8287 156.623ZM17.8466 0.33353L18.6997 2.94786L20.5836 2.33309L20.5965 0.351439L17.8466 0.33353ZM17.8481 0.105104L17.866 -2.64484L15.116 -2.66275L15.0981 0.0871942L17.8481 0.105104ZM19.223 0.114058L19.2409 -2.63588L19.223 0.114058ZM37.0977 0.230469L39.8476 0.248378L39.8655 -2.50156L37.1156 -2.51947L37.0977 0.230469ZM36.5872 78.6038L39.3372 78.6217L36.5872 78.6038ZM36.0768 156.977L36.0589 159.727L38.8089 159.745L38.8268 156.995L36.0768 156.977ZM18.2201 154.111L16.8451 154.102L16.8093 159.602L18.1843 159.611L18.2201 154.111ZM19.5772 156.87L19.5787 156.641L14.0788 156.605L14.0773 156.834L19.5772 156.87ZM17.7158 154.02C17.2188 153.851 16.4969 153.384 15.6113 152.306C14.7369 151.242 13.8227 149.727 12.9073 147.729C11.0763 143.732 9.39144 138.14 7.97279 131.238C5.14058 117.457 3.45451 98.8771 3.58794 78.3889L-1.91194 78.3531C-2.0472 99.1208 -0.342597 118.098 2.58539 132.345C4.04683 139.456 5.83444 145.496 7.90708 150.019C8.94352 152.282 10.0888 154.249 11.3617 155.798C12.6234 157.333 14.1363 158.611 15.9416 159.226L17.7158 154.02ZM3.58794 78.3889C3.72137 57.9007 5.6493 39.3445 8.66075 25.6018C10.1692 18.7181 11.9267 13.1488 13.8096 9.17651C14.7509 7.19063 15.6849 5.6872 16.5731 4.63442C17.4726 3.56819 18.2005 3.11075 18.6997 2.94786L16.9935 -2.2808C15.1803 -1.68912 13.6508 -0.431203 12.3692 1.08788C11.0763 2.62041 9.90549 4.57223 8.83968 6.82072C6.70829 11.3172 4.84217 17.3332 3.28823 24.4245C0.174934 38.632 -1.77669 57.5853 -1.91194 78.3531L3.58794 78.3889ZM20.5965 0.351439L20.598 0.123013L15.0981 0.0871942L15.0966 0.31562L20.5965 0.351439ZM17.8302 2.85505L19.2051 2.864L19.2409 -2.63588L17.866 -2.64484L17.8302 2.85505ZM19.2051 2.864L37.0797 2.98041L37.1156 -2.51947L19.2409 -2.63588L19.2051 2.864ZM34.3477 0.212559L33.8373 78.5859L39.3372 78.6217L39.8476 0.248378L34.3477 0.212559ZM33.8373 78.5859L33.3269 156.959L38.8268 156.995L39.3372 78.6217L33.8373 78.5859ZM36.0947 154.227L18.2201 154.111L18.1843 159.611L36.0589 159.727L36.0947 154.227Z" fill="url(#paint4_linear_6792_32337)" mask="url(#path-19-inside-10_6792_32337)"/>
<path d="M18.2022 156.861L18.1843 159.611L18.2022 156.861ZM16.8272 156.852L14.0773 156.834L14.0594 159.584L16.8093 159.602L16.8272 156.852ZM16.8287 156.623L19.5787 156.641L19.5916 154.66L17.7158 154.02L16.8287 156.623ZM17.8466 0.33353L18.6997 2.94786L20.5836 2.33309L20.5965 0.351439L17.8466 0.33353ZM17.8481 0.105104L17.866 -2.64484L15.116 -2.66275L15.0981 0.0871942L17.8481 0.105104ZM19.223 0.114058L19.2409 -2.63588L19.223 0.114058ZM37.0977 0.230469L39.8476 0.248378L39.8655 -2.50156L37.1156 -2.51947L37.0977 0.230469ZM36.5872 78.6038L39.3372 78.6217L36.5872 78.6038ZM36.0768 156.977L36.0589 159.727L38.8089 159.745L38.8268 156.995L36.0768 156.977ZM18.2201 154.111L16.8451 154.102L16.8093 159.602L18.1843 159.611L18.2201 154.111ZM19.5772 156.87L19.5787 156.641L14.0788 156.605L14.0773 156.834L19.5772 156.87ZM17.7158 154.02C17.2188 153.851 16.4969 153.384 15.6113 152.306C14.7369 151.242 13.8227 149.727 12.9073 147.729C11.0763 143.732 9.39144 138.14 7.97279 131.238C5.14058 117.457 3.45451 98.8771 3.58794 78.3889L-1.91194 78.3531C-2.0472 99.1208 -0.342597 118.098 2.58539 132.345C4.04683 139.456 5.83444 145.496 7.90708 150.019C8.94352 152.282 10.0888 154.249 11.3617 155.798C12.6234 157.333 14.1363 158.611 15.9416 159.226L17.7158 154.02ZM3.58794 78.3889C3.72137 57.9007 5.6493 39.3445 8.66075 25.6018C10.1692 18.7181 11.9267 13.1488 13.8096 9.17651C14.7509 7.19063 15.6849 5.6872 16.5731 4.63442C17.4726 3.56819 18.2005 3.11075 18.6997 2.94786L16.9935 -2.2808C15.1803 -1.68912 13.6508 -0.431203 12.3692 1.08788C11.0763 2.62041 9.90549 4.57223 8.83968 6.82072C6.70829 11.3172 4.84217 17.3332 3.28823 24.4245C0.174934 38.632 -1.77669 57.5853 -1.91194 78.3531L3.58794 78.3889ZM20.5965 0.351439L20.598 0.123013L15.0981 0.0871942L15.0966 0.31562L20.5965 0.351439ZM17.8302 2.85505L19.2051 2.864L19.2409 -2.63588L17.866 -2.64484L17.8302 2.85505ZM19.2051 2.864L37.0797 2.98041L37.1156 -2.51947L19.2409 -2.63588L19.2051 2.864ZM34.3477 0.212559L33.8373 78.5859L39.3372 78.6217L39.8476 0.248378L34.3477 0.212559ZM33.8373 78.5859L33.3269 156.959L38.8268 156.995L39.3372 78.6217L33.8373 78.5859ZM36.0947 154.227L18.2201 154.111L18.1843 159.611L36.0589 159.727L36.0947 154.227Z" fill="#003D3D" fillOpacity="0.7" mask="url(#path-19-inside-10_6792_32337)"/>
<path d="M18.2022 156.861L18.1843 159.611L18.2022 156.861ZM16.8272 156.852L14.0773 156.834L14.0594 159.584L16.8093 159.602L16.8272 156.852ZM16.8287 156.623L19.5787 156.641L19.5916 154.66L17.7158 154.02L16.8287 156.623ZM17.8466 0.33353L18.6997 2.94786L20.5836 2.33309L20.5965 0.351439L17.8466 0.33353ZM17.8481 0.105104L17.866 -2.64484L15.116 -2.66275L15.0981 0.0871942L17.8481 0.105104ZM19.223 0.114058L19.2409 -2.63588L19.223 0.114058ZM37.0977 0.230469L39.8476 0.248378L39.8655 -2.50156L37.1156 -2.51947L37.0977 0.230469ZM36.5872 78.6038L39.3372 78.6217L36.5872 78.6038ZM36.0768 156.977L36.0589 159.727L38.8089 159.745L38.8268 156.995L36.0768 156.977ZM18.2201 154.111L16.8451 154.102L16.8093 159.602L18.1843 159.611L18.2201 154.111ZM19.5772 156.87L19.5787 156.641L14.0788 156.605L14.0773 156.834L19.5772 156.87ZM17.7158 154.02C17.2188 153.851 16.4969 153.384 15.6113 152.306C14.7369 151.242 13.8227 149.727 12.9073 147.729C11.0763 143.732 9.39144 138.14 7.97279 131.238C5.14058 117.457 3.45451 98.8771 3.58794 78.3889L-1.91194 78.3531C-2.0472 99.1208 -0.342597 118.098 2.58539 132.345C4.04683 139.456 5.83444 145.496 7.90708 150.019C8.94352 152.282 10.0888 154.249 11.3617 155.798C12.6234 157.333 14.1363 158.611 15.9416 159.226L17.7158 154.02ZM3.58794 78.3889C3.72137 57.9007 5.6493 39.3445 8.66075 25.6018C10.1692 18.7181 11.9267 13.1488 13.8096 9.17651C14.7509 7.19063 15.6849 5.6872 16.5731 4.63442C17.4726 3.56819 18.2005 3.11075 18.6997 2.94786L16.9935 -2.2808C15.1803 -1.68912 13.6508 -0.431203 12.3692 1.08788C11.0763 2.62041 9.90549 4.57223 8.83968 6.82072C6.70829 11.3172 4.84217 17.3332 3.28823 24.4245C0.174934 38.632 -1.77669 57.5853 -1.91194 78.3531L3.58794 78.3889ZM20.5965 0.351439L20.598 0.123013L15.0981 0.0871942L15.0966 0.31562L20.5965 0.351439ZM17.8302 2.85505L19.2051 2.864L19.2409 -2.63588L17.866 -2.64484L17.8302 2.85505ZM19.2051 2.864L37.0797 2.98041L37.1156 -2.51947L19.2409 -2.63588L19.2051 2.864ZM34.3477 0.212559L33.8373 78.5859L39.3372 78.6217L39.8476 0.248378L34.3477 0.212559ZM33.8373 78.5859L33.3269 156.959L38.8268 156.995L39.3372 78.6217L33.8373 78.5859ZM36.0947 154.227L18.2201 154.111L18.1843 159.611L36.0589 159.727L36.0947 154.227Z" fill="url(#paint5_angular_6792_32337)" fillOpacity="0.2" mask="url(#path-19-inside-10_6792_32337)"/>
<path d="M37.4651 155.613C36.6673 155.608 35.7778 155.253 34.789 154.355C33.7921 153.448 32.768 152.051 31.7531 150.139C29.7243 146.317 27.8684 140.703 26.3089 133.653C23.1947 119.577 21.3264 100.078 21.4669 78.5069C21.6074 56.9361 23.7295 37.4631 27.0267 23.4282C28.678 16.3997 30.6068 10.8103 32.6852 7.01513C33.7249 5.11665 34.7672 3.7324 35.7758 2.83922C36.7761 1.95337 37.6702 1.61079 38.468 1.61598C39.2658 1.62118 40.1553 1.97537 41.144 2.87418C42.1409 3.78042 43.1651 5.17813 44.1799 7.08999C46.2088 10.9119 48.0646 16.5259 49.6242 23.5754C52.7383 37.6521 54.6067 57.151 54.4662 78.7218C54.3257 100.293 52.2036 119.766 48.9063 133.801C47.2551 140.829 45.3263 146.418 43.2478 150.214C42.2081 152.112 41.1659 153.496 40.1573 154.389C39.1569 155.275 38.2628 155.618 37.4651 155.613Z" fill="white"/>
<path d="M37.4651 155.613C36.6673 155.608 35.7778 155.253 34.789 154.355C33.7921 153.448 32.768 152.051 31.7531 150.139C29.7243 146.317 27.8684 140.703 26.3089 133.653C23.1947 119.577 21.3264 100.078 21.4669 78.5069C21.6074 56.9361 23.7295 37.4631 27.0267 23.4282C28.678 16.3997 30.6068 10.8103 32.6852 7.01513C33.7249 5.11665 34.7672 3.7324 35.7758 2.83922C36.7761 1.95337 37.6702 1.61079 38.468 1.61598C39.2658 1.62118 40.1553 1.97537 41.144 2.87418C42.1409 3.78042 43.1651 5.17813 44.1799 7.08999C46.2088 10.9119 48.0646 16.5259 49.6242 23.5754C52.7383 37.6521 54.6067 57.151 54.4662 78.7218C54.3257 100.293 52.2036 119.766 48.9063 133.801C47.2551 140.829 45.3263 146.418 43.2478 150.214C42.2081 152.112 41.1659 153.496 40.1573 154.389C39.1569 155.275 38.2628 155.618 37.4651 155.613Z" stroke="url(#paint6_linear_6792_32337)" strokeWidth="2.75"/>
<path d="M37.4651 155.613C36.6673 155.608 35.7778 155.253 34.789 154.355C33.7921 153.448 32.768 152.051 31.7531 150.139C29.7243 146.317 27.8684 140.703 26.3089 133.653C23.1947 119.577 21.3264 100.078 21.4669 78.5069C21.6074 56.9361 23.7295 37.4631 27.0267 23.4282C28.678 16.3997 30.6068 10.8103 32.6852 7.01513C33.7249 5.11665 34.7672 3.7324 35.7758 2.83922C36.7761 1.95337 37.6702 1.61079 38.468 1.61598C39.2658 1.62118 40.1553 1.97537 41.144 2.87418C42.1409 3.78042 43.1651 5.17813 44.1799 7.08999C46.2088 10.9119 48.0646 16.5259 49.6242 23.5754C52.7383 37.6521 54.6067 57.151 54.4662 78.7218C54.3257 100.293 52.2036 119.766 48.9063 133.801C47.2551 140.829 45.3263 146.418 43.2478 150.214C42.2081 152.112 41.1659 153.496 40.1573 154.389C39.1569 155.275 38.2628 155.618 37.4651 155.613Z" stroke="#003D3D" strokeOpacity="0.7" strokeWidth="2.75"/>
<path d="M37.4651 155.613C36.6673 155.608 35.7778 155.253 34.789 154.355C33.7921 153.448 32.768 152.051 31.7531 150.139C29.7243 146.317 27.8684 140.703 26.3089 133.653C23.1947 119.577 21.3264 100.078 21.4669 78.5069C21.6074 56.9361 23.7295 37.4631 27.0267 23.4282C28.678 16.3997 30.6068 10.8103 32.6852 7.01513C33.7249 5.11665 34.7672 3.7324 35.7758 2.83922C36.7761 1.95337 37.6702 1.61079 38.468 1.61598C39.2658 1.62118 40.1553 1.97537 41.144 2.87418C42.1409 3.78042 43.1651 5.17813 44.1799 7.08999C46.2088 10.9119 48.0646 16.5259 49.6242 23.5754C52.7383 37.6521 54.6067 57.151 54.4662 78.7218C54.3257 100.293 52.2036 119.766 48.9063 133.801C47.2551 140.829 45.3263 146.418 43.2478 150.214C42.2081 152.112 41.1659 153.496 40.1573 154.389C39.1569 155.275 38.2628 155.618 37.4651 155.613Z" stroke="url(#paint7_angular_6792_32337)" strokeOpacity="0.2" strokeWidth="2.75"/>
<defs>
<linearGradient id="paint0_linear_6792_32337" x1="26.2248" y1="32.6848" x2="-9.90883" y2="38.6148" gradientUnits="userSpaceOnUse">
<stop stopColor="#182F59"/>
<stop offset="1" stopColor="#020F26"/>
</linearGradient>
<radialGradient id="paint1_angular_6792_32337" cx="0" cy="0" r="1" gradientUnits="userSpaceOnUse" gradientTransform="translate(11.7562 110.741) rotate(-77.7189) scale(91.8711 37.2116)">
<stop stopColor="#4C576B" stopOpacity="0.5"/>
<stop offset="1" stopOpacity="0.7"/>
</radialGradient>
<linearGradient id="paint2_linear_6792_32337" x1="26.2248" y1="32.6848" x2="-9.90883" y2="38.6148" gradientUnits="userSpaceOnUse">
<stop stopColor="#182F59"/>
<stop offset="1" stopColor="#020F26"/>
</linearGradient>
<radialGradient id="paint3_angular_6792_32337" cx="0" cy="0" r="1" gradientUnits="userSpaceOnUse" gradientTransform="translate(11.7562 110.741) rotate(-77.7189) scale(91.8711 37.2116)">
<stop stopColor="#4C576B" stopOpacity="0.5"/>
<stop offset="1" stopOpacity="0.7"/>
</radialGradient>
<linearGradient id="paint4_linear_6792_32337" x1="26.2229" y1="32.6848" x2="-9.91078" y2="38.6148" gradientUnits="userSpaceOnUse">
<stop stopColor="#182F59"/>
<stop offset="1" stopColor="#020F26"/>
</linearGradient>
<radialGradient id="paint5_angular_6792_32337" cx="0" cy="0" r="1" gradientUnits="userSpaceOnUse" gradientTransform="translate(11.7542 110.741) rotate(-77.7189) scale(91.8711 37.2116)">
<stop stopColor="#4C576B" stopOpacity="0.5"/>
<stop offset="1" stopOpacity="0.7"/>
</radialGradient>
<linearGradient id="paint6_linear_6792_32337" x1="45.4768" y1="32.8118" x2="9.34312" y2="38.7417" gradientUnits="userSpaceOnUse">
<stop stopColor="#182F59"/>
<stop offset="1" stopColor="#020F26"/>
</linearGradient>
<radialGradient id="paint7_angular_6792_32337" cx="0" cy="0" r="1" gradientUnits="userSpaceOnUse" gradientTransform="translate(31.0081 110.868) rotate(-77.7189) scale(91.8711 37.2116)">
<stop stopColor="#4C576B" stopOpacity="0.5"/>
<stop offset="1" stopOpacity="0.7"/>
</radialGradient>
</defs>
</svg>
