<svg width="687" height="551" viewBox="0 0 687 551" fill="none" xmlns="http://www.w3.org/2000/svg">
<circle cx="262.598" cy="154" r="72" fill="#FAFAFA" stroke="url(#paint0_linear_3157_25337)" strokeWidth="2"/>
<g filter="url(#filter0_d_3157_25337)">
<path d="M213.387 185.176L213.387 141.963L262.028 153.796L262.028 204.404L213.387 185.176Z" stroke="url(#paint1_linear_3157_25337)" strokeWidth="2.05544"/>
<path d="M213.387 185.176L213.387 141.963L262.028 153.796L262.028 204.404L213.387 185.176Z" stroke="url(#paint2_radial_3157_25337)" strokeOpacity="0.2" strokeWidth="2.05544"/>
<path d="M213.387 185.176L213.387 141.963L262.028 153.796L262.028 204.404L213.387 185.176Z" stroke="url(#paint3_angular_3157_25337)" strokeOpacity="0.1" strokeWidth="2.05544"/>
<path fillRule="evenodd" clipRule="evenodd" d="M314.1 132.371V130.121L312.044 131.036L262.711 152.988L262.711 203.508V205.915L264.766 204.662L274.23 198.889V196.481L264.766 202.254L264.766 154.323L312.044 133.285V170.066H314.1V132.371Z" fill="url(#paint4_linear_3157_25337)"/>
<path fillRule="evenodd" clipRule="evenodd" d="M314.1 132.371V130.121L312.044 131.036L262.711 152.988L262.711 203.508V205.915L264.766 204.662L274.23 198.889V196.481L264.766 202.254L264.766 154.323L312.044 133.285V170.066H314.1V132.371Z" fill="url(#paint5_radial_3157_25337)" fillOpacity="0.2"/>
<path fillRule="evenodd" clipRule="evenodd" d="M314.1 132.371V130.121L312.044 131.036L262.711 152.988L262.711 203.508V205.915L264.766 204.662L274.23 198.889V196.481L264.766 202.254L264.766 154.323L312.044 133.285V170.066H314.1V132.371Z" fill="url(#paint6_angular_3157_25337)" fillOpacity="0.1"/>
<path d="M310.695 130.589L271.173 124.235L216.172 140.566L262.759 152.159L310.695 130.589Z" stroke="url(#paint7_linear_3157_25337)" strokeWidth="2.05544"/>
<path d="M310.695 130.589L271.173 124.235L216.172 140.566L262.759 152.159L310.695 130.589Z" stroke="url(#paint8_radial_3157_25337)" strokeOpacity="0.2" strokeWidth="2.05544"/>
<path d="M310.695 130.589L271.173 124.235L216.172 140.566L262.759 152.159L310.695 130.589Z" stroke="url(#paint9_angular_3157_25337)" strokeOpacity="0.1" strokeWidth="2.05544"/>
<path d="M294.048 127.46L289.644 126.544L237.245 145.664L246.136 147.569L294.048 127.46Z" fill="url(#paint10_linear_3157_25337)"/>
<path d="M294.048 127.46L289.644 126.544L237.245 145.664L246.136 147.569L294.048 127.46Z" fill="url(#paint11_radial_3157_25337)" fillOpacity="0.2"/>
<path d="M294.048 127.46L289.644 126.544L237.245 145.664L246.136 147.569L294.048 127.46Z" fill="url(#paint12_angular_3157_25337)" fillOpacity="0.1"/>
<path d="M294.048 127.46L289.644 126.544L237.245 145.664L246.136 147.569L294.048 127.46Z" stroke="url(#paint13_linear_3157_25337)" strokeWidth="1.02772"/>
<path d="M294.048 127.46L289.644 126.544L237.245 145.664L246.136 147.569L294.048 127.46Z" stroke="url(#paint14_radial_3157_25337)" strokeOpacity="0.2" strokeWidth="1.02772"/>
<path d="M294.048 127.46L289.644 126.544L237.245 145.664L246.136 147.569L294.048 127.46Z" stroke="url(#paint15_angular_3157_25337)" strokeOpacity="0.1" strokeWidth="1.02772"/>
<path d="M236.42 145.677L236.42 163.509L240.077 156.601L240.735 155.358L241.033 156.733L243.693 169.008L245.881 147.986L236.42 145.677Z" fill="url(#paint16_linear_3157_25337)"/>
<path d="M236.42 145.677L236.42 163.509L240.077 156.601L240.735 155.358L241.033 156.733L243.693 169.008L245.881 147.986L236.42 145.677Z" fill="url(#paint17_radial_3157_25337)" fillOpacity="0.2"/>
<path d="M236.42 145.677L236.42 163.509L240.077 156.601L240.735 155.358L241.033 156.733L243.693 169.008L245.881 147.986L236.42 145.677Z" fill="url(#paint18_angular_3157_25337)" fillOpacity="0.1"/>
<path d="M236.42 145.677L236.42 163.509L240.077 156.601L240.735 155.358L241.033 156.733L243.693 169.008L245.881 147.986L236.42 145.677Z" stroke="url(#paint19_linear_3157_25337)" strokeWidth="1.02772"/>
<path d="M236.42 145.677L236.42 163.509L240.077 156.601L240.735 155.358L241.033 156.733L243.693 169.008L245.881 147.986L236.42 145.677Z" stroke="url(#paint20_radial_3157_25337)" strokeOpacity="0.2" strokeWidth="1.02772"/>
<path d="M236.42 145.677L236.42 163.509L240.077 156.601L240.735 155.358L241.033 156.733L243.693 169.008L245.881 147.986L236.42 145.677Z" stroke="url(#paint21_angular_3157_25337)" strokeOpacity="0.1" strokeWidth="1.02772"/>
</g>
<circle cx="263" cy="397.452" r="72" fill="#FAFAFA" stroke="url(#paint22_linear_3157_25337)" strokeWidth="2"/>
<g filter="url(#filter1_d_3157_25337)">
<rect x="243.289" y="364.671" width="33.58" height="2.92" rx="1.46" fill="url(#paint23_linear_3157_25337)"/>
<rect x="243.289" y="364.671" width="33.58" height="2.92" rx="1.46" fill="url(#paint24_radial_3157_25337)" fillOpacity="0.2"/>
<rect x="243.289" y="364.671" width="33.58" height="2.92" rx="1.46" fill="url(#paint25_angular_3157_25337)" fillOpacity="0.1"/>
<rect x="286.359" y="364.671" width="2.92" height="2.92" rx="1.46" fill="url(#paint26_linear_3157_25337)"/>
<rect x="286.359" y="364.671" width="2.92" height="2.92" rx="1.46" fill="url(#paint27_radial_3157_25337)" fillOpacity="0.2"/>
<rect x="286.359" y="364.671" width="2.92" height="2.92" rx="1.46" fill="url(#paint28_angular_3157_25337)" fillOpacity="0.1"/>
<rect x="243.289" y="370.512" width="17.52" height="2.92" rx="1.46" fill="url(#paint29_linear_3157_25337)"/>
<rect x="243.289" y="370.512" width="17.52" height="2.92" rx="1.46" fill="url(#paint30_radial_3157_25337)" fillOpacity="0.2"/>
<rect x="243.289" y="370.512" width="17.52" height="2.92" rx="1.46" fill="url(#paint31_angular_3157_25337)" fillOpacity="0.1"/>
<rect x="286.359" y="370.512" width="2.92" height="2.92" rx="1.46" fill="url(#paint32_linear_3157_25337)"/>
<rect x="286.359" y="370.512" width="2.92" height="2.92" rx="1.46" fill="url(#paint33_radial_3157_25337)" fillOpacity="0.2"/>
<rect x="286.359" y="370.512" width="2.92" height="2.92" rx="1.46" fill="url(#paint34_angular_3157_25337)" fillOpacity="0.1"/>
<rect x="243.289" y="376.352" width="28.47" height="2.92" rx="1.46" fill="url(#paint35_linear_3157_25337)"/>
<rect x="243.289" y="376.352" width="28.47" height="2.92" rx="1.46" fill="url(#paint36_radial_3157_25337)" fillOpacity="0.2"/>
<rect x="243.289" y="376.352" width="28.47" height="2.92" rx="1.46" fill="url(#paint37_angular_3157_25337)" fillOpacity="0.1"/>
<rect x="286.359" y="376.352" width="2.92" height="2.92" rx="1.46" fill="url(#paint38_linear_3157_25337)"/>
<rect x="286.359" y="376.352" width="2.92" height="2.92" rx="1.46" fill="url(#paint39_radial_3157_25337)" fillOpacity="0.2"/>
<rect x="286.359" y="376.352" width="2.92" height="2.92" rx="1.46" fill="url(#paint40_angular_3157_25337)" fillOpacity="0.1"/>
<rect x="243.289" y="382.191" width="13.87" height="2.92" rx="1.46" fill="url(#paint41_linear_3157_25337)"/>
<rect x="243.289" y="382.191" width="13.87" height="2.92" rx="1.46" fill="url(#paint42_radial_3157_25337)" fillOpacity="0.2"/>
<rect x="243.289" y="382.191" width="13.87" height="2.92" rx="1.46" fill="url(#paint43_angular_3157_25337)" fillOpacity="0.1"/>
<rect x="286.359" y="382.191" width="2.92" height="2.92" rx="1.46" fill="url(#paint44_linear_3157_25337)"/>
<rect x="286.359" y="382.191" width="2.92" height="2.92" rx="1.46" fill="url(#paint45_radial_3157_25337)" fillOpacity="0.2"/>
<rect x="286.359" y="382.191" width="2.92" height="2.92" rx="1.46" fill="url(#paint46_angular_3157_25337)" fillOpacity="0.1"/>
<rect x="243.289" y="388.031" width="28.47" height="2.92" rx="1.46" fill="url(#paint47_linear_3157_25337)"/>
<rect x="243.289" y="388.031" width="28.47" height="2.92" rx="1.46" fill="url(#paint48_radial_3157_25337)" fillOpacity="0.2"/>
<rect x="243.289" y="388.031" width="28.47" height="2.92" rx="1.46" fill="url(#paint49_angular_3157_25337)" fillOpacity="0.1"/>
<rect x="286.359" y="388.031" width="2.92" height="2.92" rx="1.46" fill="url(#paint50_linear_3157_25337)"/>
<rect x="286.359" y="388.031" width="2.92" height="2.92" rx="1.46" fill="url(#paint51_radial_3157_25337)" fillOpacity="0.2"/>
<rect x="286.359" y="388.031" width="2.92" height="2.92" rx="1.46" fill="url(#paint52_angular_3157_25337)" fillOpacity="0.1"/>
<rect x="243.289" y="393.871" width="31.39" height="2.92" rx="1.46" fill="url(#paint53_linear_3157_25337)"/>
<rect x="243.289" y="393.871" width="31.39" height="2.92" rx="1.46" fill="url(#paint54_radial_3157_25337)" fillOpacity="0.2"/>
<rect x="243.289" y="393.871" width="31.39" height="2.92" rx="1.46" fill="url(#paint55_angular_3157_25337)" fillOpacity="0.1"/>
<rect x="286.359" y="393.871" width="2.92" height="2.92" rx="1.46" fill="url(#paint56_linear_3157_25337)"/>
<rect x="286.359" y="393.871" width="2.92" height="2.92" rx="1.46" fill="url(#paint57_radial_3157_25337)" fillOpacity="0.2"/>
<rect x="286.359" y="393.871" width="2.92" height="2.92" rx="1.46" fill="url(#paint58_angular_3157_25337)" fillOpacity="0.1"/>
<rect x="243.289" y="399.711" width="24.09" height="2.92" rx="1.46" fill="url(#paint59_linear_3157_25337)"/>
<rect x="243.289" y="399.711" width="24.09" height="2.92" rx="1.46" fill="url(#paint60_radial_3157_25337)" fillOpacity="0.2"/>
<rect x="243.289" y="399.711" width="24.09" height="2.92" rx="1.46" fill="url(#paint61_angular_3157_25337)" fillOpacity="0.1"/>
<rect x="286.359" y="399.711" width="2.92" height="2.92" rx="1.46" fill="url(#paint62_linear_3157_25337)"/>
<rect x="286.359" y="399.711" width="2.92" height="2.92" rx="1.46" fill="url(#paint63_radial_3157_25337)" fillOpacity="0.2"/>
<rect x="286.359" y="399.711" width="2.92" height="2.92" rx="1.46" fill="url(#paint64_angular_3157_25337)" fillOpacity="0.1"/>
<rect x="243.289" y="405.552" width="31.39" height="2.92" rx="1.46" fill="url(#paint65_linear_3157_25337)"/>
<rect x="243.289" y="405.552" width="31.39" height="2.92" rx="1.46" fill="url(#paint66_radial_3157_25337)" fillOpacity="0.2"/>
<rect x="243.289" y="405.552" width="31.39" height="2.92" rx="1.46" fill="url(#paint67_angular_3157_25337)" fillOpacity="0.1"/>
<rect x="286.359" y="405.552" width="2.92" height="2.92" rx="1.46" fill="url(#paint68_linear_3157_25337)"/>
<rect x="286.359" y="405.552" width="2.92" height="2.92" rx="1.46" fill="url(#paint69_radial_3157_25337)" fillOpacity="0.2"/>
<rect x="286.359" y="405.552" width="2.92" height="2.92" rx="1.46" fill="url(#paint70_angular_3157_25337)" fillOpacity="0.1"/>
<rect x="243.289" y="411.392" width="20.44" height="2.92" rx="1.46" fill="url(#paint71_linear_3157_25337)"/>
<rect x="243.289" y="411.392" width="20.44" height="2.92" rx="1.46" fill="url(#paint72_radial_3157_25337)" fillOpacity="0.2"/>
<rect x="243.289" y="411.392" width="20.44" height="2.92" rx="1.46" fill="url(#paint73_angular_3157_25337)" fillOpacity="0.1"/>
<rect x="286.359" y="411.392" width="2.92" height="2.92" rx="1.46" fill="url(#paint74_linear_3157_25337)"/>
<rect x="286.359" y="411.392" width="2.92" height="2.92" rx="1.46" fill="url(#paint75_radial_3157_25337)" fillOpacity="0.2"/>
<rect x="286.359" y="411.392" width="2.92" height="2.92" rx="1.46" fill="url(#paint76_angular_3157_25337)" fillOpacity="0.1"/>
<path d="M295.119 429.276V355.911C295.119 350.67 290.871 346.421 285.629 346.421H266.649H242.924H231.609C231.609 346.421 235.739 346.692 237.084 348.246C238.336 349.692 238.179 353.721 238.179 353.721V397.156V437.859C238.179 443.307 242.756 447.637 248.196 447.334L251.319 447.161" stroke="url(#paint77_linear_3157_25337)" strokeWidth="1.46"/>
<path d="M295.119 429.276V355.911C295.119 350.67 290.871 346.421 285.629 346.421H266.649H242.924H231.609C231.609 346.421 235.739 346.692 237.084 348.246C238.336 349.692 238.179 353.721 238.179 353.721V397.156V437.859C238.179 443.307 242.756 447.637 248.196 447.334L251.319 447.161" stroke="url(#paint78_radial_3157_25337)" strokeOpacity="0.2" strokeWidth="1.46"/>
<path d="M295.119 429.276V355.911C295.119 350.67 290.871 346.421 285.629 346.421H266.649H242.924H231.609C231.609 346.421 235.739 346.692 237.084 348.246C238.336 349.692 238.179 353.721 238.179 353.721V397.156V437.859C238.179 443.307 242.756 447.637 248.196 447.334L251.319 447.161" stroke="url(#paint79_angular_3157_25337)" strokeOpacity="0.1" strokeWidth="1.46"/>
<path d="M252.258 430.816C252.213 430.355 252.171 429.957 252.137 429.641H299.189C299.213 429.975 299.243 430.421 299.275 430.951C299.347 432.162 299.423 433.808 299.444 435.553C299.466 437.3 299.43 439.132 299.281 440.719C299.128 442.341 298.865 443.588 298.496 444.252C297.647 445.78 296.743 446.496 296.101 446.835C295.777 447.007 295.509 447.088 295.334 447.127C295.246 447.146 295.181 447.155 295.144 447.158C295.127 447.16 295.115 447.161 295.11 447.161H250.386C250.98 446.624 251.546 445.893 251.987 444.903C252.424 443.917 252.613 442.388 252.684 440.757C252.756 439.093 252.708 437.211 252.613 435.449C252.518 433.686 252.376 432.03 252.258 430.816Z" stroke="url(#paint80_linear_3157_25337)" strokeWidth="1.46"/>
<path d="M252.258 430.816C252.213 430.355 252.171 429.957 252.137 429.641H299.189C299.213 429.975 299.243 430.421 299.275 430.951C299.347 432.162 299.423 433.808 299.444 435.553C299.466 437.3 299.43 439.132 299.281 440.719C299.128 442.341 298.865 443.588 298.496 444.252C297.647 445.78 296.743 446.496 296.101 446.835C295.777 447.007 295.509 447.088 295.334 447.127C295.246 447.146 295.181 447.155 295.144 447.158C295.127 447.16 295.115 447.161 295.11 447.161H250.386C250.98 446.624 251.546 445.893 251.987 444.903C252.424 443.917 252.613 442.388 252.684 440.757C252.756 439.093 252.708 437.211 252.613 435.449C252.518 433.686 252.376 432.03 252.258 430.816Z" stroke="url(#paint81_radial_3157_25337)" strokeOpacity="0.2" strokeWidth="1.46"/>
<path d="M252.258 430.816C252.213 430.355 252.171 429.957 252.137 429.641H299.189C299.213 429.975 299.243 430.421 299.275 430.951C299.347 432.162 299.423 433.808 299.444 435.553C299.466 437.3 299.43 439.132 299.281 440.719C299.128 442.341 298.865 443.588 298.496 444.252C297.647 445.78 296.743 446.496 296.101 446.835C295.777 447.007 295.509 447.088 295.334 447.127C295.246 447.146 295.181 447.155 295.144 447.158C295.127 447.16 295.115 447.161 295.11 447.161H250.386C250.98 446.624 251.546 445.893 251.987 444.903C252.424 443.917 252.613 442.388 252.684 440.757C252.756 439.093 252.708 437.211 252.613 435.449C252.518 433.686 252.376 432.03 252.258 430.816Z" stroke="url(#paint82_angular_3157_25337)" strokeOpacity="0.1" strokeWidth="1.46"/>
<path d="M233.433 346.421C233.433 346.421 229.369 345.691 227.544 348.976C225.744 352.216 226.814 364.671 226.814 364.671H238.178" stroke="url(#paint83_linear_3157_25337)" strokeWidth="1.46"/>
<path d="M233.433 346.421C233.433 346.421 229.369 345.691 227.544 348.976C225.744 352.216 226.814 364.671 226.814 364.671H238.178" stroke="url(#paint84_radial_3157_25337)" strokeOpacity="0.2" strokeWidth="1.46"/>
<path d="M233.433 346.421C233.433 346.421 229.369 345.691 227.544 348.976C225.744 352.216 226.814 364.671 226.814 364.671H238.178" stroke="url(#paint85_angular_3157_25337)" strokeOpacity="0.1" strokeWidth="1.46"/>
</g>
<circle cx="353.242" cy="264.059" r="98.5" fill="#FAFAFA" stroke="url(#paint86_linear_3157_25337)" strokeWidth="3"/>
<g filter="url(#filter2_d_3157_25337)">
<g clip-path="url(#clip0_3157_25337)">
<path fillRule="evenodd" clipRule="evenodd" d="M320.767 234.692C320.948 234.873 321.05 235.119 321.05 235.375C321.05 235.631 320.948 235.876 320.767 236.057L313.531 243.294C313.435 243.39 313.321 243.466 313.196 243.518C313.071 243.569 312.937 243.596 312.802 243.596C312.667 243.596 312.533 243.569 312.408 243.518C312.283 243.466 312.17 243.39 312.074 243.294L308.478 239.699C308.386 239.61 308.313 239.504 308.262 239.386C308.211 239.268 308.185 239.141 308.184 239.013C308.183 238.885 308.207 238.758 308.255 238.639C308.304 238.521 308.376 238.413 308.466 238.322C308.557 238.231 308.665 238.16 308.783 238.111C308.902 238.063 309.029 238.038 309.157 238.039C309.286 238.04 309.412 238.067 309.53 238.118C309.648 238.168 309.755 238.242 309.844 238.334L312.802 241.292L319.401 234.692C319.491 234.602 319.598 234.531 319.715 234.483C319.832 234.434 319.958 234.409 320.084 234.409C320.211 234.409 320.337 234.434 320.454 234.483C320.571 234.531 320.678 234.602 320.767 234.692Z" fill="#5BBC2E"/>
</g>
<g clip-path="url(#clip1_3157_25337)">
<path fillRule="evenodd" clipRule="evenodd" d="M385.135 320.302C385.316 320.483 385.417 320.728 385.417 320.984C385.417 321.24 385.316 321.486 385.135 321.667L377.898 328.904C377.802 328.999 377.689 329.075 377.564 329.127C377.439 329.179 377.305 329.205 377.169 329.205C377.034 329.205 376.9 329.179 376.775 329.127C376.65 329.075 376.537 328.999 376.441 328.904L372.846 325.309C372.753 325.22 372.68 325.113 372.629 324.995C372.579 324.878 372.552 324.751 372.551 324.623C372.55 324.494 372.574 324.367 372.623 324.249C372.671 324.13 372.743 324.022 372.834 323.932C372.924 323.841 373.032 323.769 373.151 323.721C373.269 323.672 373.396 323.648 373.525 323.649C373.653 323.65 373.78 323.676 373.897 323.727C374.015 323.778 374.122 323.851 374.211 323.943L377.169 326.902L383.769 320.302C383.858 320.212 383.965 320.141 384.082 320.092C384.199 320.044 384.325 320.019 384.452 320.019C384.578 320.019 384.704 320.044 384.821 320.092C384.938 320.141 385.045 320.212 385.135 320.302Z" fill="#5BBC2E"/>
</g>
<g clip-path="url(#clip2_3157_25337)">
<path fillRule="evenodd" clipRule="evenodd" d="M320.767 259.797C320.948 259.978 321.05 260.223 321.05 260.479C321.05 260.735 320.948 260.981 320.767 261.162L313.531 268.399C313.435 268.494 313.321 268.57 313.196 268.622C313.071 268.674 312.937 268.7 312.802 268.7C312.667 268.7 312.533 268.674 312.408 268.622C312.283 268.57 312.17 268.494 312.074 268.399L308.478 264.804C308.386 264.715 308.313 264.608 308.262 264.49C308.211 264.373 308.185 264.246 308.184 264.118C308.183 263.99 308.207 263.862 308.255 263.744C308.304 263.625 308.376 263.517 308.466 263.427C308.557 263.336 308.665 263.264 308.783 263.216C308.902 263.167 309.029 263.143 309.157 263.144C309.286 263.145 309.412 263.172 309.53 263.222C309.648 263.273 309.755 263.346 309.844 263.439L312.802 266.397L319.401 259.797C319.491 259.707 319.598 259.636 319.715 259.587C319.832 259.539 319.958 259.514 320.084 259.514C320.211 259.514 320.337 259.539 320.454 259.587C320.571 259.636 320.678 259.707 320.767 259.797Z" fill="#5BBC2E"/>
</g>
<g clip-path="url(#clip3_3157_25337)">
<path fillRule="evenodd" clipRule="evenodd" d="M320.767 284.899C320.948 285.08 321.05 285.326 321.05 285.582C321.05 285.838 320.948 286.083 320.767 286.264L313.531 293.501C313.435 293.597 313.321 293.673 313.196 293.725C313.071 293.776 312.937 293.803 312.802 293.803C312.667 293.803 312.533 293.776 312.408 293.725C312.283 293.673 312.17 293.597 312.074 293.501L308.478 289.906C308.386 289.817 308.313 289.711 308.262 289.593C308.211 289.475 308.185 289.348 308.184 289.22C308.183 289.092 308.207 288.965 308.255 288.846C308.304 288.728 308.376 288.62 308.466 288.529C308.557 288.439 308.665 288.367 308.783 288.318C308.902 288.27 309.029 288.245 309.157 288.246C309.286 288.248 309.412 288.274 309.53 288.325C309.648 288.375 309.755 288.449 309.844 288.541L312.802 291.499L319.401 284.899C319.491 284.809 319.598 284.738 319.715 284.69C319.832 284.641 319.958 284.616 320.084 284.616C320.211 284.616 320.337 284.641 320.454 284.69C320.571 284.738 320.678 284.809 320.767 284.899Z" fill="#5BBC2E"/>
</g>
<rect x="319.771" y="201.794" width="51.4939" height="14.1608" rx="4.50571" fill="#5BBC2E"/>
<circle cx="345.839" cy="197.61" r="9.33326" stroke="#5BBC2E" strokeWidth="6.43673"/>
<rect x="326.852" y="237.84" width="52.1375" height="2.57469" rx="1.28735" fill="#5BBC2E"/>
<rect x="326.852" y="262.943" width="52.1375" height="2.57469" rx="1.28735" fill="#5BBC2E"/>
<rect x="326.852" y="288.046" width="52.1375" height="2.57469" rx="1.28735" fill="#5BBC2E"/>
<path fillRule="evenodd" clipRule="evenodd" d="M303.679 209.196H387.356C389.667 209.196 391.54 211.069 391.54 213.38V297.769C392.302 297.931 393.053 298.121 393.793 298.336V213.38C393.793 209.825 390.911 206.943 387.356 206.943H303.679C300.124 206.943 297.242 209.825 297.242 213.38V329.241C297.242 332.796 300.124 335.678 303.679 335.678H353.242C353.091 334.936 352.966 334.185 352.868 333.425H303.679C301.368 333.425 299.495 331.552 299.495 329.241V213.38C299.495 211.069 301.368 209.196 303.679 209.196Z" fill="#5BBC2E"/>
<circle cx="378.988" cy="324.736" r="18.0229" stroke="#5BBC2E" strokeWidth="2.57469"/>
</g>
<defs>
<filter id="filter0_d_3157_25337" x="211.498" y="122.609" width="111.602" height="91.3057" filterUnits="userSpaceOnUse" color-interpolation-filters="sRGB">
<feFlood flood-opacity="0" result="BackgroundImageFix"/>
<feColorMatrix in="SourceAlpha" type="matrix" values="0 0 0 0 0 0 0 0 0 0 0 0 0 0 0 0 0 0 127 0" result="hardAlpha"/>
<feOffset dx="4" dy="4"/>
<feGaussianBlur stdDeviation="2"/>
<feComposite in2="hardAlpha" operator="out"/>
<feColorMatrix type="matrix" values="0 0 0 0 0 0 0 0 0 0 0 0 0 0 0 0 0 0 0.25 0"/>
<feBlend mode="normal" in2="BackgroundImageFix" result="effect1_dropShadow_3157_25337"/>
<feBlend mode="normal" in="SourceGraphic" in2="effect1_dropShadow_3157_25337" result="shape"/>
</filter>
<filter id="filter1_d_3157_25337" x="221.77" y="345.622" width="82.4102" height="110.457" filterUnits="userSpaceOnUse" color-interpolation-filters="sRGB">
<feFlood flood-opacity="0" result="BackgroundImageFix"/>
<feColorMatrix in="SourceAlpha" type="matrix" values="0 0 0 0 0 0 0 0 0 0 0 0 0 0 0 0 0 0 127 0" result="hardAlpha"/>
<feOffset dy="4"/>
<feGaussianBlur stdDeviation="2"/>
<feComposite in2="hardAlpha" operator="out"/>
<feColorMatrix type="matrix" values="0 0 0 0 0 0 0 0 0 0 0 0 0 0 0 0 0 0 0.25 0"/>
<feBlend mode="normal" in2="BackgroundImageFix" result="effect1_dropShadow_3157_25337"/>
<feBlend mode="normal" in="SourceGraphic" in2="effect1_dropShadow_3157_25337" result="shape"/>
</filter>
<filter id="filter2_d_3157_25337" x="297.242" y="185.059" width="109.057" height="166.987" filterUnits="userSpaceOnUse" color-interpolation-filters="sRGB">
<feFlood flood-opacity="0" result="BackgroundImageFix"/>
<feColorMatrix in="SourceAlpha" type="matrix" values="0 0 0 0 0 0 0 0 0 0 0 0 0 0 0 0 0 0 127 0" result="hardAlpha"/>
<feOffset dx="4" dy="4"/>
<feGaussianBlur stdDeviation="2"/>
<feComposite in2="hardAlpha" operator="out"/>
<feColorMatrix type="matrix" values="0 0 0 0 0 0 0 0 0 0 0 0 0 0 0 0 0 0 0.25 0"/>
<feBlend mode="normal" in2="BackgroundImageFix" result="effect1_dropShadow_3157_25337"/>
<feBlend mode="normal" in="SourceGraphic" in2="effect1_dropShadow_3157_25337" result="shape"/>
</filter>
<linearGradient id="paint0_linear_3157_25337" x1="241.5" y1="174.452" x2="262.598" y2="227" gradientUnits="userSpaceOnUse">
<stop stopColor="#182F59"/>
<stop offset="1" stopColor="#182F59" stopOpacity="0"/>
</linearGradient>
<linearGradient id="paint1_linear_3157_25337" x1="222.8" y1="160.058" x2="255.804" y2="196.198" gradientUnits="userSpaceOnUse">
<stop stopColor="#182F59"/>
<stop offset="1" stopColor="#020F26"/>
</linearGradient>
<radialGradient id="paint2_radial_3157_25337" cx="0" cy="0" r="1" gradientUnits="userSpaceOnUse" gradientTransform="translate(227.69 166.731) rotate(89.7216) scale(32.6668 26.0874)">
<stop stopColor="#182F59"/>
<stop offset="1" stopColor="#5C7EBC"/>
</radialGradient>
<radialGradient id="paint3_angular_3157_25337" cx="0" cy="0" r="1" gradientUnits="userSpaceOnUse" gradientTransform="translate(248.168 185.616) rotate(-130.047) scale(45.2437 44.8985)">
<stop stopColor="#4C576B" stopOpacity="0.5"/>
<stop offset="1" stopOpacity="0.7"/>
</radialGradient>
<linearGradient id="paint4_linear_3157_25337" x1="273.374" y1="152.728" x2="312.558" y2="188.203" gradientUnits="userSpaceOnUse">
<stop stopColor="#182F59"/>
<stop offset="1" stopColor="#020F26"/>
</linearGradient>
<radialGradient id="paint5_radial_3157_25337" cx="0" cy="0" r="1" gradientUnits="userSpaceOnUse" gradientTransform="translate(278.335 160.483) rotate(89.1147) scale(38.3386 26.0011)">
<stop stopColor="#182F59"/>
<stop offset="1" stopColor="#5C7EBC"/>
</radialGradient>
<radialGradient id="paint6_angular_3157_25337" cx="0" cy="0" r="1" gradientUnits="userSpaceOnUse" gradientTransform="translate(298.994 182.325) rotate(-126.252) scale(49.838 47.6783)">
<stop stopColor="#4C576B" stopOpacity="0.5"/>
<stop offset="1" stopOpacity="0.7"/>
</radialGradient>
<linearGradient id="paint7_linear_3157_25337" x1="293.079" y1="131.823" x2="286.955" y2="161.593" gradientUnits="userSpaceOnUse">
<stop stopColor="#182F59"/>
<stop offset="1" stopColor="#020F26"/>
</linearGradient>
<radialGradient id="paint8_radial_3157_25337" cx="0" cy="0" r="1" gradientUnits="userSpaceOnUse" gradientTransform="translate(283.263 135.018) rotate(93.6796) scale(15.1916 51.5143)">
<stop stopColor="#182F59"/>
<stop offset="1" stopColor="#5C7EBC"/>
</radialGradient>
<radialGradient id="paint9_angular_3157_25337" cx="0" cy="0" r="1" gradientUnits="userSpaceOnUse" gradientTransform="translate(242.332 144.195) rotate(-15.9365) scale(60.6728 30.7461)">
<stop stopColor="#4C576B" stopOpacity="0.5"/>
<stop offset="1" stopOpacity="0.7"/>
</radialGradient>
<linearGradient id="paint10_linear_3157_25337" x1="283.262" y1="132.513" x2="277.992" y2="153.464" gradientUnits="userSpaceOnUse">
<stop stopColor="#182F59"/>
<stop offset="1" stopColor="#020F26"/>
</linearGradient>
<radialGradient id="paint11_radial_3157_25337" cx="0" cy="0" r="1" gradientUnits="userSpaceOnUse" gradientTransform="translate(277.44 134.792) rotate(92.9105) scale(10.9031 30.6126)">
<stop stopColor="#182F59"/>
<stop offset="1" stopColor="#5C7EBC"/>
</radialGradient>
<radialGradient id="paint12_angular_3157_25337" cx="0" cy="0" r="1" gradientUnits="userSpaceOnUse" gradientTransform="translate(253.154 141.316) rotate(-18.9307) scale(36.5889 21.7447)">
<stop stopColor="#4C576B" stopOpacity="0.5"/>
<stop offset="1" stopOpacity="0.7"/>
</radialGradient>
<linearGradient id="paint13_linear_3157_25337" x1="283.262" y1="132.513" x2="277.992" y2="153.464" gradientUnits="userSpaceOnUse">
<stop stopColor="#182F59"/>
<stop offset="1" stopColor="#020F26"/>
</linearGradient>
<radialGradient id="paint14_radial_3157_25337" cx="0" cy="0" r="1" gradientUnits="userSpaceOnUse" gradientTransform="translate(277.44 134.792) rotate(92.9105) scale(10.9031 30.6126)">
<stop stopColor="#182F59"/>
<stop offset="1" stopColor="#5C7EBC"/>
</radialGradient>
<radialGradient id="paint15_angular_3157_25337" cx="0" cy="0" r="1" gradientUnits="userSpaceOnUse" gradientTransform="translate(253.154 141.316) rotate(-18.9307) scale(36.5889 21.7447)">
<stop stopColor="#4C576B" stopOpacity="0.5"/>
<stop offset="1" stopOpacity="0.7"/>
</radialGradient>
<linearGradient id="paint16_linear_3157_25337" x1="244.276" y1="153.066" x2="232.654" y2="159.38" gradientUnits="userSpaceOnUse">
<stop stopColor="#182F59"/>
<stop offset="1" stopColor="#020F26"/>
</linearGradient>
<radialGradient id="paint17_radial_3157_25337" cx="0" cy="0" r="1" gradientUnits="userSpaceOnUse" gradientTransform="translate(243.274 155.877) rotate(89.7504) scale(13.8273 5.45051)">
<stop stopColor="#182F59"/>
<stop offset="1" stopColor="#5C7EBC"/>
</radialGradient>
<radialGradient id="paint18_angular_3157_25337" cx="0" cy="0" r="1" gradientUnits="userSpaceOnUse" gradientTransform="translate(239.049 163.812) rotate(-67.6838) scale(15.7578 11.4008)">
<stop stopColor="#4C576B" stopOpacity="0.5"/>
<stop offset="1" stopOpacity="0.7"/>
</radialGradient>
<linearGradient id="paint19_linear_3157_25337" x1="244.276" y1="153.066" x2="232.654" y2="159.38" gradientUnits="userSpaceOnUse">
<stop stopColor="#182F59"/>
<stop offset="1" stopColor="#020F26"/>
</linearGradient>
<radialGradient id="paint20_radial_3157_25337" cx="0" cy="0" r="1" gradientUnits="userSpaceOnUse" gradientTransform="translate(243.274 155.877) rotate(89.7504) scale(13.8273 5.45051)">
<stop stopColor="#182F59"/>
<stop offset="1" stopColor="#5C7EBC"/>
</radialGradient>
<radialGradient id="paint21_angular_3157_25337" cx="0" cy="0" r="1" gradientUnits="userSpaceOnUse" gradientTransform="translate(239.049 163.812) rotate(-67.6838) scale(15.7578 11.4008)">
<stop stopColor="#4C576B" stopOpacity="0.5"/>
<stop offset="1" stopOpacity="0.7"/>
</radialGradient>
<linearGradient id="paint22_linear_3157_25337" x1="263" y1="397.452" x2="310.5" y2="350.952" gradientUnits="userSpaceOnUse">
<stop stopColor="#182F59"/>
<stop offset="1" stopOpacity="0"/>
</linearGradient>
<linearGradient id="paint23_linear_3157_25337" x1="250.257" y1="365.542" x2="250.453" y2="368.563" gradientUnits="userSpaceOnUse">
<stop stopColor="#182F59"/>
<stop offset="1" stopColor="#020F26"/>
</linearGradient>
<radialGradient id="paint24_radial_3157_25337" cx="0" cy="0" r="1" gradientUnits="userSpaceOnUse" gradientTransform="translate(253.499 365.841) rotate(75.3127) scale(1.52672 16.4371)">
<stop stopColor="#182F59"/>
<stop offset="1" stopColor="#5C7EBC"/>
</radialGradient>
<radialGradient id="paint25_angular_3157_25337" cx="0" cy="0" r="1" gradientUnits="userSpaceOnUse" gradientTransform="translate(266.998 366.682) rotate(-175.403) scale(19.3198 3.09624)">
<stop stopColor="#4C576B" stopOpacity="0.5"/>
<stop offset="1" stopOpacity="0.7"/>
</radialGradient>
<linearGradient id="paint26_linear_3157_25337" x1="286.965" y1="365.542" x2="288.421" y2="367.486" gradientUnits="userSpaceOnUse">
<stop stopColor="#182F59"/>
<stop offset="1" stopColor="#020F26"/>
</linearGradient>
<radialGradient id="paint27_radial_3157_25337" cx="0" cy="0" r="1" gradientUnits="userSpaceOnUse" gradientTransform="translate(287.247 365.841) rotate(88.6943) scale(1.47721)">
<stop stopColor="#182F59"/>
<stop offset="1" stopColor="#5C7EBC"/>
</radialGradient>
<radialGradient id="paint28_angular_3157_25337" cx="0" cy="0" r="1" gradientUnits="userSpaceOnUse" gradientTransform="translate(288.421 366.682) rotate(-137.243) scale(2.28071)">
<stop stopColor="#4C576B" stopOpacity="0.5"/>
<stop offset="1" stopOpacity="0.7"/>
</radialGradient>
<linearGradient id="paint29_linear_3157_25337" x1="246.924" y1="371.383" x2="247.297" y2="374.37" gradientUnits="userSpaceOnUse">
<stop stopColor="#182F59"/>
<stop offset="1" stopColor="#020F26"/>
</linearGradient>
<radialGradient id="paint30_radial_3157_25337" cx="0" cy="0" r="1" gradientUnits="userSpaceOnUse" gradientTransform="translate(248.616 371.681) rotate(82.213) scale(1.49058 8.78383)">
<stop stopColor="#182F59"/>
<stop offset="1" stopColor="#5C7EBC"/>
</radialGradient>
<radialGradient id="paint31_angular_3157_25337" cx="0" cy="0" r="1" gradientUnits="userSpaceOnUse" gradientTransform="translate(255.659 372.523) rotate(-171.239) scale(10.1661 3.06999)">
<stop stopColor="#4C576B" stopOpacity="0.5"/>
<stop offset="1" stopOpacity="0.7"/>
</radialGradient>
<linearGradient id="paint32_linear_3157_25337" x1="286.965" y1="371.383" x2="288.421" y2="373.327" gradientUnits="userSpaceOnUse">
<stop stopColor="#182F59"/>
<stop offset="1" stopColor="#020F26"/>
</linearGradient>
<radialGradient id="paint33_radial_3157_25337" cx="0" cy="0" r="1" gradientUnits="userSpaceOnUse" gradientTransform="translate(287.247 371.681) rotate(88.6943) scale(1.47721)">
<stop stopColor="#182F59"/>
<stop offset="1" stopColor="#5C7EBC"/>
</radialGradient>
<radialGradient id="paint34_angular_3157_25337" cx="0" cy="0" r="1" gradientUnits="userSpaceOnUse" gradientTransform="translate(288.421 372.523) rotate(-137.243) scale(2.28071)">
<stop stopColor="#4C576B" stopOpacity="0.5"/>
<stop offset="1" stopOpacity="0.7"/>
</radialGradient>
<linearGradient id="paint35_linear_3157_25337" x1="249.196" y1="377.223" x2="249.428" y2="380.239" gradientUnits="userSpaceOnUse">
<stop stopColor="#182F59"/>
<stop offset="1" stopColor="#020F26"/>
</linearGradient>
<radialGradient id="paint36_radial_3157_25337" cx="0" cy="0" r="1" gradientUnits="userSpaceOnUse" gradientTransform="translate(251.945 377.521) rotate(77.4712) scale(1.51286 14.0635)">
<stop stopColor="#182F59"/>
<stop offset="1" stopColor="#5C7EBC"/>
</radialGradient>
<radialGradient id="paint37_angular_3157_25337" cx="0" cy="0" r="1" gradientUnits="userSpaceOnUse" gradientTransform="translate(263.39 378.363) rotate(-174.583) scale(16.4004 3.09236)">
<stop stopColor="#4C576B" stopOpacity="0.5"/>
<stop offset="1" stopOpacity="0.7"/>
</radialGradient>
<linearGradient id="paint38_linear_3157_25337" x1="286.965" y1="377.223" x2="288.421" y2="379.166" gradientUnits="userSpaceOnUse">
<stop stopColor="#182F59"/>
<stop offset="1" stopColor="#020F26"/>
</linearGradient>
<radialGradient id="paint39_radial_3157_25337" cx="0" cy="0" r="1" gradientUnits="userSpaceOnUse" gradientTransform="translate(287.247 377.521) rotate(88.6943) scale(1.47721)">
<stop stopColor="#182F59"/>
<stop offset="1" stopColor="#5C7EBC"/>
</radialGradient>
<radialGradient id="paint40_angular_3157_25337" cx="0" cy="0" r="1" gradientUnits="userSpaceOnUse" gradientTransform="translate(288.421 378.363) rotate(-137.243) scale(2.28071)">
<stop stopColor="#4C576B" stopOpacity="0.5"/>
<stop offset="1" stopOpacity="0.7"/>
</radialGradient>
<linearGradient id="paint41_linear_3157_25337" x1="246.167" y1="383.062" x2="246.634" y2="386.023" gradientUnits="userSpaceOnUse">
<stop stopColor="#182F59"/>
<stop offset="1" stopColor="#020F26"/>
</linearGradient>
<radialGradient id="paint42_radial_3157_25337" cx="0" cy="0" r="1" gradientUnits="userSpaceOnUse" gradientTransform="translate(247.506 383.361) rotate(83.8211) scale(1.48546 6.97781)">
<stop stopColor="#182F59"/>
<stop offset="1" stopColor="#5C7EBC"/>
</radialGradient>
<radialGradient id="paint43_angular_3157_25337" cx="0" cy="0" r="1" gradientUnits="userSpaceOnUse" gradientTransform="translate(253.082 384.203) rotate(-168.985) scale(8.10356 3.049)">
<stop stopColor="#4C576B" stopOpacity="0.5"/>
<stop offset="1" stopOpacity="0.7"/>
</radialGradient>
<linearGradient id="paint44_linear_3157_25337" x1="286.965" y1="383.062" x2="288.421" y2="385.006" gradientUnits="userSpaceOnUse">
<stop stopColor="#182F59"/>
<stop offset="1" stopColor="#020F26"/>
</linearGradient>
<radialGradient id="paint45_radial_3157_25337" cx="0" cy="0" r="1" gradientUnits="userSpaceOnUse" gradientTransform="translate(287.247 383.361) rotate(88.6943) scale(1.47721)">
<stop stopColor="#182F59"/>
<stop offset="1" stopColor="#5C7EBC"/>
</radialGradient>
<radialGradient id="paint46_angular_3157_25337" cx="0" cy="0" r="1" gradientUnits="userSpaceOnUse" gradientTransform="translate(288.421 384.203) rotate(-137.243) scale(2.28071)">
<stop stopColor="#4C576B" stopOpacity="0.5"/>
<stop offset="1" stopOpacity="0.7"/>
</radialGradient>
<linearGradient id="paint47_linear_3157_25337" x1="249.196" y1="388.902" x2="249.428" y2="391.919" gradientUnits="userSpaceOnUse">
<stop stopColor="#182F59"/>
<stop offset="1" stopColor="#020F26"/>
</linearGradient>
<radialGradient id="paint48_radial_3157_25337" cx="0" cy="0" r="1" gradientUnits="userSpaceOnUse" gradientTransform="translate(251.945 389.201) rotate(77.4712) scale(1.51286 14.0635)">
<stop stopColor="#182F59"/>
<stop offset="1" stopColor="#5C7EBC"/>
</radialGradient>
<radialGradient id="paint49_angular_3157_25337" cx="0" cy="0" r="1" gradientUnits="userSpaceOnUse" gradientTransform="translate(263.39 390.042) rotate(-174.583) scale(16.4004 3.09236)">
<stop stopColor="#4C576B" stopOpacity="0.5"/>
<stop offset="1" stopOpacity="0.7"/>
</radialGradient>
<linearGradient id="paint50_linear_3157_25337" x1="286.965" y1="388.902" x2="288.421" y2="390.846" gradientUnits="userSpaceOnUse">
<stop stopColor="#182F59"/>
<stop offset="1" stopColor="#020F26"/>
</linearGradient>
<radialGradient id="paint51_radial_3157_25337" cx="0" cy="0" r="1" gradientUnits="userSpaceOnUse" gradientTransform="translate(287.247 389.201) rotate(88.6943) scale(1.47721)">
<stop stopColor="#182F59"/>
<stop offset="1" stopColor="#5C7EBC"/>
</radialGradient>
<radialGradient id="paint52_angular_3157_25337" cx="0" cy="0" r="1" gradientUnits="userSpaceOnUse" gradientTransform="translate(288.421 390.042) rotate(-137.243) scale(2.28071)">
<stop stopColor="#4C576B" stopOpacity="0.5"/>
<stop offset="1" stopOpacity="0.7"/>
</radialGradient>
<linearGradient id="paint53_linear_3157_25337" x1="249.802" y1="394.742" x2="250.013" y2="397.762" gradientUnits="userSpaceOnUse">
<stop stopColor="#182F59"/>
<stop offset="1" stopColor="#020F26"/>
</linearGradient>
<radialGradient id="paint54_radial_3157_25337" cx="0" cy="0" r="1" gradientUnits="userSpaceOnUse" gradientTransform="translate(252.833 395.041) rotate(76.2329) scale(1.52051 15.4278)">
<stop stopColor="#182F59"/>
<stop offset="1" stopColor="#5C7EBC"/>
</radialGradient>
<radialGradient id="paint55_angular_3157_25337" cx="0" cy="0" r="1" gradientUnits="userSpaceOnUse" gradientTransform="translate(265.452 395.882) rotate(-175.084) scale(18.0682 3.0948)">
<stop stopColor="#4C576B" stopOpacity="0.5"/>
<stop offset="1" stopOpacity="0.7"/>
</radialGradient>
<linearGradient id="paint56_linear_3157_25337" x1="286.965" y1="394.742" x2="288.421" y2="396.686" gradientUnits="userSpaceOnUse">
<stop stopColor="#182F59"/>
<stop offset="1" stopColor="#020F26"/>
</linearGradient>
<radialGradient id="paint57_radial_3157_25337" cx="0" cy="0" r="1" gradientUnits="userSpaceOnUse" gradientTransform="translate(287.247 395.041) rotate(88.6943) scale(1.47721)">
<stop stopColor="#182F59"/>
<stop offset="1" stopColor="#5C7EBC"/>
</radialGradient>
<radialGradient id="paint58_angular_3157_25337" cx="0" cy="0" r="1" gradientUnits="userSpaceOnUse" gradientTransform="translate(288.421 395.882) rotate(-137.243) scale(2.28071)">
<stop stopColor="#4C576B" stopOpacity="0.5"/>
<stop offset="1" stopOpacity="0.7"/>
</radialGradient>
<linearGradient id="paint59_linear_3157_25337" x1="248.288" y1="400.582" x2="248.561" y2="403.591" gradientUnits="userSpaceOnUse">
<stop stopColor="#182F59"/>
<stop offset="1" stopColor="#020F26"/>
</linearGradient>
<radialGradient id="paint60_radial_3157_25337" cx="0" cy="0" r="1" gradientUnits="userSpaceOnUse" gradientTransform="translate(250.613 400.881) rotate(79.3508) scale(1.50271 11.9802)">
<stop stopColor="#182F59"/>
<stop offset="1" stopColor="#5C7EBC"/>
</radialGradient>
<radialGradient id="paint61_angular_3157_25337" cx="0" cy="0" r="1" gradientUnits="userSpaceOnUse" gradientTransform="translate(260.298 401.722) rotate(-173.605) scale(13.9018 3.0869)">
<stop stopColor="#4C576B" stopOpacity="0.5"/>
<stop offset="1" stopOpacity="0.7"/>
</radialGradient>
<linearGradient id="paint62_linear_3157_25337" x1="286.965" y1="400.582" x2="288.421" y2="402.526" gradientUnits="userSpaceOnUse">
<stop stopColor="#182F59"/>
<stop offset="1" stopColor="#020F26"/>
</linearGradient>
<radialGradient id="paint63_radial_3157_25337" cx="0" cy="0" r="1" gradientUnits="userSpaceOnUse" gradientTransform="translate(287.247 400.881) rotate(88.6943) scale(1.47721)">
<stop stopColor="#182F59"/>
<stop offset="1" stopColor="#5C7EBC"/>
</radialGradient>
<radialGradient id="paint64_angular_3157_25337" cx="0" cy="0" r="1" gradientUnits="userSpaceOnUse" gradientTransform="translate(288.421 401.722) rotate(-137.243) scale(2.28071)">
<stop stopColor="#4C576B" stopOpacity="0.5"/>
<stop offset="1" stopOpacity="0.7"/>
</radialGradient>
<linearGradient id="paint65_linear_3157_25337" x1="249.802" y1="406.423" x2="250.013" y2="409.442" gradientUnits="userSpaceOnUse">
<stop stopColor="#182F59"/>
<stop offset="1" stopColor="#020F26"/>
</linearGradient>
<radialGradient id="paint66_radial_3157_25337" cx="0" cy="0" r="1" gradientUnits="userSpaceOnUse" gradientTransform="translate(252.833 406.721) rotate(76.2329) scale(1.52051 15.4278)">
<stop stopColor="#182F59"/>
<stop offset="1" stopColor="#5C7EBC"/>
</radialGradient>
<radialGradient id="paint67_angular_3157_25337" cx="0" cy="0" r="1" gradientUnits="userSpaceOnUse" gradientTransform="translate(265.452 407.563) rotate(-175.084) scale(18.0682 3.0948)">
<stop stopColor="#4C576B" stopOpacity="0.5"/>
<stop offset="1" stopOpacity="0.7"/>
</radialGradient>
<linearGradient id="paint68_linear_3157_25337" x1="286.965" y1="406.423" x2="288.421" y2="408.367" gradientUnits="userSpaceOnUse">
<stop stopColor="#182F59"/>
<stop offset="1" stopColor="#020F26"/>
</linearGradient>
<radialGradient id="paint69_radial_3157_25337" cx="0" cy="0" r="1" gradientUnits="userSpaceOnUse" gradientTransform="translate(287.247 406.721) rotate(88.6943) scale(1.47721)">
<stop stopColor="#182F59"/>
<stop offset="1" stopColor="#5C7EBC"/>
</radialGradient>
<radialGradient id="paint70_angular_3157_25337" cx="0" cy="0" r="1" gradientUnits="userSpaceOnUse" gradientTransform="translate(288.421 407.563) rotate(-137.243) scale(2.28071)">
<stop stopColor="#4C576B" stopOpacity="0.5"/>
<stop offset="1" stopOpacity="0.7"/>
</radialGradient>
<linearGradient id="paint71_linear_3157_25337" x1="247.53" y1="412.263" x2="247.851" y2="415.262" gradientUnits="userSpaceOnUse">
<stop stopColor="#182F59"/>
<stop offset="1" stopColor="#020F26"/>
</linearGradient>
<radialGradient id="paint72_radial_3157_25337" cx="0" cy="0" r="1" gradientUnits="userSpaceOnUse" gradientTransform="translate(249.504 412.561) rotate(80.9352) scale(1.49551 10.214)">
<stop stopColor="#182F59"/>
<stop offset="1" stopColor="#5C7EBC"/>
</radialGradient>
<radialGradient id="paint73_angular_3157_25337" cx="0" cy="0" r="1" gradientUnits="userSpaceOnUse" gradientTransform="translate(257.721 413.403) rotate(-172.475) scale(11.8239 3.07948)">
<stop stopColor="#4C576B" stopOpacity="0.5"/>
<stop offset="1" stopOpacity="0.7"/>
</radialGradient>
<linearGradient id="paint74_linear_3157_25337" x1="286.965" y1="412.263" x2="288.421" y2="414.206" gradientUnits="userSpaceOnUse">
<stop stopColor="#182F59"/>
<stop offset="1" stopColor="#020F26"/>
</linearGradient>
<radialGradient id="paint75_radial_3157_25337" cx="0" cy="0" r="1" gradientUnits="userSpaceOnUse" gradientTransform="translate(287.247 412.561) rotate(88.6943) scale(1.47721)">
<stop stopColor="#182F59"/>
<stop offset="1" stopColor="#5C7EBC"/>
</radialGradient>
<radialGradient id="paint76_angular_3157_25337" cx="0" cy="0" r="1" gradientUnits="userSpaceOnUse" gradientTransform="translate(288.421 413.403) rotate(-137.243) scale(2.28071)">
<stop stopColor="#4C576B" stopOpacity="0.5"/>
<stop offset="1" stopOpacity="0.7"/>
</radialGradient>
<linearGradient id="paint77_linear_3157_25337" x1="244.787" y1="376.686" x2="296.668" y2="420.045" gradientUnits="userSpaceOnUse">
<stop stopColor="#182F59"/>
<stop offset="1" stopColor="#020F26"/>
</linearGradient>
<radialGradient id="paint78_radial_3157_25337" cx="0" cy="0" r="1" gradientUnits="userSpaceOnUse" gradientTransform="translate(250.919 387.067) rotate(89.1827) scale(51.3251 32.1345)">
<stop stopColor="#182F59"/>
<stop offset="1" stopColor="#5C7EBC"/>
</radialGradient>
<radialGradient id="paint79_angular_3157_25337" cx="0" cy="0" r="1" gradientUnits="userSpaceOnUse" gradientTransform="translate(276.451 416.309) rotate(-124.095) scale(64.9738 60.5084)">
<stop stopColor="#4C576B" stopOpacity="0.5"/>
<stop offset="1" stopOpacity="0.7"/>
</radialGradient>
<linearGradient id="paint80_linear_3157_25337" x1="257.986" y1="434.572" x2="262.902" y2="452.982" gradientUnits="userSpaceOnUse">
<stop stopColor="#182F59"/>
<stop offset="1" stopColor="#020F26"/>
</linearGradient>
<radialGradient id="paint81_radial_3157_25337" cx="0" cy="0" r="1" gradientUnits="userSpaceOnUse" gradientTransform="translate(263.126 436.514) rotate(86.3419) scale(9.61899 26.8863)">
<stop stopColor="#182F59"/>
<stop offset="1" stopColor="#5C7EBC"/>
</radialGradient>
<radialGradient id="paint82_angular_3157_25337" cx="0" cy="0" r="1" gradientUnits="userSpaceOnUse" gradientTransform="translate(284.53 441.984) rotate(-161.757) scale(32.1487 19.1756)">
<stop stopColor="#4C576B" stopOpacity="0.5"/>
<stop offset="1" stopOpacity="0.7"/>
</radialGradient>
<linearGradient id="paint83_linear_3157_25337" x1="235.754" y1="359.207" x2="226.359" y2="351.209" gradientUnits="userSpaceOnUse">
<stop stopColor="#182F59"/>
<stop offset="1" stopColor="#020F26"/>
</linearGradient>
<radialGradient id="paint84_radial_3157_25337" cx="0" cy="0" r="1" gradientUnits="userSpaceOnUse" gradientTransform="translate(234.627 357.333) rotate(-90.8325) scale(9.26612 5.90929)">
<stop stopColor="#182F59"/>
<stop offset="1" stopColor="#5C7EBC"/>
</radialGradient>
<radialGradient id="paint85_angular_3157_25337" cx="0" cy="0" r="1" gradientUnits="userSpaceOnUse" gradientTransform="translate(229.932 352.053) rotate(55.4135) scale(11.7991 11.0621)">
<stop stopColor="#4C576B" stopOpacity="0.5"/>
<stop offset="1" stopOpacity="0.7"/>
</radialGradient>
<linearGradient id="paint86_linear_3157_25337" x1="253" y1="264.452" x2="426.5" y2="411.952" gradientUnits="userSpaceOnUse">
<stop stopColor="#5BBC2E"/>
<stop offset="1" stopColor="#5BBC2E" stopOpacity="0"/>
</linearGradient>
<clipPath id="clip0_3157_25337">
<rect width="15.4482" height="15.4482" fill="white" transform="translate(306.896 231.403)"/>
</clipPath>
<clipPath id="clip1_3157_25337">
<rect width="15.4482" height="15.4482" fill="white" transform="translate(371.264 317.012)"/>
</clipPath>
<clipPath id="clip2_3157_25337">
<rect width="15.4482" height="15.4482" fill="white" transform="translate(306.896 256.506)"/>
</clipPath>
<clipPath id="clip3_3157_25337">
<rect width="15.4482" height="15.4482" fill="white" transform="translate(306.896 281.609)"/>
</clipPath>
</defs>
</svg>
