<svg width="36" height="28" viewBox="0 0 36 28" fill="none" xmlns="http://www.w3.org/2000/svg">
<path fillRule="evenodd" clipRule="evenodd" d="M3.09642 0.00195643H6.72947C10.2052 -0.00553168 10.3775 0.00195643 10.7745 0.144231C10.9992 0.2266 11.3213 0.376362 11.4861 0.473707C11.6509 0.571053 11.8981 0.773232 12.033 0.922994C12.1603 1.07276 12.3551 1.34982 12.4525 1.552C12.5498 1.74669 12.6697 2.10612 12.7221 2.35322C12.782 2.66772 12.797 3.82838 12.782 6.28448C12.7596 9.38456 12.7446 9.80389 12.6247 10.1034C12.5498 10.2906 12.3775 10.6126 12.2427 10.8148C12.1004 11.0245 11.8082 11.3165 11.5835 11.4737C11.3663 11.6235 11.0217 11.8032 10.812 11.8631C10.4973 11.9605 9.81568 11.9754 6.74445 11.9754C3.12638 11.9754 3.05147 11.9754 2.6245 11.8107C2.39228 11.7208 2.06269 11.5411 1.90538 11.4138C1.74058 11.294 1.50087 11.0544 1.37353 10.8897C1.24619 10.7249 1.06641 10.4029 0.984008 10.1783C0.826701 9.78143 0.81921 9.64664 0.811719 6.05984C0.804228 2.9373 0.81921 2.29332 0.91659 1.97882C0.976517 1.77664 1.14881 1.43967 1.29862 1.23001C1.44844 1.02783 1.68814 0.758256 1.84545 0.630958C1.99527 0.511148 2.33985 0.316457 2.60952 0.204135L3.09642 0.00195643ZM3.18631 2.6228C3.20129 8.62826 3.23125 9.41451 3.29867 9.48939C3.37358 9.55679 4.14513 9.57925 6.7819 9.57925H10.1752C10.385 9.26475 10.4 8.76305 10.4 5.96249C10.4 2.78753 10.3925 2.6827 10.2502 2.54043C10.1078 2.39066 10.003 2.39066 6.81936 2.39066C3.97284 2.39066 3.5234 2.40564 3.36609 2.50299L3.18631 2.6228Z" fill="#247983"/>
<path d="M17.1892 24.2559C17.2641 24.196 17.4439 24.1062 17.5937 24.0538C17.7884 23.9864 19.0843 23.9639 27.8935 23.9939L28.1782 24.1586C28.343 24.2634 28.5228 24.4581 28.6127 24.6453C28.7325 24.8924 28.7625 25.0497 28.7325 25.3043C28.71 25.4915 28.6277 25.7236 28.5453 25.8284C28.4703 25.9333 28.2906 26.0905 27.8935 26.3601H17.6311L17.3764 26.1879C17.2341 26.0905 17.0543 25.9333 16.9794 25.8284C16.897 25.7236 16.8146 25.4915 16.7922 25.3043C16.7622 25.0572 16.7922 24.8924 16.9045 24.6678C16.9869 24.503 17.1143 24.3158 17.1892 24.2559Z" fill="#247983"/>
<path d="M17.0153 8.4484C17.1127 8.31361 17.3075 8.16385 17.4498 8.11143C17.6521 8.02906 18.7008 8.01409 22.8507 8.02906C27.862 8.04404 27.9969 8.05153 28.1991 8.1938C28.304 8.27617 28.4688 8.44091 28.5587 8.55323C28.6785 8.71797 28.716 8.87522 28.716 9.2047C28.716 9.53417 28.6785 9.69142 28.5587 9.85616C28.4688 9.96848 28.304 10.1332 28.1991 10.2156C27.9969 10.3579 27.8546 10.3654 22.9256 10.3878C19.7944 10.4028 17.7569 10.3803 17.5921 10.3354C17.4498 10.298 17.2176 10.1407 17.0902 9.99844C16.9404 9.84118 16.8206 9.61654 16.7981 9.44432C16.7756 9.29455 16.7756 9.05493 16.7981 8.92015C16.8206 8.79285 16.9254 8.57569 17.0153 8.4484Z" fill="#247983"/>
<path d="M16.9793 2.16687C17.0542 2.06203 17.234 1.90478 17.3689 1.81493L17.6235 1.6427H25.9234C33.6764 1.6427 34.2382 1.65019 34.4929 1.77749C34.6502 1.84488 34.8299 1.98715 34.8974 2.09199C34.9723 2.19682 35.0697 2.399 35.1221 2.54127C35.1745 2.68355 35.197 2.88573 35.1745 2.99056C35.1521 3.09539 35.0547 3.29757 34.9573 3.43985C34.8599 3.58212 34.6352 3.77681 34.1108 4.0389L17.631 4.00145L17.3464 3.83672C17.1816 3.73188 17.0018 3.53719 16.9119 3.34999C16.7921 3.10288 16.7621 2.94563 16.7921 2.69104C16.8145 2.50383 16.8969 2.2717 16.9793 2.16687Z" fill="#247983"/>
<path fillRule="evenodd" clipRule="evenodd" d="M6.72896 16.0192C9.82267 16.0192 10.4968 16.0341 10.8115 16.1315C11.0212 16.1914 11.3658 16.3711 11.583 16.5209C11.8077 16.6781 12.0999 16.9702 12.2422 17.1798C12.377 17.382 12.5493 17.704 12.6242 17.8912C12.7441 18.1907 12.7591 18.6101 12.7815 21.7101C12.7965 24.1662 12.7815 25.3269 12.7216 25.6414C12.6692 25.8885 12.5493 26.2479 12.4519 26.4501C12.3546 26.6448 12.1598 26.9219 12.025 27.0716C11.8976 27.2214 11.6504 27.4236 11.4856 27.5209C11.3208 27.6182 10.9987 27.768 10.774 27.8504C10.3845 27.9927 10.1897 28.0001 3.17082 28.0001L2.68392 27.8129C2.41425 27.7006 2.06218 27.5134 1.89738 27.3936C1.73258 27.2663 1.47041 26.9892 1.3131 26.7796C1.15579 26.5624 0.976012 26.218 0.916086 26.0158C0.833687 25.7163 0.811214 24.9001 0.811214 21.9722C0.803723 19.9504 0.833687 18.2057 0.871141 18.0784C0.908595 17.9586 1.01347 17.7115 1.10336 17.5318C1.18576 17.3595 1.38801 17.075 1.53782 16.9103C1.69513 16.738 1.97229 16.5134 2.15956 16.4085C2.34683 16.2962 2.6165 16.1689 2.75883 16.1165C2.95359 16.0491 3.98732 16.0267 6.72896 16.0192V16.0192ZM3.19329 21.9872L3.20828 25.3793C3.52289 25.589 4.02478 25.6039 6.82634 25.6039C10.0024 25.6039 10.1073 25.5965 10.2496 25.4542C10.392 25.3119 10.3995 25.2071 10.3995 22.0246C10.3995 19.2316 10.3845 18.7299 10.2871 18.5801L10.1747 18.4154C4.2495 18.4154 3.35809 18.4378 3.28318 18.5052C3.19329 18.5801 3.17831 19.1567 3.19329 21.9872Z" fill="#247983"/>
<path d="M17.0153 18.0336C17.1127 17.8988 17.3075 17.7491 17.4498 17.6966C17.6595 17.6143 19.2326 17.5993 26.0343 17.6143L26.0386 17.6143C34.3491 17.6292 34.3641 17.6293 34.5738 17.7865C34.6862 17.8689 34.8585 18.0561 34.9558 18.1983C35.0532 18.3406 35.1506 18.5203 35.1731 18.6027C35.1956 18.6851 35.1956 18.8348 35.1731 18.9397C35.1506 19.0445 35.0532 19.2392 34.9558 19.3815C34.8585 19.5237 34.6862 19.7109 34.5738 19.7933C34.3641 19.9505 34.3491 19.9506 26.1156 19.973L26.1092 19.973C20.933 19.988 17.7569 19.9655 17.5921 19.9206C17.4498 19.8832 17.2176 19.7259 17.0902 19.5836C16.9404 19.4264 16.8206 19.2017 16.7981 19.037C16.7756 18.8798 16.7756 18.6401 16.7981 18.5128C16.8206 18.3781 16.9254 18.1609 17.0153 18.0336Z" fill="#247983"/>
</svg>
