<svg width="29" height="28" viewBox="0 0 29 28" fill="none" xmlns="http://www.w3.org/2000/svg">
<path fillRule="evenodd" clipRule="evenodd" d="M14.6556 0C15.3993 0 15.5032 0.0109375 15.6509 0.109375C15.7493 0.175 15.897 0.382812 16.0282 0.645313C16.2251 1.03359 16.2634 1.07188 16.4931 1.15938C16.7392 1.25781 16.7501 1.25781 17.1384 1.12109C17.3571 1.04453 17.5923 0.984375 17.6579 0.984375C17.729 0.984375 17.8493 1.01719 17.9313 1.06094C18.0188 1.10469 18.3196 1.38359 18.6095 1.67891C19.0032 2.07813 19.1454 2.26406 19.1728 2.40625C19.2001 2.54297 19.1728 2.71797 19.0688 3.03516C18.9212 3.47266 18.9212 3.47266 19.0251 3.70781C19.1126 3.92109 19.1728 3.97031 19.5337 4.15625C19.7688 4.27109 19.9876 4.42422 20.0532 4.51719C20.1407 4.64844 20.1626 4.78516 20.179 5.35938C20.1899 5.73672 20.1845 6.125 20.1681 6.21797C20.1517 6.31641 20.0587 6.48594 19.8071 6.78125L23.5368 6.79766C26.8946 6.80859 27.2993 6.81953 27.5181 6.90156C27.6548 6.95625 27.8954 7.11484 28.054 7.25703C28.2345 7.41562 28.404 7.63984 28.6392 8.12109L28.6665 18.1016L28.5407 18.3859C28.4696 18.5445 28.3165 18.7852 28.1962 18.9164C28.0704 19.0586 27.8462 19.2227 27.6548 19.3156C27.4743 19.3977 27.2829 19.4688 27.2282 19.4688C27.179 19.4688 27.097 19.4797 27.0532 19.4961C26.9821 19.518 26.9712 19.857 26.9712 24.6094L27.5399 24.6203C28.0212 24.6367 28.136 24.6531 28.2673 24.7516C28.3493 24.8117 28.4751 24.9484 28.5462 25.0523C28.6665 25.2273 28.672 25.2766 28.6556 25.9492C28.6392 26.5453 28.6173 26.7039 28.5134 26.9336C28.4423 27.0813 28.2837 27.3164 28.1579 27.4477C28.0267 27.5789 27.7806 27.7539 27.2446 28H2.08838L1.74385 27.8469C1.53057 27.7484 1.31182 27.5898 1.15322 27.4203C1.00557 27.2617 0.85791 27.0211 0.786816 26.8352C0.688379 26.5836 0.666504 26.4086 0.666504 25.9219C0.666504 25.5391 0.693848 25.2547 0.743066 25.1398C0.781348 25.0469 0.868848 24.9156 0.929004 24.8555C1.04385 24.7461 1.04385 24.7461 0.94541 24.6094C0.890723 24.5328 0.803223 24.3578 0.754004 24.2102C0.677441 23.9805 0.666504 23.3898 0.666504 13.2891L0.792285 12.9992C0.863379 12.8461 1.0165 12.6109 1.13682 12.4797C1.25166 12.3484 1.49775 12.168 1.67822 12.0805C1.85869 11.993 2.08838 11.9219 2.36182 11.9219L2.37275 10.8664C2.38916 9.85469 2.39463 9.80547 2.53682 9.51562C2.61338 9.35156 2.78838 9.11641 2.91963 9.00156C3.04541 8.88125 3.2915 8.72266 3.75635 8.50391L10.1274 8.47656L10.2642 8.01172C10.3954 7.56875 10.3954 7.53594 10.3134 7.31172C10.2368 7.10937 10.1767 7.05469 9.81025 6.86328C9.58057 6.74297 9.34541 6.57344 9.28525 6.49141C9.18135 6.34922 9.17041 6.25625 9.17041 5.50703C9.17041 4.76328 9.18135 4.65937 9.27979 4.51719C9.33994 4.42969 9.56416 4.27109 9.79932 4.15625C10.1603 3.97031 10.2204 3.92109 10.3079 3.70781C10.4118 3.47266 10.4118 3.47266 10.2642 3.03516C10.1603 2.71797 10.1329 2.54297 10.1603 2.40625C10.1876 2.26406 10.3298 2.07813 10.7235 1.67891C11.0134 1.38359 11.3142 1.10469 11.3962 1.06094C11.4837 1.01719 11.604 0.984375 11.6696 0.984375C11.7407 0.984375 11.9759 1.04453 12.1892 1.12109C12.5829 1.25781 12.5938 1.25781 12.8399 1.15938C13.0696 1.07188 13.1079 1.03359 13.2993 0.65625C13.4087 0.432031 13.5728 0.191406 13.6603 0.125781C13.8079 0.0109375 13.879 0.00546875 14.6501 0L14.6556 0ZM13.9829 1.15391C13.8954 1.33438 13.7642 1.54219 13.6876 1.61328C13.611 1.68437 13.3704 1.82109 13.1517 1.90859C12.9384 2.00156 12.7032 2.07812 12.6321 2.07812C12.5665 2.07812 12.3368 2.01797 12.129 1.94687L11.7462 1.81563L10.9806 2.57031C11.172 3.14453 11.2267 3.37969 11.2267 3.47266C11.2267 3.56016 11.161 3.79531 11.0845 3.99219C11.0079 4.18906 10.8876 4.40781 10.822 4.47891C10.7618 4.54453 10.5431 4.68672 10.3353 4.79062L9.96885 4.97656V6.01562C10.4118 6.23438 10.6142 6.35469 10.7071 6.42031C10.8165 6.50234 10.9313 6.68828 11.0462 6.96172C11.1446 7.19688 11.2267 7.46484 11.2267 7.55781C11.2267 7.65625 11.1774 7.88594 11.1173 8.06641C11.0571 8.24687 11.0079 8.41094 11.0079 8.43281C11.0079 8.46016 11.3634 8.47656 11.8009 8.47656C12.5884 8.47656 12.5938 8.47656 12.5938 8.35078C12.5938 8.28516 12.6157 8.14297 12.6485 8.03906C12.6759 7.93516 12.7853 7.72188 12.8892 7.57422L13.0751 7.30078C12.304 6.52422 12.0415 6.20156 11.9649 6.04297C11.8829 5.88437 11.8282 5.67656 11.8282 5.55078C11.8282 5.43047 11.8556 5.23906 11.8829 5.12422C11.9157 5.01484 12.0306 4.81797 12.1399 4.69219C12.2548 4.57188 12.4462 4.42422 12.5665 4.36953C12.6923 4.30938 12.911 4.26562 13.086 4.26562C13.2665 4.26562 13.4743 4.30938 13.6056 4.36953C13.7259 4.42422 13.9228 4.57188 14.0431 4.69766L14.2618 4.92188C15.0876 4.11797 15.4321 3.83359 15.5579 3.77344C15.7001 3.71328 15.9134 3.66406 16.0774 3.66406C16.236 3.66406 16.4603 3.70234 16.5696 3.75156C16.6845 3.79531 16.8485 3.89922 16.9306 3.98125C17.0181 4.06328 17.1329 4.22187 17.1931 4.33125C17.2478 4.44609 17.3134 4.64297 17.3298 4.76875C17.3571 4.93281 17.3353 5.09688 17.2642 5.30469C17.1821 5.55625 17.0728 5.70391 16.5915 6.19609L16.0118 6.78672L18.3634 6.77578C18.5438 6.49688 18.7298 6.35469 18.9759 6.22344L19.3751 6.01562V4.97656C18.8009 4.68672 18.5821 4.54453 18.522 4.47891C18.4563 4.40781 18.336 4.18906 18.2595 3.99219C18.1829 3.79531 18.1173 3.56016 18.1173 3.47266C18.1173 3.37969 18.172 3.14453 18.2431 2.93672L18.3634 2.57031L17.5978 1.81563C17.0017 2.01797 16.7774 2.07812 16.7063 2.07812C16.6407 2.07812 16.4056 2.00156 16.1868 1.90859C15.9735 1.82109 15.7329 1.68437 15.6563 1.61328C15.5798 1.54219 15.4431 1.33438 15.3556 1.15391L15.1915 0.820312H14.1415L13.9829 1.15391ZM14.3001 5.90625C14.1579 5.90625 14.0485 5.83516 13.6876 5.49609C13.3157 5.14609 13.2228 5.08594 13.0587 5.08594C12.911 5.08594 12.8399 5.12422 12.7579 5.23906C12.6923 5.32109 12.6431 5.45781 12.6485 5.53984C12.6485 5.65469 12.7798 5.82422 13.2063 6.26172L13.7696 6.84141L14.8415 6.75391C16.3618 5.22813 16.5313 5.03125 16.5313 4.91094C16.5313 4.82344 16.4767 4.70312 16.3946 4.62109C16.3017 4.53359 16.1978 4.48438 16.0774 4.48438C15.9243 4.48438 15.8095 4.57734 15.1915 5.19531C14.5735 5.81328 14.4587 5.90625 14.3001 5.90625ZM13.7259 7.84766C13.6438 7.92422 13.5345 8.06641 13.4798 8.16484C13.3923 8.32891 13.3868 8.67344 13.3868 13.1523C13.3868 17.4836 13.3978 17.9812 13.4743 18.1289C13.5235 18.2219 13.6384 18.3641 13.7368 18.4461C13.8298 18.5281 13.9993 18.6211 14.1087 18.6484C14.2399 18.6867 16.6243 18.7031 20.6603 18.7031C26.0907 18.6977 27.0368 18.6867 27.2228 18.6211C27.3431 18.5773 27.4853 18.4953 27.5454 18.4461C27.6001 18.3914 27.6931 18.2492 27.7478 18.1289C27.8462 17.9211 27.8517 17.6531 27.8517 13.1523C27.8517 8.65156 27.8462 8.38359 27.7478 8.17578C27.6931 8.05547 27.6001 7.91328 27.5454 7.86406C27.4853 7.80938 27.3431 7.73281 27.2228 7.68906C27.0368 7.61797 26.0907 7.60703 20.6056 7.6125C17.0728 7.6125 14.136 7.63438 14.0431 7.66172C13.9501 7.68906 13.8134 7.77109 13.7259 7.84766V7.84766ZM3.57588 9.52109C3.47197 9.59219 3.34072 9.75078 3.28604 9.87109C3.20947 10.0516 3.1876 10.243 3.1876 10.9813V11.8672H4.0626C4.0626 10.7953 4.08994 10.5055 4.12822 10.418C4.1665 10.3414 4.25947 10.2539 4.33604 10.2266C4.42354 10.1883 5.16729 10.1773 6.32119 10.1828L8.1751 10.1992C8.37744 10.4344 8.4376 10.5438 8.4376 10.5984C8.44307 10.6477 8.39385 10.7625 8.32822 10.8445L8.21885 10.9922H4.88291V11.8672C8.40479 11.9 8.59619 11.9109 8.84229 12.0094C8.98994 12.0695 9.23057 12.2227 9.38369 12.3594C9.53135 12.4961 9.71729 12.7312 9.79932 12.8789L9.9415 13.1523L9.96885 22.9141H24.461V19.5234L13.9337 19.4961C13.447 19.2664 13.1899 19.0805 13.0532 18.9383C12.911 18.7906 12.7524 18.5445 12.6868 18.375C12.5665 18.0797 12.5665 18.0305 12.5501 14.5359L12.5392 10.9922C9.82119 10.9922 9.74463 10.9867 9.64072 10.8828C9.58057 10.8227 9.53135 10.7078 9.53135 10.6258C9.52588 10.5438 9.5751 10.4125 9.63525 10.3359L9.73916 10.1992L12.5392 10.1719V9.29688C5.94932 9.30781 3.9751 9.32422 3.89854 9.34609C3.82197 9.36797 3.67432 9.44453 3.57588 9.52109V9.52109ZM1.85322 12.9281C1.76025 12.9937 1.64541 13.1414 1.59072 13.2617C1.50322 13.4695 1.49229 13.8031 1.49229 18.6758C1.49229 23.7453 1.49775 23.8766 1.60166 24.1062C1.67275 24.2594 1.7876 24.3797 1.94072 24.4727L2.17588 24.6094L8.58525 24.582C8.8751 24.3633 9.00088 24.2102 9.0501 24.1008C9.14307 23.9148 9.14854 23.5375 9.14854 18.6758C9.14854 15.1102 9.13213 13.4094 9.08838 13.3055C9.05557 13.2234 8.979 13.0977 8.91338 13.0266C8.84775 12.9555 8.7165 12.857 8.629 12.8078C8.48135 12.7258 8.13682 12.7148 5.42979 12.7039C3.47744 12.6984 2.32354 12.7148 2.20322 12.7531C2.09932 12.7859 1.94072 12.8625 1.85322 12.9281V12.9281ZM25.2813 21.4812C25.2868 23.3625 25.2813 23.4391 25.172 23.5867L25.0626 23.7344H9.96885C9.96885 23.9477 9.91963 24.1391 9.85947 24.2977C9.79932 24.4562 9.7501 24.5875 9.7501 24.5984C9.7501 24.6039 10.1329 24.6148 10.5978 24.6258L11.4399 24.6367C11.9759 25.1617 12.222 25.3531 12.3313 25.4023C12.5063 25.4734 12.8728 25.4844 14.672 25.4844C16.4712 25.4844 16.8376 25.4734 17.0071 25.4023C17.122 25.3531 17.3681 25.1617 17.5595 24.9758L17.904 24.6367L26.1563 24.6094V19.5234H25.2813V21.4812ZM1.49775 26.0039C1.51416 26.5398 1.5251 26.5836 1.68369 26.775C1.77119 26.8898 1.92979 27.0266 2.03916 27.0813C2.2251 27.1797 2.60244 27.1852 14.672 27.1852C26.736 27.1852 27.1188 27.1797 27.3048 27.0813C27.4087 27.0266 27.5673 26.8898 27.6603 26.775C27.8134 26.5836 27.8243 26.5453 27.8353 26.0039L27.8517 25.4352H18.254C17.7837 25.8945 17.5267 26.0805 17.379 26.1516L17.1056 26.2828H12.2384C11.8118 26.0805 11.5548 25.8945 11.3907 25.7305L11.0899 25.4352H1.48135L1.49775 26.0039Z" fill="#247983"/>
<path fillRule="evenodd" clipRule="evenodd" d="M3.64798 13.6168C4.42454 13.6114 4.47923 13.6223 4.62688 13.7371C4.71438 13.8082 4.84563 13.9778 4.91126 14.12C5.0097 14.3114 5.08079 14.3934 5.19563 14.4153C5.27767 14.4371 5.40345 14.4317 5.48001 14.4043C5.56204 14.3715 5.66048 14.2621 5.73704 14.109C5.80267 13.9723 5.91751 13.8082 5.99407 13.7371C6.13079 13.6223 6.18548 13.6168 6.98392 13.6168C7.70032 13.6168 7.85345 13.6332 7.97376 13.7098C8.05579 13.7645 8.15423 13.8739 8.19251 13.9559C8.25267 14.0817 8.26907 14.6614 8.26907 19.8512L8.11595 19.9606C8.03392 20.0262 7.91907 20.0754 7.85892 20.0754C7.79876 20.0754 7.68938 20.0262 7.4761 19.8621L7.44876 14.4371H6.95657C6.55735 14.4371 6.46438 14.4536 6.46438 14.5192C6.46438 14.5629 6.34954 14.7215 6.20188 14.8637C6.01595 15.0551 5.87376 15.1481 5.67142 15.1973C5.50188 15.2465 5.30501 15.2575 5.15188 15.2356C5.01517 15.2137 4.80735 15.1426 4.68704 15.077C4.56126 15.0059 4.3972 14.8418 4.14017 14.4426L3.18313 14.4371V22.9137H7.44876L7.4597 22.1426C7.4761 21.3934 7.48157 21.3715 7.61282 21.2676C7.68938 21.2075 7.79876 21.1582 7.85892 21.1582C7.91907 21.1582 8.03392 21.2075 8.26907 21.3825V22.3121C8.26907 23.0286 8.25267 23.2801 8.18704 23.4059C8.14329 23.4934 8.03392 23.6082 7.94095 23.652C7.80423 23.7231 7.3886 23.734 2.80032 23.734L2.39017 23.3621L2.37376 18.7629C2.36282 14.7871 2.37376 14.1418 2.44485 13.9887C2.4886 13.8903 2.59251 13.7645 2.67454 13.7153C2.80032 13.6387 2.96985 13.6168 3.64798 13.6168V13.6168ZM6.17454 17.7184C6.28392 17.7184 6.39876 17.7621 6.46438 17.8278C6.53001 17.8934 6.57376 18.0082 6.57376 18.1121C6.57376 18.2707 6.48079 18.3801 5.9011 18.9598C5.29954 19.5614 5.21204 19.6325 5.04251 19.6325C4.87845 19.6325 4.79095 19.5723 4.45735 19.2332C4.16204 18.9379 4.05813 18.8012 4.05813 18.6864C4.05813 18.6043 4.11282 18.484 4.19485 18.402C4.26595 18.3254 4.39173 18.2653 4.46829 18.2653C4.55032 18.2653 4.69251 18.3473 5.04798 18.6754L5.52376 18.1942C5.92845 17.7895 6.02688 17.7184 6.17454 17.7184Z" fill="#247983"/>
<path fillRule="evenodd" clipRule="evenodd" d="M14.5616 8.47607H19.7296C23.7491 8.47607 24.9249 8.49248 25.0288 8.54717C25.1054 8.57998 25.1874 8.66748 25.2202 8.73857C25.253 8.81514 25.2749 10.3956 25.2749 13.1519C25.2749 16.4769 25.2585 17.4776 25.2038 17.5815C25.171 17.6581 25.078 17.7456 25.0015 17.7784C24.9194 17.8112 24.5093 17.8276 23.1312 17.8003L22.9999 17.6472C22.9288 17.5651 22.8687 17.4558 22.8687 17.4011C22.8632 17.3519 22.9124 17.2425 22.978 17.155C23.0874 17.0073 23.0874 17.0073 24.4546 17.0073V9.29639H15.103V17.0073H18.3296C21.4851 17.0073 21.5562 17.0073 21.6655 17.1167C21.7257 17.1769 21.7749 17.2917 21.7749 17.3737C21.7804 17.4612 21.7312 17.587 21.5671 17.8003H14.5069L14.2554 17.5487V8.73857L14.5616 8.47607ZM26.6858 11.9269C26.7679 11.9542 26.8608 12.0362 26.8991 12.1128C26.9483 12.2058 26.9702 12.5503 26.9702 13.1683C26.9702 14.005 26.9647 14.0979 26.8608 14.2347C26.7788 14.3495 26.7022 14.3823 26.5601 14.3823C26.4397 14.3823 26.3249 14.344 26.2593 14.2729C26.1554 14.1745 26.1499 14.0925 26.1499 13.1792C26.1499 12.6378 26.1663 12.1565 26.1882 12.1019C26.2101 12.0526 26.303 11.9815 26.3851 11.9487C26.4835 11.905 26.5929 11.8995 26.6858 11.9269ZM20.971 11.9214C21.053 11.9214 21.1788 11.9815 21.2554 12.0581C21.3374 12.1401 21.3921 12.2604 21.3921 12.3479C21.3866 12.4683 21.2062 12.6761 20.4733 13.4144C19.9702 13.9229 19.5108 14.3495 19.4507 14.3659C19.3905 14.3823 19.2647 14.355 19.1772 14.3112C19.0843 14.2675 18.8382 14.0487 18.6194 13.83C18.4062 13.6058 18.2038 13.3651 18.1655 13.2886C18.1108 13.1792 18.1163 13.119 18.171 12.9933C18.2147 12.9112 18.2913 12.8183 18.3405 12.7909C18.3952 12.7636 18.4991 12.7417 18.5757 12.7417C18.6687 12.7417 18.8218 12.8456 19.3741 13.3706L20.1015 12.6487C20.6702 12.08 20.8562 11.9214 20.971 11.9214V11.9214Z" fill="#247983"/>
</svg>
