<svg width="32" height="28" viewBox="0 0 32 28" fill="none" xmlns="http://www.w3.org/2000/svg">
<path fillRule="evenodd" clipRule="evenodd" d="M5.8911 0.0103489L6.06838 0.21223C6.17842 0.334583 6.24566 0.475288 6.24566 0.591523C6.24566 0.707758 6.17842 0.848463 5.8911 1.1727L2.71833 1.23387L2.47991 1.39905C2.35153 1.49081 2.17425 1.66822 1.93583 2.02305V10.9058L2.08866 11.1322C2.17425 11.2607 2.35153 11.4381 2.71833 11.695L12.6951 11.7317L13.0619 11.1934C13.2637 10.8997 13.6243 10.4531 13.8628 10.1962C14.1012 9.94537 14.4985 9.57831 14.7492 9.38866C14.9998 9.19902 15.3544 8.9482 15.5439 8.83808C15.7354 8.72796 15.9779 8.58929 16.2714 8.42208L15.7151 7.36985C15.4094 6.78867 15.1527 6.30538 15.1343 6.29926C15.1221 6.28703 14.8653 6.78256 14.5719 7.40044C14.144 8.28137 13.9972 8.5322 13.8689 8.59337C13.7772 8.63008 13.6488 8.66678 13.5815 8.66678C13.5143 8.66678 13.3859 8.62396 13.2942 8.57502C13.1658 8.50161 12.9091 8.07338 12.2366 6.78256C11.5825 5.51621 11.3563 5.03292 11.3502 4.86162C11.3502 4.70257 11.393 4.59245 11.503 4.48233C11.5886 4.39057 11.7415 4.30492 11.8393 4.28657C11.9432 4.2621 12.0899 4.28045 12.1755 4.32939C12.2611 4.37221 12.365 4.44563 12.4078 4.50068C12.4506 4.55574 12.6462 4.91668 12.8418 5.30209C13.0436 5.6875 13.2881 6.15856 13.5693 6.67856L14.0951 5.57739C14.5169 4.70257 14.6575 4.45174 14.8042 4.37221C14.9081 4.31104 15.0426 4.2621 15.1099 4.2621C15.1771 4.2621 15.3116 4.31104 15.4155 4.37221C15.5561 4.45174 15.7334 4.73927 16.1613 5.56515C16.4731 6.15856 16.7421 6.63573 16.7604 6.61126C16.7788 6.59291 16.9989 6.14632 17.2495 5.61409C17.5001 5.08798 17.7508 4.60468 17.7997 4.53127C17.8486 4.46398 17.9586 4.3661 18.0442 4.32327C18.1298 4.28045 18.2765 4.2621 18.3804 4.28657C18.4783 4.30492 18.6311 4.39057 18.7167 4.48233C18.8267 4.59245 18.8695 4.70257 18.8634 4.86162C18.8634 5.01456 18.6433 5.53456 18.1787 6.51338C17.7997 7.29032 17.494 7.93879 17.494 7.95102C17.494 7.95714 17.7202 7.91432 18.0014 7.84702C18.3804 7.76138 18.7778 7.73079 19.6153 7.72467C20.2328 7.72467 20.734 7.71244 20.734 7.70632C20.734 7.69408 20.4345 7.10067 20.0616 6.39103C19.5603 5.41833 19.3891 5.0268 19.3891 4.86162C19.3891 4.70664 19.436 4.57817 19.5297 4.47621C19.6031 4.38445 19.7559 4.30492 19.8782 4.28657C20.0249 4.26821 20.1472 4.29268 20.2755 4.37221C20.41 4.45786 20.5995 4.75762 21.0091 5.56515C21.3148 6.15856 21.5716 6.64797 21.5899 6.64185C21.6082 6.64185 21.8344 6.18303 22.1034 5.62021C22.4091 4.97174 22.6536 4.53127 22.7759 4.42115C22.9409 4.26821 22.9959 4.24986 23.2099 4.28045C23.3444 4.30492 23.4972 4.3661 23.5522 4.42727C23.6073 4.48845 23.9068 5.02068 24.7627 6.67856L25.2884 5.59574C25.6369 4.86162 25.863 4.46398 25.9792 4.38445C26.0709 4.31104 26.2054 4.25598 26.2849 4.2621C26.3582 4.2621 26.4805 4.29268 26.56 4.32939C26.6333 4.3661 26.7434 4.45786 26.7984 4.53127C26.8595 4.59857 26.9084 4.73927 26.9084 4.84327C26.9084 4.94727 26.7006 5.46115 26.4255 6.03621C26.1626 6.59291 25.7958 7.36985 25.6002 7.76749C25.3312 8.33032 25.2212 8.50161 25.0744 8.57502C24.9766 8.62396 24.8299 8.66678 24.7565 8.66678C24.6771 8.6729 24.5487 8.61784 24.4631 8.55667C24.3775 8.49549 24.0535 7.95714 23.1549 6.25032L22.7147 7.16797C22.4702 7.67573 22.2685 8.10396 22.2685 8.13455C22.2623 8.15902 22.299 8.17737 22.3418 8.17737C22.3785 8.17737 22.7208 8.3242 23.0876 8.50773C23.4605 8.68514 24.0046 9.00937 24.3042 9.22349C24.6037 9.43761 25.0683 9.84749 25.3434 10.135C25.6185 10.4225 26.0037 10.8997 26.5722 11.7317L28.2594 11.7134C29.9406 11.695 29.9467 11.695 30.1668 11.5421C30.2951 11.4564 30.4724 11.279 30.7292 10.912V2.01693L30.5641 1.77834C30.4724 1.64987 30.2951 1.47246 29.9406 1.23387L10.6961 1.1727L10.5188 0.976933C10.4088 0.848463 10.3415 0.707758 10.3415 0.591523C10.3415 0.475288 10.4088 0.334583 10.6961 0.0103489H30.0567L30.4235 0.163289C30.6253 0.242819 30.9126 0.407994 31.0654 0.530347C31.2182 0.652699 31.4139 0.860698 31.5117 0.995286C31.6034 1.12376 31.744 1.4174 31.9824 2.05975V6.42162C31.9824 10.5877 31.9824 10.7957 31.8662 11.175C31.799 11.3952 31.6523 11.7072 31.5422 11.8724C31.4322 12.0437 31.2182 12.2762 31.0654 12.3985C30.9126 12.5209 30.6253 12.6861 30.4235 12.7656C30.0751 12.9063 29.9773 12.9124 28.6079 12.9308C27.4953 12.943 27.1529 12.9675 27.1529 13.0286C27.1529 13.0654 27.208 13.2672 27.2691 13.4691C27.3363 13.671 27.4341 14.1543 27.4892 14.5397C27.5686 15.0536 27.587 15.4329 27.5564 15.9468C27.5381 16.3322 27.4831 16.8583 27.4341 17.1091C27.3791 17.3599 27.2997 17.7209 27.2446 17.9044C27.1896 18.0879 27.0612 18.4489 26.9512 18.6997C26.8473 18.9505 26.6639 19.3237 26.5538 19.5256C26.4377 19.7274 26.2176 20.07 26.0648 20.2903C25.912 20.5105 25.5268 20.951 24.6404 21.8503L27.0735 24.279C29.1031 26.2978 29.5432 26.7138 29.7205 26.7444C29.8367 26.7688 30.02 26.7688 30.1179 26.7444C30.2157 26.7199 30.3868 26.6159 30.4908 26.5058C30.6008 26.4018 30.7047 26.2305 30.7292 26.1326C30.7536 26.0347 30.7536 25.8512 30.7292 25.735C30.6986 25.5637 30.4602 25.2884 29.5616 24.3891C28.4856 23.3001 28.4428 23.2451 28.4428 23.0126C28.4428 22.8719 28.4856 22.7128 28.5468 22.6394C28.6018 22.566 28.7179 22.4743 28.8035 22.4314C28.8891 22.3886 29.0419 22.3764 29.1397 22.3947C29.2742 22.4192 29.6349 22.7434 30.4602 23.5754C31.0838 24.2117 31.6523 24.8234 31.7256 24.9397C31.7929 25.0559 31.8846 25.3251 31.9335 25.5331C32.0007 25.8573 32.0007 25.9797 31.9335 26.2978C31.8846 26.5119 31.799 26.7811 31.7379 26.8973C31.6767 27.0135 31.5117 27.2338 31.365 27.3806C31.2182 27.5274 30.9982 27.6926 30.882 27.7538C30.7659 27.8149 30.4969 27.9006 30.2829 27.9495C29.965 28.0168 29.8428 28.0168 29.5188 27.9495C29.3109 27.9006 29.0419 27.8088 28.9258 27.7415C28.8096 27.6681 27.5625 26.4691 23.6134 22.5232L23.106 22.774C22.8248 22.9147 22.3357 23.1105 22.0178 23.2145C21.6999 23.3185 21.1192 23.447 20.734 23.5081C20.2328 23.5815 19.8293 23.5999 19.328 23.5754C18.9429 23.5571 18.4049 23.4959 18.1359 23.4408C17.8669 23.3858 17.4268 23.2696 17.1578 23.1839C16.8888 23.0983 16.3814 22.8841 16.0268 22.6945C15.6723 22.511 15.171 22.2051 14.902 22.0154C14.6391 21.8258 14.199 21.4343 13.9239 21.1467C13.6488 20.8592 13.2698 20.3943 13.0803 20.1067C12.8908 19.8192 12.6279 19.3665 12.4934 19.0973C12.3589 18.8282 12.1816 18.3877 12.096 18.1185C12.0104 17.8493 11.8943 17.4089 11.8393 17.1397C11.7843 16.8705 11.7231 16.3322 11.7048 15.9468C11.6803 15.439 11.6987 15.0475 11.7781 14.5397C11.8332 14.1543 11.9493 13.6343 12.1755 12.9491L2.60829 12.9185L2.24149 12.7656C2.03976 12.6861 1.75243 12.5209 1.5996 12.3985C1.44677 12.2762 1.25115 12.0682 1.15334 11.9336C1.06164 11.8051 0.921033 11.5115 0.682617 10.8691V6.50726C0.682617 2.34116 0.682617 2.13316 0.798769 1.75387C0.866014 1.53364 1.01273 1.22164 1.12277 1.05646C1.23281 0.891287 1.43455 0.664934 1.56904 0.560935C1.70353 0.450818 1.90526 0.31623 2.0153 0.261171C2.11923 0.206113 2.35764 0.120466 2.53493 0.0715251C2.77946 0.00423124 3.19516 -0.0141216 5.8911 0.0103489V0.0103489ZM17.4329 9.2969C17.115 9.40702 16.6382 9.61502 16.3692 9.76796C16.1063 9.9209 15.6662 10.2207 15.3972 10.4409C15.1221 10.6611 14.737 11.0343 14.5291 11.279C14.3274 11.5237 14.0278 11.9458 13.8566 12.2272C13.6916 12.5025 13.4654 12.9675 13.3554 13.255C13.2514 13.5425 13.1169 13.9952 13.0619 14.2644C13.0069 14.5336 12.9458 15.0413 12.9274 15.3962C12.9091 15.8366 12.9274 16.2343 12.9947 16.6503C13.0497 16.9868 13.1842 17.5251 13.2942 17.8432C13.4043 18.1613 13.6121 18.6385 13.7649 18.9077C13.9178 19.1707 14.2173 19.6112 14.4374 19.8804C14.6575 20.1557 15.0304 20.5411 15.2749 20.7491C15.5194 20.951 15.9413 21.2507 16.2225 21.422C16.4976 21.5872 16.9622 21.8136 17.2495 21.9237C17.5368 22.0277 17.9892 22.1623 18.2582 22.2173C18.5272 22.2724 19.0346 22.3336 19.3891 22.3519C19.8293 22.3703 20.2266 22.3519 20.6423 22.2846C20.9786 22.2296 21.5165 22.095 21.8344 21.9848C22.1523 21.8747 22.6291 21.6667 22.8981 21.5138C23.161 21.3609 23.6011 21.0611 23.8701 20.8409C24.1452 20.6206 24.5304 20.2474 24.7382 20.0027C24.9399 19.758 25.2456 19.3359 25.4107 19.0545C25.5818 18.7792 25.8019 18.3143 25.912 18.0267C26.0159 17.7392 26.1504 17.2865 26.2054 17.0173C26.2604 16.7482 26.3215 16.2404 26.3399 15.8856C26.3582 15.4451 26.3399 15.0475 26.2726 14.6315C26.2176 14.295 26.0831 13.7566 25.9731 13.4385C25.863 13.1204 25.6552 12.6432 25.5024 12.3741C25.3495 12.111 25.05 11.6705 24.8299 11.4014C24.6098 11.1261 24.2369 10.7407 23.9924 10.5327C23.7479 10.3308 23.3261 10.0249 23.0448 9.85972C22.7697 9.68843 22.3051 9.46819 22.0178 9.35808C21.7305 9.25408 21.2781 9.11949 21.0091 9.06443C20.7402 9.00325 20.19 8.9482 19.7865 8.93596C19.3158 8.92373 18.8634 8.9482 18.5333 9.00937C18.246 9.05831 17.7508 9.18678 17.4329 9.2969V9.2969Z" fill="#247983"/>
</svg>
