<svg width="24" height="28" viewBox="0 0 24 28" fill="none" xmlns="http://www.w3.org/2000/svg">
<path fillRule="evenodd" clipRule="evenodd" d="M11.4816 0C11.9193 0 12.3624 0.0164255 12.4664 0.0438013C12.5703 0.0766523 12.8056 0.125929 12.9861 0.15878C13.1667 0.197106 13.5113 0.295659 13.7521 0.377786C13.9928 0.459914 14.3265 0.596793 14.4907 0.678921C14.6548 0.761048 14.9502 0.936253 15.1472 1.06766C15.3442 1.19359 15.6888 1.46187 15.9131 1.6535C16.1375 1.85061 16.4329 2.14079 16.5697 2.29957C16.7065 2.46382 16.8925 2.69378 16.9855 2.81424C17.0785 2.93469 17.2317 3.16465 17.3247 3.32343C17.4232 3.47673 17.5982 3.83809 17.7131 4.11185C17.8335 4.39108 17.9812 4.81815 18.0414 5.05905C18.1016 5.29996 18.1727 5.78178 18.2055 6.12671C18.2384 6.53735 18.2384 6.96989 18.2055 7.35862C18.1782 7.69261 18.118 8.11967 18.0688 8.31678C18.025 8.51388 17.9265 8.84787 17.8499 9.05592C17.7733 9.26398 17.6092 9.63629 17.4833 9.8772C17.3575 10.1181 17.1387 10.474 16.991 10.6711C16.8487 10.8682 16.5423 11.2186 16.3071 11.4595C16.0773 11.695 15.6998 12.0289 15.4755 12.1987C15.2511 12.3684 14.8682 12.6093 14.6274 12.7352C14.3867 12.8612 14.0202 13.0254 13.8068 13.1021C13.5934 13.1732 13.2542 13.2773 13.0408 13.3266C12.8275 13.3758 12.4007 13.4361 12.0834 13.458C11.7661 13.4853 11.2408 13.4853 10.9071 13.458C10.5734 13.4306 10.07 13.3539 9.78553 13.2773C9.50104 13.2061 9.05788 13.0528 8.80074 12.9433C8.5436 12.8283 8.10044 12.5819 7.81594 12.3903C7.53145 12.2041 7.08829 11.8483 6.83115 11.5964C6.57401 11.3445 6.25121 10.9887 6.10896 10.808C5.97219 10.6273 5.7424 10.2714 5.59468 10.0141C5.44696 9.75674 5.23359 9.28041 5.12417 8.94642C5.0038 8.60148 4.88344 8.07587 4.82873 7.71451C4.76855 7.27649 4.74666 6.89323 4.76855 6.45522C4.78496 6.11028 4.83967 5.62847 4.88891 5.38756C4.93815 5.14666 5.0421 4.76339 5.1187 4.53891C5.19529 4.31443 5.33207 3.98045 5.41961 3.79977C5.51262 3.61908 5.71505 3.27415 5.87371 3.03324C6.03237 2.79233 6.35516 2.38717 6.59042 2.13531C6.83115 1.88346 7.23054 1.51662 7.48768 1.32499C7.74482 1.13336 8.19892 0.854126 8.49983 0.700821C8.80074 0.547517 9.2056 0.377786 9.40256 0.31756C9.59952 0.262808 9.96608 0.164255 10.2232 0.109503C10.5515 0.0383262 10.9235 0.00547517 11.4816 0V0ZM9.89495 1.88346C9.73082 1.93821 9.40803 2.07509 9.18371 2.19007C8.9594 2.30504 8.57642 2.5569 8.3357 2.74853C8.09497 2.94016 7.72841 3.307 7.52597 3.55886C7.31807 3.81072 7.04452 4.23778 6.90774 4.51154C6.77644 4.78529 6.6123 5.20141 6.55212 5.44231C6.45911 5.79273 6.43176 6.05006 6.42629 6.7016C6.42629 7.30935 6.44817 7.62143 6.5193 7.90614C6.57401 8.1142 6.68343 8.46461 6.76002 8.67266C6.84209 8.88072 7.02811 9.24208 7.1813 9.46656C7.32902 9.69104 7.62445 10.0579 7.83783 10.2824C8.0512 10.5014 8.37399 10.7916 8.55454 10.9175C8.73508 11.0489 9.06335 11.246 9.28219 11.35C9.49557 11.4595 9.85666 11.5964 10.0755 11.6566C10.2889 11.7169 10.6937 11.788 10.9618 11.8154C11.2737 11.8483 11.6566 11.8483 12.0013 11.8154C12.3022 11.788 12.6961 11.7278 12.8767 11.6785C13.0572 11.6347 13.4293 11.4869 13.6974 11.3555C13.9654 11.2241 14.3484 10.9996 14.5454 10.8463C14.7423 10.6985 15.0487 10.4192 15.2293 10.2276C15.4098 10.036 15.656 9.72937 15.7709 9.54869C15.8913 9.36801 16.0663 9.04497 16.1648 8.83692C16.2633 8.62886 16.3782 8.30583 16.4274 8.12515C16.4712 7.94447 16.5369 7.5612 16.5642 7.27649C16.6025 6.94798 16.6025 6.56472 16.5697 6.23621C16.5423 5.95151 16.4821 5.57372 16.4329 5.40399C16.3891 5.22878 16.2852 4.93312 16.2086 4.74697C16.132 4.55534 15.935 4.20493 15.7764 3.96402C15.6177 3.72311 15.284 3.3289 15.0323 3.08799C14.7806 2.84709 14.425 2.55143 14.2445 2.43097C14.0639 2.316 13.7575 2.14626 13.5606 2.05866C13.3636 1.97106 13.0189 1.85061 12.7946 1.79585C12.5375 1.72468 12.1217 1.68088 11.6731 1.66445C11.208 1.64802 10.8305 1.66445 10.5788 1.71373C10.3709 1.75205 10.0591 1.82871 9.89495 1.88346V1.88346Z" fill="#247983"/>
<path fillRule="evenodd" clipRule="evenodd" d="M6.03627 13.5237C6.09645 13.5237 6.27153 13.551 6.41925 13.5894C6.59432 13.6332 7.04295 13.8796 7.65024 14.2628C8.17547 14.5968 8.69522 14.9144 8.79917 14.9691C8.90312 15.0239 9.2478 15.1607 9.56512 15.2757C9.88244 15.3852 10.3475 15.5166 10.6046 15.5659C10.8618 15.6152 11.3487 15.659 11.6988 15.659C12.1201 15.659 12.4867 15.6261 12.8204 15.5495C13.0885 15.4947 13.5481 15.3578 13.8326 15.2538C14.1171 15.1498 14.4508 15.0184 14.5712 14.9582C14.6915 14.8925 15.1347 14.6242 15.556 14.3559C15.9772 14.0821 16.4477 13.7974 16.5955 13.7262C16.7487 13.6496 16.9511 13.5729 17.0496 13.551C17.1426 13.5346 17.4763 13.5456 17.7827 13.5784C18.0945 13.6113 18.5541 13.6989 18.8113 13.7755C19.0684 13.8467 19.4623 14.0055 19.6866 14.1259C19.9109 14.2409 20.2666 14.4709 20.4745 14.6296C20.6824 14.783 20.9887 15.0731 21.1583 15.2702C21.3225 15.4674 21.5577 15.7849 21.6836 15.982C21.8149 16.1791 22.0009 16.5076 22.1103 16.7212C22.2143 16.9347 22.3839 17.3289 22.4878 17.5972C22.5972 17.8655 22.7559 18.3966 22.8489 18.7744C22.9419 19.1521 23.0732 19.7654 23.1334 20.1431C23.1936 20.5209 23.2702 21.1998 23.303 21.6488C23.3358 22.1033 23.3523 22.8533 23.3358 23.3187C23.3194 23.932 23.2757 24.2878 23.1936 24.6054C23.1279 24.8463 22.9857 25.2405 22.8653 25.4814C22.7504 25.7223 22.5261 26.0837 22.362 26.2918C22.1979 26.4943 21.8969 26.8009 21.6836 26.9707C21.4702 27.1404 21.0763 27.3813 20.8082 27.5127C20.5401 27.6386 20.0915 27.8029 19.331 28H4.01197L3.51957 27.8686C3.24602 27.8029 2.83022 27.6496 2.58949 27.5401C2.34876 27.4306 2.01502 27.239 1.85089 27.1185C1.68676 26.9926 1.37491 26.7133 1.16701 26.4889C0.893452 26.1932 0.712906 25.9359 0.526889 25.5636C0.384641 25.2788 0.23145 24.8956 0.182211 24.7149C0.138442 24.5342 0.07826 24.2167 0.0454335 24.0031C0.0180781 23.7896 -0.00927734 23.3516 -0.00927734 23.0176C-0.00927734 22.6836 0.0180781 22.0704 0.0454335 21.6488C0.07826 21.2272 0.154855 20.5593 0.215037 20.1705C0.28069 19.7818 0.411996 19.1357 0.510476 18.747C0.608955 18.3582 0.794972 17.7779 0.915336 17.4603C1.0357 17.1428 1.26549 16.6609 1.41868 16.3927C1.57187 16.1244 1.81259 15.7521 1.95484 15.5714C2.09162 15.3907 2.33782 15.1169 2.49101 14.9582C2.64967 14.7994 2.93417 14.5639 3.12018 14.438C3.31167 14.3121 3.63994 14.1314 3.84784 14.0329C4.05574 13.9343 4.41683 13.8029 4.64114 13.7427C4.86546 13.677 5.24843 13.6058 5.48916 13.5784C5.72989 13.5565 5.97609 13.5291 6.03627 13.5237V13.5237ZM4.84357 15.3962C4.65756 15.4619 4.36212 15.6042 4.18157 15.7083C4.0065 15.8123 3.72747 16.0477 3.55787 16.2284C3.38827 16.4091 3.15301 16.7157 3.0217 16.9128C2.89587 17.1099 2.73174 17.3946 2.65514 17.5424C2.57855 17.6957 2.41988 18.1119 2.29952 18.4732C2.17916 18.8346 2.01502 19.4533 1.9439 19.842C1.8673 20.2307 1.77977 20.7783 1.74694 21.0465C1.71411 21.3148 1.67582 21.9937 1.6594 22.5522C1.63205 23.3625 1.63752 23.6527 1.70864 24.0031C1.75788 24.244 1.87278 24.5999 1.97126 24.797C2.07521 25.016 2.27217 25.2788 2.4746 25.4814C2.66061 25.6621 2.95605 25.8921 3.1366 25.9851C3.31714 26.0782 3.62352 26.2042 3.82048 26.2589C4.15969 26.352 4.57002 26.3575 11.6715 26.3575C18.8003 26.3575 19.1833 26.352 19.5225 26.2534C19.7195 26.1987 20.0149 26.0892 20.179 26.0016C20.3432 25.9194 20.6386 25.7059 20.8246 25.5307C21.0763 25.3007 21.2295 25.0982 21.3608 24.8244C21.4647 24.6109 21.5851 24.2714 21.6289 24.0579C21.6726 23.8444 21.7109 23.4063 21.7109 23.0724C21.7109 22.7384 21.6836 22.1252 21.6562 21.7036C21.6234 21.282 21.5523 20.6414 21.4921 20.28C21.4319 19.9187 21.317 19.3766 21.2349 19.0755C21.1583 18.7744 21.0216 18.3418 20.934 18.1173C20.841 17.8928 20.7097 17.5808 20.6331 17.4329C20.5565 17.2851 20.376 16.9894 20.2337 16.7759C20.0915 16.5624 19.8179 16.2503 19.6264 16.0696C19.435 15.8944 19.1395 15.6809 18.9754 15.5988C18.8113 15.5166 18.5486 15.4071 18.4009 15.3578C18.2477 15.3086 17.9578 15.2483 17.7444 15.221C17.3888 15.1772 17.345 15.1826 17.1152 15.314C16.9784 15.3907 16.6119 15.6261 16.2946 15.8342C15.9772 16.0422 15.4739 16.327 15.173 16.4748C14.8721 16.6171 14.3578 16.8252 14.0241 16.9292C13.6903 17.0332 13.187 17.1592 12.9025 17.2085C12.607 17.2577 12.0763 17.2961 11.6715 17.2961C11.2666 17.2961 10.7359 17.2577 10.4405 17.2085C10.156 17.1592 9.63624 17.0278 9.29157 16.9128C8.94689 16.8033 8.47637 16.6226 8.25206 16.5186C8.02775 16.4146 7.4314 16.0696 6.92259 15.7466C6.41925 15.4235 5.9925 15.1662 5.96515 15.1662C5.94326 15.1717 5.76272 15.1936 5.55482 15.221C5.35239 15.2483 5.03506 15.325 4.84357 15.3962Z" fill="#247983"/>
</svg>
