<svg width="28" height="28" viewBox="0 0 28 28" fill="none" xmlns="http://www.w3.org/2000/svg">
<path fillRule="evenodd" clipRule="evenodd" d="M13.9719 0C14.0419 0 14.1526 0.0233332 14.2168 0.058333C14.2867 0.0933328 14.5024 0.466664 14.7472 0.979995C14.9687 1.45249 15.1611 1.84332 15.1669 1.84916C15.1727 1.85499 15.5866 1.92499 16.0821 2.01249C16.7991 2.13499 17.0148 2.19332 17.1197 2.29249C17.2013 2.37415 17.2479 2.49082 17.2479 2.60749C17.2479 2.77082 17.1488 2.89915 15.8781 4.20581L16.0355 5.1683C16.1579 5.8683 16.1812 6.15997 16.1404 6.2533C16.1054 6.32913 16.018 6.42246 15.9364 6.45746C15.8548 6.4983 15.744 6.5333 15.6857 6.5333C15.6332 6.5333 15.2252 6.33497 13.9836 5.6583L13.1792 6.0958C12.742 6.3408 12.3223 6.5333 12.2465 6.5333C12.1765 6.5333 12.0774 6.5158 12.025 6.48663C11.9725 6.4633 11.8909 6.3758 11.8501 6.28247C11.7802 6.14247 11.786 6.0083 12.0891 4.21748L11.4013 3.48248C10.9116 2.94582 10.7192 2.70082 10.7192 2.59582C10.7192 2.51415 10.7775 2.37999 10.8475 2.29832C10.9699 2.15832 11.069 2.12916 11.8851 2.00666C12.3806 1.93082 12.7944 1.86082 12.8003 1.84916C12.8061 1.84332 12.9985 1.45249 13.2316 0.979995C13.459 0.507497 13.6921 0.0991661 13.7446 0.0641663C13.7971 0.0291665 13.8961 0 13.9661 0L13.9719 0ZM13.4531 2.61332C13.354 2.70665 13.185 2.76498 12.7944 2.82915C12.503 2.87582 12.2407 2.91665 12.2115 2.91665C12.1765 2.91082 12.3572 3.12082 12.6021 3.38331C12.9227 3.70998 13.0567 3.89081 13.0567 3.99581C13.0567 4.07748 13.0159 4.34581 12.9693 4.59081C12.9227 4.84164 12.8819 5.08081 12.8819 5.11581C12.8819 5.16247 13.0801 5.08664 13.3599 4.92914C13.628 4.78914 13.902 4.66664 13.9719 4.66664C14.0477 4.66664 14.3159 4.77747 14.5665 4.91747C14.823 5.05164 15.0387 5.15081 15.0562 5.13331C15.0736 5.11581 15.0503 4.89414 15.0037 4.63747C14.9629 4.38081 14.9279 4.10664 14.9279 4.02498C14.9279 3.91998 15.0562 3.75081 15.3768 3.42998C15.6216 3.17915 15.814 2.96332 15.7965 2.95165C15.779 2.93415 15.5167 2.88165 15.2135 2.83498C14.9104 2.78248 14.619 2.70665 14.5723 2.65999C14.5257 2.61332 14.38 2.36249 14.2517 2.10582C14.1235 1.84332 14.0011 1.63332 13.9836 1.63332C13.9603 1.63332 13.8612 1.82582 13.7621 2.05332C13.663 2.28665 13.5231 2.53749 13.4531 2.61332V2.61332Z" fill="#3B7F87"/>
<path fillRule="evenodd" clipRule="evenodd" d="M9.51144 0.0113105C9.91949 -0.000356107 9.97195 0.0113105 10.2518 0.291309V2.3213C10.2576 4.24045 10.2518 4.35129 10.141 4.49129C10.0302 4.63712 10.0128 4.63712 9.03928 4.66629C8.1649 4.68962 8.025 4.70712 7.8851 4.81212C7.80349 4.87628 7.67525 5.00462 7.6053 5.09212C7.51203 5.22045 7.48288 5.34295 7.48288 5.59961C7.48288 5.85628 7.51203 5.97878 7.6053 6.10711C7.67525 6.19461 7.80349 6.32294 7.8851 6.38711C8.025 6.49211 8.1649 6.50961 9.03928 6.53294C10.0128 6.56211 10.0302 6.56211 10.141 6.70794C10.2459 6.84211 10.2576 6.95294 10.2518 9.33293H12.1171L12.1346 8.65043C12.1462 8.0671 12.1754 7.91543 12.292 7.6471C12.3794 7.46627 12.5543 7.2271 12.7117 7.08127C12.8691 6.94127 13.1139 6.76627 13.2654 6.69627C13.4753 6.59711 13.656 6.56794 13.9824 6.56794C14.2914 6.56794 14.4954 6.60294 14.6819 6.68461C14.8277 6.74877 15.0725 6.91794 15.2299 7.06377C15.3814 7.20377 15.5621 7.4196 15.7312 7.75794L16.0343 7.67044C16.2034 7.62377 16.5939 7.55377 16.897 7.51877C17.2351 7.47794 17.7131 7.46627 18.1212 7.4896C18.4884 7.5071 19.013 7.5771 19.287 7.63544C19.561 7.6996 19.9807 7.8221 20.2197 7.90377C20.4587 7.99127 20.8376 8.1546 21.0649 8.27127C21.2922 8.3821 21.6945 8.6271 21.9684 8.81376C22.2424 9.00043 22.6796 9.36793 22.9419 9.63626C23.2042 9.90459 23.4782 10.1963 23.5598 10.2954C23.6356 10.3946 23.8046 10.6279 23.9329 10.8204C24.0611 11.0129 24.2593 11.3571 24.3701 11.5787C24.4866 11.8004 24.6499 12.1854 24.7373 12.4246C24.8189 12.6637 24.9413 13.0837 25.0054 13.3579C25.0637 13.6321 25.1337 14.1804 25.1978 15.3121L26.5852 17.6337C27.4071 19.0045 27.9725 20.0079 27.9725 20.0954C27.9725 20.177 27.9084 20.3054 27.6869 20.5329H25.1745V21.8045C25.1745 22.6154 25.1453 23.152 25.1045 23.3037C25.0579 23.4437 24.918 23.6537 24.7373 23.8287C24.5624 24.0095 24.3526 24.1495 24.2127 24.1962C24.0553 24.2428 23.4141 24.2662 20.4528 24.2662L20.4237 24.4878C20.4062 24.6045 20.3129 25.3745 20.2138 26.1912C20.1147 27.0078 20.0098 27.7253 19.9807 27.7837C19.9515 27.8362 19.8758 27.9062 19.8116 27.9412C19.7417 27.9762 18.9373 27.9995 15.8478 27.9995V27.0662H19.1704L19.1996 26.8445C19.2171 26.7278 19.3103 25.9578 19.4094 25.1412C19.5085 24.3245 19.6134 23.607 19.6426 23.5487C19.6717 23.4962 19.7475 23.4262 19.8116 23.3912C19.8816 23.3562 20.7152 23.3329 23.9562 23.3329L24.2418 23.0412V19.8912L24.3875 19.7454C24.5274 19.5995 24.5333 19.5995 26.6901 19.5995L24.2418 15.5162V15.0029C24.2418 14.7229 24.201 14.2446 24.1544 13.9412C24.1136 13.6379 24.0028 13.1771 23.9212 12.9204C23.8338 12.6637 23.6356 12.2029 23.484 11.8996C23.3266 11.5962 23.0177 11.1237 22.802 10.8554C22.5863 10.5813 22.2366 10.2138 22.0267 10.0329C21.8169 9.85792 21.5138 9.61876 21.3564 9.50793C21.1932 9.39709 20.8026 9.18709 20.482 9.03543C20.1614 8.88376 19.7009 8.70876 19.4619 8.63876C19.2229 8.5746 18.7857 8.49293 18.5001 8.4521C18.1911 8.41126 17.7248 8.3996 17.3634 8.42293C17.0253 8.44043 16.5531 8.5046 15.8769 8.6621L15.8478 9.33293H19.287L19.6018 9.65376L19.561 10.3071C19.5377 10.6688 19.5085 11.0013 19.491 11.0363C19.4735 11.0829 19.6076 11.1996 19.8408 11.3279C20.0506 11.4504 20.3946 11.7129 20.6044 11.9112C20.8201 12.1154 21.0649 12.3837 21.1523 12.5121C21.2398 12.6404 21.3913 12.9029 21.4904 13.0954C21.5895 13.2879 21.7236 13.6554 21.7936 13.9121C21.8868 14.2446 21.9218 14.5479 21.9218 14.9621C21.9218 15.3821 21.8868 15.6796 21.7936 16.0121C21.7236 16.2687 21.5895 16.6362 21.4904 16.8287C21.3972 17.0212 21.2223 17.3071 21.1057 17.4645C20.9833 17.622 20.721 17.9079 20.5111 18.0945C20.3013 18.287 19.934 18.5437 19.695 18.6662C19.4561 18.7887 19.048 18.9462 18.7915 19.0162C18.4709 19.0979 18.1387 19.1329 17.7423 19.1329C17.3634 19.1329 17.0078 19.0979 16.7222 19.022C16.4832 18.9637 16.1159 18.8295 15.9061 18.7245C15.6962 18.6195 15.4048 18.4445 14.9734 18.1412L14.6353 18.3162C14.4546 18.4154 14.1223 18.5787 13.5103 18.8704L13.5161 19.232C13.5161 19.5412 13.5336 19.5995 13.6152 19.5995C13.6735 19.5995 13.825 19.6345 13.9533 19.6695C14.0932 19.7162 14.303 19.8562 14.4779 20.037C14.6586 20.212 14.7985 20.422 14.8452 20.562C14.8801 20.6904 14.9151 20.8887 14.9151 20.9995C14.9151 21.1104 14.8801 21.3087 14.8393 21.4312C14.8044 21.5595 14.6645 21.7812 14.5304 21.927C14.3749 22.1059 14.2001 22.2304 14.0058 22.3004C13.8484 22.3529 13.6735 22.3995 13.6152 22.3995C13.5394 22.3995 13.5161 22.452 13.5161 22.6329C13.5161 22.8137 13.5394 22.8662 13.6152 22.8662C13.6735 22.8662 13.825 22.9012 13.9533 22.9362C14.0932 22.9829 14.303 23.1229 14.4779 23.3037C14.6586 23.4787 14.7985 23.6887 14.8452 23.8287C14.8801 23.957 14.9151 24.1553 14.9151 24.2662C14.9151 24.377 14.8801 24.5753 14.8393 24.6978C14.8044 24.8262 14.6645 25.0478 14.5304 25.1937C14.3749 25.3726 14.2001 25.497 14.0058 25.567C13.8484 25.6195 13.6094 25.6662 13.4695 25.6662C13.2305 25.6662 13.2246 25.672 13.0614 25.9987C12.9623 26.2203 12.735 26.512 12.4086 26.8387C12.0238 27.2295 11.814 27.387 11.4759 27.5562C11.2369 27.6728 10.8288 27.8187 10.5724 27.8828C10.3159 27.947 9.96029 27.9995 9.78542 27.9995C9.61054 27.9995 9.25496 27.947 8.99847 27.8828C8.74199 27.8187 8.33395 27.6728 8.09495 27.5562C7.75686 27.387 7.54701 27.2295 7.16228 26.8387C6.83584 26.512 6.6085 26.2203 6.50358 25.9987C6.34619 25.672 6.34036 25.6662 6.09554 25.6662C5.96146 25.6662 5.74578 25.6312 5.61754 25.5962C5.47764 25.5495 5.26779 25.4095 5.09291 25.2287C4.91221 25.0537 4.77231 24.8437 4.72567 24.7037C4.6907 24.5753 4.65572 24.377 4.65572 24.2662C4.65572 24.1553 4.6907 23.957 4.72567 23.8287C4.77231 23.6887 4.91221 23.4787 5.09291 23.3037C5.26779 23.1229 5.47764 22.9829 5.61754 22.9362C5.74578 22.9012 5.89734 22.8662 5.94981 22.8662C6.03141 22.8662 6.05473 22.8137 6.05473 22.6329C6.05473 22.452 6.03141 22.3995 5.94981 22.3995C5.89734 22.3995 5.74578 22.3645 5.61754 22.3295C5.47764 22.2829 5.26779 22.1429 5.09291 21.962C4.91221 21.787 4.77231 21.577 4.72567 21.437C4.6907 21.3087 4.65572 21.1104 4.65572 20.9995C4.65572 20.8887 4.6907 20.6904 4.72567 20.562C4.77231 20.422 4.91221 20.212 5.09291 20.037C5.26779 19.8562 5.47764 19.7162 5.61754 19.6695C5.74578 19.6345 5.89734 19.5995 5.94981 19.5995C6.03724 19.5995 6.05473 19.5412 6.05473 18.8412L5.80408 18.7479C5.67 18.7012 5.30859 18.5204 5.00548 18.3454C4.70236 18.1762 4.23602 17.8787 3.96788 17.6804C3.70557 17.482 3.27421 17.1204 3.01772 16.8696C2.75541 16.6246 2.37068 16.2104 2.16666 15.9537C1.96264 15.6971 1.64203 15.2479 1.46715 14.9621C1.28645 14.6762 1.04162 14.2271 0.919211 13.9704C0.802627 13.7137 0.621922 13.2646 0.522825 12.9787C0.4179 12.6929 0.266341 12.1271 0.178903 11.7246C0.0448313 11.0713 0.0273438 10.8729 0.0273438 9.79959C0.0273438 8.72626 0.0448313 8.52793 0.178903 7.8746C0.266341 7.4721 0.4179 6.90627 0.516996 6.62044C0.616092 6.32878 0.855089 5.78045 1.04745 5.39545C1.23982 5.01045 1.56042 4.45629 1.77027 4.17045C1.97429 3.87879 2.3357 3.43546 2.56887 3.18463C2.80204 2.92796 3.1926 2.5488 3.43159 2.34463C3.67059 2.14047 4.10195 1.8138 4.39341 1.6213C4.67904 1.43464 5.18035 1.1488 5.50096 0.991305C5.82156 0.833806 6.35785 0.612141 6.69594 0.501308C7.03404 0.390475 7.59364 0.244643 7.94922 0.180476C8.3048 0.11631 8.69536 0.0521436 8.8236 0.040477C8.95184 0.0288104 9.26079 0.0171438 9.50562 0.0113105H9.51144ZM8.04249 1.11964C7.70439 1.1838 7.23223 1.30047 6.99323 1.38214C6.75423 1.45797 6.30539 1.64464 6.00227 1.78463C5.69915 1.93047 5.18618 2.22213 4.86558 2.43213C4.46919 2.69463 4.04366 3.05629 3.54818 3.55212C3.05853 4.04212 2.69323 4.47184 2.45229 4.84128C2.2541 5.14462 1.97429 5.62878 1.83439 5.92044C1.69449 6.20628 1.50213 6.68461 1.40303 6.97044C1.30977 7.25627 1.18735 7.70544 1.13489 7.9621C1.08243 8.21877 1.02414 8.63293 1.00082 8.87793L0.960015 9.33293C3.77552 9.32709 3.88627 9.33293 4.02034 9.44376C4.16607 9.55459 4.16607 9.57209 4.19522 10.5463C4.22436 11.4446 4.23602 11.5554 4.34678 11.7071C4.41673 11.7946 4.54497 11.9229 4.62658 11.9871C4.74316 12.0746 4.87723 12.1037 5.12789 12.1037C5.37854 12.1037 5.51262 12.0746 5.6292 11.9871C5.71081 11.9229 5.83905 11.7946 5.909 11.7071C6.01976 11.5554 6.03141 11.4446 6.06056 10.5463C6.08971 9.57209 6.08971 9.55459 6.23544 9.44376C6.36951 9.33293 6.48026 9.32709 7.85012 9.33293H9.32491V7.46627C7.92007 7.43127 7.8851 7.42544 7.52369 7.23294C7.31967 7.12211 7.07484 6.93544 6.98157 6.82461C6.89414 6.71377 6.76006 6.50378 6.69011 6.35794C6.59102 6.15378 6.56187 5.98461 6.56187 5.59961C6.55604 5.18545 6.58519 5.05712 6.70177 4.81212C6.77755 4.64879 6.95243 4.41545 7.08067 4.28712C7.20891 4.15879 7.44208 3.98962 7.6053 3.91379C7.85595 3.79129 8.00168 3.76796 8.60792 3.75046L9.32491 3.73296V0.932972C9.07425 0.944639 8.9227 0.962139 8.82943 0.979639C8.73033 0.997138 8.38058 1.0613 8.04249 1.11964V1.11964ZM13.2829 7.75794C13.2246 7.8396 13.1547 7.97377 13.1197 8.06127C13.0847 8.1546 13.0556 8.61543 13.0556 9.09959C13.0556 9.95126 13.0498 9.98042 12.9099 10.1204L12.77 10.2663H10.2576V12.1329C11.5575 12.1679 11.7324 12.1912 11.948 12.2962C12.0938 12.3662 12.3036 12.5004 12.4144 12.5879C12.5251 12.6812 12.7117 12.9262 12.8224 13.1304C13.009 13.4746 13.0264 13.5446 13.0264 13.9996C13.0264 14.4546 13.009 14.5246 12.8224 14.8687C12.7117 15.0729 12.5368 15.3062 12.4435 15.3879C12.3444 15.4637 12.1346 15.5979 11.9772 15.6796C11.7207 15.8137 11.6041 15.8312 10.9687 15.8487L10.2576 15.8662V19.5995H12.5893C12.5893 18.5962 12.6126 18.3687 12.665 18.287C12.7117 18.2229 12.9682 18.077 13.2363 17.9662C13.5044 17.8554 13.9883 17.6045 14.3089 17.412C14.6295 17.2195 15.0667 16.9279 15.2707 16.7646C15.4805 16.6012 15.9002 16.2046 16.2034 15.8896C16.5065 15.5687 16.9262 15.0612 17.1302 14.7579C17.3342 14.4546 17.6257 13.9412 17.7772 13.6204C17.9346 13.2996 18.1387 12.7862 18.2319 12.4829C18.331 12.1796 18.4476 11.7071 18.5001 11.4329C18.5467 11.1588 18.605 10.7854 18.6225 10.5988L18.6516 10.2663C15.3406 10.2721 15.2357 10.2663 15.0958 10.1554C14.9501 10.0446 14.9501 10.0271 14.9209 9.05293C14.8918 8.1546 14.8801 8.04377 14.7694 7.8921C14.6994 7.8046 14.5828 7.6821 14.5071 7.62377C14.4313 7.56544 14.2331 7.50127 14.0757 7.4896C13.9125 7.47794 13.6968 7.49544 13.5802 7.5421C13.4695 7.58294 13.3354 7.6821 13.2829 7.75794V7.75794ZM0.960015 10.6279C0.977503 10.8321 1.04745 11.2462 1.10574 11.5496C1.16987 11.8529 1.3156 12.3779 1.43218 12.7162C1.54876 13.0546 1.74113 13.5271 1.86354 13.7662C1.98595 14.0054 2.24827 14.4546 2.45229 14.7579C2.65631 15.0612 3.07601 15.5687 3.37913 15.8896C3.68225 16.2046 4.10195 16.6012 4.3118 16.7646C4.51582 16.9279 4.95301 17.2195 5.27362 17.412C5.59422 17.6045 6.07805 17.8554 6.34619 17.9662C6.61433 18.077 6.87082 18.2229 6.91745 18.287C6.96991 18.3687 6.99323 18.5962 6.99323 18.9987V19.5995H9.32491C9.31908 15.3587 9.32491 15.2479 9.43566 15.1079C9.54642 14.9621 9.56391 14.9621 10.5374 14.9329C11.4351 14.9037 11.5458 14.8921 11.6974 14.7812C11.7848 14.7112 11.9131 14.5829 11.9772 14.5012C12.0646 14.3846 12.0938 14.2504 12.0938 13.9996C12.0938 13.7487 12.0646 13.6146 11.9772 13.4979C11.9131 13.4162 11.7848 13.2879 11.6974 13.2179C11.5458 13.1071 11.4351 13.0954 10.5374 13.0662C9.56391 13.0371 9.54642 13.0371 9.43566 12.8912C9.33074 12.7571 9.31908 12.6462 9.32491 11.5029V10.2663H6.99323C6.95826 11.6137 6.94077 11.7304 6.8067 11.9871C6.72509 12.1446 6.59102 12.3546 6.51524 12.4537C6.43363 12.5471 6.20046 12.7221 5.99644 12.8329C5.65252 13.0196 5.58257 13.0371 5.12789 13.0371C4.67321 13.0371 4.60326 13.0196 4.25934 12.8329C4.05532 12.7221 3.81049 12.5354 3.71722 12.4246C3.62979 12.3137 3.49571 12.1037 3.42576 11.9579C3.32084 11.7421 3.29752 11.5671 3.28003 10.9779L3.26255 10.2663H0.919211L0.960015 10.6279ZM19.048 12.9729C19.5085 13.4512 19.7067 13.7254 19.7883 13.8946C19.8699 14.0637 19.9632 14.3554 20.004 14.5479C20.0565 14.8221 20.0565 14.9854 20.004 15.2771C19.9632 15.4871 19.8699 15.7962 19.7883 15.9654C19.7067 16.1346 19.5143 16.4029 19.3511 16.5604C19.1879 16.7296 18.8906 16.9337 18.6691 17.0446C18.3077 17.2196 18.2261 17.2312 17.719 17.2312C17.241 17.2312 17.1185 17.2137 16.8446 17.0796L16.524 16.9279C15.9819 17.3712 15.8186 17.517 15.807 17.5404C15.7953 17.5637 15.9702 17.6804 16.1859 17.797C16.4074 17.9195 16.7396 18.0537 16.932 18.1062C17.1244 18.1587 17.4916 18.1995 17.7481 18.1995C18.0046 18.1995 18.3718 18.1587 18.5642 18.1062C18.7565 18.0537 19.083 17.9254 19.2928 17.8145C19.5027 17.7037 19.8233 17.4645 20.0157 17.2779C20.2022 17.0971 20.4412 16.7996 20.5461 16.6187C20.651 16.4437 20.7968 16.1054 20.8725 15.8604C20.9833 15.4871 20.995 15.3354 20.9716 14.7812C20.9483 14.2621 20.9133 14.0754 20.7851 13.7604C20.6977 13.5562 20.517 13.2237 20.3771 13.0312C20.243 12.8387 20.0157 12.5879 19.8699 12.4712C19.73 12.3604 19.5493 12.2204 19.4677 12.1679L19.3161 12.0687L19.048 12.9729ZM17.9346 15.1896C17.8064 15.3821 17.5907 15.6912 17.4508 15.8779L17.2002 16.2104C17.4217 16.3037 17.5907 16.3271 17.7073 16.3271C17.8297 16.3271 18.0337 16.2921 18.162 16.2571C18.3019 16.2104 18.5059 16.0704 18.6866 15.8896C18.8673 15.7146 19.0072 15.5104 19.048 15.3646C19.0888 15.2362 19.118 15.0262 19.118 14.8979C19.118 14.7696 19.0597 14.5362 18.9839 14.3729C18.9081 14.2154 18.809 14.0462 18.7624 14.0054C18.6866 13.9412 18.64 13.9937 18.4185 14.3846C18.2844 14.6354 18.0629 14.9971 17.9346 15.1896V15.1896ZM5.74578 20.6729C5.65835 20.7545 5.60005 20.8829 5.60005 20.9937C5.60005 21.1045 5.65252 21.2212 5.74578 21.3145L5.89151 21.4604H13.7085C13.9358 21.227 13.9941 21.0987 13.9941 20.9937C13.9941 20.8829 13.9358 20.7662 13.8484 20.6729L13.7026 20.527H5.88568L5.74578 20.6729ZM6.99906 22.8662H12.5951V22.3995H6.99906V22.8662ZM5.74578 23.9395C5.65835 24.027 5.60005 24.1553 5.60005 24.2603C5.60005 24.377 5.65252 24.4878 5.74578 24.587L5.89151 24.7328H13.7085C13.9358 24.4937 13.9941 24.3712 13.9941 24.2662C13.9941 24.1553 13.9358 24.0328 13.8484 23.9453L13.7026 23.7995H5.88568L5.74578 23.9395ZM7.7452 26.1445C7.93756 26.3428 8.24068 26.5878 8.43304 26.6928C8.61958 26.792 8.93435 26.9203 9.12672 26.967C9.31908 27.0195 9.6222 27.0603 9.79707 27.0603C9.97195 27.0603 10.2751 27.0195 10.4674 26.967C10.6598 26.9203 10.9687 26.792 11.1611 26.6928C11.3535 26.5878 11.6566 26.3428 11.8431 26.1445C12.0297 25.9403 12.187 25.7537 12.187 25.7187C12.187 25.6837 11.3535 25.6603 9.79707 25.6603C8.24068 25.6603 7.4071 25.6837 7.4071 25.7187C7.4071 25.7537 7.55866 25.9403 7.7452 26.1445V26.1445Z" fill="#3B7F87"/>
<path d="M13.981 28V27.5333V27.0666H14.9136V28H13.981Z" fill="#3B7F87"/>
</svg>
