<svg width="28" height="28" viewBox="0 0 28 28" fill="none" xmlns="http://www.w3.org/2000/svg">
<path fillRule="evenodd" clipRule="evenodd" d="M26.747 0L26.9548 0.114844C27.0642 0.175 27.2283 0.295312 27.3103 0.371874C27.3923 0.453905 27.5072 0.623436 27.5673 0.749217C27.6658 0.967967 27.6767 1.10469 27.6767 2.52656C27.6767 3.96484 27.6658 4.09062 27.5619 4.3203C27.5017 4.45702 27.3978 4.62655 27.3322 4.69218C27.2666 4.76327 27.1134 4.87812 26.7744 5.05858H1.8916L1.67285 4.93827C1.55254 4.87812 1.39941 4.76327 1.33379 4.69218C1.26816 4.62655 1.16426 4.45702 1.1041 4.3203C1.0002 4.09062 0.989258 3.96484 0.989258 2.57031C0.989258 1.53125 1.01113 1.00078 1.06035 0.853124C1.09316 0.732811 1.21348 0.541405 1.31738 0.43203C1.42129 0.317187 1.59629 0.175 1.70019 0.114844C1.8916 0.0109375 2.06113 0.00546874 26.747 0V0ZM1.81504 1.08828L1.80957 3.99218L2.08301 4.26562H26.5884L26.8564 3.99218V1.09375L26.583 0.820311H2.07754L1.81504 1.08828Z" fill="#4D848A"/>
<path d="M24.831 2.53258C24.831 2.42321 24.8748 2.30836 24.9404 2.24274C25.006 2.17711 25.1209 2.13336 25.2412 2.13336C25.3615 2.13336 25.4763 2.17711 25.542 2.24274C25.6076 2.30836 25.6513 2.42321 25.6513 2.54352C25.6513 2.69118 25.613 2.76227 25.5037 2.8443C25.4162 2.90993 25.3068 2.95914 25.2576 2.95368C25.2029 2.95368 25.1045 2.92633 25.0388 2.89352C24.9677 2.85524 24.8966 2.80055 24.8748 2.76774C24.8529 2.73493 24.831 2.62555 24.831 2.53258Z" fill="#4D848A"/>
<path d="M23.2888 2.55993C23.2834 2.43961 23.3162 2.34665 23.4091 2.25915C23.4912 2.17711 23.6005 2.13336 23.7209 2.13336C23.8466 2.13336 23.9451 2.17711 24.049 2.28102C24.1638 2.4068 24.1857 2.46696 24.1529 2.59821C24.1365 2.68571 24.0654 2.80602 23.9943 2.86071C23.9287 2.91539 23.8138 2.95914 23.7373 2.95914C23.6607 2.95914 23.5349 2.90993 23.4529 2.8443C23.349 2.76774 23.2943 2.68024 23.2888 2.55993Z" fill="#4D848A"/>
<path d="M21.7685 2.54352C21.774 2.46696 21.8341 2.34118 21.9052 2.27008C21.9818 2.18805 22.1021 2.13336 22.1896 2.13336C22.2716 2.1279 22.4084 2.17711 22.4904 2.24274C22.5998 2.3193 22.6435 2.40133 22.6435 2.51618C22.6435 2.61461 22.5943 2.73493 22.5068 2.81696C22.4248 2.90446 22.3154 2.95368 22.206 2.95368C22.1021 2.95368 21.9927 2.90446 21.9052 2.81696C21.8287 2.7404 21.7685 2.62008 21.7685 2.54352Z" fill="#4D848A"/>
<path d="M3.01074 2.54352C3.01074 2.42321 3.05449 2.30836 3.12012 2.24274C3.21855 2.1443 3.30059 2.13336 3.94043 2.13336C4.58027 2.13336 4.6623 2.1443 4.76074 2.24274C4.82636 2.30836 4.87011 2.42321 4.87011 2.54352C4.87011 2.69118 4.83183 2.76227 4.72246 2.8443C4.59121 2.94274 4.4873 2.95914 3.94043 2.95914C3.39355 2.95914 3.28965 2.94274 3.16387 2.8443C3.04902 2.76227 3.01074 2.69118 3.01074 2.54352Z" fill="#4D848A"/>
<path fillRule="evenodd" clipRule="evenodd" d="M6.70361 8.04482C6.79658 8.03935 6.99345 8.07216 7.14111 8.11591C7.29423 8.16513 7.52392 8.29091 7.65517 8.40575C7.79189 8.5206 7.95595 8.73388 8.02705 8.887C8.11455 9.08388 8.15283 9.25888 8.15283 9.51591C8.15283 9.75653 8.11455 9.94794 8.04345 10.1065C7.9833 10.2323 7.83017 10.4347 7.69892 10.555C7.5622 10.6917 7.35986 10.812 7.1958 10.8667C7.02627 10.9214 6.80752 10.9432 6.62158 10.9268C6.45752 10.9159 6.22236 10.8557 6.10205 10.7956C5.98174 10.7409 5.80127 10.6042 5.69736 10.5003C5.59346 10.3964 5.46221 10.2104 5.40752 10.0901C5.34736 9.95341 5.30908 9.74013 5.30908 9.51591C5.30908 9.25888 5.34736 9.08388 5.43486 8.887C5.50596 8.73388 5.67002 8.5206 5.80674 8.40575C5.93799 8.29091 6.15674 8.16513 6.29346 8.12138C6.43017 8.0831 6.61064 8.04482 6.70361 8.04482V8.04482ZM6.21689 9.13856C6.16767 9.20966 6.12939 9.37372 6.12939 9.50497C6.12939 9.69638 6.16221 9.76747 6.3208 9.92606C6.47939 10.0847 6.55049 10.1175 6.73642 10.1175C6.92236 10.1175 6.99345 10.0847 7.14658 9.92606C7.2997 9.76747 7.33252 9.69091 7.33252 9.50497C7.33252 9.36825 7.29423 9.21513 7.23955 9.13856C7.18486 9.062 7.05908 8.96903 6.96611 8.93075C6.86767 8.89247 6.75283 8.85966 6.72002 8.85966C6.68174 8.86513 6.57236 8.89794 6.47939 8.93622C6.38096 8.97997 6.26611 9.07294 6.21689 9.13856V9.13856Z" fill="#4D848A"/>
<path d="M20.6499 8.04422C20.6937 7.95672 20.7647 7.87468 20.803 7.85828C20.8358 7.84187 21.9022 7.82547 23.1655 7.82C25.3968 7.81453 25.4679 7.82 25.61 7.92937C25.7632 8.03875 25.7632 8.04968 25.7632 8.64031C25.7632 9.23093 25.7632 9.24187 25.61 9.35124C25.528 9.41687 25.4132 9.46609 25.353 9.46609C25.2929 9.46609 25.1835 9.42234 25.1124 9.36765C25.0085 9.29109 24.9811 9.20906 24.9429 8.64031H23.5757V12.195H23.8491C24.0679 12.195 24.1499 12.2223 24.2593 12.3317C24.3358 12.4083 24.396 12.5067 24.396 12.5505C24.396 12.5942 24.3686 12.6872 24.3413 12.7583C24.3085 12.8239 24.2265 12.9114 24.1499 12.9497C24.0569 12.9934 23.7288 13.0153 23.1382 13.0153C22.2796 13.0153 22.2632 13.0153 22.1265 12.8786C22.0444 12.7966 21.9897 12.6817 21.9897 12.5942C21.9897 12.5067 22.0444 12.3864 22.1155 12.3153C22.2085 12.2223 22.296 12.195 22.7554 12.195V8.64031H21.3882V8.94109C21.3882 9.20359 21.3718 9.25281 21.2351 9.35124C21.153 9.41687 21.0437 9.46609 20.989 9.46062C20.9397 9.46062 20.8577 9.44421 20.8085 9.42234C20.7593 9.39499 20.6827 9.31296 20.6444 9.23093C20.6007 9.13796 20.5679 8.89734 20.5679 8.64031C20.5679 8.35593 20.5952 8.14812 20.6499 8.04422Z" fill="#4D848A"/>
<path fillRule="evenodd" clipRule="evenodd" d="M3.96972 5.91179C5.81269 5.90086 5.88925 5.90632 6.03691 6.0157C6.14628 6.09773 6.18456 6.17429 6.18456 6.30554C6.18456 6.39851 6.15175 6.52976 6.108 6.58992C6.03144 6.69382 5.94941 6.69929 2.01738 6.75398L1.91347 6.8907C1.80957 7.02195 1.8041 7.13679 1.8041 13.4258L2.60254 12.6493C3.32988 11.9274 3.42285 11.8618 3.70722 11.7798C3.97519 11.7032 4.06816 11.6977 4.32519 11.7579C4.61503 11.8235 4.66425 11.8618 6.70409 13.8907L9.11034 11.479C10.6471 9.94225 11.615 9.01257 11.79 8.90866C12.0033 8.78288 12.1291 8.75007 12.3752 8.75007C12.5502 8.75007 12.7853 8.78835 12.8947 8.8321C13.0369 8.89226 13.6822 9.49929 14.9072 10.7243C15.897 11.7141 16.7283 12.5071 16.7556 12.4852C16.7775 12.4633 16.7939 11.2438 16.7939 9.77819C16.7939 7.75476 16.7775 7.07663 16.7228 6.97273C16.69 6.89617 16.6025 6.81414 16.5314 6.78132C16.4549 6.74851 14.8306 6.72664 11.9814 6.72664C7.62284 6.72664 7.55175 6.72664 7.44237 6.61726C7.37675 6.55164 7.333 6.43679 7.333 6.31648C7.333 6.16882 7.37128 6.09773 7.48612 6.01023C7.63378 5.90086 7.66659 5.90086 16.7228 5.93367L16.9853 6.09773C17.1549 6.20164 17.3189 6.3657 17.5869 6.79773L17.6142 15.8594H22.0603C25.5603 15.8594 26.5556 15.8758 26.747 15.9305C26.8837 15.9688 27.0751 16.0563 27.1681 16.1219C27.2666 16.1876 27.4197 16.3735 27.6767 16.8165V21.875C27.6767 25.7305 27.6603 26.9829 27.6056 27.1469C27.5728 27.2618 27.4634 27.4477 27.3705 27.5571C27.2775 27.6664 27.097 27.8086 26.747 28H11.9814L11.7736 27.8797C11.6642 27.8141 11.5111 27.7102 11.4455 27.65C11.3744 27.5844 11.2596 27.4368 11.1994 27.3164C11.0846 27.1086 11.0791 27.0157 11.0627 25.5118C11.0463 23.9805 11.0463 23.9204 11.1556 23.7782C11.2377 23.6633 11.3197 23.625 11.4455 23.625C11.5439 23.625 11.6752 23.6579 11.7353 23.7016C11.8392 23.7782 11.8447 23.8602 11.8994 26.9719L12.0361 27.0758C12.1728 27.1797 12.315 27.1852 26.5884 27.1797L26.8564 26.9063V21.9461C26.8509 18.129 26.84 16.9586 26.7853 16.893C26.747 16.8438 26.665 16.7782 26.5939 16.7454C26.5064 16.6961 25.3033 16.6797 17.6142 16.6797L17.5759 16.9696C17.5541 17.1501 17.483 17.3415 17.3736 17.5001C17.2806 17.6368 17.0947 17.8063 16.7119 18.0196L11.8721 18.0469V20.1524C11.8721 22.1868 11.8666 22.2633 11.7627 22.3672C11.6971 22.4329 11.5822 22.4766 11.4619 22.4766C11.3142 22.4766 11.2431 22.4383 11.1611 22.329C11.0517 22.1813 11.0463 22.1047 11.0517 18.0469L6.46894 18.036C1.90254 18.0196 1.8916 18.0196 1.67285 17.8993C1.55254 17.8391 1.40488 17.7243 1.33926 17.6532C1.2791 17.5876 1.17519 17.4344 0.989258 17.1172V12.0204C0.989258 7.00554 0.994727 6.91257 1.1041 6.67195C1.16426 6.53523 1.26816 6.3657 1.33379 6.30007C1.39941 6.22898 1.52519 6.13054 1.60723 6.08679C1.68926 6.03757 1.82598 5.98289 1.90801 5.95554C1.99004 5.93367 2.91425 5.91179 3.96972 5.91179V5.91179ZM6.8955 14.7383C6.79159 14.7602 6.62753 14.7547 6.54003 14.7383C6.42519 14.711 6.05331 14.3774 5.30956 13.6446C4.55488 12.8954 4.19394 12.5727 4.0791 12.5508C3.92597 12.518 3.86035 12.5673 2.85957 13.5735L1.80957 14.629V16.9532L2.08301 17.2266C13.9283 17.2266 16.4549 17.2102 16.5314 17.1719C16.6025 17.1391 16.69 17.0571 16.7228 16.9805C16.7775 16.8821 16.7939 16.4227 16.7939 15.3016V13.754C12.747 9.7071 12.5994 9.57038 12.4189 9.57038C12.2385 9.57038 12.0689 9.72897 9.65721 12.1352C7.50253 14.2844 7.05409 14.7055 6.8955 14.7383Z" fill="#4D848A"/>
<path d="M19.1494 6.22387C19.2807 6.10902 19.4776 5.99418 19.5815 5.96683C19.6908 5.93949 21.3041 5.91762 23.2729 5.92308L23.2804 5.92311C26.7456 5.93402 26.773 5.93411 26.9916 6.05433C27.1119 6.11449 27.265 6.22933 27.3307 6.30043C27.3963 6.36605 27.5002 6.53558 27.5604 6.6723C27.6697 6.91293 27.6752 7.01136 27.6752 13.9731L27.5111 14.2629C27.4182 14.416 27.2541 14.6074 27.1447 14.684C27.0299 14.7551 26.8002 14.8426 26.6361 14.8754C26.4393 14.9137 25.1541 14.9301 22.9994 14.9192C19.9205 14.9028 19.6471 14.8973 19.4447 14.8043C19.3244 14.7496 19.1549 14.6403 19.0674 14.5582C18.9799 14.4762 18.8651 14.3121 18.8104 14.1918C18.7229 13.9949 18.7065 13.8145 18.7065 12.5785C18.701 11.2223 18.7065 11.1785 18.8213 11.0746C18.8924 11.009 19.0072 10.9653 19.1112 10.9707C19.2205 10.9762 19.3244 11.0254 19.4065 11.1239C19.5213 11.2606 19.5268 11.2989 19.5268 12.5403C19.5213 13.716 19.5322 13.8199 19.7346 14.0824H26.5924L26.8549 13.7817V10.4075C26.8604 7.13715 26.8549 7.0223 26.6471 6.75433L23.2346 6.73793C19.8713 6.72152 19.8276 6.72152 19.5268 6.94574L19.5158 8.28011C19.4994 9.52698 19.494 9.61995 19.3901 9.72933C19.319 9.80589 19.2151 9.84964 19.1057 9.84417C19.0018 9.84417 18.8815 9.80042 18.8158 9.7348C18.7119 9.63089 18.7065 9.55433 18.7065 8.2473C18.7065 7.03324 18.7229 6.83636 18.8049 6.64496C18.8596 6.52465 19.0127 6.33324 19.1494 6.22387Z" fill="#4D848A"/>
<path d="M1.98457 24.8223C2.02285 24.7621 2.09941 24.6911 2.16504 24.6637C2.22519 24.6364 3.84394 24.6145 5.758 24.6145C8.44315 24.609 9.27987 24.6254 9.38378 24.6801C9.46034 24.7129 9.54784 24.8059 9.58065 24.8825C9.61893 24.9754 9.61893 25.0684 9.57518 25.1723C9.54784 25.2543 9.47128 25.3418 9.41112 25.3746C9.34003 25.4075 8.00565 25.4293 2.19238 25.4293L2.05566 25.2926C1.9791 25.2161 1.91895 25.1067 1.91895 25.0465C1.91895 24.9864 1.94629 24.8879 1.98457 24.8223Z" fill="#4D848A"/>
<path d="M1.98457 22.6353C2.02285 22.5751 2.09941 22.504 2.16504 22.4767C2.22519 22.4493 3.84394 22.4274 5.758 22.4274C8.44315 22.422 9.27987 22.4384 9.38378 22.4931C9.46034 22.5259 9.54784 22.6189 9.58065 22.6954C9.61893 22.7884 9.61893 22.8814 9.57518 22.9853C9.54784 23.0673 9.47128 23.1548 9.41112 23.1876C9.34003 23.2204 8.00565 23.2423 2.19238 23.2423L2.05566 23.1056C1.9791 23.029 1.91895 22.9196 1.91895 22.8595C1.91895 22.7993 1.94629 22.7009 1.98457 22.6353Z" fill="#4D848A"/>
<path d="M1.98457 20.4474C2.02285 20.3872 2.09941 20.3161 2.16504 20.2888C2.22519 20.2614 3.84394 20.2396 5.758 20.2396C8.44315 20.2341 9.27987 20.2505 9.38378 20.3052C9.46034 20.338 9.54784 20.431 9.58065 20.5075C9.61893 20.6005 9.61893 20.6935 9.57518 20.7974C9.54784 20.8794 9.47128 20.9669 9.41112 20.9997C9.34003 21.0325 8.00565 21.0544 2.19238 21.0544L2.05566 20.9177C1.9791 20.8411 1.91895 20.7318 1.91895 20.6716C1.91895 20.6114 1.94629 20.513 1.98457 20.4474Z" fill="#4D848A"/>
<path fillRule="evenodd" clipRule="evenodd" d="M18.0801 19.0369C18.1402 19.0369 18.277 19.0697 18.3809 19.1025C18.4848 19.1408 19.3598 19.6275 20.3168 20.1798C21.2793 20.7377 22.1215 21.2572 22.1926 21.3392C22.2637 21.4267 22.3402 21.5908 22.373 21.7111C22.4113 21.8588 22.4113 22.0009 22.3676 22.1595C22.3348 22.2908 22.2582 22.4603 22.1926 22.5423C22.1269 22.6244 21.2957 23.1384 20.3496 23.6853C19.4035 24.2322 18.5449 24.7134 18.452 24.7517C18.3535 24.7955 18.1895 24.8283 18.0965 24.8283C17.998 24.8283 17.8121 24.7791 17.6863 24.7189C17.5387 24.6478 17.3965 24.522 17.1504 24.1502V22.0173C17.1504 20.8416 17.1668 19.8134 17.1941 19.7259C17.216 19.6439 17.298 19.5017 17.3855 19.4033C17.4676 19.3103 17.6316 19.1845 17.752 19.1353C17.8723 19.0806 18.0199 19.0369 18.0801 19.0369ZM17.9324 21.9134C17.9379 22.9744 17.9543 23.8822 17.9707 23.9259C17.9871 23.9697 18.0309 24.008 18.0691 24.008C18.102 24.008 18.884 23.5759 19.8027 23.0509C20.7215 22.5205 21.509 22.0502 21.5527 22.0064C21.6238 21.9298 21.6238 21.9134 21.5254 21.8423C21.4652 21.7986 20.6723 21.3338 19.7644 20.8088C18.8512 20.2838 18.102 19.8517 18.091 19.8517C18.0801 19.8517 18.0418 19.8791 17.998 19.9173C17.9324 19.972 17.9215 20.3166 17.9324 21.9134Z" fill="#4D848A"/>
</svg>
