<svg width="203" height="272" viewBox="0 0 203 272" fill="none" xmlns="http://www.w3.org/2000/svg">
<g filter="url(#filter0_d_6905_27627)">
<path d="M40.3891 46.8072H13.9605L12.4287 28.4283L13.9605 10.0215L18.9605 3.59291L27.5319 2.52148H161.461L168.857 5.21401L175.746 9.3072L179.929 16.6426L181.357 24.8569V206.643L192.072 206.285L193.143 225.214L191.103 238.236L188.246 246.093L182.532 250.379H73.2462H61.3573L51.7144 247.357L43.5001 238.785L40.3891 229.307V46.8072Z" fill="white"/>
<rect x="52.3359" y="47.1016" width="82.6775" height="7.18935" rx="3.59467" fill="url(#paint0_linear_6905_27627)"/>
<rect x="52.3359" y="47.1016" width="82.6775" height="7.18935" rx="3.59467" fill="#003D3D" fillOpacity="0.7"/>
<rect x="52.3359" y="47.1016" width="82.6775" height="7.18935" rx="3.59467" fill="url(#paint1_angular_6905_27627)" fillOpacity="0.2"/>
<mask id="path-3-outside-1_6905_27627" maskUnits="userSpaceOnUse" x="156.377" y="47.1016" width="10" height="9" fill="black">
<rect fill="white" x="156.377" y="47.1016" width="10" height="9"/>
<path d="M158.377 47.1016H165.566V54.2909H158.377V47.1016Z"/>
</mask>
<path d="M158.377 47.1016H165.566V54.2909H158.377V47.1016Z" fill="#5BBC2E" fillOpacity="0.2"/>
<path d="M158.377 54.2909H157.306V55.3623H158.377V54.2909ZM165.566 53.2195H158.377V55.3623H165.566V53.2195ZM159.448 54.2909V47.1016H157.306V54.2909H159.448Z" fill="#5BBC2E" mask="url(#path-3-outside-1_6905_27627)"/>
<rect x="52.3359" y="67.1484" width="43.1361" height="7.18935" rx="3.59467" fill="url(#paint2_linear_6905_27627)"/>
<rect x="52.3359" y="67.1484" width="43.1361" height="7.18935" rx="3.59467" fill="#003D3D" fillOpacity="0.7"/>
<rect x="52.3359" y="67.1484" width="43.1361" height="7.18935" rx="3.59467" fill="url(#paint3_angular_6905_27627)" fillOpacity="0.2"/>
<mask id="path-6-outside-2_6905_27627" maskUnits="userSpaceOnUse" x="156.377" y="67.1484" width="10" height="9" fill="black">
<rect fill="white" x="156.377" y="67.1484" width="10" height="9"/>
<path d="M158.377 67.1484H165.566V74.3378H158.377V67.1484Z"/>
</mask>
<path d="M158.377 67.1484H165.566V74.3378H158.377V67.1484Z" fill="#5BBC2E" fillOpacity="0.2"/>
<path d="M158.377 74.3378H157.306V75.4092H158.377V74.3378ZM165.566 73.2664H158.377V75.4092H165.566V73.2664ZM159.448 74.3378V67.1484H157.306V74.3378H159.448Z" fill="#5BBC2E" mask="url(#path-6-outside-2_6905_27627)"/>
<rect x="52.3359" y="87.1934" width="70.0961" height="7.18935" rx="3.59467" fill="url(#paint4_linear_6905_27627)"/>
<rect x="52.3359" y="87.1934" width="70.0961" height="7.18935" rx="3.59467" fill="#003D3D" fillOpacity="0.7"/>
<rect x="52.3359" y="87.1934" width="70.0961" height="7.18935" rx="3.59467" fill="url(#paint5_angular_6905_27627)" fillOpacity="0.2"/>
<mask id="path-9-outside-3_6905_27627" maskUnits="userSpaceOnUse" x="156.377" y="87.1934" width="10" height="9" fill="black">
<rect fill="white" x="156.377" y="87.1934" width="10" height="9"/>
<path d="M158.377 87.1934H165.566V94.3827H158.377V87.1934Z"/>
</mask>
<path d="M158.377 87.1934H165.566V94.3827H158.377V87.1934Z" fill="#5BBC2E" fillOpacity="0.2"/>
<path d="M158.377 94.3827H157.306V95.4541H158.377V94.3827ZM165.566 93.3113H158.377V95.4541H165.566V93.3113ZM159.448 94.3827V87.1934H157.306V94.3827H159.448Z" fill="#5BBC2E" mask="url(#path-9-outside-3_6905_27627)"/>
<rect x="52.3359" y="107.24" width="34.1494" height="7.18935" rx="3.59467" fill="url(#paint6_linear_6905_27627)"/>
<rect x="52.3359" y="107.24" width="34.1494" height="7.18935" rx="3.59467" fill="#003D3D" fillOpacity="0.7"/>
<rect x="52.3359" y="107.24" width="34.1494" height="7.18935" rx="3.59467" fill="url(#paint7_angular_6905_27627)" fillOpacity="0.2"/>
<mask id="path-12-outside-4_6905_27627" maskUnits="userSpaceOnUse" x="156.377" y="107.24" width="10" height="9" fill="black">
<rect fill="white" x="156.377" y="107.24" width="10" height="9"/>
<path d="M158.377 107.24H165.566V114.43H158.377V107.24Z"/>
</mask>
<path d="M158.377 107.24H165.566V114.43H158.377V107.24Z" fill="#5BBC2E" fillOpacity="0.2"/>
<path d="M158.377 114.43H157.306V115.501H158.377V114.43ZM165.566 113.358H158.377V115.501H165.566V113.358ZM159.448 114.43V107.24H157.306V114.43H159.448Z" fill="#5BBC2E" mask="url(#path-12-outside-4_6905_27627)"/>
<rect x="52.3359" y="127.285" width="70.0961" height="7.18935" rx="3.59467" fill="url(#paint8_linear_6905_27627)"/>
<rect x="52.3359" y="127.285" width="70.0961" height="7.18935" rx="3.59467" fill="#003D3D" fillOpacity="0.7"/>
<rect x="52.3359" y="127.285" width="70.0961" height="7.18935" rx="3.59467" fill="url(#paint9_angular_6905_27627)" fillOpacity="0.2"/>
<mask id="path-15-outside-5_6905_27627" maskUnits="userSpaceOnUse" x="156.377" y="127.285" width="10" height="9" fill="black">
<rect fill="white" x="156.377" y="127.285" width="10" height="9"/>
<path d="M158.377 127.285H165.566V134.475H158.377V127.285Z"/>
</mask>
<path d="M158.377 127.285H165.566V134.475H158.377V127.285Z" fill="#5BBC2E" fillOpacity="0.2"/>
<path d="M158.377 134.475H157.306V135.546H158.377V134.475ZM165.566 133.403H158.377V135.546H165.566V133.403ZM159.448 134.475V127.285H157.306V134.475H159.448Z" fill="#5BBC2E" mask="url(#path-15-outside-5_6905_27627)"/>
<rect x="52.3359" y="147.332" width="77.2855" height="7.18935" rx="3.59467" fill="url(#paint10_linear_6905_27627)"/>
<rect x="52.3359" y="147.332" width="77.2855" height="7.18935" rx="3.59467" fill="#003D3D" fillOpacity="0.7"/>
<rect x="52.3359" y="147.332" width="77.2855" height="7.18935" rx="3.59467" fill="url(#paint11_angular_6905_27627)" fillOpacity="0.2"/>
<mask id="path-18-outside-6_6905_27627" maskUnits="userSpaceOnUse" x="156.377" y="147.332" width="10" height="9" fill="black">
<rect fill="white" x="156.377" y="147.332" width="10" height="9"/>
<path d="M158.377 147.332H165.566V154.521H158.377V147.332Z"/>
</mask>
<path d="M158.377 147.332H165.566V154.521H158.377V147.332Z" fill="#5BBC2E" fillOpacity="0.2"/>
<path d="M158.377 154.521H157.306V155.593H158.377V154.521ZM165.566 153.45H158.377V155.593H165.566V153.45ZM159.448 154.521V147.332H157.306V154.521H159.448Z" fill="#5BBC2E" mask="url(#path-18-outside-6_6905_27627)"/>
<path d="M179.945 206.166V25.5333C179.945 12.629 169.484 2.16797 156.58 2.16797L109.849 2.16797L51.4359 2.16797L23.5771 2.16797C23.5771 2.16797 33.744 2.83485 37.0572 6.66131C40.1393 10.2209 39.7532 20.1413 39.7532 20.1413L39.7532 127.083L39.7532 227.298C39.7532 240.712 51.0216 251.372 64.4146 250.628L72.1052 250.2" stroke="url(#paint12_linear_6905_27627)" strokeWidth="2.16429"/>
<path d="M179.945 206.166V25.5333C179.945 12.629 169.484 2.16797 156.58 2.16797L109.849 2.16797L51.4359 2.16797L23.5771 2.16797C23.5771 2.16797 33.744 2.83485 37.0572 6.66131C40.1393 10.2209 39.7532 20.1413 39.7532 20.1413L39.7532 127.083L39.7532 227.298C39.7532 240.712 51.0216 251.372 64.4146 250.628L72.1052 250.2" stroke="#003D3D" strokeOpacity="0.7" strokeWidth="2.16429"/>
<path d="M179.945 206.166V25.5333C179.945 12.629 169.484 2.16797 156.58 2.16797L109.849 2.16797L51.4359 2.16797L23.5771 2.16797C23.5771 2.16797 33.744 2.83485 37.0572 6.66131C40.1393 10.2209 39.7532 20.1413 39.7532 20.1413L39.7532 127.083L39.7532 227.298C39.7532 240.712 51.0216 251.372 64.4146 250.628L72.1052 250.2" stroke="url(#paint13_angular_6905_27627)" strokeOpacity="0.2" strokeWidth="2.16429"/>
<path d="M73.3328 206.466C73.3284 206.427 73.324 206.388 73.3198 206.35H190.629C190.637 206.453 190.645 206.563 190.654 206.681C190.717 207.53 190.802 208.754 190.89 210.248C191.067 213.236 191.257 217.301 191.309 221.611C191.361 225.925 191.275 230.463 190.904 234.406C190.528 238.402 189.872 241.608 188.885 243.385C186.732 247.259 184.408 249.125 182.697 250.031C181.836 250.487 181.115 250.708 180.626 250.815C180.382 250.869 180.195 250.894 180.077 250.906C180.018 250.912 179.977 250.914 179.955 250.915C179.949 250.916 179.945 250.916 179.942 250.916C179.94 250.916 179.939 250.916 179.938 250.916H67.7255C69.6676 249.627 71.6582 247.581 73.0942 244.35C74.1121 242.06 74.5761 238.416 74.7499 234.401C74.9257 230.338 74.8081 225.73 74.5756 221.404C74.3429 217.075 73.994 213.009 73.7035 210.028C73.5582 208.537 73.4274 207.315 73.3328 206.466Z" stroke="url(#paint14_linear_6905_27627)" strokeWidth="2.16429"/>
<path d="M73.3328 206.466C73.3284 206.427 73.324 206.388 73.3198 206.35H190.629C190.637 206.453 190.645 206.563 190.654 206.681C190.717 207.53 190.802 208.754 190.89 210.248C191.067 213.236 191.257 217.301 191.309 221.611C191.361 225.925 191.275 230.463 190.904 234.406C190.528 238.402 189.872 241.608 188.885 243.385C186.732 247.259 184.408 249.125 182.697 250.031C181.836 250.487 181.115 250.708 180.626 250.815C180.382 250.869 180.195 250.894 180.077 250.906C180.018 250.912 179.977 250.914 179.955 250.915C179.949 250.916 179.945 250.916 179.942 250.916C179.94 250.916 179.939 250.916 179.938 250.916H67.7255C69.6676 249.627 71.6582 247.581 73.0942 244.35C74.1121 242.06 74.5761 238.416 74.7499 234.401C74.9257 230.338 74.8081 225.73 74.5756 221.404C74.3429 217.075 73.994 213.009 73.7035 210.028C73.5582 208.537 73.4274 207.315 73.3328 206.466Z" stroke="#003D3D" strokeOpacity="0.7" strokeWidth="2.16429"/>
<path d="M73.3328 206.466C73.3284 206.427 73.324 206.388 73.3198 206.35H190.629C190.637 206.453 190.645 206.563 190.654 206.681C190.717 207.53 190.802 208.754 190.89 210.248C191.067 213.236 191.257 217.301 191.309 221.611C191.361 225.925 191.275 230.463 190.904 234.406C190.528 238.402 189.872 241.608 188.885 243.385C186.732 247.259 184.408 249.125 182.697 250.031C181.836 250.487 181.115 250.708 180.626 250.815C180.382 250.869 180.195 250.894 180.077 250.906C180.018 250.912 179.977 250.914 179.955 250.915C179.949 250.916 179.945 250.916 179.942 250.916C179.94 250.916 179.939 250.916 179.938 250.916H67.7255C69.6676 249.627 71.6582 247.581 73.0942 244.35C74.1121 242.06 74.5761 238.416 74.7499 234.401C74.9257 230.338 74.8081 225.73 74.5756 221.404C74.3429 217.075 73.994 213.009 73.7035 210.028C73.5582 208.537 73.4274 207.315 73.3328 206.466Z" stroke="url(#paint15_angular_6905_27627)" strokeOpacity="0.2" strokeWidth="2.16429"/>
<path d="M28.0712 2.16815C28.0712 2.16815 18.0665 0.370808 13.5732 8.45882C9.1418 16.4353 11.7758 47.1016 11.7758 47.1016H39.7539" stroke="url(#paint16_linear_6905_27627)" strokeWidth="2.16429"/>
<path d="M28.0712 2.16815C28.0712 2.16815 18.0665 0.370808 13.5732 8.45882C9.1418 16.4353 11.7758 47.1016 11.7758 47.1016H39.7539" stroke="#003D3D" strokeOpacity="0.7" strokeWidth="2.16429"/>
<path d="M28.0712 2.16815C28.0712 2.16815 18.0665 0.370808 13.5732 8.45882C9.1418 16.4353 11.7758 47.1016 11.7758 47.1016H39.7539" stroke="url(#paint17_angular_6905_27627)" strokeOpacity="0.2" strokeWidth="2.16429"/>
<path d="M167.352 46.6165C167.3 46.5641 167.238 46.5225 167.17 46.4942C167.101 46.4658 167.028 46.4512 166.955 46.4512C166.881 46.4512 166.808 46.4658 166.74 46.4942C166.671 46.5225 166.61 46.5641 166.558 46.6165L162.393 50.787L160.643 49.0316C160.589 48.9795 160.525 48.9385 160.456 48.911C160.386 48.8835 160.311 48.87 160.236 48.8713C160.161 48.8726 160.087 48.8886 160.018 48.9185C159.95 48.9484 159.887 48.9916 159.835 49.0456C159.783 49.0995 159.742 49.1632 159.715 49.233C159.687 49.3028 159.674 49.3774 159.675 49.4524C159.676 49.5274 159.692 49.6014 159.722 49.6702C159.752 49.739 159.795 49.8013 159.849 49.8534L161.996 52.0001C162.048 52.0525 162.11 52.0941 162.178 52.1225C162.246 52.1508 162.319 52.1655 162.393 52.1655C162.467 52.1655 162.54 52.1508 162.608 52.1225C162.676 52.0941 162.738 52.0525 162.79 52.0001L167.352 47.4383C167.408 47.386 167.454 47.3224 167.485 47.2517C167.515 47.181 167.531 47.1046 167.531 47.0274C167.531 46.9502 167.515 46.8739 167.485 46.8031C167.454 46.7324 167.408 46.6689 167.352 46.6165Z" fill="#5BBC2E"/>
<path d="M167.352 66.6165C167.3 66.5641 167.238 66.5225 167.17 66.4942C167.101 66.4658 167.028 66.4512 166.955 66.4512C166.881 66.4512 166.808 66.4658 166.74 66.4942C166.671 66.5225 166.61 66.5641 166.558 66.6165L162.393 70.787L160.643 69.0316C160.589 68.9795 160.525 68.9385 160.456 68.911C160.386 68.8835 160.311 68.87 160.236 68.8713C160.161 68.8726 160.087 68.8886 160.018 68.9185C159.95 68.9484 159.887 68.9916 159.835 69.0456C159.783 69.0995 159.742 69.1632 159.715 69.233C159.687 69.3028 159.674 69.3774 159.675 69.4524C159.676 69.5274 159.692 69.6014 159.722 69.6702C159.752 69.739 159.795 69.8013 159.849 69.8534L161.996 72.0001C162.048 72.0525 162.11 72.0941 162.178 72.1225C162.246 72.1508 162.319 72.1655 162.393 72.1655C162.467 72.1655 162.54 72.1508 162.608 72.1225C162.676 72.0941 162.738 72.0525 162.79 72.0001L167.352 67.4383C167.408 67.386 167.454 67.3224 167.485 67.2517C167.515 67.181 167.531 67.1046 167.531 67.0274C167.531 66.9502 167.515 66.8739 167.485 66.8031C167.454 66.7324 167.408 66.6689 167.352 66.6165Z" fill="#5BBC2E"/>
<path d="M167.352 86.6165C167.3 86.5641 167.238 86.5225 167.17 86.4942C167.101 86.4658 167.028 86.4512 166.955 86.4512C166.881 86.4512 166.808 86.4658 166.74 86.4942C166.671 86.5225 166.61 86.5641 166.558 86.6165L162.393 90.787L160.643 89.0316C160.589 88.9795 160.525 88.9385 160.456 88.911C160.386 88.8835 160.311 88.87 160.236 88.8713C160.161 88.8726 160.087 88.8886 160.018 88.9185C159.95 88.9484 159.887 88.9916 159.835 89.0456C159.783 89.0995 159.742 89.1632 159.715 89.233C159.687 89.3028 159.674 89.3774 159.675 89.4524C159.676 89.5274 159.692 89.6014 159.722 89.6702C159.752 89.739 159.795 89.8013 159.849 89.8534L161.996 92.0001C162.048 92.0525 162.11 92.0941 162.178 92.1225C162.246 92.1508 162.319 92.1655 162.393 92.1655C162.467 92.1655 162.54 92.1508 162.608 92.1225C162.676 92.0941 162.738 92.0525 162.79 92.0001L167.352 87.4383C167.408 87.386 167.454 87.3224 167.485 87.2517C167.515 87.181 167.531 87.1046 167.531 87.0274C167.531 86.9502 167.515 86.8739 167.485 86.8031C167.454 86.7324 167.408 86.6689 167.352 86.6165Z" fill="#5BBC2E"/>
<path d="M167.352 106.617C167.3 106.564 167.238 106.523 167.17 106.494C167.101 106.466 167.028 106.451 166.955 106.451C166.881 106.451 166.808 106.466 166.74 106.494C166.671 106.523 166.61 106.564 166.558 106.617L162.393 110.787L160.643 109.032C160.589 108.979 160.525 108.938 160.456 108.911C160.386 108.883 160.311 108.87 160.236 108.871C160.161 108.873 160.087 108.889 160.018 108.919C159.95 108.948 159.887 108.992 159.835 109.046C159.783 109.1 159.742 109.163 159.715 109.233C159.687 109.303 159.674 109.377 159.675 109.452C159.676 109.527 159.692 109.601 159.722 109.67C159.752 109.739 159.795 109.801 159.849 109.853L161.996 112C162.048 112.052 162.11 112.094 162.178 112.122C162.246 112.151 162.319 112.165 162.393 112.165C162.467 112.165 162.54 112.151 162.608 112.122C162.676 112.094 162.738 112.052 162.79 112L167.352 107.438C167.408 107.386 167.454 107.322 167.485 107.252C167.515 107.181 167.531 107.105 167.531 107.027C167.531 106.95 167.515 106.874 167.485 106.803C167.454 106.732 167.408 106.669 167.352 106.617Z" fill="#5BBC2E"/>
<path d="M167.352 126.617C167.3 126.564 167.238 126.523 167.17 126.494C167.101 126.466 167.028 126.451 166.955 126.451C166.881 126.451 166.808 126.466 166.74 126.494C166.671 126.523 166.61 126.564 166.558 126.617L162.393 130.787L160.643 129.032C160.589 128.979 160.525 128.938 160.456 128.911C160.386 128.883 160.311 128.87 160.236 128.871C160.161 128.873 160.087 128.889 160.018 128.919C159.95 128.948 159.887 128.992 159.835 129.046C159.783 129.1 159.742 129.163 159.715 129.233C159.687 129.303 159.674 129.377 159.675 129.452C159.676 129.527 159.692 129.601 159.722 129.67C159.752 129.739 159.795 129.801 159.849 129.853L161.996 132C162.048 132.052 162.11 132.094 162.178 132.122C162.246 132.151 162.319 132.165 162.393 132.165C162.467 132.165 162.54 132.151 162.608 132.122C162.676 132.094 162.738 132.052 162.79 132L167.352 127.438C167.408 127.386 167.454 127.322 167.485 127.252C167.515 127.181 167.531 127.105 167.531 127.027C167.531 126.95 167.515 126.874 167.485 126.803C167.454 126.732 167.408 126.669 167.352 126.617Z" fill="#5BBC2E"/>
<path d="M167.352 146.617C167.3 146.564 167.238 146.523 167.17 146.494C167.101 146.466 167.028 146.451 166.955 146.451C166.881 146.451 166.808 146.466 166.74 146.494C166.671 146.523 166.61 146.564 166.558 146.617L162.393 150.787L160.643 149.032C160.589 148.979 160.525 148.938 160.456 148.911C160.386 148.883 160.311 148.87 160.236 148.871C160.161 148.873 160.087 148.889 160.018 148.919C159.95 148.948 159.887 148.992 159.835 149.046C159.783 149.1 159.742 149.163 159.715 149.233C159.687 149.303 159.674 149.377 159.675 149.452C159.676 149.527 159.692 149.601 159.722 149.67C159.752 149.739 159.795 149.801 159.849 149.853L161.996 152C162.048 152.052 162.11 152.094 162.178 152.122C162.246 152.151 162.319 152.165 162.393 152.165C162.467 152.165 162.54 152.151 162.608 152.122C162.676 152.094 162.738 152.052 162.79 152L167.352 147.438C167.408 147.386 167.454 147.322 167.485 147.252C167.515 147.181 167.531 147.105 167.531 147.027C167.531 146.95 167.515 146.874 167.485 146.803C167.454 146.732 167.408 146.669 167.352 146.617Z" fill="#5BBC2E"/>
<path d="M94.3486 167.204V170.116H92.8087V167.204H94.3486ZM94.1611 183.324V185.98H92.6211V183.324H94.1611ZM95.2469 180.087C95.2469 179.711 95.1778 179.392 95.0396 179.129C94.908 178.866 94.6908 178.632 94.3881 178.428C94.092 178.224 93.6905 178.027 93.1838 177.836C92.3283 177.507 91.5747 177.158 90.9232 176.789C90.2783 176.414 89.7748 175.95 89.4129 175.398C89.0509 174.838 88.8699 174.131 88.8699 173.275C88.8699 172.459 89.0641 171.752 89.4524 171.153C89.8406 170.554 90.377 170.093 91.0614 169.771C91.7524 169.442 92.5553 169.277 93.4701 169.277C94.1677 169.277 94.7994 169.383 95.3654 169.593C95.9314 169.797 96.4184 170.1 96.8264 170.501C97.2344 170.896 97.547 171.38 97.7642 171.952C97.9813 172.525 98.0899 173.18 98.0899 173.917H95.2568C95.2568 173.522 95.214 173.173 95.1285 172.87C95.0429 172.568 94.9179 172.314 94.7534 172.11C94.5954 171.906 94.4046 171.755 94.1808 171.656C93.9571 171.551 93.7103 171.498 93.4405 171.498C93.039 171.498 92.71 171.577 92.4533 171.735C92.1966 171.893 92.0091 172.107 91.8906 172.377C91.7788 172.64 91.7228 172.943 91.7228 173.285C91.7228 173.621 91.782 173.914 91.9005 174.164C92.0255 174.414 92.2394 174.644 92.5421 174.855C92.8449 175.059 93.2595 175.269 93.786 175.486C94.6415 175.815 95.3917 176.171 96.0367 176.553C96.6816 176.934 97.185 177.401 97.547 177.954C97.9089 178.507 98.0899 179.211 98.0899 180.067C98.0899 180.916 97.8925 181.64 97.4976 182.238C97.1028 182.831 96.55 183.285 95.8392 183.601C95.1285 183.91 94.3059 184.065 93.3714 184.065C92.7659 184.065 92.1637 183.986 91.5649 183.828C90.966 183.663 90.4231 183.4 89.9361 183.038C89.4491 182.676 89.0608 182.196 88.7712 181.597C88.4817 180.991 88.3369 180.248 88.3369 179.366H91.1799C91.1799 179.846 91.2424 180.248 91.3674 180.57C91.4925 180.886 91.657 181.139 91.861 181.33C92.0716 181.515 92.3085 181.646 92.5718 181.725C92.835 181.804 93.1015 181.844 93.3714 181.844C93.7925 181.844 94.138 181.768 94.4079 181.617C94.6843 181.465 94.8916 181.258 95.0298 180.995C95.1745 180.725 95.2469 180.422 95.2469 180.087Z" fill="#5BBC2E"/>
<path d="M53.3076 178.745L54.8352 176.841L52.617 176.213L53.0356 174.985L55.2119 175.85L55.0794 173.416H56.4326L56.2861 175.899L58.4206 175.041L58.8322 176.29L56.5791 176.918L58.0579 178.78L56.9628 179.547L55.6793 177.511L54.4028 179.485L53.3076 178.745ZM59.7948 178.745L61.3224 176.841L59.1042 176.213L59.5227 174.985L61.6991 175.85L61.5665 173.416H62.9198L62.7733 175.899L64.9078 175.041L65.3193 176.29L63.0663 176.918L64.5451 178.78L63.4499 179.547L62.1664 177.511L60.8899 179.485L59.7948 178.745ZM66.2819 178.745L67.8096 176.841L65.5914 176.213L66.0099 174.985L68.1862 175.85L68.0537 173.416H69.4069L69.2605 175.899L71.395 175.041L71.8065 176.29L69.5534 176.918L71.0322 178.78L69.9371 179.547L68.6536 177.511L67.3771 179.485L66.2819 178.745ZM72.7691 178.745L74.2967 176.841L72.0785 176.213L72.4971 174.985L74.6734 175.85L74.5409 173.416H75.8941L75.7476 175.899L77.8821 175.041L78.2937 176.29L76.0406 176.918L77.5194 178.78L76.4242 179.547L75.1408 177.511L73.8643 179.485L72.7691 178.745ZM79.2563 178.745L80.7839 176.841L78.5657 176.213L78.9842 174.985L81.1606 175.85L81.028 173.416H82.3813L82.2348 175.899L84.3693 175.041L84.7808 176.29L82.5278 176.918L84.0066 178.78L82.9114 179.547L81.6279 177.511L80.3514 179.485L79.2563 178.745Z" fill="#5BBC2E"/>
</g>
<defs>
<filter id="filter0_d_6905_27627" x="0.068572" y="0.916016" width="202.922" height="270.781" filterUnits="userSpaceOnUse" color-interpolation-filters="sRGB">
<feFlood flood-opacity="0" result="BackgroundImageFix"/>
<feColorMatrix in="SourceAlpha" type="matrix" values="0 0 0 0 0 0 0 0 0 0 0 0 0 0 0 0 0 0 127 0" result="hardAlpha"/>
<feOffset dy="9.84842"/>
<feGaussianBlur stdDeviation="4.92421"/>
<feComposite in2="hardAlpha" operator="out"/>
<feColorMatrix type="matrix" values="0 0 0 0 0 0 0 0 0 0 0 0 0 0 0 0 0 0 0.25 0"/>
<feBlend mode="normal" in2="BackgroundImageFix" result="effect1_dropShadow_6905_27627"/>
<feBlend mode="normal" in="SourceGraphic" in2="effect1_dropShadow_6905_27627" result="shape"/>
</filter>
<linearGradient id="paint0_linear_6905_27627" x1="69.4909" y1="49.2459" x2="69.9754" y2="56.6847" gradientUnits="userSpaceOnUse">
<stop stopColor="#182F59"/>
<stop offset="1" stopColor="#020F26"/>
</linearGradient>
<radialGradient id="paint1_angular_6905_27627" cx="0" cy="0" r="1" gradientUnits="userSpaceOnUse" gradientTransform="translate(110.711 52.0533) rotate(-175.403) scale(47.5675 7.62326)">
<stop stopColor="#4C576B" stopOpacity="0.5"/>
<stop offset="1" stopOpacity="0.7"/>
</radialGradient>
<linearGradient id="paint2_linear_6905_27627" x1="61.2864" y1="69.2928" x2="62.2045" y2="76.6486" gradientUnits="userSpaceOnUse">
<stop stopColor="#182F59"/>
<stop offset="1" stopColor="#020F26"/>
</linearGradient>
<radialGradient id="paint3_angular_6905_27627" cx="0" cy="0" r="1" gradientUnits="userSpaceOnUse" gradientTransform="translate(82.7922 72.1002) rotate(-171.239) scale(25.03 7.55864)">
<stop stopColor="#4C576B" stopOpacity="0.5"/>
<stop offset="1" stopOpacity="0.7"/>
</radialGradient>
<linearGradient id="paint4_linear_6905_27627" x1="66.8804" y1="89.3377" x2="67.4508" y2="96.7643" gradientUnits="userSpaceOnUse">
<stop stopColor="#182F59"/>
<stop offset="1" stopColor="#020F26"/>
</linearGradient>
<radialGradient id="paint5_angular_6905_27627" cx="0" cy="0" r="1" gradientUnits="userSpaceOnUse" gradientTransform="translate(101.827 92.1451) rotate(-174.583) scale(40.3796 7.6137)">
<stop stopColor="#4C576B" stopOpacity="0.5"/>
<stop offset="1" stopOpacity="0.7"/>
</radialGradient>
<linearGradient id="paint6_linear_6905_27627" x1="59.4217" y1="109.385" x2="60.5709" y2="116.674" gradientUnits="userSpaceOnUse">
<stop stopColor="#182F59"/>
<stop offset="1" stopColor="#020F26"/>
</linearGradient>
<radialGradient id="paint7_angular_6905_27627" cx="0" cy="0" r="1" gradientUnits="userSpaceOnUse" gradientTransform="translate(76.4472 112.192) rotate(-168.985) scale(19.9518 7.50696)">
<stop stopColor="#4C576B" stopOpacity="0.5"/>
<stop offset="1" stopOpacity="0.7"/>
</radialGradient>
<linearGradient id="paint8_linear_6905_27627" x1="66.8804" y1="129.43" x2="67.4508" y2="136.856" gradientUnits="userSpaceOnUse">
<stop stopColor="#182F59"/>
<stop offset="1" stopColor="#020F26"/>
</linearGradient>
<radialGradient id="paint9_angular_6905_27627" cx="0" cy="0" r="1" gradientUnits="userSpaceOnUse" gradientTransform="translate(101.827 132.237) rotate(-174.583) scale(40.3796 7.6137)">
<stop stopColor="#4C576B" stopOpacity="0.5"/>
<stop offset="1" stopOpacity="0.7"/>
</radialGradient>
<linearGradient id="paint10_linear_6905_27627" x1="68.3721" y1="149.476" x2="68.89" y2="156.911" gradientUnits="userSpaceOnUse">
<stop stopColor="#182F59"/>
<stop offset="1" stopColor="#020F26"/>
</linearGradient>
<radialGradient id="paint11_angular_6905_27627" cx="0" cy="0" r="1" gradientUnits="userSpaceOnUse" gradientTransform="translate(106.903 152.284) rotate(-175.084) scale(44.4859 7.61973)">
<stop stopColor="#4C576B" stopOpacity="0.5"/>
<stop offset="1" stopOpacity="0.7"/>
</radialGradient>
<linearGradient id="paint12_linear_6905_27627" x1="56.0224" y1="76.6849" x2="183.758" y2="183.438" gradientUnits="userSpaceOnUse">
<stop stopColor="#182F59"/>
<stop offset="1" stopColor="#020F26"/>
</linearGradient>
<radialGradient id="paint13_angular_6905_27627" cx="0" cy="0" r="1" gradientUnits="userSpaceOnUse" gradientTransform="translate(133.981 174.241) rotate(-124.095) scale(159.972 148.978)">
<stop stopColor="#4C576B" stopOpacity="0.5"/>
<stop offset="1" stopOpacity="0.7"/>
</radialGradient>
<linearGradient id="paint14_linear_6905_27627" x1="88.5203" y1="219.206" x2="100.622" y2="264.532" gradientUnits="userSpaceOnUse">
<stop stopColor="#182F59"/>
<stop offset="1" stopColor="#020F26"/>
</linearGradient>
<radialGradient id="paint15_angular_6905_27627" cx="0" cy="0" r="1" gradientUnits="userSpaceOnUse" gradientTransform="translate(153.873 237.454) rotate(-161.757) scale(79.1536 47.2124)">
<stop stopColor="#4C576B" stopOpacity="0.5"/>
<stop offset="1" stopOpacity="0.7"/>
</radialGradient>
<linearGradient id="paint16_linear_6905_27627" x1="33.7874" y1="33.6485" x2="10.6547" y2="13.9562" gradientUnits="userSpaceOnUse">
<stop stopColor="#182F59"/>
<stop offset="1" stopColor="#020F26"/>
</linearGradient>
<radialGradient id="paint17_angular_6905_27627" cx="0" cy="0" r="1" gradientUnits="userSpaceOnUse" gradientTransform="translate(19.4513 16.036) rotate(55.4134) scale(29.0507 27.236)">
<stop stopColor="#4C576B" stopOpacity="0.5"/>
<stop offset="1" stopOpacity="0.7"/>
</radialGradient>
</defs>
</svg>
