<svg width="25" height="24" viewBox="0 0 25 24" fill="none" xmlns="http://www.w3.org/2000/svg">
<mask id="path-1-inside-1_9526_52564" fill="white">
<path d="M11.4014 18.072V13.343C10.9591 13.343 10.5274 13.3476 10.0949 13.343C9.16164 13.3324 8.47845 12.6703 8.44949 11.7377C8.43633 11.3428 8.44949 10.9478 8.44949 10.5529C8.44949 10.4568 8.44949 10.3608 8.44949 10.2436H7.52607C6.68031 10.2436 5.83455 10.2489 4.98945 10.2396C4.81042 10.2396 4.74131 10.291 4.688 10.4661C4.39314 11.4454 3.48024 12.0069 2.45809 11.8686C1.51229 11.741 0.789609 10.9189 0.751434 9.93162C0.714576 8.97331 1.39184 8.12031 2.35871 7.90904C2.84966 7.80391 3.3622 7.88783 3.79399 8.14404C4.22577 8.40026 4.54503 8.80992 4.688 9.29121C4.74329 9.4755 4.82359 9.51104 4.99274 9.50973C6.0603 9.5038 7.12787 9.50973 8.19544 9.50644C8.27507 9.50644 8.35471 9.4992 8.44554 9.49459V7.75305H5.18032V4.05343C3.82776 3.52688 3.29859 2.768 3.49209 1.66095C3.64676 0.778987 4.45698 0.073419 5.35408 0.0411682C6.34135 0.00496839 7.1746 0.628264 7.4076 1.57407C7.66297 2.6107 7.16144 3.43605 5.92472 4.00933V6.981C6.02015 6.98561 6.10703 6.99351 6.19391 6.99351C6.89224 6.99351 7.58991 6.98759 8.28758 6.99878C8.46529 6.99878 8.56402 6.95797 8.64892 6.79342C8.73096 6.62306 8.85151 6.47411 9.00105 6.35837C9.19258 6.22673 9.22483 6.06877 9.21956 5.85881C9.20574 5.26645 9.20442 4.6787 9.39398 4.10476C9.90802 2.54356 11.4837 1.49903 13.0673 1.68003C14.8003 1.87749 16.0949 3.15633 16.2562 4.84258C16.2923 5.22564 16.2693 5.61397 16.293 5.99834C16.3101 6.10336 16.3556 6.20168 16.4246 6.28268C16.5708 6.48013 16.7287 6.66442 16.8854 6.85003C16.9328 6.90531 16.9966 6.98693 17.0539 6.98759C17.8819 6.99614 18.7105 6.99351 19.5582 6.99351V4.02512C19.3246 3.90468 19.0764 3.80858 18.8645 3.66181C18.4885 3.39727 18.2149 3.01155 18.0894 2.56927C17.964 2.12699 17.9943 1.65503 18.1754 1.23247C18.5433 0.364992 19.4496 -0.118769 20.4066 0.0424846C21.305 0.193866 22.006 1.00277 22.0521 1.93936C22.0718 2.39458 21.9356 2.84291 21.666 3.21021C21.3964 3.57751 21.0094 3.84178 20.5692 3.95931C20.3441 4.01657 20.3138 4.11595 20.3151 4.31077C20.3224 5.35333 20.3151 6.39588 20.3151 7.4391V7.73857H17.0736V9.49196C17.1394 9.49854 17.1954 9.50841 17.2507 9.50841C18.3511 9.50841 19.4516 9.50314 20.5514 9.51565C20.7522 9.51565 20.7699 9.40442 20.8147 9.27081C21.1175 8.34936 22.0409 7.76226 22.9781 7.88403C23.9582 8.01105 24.6802 8.79231 24.746 9.79735C24.8065 10.7188 24.174 11.585 23.2539 11.8377C22.189 12.1286 21.1096 11.5159 20.7917 10.4299C20.7535 10.2982 20.7107 10.2416 20.5646 10.2423C19.4398 10.2482 18.3149 10.2456 17.1901 10.2462C17.1579 10.2462 17.1243 10.2535 17.0585 10.2607C17.0585 10.422 17.0585 10.5832 17.0585 10.7451C17.0585 11.1144 17.069 11.4849 17.046 11.8528C17.0204 12.2547 16.8437 12.6319 16.5514 12.9088C16.2591 13.1857 15.8729 13.3418 15.4703 13.3456C15.103 13.3515 14.7358 13.3456 14.3593 13.3456C14.3504 13.3924 14.3443 13.4396 14.3408 13.4871C14.3408 13.8228 14.3408 14.1578 14.3408 14.5336C14.5258 14.5336 14.6943 14.5336 14.8628 14.5336C15.4354 14.5376 15.8915 14.7627 16.2272 15.2352C16.2928 15.3094 16.3846 15.3551 16.4832 15.3629C16.8018 15.3873 17.1263 15.3583 17.4402 15.405C17.9872 15.4866 18.365 15.8157 18.5591 16.3311C18.6203 16.495 18.6954 16.5483 18.8579 16.5332C18.9894 16.5245 19.1213 16.5245 19.2528 16.5332C20.0427 16.5641 20.6278 17.1512 20.635 17.9436C20.6442 19.0849 20.6396 20.2262 20.635 21.3662C20.6372 21.7304 20.5218 22.0857 20.3059 22.3791C20.0729 22.6963 19.8399 23.0149 19.5944 23.3223C19.435 23.5329 19.2282 23.703 18.9908 23.8189C18.7535 23.9349 18.4922 23.9934 18.2281 23.9897C16.1094 23.9897 13.9907 23.9949 11.8727 23.9818C11.7943 23.9767 11.7179 23.9557 11.6479 23.9201C11.578 23.8844 11.516 23.8349 11.4659 23.7744C10.4049 22.2935 9.35405 20.8054 8.31325 19.31C8.19297 19.1407 8.10725 18.9494 8.06101 18.7469C8.01476 18.5444 8.00889 18.3348 8.04374 18.1301C8.07858 17.9254 8.15346 17.7295 8.26408 17.5537C8.3747 17.378 8.51889 17.2257 8.68841 17.1058C9.40122 16.6016 10.351 16.7596 10.8986 17.475C11.0559 17.681 11.2053 17.893 11.3593 18.1023L11.4014 18.072ZM13.605 16.6727V14.6666C13.605 13.6569 13.6017 12.6473 13.605 11.6389C13.605 11.3349 13.5089 11.0907 13.241 10.9347C12.7382 10.6431 12.1583 11.0091 12.1577 11.6205C12.1577 14.1242 12.1577 16.6277 12.1577 19.131C12.1577 19.3607 12.1643 19.5917 11.8944 19.6779C11.6245 19.7642 11.4995 19.5595 11.3679 19.3765C11.0282 18.9033 10.6985 18.4221 10.3385 17.9653C10.2071 17.8005 10.0352 17.6726 9.83957 17.5941C9.50455 17.4678 9.13268 17.6198 8.92733 17.9061C8.70684 18.2135 8.70223 18.5807 8.93589 18.9164C9.91087 20.317 10.8902 21.7143 11.874 23.1084C11.9083 23.1493 11.9507 23.1827 11.9985 23.2066C12.0462 23.2305 12.0984 23.2443 12.1517 23.2472C14.1623 23.2551 16.1732 23.2551 18.1846 23.2472C18.3237 23.2471 18.4616 23.2224 18.592 23.1742C19.0067 23.0156 19.8781 21.8348 19.8834 21.3971C19.8959 20.24 19.8939 19.0823 19.8834 17.9252C19.8872 17.7708 19.8338 17.6203 19.7334 17.5029C19.6331 17.3854 19.4929 17.3091 19.3397 17.2887C19.1113 17.2758 18.8824 17.2745 18.6539 17.2848V18.5972H17.9299C17.9259 18.5064 17.9187 18.4261 17.9187 18.3464C17.9187 17.862 17.922 17.3776 17.9187 16.8932C17.9141 16.5042 17.691 16.1981 17.3323 16.1521C17.0466 16.1145 16.7518 16.1442 16.4687 16.1442V17.733H15.7447V17.4487C15.7447 17.0136 15.75 16.5786 15.7447 16.1435C15.7375 15.7229 15.4992 15.384 15.134 15.3267C14.8885 15.2885 14.6318 15.3195 14.3441 15.3195V16.674L13.605 16.6727ZM14.3376 12.5854C14.3723 12.5949 14.4077 12.6017 14.4435 12.6058C14.7634 12.6058 15.0833 12.6111 15.4032 12.6058C15.9435 12.5999 16.3075 12.2556 16.3108 11.7173C16.3182 10.3382 16.3182 8.95949 16.3108 7.58126C16.3075 7.04682 15.9396 6.69338 15.4012 6.69272C13.6373 6.68877 11.8731 6.68877 10.1088 6.69272C9.55655 6.69272 9.20047 7.04748 9.18731 7.59838C9.18007 7.96761 9.18731 8.33685 9.18731 8.70609C9.18731 9.69928 9.18731 10.6918 9.18731 11.685C9.18731 12.1622 9.4644 12.5492 9.89222 12.5854C10.3865 12.6269 10.8867 12.5946 11.4113 12.5946C11.4113 12.2872 11.4113 11.9944 11.4113 11.7008C11.4179 10.8485 12.0471 10.1969 12.8672 10.1929C13.6873 10.189 14.3264 10.8386 14.3362 11.6883C14.3409 11.9825 14.3376 12.2767 14.3376 12.5854ZM15.4933 5.94372C15.6394 4.62736 15.3334 3.54926 14.177 2.82987C13.7022 2.53719 13.1491 2.39706 12.5922 2.42836C12.0354 2.45966 11.5015 2.6609 11.0625 3.00495C10.093 3.76514 9.85997 4.77874 10.0199 5.94372H15.4933ZM5.45741 3.29455C5.70656 3.29375 5.94987 3.21897 6.15646 3.0797C6.36306 2.94043 6.52364 2.74294 6.61783 2.51227C6.71202 2.28161 6.73558 2.02817 6.68553 1.78409C6.63548 1.54002 6.51406 1.31631 6.33669 1.14134C6.15931 0.966365 5.93396 0.848015 5.68922 0.8013C5.44449 0.754584 5.19139 0.781606 4.96204 0.87894C4.73268 0.976273 4.5374 1.13953 4.40096 1.34801C4.26452 1.55649 4.19308 1.80079 4.19568 2.04993C4.19933 2.38186 4.33397 2.6989 4.57029 2.93202C4.80661 3.16513 5.12546 3.29543 5.45741 3.29455ZM21.2892 2.04401C21.2926 1.71245 21.1641 1.39314 20.9321 1.15629C20.7 0.919439 20.3834 0.784435 20.0519 0.780961C19.7183 0.776335 19.3965 0.904415 19.1574 1.13702C18.9182 1.36963 18.7813 1.68771 18.7766 2.0213C18.772 2.35488 18.9001 2.67664 19.1327 2.91579C19.3653 3.15494 19.6834 3.29189 20.017 3.29652C20.1834 3.29941 20.3486 3.26907 20.5031 3.20727C20.6576 3.14547 20.7982 3.05346 20.9167 2.93663C21.0352 2.8198 21.1292 2.6805 21.1932 2.52688C21.2571 2.37327 21.2898 2.20843 21.2892 2.04203V2.04401ZM4.03772 9.91648C4.04334 9.66603 3.97405 9.4196 3.83872 9.20879C3.70339 8.99797 3.50819 8.83237 3.27814 8.7332C3.04809 8.63404 2.79366 8.60583 2.54747 8.65219C2.30129 8.69856 2.07455 8.81738 1.89633 8.99344C1.71811 9.16949 1.59652 9.39475 1.54715 9.64035C1.49778 9.88596 1.52287 10.1407 1.61921 10.372C1.71555 10.6032 1.87875 10.8004 2.0879 10.9383C2.29704 11.0762 2.5426 11.1485 2.7931 11.146C3.12012 11.1445 3.43355 11.0149 3.6662 10.7851C3.89885 10.5553 4.03222 10.2435 4.03772 9.91648ZM21.4656 9.8862C21.4618 10.2178 21.5897 10.5373 21.8214 10.7745C22.0531 11.0117 22.3695 11.1472 22.701 11.1512C22.8663 11.1521 23.0301 11.1205 23.1831 11.0581C23.3362 10.9957 23.4754 10.9037 23.5929 10.7875C23.7104 10.6713 23.8039 10.5331 23.8679 10.3808C23.932 10.2284 23.9655 10.065 23.9664 9.8997C23.9673 9.73444 23.9356 9.57062 23.8732 9.41759C23.8108 9.26456 23.7189 9.12532 23.6027 9.00782C23.4865 8.89033 23.3482 8.79687 23.1959 8.73279C23.0436 8.66871 22.8801 8.63526 22.7149 8.63435C22.3833 8.63556 22.0658 8.76789 21.8315 9.00243C21.5972 9.23698 21.4652 9.55469 21.4643 9.8862H21.4656Z"/>
</mask>
<path d="M11.4014 18.072V13.343C10.9591 13.343 10.5274 13.3476 10.0949 13.343C9.16164 13.3324 8.47845 12.6703 8.44949 11.7377C8.43633 11.3428 8.44949 10.9478 8.44949 10.5529C8.44949 10.4568 8.44949 10.3608 8.44949 10.2436H7.52607C6.68031 10.2436 5.83455 10.2489 4.98945 10.2396C4.81042 10.2396 4.74131 10.291 4.688 10.4661C4.39314 11.4454 3.48024 12.0069 2.45809 11.8686C1.51229 11.741 0.789609 10.9189 0.751434 9.93162C0.714576 8.97331 1.39184 8.12031 2.35871 7.90904C2.84966 7.80391 3.3622 7.88783 3.79399 8.14404C4.22577 8.40026 4.54503 8.80992 4.688 9.29121C4.74329 9.4755 4.82359 9.51104 4.99274 9.50973C6.0603 9.5038 7.12787 9.50973 8.19544 9.50644C8.27507 9.50644 8.35471 9.4992 8.44554 9.49459V7.75305H5.18032V4.05343C3.82776 3.52688 3.29859 2.768 3.49209 1.66095C3.64676 0.778987 4.45698 0.073419 5.35408 0.0411682C6.34135 0.00496839 7.1746 0.628264 7.4076 1.57407C7.66297 2.6107 7.16144 3.43605 5.92472 4.00933V6.981C6.02015 6.98561 6.10703 6.99351 6.19391 6.99351C6.89224 6.99351 7.58991 6.98759 8.28758 6.99878C8.46529 6.99878 8.56402 6.95797 8.64892 6.79342C8.73096 6.62306 8.85151 6.47411 9.00105 6.35837C9.19258 6.22673 9.22483 6.06877 9.21956 5.85881C9.20574 5.26645 9.20442 4.6787 9.39398 4.10476C9.90802 2.54356 11.4837 1.49903 13.0673 1.68003C14.8003 1.87749 16.0949 3.15633 16.2562 4.84258C16.2923 5.22564 16.2693 5.61397 16.293 5.99834C16.3101 6.10336 16.3556 6.20168 16.4246 6.28268C16.5708 6.48013 16.7287 6.66442 16.8854 6.85003C16.9328 6.90531 16.9966 6.98693 17.0539 6.98759C17.8819 6.99614 18.7105 6.99351 19.5582 6.99351V4.02512C19.3246 3.90468 19.0764 3.80858 18.8645 3.66181C18.4885 3.39727 18.2149 3.01155 18.0894 2.56927C17.964 2.12699 17.9943 1.65503 18.1754 1.23247C18.5433 0.364992 19.4496 -0.118769 20.4066 0.0424846C21.305 0.193866 22.006 1.00277 22.0521 1.93936C22.0718 2.39458 21.9356 2.84291 21.666 3.21021C21.3964 3.57751 21.0094 3.84178 20.5692 3.95931C20.3441 4.01657 20.3138 4.11595 20.3151 4.31077C20.3224 5.35333 20.3151 6.39588 20.3151 7.4391V7.73857H17.0736V9.49196C17.1394 9.49854 17.1954 9.50841 17.2507 9.50841C18.3511 9.50841 19.4516 9.50314 20.5514 9.51565C20.7522 9.51565 20.7699 9.40442 20.8147 9.27081C21.1175 8.34936 22.0409 7.76226 22.9781 7.88403C23.9582 8.01105 24.6802 8.79231 24.746 9.79735C24.8065 10.7188 24.174 11.585 23.2539 11.8377C22.189 12.1286 21.1096 11.5159 20.7917 10.4299C20.7535 10.2982 20.7107 10.2416 20.5646 10.2423C19.4398 10.2482 18.3149 10.2456 17.1901 10.2462C17.1579 10.2462 17.1243 10.2535 17.0585 10.2607C17.0585 10.422 17.0585 10.5832 17.0585 10.7451C17.0585 11.1144 17.069 11.4849 17.046 11.8528C17.0204 12.2547 16.8437 12.6319 16.5514 12.9088C16.2591 13.1857 15.8729 13.3418 15.4703 13.3456C15.103 13.3515 14.7358 13.3456 14.3593 13.3456C14.3504 13.3924 14.3443 13.4396 14.3408 13.4871C14.3408 13.8228 14.3408 14.1578 14.3408 14.5336C14.5258 14.5336 14.6943 14.5336 14.8628 14.5336C15.4354 14.5376 15.8915 14.7627 16.2272 15.2352C16.2928 15.3094 16.3846 15.3551 16.4832 15.3629C16.8018 15.3873 17.1263 15.3583 17.4402 15.405C17.9872 15.4866 18.365 15.8157 18.5591 16.3311C18.6203 16.495 18.6954 16.5483 18.8579 16.5332C18.9894 16.5245 19.1213 16.5245 19.2528 16.5332C20.0427 16.5641 20.6278 17.1512 20.635 17.9436C20.6442 19.0849 20.6396 20.2262 20.635 21.3662C20.6372 21.7304 20.5218 22.0857 20.3059 22.3791C20.0729 22.6963 19.8399 23.0149 19.5944 23.3223C19.435 23.5329 19.2282 23.703 18.9908 23.8189C18.7535 23.9349 18.4922 23.9934 18.2281 23.9897C16.1094 23.9897 13.9907 23.9949 11.8727 23.9818C11.7943 23.9767 11.7179 23.9557 11.6479 23.9201C11.578 23.8844 11.516 23.8349 11.4659 23.7744C10.4049 22.2935 9.35405 20.8054 8.31325 19.31C8.19297 19.1407 8.10725 18.9494 8.06101 18.7469C8.01476 18.5444 8.00889 18.3348 8.04374 18.1301C8.07858 17.9254 8.15346 17.7295 8.26408 17.5537C8.3747 17.378 8.51889 17.2257 8.68841 17.1058C9.40122 16.6016 10.351 16.7596 10.8986 17.475C11.0559 17.681 11.2053 17.893 11.3593 18.1023L11.4014 18.072ZM13.605 16.6727V14.6666C13.605 13.6569 13.6017 12.6473 13.605 11.6389C13.605 11.3349 13.5089 11.0907 13.241 10.9347C12.7382 10.6431 12.1583 11.0091 12.1577 11.6205C12.1577 14.1242 12.1577 16.6277 12.1577 19.131C12.1577 19.3607 12.1643 19.5917 11.8944 19.6779C11.6245 19.7642 11.4995 19.5595 11.3679 19.3765C11.0282 18.9033 10.6985 18.4221 10.3385 17.9653C10.2071 17.8005 10.0352 17.6726 9.83957 17.5941C9.50455 17.4678 9.13268 17.6198 8.92733 17.9061C8.70684 18.2135 8.70223 18.5807 8.93589 18.9164C9.91087 20.317 10.8902 21.7143 11.874 23.1084C11.9083 23.1493 11.9507 23.1827 11.9985 23.2066C12.0462 23.2305 12.0984 23.2443 12.1517 23.2472C14.1623 23.2551 16.1732 23.2551 18.1846 23.2472C18.3237 23.2471 18.4616 23.2224 18.592 23.1742C19.0067 23.0156 19.8781 21.8348 19.8834 21.3971C19.8959 20.24 19.8939 19.0823 19.8834 17.9252C19.8872 17.7708 19.8338 17.6203 19.7334 17.5029C19.6331 17.3854 19.4929 17.3091 19.3397 17.2887C19.1113 17.2758 18.8824 17.2745 18.6539 17.2848V18.5972H17.9299C17.9259 18.5064 17.9187 18.4261 17.9187 18.3464C17.9187 17.862 17.922 17.3776 17.9187 16.8932C17.9141 16.5042 17.691 16.1981 17.3323 16.1521C17.0466 16.1145 16.7518 16.1442 16.4687 16.1442V17.733H15.7447V17.4487C15.7447 17.0136 15.75 16.5786 15.7447 16.1435C15.7375 15.7229 15.4992 15.384 15.134 15.3267C14.8885 15.2885 14.6318 15.3195 14.3441 15.3195V16.674L13.605 16.6727ZM14.3376 12.5854C14.3723 12.5949 14.4077 12.6017 14.4435 12.6058C14.7634 12.6058 15.0833 12.6111 15.4032 12.6058C15.9435 12.5999 16.3075 12.2556 16.3108 11.7173C16.3182 10.3382 16.3182 8.95949 16.3108 7.58126C16.3075 7.04682 15.9396 6.69338 15.4012 6.69272C13.6373 6.68877 11.8731 6.68877 10.1088 6.69272C9.55655 6.69272 9.20047 7.04748 9.18731 7.59838C9.18007 7.96761 9.18731 8.33685 9.18731 8.70609C9.18731 9.69928 9.18731 10.6918 9.18731 11.685C9.18731 12.1622 9.4644 12.5492 9.89222 12.5854C10.3865 12.6269 10.8867 12.5946 11.4113 12.5946C11.4113 12.2872 11.4113 11.9944 11.4113 11.7008C11.4179 10.8485 12.0471 10.1969 12.8672 10.1929C13.6873 10.189 14.3264 10.8386 14.3362 11.6883C14.3409 11.9825 14.3376 12.2767 14.3376 12.5854ZM15.4933 5.94372C15.6394 4.62736 15.3334 3.54926 14.177 2.82987C13.7022 2.53719 13.1491 2.39706 12.5922 2.42836C12.0354 2.45966 11.5015 2.6609 11.0625 3.00495C10.093 3.76514 9.85997 4.77874 10.0199 5.94372H15.4933ZM5.45741 3.29455C5.70656 3.29375 5.94987 3.21897 6.15646 3.0797C6.36306 2.94043 6.52364 2.74294 6.61783 2.51227C6.71202 2.28161 6.73558 2.02817 6.68553 1.78409C6.63548 1.54002 6.51406 1.31631 6.33669 1.14134C6.15931 0.966365 5.93396 0.848015 5.68922 0.8013C5.44449 0.754584 5.19139 0.781606 4.96204 0.87894C4.73268 0.976273 4.5374 1.13953 4.40096 1.34801C4.26452 1.55649 4.19308 1.80079 4.19568 2.04993C4.19933 2.38186 4.33397 2.6989 4.57029 2.93202C4.80661 3.16513 5.12546 3.29543 5.45741 3.29455ZM21.2892 2.04401C21.2926 1.71245 21.1641 1.39314 20.9321 1.15629C20.7 0.919439 20.3834 0.784435 20.0519 0.780961C19.7183 0.776335 19.3965 0.904415 19.1574 1.13702C18.9182 1.36963 18.7813 1.68771 18.7766 2.0213C18.772 2.35488 18.9001 2.67664 19.1327 2.91579C19.3653 3.15494 19.6834 3.29189 20.017 3.29652C20.1834 3.29941 20.3486 3.26907 20.5031 3.20727C20.6576 3.14547 20.7982 3.05346 20.9167 2.93663C21.0352 2.8198 21.1292 2.6805 21.1932 2.52688C21.2571 2.37327 21.2898 2.20843 21.2892 2.04203V2.04401ZM4.03772 9.91648C4.04334 9.66603 3.97405 9.4196 3.83872 9.20879C3.70339 8.99797 3.50819 8.83237 3.27814 8.7332C3.04809 8.63404 2.79366 8.60583 2.54747 8.65219C2.30129 8.69856 2.07455 8.81738 1.89633 8.99344C1.71811 9.16949 1.59652 9.39475 1.54715 9.64035C1.49778 9.88596 1.52287 10.1407 1.61921 10.372C1.71555 10.6032 1.87875 10.8004 2.0879 10.9383C2.29704 11.0762 2.5426 11.1485 2.7931 11.146C3.12012 11.1445 3.43355 11.0149 3.6662 10.7851C3.89885 10.5553 4.03222 10.2435 4.03772 9.91648ZM21.4656 9.8862C21.4618 10.2178 21.5897 10.5373 21.8214 10.7745C22.0531 11.0117 22.3695 11.1472 22.701 11.1512C22.8663 11.1521 23.0301 11.1205 23.1831 11.0581C23.3362 10.9957 23.4754 10.9037 23.5929 10.7875C23.7104 10.6713 23.8039 10.5331 23.8679 10.3808C23.932 10.2284 23.9655 10.065 23.9664 9.8997C23.9673 9.73444 23.9356 9.57062 23.8732 9.41759C23.8108 9.26456 23.7189 9.12532 23.6027 9.00782C23.4865 8.89033 23.3482 8.79687 23.1959 8.73279C23.0436 8.66871 22.8801 8.63526 22.7149 8.63435C22.3833 8.63556 22.0658 8.76789 21.8315 9.00243C21.5972 9.23698 21.4652 9.55469 21.4643 9.8862H21.4656Z" stroke="white" strokeWidth="2" mask="url(#path-1-inside-1_9526_52564)"/>
</svg>
