<svg width="513" height="502" viewBox="0 0 513 502" fill="none" xmlns="http://www.w3.org/2000/svg">
<path fill-rule="evenodd" clip-rule="evenodd" d="M260.4 0.809559C263.46 0.91152 271.313 1.52328 277.739 2.03309C284.164 2.64485 294.975 4.27622 301.707 5.60171C308.438 6.9272 319.963 9.98602 327.205 12.3311C334.446 14.7782 347.093 19.9782 355.253 24.0566C363.412 28.135 374.631 34.4566 380.241 38.2291C385.85 42.0017 393.908 47.9154 398.089 51.3821C402.271 54.7468 408.594 60.3546 412.266 63.7193C415.836 67.084 422.465 74.2213 426.851 79.5232C431.339 84.8252 437.866 93.2879 441.436 98.386C444.904 103.484 450.003 111.641 452.757 116.739C455.511 121.735 459.59 129.79 461.732 134.582C463.874 139.374 467.444 148.653 469.586 155.28C471.829 161.806 474.685 172.817 476.113 179.649C477.439 186.582 479.173 197.798 481.213 217.17L486.822 220.637C489.882 222.472 494.88 226.755 497.939 230.017C500.897 233.382 504.671 238.582 506.201 241.641C507.833 244.7 509.771 250.002 510.688 253.366C512.014 258.362 512.32 265.805 512.32 294.66C512.32 322.292 511.912 331.162 510.79 336.26C509.975 339.727 507.833 345.437 505.997 349.005C504.263 352.472 500.489 357.774 497.633 360.833C494.778 363.79 489.78 367.868 480.805 373.68L480.397 395.092C480.091 411.813 479.581 417.727 478.255 422.111C477.235 425.17 474.991 430.676 473.155 434.347C471.422 438.017 467.852 443.727 465.404 446.99C462.854 450.354 457.857 455.554 454.185 458.511C450.513 461.57 443.884 465.852 439.396 468.096C434.908 470.237 428.483 472.786 425.117 473.703C420.527 475.029 412.98 475.539 370.041 476.354L367.492 480.943C366.064 483.492 362.902 487.672 360.352 490.119C357.802 492.668 353.417 495.727 350.663 497.052C347.807 498.276 343.116 499.907 340.158 500.519C337.302 501.131 326.389 501.641 315.986 501.641C303.033 501.641 294.975 501.131 290.182 500.111C285.898 499.194 281.002 497.154 277.229 494.707C273.863 492.566 269.885 489.201 268.457 487.264C267.029 485.327 264.684 481.758 263.46 479.209C261.624 475.641 260.91 472.48 260.604 465.445C260.298 457.696 260.604 455.248 262.542 450.15C264.174 445.664 266.418 442.401 271.007 437.813C275.393 433.429 278.963 430.88 283.348 429.147C289.264 426.903 290.488 426.801 315.986 426.801C340.872 426.801 342.81 426.903 348.113 429.045C351.173 430.268 355.967 433.225 358.822 435.672C361.576 438.119 365.35 442.707 370.041 451.68H390.44C404.923 451.68 412.674 451.17 417.162 450.15C420.731 449.335 426.443 447.194 429.911 445.46C433.582 443.625 438.784 439.75 441.946 436.488C445.006 433.327 448.779 428.433 450.309 425.68C451.839 422.825 453.777 417.829 454.593 414.464C455.715 410.182 456.225 403.656 456.225 377.249L451.329 376.127C448.677 375.515 445.312 374.394 443.68 373.578C442.15 372.762 438.784 370.213 436.234 367.868C433.582 365.421 430.319 361.241 426.137 353.288V237.053L428.789 231.955C430.319 229.202 433.582 224.919 436.234 222.574C438.784 220.127 442.15 217.578 443.68 216.762C445.312 215.947 448.677 214.825 456.225 213.092L455.715 209.319C455.511 207.178 454.797 201.57 454.185 196.778C453.573 191.986 451.839 183.319 450.411 177.406C448.983 171.492 446.229 162.315 444.292 157.013C442.456 151.711 438.58 142.739 435.826 137.131C433.073 131.523 427.667 122.143 423.791 116.229C420.018 110.315 413.388 101.445 409.104 96.3468C404.923 91.3507 398.497 84.4173 394.927 81.0526C391.358 77.6879 385.136 72.386 381.261 69.2252C377.283 66.0644 369.735 60.6605 364.432 57.1938C359.128 53.7272 349.745 48.4252 343.524 45.3664C337.302 42.4095 326.797 38.1272 320.065 35.884C313.334 33.6409 303.237 30.888 297.627 29.7664C292.018 28.5429 282.43 27.1154 276.209 26.4017C269.375 25.688 258.768 25.4841 249.181 25.7899C240.512 26.1978 229.19 27.1154 224.193 28.0331C219.195 28.8488 211.546 30.4801 207.364 31.4997C203.182 32.6213 196.043 34.7625 191.555 36.2919C187.068 37.7193 177.48 41.7978 170.137 45.2644C162.794 48.8331 153.41 53.8291 149.229 56.5821C145.047 59.233 137.704 64.433 132.91 68.2056C128.116 71.8762 120.059 79.0134 115.061 84.1115C109.962 89.1075 102.822 97.1624 99.1506 101.955C95.3769 106.747 90.2773 113.884 87.8295 117.759C85.2797 121.735 80.792 129.586 77.9362 135.398C75.0805 141.108 71.4088 149.264 69.6749 153.445C67.941 157.625 65.2892 165.782 63.6574 171.594C62.0255 177.304 59.9857 186.786 59.1697 192.7C58.2518 198.613 57.2319 205.445 56.3139 212.582L61.2096 213.907C63.8614 214.723 67.3291 215.947 68.859 216.762C70.4908 217.578 73.8566 220.127 76.4064 222.574C79.0582 224.919 82.3219 229.202 86.5036 237.053V353.288L83.7498 358.386C82.3219 361.241 79.3641 365.217 77.1203 367.358C74.9785 369.601 70.8988 372.558 68.145 373.986C64.4733 375.821 60.9036 376.739 55.396 377.045C51.2143 377.249 45.1968 376.943 42.137 376.331C39.0773 375.719 33.5697 373.782 29.898 371.947C26.2263 370.111 20.5147 366.033 17.149 362.872C13.3753 359.303 9.60159 354.511 7.25577 350.127C5.21593 346.252 2.87011 340.339 1.95219 336.974C0.626289 331.978 0.320312 324.331 0.320312 295.68C0.320312 268.049 0.728281 259.178 1.85019 254.182C2.66613 250.613 4.70597 245.107 6.33784 241.947C7.86772 238.684 11.7434 233.382 14.7012 230.017C17.761 226.755 22.8606 222.37 31.8359 216.66L32.4478 207.994C32.8558 203.202 33.9777 194.025 35.0996 187.602C36.2215 181.178 38.0574 172.409 39.1793 168.229C40.3012 164.049 42.647 156.402 44.3809 151.406C46.0127 146.409 50.6024 135.806 54.3761 127.955C58.2518 120.104 64.4733 108.888 68.349 102.974C72.2247 97.0605 78.3442 88.5977 82.0159 84.1115C85.5857 79.6252 92.7251 71.8762 97.7227 66.7781C102.822 61.7821 110.574 54.6448 115.061 51.0762C119.549 47.5076 128.014 41.288 133.93 37.4135C139.845 33.5389 150.555 27.4213 157.898 23.8527C165.241 20.2841 177.378 15.288 184.926 12.8409C192.473 10.2919 204.202 7.02916 210.934 5.70367C217.665 4.37818 228.476 2.74681 234.902 2.13505C241.327 1.52328 248.467 0.91152 250.711 0.707598C252.955 0.605638 257.34 0.605638 260.4 0.809559V0.809559ZM39.3833 240.825C37.8534 241.641 34.5896 244.598 32.1418 247.351C29.49 250.409 27.1442 254.284 26.2263 257.445C25.1044 261.421 24.7984 269.68 24.7984 295.17C24.7984 320.66 25.1044 328.919 26.2263 332.896C27.1442 335.954 29.49 339.931 32.1418 342.99C34.6916 345.947 38.6693 349.005 41.6271 350.433C44.8908 351.86 48.6645 352.778 51.9283 352.778C56.3139 352.778 57.6398 352.268 59.8837 349.923L62.6374 347.17L62.5355 242.66C57.2319 238.174 55.294 237.562 52.0303 237.664C49.6845 237.664 46.5227 238.072 44.9928 238.48C43.4629 238.99 40.9131 240.009 39.3833 240.825V240.825ZM449.799 242.966L450.003 347.17C455.205 352.37 456.531 352.88 460.814 352.778C463.874 352.778 467.954 351.86 471.014 350.433C473.971 349.005 477.949 345.947 480.499 342.99C483.151 339.931 485.496 335.954 486.414 332.896C487.536 328.919 487.842 320.66 487.842 295.17C487.842 269.68 487.536 261.421 486.414 257.445C485.496 254.284 483.151 250.409 480.499 247.351C478.051 244.598 474.277 241.437 472.033 240.315C469.79 239.194 465.2 238.072 461.834 237.766C456.225 237.358 455.511 237.562 452.757 240.111L449.799 242.966ZM288.448 455.147C285.694 458.001 285.082 459.531 284.98 463.303C284.878 466.26 285.49 469.013 286.612 470.746C287.632 472.174 289.672 474.009 291.202 474.825C293.343 475.845 299.463 476.15 315.986 476.15C333.426 476.15 338.526 475.845 340.974 474.621C342.606 473.805 344.747 471.766 345.563 470.033C346.379 468.401 347.093 465.139 347.093 462.896C347.093 459.633 346.379 458.205 343.524 455.248L339.954 451.68H291.814L288.448 455.147Z" fill="white"/>
<path fill-rule="evenodd" clip-rule="evenodd" d="M260.401 119.696C343.831 119.798 344.647 119.899 351.174 122.041C354.846 123.264 360.761 126.221 364.331 128.668C368.003 131.115 372.49 134.888 374.326 137.131C376.264 139.374 379.12 143.452 380.752 146.307C382.282 149.06 384.525 154.158 385.545 157.523C387.279 163.131 387.381 168.331 387.381 224.307C387.381 283.852 387.381 285.076 385.137 292.111C383.913 296.088 380.956 302.205 378.508 305.774C376.06 309.444 372.082 314.135 369.533 316.276C366.983 318.417 361.781 321.782 357.804 323.719C353.826 325.656 347.706 327.695 344.035 328.307C340.363 328.817 321.596 329.327 267.031 329.327L242.553 353.39C225.928 369.703 216.647 378.064 213.485 379.491C210.527 380.919 206.855 381.633 203.286 381.633C199.716 381.633 195.942 380.817 193.086 379.491C190.537 378.37 186.763 375.515 184.621 373.272C182.275 370.723 180.235 367.052 179.317 363.688C178.298 360.119 177.788 353.797 177.788 329.327L169.934 328.307C164.733 327.593 159.531 326.064 154.839 323.719C150.964 321.884 145.66 318.519 143.11 316.378C140.561 314.135 136.583 309.444 134.135 305.774C131.687 302.205 128.729 296.088 127.506 292.111C125.262 285.076 125.262 283.852 125.262 224.307C125.262 168.331 125.364 163.131 127.098 157.523C128.117 154.158 130.361 149.06 131.891 146.307C133.523 143.452 136.379 139.374 138.317 137.131C140.153 134.888 144.436 131.217 147.802 128.974C151.066 126.833 156.165 124.08 158.919 123.06C161.775 122.041 166.772 120.817 170.138 120.307C173.504 119.899 214.097 119.594 260.401 119.696V119.696ZM162.693 148.448C160.347 149.876 156.981 152.935 155.247 155.28C153.616 157.625 151.678 161.194 150.964 163.131C150.046 165.782 149.74 181.79 149.74 224.817V282.935C153.921 291.601 156.675 295.476 158.613 297.107C160.449 298.739 163.815 300.982 166.059 302.103C169.22 303.735 172.688 304.244 181.867 304.652C188.905 304.958 194.718 305.672 196.452 306.488C197.982 307.303 199.92 309.342 200.736 310.974C201.96 313.421 202.266 318.417 202.266 335.444C202.266 347.272 202.572 356.856 202.98 356.856C203.49 356.958 215.729 345.335 230.212 331.162L256.627 305.366L342.505 304.346C350.358 300.268 354.03 297.515 355.662 295.578C357.294 293.641 359.639 290.072 360.761 287.523C362.903 283.037 362.903 281.609 362.903 224.307V165.68C358.721 157.013 355.968 153.139 354.03 151.507C352.194 149.876 348.624 147.531 346.074 146.409C341.587 144.268 340.363 144.268 258.871 144.064C211.547 144.064 174.32 144.37 171.668 144.88C169.118 145.39 165.141 147.021 162.693 148.448V148.448Z" fill="white"/>
<path d="M303.439 213.397C304.663 212.072 307.621 210.338 309.864 209.523C312.312 208.605 315.576 208.197 318.024 208.503C320.268 208.809 323.837 210.236 325.877 211.562C328.121 213.091 330.569 215.946 331.793 218.495C332.915 220.84 333.833 224.409 333.833 226.346C333.833 228.283 332.813 231.954 331.487 234.401C330.263 236.95 327.611 240.009 325.673 241.232C323.735 242.456 320.676 243.781 319.044 244.189C317.412 244.495 314.046 244.393 311.598 243.781C309.253 243.17 305.887 241.436 304.153 239.907C302.317 238.276 300.277 235.828 299.563 234.299C298.747 232.668 298.135 229.201 298.135 226.346C298.135 223.593 298.747 220.025 299.563 218.495C300.379 216.864 302.113 214.621 303.439 213.397Z" fill="white"/>
<path d="M243.774 213.703C245.609 211.97 248.567 210.032 250.403 209.319C252.239 208.707 254.891 208.197 256.319 208.197C257.747 208.197 260.398 208.707 262.234 209.319C264.07 210.032 267.028 211.97 268.864 213.703C270.598 215.436 272.739 218.903 273.555 221.35C274.779 225.123 274.779 226.55 273.555 230.832C272.535 234.197 270.903 236.95 268.252 239.193C266.212 241.13 262.744 243.17 260.602 243.781C257.747 244.699 255.707 244.699 252.239 243.781C249.281 243.068 246.221 241.232 243.876 238.785C241.428 236.44 239.592 233.381 238.878 230.425C237.96 226.754 237.96 224.919 239.082 221.35C239.898 218.903 242.04 215.436 243.774 213.703Z" fill="white"/>
<path d="M186.046 212.174C187.984 210.746 190.636 209.319 192.064 208.911C193.492 208.503 195.327 208.095 196.143 208.095C196.959 207.993 199.407 208.503 201.549 209.013C203.589 209.625 206.751 211.256 208.484 212.785C210.32 214.417 212.36 216.864 213.074 218.393C213.89 220.025 214.502 223.593 214.502 226.346C214.502 229.201 213.89 232.668 213.074 234.299C212.36 235.828 210.32 238.276 208.484 239.907C206.751 241.436 203.385 243.17 201.039 243.781C198.591 244.393 195.327 244.495 193.594 244.189C191.86 243.781 188.8 242.354 186.76 241.028C184.414 239.601 182.068 236.848 180.845 234.299C179.723 231.852 178.805 228.283 178.805 226.346C178.805 224.409 179.621 220.942 180.641 218.699C181.66 216.456 184.108 213.499 186.046 212.174Z" fill="white"/>
</svg>
