<svg width="25" height="22" viewBox="0 0 25 22" fill="none" xmlns="http://www.w3.org/2000/svg">
<path d="M9.41544 21.8773C7.87228 21.8773 6.32912 21.8815 4.78596 21.8773C4.15672 21.8834 3.53235 21.7664 2.948 21.5329C1.74644 21.0383 1.06184 20.1148 0.85925 18.8608C0.528822 16.784 0.929108 14.8664 2.31788 13.2338C3.26516 12.1161 4.52539 11.5572 5.95468 11.3714C6.47358 11.3078 6.99603 11.2777 7.5188 11.2813C9.12204 11.2813 10.7281 11.2561 12.3299 11.3218C15.2514 11.4412 17.461 13.4587 17.9248 16.3516C18.059 17.1898 18.1002 18.0323 17.9346 18.8727C17.5986 20.587 16.4194 21.6733 14.6729 21.82C13.9045 21.885 13.1235 21.8703 12.3481 21.8766C11.3701 21.8857 10.3921 21.8766 9.41893 21.8766L9.41544 21.8773ZM9.40357 20.2056C10.8503 20.2056 12.2971 20.2056 13.7438 20.2056C14.0225 20.2053 14.3008 20.1878 14.5772 20.1532C15.5671 20.0282 16.1469 19.47 16.3076 18.4843C16.3509 18.2189 16.3579 17.9478 16.3775 17.6789C16.5591 15.0592 14.4683 12.8894 11.8409 12.9362C10.2202 12.9655 8.5995 12.9411 6.9781 12.9432C5.12966 12.9432 3.74648 13.7528 2.88024 15.3882C2.32138 16.4438 2.30461 17.5804 2.54422 18.7232C2.70001 19.4693 3.18901 19.9283 3.92461 20.0917C4.28221 20.1675 4.64677 20.2054 5.0123 20.2049C6.47582 20.2126 7.93935 20.2056 9.40357 20.2056Z" fill="white"/>
<path d="M9.40217 9.59979C6.76853 9.58512 4.64834 7.45935 4.67 4.85644C4.67022 4.22945 4.79492 3.60874 5.03685 3.03031C5.27878 2.45187 5.63314 1.92722 6.07937 1.48677C6.5256 1.04632 7.05483 0.698841 7.63637 0.464476C8.21791 0.23011 8.8402 0.113523 9.46714 0.121475C12.0568 0.131953 14.1777 2.30383 14.1532 4.92071C14.1295 7.50336 11.9855 9.61446 9.40217 9.59979ZM6.34309 4.86063C6.34282 5.26355 6.42191 5.66257 6.57584 6.03493C6.72978 6.40728 6.95554 6.74566 7.24025 7.03076C7.81525 7.60655 8.59543 7.93033 9.40915 7.93089C10.2229 7.93144 11.0035 7.60872 11.5793 7.03373C12.1551 6.45873 12.4789 5.67855 12.4794 4.86482C12.48 4.0511 12.1572 3.27048 11.5822 2.6947C11.0072 2.11891 10.2271 1.79513 9.41335 1.79457C8.59962 1.79402 7.819 2.11673 7.24322 2.69173C6.66743 3.26673 6.34365 4.04691 6.34309 4.86063Z" fill="white"/>
<path d="M19.2654 11.0396C19.9249 10.999 20.7359 11.0235 21.5253 11.3071C23.5204 12.0239 24.8415 13.9673 24.7451 16.0798C24.7262 16.5038 24.7451 16.9419 24.6424 17.347C24.2735 18.821 22.8833 19.7753 21.3632 19.6523C21.1124 19.6321 20.8589 19.6447 20.606 19.6412C20.0688 19.6335 19.6978 19.2919 19.7027 18.8029C19.7076 18.3139 20.0709 17.9757 20.6109 17.9646C20.9678 17.9576 21.3262 17.9695 21.6825 17.9464C22.4663 17.8968 22.905 17.5273 23.0217 16.7707C23.2089 15.5622 22.9832 14.4598 22.0576 13.5852C21.3856 12.9502 20.5773 12.6673 19.651 12.6966C19.0679 12.7148 18.4844 12.7166 17.9004 12.7022C17.3911 12.6896 17.0251 12.304 17.0418 11.838C17.0586 11.3721 17.4212 11.0396 17.9262 11.0347C18.3188 11.0361 18.7107 11.0396 19.2654 11.0396Z" fill="white"/>
<path d="M17.7467 2.35763C19.8222 2.35763 21.519 3.88192 21.6881 5.82397C21.8662 7.90085 20.4914 9.71296 18.4627 10.0427C17.2752 10.2355 16.2168 9.92812 15.3045 9.14292C14.8902 8.78665 14.8392 8.29135 15.1647 7.92111C15.4903 7.55086 15.9891 7.53898 16.3984 7.88199C17.7215 8.98923 19.6818 8.31161 19.9912 6.62454C20.1442 5.78625 19.8808 5.06532 19.2172 4.52881C18.564 3.99929 17.8249 3.8931 17.0306 4.18441C16.8878 4.24674 16.7375 4.29063 16.5836 4.31504C16.3952 4.33325 16.2064 4.28466 16.0502 4.17778C15.8941 4.0709 15.7804 3.91252 15.7292 3.73033C15.671 3.5453 15.6801 3.34566 15.7549 3.16669C15.8297 2.98772 15.9653 2.84095 16.1379 2.75232C16.6332 2.48966 17.186 2.35404 17.7467 2.35763Z" fill="white"/>
</svg>
