<svg width="25" height="24" viewBox="0 0 25 24" fill="none" xmlns="http://www.w3.org/2000/svg">
<path d="M23.1517 5.36512C23.4105 5.53016 23.584 5.81693 23.5917 6.14494L23.592 6.15669H23.5918V17.1553V17.167L23.5917 17.167C23.5801 17.6615 23.1814 18.0963 22.6527 18.0968M23.1517 5.36512L19.9931 21.3088M23.1517 5.36512V5.21473L22.6513 5.21517L21.5186 5.21615V4.80567M23.1517 5.36512L21.5186 4.80567M22.6527 18.0968C22.6524 18.0968 22.652 18.0968 22.6517 18.0968V17.5968M22.6527 18.0968C22.6528 18.0968 22.653 18.0968 22.6532 18.0968L22.6517 17.5968M22.6527 18.0968C21.4258 18.1004 20.8113 18.1004 20.5031 18.0995C20.3493 18.099 20.2703 18.0984 20.229 18.0978C20.2125 18.0975 20.2 18.0973 20.19 18.097C20.0819 18.1011 19.9945 18.1899 19.9945 18.3016V18.3018L19.9933 20.9321L19.9931 21.2617L19.9931 21.3031L19.9931 21.3083V21.3088M22.6517 17.5968C22.8923 17.5968 23.0862 17.3959 23.0918 17.1553L22.6517 17.5968ZM19.9931 21.3088V21.3089C19.9931 21.3089 19.9931 21.3088 19.4931 21.3088H19.9931ZM21.5186 4.80567H22.6435C23.3916 4.80928 23.994 5.40749 24 6.15015V17.1619C23.994 17.9043 23.3918 18.503 22.6432 18.5078H20.9026H20.4026V19.0078C20.4026 19.452 20.4023 20.0271 20.4019 20.4912L20.4014 21.0738L20.4013 21.246L20.4012 21.2923L20.4012 21.3043L20.4012 21.3073L20.4012 21.3081V21.3083V21.3084V21.3089C20.4012 21.9939 19.8464 22.5481 19.1634 22.5481C18.7741 22.5481 18.4285 22.3705 18.1993 22.0896L18.1992 22.0895L15.4255 18.6916L15.2754 18.5078H15.0381H9.6992L10.0335 18.0983H10.0356L10.6664 18.0981L12.5811 18.0976L14.4974 18.0971L15.1302 18.097L15.3082 18.0969L15.3555 18.0969L15.3678 18.0969L15.371 18.0969H15.3721C15.4302 18.0969 15.4894 18.1221 15.532 18.1733C15.5322 18.1735 15.5324 18.1738 15.5327 18.1741L21.5186 4.80567ZM14.9191 8.66665H14.9191L5.49974 8.66807C5.49973 8.66807 5.49971 8.66807 5.4997 8.66807C5.38669 8.66804 5.29499 8.57633 5.29499 8.46331C5.29499 8.35029 5.38671 8.25856 5.49974 8.25856H14.9191C15.0322 8.25856 15.1239 8.35029 15.1239 8.46331C15.1239 8.57503 15.0335 8.66665 14.9191 8.66665ZM14.9191 11.5078H14.9433C15.045 11.5198 15.1239 11.6063 15.1239 11.7111C15.1239 11.8241 15.0322 11.9159 14.9191 11.9159H5.49974C5.38671 11.9159 5.29499 11.8241 5.29499 11.7111C5.29499 11.5994 5.38541 11.5078 5.49974 11.5078H14.9191ZM18.0665 1.86263H18.0664L2.34943 1.864V1.86387L2.3378 1.86414C1.82615 1.87609 1.42297 2.28827 1.40814 2.78932L1.40792 2.79671V2.80411V13.8041V13.8116L1.40814 13.819C1.42272 14.3099 1.81829 14.7426 2.34655 14.7457L2.34832 14.7457L2.34948 14.2457L2.34835 14.7457H2.34844L2.34877 14.7457L2.35011 14.7457L2.35538 14.7457L2.3759 14.7458L2.45378 14.7459L2.73171 14.7465C2.96171 14.7469 3.26841 14.7475 3.57514 14.7478C3.88179 14.7482 4.18882 14.7484 4.41934 14.7481C4.53447 14.748 4.63121 14.7477 4.69947 14.7473C4.73334 14.7471 4.76156 14.7469 4.78192 14.7466C4.79157 14.7464 4.80219 14.7462 4.8116 14.7459C4.92008 14.7509 5.0053 14.8392 5.0053 14.949V14.9493L5.5053 14.949L5.0053 14.9493V14.9494L5.0053 14.9498L5.0053 14.9514L5.0053 14.9579L5.00531 14.983L5.00536 15.0784L5.00552 15.4188L5.00601 16.452L5.00649 17.486L5.00665 17.8274L5.0067 17.9234L5.00671 17.9489L5.00671 17.9577C5.00671 18.4164 5.38055 18.7874 5.83786 18.7874C6.09189 18.7874 6.32022 18.6723 6.47202 18.4923L6.47207 18.4923L6.47704 18.4862L9.47013 14.821L9.4714 14.8194C9.51028 14.7714 9.56684 14.7458 9.62769 14.7458H18.0707H18.0781L18.0855 14.7456C18.5911 14.7306 18.9987 14.3216 19.0107 13.816L19.0108 13.8161V13.8042V2.80418H19.011L19.0107 2.79237C18.9987 2.28684 18.5911 1.87772 18.0854 1.86284L18.0781 1.86263H18.0707H18.0665ZM2.85529 1.45316L18.0622 1.45457C18.0624 1.45457 18.0626 1.45458 18.0628 1.45458C18.8102 1.45697 19.4129 2.05449 19.4189 2.79905V13.8094C19.4129 14.5536 18.8104 15.1516 18.0626 15.1552H9.96185H9.72457L9.57452 15.3391L6.8008 18.7369L6.80004 18.7378C6.57273 19.0177 6.22631 19.1955 5.83804 19.1955C5.15301 19.1955 4.59879 18.6408 4.59879 17.9577L4.59808 17.1388C4.59773 16.6745 4.59737 16.0994 4.59737 15.6552V15.1552H4.09737H2.35632C1.60855 15.1515 1.00601 14.5536 1 13.8094V2.79894C1.006 2.05422 1.60909 1.45661 2.35668 1.45454L2.84966 1.45317L2.85529 1.45316ZM5.49974 5.01076H14.9191C15.0335 5.01076 15.1239 5.10238 15.1239 5.2141C15.1239 5.32712 15.0322 5.41885 14.9191 5.41885H5.49974C5.38606 5.41885 5.29499 5.32647 5.29499 5.21551C5.29499 5.10248 5.38672 5.01076 5.49974 5.01076Z" stroke="#0B3671"/>
</svg>
