<svg width="25" height="24" viewBox="0 0 25 24" fill="none" xmlns="http://www.w3.org/2000/svg">
<g clip-path="url(#clip0_9526_52550)">
<path d="M6.09199 6.30893C4.38555 6.30893 3.01092 7.68356 3.01092 9.39C3.01092 11.0964 4.38555 12.4711 6.09199 12.4711C7.79843 12.4711 9.17306 11.0964 9.17306 9.39C9.17306 7.68356 7.79843 6.30893 6.09199 6.30893ZM6.09199 11.049C5.19137 11.049 4.43295 10.2906 4.43295 9.39C4.43295 8.48938 5.19137 7.73096 6.09199 7.73096C6.99261 7.73096 7.75103 8.48938 7.75103 9.39C7.75103 10.2906 7.04001 11.049 6.09199 11.049Z" fill="white"/>
<path d="M18.0845 12.4711C18.3689 13.8931 19.6013 14.9833 21.1181 14.9833C22.8246 14.9833 24.1992 13.6087 24.1992 11.9023C24.1992 10.1958 22.8246 8.82119 21.1181 8.82119C19.6961 8.82119 18.5111 9.76921 18.1319 11.0964H16.2358V5.64531C16.2358 5.1713 16.615 4.79209 17.089 4.79209H18.1319C18.4637 6.16672 19.6961 7.16215 21.1181 7.16215C22.8246 7.16215 24.1992 5.78751 24.1992 4.08107C24.1992 2.37463 22.8246 1 21.1181 1C19.6487 1 18.4163 1.99542 18.1319 3.37006H17.089C15.8566 3.37006 14.8138 4.36548 14.8138 5.64531V11.049H11.7327C12.3015 9.2004 11.9697 7.11475 10.6899 5.50311C8.84125 3.32265 5.57058 2.75384 3.10572 4.17588C0.640859 5.64531 -0.449367 8.77379 0.593458 11.4282C0.877864 12.1393 1.30447 12.8029 1.87329 13.3717C2.06289 13.5613 2.15769 13.7035 2.2051 13.9879C2.2525 14.3671 2.2999 14.6989 2.4421 15.0781C2.67911 15.5521 3.01091 15.8366 3.39012 16.0736V18.3014C3.39012 19.439 4.33815 20.3871 5.47577 20.3871H6.6608C7.79843 20.3871 8.74645 19.439 8.74645 18.3014V16.121C8.98346 15.9788 9.22046 15.8366 9.41007 15.5995C9.64707 15.3151 9.83668 14.9359 9.93148 14.5567C10.0263 14.1775 9.93148 13.7983 10.2159 13.5139C10.5477 13.1821 10.7847 12.8503 11.0217 12.4711H14.8138V17.9222C14.8138 19.1546 15.8092 20.1975 17.089 20.1975H18.1319C18.4637 21.5247 19.6961 22.5675 21.1181 22.5675C22.8246 22.5675 24.1992 21.1929 24.1992 19.4864C24.1992 17.78 22.8246 16.4054 21.1181 16.4054C19.6487 16.4054 18.4163 17.4482 18.1319 18.8228H17.089C16.615 18.8228 16.2358 18.4436 16.2358 17.9696V12.4711H18.0845ZM21.1181 10.2432C22.0188 10.2432 22.7772 11.0016 22.7772 11.9023C22.7772 12.8029 22.0188 13.5613 21.1181 13.5613C20.2175 13.5613 19.4591 12.8029 19.4591 11.9023C19.4591 11.0016 20.2175 10.2432 21.1181 10.2432ZM21.1181 2.42203C22.0188 2.42203 22.7772 3.18045 22.7772 4.08107C22.7772 4.98169 22.0188 5.74011 21.1181 5.74011C20.2175 5.74011 19.4591 4.98169 19.4591 4.08107C19.4591 3.18045 20.2175 2.42203 21.1181 2.42203ZM5.00176 16.4528C5.80758 16.4528 6.566 16.4528 7.37182 16.4528V16.9268H4.90696V16.4528C4.90696 16.4528 4.95436 16.4528 5.00176 16.4528ZM6.7082 18.965H5.52317C5.19137 18.965 4.90696 18.6806 4.85956 18.3488H7.32442C7.32442 18.6806 7.04001 18.965 6.7082 18.965ZM9.22046 12.5185C8.79385 12.9925 8.65165 13.4665 8.60425 14.0827C8.55685 14.6041 8.22504 14.9359 7.70363 15.0307C7.13481 15.0781 6.566 15.0307 6.04459 15.0307C5.52317 15.0307 4.76476 15.1729 4.29075 14.9833C3.86414 14.7937 3.72193 14.4619 3.67453 14.0353C3.57973 13.3243 3.39012 12.9451 2.91611 12.4237C1.30447 10.6698 1.25707 7.92056 2.91611 6.21412C4.43295 4.60249 6.94521 4.36548 8.74645 5.64531C11.0217 7.25695 11.1639 10.575 9.22046 12.5185ZM21.1181 17.7326C22.0188 17.7326 22.7772 18.491 22.7772 19.3916C22.7772 20.2923 22.0188 21.0507 21.1181 21.0507C20.2175 21.0507 19.4591 20.2923 19.4591 19.3916C19.4591 18.491 20.2175 17.7326 21.1181 17.7326Z" fill="white"/>
</g>
<defs>
<clipPath id="clip0_9526_52550">
<rect width="24" height="24" fill="white" transform="translate(0.5)"/>
</clipPath>
</defs>
</svg>
