<svg xmlns="http://www.w3.org/2000/svg" width="28" height="28" viewBox="0 0 28 28" fill="none">
  <path d="M25.2681 13.8819C25.1691 13.1564 25.0789 12.3432 24.943 11.5369C24.8028 10.7106 25.2313 9.99903 26.0235 9.82114C26.7745 9.65201 27.5176 10.1287 27.6754 10.9402C28.7129 16.2778 27.2714 20.8425 23.2369 24.4897C20.3967 27.0599 16.9721 28.2289 13.1593 27.9379C7.7376 27.5243 3.71272 24.8314 1.3756 19.9267C-1.70988 13.4517 0.549244 5.96713 6.60979 2.1254C9.28428 0.431497 12.2304 -0.221352 15.3781 0.0652007C16.5006 0.160853 17.6054 0.405445 18.6634 0.792536C18.9861 0.909771 19.2533 1.14343 19.4125 1.44761C19.5718 1.75179 19.6115 2.10451 19.5239 2.43649C19.4448 2.75266 19.2573 3.03106 18.9941 3.22321C18.7308 3.41536 18.4085 3.50909 18.0833 3.48806C17.8777 3.46359 17.6757 3.41536 17.4813 3.34435C11.0036 1.23069 4.13071 5.38088 2.98713 12.0969C1.94696 18.2048 6.03844 23.9875 12.134 25.0224C13.5836 25.2719 15.0682 25.2328 16.5026 24.9073C17.9371 24.5817 19.2931 23.9762 20.493 23.1254C21.6929 22.2746 22.713 21.1953 23.4948 19.9494C24.2767 18.7035 24.8048 17.3155 25.0491 15.865C25.1551 15.2429 25.1901 14.6075 25.2681 13.8819Z" fill="url(#paint0_linear_522_5316)"/>
  <path d="M25.2681 13.8819C25.1691 13.1564 25.0789 12.3432 24.943 11.5369C24.8028 10.7106 25.2313 9.99903 26.0235 9.82114C26.7745 9.65201 27.5176 10.1287 27.6754 10.9402C28.7129 16.2778 27.2714 20.8425 23.2369 24.4897C20.3967 27.0599 16.9721 28.2289 13.1593 27.9379C7.7376 27.5243 3.71272 24.8314 1.3756 19.9267C-1.70988 13.4517 0.549244 5.96713 6.60979 2.1254C9.28428 0.431497 12.2304 -0.221352 15.3781 0.0652007C16.5006 0.160853 17.6054 0.405445 18.6634 0.792536C18.9861 0.909771 19.2533 1.14343 19.4125 1.44761C19.5718 1.75179 19.6115 2.10451 19.5239 2.43649C19.4448 2.75266 19.2573 3.03106 18.9941 3.22321C18.7308 3.41536 18.4085 3.50909 18.0833 3.48806C17.8777 3.46359 17.6757 3.41536 17.4813 3.34435C11.0036 1.23069 4.13071 5.38088 2.98713 12.0969C1.94696 18.2048 6.03844 23.9875 12.134 25.0224C13.5836 25.2719 15.0682 25.2328 16.5026 24.9073C17.9371 24.5817 19.2931 23.9762 20.493 23.1254C21.6929 22.2746 22.713 21.1953 23.4948 19.9494C24.2767 18.7035 24.8048 17.3155 25.0491 15.865C25.1551 15.2429 25.1901 14.6075 25.2681 13.8819Z" fill="#04C4C4" fill-opacity="0.6"/>
  <path d="M25.2681 13.8819C25.1691 13.1564 25.0789 12.3432 24.943 11.5369C24.8028 10.7106 25.2313 9.99903 26.0235 9.82114C26.7745 9.65201 27.5176 10.1287 27.6754 10.9402C28.7129 16.2778 27.2714 20.8425 23.2369 24.4897C20.3967 27.0599 16.9721 28.2289 13.1593 27.9379C7.7376 27.5243 3.71272 24.8314 1.3756 19.9267C-1.70988 13.4517 0.549244 5.96713 6.60979 2.1254C9.28428 0.431497 12.2304 -0.221352 15.3781 0.0652007C16.5006 0.160853 17.6054 0.405445 18.6634 0.792536C18.9861 0.909771 19.2533 1.14343 19.4125 1.44761C19.5718 1.75179 19.6115 2.10451 19.5239 2.43649C19.4448 2.75266 19.2573 3.03106 18.9941 3.22321C18.7308 3.41536 18.4085 3.50909 18.0833 3.48806C17.8777 3.46359 17.6757 3.41536 17.4813 3.34435C11.0036 1.23069 4.13071 5.38088 2.98713 12.0969C1.94696 18.2048 6.03844 23.9875 12.134 25.0224C13.5836 25.2719 15.0682 25.2328 16.5026 24.9073C17.9371 24.5817 19.2931 23.9762 20.493 23.1254C21.6929 22.2746 22.713 21.1953 23.4948 19.9494C24.2767 18.7035 24.8048 17.3155 25.0491 15.865C25.1551 15.2429 25.1901 14.6075 25.2681 13.8819Z" fill="url(#paint1_angular_522_5316)" fill-opacity="0.2"/>
  <path d="M12.6388 14.8766C12.7211 14.7547 12.8104 14.6377 12.9061 14.526C16.6386 10.7924 20.3713 7.05872 24.1044 3.32507C24.483 2.94562 24.9036 2.72217 25.4522 2.81856C25.6934 2.85799 25.9199 2.96032 26.1089 3.11524C26.298 3.27017 26.4428 3.4722 26.5288 3.70096C26.6149 3.92973 26.6391 4.17714 26.599 4.41823C26.5589 4.65932 26.4559 4.88558 26.3004 5.07418C26.2085 5.18248 26.1105 5.28546 26.0069 5.38264C21.9408 9.44987 17.8744 13.5157 13.8078 17.58C12.9893 18.3984 12.2523 18.3993 11.4347 17.58C10.1203 16.2667 8.80582 14.9522 7.49136 13.6366C6.93052 13.074 6.86304 12.3142 7.30908 11.7376C7.83487 11.0523 8.79267 10.9954 9.43851 11.6307C10.413 12.5894 11.3743 13.5586 12.3391 14.5225C12.4258 14.6145 12.4977 14.7118 12.6388 14.8766Z" fill="url(#paint2_linear_522_5316)"/>
  <path d="M12.6388 14.8766C12.7211 14.7547 12.8104 14.6377 12.9061 14.526C16.6386 10.7924 20.3713 7.05872 24.1044 3.32507C24.483 2.94562 24.9036 2.72217 25.4522 2.81856C25.6934 2.85799 25.9199 2.96032 26.1089 3.11524C26.298 3.27017 26.4428 3.4722 26.5288 3.70096C26.6149 3.92973 26.6391 4.17714 26.599 4.41823C26.5589 4.65932 26.4559 4.88558 26.3004 5.07418C26.2085 5.18248 26.1105 5.28546 26.0069 5.38264C21.9408 9.44987 17.8744 13.5157 13.8078 17.58C12.9893 18.3984 12.2523 18.3993 11.4347 17.58C10.1203 16.2667 8.80582 14.9522 7.49136 13.6366C6.93052 13.074 6.86304 12.3142 7.30908 11.7376C7.83487 11.0523 8.79267 10.9954 9.43851 11.6307C10.413 12.5894 11.3743 13.5586 12.3391 14.5225C12.4258 14.6145 12.4977 14.7118 12.6388 14.8766Z" fill="#04C4C4" fill-opacity="0.6"/>
  <path d="M12.6388 14.8766C12.7211 14.7547 12.8104 14.6377 12.9061 14.526C16.6386 10.7924 20.3713 7.05872 24.1044 3.32507C24.483 2.94562 24.9036 2.72217 25.4522 2.81856C25.6934 2.85799 25.9199 2.96032 26.1089 3.11524C26.298 3.27017 26.4428 3.4722 26.5288 3.70096C26.6149 3.92973 26.6391 4.17714 26.599 4.41823C26.5589 4.65932 26.4559 4.88558 26.3004 5.07418C26.2085 5.18248 26.1105 5.28546 26.0069 5.38264C21.9408 9.44987 17.8744 13.5157 13.8078 17.58C12.9893 18.3984 12.2523 18.3993 11.4347 17.58C10.1203 16.2667 8.80582 14.9522 7.49136 13.6366C6.93052 13.074 6.86304 12.3142 7.30908 11.7376C7.83487 11.0523 8.79267 10.9954 9.43851 11.6307C10.413 12.5894 11.3743 13.5586 12.3391 14.5225C12.4258 14.6145 12.4977 14.7118 12.6388 14.8766Z" fill="url(#paint3_angular_522_5316)" fill-opacity="0.2"/>
  <defs>
    <linearGradient id="paint0_linear_522_5316" x1="5.8098" y1="8.34606" x2="19.7576" y2="26.9824" gradientUnits="userSpaceOnUse">
      <stop stopColor="#182F59"/>
      <stop offset="1" stopColor="#020F26"/>
    </linearGradient>
    <radialGradient id="paint1_angular_522_5316" cx="0" cy="0" r="1" gradientUnits="userSpaceOnUse" gradientTransform="translate(19.7695 19.2725) rotate(-137.262) scale(21.8631 21.862)">
      <stop stopColor="#4C576B" stopOpacity="0.5"/>
      <stop offset="1" stopOpacity="0.7"/>
    </radialGradient>
    <linearGradient id="paint2_linear_522_5316" x1="5.8098" y1="8.34606" x2="19.7576" y2="26.9824" gradientUnits="userSpaceOnUse">
      <stop stopColor="#182F59"/>
      <stop offset="1" stopColor="#020F26"/>
    </linearGradient>
    <radialGradient id="paint3_angular_522_5316" cx="0" cy="0" r="1" gradientUnits="userSpaceOnUse" gradientTransform="translate(19.7695 19.2725) rotate(-137.262) scale(21.8631 21.862)">
      <stop stopColor="#4C576B" stopOpacity="0.5"/>
      <stop offset="1" stopOpacity="0.7"/>
    </radialGradient>
  </defs>
</svg>